<?xml version="1.0" encoding="utf-8"?>
<!-- Generator: Adobe Illustrator 16.0.0, SVG Export Plug-In . SVG Version: 6.00 Build 0)  -->
<!DOCTYPE svg PUBLIC "-//W3C//DTD SVG 1.1//EN" "http://www.w3.org/Graphics/SVG/1.1/DTD/svg11.dtd">
<svg version="1.1" xmlns="http://www.w3.org/2000/svg" xmlns:xlink="http://www.w3.org/1999/xlink" x="0px" y="0px" width="39px"
	 height="40.667px" viewBox="0 0 39 40.667" enable-background="new 0 0 39 40.667" xml:space="preserve">
<g id="IMG" display="none">
</g>
<g id="Soporte">
</g>
<g id="Cintillos">
</g>
<g id="Imagenes">
</g>
<g id="Vectores">
</g>
<g id="Iconos">
	<g>
		<g>
			<g>
				<path fill="#FFFFFF" d="M19.51,29.504c-1.197-0.164-2.318-0.49-3.367-0.982c-1.049-0.49-1.939-1.1-2.676-1.824l1.166-1.736
					c0.102-0.154,0.236-0.279,0.406-0.375c0.168-0.098,0.344-0.146,0.529-0.146c0.225,0,0.465,0.08,0.721,0.238
					s0.547,0.344,0.873,0.559c0.328,0.215,0.701,0.43,1.121,0.645c0.418,0.215,0.914,0.375,1.486,0.477l0.584-6.871
					c-0.727-0.207-1.443-0.449-2.156-0.723c-0.709-0.279-1.35-0.645-1.916-1.102c-0.568-0.459-1.025-1.035-1.373-1.73
					c-0.348-0.699-0.521-1.57-0.521-2.617c0-0.781,0.156-1.541,0.469-2.287c0.311-0.744,0.764-1.408,1.357-1.992
					c0.592-0.586,1.324-1.068,2.191-1.447c0.869-0.381,1.867-0.57,2.992-0.57l0.168-1.951c0.021-0.25,0.123-0.473,0.307-0.668
					c0.184-0.197,0.424-0.293,0.721-0.293h1.396l-0.262,3.014c1.084,0.172,2.02,0.48,2.809,0.92
					c0.787,0.439,1.471,0.936,2.055,1.488l-0.92,1.396c-0.145,0.203-0.287,0.357-0.43,0.459c-0.145,0.102-0.318,0.154-0.521,0.154
					c-0.154,0-0.336-0.049-0.545-0.146c-0.209-0.096-0.449-0.215-0.721-0.354c-0.271-0.137-0.57-0.277-0.896-0.422
					c-0.328-0.143-0.691-0.26-1.09-0.352l-0.537,6.352c0.736,0.229,1.465,0.477,2.186,0.746c0.721,0.271,1.371,0.621,1.947,1.051
					c0.578,0.43,1.047,0.963,1.404,1.602s0.537,1.441,0.537,2.402c0,0.951-0.158,1.842-0.475,2.678
					c-0.318,0.832-0.781,1.568-1.389,2.207c-0.609,0.639-1.357,1.158-2.248,1.559c-0.889,0.398-1.906,0.639-3.051,0.721
					l-0.186,2.254c-0.02,0.236-0.121,0.453-0.307,0.65c-0.184,0.201-0.424,0.301-0.721,0.301h-1.395L19.51,29.504z M17.961,12.965
					c0,0.389,0.066,0.732,0.199,1.029s0.318,0.559,0.561,0.791c0.24,0.229,0.523,0.432,0.85,0.611
					c0.328,0.182,0.686,0.34,1.074,0.484l0.475-5.678c-0.561,0.07-1.041,0.191-1.441,0.361c-0.398,0.166-0.727,0.373-0.98,0.619
					c-0.256,0.246-0.443,0.52-0.561,0.822C18.02,12.307,17.961,12.629,17.961,12.965z M25.414,23c0-0.389-0.068-0.729-0.207-1.02
					c-0.137-0.291-0.332-0.551-0.582-0.775c-0.252-0.227-0.545-0.42-0.883-0.582c-0.336-0.164-0.705-0.313-1.104-0.445l-0.521,6.227
					c1.084-0.143,1.904-0.51,2.461-1.096C25.137,24.721,25.414,23.951,25.414,23z"/>
			</g>
		</g>
		<g>
			<path fill="#FFFFFF" d="M19.013,38.43c-0.1,0-0.203-0.012-0.313-0.037l-0.186-0.043l-0.008-0.189
				c-0.023-0.508,0.156-1.043,0.331-1.563c0.099-0.291,0.19-0.566,0.244-0.824c0.011-0.055,0.03-0.131,0.053-0.223
				c0.216-0.877,0.214-1.182,0.167-1.279c-0.002,0-0.002,0.002-0.004,0.002c-0.142,0.436-0.44,0.861-0.707,1.242
				c-0.085,0.121-0.166,0.238-0.236,0.346c-0.1,0.156-0.197,0.393-0.301,0.645c-0.185,0.445-0.375,0.906-0.67,1.156
				c-0.303,0.256-0.558,0.32-0.761,0.189c-0.411-0.262-0.205-1.188-0.098-1.572c0.032-0.117,0.112-0.281,0.224-0.508
				c0.186-0.377,0.571-1.162,0.451-1.402c-0.006-0.012-0.018-0.035-0.086-0.047c-0.266-0.061-0.594,1.023-0.783,1.666
				c-0.269,0.912-0.5,1.699-0.949,1.938c-0.145,0.078-0.306,0.092-0.465,0.043c-0.135-0.043-0.24-0.137-0.304-0.271
				c-0.255-0.537,0.2-1.768,0.821-3.32c0.08-0.199,0.164-0.41,0.235-0.596c-0.563,0.316-1.112,0.697-1.288,1.291
				c-0.051,0.172-0.045,0.441-0.037,0.729c0.015,0.65,0.034,1.461-0.666,1.701c-0.301,0.1-0.479,0.008-0.576-0.088
				c-0.373-0.367-0.092-1.334,0.414-2.881c0.123-0.377,0.279-0.855,0.35-1.152c-0.378,0.15-0.535,0.691-0.714,1.447
				c-0.144,0.605-0.278,1.178-0.671,1.412c-0.179,0.107-0.389,0.129-0.624,0.066l-0.175-0.047l-0.01-0.182
				c-0.04-0.727,0.268-1.375,0.564-2.004l0.095-0.201c0.039-0.084,0.095-0.191,0.157-0.311c0.123-0.238,0.445-0.855,0.426-1.051
				c-0.019,0.01-0.084,0.014-0.201,0.053c-0.559,0.178-0.768,0.861-0.969,1.523c-0.242,0.791-0.551,1.773-1.623,1.557l-0.244-0.051
				l0.051-0.246c0.105-0.516,0.34-0.979,0.565-1.428c0.358-0.709,0.698-1.385,0.515-2.219c-0.313,0.244-0.512,0.748-0.706,1.238
				c-0.249,0.629-0.507,1.279-1.06,1.463c-0.446,0.148-0.669,0.002-0.777-0.148c-0.428-0.592,0.487-2.172,0.6-2.324
				c0.07-0.094,0.199-0.221,0.348-0.365c0.224-0.217,0.745-0.723,0.684-0.91c-0.012-0.035-0.03-0.078-0.057-0.086
				c-0.076-0.033-0.247,0.008-0.671,0.299c-0.208,0.143-0.409,0.516-0.604,0.875c-0.363,0.666-0.859,1.58-1.71,1.148l-0.16-0.082
				l0.026-0.178c0.096-0.631,0.551-1.107,0.992-1.57c0.371-0.389,0.725-0.762,0.813-1.18c-0.439,0.188-0.881,0.389-1.207,0.707
				c-0.102,0.1-0.184,0.215-0.264,0.326c-0.237,0.328-0.538,0.738-1.198,0.648l-0.205-0.027L5.84,31.33
				c-0.046-0.813,0.599-1.316,1.167-1.76c0.525-0.408,0.986-0.768,0.996-1.305c-0.585,0.047-1.137,0.314-1.479,0.727
				c-0.022,0.027-0.059,0.078-0.105,0.143c-0.44,0.609-0.913,1.201-1.368,1.102c-0.229-0.049-0.382-0.248-0.453-0.592
				c-0.152-0.736,0.551-1.297,1.229-1.838c0.463-0.369,0.939-0.75,1.053-1.121c-0.287,0.059-0.499,0.264-0.754,0.512
				c-0.203,0.197-0.412,0.4-0.683,0.539C5.124,27.9,4.144,28.01,3.879,27.625c-0.06-0.088-0.161-0.316,0.122-0.605
				c0.151-0.615,0.694-1.025,1.22-1.42c0.435-0.328,0.851-0.643,0.976-1.031c-0.335,0.133-0.732,0.455-1.119,0.77
				c-0.874,0.709-1.961,1.59-2.862,0.572l-0.107-0.121l0.066-0.148c0.239-0.531,0.848-0.961,1.491-1.416
				c0.493-0.35,0.998-0.707,1.252-1.07c-0.088,0.049-0.18,0.102-0.267,0.15c-0.759,0.434-1.544,0.879-1.968,0.572
				c-0.316-0.23-0.221-0.699-0.189-0.854c0.082-0.396,0.614-0.814,1.178-1.258c0.276-0.217,0.708-0.557,0.856-0.758
				c-0.202,0.041-0.558,0.174-0.812,0.27c-0.738,0.279-1.436,0.541-1.793,0.236c-0.164-0.141-0.217-0.361-0.155-0.652
				c0.136-0.654,0.8-0.986,1.442-1.307c0.523-0.262,0.899-0.467,1.047-0.729c-0.005,0-0.009,0.002-0.014,0.004
				c-0.955,0.439-1.779,0.773-2.176,0.436c-0.182-0.154-0.228-0.402-0.135-0.732c0.143-0.514,0.762-0.809,1.417-1.123
				c0.653-0.313,1.12-0.559,1.218-0.861c-0.235,0.061-0.451,0.178-0.676,0.299c-0.41,0.223-0.874,0.475-1.505,0.381l-0.168-0.023
				L2.18,17.039C1.934,16,2.966,15.463,3.795,15.029c0.63-0.328,1.075-0.582,1.173-0.883c-0.314,0.008-0.633,0.178-0.992,0.367
				c-0.455,0.242-0.973,0.52-1.572,0.467l-0.176-0.014l-0.046-0.17c-0.345-1.273,2.015-2.477,2.284-2.609l0.221,0.449
				c-0.854,0.42-1.961,1.229-2.034,1.846c0.374-0.031,0.724-0.217,1.089-0.41c0.482-0.256,0.982-0.514,1.545-0.393l0.166,0.039
				l0.025,0.17c0.113,0.77-0.682,1.559-1.451,1.959C3.2,16.279,2.641,16.5,2.644,17.5c0.004,0,0.007,0,0.01,0
				c0.37,0,0.666-0.535,1-0.717c0.34-0.184,0.691-0.561,1.146-0.588l0.204-0.105l0.052,0.151c0.223,0.848-0.688,1.259-1.49,1.644
				c-0.502,0.24-1.07,0.5-1.152,0.795c-0.047,0.168-0.02,0.213-0.02,0.213c0.086,0.068,0.441,0.035,1.643-0.514
				c0.201-0.094,0.364-0.167,0.452-0.194L4.761,18.1l0.048,0.281c0.146,0.861-0.662,1.266-1.376,1.621
				c-0.535,0.268-1.089,0.545-1.176,0.961c-0.027,0.133-0.006,0.174-0.006,0.174c0.141,0.105,0.916-0.188,1.289-0.328
				c0.751-0.283,1.295-0.486,1.492-0.096c0.225,0.441-0.338,0.885-1.052,1.445c-0.401,0.316-0.952,0.748-0.997,0.965
				c-0.057,0.277-0.007,0.348-0.006,0.35c0.171,0.111,1.082-0.404,1.425-0.602c0.418-0.238,0.685-0.387,0.879-0.428l0.298-0.064
				l0.005,0.303c0.015,0.785-0.821,1.377-1.63,1.949c-0.492,0.35-1,0.709-1.241,1.068c0.519,0.43,1.134,0.238,2.05-0.506
				C5.358,24.709,5.922,24.5,6.476,24.5c0.002,0,0.004,0,0.006,0h0.232l0.016-0.016c0.059,0.805-0.614,1.189-1.207,1.637
				c-0.494,0.373-0.961,0.662-1.047,1.133L4.46,27.31l-0.064,0.042c-0.012,0.01-0.021,0.012-0.03,0.02
				c0.204,0.049,0.652,0.025,0.847-0.074c0.205-0.107,0.379-0.279,0.563-0.457c0.349-0.338,0.742-0.728,1.394-0.663l0.199,0.017
				l0.027,0.197c0.098,0.725-0.592,1.275-1.258,1.807c-0.561,0.447-1.141,0.91-1.051,1.346c0.035,0.174,0.08,0.209,0.08,0.211
				c0.062-0.006,0.277-0.123,0.846-0.912c0.056-0.076,0.1,0.232,0.126,0.201C6.617,28.467,7.382,28.5,8.19,28.5
				c0.014,0,0.029,0,0.044,0l0.204-0.369l0.037,0.018c0.18,0.957-0.533,1.418-1.16,1.908c-0.44,0.344-0.859,0.624-0.957,1.052
				c0.193-0.043,0.313-0.218,0.491-0.464c0.095-0.131,0.192-0.279,0.319-0.402c0.426-0.416,0.992-0.66,1.492-0.871l0.516-0.225
				l0.051,0.317c0.063,0.398-0.039,0.741-0.223,1.054c0.027-0.023,0.054-0.043,0.081-0.063c0.233-0.16,0.719-0.492,1.114-0.361
				c0.123,0.041,0.287,0.146,0.371,0.404c0.159,0.486-0.378,1.006-0.81,1.426c-0.126,0.121-0.237,0.227-0.296,0.305
				c-0.285,0.385-0.742,1.551-0.594,1.734l0,0c0.004,0,0.059,0.018,0.214-0.035c0.331-0.109,0.544-0.65,0.752-1.174
				c0.268-0.676,0.571-1.441,1.254-1.654l0.231-0.07l0.079,0.229c0.406,1.166-0.035,2.041-0.462,2.889
				c-0.175,0.346-0.342,0.678-0.45,1.023c0.374-0.047,0.536-0.441,0.776-1.229c0.229-0.748,0.487-1.596,1.295-1.854
				c0.128-0.043,0.521-0.168,0.742,0.096c0.211,0.25,0.1,0.643-0.145,1.16c0.216-0.314,0.521-0.523,0.998-0.506l0.203,0.01
				l0.033,0.199c0.044,0.26-0.115,0.768-0.402,1.641c0,0.002,0,0.004-0.002,0.006c0.344-0.766,1.143-1.193,1.795-1.545l0.52-0.281
				l0.028,0.387c0.013,0.178-0.103,0.482-0.433,1.309c-0.293,0.73-1.068,2.666-0.828,2.932c0.027,0.01,0.049,0.006,0.076-0.01
				c0.263-0.139,0.508-0.971,0.704-1.637c0.325-1.107,0.632-2.145,1.354-2.018c0.259,0.049,0.383,0.199,0.441,0.316
				c0.214,0.426-0.077,1.088-0.449,1.846c-0.084,0.172-0.171,0.348-0.191,0.422c-0.114,0.41-0.149,0.826-0.113,0.984
				c0.035-0.018,0.09-0.051,0.167-0.117c0.202-0.172,0.376-0.594,0.53-0.967c0.112-0.273,0.219-0.531,0.344-0.725
				c0.073-0.113,0.158-0.234,0.247-0.361c0.267-0.379,0.567-0.811,0.667-1.197l0.028-0.111l0.103-0.051
				c0.318-0.16,0.519-0.086,0.632,0.002c0.349,0.281,0.204,1.012,0.009,1.799c-0.021,0.084-0.039,0.154-0.049,0.205
				c-0.059,0.287-0.161,0.59-0.26,0.883c-0.134,0.398-0.271,0.807-0.301,1.172c0.115,0,0.212-0.029,0.292-0.088
				c0.388-0.285,0.464-1.246,0.524-2.018c0.058-0.723,0.107-1.348,0.371-1.66c0.104-0.121,0.415-0.488,0.741-0.322
				c0.567,0.293,0.13,2.115,0.126,2.133c-0.121,0.475-0.26,1.148-0.112,1.709c0.204,0.033,0.288-0.033,0.318-0.059
				c0.304-0.232,0.303-1.115,0.302-1.824c-0.002-0.828-0.004-1.611,0.369-1.975l0.113-0.109l0.147,0.055
				c0.574,0.213,0.609,1.174,0.649,2.285c0.021,0.57,0.044,1.209,0.164,1.539c0.127,0.008,0.185-0.033,0.208-0.051
				c0.414-0.354,0.206-2.053,0.106-2.869c-0.049-0.396-0.084-0.684-0.074-0.85l0.012-0.209l0.207-0.025
				c1.163-0.139,1.34,1.195,1.479,2.17c0.054,0.375,0.108,0.764,0.202,0.977c0.049-0.006,0.088-0.029,0.126-0.066
				c0.435-0.436,0.278-2.348,0.145-3.033l-0.06-0.301l0.307,0.002c0.56,0.006,0.824,0.357,0.955,0.813
				c-0.051-0.764-0.043-1.078,0.072-1.234l0.126-0.172l0.188,0.098c0.363,0.184,0.422,0.816,0.496,1.615
				c0.045,0.477,0.119,1.271,0.291,1.387c0.341-0.094,0.008-1.236-0.153-1.785c-0.176-0.604-0.272-0.957-0.222-1.189l0.031-0.146
				l0.145-0.041c0.324-0.092,0.578-0.074,0.779,0.057c0.328,0.213,0.391,0.65,0.452,1.072c0.054,0.375,0.108,0.762,0.33,0.926
				c0.097,0.07,0.23,0.1,0.41,0.1c-0.024-0.725-0.562-2.338-0.875-2.529l-0.442-0.27l0.486-0.178
				c0.248-0.092,0.474-0.092,0.667,0.002c0.366,0.176,0.516,0.623,0.661,1.057c0.207,0.619,0.344,0.873,0.604,0.85
				c0.045-0.416-0.051-0.826-0.152-1.256c-0.099-0.424-0.201-0.861-0.186-1.348l0.008-0.26l0.26,0.02
				c0.596,0.041,0.701,0.658,0.787,1.154c0.053,0.313,0.1,0.521,0.168,0.65c-0.004-0.096-0.01-0.195-0.016-0.297
				c-0.045-0.811-0.096-1.73,0.445-2.221l0.28-0.254l0.124,0.357c0.065,0.186,0.078,0.42,0.091,0.666
				c0.017,0.305,0.037,0.559,0.108,0.73c0.016-0.264-0.016-0.588-0.045-0.887c-0.029-0.303-0.057-0.59-0.043-0.832l0.01-0.205
				l0.205-0.029c0.506-0.072,0.699,0.311,0.814,0.537c0.08,0.158,0.127,0.244,0.201,0.275c-0.007-0.213-0.044-0.426-0.083-0.648
				c-0.063-0.359-0.128-0.73-0.062-1.125l0.051-0.303l0.285,0.109c0.098,0.037,0.203,0.082,0.311,0.127
				c0.126,0.051,0.254,0.105,0.379,0.152c-0.023-0.34-0.045-0.689-0.029-1.055l0.018-0.373l0.338,0.158
				c0.041,0.018,0.133,0.031,0.217,0.041c-0.025-0.088-0.054-0.182-0.082-0.275c-0.137-0.445-0.277-0.904-0.158-1.293l0.479,0.146
				c-0.074,0.242,0.043,0.627,0.157,1c0.071,0.232,0.144,0.471,0.177,0.695l0.066,0.438l-0.409-0.17
				c-0.036-0.016-0.146-0.027-0.227-0.037c-0.026-0.002-0.054-0.006-0.079-0.01c0.002,0.266,0.021,0.527,0.038,0.783l0.041,0.631
				l-0.333-0.086c-0.252-0.066-0.523-0.178-0.766-0.277c0.006,0.207,0.043,0.418,0.082,0.637c0.055,0.318,0.113,0.646,0.082,0.998
				l-0.016,0.184l-0.179,0.039c-0.606,0.131-0.819-0.283-0.945-0.537c-0.03-0.059-0.055-0.105-0.077-0.143
				c0.009,0.127,0.021,0.26,0.035,0.398c0.053,0.551,0.107,1.121-0.072,1.504l-0.091,0.195l-0.206-0.063
				c-0.445-0.131-0.594-0.525-0.651-0.926c-0.017,0.299,0.002,0.625,0.019,0.918c0.016,0.279,0.029,0.541,0.018,0.76l-0.012,0.244
				l-0.244-0.008c-0.339-0.01-0.541-0.18-0.671-0.41c0.056,0.332,0.077,0.676,0.006,1.039l-0.029,0.148l-0.146,0.043
				c-0.541,0.154-0.859-0.088-1.067-0.43c0.137,0.533,0.205,1.039,0.16,1.313l-0.028,0.178l-0.18,0.029
				c-0.414,0.064-0.736,0.01-0.983-0.172c-0.39-0.289-0.464-0.803-0.528-1.256c-0.045-0.313-0.092-0.637-0.229-0.725
				c-0.047-0.033-0.118-0.037-0.188-0.031c0.033,0.201,0.13,0.531,0.205,0.791c0.283,0.967,0.634,2.168-0.146,2.402
				c-0.209,0.063-0.365,0.002-0.459-0.061c-0.133-0.09-0.226-0.236-0.294-0.426c0.009,0.525-0.046,0.738-0.19,0.852l-0.104,0.082
				l-0.188-0.031c-0.431-0.141-0.453-0.717-0.479-1.383c-0.026-0.65-0.067-1.16-0.285-1.387c0.103,0.793,0.237,2.471-0.345,3.057
				c-0.18,0.182-0.412,0.254-0.677,0.199l-0.097-0.018l-0.059-0.08c-0.199-0.275-0.268-0.748-0.346-1.295
				c-0.131-0.918-0.264-1.602-0.691-1.727c0.014,0.143,0.035,0.324,0.059,0.51c0.18,1.467,0.293,2.824-0.279,3.311
				c-0.141,0.119-0.391,0.24-0.776,0.127l-0.099-0.029l-0.051-0.09c-0.216-0.391-0.242-1.104-0.27-1.859
				c-0.018-0.512-0.047-1.297-0.186-1.652c-0.097,0.328-0.096,0.879-0.094,1.377c0.002,0.945,0.003,1.838-0.498,2.223
				c-0.227,0.176-0.523,0.215-0.883,0.119l-0.126-0.035l-0.044-0.123c-0.256-0.713-0.089-1.557,0.059-2.131
				c0.104-0.406,0.188-1.203,0.129-1.5c-0.032,0.029-0.074,0.07-0.129,0.135c-0.161,0.191-0.211,0.82-0.256,1.377
				c-0.076,0.965-0.154,1.961-0.727,2.381C19.431,38.367,19.234,38.43,19.013,38.43z M13.873,35.055
				c-0.233,0.729-0.543,1.766-0.423,1.994c0.006-0.004,0.029-0.008,0.066-0.02c0.328-0.113,0.343-0.576,0.328-1.217
				C13.838,35.539,13.831,35.277,13.873,35.055z M12.917,33.824c-0.053,0.1-0.099,0.188-0.132,0.26l-0.097,0.205
				c-0.237,0.502-0.482,1.02-0.516,1.545c0.023-0.006,0.04-0.016,0.053-0.023c0.211-0.125,0.332-0.643,0.44-1.098
				C12.734,34.424,12.808,34.109,12.917,33.824z M7.468,32.498c0.257-0.016,0.479-0.301,0.857-0.996
				c0.068-0.125,0.136-0.25,0.205-0.367c-0.084,0.092-0.17,0.182-0.256,0.271C7.93,31.768,7.602,32.111,7.468,32.498z"/>
		</g>
		<circle fill="none" stroke="#FFFFFF" stroke-miterlimit="10" cx="20.743" cy="18.391" r="16.375"/>
		<circle fill="none" stroke="#FFFFFF" stroke-miterlimit="10" cx="20.743" cy="18.391" r="16.375"/>
		<path fill="none" stroke="#FFFFFF" stroke-miterlimit="10" d="M37.118,21.453c0,9.563-7.751,17.313-17.313,17.313
			S1.843,30.916,1.843,21.354c0,0-0.618-11.916,13.008-18.42"/>
	</g>
</g>
<g id="Botones">
</g>
<g id="Logo">
</g>
<g id="TXT">
</g>
<g id="Guias">
</g>
</svg>
