<?xml version="1.0" encoding="utf-8"?>
<!-- Generator: Adobe Illustrator 16.0.0, SVG Export Plug-In . SVG Version: 6.00 Build 0)  -->
<!DOCTYPE svg PUBLIC "-//W3C//DTD SVG 1.1//EN" "http://www.w3.org/Graphics/SVG/1.1/DTD/svg11.dtd">
<svg version="1.1" xmlns="http://www.w3.org/2000/svg" xmlns:xlink="http://www.w3.org/1999/xlink" x="0px" y="0px" width="35.25px"
	 height="36.168px" viewBox="0 0 35.25 36.168" enable-background="new 0 0 35.25 36.168" xml:space="preserve">
<g id="IMG" display="none">
</g>
<g id="Soporte">
</g>
<g id="Cintillos">
</g>
<g id="Imagenes">
</g>
<g id="Vectores">
</g>
<g id="Iconos">
	<g>
		<g>
			<path fill="#FFFFFF" d="M28.127,32.53h-5.585V19.38h3.404l0.338-3.188H22.54l0.009-2.6c0-1.188,0.163-2.174,2.174-2.174h1.596
				V8.231h-2.854c-3.468,0-4.947,1.48-4.947,4.949v3.012h-2.511v3.188h2.511v13.15H9.448c-3.225,0-5.849-2.625-5.849-5.85V8.001
				c0-3.225,2.624-5.848,5.849-5.848h18.679c3.226,0,5.85,2.623,5.85,5.848v18.68C33.977,29.905,31.353,32.53,28.127,32.53z
				 M23.542,31.53h4.585c2.674,0,4.85-2.176,4.85-4.85V8.001c0-2.672-2.176-4.848-4.85-4.848H9.448C6.774,3.153,4.6,5.329,4.6,8.001
				v18.68c0,2.674,2.175,4.85,4.849,4.85h8.068V20.38h-2.511v-5.188h2.511v-2.012c0-4.004,1.945-5.949,5.947-5.949h3.854v5.188
				h-2.596c-1.174,0-1.174,0.227-1.174,1.176l-0.005,1.598h3.852l-0.549,5.188h-3.305V31.53z"/>
		</g>
		<g>
			<path fill="#FFFFFF" d="M23.042,32.507V19.88h3.354l0.443-4.188h-3.798l0.007-2.098c0-1.09,0.104-1.676,1.674-1.676h2.096V7.731
				h-3.354c-4.028,0-5.447,2.031-5.447,5.449v2.512h-2.511v4.188h2.511v12.627H23.042z"/>
		</g>
		<g>
			<path fill="#FFFFFF" d="M9.448,2.653"/>
		</g>
		<g>
			<path fill="#FFFFFF" d="M6.944,35.273c-2.13,0-3.723-0.576-4.737-1.715c-1.41-1.583-1.14-3.644-1.127-3.73L0.809,6.487
				C0.757,2.2,8.684,1.83,9.021,1.816l0.041,1C7.032,2.899,1.775,3.719,1.809,6.476l0.267,23.416
				c-0.007,0.091-0.218,1.778,0.886,3.01c0.858,0.957,2.302,1.336,4.26,1.273c6.142-0.15,20.381-0.174,20.524-0.174
				c0.002,0,0.005,0,0.008,0c0.302,0,4.956-0.012,5.384-6.354l0.998,0.019c-0.492,7.304-6.217,7.335-6.396,7.335
				c-0.002,0-0.003,0-0.003,0c-0.14,0-14.363,0.021-20.489,0.174C7.145,35.177,7.043,35.273,6.944,35.273z"/>
		</g>
		<g>
			<path fill="#FFFFFF" d="M6.196,35.261c-0.079,0-0.161-0.01-0.247-0.031c-0.398-0.096-0.583-0.328-0.669-0.505
				c-0.295-0.615,0.121-1.5,0.561-2.438c0.171-0.363,0.368-0.784,0.472-1.113c-0.638,0.354-1.015,1.533-1.279,2.361l-0.13,0.398
				c-0.045,0.132-0.159,0.228-0.298,0.249c-0.975,0.151-1.36-0.226-1.502-0.465c-0.244-0.41-0.137-0.97,0.296-1.534
				c0.04-0.052,0.083-0.105,0.127-0.159c-0.446,0.247-1.065,0.391-1.541,0.254c-0.419-0.117-0.67-0.435-0.69-0.868
				c-0.025-0.567,0.679-1.026,1.603-1.568c0.183-0.106,0.336-0.194,0.412-0.255c0.417-0.328,0.832-0.707,0.983-1.136
				c-0.059,0.031-0.114,0.065-0.163,0.101c-0.069,0.05-0.178,0.179-0.273,0.293c-0.179,0.213-0.364,0.433-0.588,0.535
				c-0.386,0.173-1.203,0.073-1.682-0.21c-0.362-0.214-0.454-0.476-0.468-0.657c-0.061-0.81,0.948-1.215,1.838-1.573
				c0.194-0.078,0.439-0.177,0.646-0.274c-1.191-0.004-2.108-0.066-2.336-0.617c-0.117-0.282-0.018-0.584,0.295-0.896
				c0.117-0.116,0.305-0.189,0.754-0.356c0.339-0.127,1.359-0.507,1.475-0.749C3.779,24.044,3.743,24,3.648,23.936
				c-0.057-0.012-0.395-0.001-0.617,0.008c-0.727,0.022-1.415,0.048-1.631-0.437c-0.183-0.409,0.16-0.835,0.434-1.12
				c0.258-0.269,0.661-0.38,1.052-0.487c0.471-0.13,0.696-0.223,0.789-0.337c-0.047,0.001-0.096,0.003-0.145,0.004
				c-0.697,0.021-1.48,0.047-1.863-0.416c-0.128-0.154-0.26-0.429-0.163-0.86c0.242-1.078,1.114-1.123,1.751-1.156
				c0.209-0.011,0.412-0.021,0.583-0.062c-0.158-0.158-0.499-0.227-1.077-0.295c-0.567-0.067-1.104-0.131-1.352-0.535
				c-0.139-0.226-0.148-0.505-0.029-0.828c0.199-0.544,0.89-0.672,1.557-0.796c0.284-0.053,0.876-0.162,0.943-0.287l0,0
				c-0.001,0,0.004-0.034-0.032-0.116c-0.087-0.05-0.613-0.077-0.928-0.094c-0.711-0.037-1.325-0.068-1.527-0.516
				c-0.114-0.251-0.046-0.538,0.203-0.854c0.362-0.46,0.933-0.52,1.437-0.572c0.329-0.034,0.669-0.07,0.783-0.219
				c0.045-0.059,0.069-0.152,0.073-0.275c-0.229,0.01-0.461,0.062-0.701,0.115c-0.482,0.109-1.03,0.232-1.646,0.015
				c-0.164-0.058-0.267-0.22-0.249-0.392c0.097-0.941,1.826-1.643,2.578-1.852c-0.237-0.025-0.498-0.011-0.77,0.005
				c-0.56,0.033-1.187,0.068-1.705-0.285c-0.155-0.105-0.208-0.309-0.125-0.477c0.247-0.499,0.596-0.819,1.063-0.979
				C2.53,9.768,2.786,9.764,3.082,9.759C3.318,9.755,3.81,9.747,3.907,9.656c0.023-0.047,0.03-0.086,0.025-0.095
				c-0.14-0.265-1.339-0.393-1.733-0.435C1.853,9.09,1.666,9.068,1.539,9.022c-0.113-0.04-0.2-0.133-0.233-0.248
				C1.197,8.398,1.299,8.139,1.403,7.987c0.317-0.462,1.029-0.522,1.657-0.576C3.287,7.393,3.545,7.37,3.644,7.332
				C3.723,7.302,3.784,7.273,3.83,7.25c-0.218-0.115-0.607-0.243-0.778-0.3L2.863,6.89c-0.62-0.193-1.557-0.485-1.688-1.157
				C1.107,5.385,1.273,5.042,1.67,4.717C2.028,4.42,2.481,4.432,2.937,4.538c-0.062-0.106-0.089-0.231-0.064-0.38
				C2.91,3.919,3.035,3.727,3.231,3.602C3.708,3.301,4.459,3.48,5.187,3.692c0.102,0.029,0.183,0.054,0.232,0.063L5.276,4.492
				c-0.064-0.013-0.169-0.042-0.3-0.08C4.716,4.337,3.943,4.108,3.672,4.217C3.797,4.282,4.015,4.36,4.158,4.412
				c0.472,0.17,0.96,0.346,1.146,0.733c0.047,0.097,0.05,0.209,0.008,0.308C5.271,5.552,5.19,5.628,5.089,5.663
				C4.561,5.848,3.961,5.646,3.38,5.453C2.881,5.286,2.367,5.118,2.146,5.295C1.938,5.468,1.908,5.57,1.912,5.589
				c0.017,0.087,0.191,0.278,1.175,0.585l0.16,0.051c0.692,0.228,1.434,0.472,1.448,1.018c0.012,0.482-0.563,0.705-0.78,0.789
				C3.716,8.108,3.441,8.132,3.124,8.159C2.817,8.185,2.275,8.23,2.077,8.36c0.062,0.007,0.13,0.013,0.202,0.021
				c1.089,0.116,2.015,0.259,2.316,0.83c0.091,0.171,0.158,0.45-0.034,0.81c-0.25,0.469-0.896,0.479-1.468,0.488
				c-0.192,0.003-0.433,0.007-0.516,0.035c-0.159,0.055-0.294,0.142-0.41,0.268c0.263,0.054,0.569,0.033,0.89,0.017
				c0.457-0.027,0.934-0.055,1.384,0.107c0.135,0.048,0.229,0.169,0.246,0.311c0.017,0.149,0.029,0.311-0.009,0.486
				c-0.015,0.069-0.048,0.132-0.097,0.183c-0.065,0.099-0.096,0.148-0.153,0.217c-0.055,0.064-0.129,0.109-0.212,0.126
				c-0.629,0.128-1.539,0.561-1.955,0.927c0.245,0,0.492-0.056,0.761-0.116c0.395-0.09,0.803-0.182,1.27-0.11
				c0.161,0.024,0.288,0.15,0.313,0.312c0.079,0.497,0.016,0.872-0.195,1.146c-0.31,0.404-0.836,0.46-1.3,0.509
				c-0.391,0.041-0.759,0.079-0.925,0.291c-0.022,0.027-0.039,0.051-0.053,0.071c0.19,0.052,0.577,0.072,0.826,0.085
				c0.703,0.037,1.367,0.071,1.574,0.54c0.156,0.354,0.092,0.614,0.01,0.77c-0.235,0.445-0.835,0.557-1.47,0.674
				c-0.305,0.057-0.938,0.174-0.99,0.316c-0.048,0.132-0.034,0.179-0.034,0.18c0.066,0.094,0.544,0.15,0.8,0.181
				c0.695,0.083,1.747,0.207,1.841,1.206c0.013,0.136-0.049,0.268-0.161,0.345c-0.373,0.255-0.831,0.278-1.234,0.3
				c-0.697,0.036-0.95,0.091-1.058,0.571c-0.014,0.061-0.031,0.17,0.009,0.218c0.147,0.18,0.872,0.155,1.261,0.146
				c0.218-0.007,0.423-0.015,0.592-0.004c0.168,0.009,0.31,0.128,0.347,0.293c0.239,1.074-0.761,1.351-1.358,1.516
				c-0.279,0.077-0.597,0.165-0.711,0.284c-0.118,0.123-0.187,0.212-0.225,0.271c0.21,0.037,0.617,0.022,0.855,0.016
				c0.537-0.016,0.853-0.021,1.063,0.121c0.435,0.293,0.496,0.606,0.471,0.817c-0.074,0.617-0.895,0.97-1.961,1.366
				c-0.201,0.075-0.452,0.169-0.513,0.208c-0.023,0.024-0.041,0.046-0.055,0.063c0.332,0.145,1.381,0.161,1.733,0.146
				c0.211,0.009,0.329,0,0.43,0.005c0.104,0.006,0.201,0.054,0.268,0.133c0.07,0.083,0.202,0.307,0.241,0.4
				c0.046,0.111,0.036,0.238-0.027,0.341c-0.224,0.361-0.777,0.584-1.419,0.842c-0.485,0.195-1.389,0.559-1.369,0.82
				c0.092,0.168,0.883,0.332,1.09,0.241c0.07-0.031,0.229-0.222,0.325-0.335c0.13-0.154,0.265-0.314,0.409-0.419
				c0.264-0.189,0.595-0.324,0.885-0.43c0.102-0.039,0.218-0.028,0.313,0.025s0.163,0.147,0.184,0.256
				c0.094,0.49-0.036,0.921-0.252,1.284C5,29.02,5.201,29.012,5.43,29.07c0.147,0.038,0.257,0.162,0.277,0.313
				c0.152,1.104-0.631,2.001-1.261,2.721c-0.162,0.185-0.318,0.363-0.451,0.536c-0.256,0.334-0.307,0.594-0.247,0.695
				c0.049,0.083,0.222,0.15,0.519,0.131l0.052-0.159c0.388-1.213,1.019-3.057,2.446-2.986c0.179,0.008,0.328,0.14,0.355,0.316
				c0.081,0.517-0.234,1.19-0.601,1.97c-0.28,0.597-0.704,1.499-0.563,1.793c0.009,0.02,0.032,0.068,0.168,0.102
				c0.408,0.073,0.798-1.171,1.029-1.932c0.177-0.58,0.33-1.081,0.535-1.385c0.079-0.116,0.216-0.183,0.354-0.162
				c0.139,0.016,0.257,0.108,0.307,0.239c0.119,0.314,0.135,0.747,0.151,1.206c0.023,0.649,0.052,1.457,0.408,1.634
				c0.107-0.063,0.302-0.478,0.499-2.026c0.022-0.177,0.042-0.496,0.06-0.594c0.032-0.184,0.188-0.48,0.381-0.48h0.1
				c0.069,0,0.139,0.168,0.208,0.174c0.168,0.014,0.307,0.223,0.338,0.389c0.038,0.199,0.172,0.4,0.342,0.602
				c0.198,0.234,0.423,0.521,0.529,0.912c0.055,0.197,0.071,0.393,0.07,0.567c0.053-0.156,0.1-0.333,0.149-0.534
				c0.075-0.303,0.146-0.587,0.267-0.819c0.113-0.215,0.377-0.719,0.827-0.849c0.212-0.063,0.432-0.032,0.637,0.089
				c0.523,0.305,0.388,1.149,0.298,1.707l-0.019,0.116c-0.038,0.254-0.043,0.505-0.029,0.692c0.133-0.216,0.179-0.596,0.224-0.964
				c0.075-0.625,0.16-1.333,0.728-1.658c0.117-0.068,0.263-0.066,0.378,0.003c0.117,0.069,0.187,0.196,0.184,0.331l-0.01,0.21
				c-0.086,1.621,0.088,2.127,0.249,2.266c0.017,0.016,0.035,0.028,0.095,0.016c0.057-0.1,0.13-0.787,0.173-1.197
				c0.082-0.772,0.153-1.44,0.484-1.766c0.104-0.103,0.26-0.136,0.396-0.083c0.137,0.052,0.231,0.179,0.241,0.325l0.007,0.201
				c0.05,2.1,0.37,2.326,0.406,2.346c0.142-0.111,0.126-0.554,0.117-0.792c-0.023-0.666-0.056-1.579,0.79-1.849
				c0.12-0.037,0.247-0.015,0.345,0.062s0.151,0.196,0.144,0.319c-0.035,0.556,0.077,1.791,0.419,2.174
				c0.063,0.072,0.104,0.074,0.12,0.075c0.05-0.089,0.139-0.704,0.187-1.034c0.092-0.627,0.17-1.169,0.461-1.451
				c0.09-0.088,0.22-0.122,0.343-0.097c0.123,0.027,0.224,0.115,0.269,0.233c0.036,0.095,0.08,0.297,0.131,0.553
				c0.209,1.039,0.378,1.48,0.501,1.649c0.081-0.3,0.136-0.895,0.168-1.245c0.053-0.57,0.087-0.903,0.173-1.105
				c0.051-0.121,0.162-0.206,0.292-0.225c0.132-0.021,0.26,0.032,0.344,0.135c0.287,0.353,0.282,0.914,0.277,1.507
				c-0.005,0.538-0.011,1.147,0.229,1.37c0.024,0.023,0.084,0.078,0.229,0.102c0.053-0.27,0.063-0.609,0.074-0.941
				c0.025-0.803,0.054-1.713,0.687-2.183c0.111-0.081,0.255-0.096,0.381-0.039c0.124,0.058,0.207,0.178,0.217,0.314
				c0.02,0.273,0.005,0.538-0.01,0.795c-0.025,0.439-0.047,0.819,0.125,1.166c0.222,0.446,0.428,0.729,0.616,0.845
				c0.021-0.156,0.038-0.313,0.056-0.472c0.097-0.897,0.207-1.915,1.059-2.604c0.094-0.076,0.218-0.101,0.336-0.069
				c0.116,0.032,0.21,0.119,0.252,0.232c0.199,0.548,0.18,1.015,0.161,1.427c-0.02,0.451-0.033,0.786,0.24,1.141
				c0.092-0.237,0.192-0.536,0.281-0.798c0.437-1.291,0.688-1.967,1.195-2.012c0.103-0.019,0.2,0.023,0.277,0.089
				s0.124,0.159,0.13,0.261c0.042,0.657,0.183,1.022,0.377,1.528c0.01,0.024,0.02,0.05,0.029,0.075
				c0.028-0.323,0.063-0.656,0.099-0.99l0.017-0.16c0.044-0.418,0.099-0.939,0.521-0.973c0.374-0.034,0.516,0.313,0.685,0.903
				c-0.01-0.489,0.035-0.968,0.308-1.261c0.073-0.079,0.179-0.115,0.287-0.119c0.108,0.004,0.21,0.055,0.278,0.139
				c0.116,0.143,0.201,0.32,0.29,0.509c0.02,0.04,0.04,0.083,0.062,0.126c0.059-0.717,0.268-1.276,0.64-1.728l0.578,0.477
				c-0.373,0.454-0.524,1.093-0.478,2.011c0.011,0.199-0.136,0.371-0.334,0.393c-0.418,0.046-0.686-0.188-0.878-0.467
				c0.005,0.137,0.012,0.267,0.019,0.371c0.013,0.231,0.024,0.445,0.017,0.609c-0.011,0.196-0.17,0.352-0.366,0.356
				c-0.43-0.001-0.768-0.177-0.947-0.524l-0.009-0.031c-0.042,0.42-0.078,0.831-0.095,1.214c-0.005,0.112-0.061,0.217-0.151,0.284
				c-0.091,0.068-0.209,0.089-0.316,0.063c-0.234-0.06-0.538-0.243-0.706-0.426c-0.034-0.037-0.061-0.081-0.078-0.128
				c-0.059-0.165-0.115-0.313-0.169-0.453c-0.099-0.255-0.19-0.493-0.265-0.76c-0.111,0.29-0.222,0.616-0.305,0.864
				c-0.211,0.623-0.393,1.161-0.588,1.416c-0.062,0.08-0.152,0.132-0.253,0.144c-0.099,0.017-0.2-0.017-0.279-0.079
				c-0.92-0.735-0.889-1.458-0.861-2.097c0.006-0.13,0.012-0.258,0.01-0.386c-0.205,0.428-0.262,0.945-0.323,1.514
				c-0.032,0.298-0.064,0.596-0.12,0.885c-0.028,0.151-0.146,0.27-0.298,0.298c-0.924,0.183-1.456-0.87-1.663-1.287
				c-0.019,0.381-0.059,0.752-0.183,1.059c-0.053,0.133-0.177,0.223-0.318,0.234c-0.432,0.032-0.793-0.069-1.049-0.308
				c-0.16-0.15-0.267-0.337-0.336-0.546c-0.108,0.238-0.264,0.383-0.5,0.396c-0.585,0.054-0.932-0.506-1.14-1.234
				c-0.11,0.699-0.283,1.48-0.883,1.48c-0.014,0-0.027,0-0.041,0c-0.242,0-0.464-0.219-0.643-0.418
				c-0.168-0.189-0.291-0.498-0.381-0.788c-0.015,0.393-0.1,0.723-0.428,0.916c-0.377,0.221-0.669,0.112-0.81,0.032
				c-0.244-0.135-0.412-0.42-0.529-0.782c-0.097,0.547-0.264,0.946-0.667,1.028c-0.276,0.055-0.529-0.01-0.732-0.186
				c-0.214-0.185-0.348-0.476-0.428-0.832c-0.054,0.199-0.13,0.384-0.245,0.546c-0.113,0.156-0.461,0.63-0.901,0.456
				c-0.576-0.234-0.451-1.383-0.399-1.729l0.02-0.125c0.109-0.674,0.08-0.896,0.037-0.965c-0.075,0.025-0.194,0.107-0.393,0.486
				c-0.079,0.152-0.14,0.396-0.203,0.655c-0.164,0.663-0.389,1.571-1.253,1.676c-0.101,0.017-0.206-0.018-0.285-0.084
				s-0.128-0.162-0.134-0.266c-0.013-0.212,0.004-0.41,0.021-0.606c0.023-0.259,0.044-0.482-0.021-0.719
				c-0.063-0.232-0.21-0.405-0.38-0.606c-0.051-0.06-0.103-0.122-0.154-0.188c-0.146,1.063-0.347,1.994-0.866,2.271
				c-0.205,0.11-0.441,0.11-0.666-0.001c-0.593-0.294-0.743-0.978-0.796-1.689C7.456,34.127,7.037,35.261,6.196,35.261z
				 M3.899,30.076c-0.045,0.037-0.087,0.07-0.125,0.101c-0.093,0.072-0.276,0.183-0.498,0.313c-0.318,0.187-1.163,0.682-1.233,0.912
				c0.007,0.085,0.039,0.125,0.146,0.155c0.395,0.113,1.081-0.179,1.202-0.359c0.083-0.121,0.174-0.342,0.271-0.576
				C3.73,30.452,3.809,30.264,3.899,30.076z M4.963,29.851c-0.198,0.14-0.379,0.499-0.608,1.057
				c-0.043,0.103-0.084,0.203-0.126,0.299C4.588,30.772,4.896,30.325,4.963,29.851z"/>
		</g>
	</g>
</g>
<g id="Botones">
</g>
<g id="Logo">
</g>
<g id="TXT">
</g>
<g id="Guias">
</g>
</svg>
