<?xml version="1.0" encoding="utf-8"?>
<!-- Generator: Adobe Illustrator 16.0.0, SVG Export Plug-In . SVG Version: 6.00 Build 0)  -->
<!DOCTYPE svg PUBLIC "-//W3C//DTD SVG 1.1//EN" "http://www.w3.org/Graphics/SVG/1.1/DTD/svg11.dtd">
<svg version="1.1" xmlns="http://www.w3.org/2000/svg" xmlns:xlink="http://www.w3.org/1999/xlink" x="0px" y="0px"
	 width="44.833px" height="44.169px" viewBox="0 0 44.833 44.169" enable-background="new 0 0 44.833 44.169" xml:space="preserve">
<g id="IMG" display="none">
</g>
<g id="Soporte">
</g>
<g id="Cintillos">
</g>
<g id="Imagenes">
</g>
<g id="Vectores">
</g>
<g id="Iconos">
	<g>
		<path fill="#FFFFFF" d="M23.877,1.668c-10.678,0-19.333,8.655-19.333,19.333c0,10.677,8.655,19.333,19.333,19.333
			S43.21,31.678,43.21,21.001C43.21,10.323,34.555,1.668,23.877,1.668z M23.877,37.515c-9.121,0-16.514-7.393-16.514-16.514
			S14.756,4.487,23.877,4.487s16.514,7.393,16.514,16.514S32.998,37.515,23.877,37.515z"/>
		<path fill="#FFFFFF" d="M33.267,19.001h-7.325c-0.224,0,0.558-0.293-0.442-0.517V7.307c0-0.89-1.111-1.611-2-1.611
			c-0.891,0-2,0.722-2,1.611v11.178c0,0.527-1.157,1.434-1.157,2.468c0,1.628,1.413,3.168,3.042,3.168
			c1.033,0,2.03-0.119,2.558-1.119h7.325c0.89,0,1.61-1.11,1.61-2S34.156,19.001,33.267,19.001z"/>
		
			<ellipse fill="none" stroke="#FFFFFF" stroke-width="0.75" stroke-miterlimit="10" cx="22.626" cy="22.667" rx="20.25" ry="20.167"/>
		<path fill="none" stroke="#FFFFFF" stroke-width="0.5" stroke-linejoin="round" stroke-miterlimit="10" d="M9.377,7.918
			c-0.682-0.1-2.839,1.001-2.654,1.821c0.529,0.088,2.713-1.188,2.216-0.092c-0.412,0.908-2.778,0.795-2.801,2.006
			c0.395,0.128,0.818,0.104,1.227,0.111c-0.267,1.081-2.642,0.76-2.646,2.141c0.587,0.195,1.218,0.008,1.813,0.194
			c0.168,0.714-3.167,1.05-3.394,2.219c0.396,0.159,0.982,0.165,1.408,0.099c0.436-0.066,0.88-0.404,1.32-0.317
			c-0.223,0.51-1.423,0.884-1.908,1.261c-0.517,0.4-0.887,0.818-1.259,1.311c0.8,0.999,1.527-0.381,2.338-0.24
			c-0.274,0.494-0.923,0.801-1.327,1.219c-0.435,0.451-0.813,1-1.095,1.516c0.649,0.764,1.414-0.545,2.166-0.484
			c0.199,1.304-2.286,1.726-2.142,2.975c0.521,0.111,2.84-1.32,2.202,0.226c-0.154,0.374-0.688,0.51-0.961,0.7
			c-0.411,0.286-0.779,0.648-1.078,1.066c0.242,0.199,0.514,0.289,0.812,0.258c0.074-0.783,0.853-0.96,1.583-0.791
			c0.188,0.824-0.586,1.063-1.056,1.493c-0.46,0.421-0.469,1.021-0.923,1.419c0.536,0.629,0.597,0.071,0.906-0.195
			c0.513-0.443,0.933-0.807,1.656-0.818c-0.035,0.543-0.625,1.234-0.921,1.723c-0.333,0.551-0.732,1.054-0.909,1.683
			c0.15,0.166,0.167,0.171,0.412,0.154c0.359-0.813,1.049-1.323,1.914-1.479c0.073,1.482-1.507,2.041-1.471,3.313
			c0.922,0.223,1.793-1.432,2.725-1.56c0.024,1.118-1.443,2.278-1.967,3.227c0.716,0.202,1.001-0.742,1.52-1.075
			c0.486-0.313,1.359-0.572,1.951-0.479c-0.506,0.756-2.246,1.723-2.146,2.721c0.234,0.061,0.519,0.022,0.724-0.086
			c0.1-0.848,1.463-1.229,2.103-1.458c0.105,1.218-1.65,1.475-1.828,2.458c0.886,0.422,1.521-1.096,2.394-1.31
			c0.198,0.907-0.829,1.722-0.975,2.562c0.721,0.162,1.475-1.499,2.141-1.727c0.162,0.826-0.477,2.199-0.729,2.977
			c0.127,0.021,0.267,0.029,0.394,0c0.126-0.527,0.854-2.252,1.419-2.141c0.056,0.648-0.956,3.361,0.084,3.225
			c0.145-1.006,0.49-2.002,1.414-2.482c0.214,1.262-0.856,2.314-0.64,3.482c0.7,0.012,0.868-1.81,1.334-2.307
			c0.132-0.086,0.397-0.191,0.558-0.26c0.061,0.828-0.245,1.216-0.489,1.91c-0.117,0.334-0.385,1.128,0.235,1.068
			c0.288-0.027,0.729-1.012,0.854-1.229c0.288-0.495,0.616-0.81,0.996-1.184c0.419,0.749-0.468,2.154-0.487,3
			c0.633,0.146,0.905-0.676,0.987-1.154c0.172-1.006-0.151-1.168,0.992-1.492c0.019,0.73-0.134,1.181-0.348,1.871
			c-0.094,0.303-0.333,0.977,0.041,1.188c0.829,0.465,0.807-1.846,0.994-2.221c0.244-0.063,0.51-0.09,0.725-0.154
			c0.056,0.955-0.019,1.926,0.025,2.879c1.138,0.04,0.085-2.703,1.475-2.98c0.047,0.972-0.111,1.922-0.059,2.897
			c1.197,0.567,0.378-1.868,0.752-2.39c0.153-0.076,0.47-0.107,0.638-0.085c0.155,0.435-0.243,3.334,0.515,2.468
			c0.712-0.813-0.546-2.51,0.902-2.891c0.067,1.104-0.481,2.152-0.307,3.23c0.771,0.166,0.639-0.81,0.654-1.318
			c0.027-0.892,0-1.486,0.979-1.826c0.516,0.948-0.74,2.154,0.354,2.917c0.809-0.756-0.273-2.557,0.729-3.084
			c0.251,0.57-0.359,2.729,0.79,2.722c0.544-0.004,0.311-1.035,0.398-1.48c0.133-0.672,0.404-0.957,0.829-1.427
			c0.062-0.021,0.114-0.008,0.159,0.037c0.026,0.547,0.041,1.124-0.061,1.647c0.878,0.328,1.367,0.635,1.929-0.332
			c0.456-0.785,0.399-1.716,0.907-2.494c0.035,0.004,0.189,0.004,0.225-0.002c0.023,0.457-0.003,0.933,0.026,1.389
			c1.067,0.76,0.724-2.125,1.64-2.31c0.023,0.489,0,0.993,0.025,1.48c1.012,0.286,0.847-1.349,1.146-1.827
			c0.087-0.14,0.702-0.658,0.925-0.646c0.447,0.027,0.383,0.485,0.512,0.89c0.437-0.133,0.446-1.86,0.418-2.396
			c0.358,0.118,0.509,0.606,0.668,0.975c0.838,0.077,1.399-2.38,1.504-3.063c0.168,0.365,0.094,1.191,0.7,1.065
			c0.083-0.585-0.216-1.558,0.367-1.917c0.175,0.246,0.27,0.486,0.495,0.691c0.353-0.369,0.154-1.296,0.353-1.838
			c0.061,0.06,0.218,0.137,0.3,0.218c0.184-0.429,0.496-0.801,0.601-1.225"/>
	</g>
</g>
<g id="Botones">
</g>
<g id="Logo">
</g>
<g id="TXT">
</g>
<g id="Guias">
</g>
</svg>
