<?xml version="1.0" encoding="utf-8"?>
<!-- Generator: Adobe Illustrator 16.0.0, SVG Export Plug-In . SVG Version: 6.00 Build 0)  -->
<!DOCTYPE svg PUBLIC "-//W3C//DTD SVG 1.1//EN" "http://www.w3.org/Graphics/SVG/1.1/DTD/svg11.dtd">
<svg version="1.1" xmlns="http://www.w3.org/2000/svg" xmlns:xlink="http://www.w3.org/1999/xlink" x="0px" y="0px" width="48px"
	 height="33.167px" viewBox="0 0 48 33.167" enable-background="new 0 0 48 33.167" xml:space="preserve">
<g id="IMG" display="none">
</g>
<g id="Soporte">
</g>
<g id="Cintillos">
</g>
<g id="Imagenes">
</g>
<g id="Vectores">
</g>
<g id="Iconos">
	<g>
		<path fill-rule="evenodd" clip-rule="evenodd" fill="#FFFFFF" d="M2.739,18.672c0.959-0.494,1.735-0.813,2.855-0.332
			c2.836,1.219,5.686,2.42,8.596,3.469c2.305,0.83,4.554,1.82,6.806,2.787c0.565,0.242,0.968,0.18,1.484-0.125
			c7.115-4.193,14.256-8.344,21.355-12.563c0.884-0.525,1.521-0.328,2.351,0.166c-2.044,1.201-4.029,2.367-6.017,3.531
			c-5.914,3.471-11.83,6.936-17.74,10.414c-0.399,0.234-0.732,0.383-1.223,0.184c-6.055-2.453-12.119-4.885-18.179-7.326
			C2.949,18.846,2.886,18.777,2.739,18.672z"/>
		<path fill-rule="evenodd" clip-rule="evenodd" fill="#FFFFFF" d="M2.692,24.299c1.138-0.83,2.133-0.709,3.286-0.227
			c5.031,2.098,10.107,4.086,15.152,6.15c0.532,0.217,0.883,0.088,1.315-0.166c6.185-3.639,12.377-7.266,18.567-10.895
			c0.906-0.531,1.872-0.982,2.705-1.611c0.889-0.672,1.621-0.465,2.475,0.105C39.6,21.514,33.056,25.342,26.513,29.17
			c-1.404,0.822-2.812,1.637-4.21,2.469c-0.313,0.186-0.569,0.309-0.964,0.15C15.165,29.295,8.981,26.82,2.692,24.299z"/>
		<path fill-rule="evenodd" clip-rule="evenodd" fill="#FFFFFF" d="M2.773,16.004c1.434-1.367,2.723-0.359,4.012,0.154
			c4.816,1.918,9.622,3.863,14.426,5.811c0.389,0.158,0.684,0.141,1.06-0.078c7.172-4.223,14.366-8.406,21.519-12.66
			c0.898-0.535,1.544-0.42,2.386,0.131c-2.148,1.264-4.224,2.492-6.305,3.711c-5.749,3.367-11.507,6.721-17.243,10.109
			c-0.597,0.354-1.06,0.447-1.733,0.172c-5.835-2.385-11.688-4.719-17.535-7.072C3.155,16.199,2.962,16.094,2.773,16.004z"/>
		<path fill-rule="evenodd" clip-rule="evenodd" fill="#FFFFFF" d="M2.711,21.543c1.034-0.688,1.977-0.727,3.132-0.242
			c5.052,2.117,10.153,4.115,15.228,6.178c0.489,0.199,0.852,0.17,1.311-0.1c7.06-4.158,14.141-8.279,21.188-12.457
			c0.854-0.506,1.578-0.75,2.436-0.094c0.019,0.307-0.297,0.334-0.493,0.449c-7.333,4.318-14.695,8.592-21.985,12.98
			c-1.326,0.799-2.341,0.822-3.734,0.234c-5.369-2.264-10.799-4.381-16.204-6.555C3.296,21.82,3.016,21.68,2.711,21.543z"/>
		<path fill="#FFFFFF" d="M45.902,6.729c-4.375-1.758-8.751-3.51-13.125-5.268c-0.277-0.113-0.524-0.174-0.823-0.055
			c-0.977,0.387-1.975,0.719-2.944,1.125c-4.169,1.744-8.325,3.521-12.498,5.262c-4.572,1.904-9.156,3.781-13.915,5.742
			c2.177,0.826,4.159,1.664,6.17,2.443c4.18,1.619,8.313,3.355,12.46,5.059c0.383,0.156,0.656,0.168,1.046-0.063
			C28.89,17.078,35.54,13.24,42.131,9.299c1.324-0.791,2.888-1.195,4.018-2.369C46.046,6.844,45.983,6.762,45.902,6.729z
			 M24.206,9.777c0.747-0.168,1.491-0.354,2.244-0.496c0.823-0.154,1.654-0.172,2.465,0.086c1.486,0.471,1.646,1.033,0.625,2.225
			c0.183,0.117,0.363,0.232,0.557,0.357c-0.302,0.332-0.672,0.482-1.053,0.363c-0.63-0.201-1.182-0.018-1.765,0.172
			c-1.211,0.395-2.357,0.148-3.683-0.451c0.771-0.357,1.309-0.219,1.837-0.189c0.713,0.043,1.406-0.021,2.04-0.377
			c0.124-0.07,0.283-0.232,0.28-0.348c-0.008-0.258-0.261-0.219-0.441-0.23c-0.651-0.043-1.257,0.195-1.879,0.318
			c-1.334,0.266-2.66,0.387-3.963-0.127c-0.919-0.363-1.105-0.771-0.58-1.564c0.38-0.574-0.349-0.377-0.333-0.672
			c0.426-0.365,0.878-0.492,1.456-0.238c0.427,0.188,0.91,0.053,1.288-0.18c0.854-0.525,1.735-0.244,2.605-0.156
			c0.214,0.021,0.586,0.076,0.527,0.422c-0.038,0.229-0.338,0.27-0.558,0.287c-0.668,0.057-1.338,0.08-2.004,0.146
			c-0.274,0.027-0.568,0.082-0.763,0.387C23.398,9.918,23.794,9.871,24.206,9.777z M25.199,17.705
			c-2.458,1.477-5.06,1.426-7.612,0.555c-2.704-0.922-5.31-2.131-7.957-3.215c-0.364-0.15-1.321-2.092-1.211-2.461
			c0.076-0.254,0.335-0.279,0.527-0.361c2.69-1.152,5.385-2.293,8.205-3.492c-0.695,1.705,0.301,2.6,1.475,3.309
			c3.821,2.307,7.977,2.842,12.428,2.311C29.101,15.465,27.126,16.547,25.199,17.705z M41.833,7.803
			c-0.044,0.301-0.104,0.502-0.406,0.672c-2.416,1.35-4.819,2.725-7.414,4.199c0.679-1.34,0.262-2.246-0.572-3.025
			c-1.584-1.479-3.581-2.021-5.631-2.406c-2.078-0.389-4.169-0.594-6.361-0.15c0.428-0.361,1.284-0.846,1.821-0.961
			c1.925-0.418,3.543-1.576,5.378-2.217c0.665-0.232,1.3-0.408,2.002-0.508c3.209-0.453,5.986,0.834,8.795,2.037
			c0.409,0.174,0.812,0.412,1.24,0.492C41.788,6.145,41.971,6.848,41.833,7.803z"/>
	</g>
</g>
<g id="Botones">
</g>
<g id="Logo">
</g>
<g id="TXT">
</g>
<g id="Guias">
</g>
</svg>
