<?xml version="1.0" encoding="utf-8"?>
<!-- Generator: Adobe Illustrator 16.0.0, SVG Export Plug-In . SVG Version: 6.00 Build 0)  -->
<!DOCTYPE svg PUBLIC "-//W3C//DTD SVG 1.1//EN" "http://www.w3.org/Graphics/SVG/1.1/DTD/svg11.dtd">
<svg version="1.1" xmlns="http://www.w3.org/2000/svg" xmlns:xlink="http://www.w3.org/1999/xlink" x="0px" y="0px"
	 width="33.333px" height="49.668px" viewBox="0 0 33.333 49.668" enable-background="new 0 0 33.333 49.668" xml:space="preserve">
<g id="IMG" display="none">
</g>
<g id="Soporte">
</g>
<g id="Cintillos">
</g>
<g id="Imagenes">
</g>
<g id="Vectores">
</g>
<g id="Iconos">
	<g>
		<g>
			<g>
				<path fill="#FFFFFF" d="M5.646,19.983l-0.172-0.568c-0.086-0.287-2.088-7.16,1.029-16.57c0.105-0.52,0.637-1.602,1.777-1.602
					c0.15,0,0.309,0.021,0.469,0.059l8.389,2.9c0.598,0.273,1.514,1.127,1.027,2.533c-0.467,1.35-1.199,4.898-0.977,6.207
					c0.006,0.008,0.359,1.371-1.711,2.254c-1.658,0.707-9.225,4.484-9.301,4.521L5.646,19.983z M8.281,2.243
					c-0.615,0-0.807,0.83-0.814,0.865c-2.523,7.625-1.578,13.604-1.178,15.436c1.805-0.898,7.361-3.656,8.797-4.268
					c1.225-0.521,1.131-1.109,1.125-1.135c-0.291-1.691,0.578-5.482,1.01-6.732c0.311-0.896-0.375-1.244-0.455-1.279L8.469,2.261
					C8.432,2.255,8.354,2.243,8.281,2.243z"/>
			</g>
			<g>
				<path fill="#FFFFFF" d="M27.313,44.929L27.313,44.929c-0.574,0-1.053-0.242-1.105-0.27c-9.191-3.557-13.223-9.473-13.391-9.723
					l-0.33-0.492l0.543-0.242c0.078-0.033,7.807-3.471,9.406-4.303c0.555-0.287,1.07-0.434,1.533-0.434
					c0.891,0,1.283,0.527,1.324,0.588c0.836,0.963,4.041,2.654,5.379,3.152c1.396,0.52,1.473,1.768,1.318,2.355l-3.096,8.322
					C28.563,44.571,28.008,44.929,27.313,44.929z M14.008,34.862c1.162,1.475,5.18,6.01,12.611,8.889
					c0.051,0.021,0.359,0.178,0.693,0.178c0.313,0,0.518-0.135,0.664-0.438l3.061-8.23c0.018-0.088,0.141-0.799-0.713-1.117
					c-1.24-0.461-4.717-2.201-5.82-3.477c-0.025-0.033-0.17-0.201-0.535-0.201c-0.301,0-0.662,0.107-1.072,0.32
					C21.51,31.507,15.85,34.04,14.008,34.862z"/>
			</g>
			<g>
				<path fill="#FFFFFF" d="M12.955,34.702l-0.244-0.301c-5.512-6.777-6.83-14.08-6.883-14.387l-0.066-0.381l6.072-2.752
					l0.133,0.602c1.973,8.953,6.668,13.799,6.715,13.846l0.5,0.508L12.955,34.702z M6.891,20.22
					c0.34,1.551,1.894,7.619,6.354,13.248l4.254-1.957c-1.25-1.455-4.635-5.91-6.37-13.211L6.891,20.22z"/>
			</g>
		</g>
		<g>
			<path fill="#FFFFFF" d="M25.17,48.001c-0.016,0-0.027,0-0.033,0l-0.129,0.021c-9.469-2.928-14.31-9.05-14.512-9.31
				C4.557,32.37,2.733,25.19,2.658,24.888c-0.097-0.254-2.724-7.586-0.271-17.189l0.092-0.182C2.554,7.421,4.357,5.15,6.41,4.877
				L6.543,5.87C5.23,6.044,3.839,7.438,3.329,8.057C1,17.311,3.587,24.534,3.613,24.606c0.034,0.125,1.859,7.303,7.644,13.48
				c0.077,0.096,4.866,6.158,13.971,9c0.356-0.021,2.306-0.299,3.073-3.879l0.977,0.165C28.309,47.898,25.521,48.001,25.17,48.001z"
				/>
		</g>
		<g>
			<path fill="#FFFFFF" d="M24.894,47.329c-0.134,0-0.28-0.031-0.439-0.094l-0.2-0.078l0.048-0.209
				c0.052-0.23,0.107-0.445,0.167-0.65c-0.115,0.143-0.266,0.266-0.459,0.361c-0.417,0.205-0.727,0.209-0.923,0.004
				c-0.51-0.529,0.359-2.139,0.368-2.156c0.19-0.348,0.188-0.73,0.145-0.93c-0.037,0.064-0.084,0.164-0.137,0.318
				c-0.025,0.078-0.055,0.174-0.088,0.281c-0.24,0.795-0.691,2.264-1.706,1.992l-0.161-0.045l-0.02-0.168
				c-0.032-0.268,0.125-0.685,0.387-1.356c0.179-0.461,0.552-1.599,0.44-1.599c-0.004,0-0.009,0-0.013,0
				c-0.21,0-0.318,0.37-0.455,0.94c-0.182,0.754-0.435,1.769-1.477,1.544l-0.109-0.025l-0.055-0.098
				c-0.146-0.26-0.211-0.551-0.236-0.846c-0.071,0.121-0.158,0.216-0.272,0.276s-0.307,0.104-0.565-0.019
				c-0.274-0.131-0.449-0.325-0.521-0.581c-0.027-0.102-0.037-0.206-0.033-0.315c-0.17,0.117-0.352,0.168-0.516,0.184
				c-0.314,0.027-0.554-0.047-0.705-0.232c-0.166-0.201-0.201-0.496-0.106-0.896c-0.022,0.018-0.046,0.033-0.071,0.047
				c-0.295,0.18-0.67,0.205-1.119,0.072c-0.336-0.1-0.539-0.271-0.602-0.514c-0.041-0.164-0.011-0.332,0.063-0.498
				c-0.227,0.027-0.496-0.02-0.805-0.127l-0.135-0.047l-0.029-0.141c-0.189-0.934,0.531-1.863,1.179-2.566
				c0.308-0.336,0.468-0.846,0.391-0.965c-0.017-0.021-0.126-0.043-0.352,0.025c-0.11,0.17-0.231,0.434-0.36,0.711
				c-0.428,0.922-1.014,2.184-2.015,1.791l-0.124-0.049l-0.028-0.131c-0.079-0.363,0.056-0.672,0.174-0.947l0.03-0.07
				c0.096-0.219,0.314-0.494,0.57-0.811c0.442-0.553,1.111-1.387,0.826-1.75c-0.184,0.033-0.588,0.842-0.76,1.188
				c-0.139,0.277-0.248,0.496-0.342,0.623c-0.031,0.039-0.07,0.1-0.118,0.172c-0.341,0.518-0.708,1.027-1.132,1.086
				c-0.164,0.025-0.319-0.025-0.448-0.139c-0.399-0.346,0.217-1.859,0.224-1.873c0.157-0.291,0.389-0.574,0.612-0.85
				c0.417-0.512,0.815-0.998,0.812-1.541c-0.486,0.197-0.757,0.807-1.041,1.447c-0.383,0.863-0.815,1.834-1.91,1.592l-0.306-0.07
				l0.136-0.283c0.139-0.289,0.207-0.58,0.28-0.887c0.112-0.477,0.229-0.969,0.616-1.459c0.145-0.184,0.341-0.357,0.549-0.541
				c0.4-0.354,0.813-0.717,0.85-1.139c-0.055,0.01-0.111,0.021-0.172,0.029c-0.43,0.061-1.021,0.633-1.242,1.086
				c-0.046,0.096-0.09,0.223-0.139,0.363c-0.186,0.531-0.44,1.26-1.072,1.295c-0.336,0.01-0.508-0.121-0.594-0.24
				c-0.238-0.33-0.08-0.863,0.084-1.289c0.242-0.627,0.615-0.936,1.113-1.303c0.076-0.057,0.214-0.129,0.375-0.215
				c0.199-0.105,0.807-0.424,0.824-0.58c0-0.066-0.021-0.08-0.036-0.09c-0.148-0.098-0.591-0.025-0.806,0.066
				c-0.459,0.197-0.714,0.609-0.984,1.047c-0.355,0.574-0.75,1.229-1.674,1.154l-0.199-0.016l-0.029-0.199
				c-0.143-0.998,0.518-1.957,1.235-2.463c0.11-0.078,0.217-0.15,0.319-0.219c0.547-0.363,0.897-0.598,0.918-1.217
				c-0.77,0.014-0.981,0.173-1.349,0.929c-0.008,0.016-0.84,1.571-1.663,1.571c0,0-0.002,0-0.003,0
				c-0.187,0-0.445-0.022-0.632-0.396c-0.473-0.943,0.982-1.829,1.682-2.267l0.133-0.068c0.099-0.064,0.19-0.109,0.275-0.156
				c0.289-0.162,0.398-0.221,0.436-0.523c0.027-0.223-0.063-0.56-0.151-0.675c-0.146,0.184-0.29,0.397-0.441,0.622
				c-0.264,0.391-0.536,0.796-0.862,1.099c-0.715,0.66-1.391,0.239-1.935-0.101l-0.269-0.168l0.048-0.18
				c0.105-0.393,0.486-0.764,0.812-0.906c0.254-0.344,0.629-0.547,0.993-0.744c0.655-0.354,1.019-0.586,0.872-1.281
				c-0.014-0.066-0.055-0.221-0.131-0.244c-0.313-0.105-1.188,0.783-1.516,1.113c-0.099,0.1-0.184,0.186-0.251,0.248
				c-0.008,0.008-0.847,0.773-1.399,0.551c-0.116-0.047-0.314-0.178-0.334-0.539c-0.025-0.426,0.469-0.805,0.797-1.057l0.107-0.084
				c0.104-0.086,0.224-0.178,0.353-0.275c0.606-0.463,1.416-1.08,1.44-1.729C7.23,26.245,6.9,26.687,6.523,27.192
				c-0.228,0.307-0.463,0.623-0.769,0.852c-0.403,0.307-0.835,0.365-1.101,0.152c-0.082-0.066-0.334-0.326-0.09-0.852
				c0.179-0.385,0.498-0.838,0.783-1.23l0.04-0.057l0.063-0.027c0.443-0.189,1.238-0.734,1.379-1.045
				c0.104-0.23,0.088-0.367,0.064-0.395c-0.008-0.01-0.067-0.023-0.18,0.006c-0.357,0.098-0.712,0.5-1.055,0.891
				c-0.533,0.609-1.135,1.295-1.95,1.002l-0.187-0.068l0.023-0.197c0.039-0.324,0.287-0.535,0.486-0.705
				c0.07-0.061,0.141-0.119,0.195-0.182c0.144-0.164,0.311-0.404,0.473-0.635c0.1-0.145,0.199-0.285,0.294-0.412
				c0.093-0.123,0.204-0.256,0.319-0.396c0.439-0.527,0.933-1.117,0.845-1.672c-0.39,0.078-0.849,0.289-1.291,0.594
				c-0.093,0.064-0.206,0.209-0.315,0.348c-0.266,0.334-0.627,0.793-1.15,0.643c-0.383-0.113-0.493-0.334-0.52-0.498
				c-0.071-0.459,0.459-1.078,1.578-1.84c0.55-0.375,1.248-1.136,1.254-1.345c-0.02,0.016-0.09-0.122-0.303-0.122
				c0,0-0.001,0-0.002,0c-0.495,0-0.824,0.431-1.172,0.79c-0.402,0.414-0.858,0.927-1.598,0.837l-0.367-0.021l0.178-0.313
				c0.055-0.1,0.105-0.197,0.158-0.303c0.081-0.166,0.165-0.331,0.266-0.499c0.309-0.508,0.666-0.72,1.08-0.968
				c0.098-0.059,0.2-0.118,0.31-0.188c0.062-0.039,0.14-0.085,0.228-0.136c0.282-0.168,0.784-0.465,1.027-0.758
				c-0.256,0.105-0.561,0.262-0.86,0.414c-1.122,0.574-2.395,1.223-3.015,0.422l-0.124-0.16l0.131-0.154
				c0.309-0.365,0.919-0.65,1.563-0.953c0.824-0.387,1.744-0.818,1.872-1.373c-0.333,0.041-0.647,0.203-0.978,0.375l-0.182,0.094
				c-0.646,0.336-1.072,0.559-1.92,0.586L1.441,17.71l0.369-0.432c0.584-0.68,1.632-1.232,2.055-1.439
				c0.099-0.047,0.213-0.098,0.335-0.15c0.729-0.313,1.101-0.539,1.071-0.877c-0.269,0.025-0.59,0.207-0.879,0.371
				c-0.157,0.09-0.307,0.176-0.441,0.234c-0.631,0.273-1.32,0.574-2.035,0.32l-0.367-0.131l0.271-0.279
				c0.346-0.354,0.854-0.623,1.345-0.885c0.638-0.338,1.249-0.662,1.553-1.145c-0.093,0.047-0.188,0.098-0.284,0.148
				c-0.681,0.359-1.391,0.736-2.156,0.668l-0.284-0.023l0.06-0.279c0.171-0.797,0.898-1.166,1.602-1.525
				c0.55-0.279,1.074-0.547,1.322-0.996c-0.31,0.076-0.607,0.268-0.918,0.469c-0.486,0.311-1.041,0.672-1.719,0.605l-0.22-0.02
				l-0.009-0.219c-0.024-0.588,0.59-0.953,1.039-1.219L3.328,10.8c0.139-0.086,0.621-0.176,0.878-0.279
				c0.299-0.119,1.321-0.4,1.321-0.563c0-0.002,0-0.002,0-0.004c0,0.012-0.863,0.154-1.126,0.244
				c-0.723,0.248-1.476,0.463-1.744,0.084l-0.218-0.215l0.192-0.141C2.749,9.853,2.93,9.751,3.166,9.628
				c0.584-0.303,1.772-0.922,1.96-1.354c-0.247,0.055-0.551,0.232-0.82,0.395C3.833,8.948,3.341,9.239,2.923,9.04L2.638,8.903
				l0.196-0.246c0.369-0.463,0.904-0.75,1.421-1.025C4.672,7.407,5.074,7.19,5.371,6.897c-0.735,0.193-1.766,0.781-2.295,1.23
				L2.752,7.747c0.539-0.457,2.213-1.5,3.182-1.408l0.362,0.039L6.131,6.702c-0.252,0.492-0.67,0.813-1.125,1.084
				C5.127,7.757,5.25,7.745,5.369,7.763l0.126,0.014l0.063,0.109c0.084,0.15,0.104,0.32,0.053,0.49
				C5.479,8.827,4.876,9.253,4.12,9.677c0.576-0.197,1.029-0.328,1.272-0.096c0.087,0.082,0.174,0.24,0.092,0.518
				c-0.105,0.359-0.627,0.594-1.353,0.887c-0.226,0.09-0.438,0.176-0.538,0.238l-0.188,0.113c-0.239,0.143-0.541,0.32-0.695,0.514
				c0.377-0.064,0.719-0.283,1.076-0.514c0.477-0.305,0.977-0.625,1.574-0.576l0.285,0.02L5.589,11.06
				c-0.184,0.896-0.993,1.309-1.707,1.672c-0.501,0.256-0.979,0.5-1.214,0.875c0.513-0.064,1.029-0.336,1.533-0.604
				c0.283-0.148,0.575-0.305,0.86-0.416l0.396-0.156L5.4,12.854c-0.143,1.045-1.13,1.568-2.001,2.029
				c-0.278,0.148-0.546,0.291-0.78,0.441c0.367-0.033,0.743-0.197,1.111-0.357c0.142-0.063,0.274-0.139,0.415-0.219
				c0.419-0.238,0.896-0.504,1.367-0.424l0.138,0.025l0.05,0.131c0.369,0.947-0.677,1.398-1.302,1.668
				c-0.114,0.049-0.222,0.094-0.313,0.139c-0.274,0.135-0.829,0.422-1.318,0.791c0.302-0.088,0.569-0.229,0.931-0.416l0.166-0.086
				c0.446-0.23,0.938-0.477,1.496-0.443l0.2,0.014l0.03,0.197c0.156,1.031-1.076,1.609-2.162,2.119
				c-0.449,0.209-0.909,0.426-1.201,0.645c0.482,0.182,1.425-0.299,2.205-0.697c0.579-0.295,1.079-0.551,1.448-0.588L6.119,17.8
				l0.033,0.236c0.099,0.701-0.807,1.238-1.406,1.594c-0.082,0.049-0.154,0.092-0.213,0.129c-0.114,0.072-0.221,0.137-0.321,0.197
				c-0.4,0.238-0.665,0.396-0.909,0.799c-0.078,0.127-0.144,0.258-0.207,0.385c0.29-0.098,0.524-0.681,0.783-0.946
				c0.387-0.398,0.824-1.192,1.531-1.192c0.001,0,0.002,0,0.002,0c0.44,0,0.703,0.47,0.781,0.724
				c0.205,0.662-1.281,1.868-1.451,1.985c-1.037,0.707-1.388,1.287-1.365,1.434c0.004,0.023,0.058,0.107,0.168,0.141
				c0.178,0.049,0.369-0.143,0.615-0.453c0.139-0.176,0.27-0.331,0.424-0.437c0.346-0.24,1.033-0.647,1.734-0.704L6.5,21.678
				l0.07,0.171c0.363,0.883-0.35,1.738-0.871,2.363c-0.11,0.133-0.216,0.26-0.304,0.379c-0.092,0.121-0.188,0.26-0.284,0.396
				c-0.17,0.242-0.346,0.494-0.508,0.68c-0.069,0.078-0.156,0.154-0.246,0.23c-0.059,0.051-0.117,0.102-0.169,0.152
				c0.335-0.055,0.659-0.395,1.096-0.893c0.392-0.445,0.798-0.906,1.3-1.043c0.399-0.104,0.604,0.051,0.691,0.152
				c0.178,0.209,0.182,0.547,0.01,0.926c-0.227,0.498-1.15,1.07-1.572,1.268c-0.211,0.295-0.531,0.744-0.695,1.096
				c-0.074,0.16-0.06,0.242-0.049,0.252c0.039,0.031,0.232,0.027,0.485-0.162c0.247-0.188,0.452-0.461,0.669-0.752
				c0.449-0.602,0.96-1.287,1.945-1.131l0.172,0.025l0.035,0.172c0.205,1.02-0.846,1.822-1.613,2.406
				c-0.125,0.096-0.24,0.184-0.342,0.266l-0.117,0.094c-0.406,0.313-0.609,0.525-0.604,0.633c0.006,0.082,0.023,0.105,0.023,0.105
				c0.104,0.045,0.57-0.178,0.87-0.455c0.063-0.061,0.145-0.141,0.238-0.236c0.742-0.748,1.456-1.406,2.013-1.238
				c0.168,0.049,0.388,0.197,0.477,0.619c0.232,1.094-0.52,1.5-1.123,1.826c-0.348,0.188-0.677,0.365-0.859,0.646L7.189,30.7
				l-0.085,0.027c-0.157,0.049-0.374,0.23-0.493,0.428c0.545,0.34,0.861,0.482,1.26,0.115c0.283-0.264,0.539-0.643,0.787-1.012
				c0.186-0.273,0.377-0.557,0.578-0.787l0.057-0.066l0.086-0.016c0.164-0.033,0.323,0.02,0.451,0.139
				c0.297,0.279,0.363,0.871,0.332,1.127c-0.023,0.195-0.076,0.342-0.148,0.459c0.265-0.098,0.592-0.121,1.029-0.105l0.219,0.012
				l0.018,0.219c0.086,1.082-0.506,1.477-1.133,1.895c-0.1,0.066-0.203,0.137-0.309,0.211c-0.521,0.367-1.037,1.057-1.043,1.77
				c0.438-0.049,0.665-0.381,0.996-0.916c0.286-0.463,0.609-0.986,1.213-1.244c0.208-0.088,0.887-0.283,1.277-0.025
				c0.168,0.111,0.262,0.291,0.262,0.508c0.001,0.18-0.098,0.34-0.246,0.482c0.109-0.047,0.22-0.08,0.329-0.096
				c0.052-0.006,0.099,0.106,0.146,0.097c0.105-0.021,0.209,0.081,0.32,0.081h0.199l0.045,0.071
				c0.189,0.814-0.464,1.329-0.989,1.792c-0.19,0.168-0.372,0.297-0.487,0.445c-0.318,0.402-0.418,0.807-0.522,1.248
				c-0.05,0.215-0.103,0.426-0.179,0.648c0.451-0.064,0.701-0.573,1.035-1.327c0.354-0.797,0.754-1.702,1.682-1.806l0.221-0.024
				l0.051,0.214c0.212,0.889-0.367,1.598-0.879,2.225c-0.219,0.268-0.425,0.521-0.559,0.77c-0.096,0.18-0.32,0.988-0.308,1.256
				c0.284-0.049,0.66-0.621,0.806-0.84c0.054-0.084,0.1-0.152,0.133-0.197c0.068-0.092,0.18-0.313,0.297-0.547
				c0.418-0.838,0.748-1.436,1.166-1.477c0.092-0.018,0.276,0.002,0.435,0.203c0.53,0.676-0.224,1.615-0.83,2.371
				c-0.223,0.277-0.433,0.539-0.5,0.695l-0.031,0.072c-0.077,0.178-0.146,0.338-0.155,0.494c0.449-0.002,0.832-0.695,1.236-1.568
				c0.162-0.352,0.304-0.654,0.453-0.859l0.046-0.061l0.072-0.025c0.613-0.219,0.888-0.041,1.011,0.145
				c0.275,0.416-0.078,1.184-0.439,1.578c-0.49,0.533-1.115,1.303-1.074,1.988c0.287,0.08,0.505,0.08,0.647-0.004
				c0.259-0.15,0.344-0.623,0.425-1.08c0.125-0.697,0.294-1.645,1.297-1.645c0.027,0,0.055,0.002,0.084,0.002l0.166,0.01
				l0.057,0.156c0.342,0.945-0.617,2.063-1.045,2.5l-0.071,0.072c-0.208,0.211-0.696,0.703-0.642,0.916
				c0.016,0.057,0.111,0.115,0.259,0.158c0.31,0.092,0.546,0.086,0.718-0.018c0.343-0.209,0.461-0.818,0.574-1.408
				c0.146-0.762,0.313-1.625,1.094-1.637l0.27-0.004l-0.016,0.27c-0.012,0.188-0.002,0.35,0.008,0.5
				c0.021,0.361,0.041,0.705-0.223,1.148c-0.098,0.166-0.203,0.322-0.308,0.479c-0.226,0.334-0.439,0.65-0.551,1.029
				c-0.098,0.332-0.077,0.518-0.025,0.58c0.052,0.064,0.19,0.057,0.272,0.053c0.375-0.035,0.615-0.385,0.714-1.037
				c0.021-0.133,0.024-0.289,0.03-0.451c0.018-0.494,0.037-1.055,0.406-1.389c0.395-0.359,0.674-0.275,0.807-0.191
				c0.325,0.207,0.361,0.775,0.23,1.205c-0.058,0.191-0.217,0.434-0.42,0.742c-0.319,0.484-0.801,1.217-0.689,1.617
				c0.02,0.07,0.067,0.176,0.254,0.264c0.021,0.01,0.09,0.037,0.12,0.025c0.149-0.078,0.249-0.67,0.315-1.063
				c0.143-0.84,0.34-1.98,1.287-1.836l0.199,0.033l0.01,0.201c0.04,0.822-0.156,1.727-0.805,1.961
				c-0.026,0.484-0.051,0.98,0.117,1.367c0.432,0.025,0.572-0.377,0.77-1.195c0.156-0.654,0.346-1.396,1.02-1.316
				c0.156,0.02,0.285,0.1,0.363,0.229c0.221,0.367-0.005,1.018-0.404,2.045c-0.112,0.291-0.255,0.658-0.32,0.902
				c0.428-0.164,0.725-1.141,0.877-1.646c0.035-0.113,0.066-0.215,0.094-0.295c0.163-0.48,0.35-0.721,0.586-0.752
				c0.156-0.021,0.292,0.047,0.389,0.188c0.209,0.303,0.231,0.866-0.07,1.419c-0.315,0.576-0.557,1.411-0.447,1.411
				c0,0,0.005,0,0.012,0c0.03,0,0.127,0.151,0.328,0.052c0.533-0.264,0.57-0.751,0.566-1.585c0-0.189-0.001-0.336,0.01-0.512
				l0.009-0.139l0.146-0.049c0.454-0.184,0.785-0.163,0.986,0.052c0.177,0.188,0.188,0.468,0.136,0.743
				c0.205-0.385,0.553-0.646,1.176-0.554l0.168,0.026l0.039,0.166c0.029,0.123,0.014,0.256-0.031,0.398
				c0.096-0.1,0.232-0.176,0.426-0.213l0.25-0.049l0.044,0.25c0.041,0.232-0.013,0.43-0.062,0.604
				c-0.039,0.143-0.072,0.266-0.052,0.393l-0.275,0.045c0.001,0.006,0.001,0.01,0.003,0.016c0.051,0.387,0.104,0.787-0.146,1.061
				c-0.155,0.168-0.387,0.246-0.714,0.23c-0.382-0.016-0.624-0.131-0.743-0.352c-0.01-0.018-0.018-0.037-0.025-0.057
				c-0.08,0.313-0.205,0.57-0.442,0.709C25.148,47.298,25.027,47.329,24.894,47.329z M24.844,46.827
				c0.063,0.01,0.12,0.002,0.16-0.023c0.186-0.107,0.256-0.588,0.319-1.014c0.027-0.188,0.058-0.391,0.102-0.592
				c-0.005,0.012-0.011,0.023-0.017,0.035C25.166,45.739,24.993,46.226,24.844,46.827z M26.805,45.015
				c-0.068,0.125-0.146,0.254-0.229,0.389c-0.17,0.281-0.488,0.805-0.412,0.945c0.016,0.029,0.1,0.078,0.323,0.088
				c0.16,0.01,0.276-0.018,0.323-0.068c0.092-0.102,0.054-0.396,0.02-0.656C26.803,45.503,26.769,45.247,26.805,45.015z
				 M26.499,44.499c-0.401,0.051-0.534,0.441-0.651,1.168c0.086-0.168,0.192-0.344,0.301-0.521
				C26.266,44.95,26.426,44.687,26.499,44.499z M24.855,44.188c-0.002,0.117-0.002,0.236-0.002,0.357
				c0.002,0.238,0.003,0.496-0.023,0.75c0.041-0.094,0.083-0.186,0.127-0.279c0.234-0.488,0.235-0.795,0.184-0.85
				C25.13,44.155,25.049,44.132,24.855,44.188z M20.782,41.972c-0.245,0.125-0.361,0.582-0.472,1.199
				C20.657,43.032,20.769,42.444,20.782,41.972z M19.705,40.919c0,0.004-0.068,0.014-0.203,0.137
				c-0.213,0.193-0.229,0.643-0.242,1.037c-0.004,0.086-0.006,0.172-0.012,0.252c0.04-0.061,0.079-0.119,0.117-0.178
				c0.158-0.24,0.322-0.49,0.359-0.611C19.813,41.267,19.764,40.968,19.705,40.919z M18.341,40.13
				c-0.165,0.184-0.253,0.572-0.356,1.109c-0.023,0.125-0.048,0.25-0.074,0.373c0.098-0.145,0.195-0.289,0.287-0.443
				c0.186-0.313,0.172-0.533,0.152-0.867C18.347,40.247,18.344,40.188,18.341,40.13z M17.27,39.267
				c-0.424,0.059-0.541,0.447-0.68,1.223c-0.02,0.113-0.04,0.227-0.063,0.338C16.857,40.446,17.328,39.8,17.27,39.267z
				 M11.651,34.353c-0.067,0.037-0.136,0.072-0.2,0.107c-0.133,0.07-0.248,0.129-0.311,0.174c-0.457,0.336-0.748,0.578-0.943,1.08
				c-0.237,0.615-0.172,0.779-0.146,0.816c0.028,0.037,0.131,0.039,0.162,0.033c0.296-0.016,0.487-0.561,0.626-0.959
				c0.057-0.162,0.109-0.311,0.162-0.418C11.126,34.933,11.363,34.616,11.651,34.353z M9.363,31.622
				c-0.045,0.025-0.09,0.053-0.137,0.082l-0.139,0.088c-0.438,0.273-1.77,1.109-1.5,1.646c0.087,0.174,0.166,0.164,0.186,0.176
				c0.344-0.002,0.991-0.885,1.215-1.348C9.115,32.009,9.234,31.796,9.363,31.622z"/>
		</g>
	</g>
</g>
<g id="Botones">
</g>
<g id="Logo">
</g>
<g id="TXT">
</g>
<g id="Guias">
</g>
</svg>
