<?xml version="1.0" encoding="utf-8"?>
<!-- Generator: Adobe Illustrator 16.0.0, SVG Export Plug-In . SVG Version: 6.00 Build 0)  -->
<!DOCTYPE svg PUBLIC "-//W3C//DTD SVG 1.1//EN" "http://www.w3.org/Graphics/SVG/1.1/DTD/svg11.dtd">
<svg version="1.1" xmlns="http://www.w3.org/2000/svg" xmlns:xlink="http://www.w3.org/1999/xlink" x="0px" y="0px"
	 width="53.333px" height="32.834px" viewBox="0 0 53.333 32.834" enable-background="new 0 0 53.333 32.834" xml:space="preserve">
<g id="IMG" display="none">
</g>
<g id="Soporte">
</g>
<g id="Cintillos">
</g>
<g id="Imagenes">
</g>
<g id="Vectores">
</g>
<g id="Iconos">
	<g>
		<path fill-rule="evenodd" clip-rule="evenodd" fill="none" stroke="#FFFFFF" stroke-miterlimit="10" d="M28.131,25.015
			c-5.368,0-10.736,0.004-16.104,0c-1.711-0.002-2.113-0.406-2.113-2.123c-0.004-6.291-0.004-12.578,0-18.869
			c0-1.652,0.416-2.08,2.03-2.084c10.815-0.002,21.633-0.002,32.448,0c1.633,0,2.057,0.426,2.057,2.061
			c0.005,6.291,0.004,12.578,0.001,18.869c-0.001,1.764-0.397,2.146-2.214,2.146C38.867,25.017,33.5,25.015,28.131,25.015z"/>
		<path fill-rule="evenodd" clip-rule="evenodd" fill="none" stroke="#FFFFFF" stroke-miterlimit="10" d="M10.032,26.459
			c-1.7-0.191-2.349-1.101-2.349-2.817c-0.004-6.291-0.004-12.578,0-18.869c0-1.652,0.609-2.018,2.224-2.021"/>
		<path fill-rule="evenodd" clip-rule="evenodd" fill="#FFFFFF" d="M52.126,26.458c0.191,1.922-0.209,2.402-1.936,2.402
			c-14.658,0.002-29.315,0.002-43.973,0c-1.758,0-2.127-0.418-2.025-2.334c0.302-0.021,0.611-0.064,0.922-0.066
			c6.207-0.002,12.414-0.002,18.622,0.004c0.467,0,1.054-0.215,1.176,0.6c0.022,0.154,0.507,0.334,0.782,0.34
			c1.642,0.031,3.283,0.02,4.926,0.01c0.231-0.002,0.632-0.021,0.668-0.129c0.439-1.342,1.546-0.801,2.373-0.807
			c5.727-0.037,11.454-0.02,17.182-0.02C51.274,26.458,51.706,26.458,52.126,26.458z"/>
		<path fill-rule="evenodd" clip-rule="evenodd" fill="none" stroke="#FFFFFF" stroke-miterlimit="10" d="M4.192,26.526
			c-1.751,0.025-2.304,1.128-2.304,1.128c-0.238,1.113,0.146,3.804,1.904,3.804c14.657,0.002,29.314,0.002,43.973,0
			c0,0,4.055,0.569,4.373-3.923"/>
		<path fill-rule="evenodd" clip-rule="evenodd" fill="none" stroke="#FFFFFF" stroke-width="0.5" stroke-miterlimit="10" d="
			M8.79,3.042c0.369,0.113,0.966,0.475,1.121,0.826c-0.539,0.036-1.299-0.179-1.78,0.016c-0.025,0.525,0.079,0.607,0.565,0.7
			c0.381,0.073,0.77,0.153,1.129,0.299c0.225,0.739-1.65-0.008-1.653,0.694C8.471,5.671,8.794,5.772,9.08,5.874
			c0.232,0.083,0.601,0.121,0.791,0.262c-0.244,0.32-2.173,0.426-2.072,0.857C7.891,7.388,9.388,7.03,9.7,7.05
			c0.584,0.691-1.693,0.553-1.652,1.068C8.449,8.365,9.019,8.11,9.466,8.209c0.563,0.124,0.35,0.438-0.126,0.584
			c-0.342,0.104-1,0.126-1.237,0.446C7.751,9.712,8.573,9.745,8.917,9.71c0.297-0.031,1.077-0.304,0.822,0.195
			c-0.19,0.375-0.92,0.49-1.237,0.647c-0.354,0.175-0.79,0.532-0.179,0.688c0.382,0.098,0.851-0.087,1.252-0.066
			c0.543,0.453-1.408,0.871-1.573,1.318c0.379,0.115,0.635,0.137,1.038,0.174c0.242,0.021,0.549-0.027,0.542,0.292
			c-0.011,0.515-1.084,0.485-1.411,0.632c-0.219,0.734,1.252,0.563,1.657,0.582c-0.028,0.461-0.306,0.6-0.747,0.663
			c-0.442,0.063-0.676,0.091-1.076,0.297c-0.498,0.767,1.322,0.702,1.696,0.79c-0.055,0.093-0.052,0.148-0.154,0.21
			c-0.019,0.798-1.449,0.281-1.292,1.153c0.445,0.143,0.838-0.105,1.278-0.07c0.365,1.07-0.614,0.801-1.193,1.25
			c-0.023,0.07-0.021,0.207-0.001,0.277c0.283,0.134,0.969-0.002,1.162,0.172c0.419,0.377-0.451,0.686-0.698,0.797
			c-0.347,0.154-0.897,0.361-0.39,0.717c0.311,0.217,0.846,0.1,1.204,0.119c0.137,0.742-0.869,0.545-1.194,1.035
			c-0.505,0.762,0.91,0.318,1.236,0.383c0.026,0.768-1.33,0.559-1.464,1.199c-0.14,0.668,1.096,0.178,1.422,0.219
			c0.337,0.396-0.188,0.498-0.44,0.625c-0.333,0.168-0.615,0.437-0.762,0.783c-0.168,0.397,0.095,0.656,0.574,0.503
			c0.422-0.135,0.468-0.688,0.846-0.886c0.25,0.456-0.761,0.824-0.621,1.418c0.466,0.037,0.638-0.181,0.833-0.569
			c0.141-0.046,0.279-0.122,0.414-0.2c-0.123,0.359-0.633,0.44-0.582,0.895c0.601,0.052,0.918-0.471,1.453-0.618"/>
		
			<path fill-rule="evenodd" clip-rule="evenodd" fill="none" stroke="#FFFFFF" stroke-width="0.5" stroke-linejoin="round" stroke-miterlimit="10" d="
			M3.144,27.188c0.342-0.054,0.997,0.137,1.117,0.427c-0.663,0.057-1.691,0.083-2.294,0.334c-0.247,0.986,2.058-0.186,2.432,0.221
			c0.257,0.28-2.127,0.968-2.058,1.571c0.9,0.34,1.641-1.191,2.543-1.295c0.183,0.914-1.551,1.551-1.605,2.607
			c1.24,0.309,1.271-2.264,2.231-1.98c0.289,0.764-0.584,1.318-0.481,2.105c1.234,0.209,0.671-2.302,1.917-2.23
			c0.253,0.705-0.224,1.326-0.167,2.043c0.664,0.191,0.793-1.084,1.006-1.492c0.486-0.932,0.708-0.15,0.672,0.56
			c-0.008,0.156-0.166,0.92-0.019,1.023c0.328,0.229,0.353-0.356,0.391-0.517c0.118-0.494,0.056-1.758,0.868-1.557
			c0.036,0.719-0.144,1.32-0.232,1.982c0.154,0.098,0.345,0.142,0.545,0.125c0.046-0.857,0.107-1.399,0.333-2.167
			c1.481-0.187-0.435,2.475,0.854,2.166c0.243-0.613-0.249-1.942,0.686-2.106c0.205,0.423-0.256,2.301,0.326,2.121
			c0.725-0.223-0.35-2.268,0.864-1.996c0.031,0.633-0.094,1.352,0.144,1.92c0.071,0.033,0.288,0.066,0.354,0.063
			c0.225-0.529-0.341-2.442,0.627-2.166c0.098,0.276-0.051,2.658,0.578,1.852c0.429-0.551-0.758-2.196,0.609-2.103
			c0.371,0.536-0.292,1.915,0.151,2.286c0.894,0.746,0.596-1.826,0.619-2.1c1.795-0.327,0.257,1.884,0.25,2.417
			c0.798,0.433,0.992-1.711,1.251-2.101c0.854-1.284,0.446,1.776,0.499,2.102c0.082,0.01,0.149,0.008,0.231,0
			c0.149-0.689,0.052-2.09,0.743-2.422c0.229,0.508-0.191,2.188,0.378,2.363c-0.027-0.399,0.212-0.731,0.265-1.119
			c0.051-0.377-0.07-0.764,0.071-1.114c0.814-0.174,0.431,1.548,0.5,1.979c0.577,0.272,0.376-1.219,0.489-1.552
			c0.411-1.21,0.472,0.385,0.5,0.873c0.041,0.707,0.522,1.174,0.497,0.256c-0.013-0.432-0.424-1.766,0.493-1.494
			c0.022,0.444-0.197,1.93,0.447,1.929c0.526-0.001,0.299-1.63,0.322-2.054c1.188-0.108-0.127,2.24,1.167,2.104
			c0.297-0.428-0.221-2.123,0.375-2.168c0.212,0.596-0.174,1.701,0.386,2.104c0.927,0.666,0.67-1.344,0.698-1.788
			c1.659-0.782,0.042,1.509,1.065,1.788c1.304,0.355,0.1-2.436,1.102-2.164c0.077,0.684,0.289,1.285,0.333,2.042
			c1.094,0.638,0.112-1.873,0.861-1.867c0.828,0.007-0.255,2.454,0.742,2.18c0.162-0.397-0.186-1.933,0.336-2.102
			c0.585-0.19,0.199,1.72,0.539,1.935c0.021,0.055-0.013,0.122,0.02,0.168c0.947,0.208,0.426-1.244,0.429-1.615
			c0.002-0.243,0.023-0.742,0.411-0.615c0.344,0.113,0.214,0.985,0.214,1.245c0,0.229-0.09,0.692,0.076,0.856
			c0.176,0.172,0.729,0.115,0.862-0.045c0.392-0.465-0.184-1.479,0.072-1.993c1.058-0.284,0.399,1.497,0.675,1.991
			c0.714,1.278,0.671-1.738,0.875-1.942c0.698-0.698,0.426,1.696,0.955,2.053c0.705,0.476,0.69-1.449,1.172-1.87
			c0.263,0.311-0.01,1.729,0.372,1.824c0.664,0.168,0.613-1.55,0.699-1.869c0.081-0.007,0.151-0.01,0.232-0.004
			c0.041,0.248-0.138,2.178,0.434,1.669c0.37-0.329-0.229-1.859,0.504-1.794c0.036,0.341,0.147,0.594,0.134,0.945
			c-0.013,0.328-0.199,0.574-0.115,0.914c0.678,0.16,0.604-1.598,0.992-1.937c0.537,0.483,0.088,1.509,0.321,2.123
			c0.093,0.019,0.197,0.021,0.291,0.005c0.199-0.513,0.042-1.969,0.573-2.188c0.47,0.291,0.237,1.619,0.386,2.12
			c0.763,0.674,0.845-1.692,0.939-2.11c0.485,0.399,0.339,1.566,0.372,2.174c0.56-0.025,0.294-1.811,0.803-2.172
			c0.389,0.465,0.165,1.406,0.198,1.983c0.425,0.288,0.752,0.454,1.101-0.128c0.323-0.541,0.047-1.34,0.453-1.81
			c0.391,0.337-0.112,1.882,0.375,1.999c0.524,0.127,0.306-1.951,0.686-2.246c0.463,0.429-0.202,2.17,0.435,2.324
			c0.775,0.187,0.191-1.823,0.93-1.996c0.014,0.229-0.142,2.139,0.516,1.781c0.503-0.273-0.321-1.643,0.482-1.721
			c0.155,0.406-0.176,1.861,0.323,1.934c0.682,0.098,0.142-1.738,0.441-2.011c0.386,0.427-0.049,1.175,0.607,1.396
			c0.667,0.225,0.268-0.965,0.337-1.442c0.399,0.171,0.253,0.853,0.741,1.062c0.141-0.056,0.106-0.129,0.125-0.256"/>
	</g>
</g>
<g id="Botones">
</g>
<g id="Logo">
</g>
<g id="TXT">
</g>
<g id="Guias">
</g>
</svg>
