<?xml version="1.0" encoding="utf-8"?>
<!-- Generator: Adobe Illustrator 16.0.0, SVG Export Plug-In . SVG Version: 6.00 Build 0)  -->
<!DOCTYPE svg PUBLIC "-//W3C//DTD SVG 1.1//EN" "http://www.w3.org/Graphics/SVG/1.1/DTD/svg11.dtd">
<svg version="1.1" xmlns="http://www.w3.org/2000/svg" xmlns:xlink="http://www.w3.org/1999/xlink" x="0px" y="0px" width="211px"
	 height="39.166px" viewBox="0 0 211 39.166" enable-background="new 0 0 211 39.166" xml:space="preserve">
<g id="IMG" display="none">
</g>
<g id="Soporte">
</g>
<g id="Cintillos">
</g>
<g id="Imagenes">
</g>
<g id="Vectores">
</g>
<g id="Iconos">
	<g>
		<path fill-rule="evenodd" clip-rule="evenodd" fill="#FFFFFF" d="M1.367,21.581c0.959-0.494,1.735-0.813,2.855-0.332
			c2.836,1.219,5.686,2.42,8.596,3.469c2.305,0.83,4.554,1.82,6.806,2.787c0.565,0.242,0.968,0.18,1.484-0.125
			c7.115-4.193,14.256-8.344,21.355-12.563c0.884-0.525,1.521-0.328,2.351,0.166c-2.044,1.201-4.029,2.367-6.017,3.531
			c-5.914,3.471-11.83,6.936-17.74,10.414c-0.399,0.234-0.732,0.383-1.223,0.184c-6.055-2.453-12.119-4.885-18.179-7.326
			C1.577,21.755,1.514,21.687,1.367,21.581z"/>
		<path fill-rule="evenodd" clip-rule="evenodd" fill="#FFFFFF" d="M1.32,27.208c1.138-0.83,2.133-0.709,3.286-0.227
			c5.031,2.098,10.107,4.086,15.152,6.15c0.532,0.217,0.883,0.088,1.315-0.166c6.185-3.639,12.377-7.266,18.567-10.895
			c0.906-0.531,1.872-0.982,2.705-1.611c0.889-0.672,1.621-0.465,2.475,0.105c-6.594,3.857-13.138,7.686-19.681,11.514
			c-1.404,0.822-2.812,1.637-4.21,2.469c-0.313,0.186-0.569,0.309-0.964,0.15C13.793,32.204,7.609,29.729,1.32,27.208z"/>
		<path fill-rule="evenodd" clip-rule="evenodd" fill="#FFFFFF" d="M1.401,18.913c1.434-1.367,2.723-0.359,4.012,0.154
			c4.816,1.918,9.622,3.863,14.426,5.811c0.389,0.158,0.684,0.141,1.06-0.078c7.172-4.223,14.366-8.406,21.519-12.66
			c0.898-0.535,1.544-0.42,2.386,0.131c-2.148,1.264-4.224,2.492-6.305,3.711c-5.749,3.367-11.507,6.721-17.243,10.109
			c-0.597,0.354-1.06,0.447-1.733,0.172c-5.835-2.385-11.688-4.719-17.535-7.072C1.783,19.108,1.59,19.003,1.401,18.913z"/>
		<path fill-rule="evenodd" clip-rule="evenodd" fill="#FFFFFF" d="M1.339,24.452c1.034-0.688,1.977-0.727,3.132-0.242
			c5.052,2.117,10.153,4.115,15.228,6.178c0.489,0.199,0.852,0.17,1.311-0.1c7.06-4.158,14.141-8.279,21.188-12.457
			c0.854-0.506,1.578-0.75,2.436-0.094c0.019,0.307-0.297,0.334-0.493,0.449c-7.333,4.318-14.695,8.592-21.985,12.98
			c-1.326,0.799-2.341,0.822-3.734,0.234C13.05,29.138,7.62,27.021,2.215,24.847C1.924,24.729,1.644,24.589,1.339,24.452z"/>
		<path fill="#FFFFFF" d="M44.756,9.638c-4.375-1.758-8.751-3.51-13.125-5.268c-0.277-0.113-0.524-0.174-0.823-0.055
			c-0.977,0.387-1.975,0.719-2.944,1.125c-4.169,1.744-8.325,3.521-12.498,5.262c-4.572,1.904-9.156,3.781-13.915,5.742
			c2.177,0.826,4.159,1.664,6.17,2.443c4.18,1.619,8.313,3.355,12.46,5.059c0.383,0.156,0.656,0.168,1.046-0.063
			c6.617-3.896,13.268-7.734,19.858-11.676c1.324-0.791,2.888-1.195,4.018-2.369C44.899,9.753,44.837,9.671,44.756,9.638z
			 M23.06,12.687c0.747-0.168,1.491-0.354,2.244-0.496c0.823-0.154,1.654-0.172,2.465,0.086c1.486,0.471,1.646,1.033,0.625,2.225
			c0.183,0.117,0.363,0.232,0.557,0.357c-0.302,0.332-0.672,0.482-1.053,0.363c-0.63-0.201-1.182-0.018-1.765,0.172
			c-1.211,0.395-2.357,0.148-3.683-0.451c0.771-0.357,1.309-0.219,1.837-0.189c0.713,0.043,1.406-0.021,2.04-0.377
			c0.124-0.07,0.283-0.232,0.28-0.348c-0.008-0.258-0.261-0.219-0.441-0.23c-0.651-0.043-1.257,0.195-1.879,0.318
			c-1.334,0.266-2.66,0.387-3.963-0.127c-0.919-0.363-1.105-0.771-0.58-1.564c0.38-0.574-0.349-0.377-0.333-0.672
			c0.426-0.365,0.878-0.492,1.456-0.238c0.427,0.188,0.91,0.053,1.288-0.18c0.854-0.525,1.735-0.244,2.605-0.156
			c0.214,0.021,0.586,0.076,0.527,0.422c-0.038,0.229-0.338,0.27-0.558,0.287c-0.668,0.057-1.338,0.08-2.004,0.146
			c-0.274,0.027-0.568,0.082-0.763,0.387C22.252,12.827,22.647,12.78,23.06,12.687z M24.053,20.614
			c-2.458,1.477-5.06,1.426-7.612,0.555c-2.704-0.922-5.31-2.131-7.957-3.215c-0.364-0.15-1.321-2.092-1.211-2.461
			c0.076-0.254,0.335-0.279,0.527-0.361c2.69-1.152,5.385-2.293,8.205-3.492c-0.695,1.705,0.301,2.6,1.475,3.309
			c3.821,2.307,7.977,2.842,12.428,2.311C27.954,18.374,25.979,19.456,24.053,20.614z M40.687,10.712
			c-0.044,0.301-0.104,0.502-0.406,0.672c-2.416,1.35-4.819,2.725-7.414,4.199c0.679-1.34,0.262-2.246-0.572-3.025
			c-1.584-1.479-3.581-2.021-5.631-2.406c-2.078-0.389-4.169-0.594-6.361-0.15c0.428-0.361,1.284-0.846,1.821-0.961
			c1.925-0.418,3.543-1.576,5.378-2.217c0.665-0.232,1.3-0.408,2.002-0.508c3.209-0.453,5.986,0.834,8.795,2.037
			c0.409,0.174,0.812,0.412,1.24,0.492C40.642,9.054,40.824,9.757,40.687,10.712z"/>
	</g>
</g>
<g id="Botones">
</g>
<g id="Logo">
	<g>
		<path fill="#FFFFFF" d="M83.328,33.88c-0.132-0.133-0.288-0.236-0.469-0.309c-0.181-0.074-0.38-0.109-0.595-0.109
			c-0.114,0-0.231,0.01-0.354,0.029c-0.122,0.02-0.242,0.055-0.36,0.104s-0.229,0.119-0.336,0.205
			c-0.106,0.088-0.199,0.199-0.277,0.332c-0.126-0.209-0.298-0.373-0.514-0.49c-0.217-0.121-0.464-0.18-0.742-0.18
			c-0.094,0-0.19,0.008-0.29,0.025c-0.101,0.018-0.2,0.047-0.298,0.088c-0.1,0.041-0.193,0.098-0.283,0.17s-0.172,0.164-0.244,0.273
			V33.56h-0.79v3.758h0.797v-2.084c0-0.158,0.025-0.301,0.076-0.426c0.05-0.123,0.118-0.227,0.203-0.311
			c0.084-0.084,0.184-0.146,0.298-0.191c0.113-0.041,0.235-0.064,0.364-0.064c0.269,0,0.476,0.086,0.625,0.256
			c0.147,0.17,0.222,0.412,0.222,0.729v2.092h0.797v-2.084c0-0.158,0.024-0.301,0.076-0.426c0.05-0.123,0.118-0.227,0.202-0.311
			c0.085-0.084,0.185-0.146,0.298-0.191c0.114-0.041,0.236-0.064,0.364-0.064c0.269,0,0.477,0.086,0.625,0.256
			c0.147,0.17,0.222,0.412,0.222,0.729v2.092h0.797v-2.361c0-0.221-0.036-0.42-0.108-0.604
			C83.562,34.169,83.459,34.011,83.328,33.88"/>
		<path fill="#FFFFFF" d="M87.53,34.015c-0.131-0.168-0.293-0.301-0.486-0.402s-0.425-0.15-0.694-0.15
			c-0.264,0-0.509,0.049-0.736,0.146s-0.427,0.234-0.596,0.41c-0.17,0.176-0.304,0.385-0.4,0.625
			c-0.097,0.242-0.146,0.508-0.146,0.793c0,0.289,0.049,0.553,0.146,0.795s0.23,0.451,0.4,0.625c0.169,0.176,0.368,0.313,0.596,0.41
			s0.473,0.146,0.736,0.146c0.27,0,0.501-0.049,0.694-0.148s0.355-0.232,0.486-0.398v0.451h0.82V33.56h-0.82V34.015z M87.5,35.915
			c-0.056,0.148-0.133,0.273-0.232,0.383c-0.099,0.107-0.218,0.189-0.356,0.252c-0.14,0.061-0.293,0.092-0.463,0.092
			c-0.177,0-0.337-0.031-0.477-0.096s-0.258-0.15-0.355-0.26c-0.096-0.107-0.171-0.234-0.223-0.381
			c-0.053-0.146-0.078-0.303-0.078-0.469c0-0.164,0.025-0.318,0.078-0.465c0.052-0.146,0.127-0.273,0.223-0.383
			c0.098-0.109,0.216-0.195,0.355-0.26c0.14-0.063,0.3-0.096,0.477-0.096c0.17,0,0.323,0.031,0.463,0.094
			c0.139,0.061,0.258,0.145,0.356,0.252c0.1,0.107,0.177,0.234,0.232,0.379c0.054,0.148,0.082,0.307,0.082,0.479
			C87.582,35.61,87.554,35.771,87.5,35.915"/>
		<path fill="#FFFFFF" d="M92.118,35.433c-0.23-0.18-0.551-0.299-0.962-0.359l-0.388-0.059c-0.086-0.014-0.167-0.027-0.243-0.045
			s-0.141-0.041-0.196-0.07c-0.055-0.027-0.099-0.064-0.132-0.107c-0.032-0.045-0.049-0.102-0.049-0.166
			c0-0.133,0.063-0.242,0.187-0.324s0.299-0.123,0.523-0.123c0.118,0,0.233,0.012,0.348,0.031c0.113,0.021,0.221,0.047,0.322,0.078
			c0.103,0.031,0.195,0.068,0.279,0.105s0.153,0.072,0.212,0.107l0.353-0.639c-0.195-0.127-0.425-0.225-0.686-0.293
			c-0.262-0.068-0.54-0.104-0.836-0.104c-0.24,0-0.456,0.027-0.646,0.084c-0.191,0.057-0.354,0.137-0.489,0.24
			c-0.135,0.104-0.237,0.229-0.309,0.377c-0.072,0.148-0.108,0.316-0.108,0.502c0,0.303,0.108,0.549,0.324,0.736
			c0.215,0.186,0.532,0.309,0.95,0.365l0.392,0.053c0.226,0.031,0.39,0.08,0.495,0.15c0.104,0.068,0.156,0.156,0.156,0.264
			c0,0.141-0.072,0.252-0.215,0.336c-0.146,0.082-0.356,0.123-0.64,0.123c-0.154,0-0.292-0.01-0.414-0.031
			c-0.121-0.021-0.232-0.049-0.333-0.084c-0.102-0.035-0.191-0.076-0.271-0.121c-0.08-0.047-0.153-0.096-0.222-0.146l-0.38,0.615
			c0.136,0.102,0.277,0.184,0.427,0.246s0.295,0.113,0.439,0.146c0.144,0.035,0.279,0.059,0.408,0.072
			c0.128,0.012,0.24,0.016,0.336,0.016c0.27,0,0.512-0.029,0.725-0.09c0.213-0.059,0.392-0.145,0.537-0.252s0.256-0.238,0.332-0.389
			c0.078-0.15,0.117-0.316,0.117-0.496C92.463,35.862,92.348,35.612,92.118,35.433"/>
		<path fill="#FFFFFF" d="M99.79,34.009c-0.155-0.174-0.342-0.309-0.561-0.404c-0.218-0.096-0.457-0.143-0.719-0.143
			c-0.277,0-0.53,0.047-0.76,0.143c-0.229,0.096-0.425,0.23-0.59,0.404c-0.165,0.172-0.293,0.381-0.384,0.625
			c-0.092,0.244-0.138,0.512-0.138,0.803c0,0.299,0.047,0.57,0.142,0.813c0.094,0.244,0.227,0.451,0.396,0.623
			c0.171,0.174,0.372,0.307,0.609,0.4c0.234,0.094,0.493,0.141,0.775,0.141c0.285,0,0.557-0.037,0.813-0.117
			c0.258-0.078,0.501-0.215,0.73-0.41l-0.406-0.584c-0.158,0.123-0.331,0.221-0.521,0.291c-0.189,0.068-0.378,0.104-0.566,0.104
			c-0.134,0-0.262-0.018-0.384-0.055c-0.123-0.037-0.234-0.094-0.334-0.17c-0.099-0.078-0.184-0.176-0.255-0.297
			c-0.07-0.121-0.119-0.266-0.146-0.436h2.776c0.006-0.047,0.01-0.096,0.013-0.148c0.002-0.053,0.004-0.105,0.004-0.156
			c0-0.293-0.045-0.561-0.132-0.803S99.946,34.181,99.79,34.009 M97.499,35.116c0.021-0.137,0.057-0.262,0.109-0.373
			c0.053-0.115,0.12-0.213,0.202-0.295s0.181-0.146,0.293-0.191c0.114-0.045,0.245-0.066,0.392-0.066
			c0.262,0,0.474,0.08,0.638,0.242c0.165,0.164,0.27,0.391,0.314,0.684H97.499z"/>
		<path fill="#FFFFFF" d="M110.679,34.015c-0.131-0.168-0.293-0.301-0.486-0.402c-0.192-0.102-0.425-0.15-0.694-0.15
			c-0.263,0-0.51,0.049-0.737,0.146c-0.227,0.098-0.426,0.234-0.596,0.41c-0.169,0.176-0.303,0.385-0.399,0.625
			c-0.097,0.242-0.146,0.508-0.146,0.793c0,0.289,0.049,0.553,0.146,0.795s0.23,0.451,0.399,0.625
			c0.17,0.176,0.369,0.313,0.596,0.41c0.228,0.098,0.475,0.146,0.737,0.146c0.27,0,0.502-0.049,0.694-0.148
			c0.193-0.1,0.355-0.232,0.486-0.398v0.451h0.819V33.56h-0.819V34.015z M110.647,35.915c-0.055,0.148-0.132,0.273-0.231,0.383
			c-0.1,0.107-0.219,0.189-0.356,0.252c-0.139,0.061-0.294,0.092-0.463,0.092c-0.178,0-0.337-0.031-0.477-0.096
			s-0.258-0.15-0.354-0.26c-0.097-0.107-0.172-0.234-0.224-0.381s-0.079-0.303-0.079-0.469c0-0.164,0.027-0.318,0.079-0.465
			s0.127-0.273,0.224-0.383s0.215-0.195,0.354-0.26c0.14-0.063,0.299-0.096,0.477-0.096c0.169,0,0.324,0.031,0.463,0.094
			c0.138,0.061,0.257,0.145,0.356,0.252s0.177,0.234,0.231,0.379c0.056,0.148,0.083,0.307,0.083,0.479
			C110.73,35.61,110.703,35.771,110.647,35.915"/>
		<path fill="#FFFFFF" d="M95.632,36.567c-0.133,0.049-0.263,0.074-0.39,0.074c-0.085,0-0.161-0.012-0.234-0.041
			c-0.072-0.025-0.135-0.064-0.188-0.121c-0.053-0.057-0.097-0.131-0.127-0.219c-0.031-0.088-0.047-0.195-0.047-0.32v-1.637h1.316
			V33.56h-1.316v-1.137h-0.823v1.137h-0.749v0.744h0.749v1.652c0,0.498,0.118,0.867,0.354,1.104s0.568,0.354,0.994,0.354
			c0.238,0,0.451-0.035,0.642-0.109c0.124-0.047,0.241-0.104,0.35-0.164l-0.28-0.688C95.802,36.497,95.72,36.534,95.632,36.567"/>
		<path fill="#FFFFFF" d="M103.03,33.462c-0.229,0-0.438,0.041-0.623,0.125s-0.342,0.285-0.467,0.465V33.56h-0.744v3.758h0.752
			v-2.068c0-0.158,0.022-0.301,0.066-0.428c0.045-0.125,0.106-0.23,0.185-0.316s0.172-0.152,0.282-0.197
			c0.109-0.043,0.229-0.066,0.36-0.066c0.101,0,0.207,0.012,0.322,0.037c0.059,0.01,0.113,0.025,0.165,0.043l0.242-0.785
			c-0.066-0.02-0.133-0.037-0.201-0.049C103.27,33.47,103.155,33.462,103.03,33.462"/>
		<path fill="#FFFFFF" d="M114.423,33.462c-0.23,0-0.438,0.041-0.623,0.125s-0.342,0.285-0.467,0.465V33.56h-0.744v3.758h0.752
			v-2.068c0-0.158,0.022-0.301,0.066-0.428c0.045-0.125,0.106-0.23,0.185-0.316s0.172-0.152,0.282-0.197
			c0.109-0.043,0.229-0.066,0.36-0.066c0.101,0,0.207,0.012,0.322,0.037c0.059,0.01,0.112,0.025,0.165,0.043l0.241-0.785
			c-0.065-0.02-0.132-0.037-0.2-0.049C114.661,33.47,114.549,33.462,114.423,33.462"/>
		<path fill="#FFFFFF" d="M118.251,32.032v1.982c-0.131-0.168-0.294-0.301-0.486-0.402c-0.193-0.102-0.425-0.15-0.693-0.15
			c-0.265,0-0.511,0.049-0.738,0.146c-0.227,0.098-0.426,0.234-0.596,0.41s-0.304,0.385-0.399,0.625
			c-0.098,0.242-0.146,0.508-0.146,0.793c0,0.289,0.048,0.553,0.146,0.795c0.096,0.242,0.229,0.451,0.399,0.625
			c0.17,0.176,0.369,0.313,0.596,0.41c0.228,0.098,0.474,0.146,0.738,0.146c0.269,0,0.5-0.049,0.693-0.148
			c0.192-0.1,0.355-0.232,0.486-0.398v0.451h0.819v-5.285H118.251z M118.22,35.915c-0.055,0.148-0.132,0.273-0.231,0.383
			c-0.1,0.107-0.218,0.189-0.357,0.252c-0.138,0.061-0.292,0.092-0.463,0.092c-0.177,0-0.336-0.031-0.476-0.096
			s-0.259-0.15-0.354-0.26c-0.098-0.107-0.172-0.234-0.224-0.381c-0.053-0.146-0.079-0.303-0.079-0.469
			c0-0.164,0.026-0.318,0.079-0.465c0.052-0.146,0.126-0.273,0.224-0.383c0.096-0.109,0.215-0.195,0.354-0.26
			c0.14-0.063,0.299-0.096,0.476-0.096c0.171,0,0.325,0.031,0.463,0.094c0.14,0.061,0.258,0.145,0.357,0.252
			s0.177,0.234,0.231,0.379c0.055,0.148,0.082,0.307,0.082,0.479C118.302,35.61,118.274,35.771,118.22,35.915"/>
		<path fill="#FFFFFF" d="M104.992,34.569c0.104-0.105,0.229-0.189,0.372-0.248c0.144-0.057,0.3-0.088,0.467-0.088
			c0.184,0,0.355,0.029,0.514,0.088c0.152,0.057,0.285,0.137,0.398,0.238l0.394-0.656c-0.148-0.119-0.315-0.217-0.5-0.291
			c-0.247-0.102-0.516-0.15-0.806-0.15s-0.559,0.049-0.806,0.15s-0.461,0.238-0.64,0.416s-0.318,0.385-0.421,0.625
			s-0.153,0.502-0.153,0.783c0,0.283,0.051,0.545,0.153,0.785s0.242,0.449,0.421,0.625c0.179,0.178,0.393,0.316,0.64,0.416
			c0.247,0.102,0.516,0.15,0.806,0.15s0.559-0.049,0.806-0.15c0.185-0.076,0.352-0.172,0.5-0.291l-0.394-0.654
			c-0.113,0.1-0.246,0.18-0.398,0.236c-0.158,0.059-0.33,0.088-0.514,0.088c-0.167,0-0.323-0.029-0.467-0.088
			s-0.268-0.143-0.372-0.248s-0.188-0.232-0.248-0.379c-0.06-0.148-0.09-0.313-0.09-0.49c0-0.176,0.03-0.338,0.09-0.486
			C104.805,34.802,104.888,34.675,104.992,34.569"/>
		<path fill="#FFFFFF" d="M120.798,36.767c0.054,0,0.105,0.01,0.152,0.029c0.048,0.02,0.09,0.047,0.125,0.082
			s0.063,0.076,0.084,0.121c0.021,0.047,0.031,0.096,0.031,0.15c0,0.051-0.01,0.102-0.031,0.148
			c-0.021,0.047-0.049,0.086-0.084,0.121s-0.077,0.063-0.125,0.082c-0.047,0.021-0.099,0.031-0.152,0.031
			c-0.057,0-0.108-0.01-0.157-0.031c-0.049-0.02-0.09-0.047-0.126-0.082c-0.035-0.035-0.063-0.074-0.083-0.121
			s-0.03-0.098-0.03-0.148c0-0.055,0.01-0.104,0.03-0.15c0.021-0.045,0.048-0.086,0.083-0.121c0.036-0.035,0.077-0.063,0.126-0.082
			S120.741,36.767,120.798,36.767 M120.798,37.427c0.037,0,0.072-0.008,0.106-0.023c0.034-0.014,0.063-0.033,0.087-0.059
			c0.025-0.025,0.045-0.055,0.059-0.088c0.016-0.033,0.021-0.07,0.021-0.107c0-0.039-0.006-0.074-0.021-0.109
			c-0.014-0.033-0.033-0.063-0.059-0.086c-0.024-0.025-0.053-0.045-0.087-0.061c-0.034-0.014-0.069-0.021-0.106-0.021
			c-0.04,0-0.076,0.008-0.11,0.021c-0.034,0.016-0.063,0.035-0.088,0.061c-0.026,0.023-0.045,0.053-0.059,0.086
			c-0.015,0.035-0.022,0.07-0.022,0.109c0,0.037,0.008,0.074,0.022,0.107c0.014,0.033,0.032,0.063,0.059,0.088
			c0.024,0.025,0.054,0.045,0.088,0.059C120.722,37.419,120.758,37.427,120.798,37.427 M120.819,36.979
			c0.047,0,0.082,0.01,0.106,0.031c0.023,0.02,0.036,0.049,0.036,0.082c0,0.027-0.009,0.049-0.026,0.068
			c-0.018,0.018-0.042,0.029-0.076,0.035l0.106,0.123h-0.114l-0.095-0.119h-0.011v0.119h-0.096v-0.34H120.819z M120.746,37.062
			v0.063h0.071c0.015,0,0.026-0.002,0.034-0.006c0.007-0.006,0.012-0.014,0.012-0.025s-0.005-0.018-0.012-0.023
			c-0.008-0.004-0.02-0.008-0.034-0.008H120.746z"/>
		<path fill="#EC2026" d="M93.021,15.999c0-4.5,2.104-8.506,5.377-11.1c-2.414-1.912-5.464-3.057-8.781-3.057
			c-7.819,0-14.158,6.338-14.158,14.156c0,7.82,6.339,14.158,14.158,14.158c3.317,0,6.367-1.145,8.781-3.057
			C95.124,24.507,93.021,20.499,93.021,15.999"/>
		<path fill="#F16A21" d="M93.021,15.999c0,4.5,2.104,8.508,5.377,11.102c3.273-2.594,5.376-6.602,5.376-11.102
			s-2.103-8.506-5.376-11.1C95.124,7.493,93.021,11.499,93.021,15.999"/>
		<path fill="#F89E1D" d="M120.377,23.657v-0.414h-0.168V23.13h0.459v0.113H120.5v0.414H120.377z M121.264,23.657v-0.365
			l-0.119,0.314h-0.131l-0.118-0.314v0.365h-0.125V23.13h0.178l0.131,0.338l0.131-0.338h0.178v0.527H121.264z"/>
		<path fill="#F89E1D" d="M107.179,1.843c-3.318,0-6.367,1.145-8.781,3.057c3.273,2.594,5.376,6.6,5.376,11.1
			s-2.103,8.508-5.376,11.102c2.414,1.912,5.463,3.057,8.781,3.057c7.818,0,14.158-6.338,14.158-14.158
			C121.337,8.181,114.997,1.843,107.179,1.843"/>
	</g>
	<g>
		<polygon fill-rule="evenodd" clip-rule="evenodd" fill="#00579F" points="171.058,29.048 174.076,10.39 178.9,10.39 
			175.882,29.048 171.058,29.048 		"/>
		<path fill-rule="evenodd" clip-rule="evenodd" fill="#00579F" d="M193.373,10.845c-0.953-0.377-2.463-0.795-4.328-0.795
			c-4.764,0-8.12,2.541-8.14,6.176c-0.04,2.678,2.401,4.168,4.229,5.061c1.866,0.912,2.5,1.508,2.5,2.324
			c-0.018,1.25-1.507,1.824-2.897,1.824c-1.924,0-2.958-0.297-4.524-0.992l-0.637-0.297l-0.675,4.188
			c1.132,0.516,3.216,0.973,5.381,0.992c5.063,0,8.355-2.502,8.397-6.371c0.02-2.125-1.271-3.754-4.051-5.082
			c-1.688-0.854-2.721-1.43-2.721-2.303c0.02-0.795,0.874-1.607,2.779-1.607c1.57-0.041,2.721,0.336,3.595,0.713l0.437,0.199
			L193.373,10.845L193.373,10.845z"/>
		<path fill-rule="evenodd" clip-rule="evenodd" fill="#00579F" d="M199.785,22.437c0.397-1.07,1.926-5.221,1.926-5.221
			c-0.02,0.041,0.397-1.092,0.636-1.785l0.339,1.607c0,0,0.911,4.465,1.11,5.398C203.04,22.437,200.738,22.437,199.785,22.437
			L199.785,22.437z M205.742,10.39h-3.733c-1.15,0-2.024,0.336-2.521,1.547l-7.166,17.111h5.063c0,0,0.833-2.303,1.012-2.799
			c0.557,0,5.479,0,6.193,0c0.141,0.654,0.575,2.799,0.575,2.799h4.469L205.742,10.39L205.742,10.39z"/>
		<path fill-rule="evenodd" clip-rule="evenodd" fill="#00579F" d="M167.028,10.39l-4.724,12.723l-0.518-2.582
			c-0.873-2.977-3.613-6.211-6.671-7.82l4.329,16.318h5.102l7.582-18.639H167.028L167.028,10.39z"/>
		<path fill-rule="evenodd" clip-rule="evenodd" fill="#FAA61A" d="M157.915,10.39h-7.762l-0.079,0.375
			c6.054,1.549,10.064,5.281,11.713,9.766l-1.688-8.574C159.82,10.765,158.968,10.427,157.915,10.39L157.915,10.39z"/>
	</g>
</g>
<g id="TXT">
</g>
<g id="Guias">
</g>
</svg>
