<?xml version="1.0" encoding="utf-8"?>
<!-- Generator: Adobe Illustrator 16.0.0, SVG Export Plug-In . SVG Version: 6.00 Build 0)  -->
<!DOCTYPE svg PUBLIC "-//W3C//DTD SVG 1.1//EN" "http://www.w3.org/Graphics/SVG/1.1/DTD/svg11.dtd">
<svg version="1.1" xmlns="http://www.w3.org/2000/svg" xmlns:xlink="http://www.w3.org/1999/xlink" x="0px" y="0px"
	 width="33.875px" height="34.938px" viewBox="0 0 33.875 34.938" enable-background="new 0 0 33.875 34.938" xml:space="preserve">
<g id="IMG" display="none">
</g>
<g id="Soporte">
</g>
<g id="Cintillos">
</g>
<g id="Imagenes">
</g>
<g id="Vectores">
</g>
<g id="Iconos">
	<g>
		<path fill="#FFFFFF" d="M24.304,30.281H12.556c-4.496,0-8.175-3.678-8.175-8.174V9.588c0-4.494,3.679-8.172,8.175-8.172h11.748
			c4.496,0,8.174,3.678,8.174,8.172v12.52C32.478,26.604,28.8,30.281,24.304,30.281 M24.304,28.123c1.598,0,3.105-0.627,4.246-1.77
			c1.141-1.141,1.768-2.648,1.768-4.246V9.588c0-1.596-0.627-3.104-1.768-4.246c-1.141-1.139-2.648-1.768-4.246-1.768H12.556
			c-1.6,0-3.107,0.629-4.248,1.768c-1.139,1.143-1.766,2.65-1.766,4.246v12.52c0,1.598,0.627,3.105,1.766,4.246
			c1.141,1.143,2.648,1.77,4.248,1.77H24.304z"/>
		<path fill="none" stroke="#FFFFFF" stroke-miterlimit="10" d="M29.894,25.191c0,4.496-3.754,8.174-8.344,8.174 M21.55,33.365
			H9.558c-4.589,0-8.344-3.678-8.344-8.174v-12.52C1.214,8.178,3.781,4.5,8.37,4.5"/>
		<path fill="#FFFFFF" d="M26.21,15.738c0,4.271-3.464,7.736-7.736,7.736c-4.274,0-7.737-3.465-7.737-7.736
			c0-4.273,3.463-7.738,7.737-7.738C22.746,8,26.21,11.465,26.21,15.738 M18.437,10.676c-2.799,0-5.067,2.27-5.067,5.068
			c0,2.797,2.269,5.066,5.067,5.066c2.798,0,5.066-2.27,5.066-5.066C23.503,12.945,21.234,10.676,18.437,10.676"/>
		<path fill="#FFFFFF" d="M28.166,7.881c0,1.01-0.821,1.832-1.833,1.832c-1.011,0-1.83-0.822-1.83-1.832
			c0-1.012,0.819-1.834,1.83-1.834C27.345,6.047,28.166,6.869,28.166,7.881"/>
		<path fill="none" stroke="#FFFFFF" stroke-width="0.75" stroke-linejoin="round" stroke-miterlimit="10" d="M4.502,5.033
			C4.925,5.256,5.586,5.51,5.658,6.021C5.219,6.045,3.005,5.744,3.27,6.619c0.146,0.484,1.547,0.5,1.911,0.83
			C4.697,7.725,2.036,7.441,2.517,8.352C3.102,8.57,4.034,8.57,4.571,8.965c0.156,0.979-2.53,0.734-2.985,1.383
			c-0.621,0.887,0.277,0.779,0.935,0.705c0.707-0.082,1.395-0.207,2.136-0.174c0.249,1.602-2.846,1.234-3.58,2.154
			c0.848,1,3.818-0.605,3.678,0.83c-0.139,1.41-4.021,0.334-3.756,2.004c0.22,1.377,3.219-1.074,3.825,0.416
			c0.393,0.967-3.017,1-3.636,2c-0.818,1.322,2.747,0.184,3.302,0.264c0.289,1.242-1.755,1.557-2.491,2.148
			c-0.221,0.178-1.039,0.848-0.816,1.238c0.355,0.621,1.509-0.158,1.841-0.316c0.982-0.469,2.872-0.496,1.427,0.83
			c-0.92,0.844-2.363,1.432-3.266,2.1c-0.025,0.131-0.018,0.26-0.002,0.391c1.361,0.445,1.749-0.385,2.987-0.922
			c0.614-0.268,1.255-0.432,1.064,0.52c-0.158,0.789-1.102,1.172-1.715,1.518c-0.273,0.152-1.579,0.777-1.61,1.143
			c-0.043,0.523,0.773,0.832,1.18,0.758c1.189-0.217,1.404-2.105,2.899-2.074c0.715,1.822-2.554,2.039-2.318,3.82
			c0.056,0.42,0.254,0.756,0.767,0.674c0.635-0.102,0.69-0.943,0.9-1.426c0.4-0.918,1.076-1.664,2.088-1.82
			c0.457,0.77-0.182,1.416-0.648,2.014c-0.469,0.602-0.604,1.029-0.771,1.801c-0.07,0.328-0.346,1.42,0.353,1.01
			c0.241-0.141,0.353-1.01,0.583-1.316c0.35-0.465,2.016-2.465,2.4-1.852c0.477,0.76-0.89,2.902-0.908,3.82
			c1.99,0.314,1.27-1.742,1.802-2.824c0.543-1.105,0.926-0.148,0.936,0.742c0.009,0.746-0.029,1.506,0.015,2.248
			c1.348,0.723,0.435-2.637,1-3.305c1.595-0.441,0.483,2.434,0.581,3.137c0.277,0.104,0.56,0.191,0.823,0.256
			c0.252-0.662,0.092-1.816-0.076-2.496c0.251-0.24,0.459-0.49,0.811-0.592c0.009-0.047,0.019-0.092,0.027-0.139
			c0.039,0.004,0.188,0.006,0.224-0.002c-0.039,0.752,0.37,3.256,1.417,3.146c0.083-0.672,0.149-1.439,0.262-2.16
			c0.114-0.729,0.823-1.576,1.169-0.414c0.207,0.697-0.45,1.482-0.169,2.166c0.395,0.959,0.962,0.201,1-0.582
			c0.019-0.377-0.266-2.287,0.419-2.17c0.573,0.098,0.303,1.551,0.417,1.998c0.199,0.785,1.033,1.398,1.333,0.314
			c0.23-0.832-0.491-1.799,0.229-2.41c2.106-1.789,1.191,2.766,1.581,3.035c1.046,0.725,0.81-1.105,0.748-1.516
			c-0.09-0.598-0.378-1.658,0.689-1.342c1.072,0.318,0.24,1.354,0.583,2.004c0.363,0.689,0.975,0.309,1-0.416
			c0.012-0.332-0.777-1.895,0.148-1.656c0.648,0.166,0.084,1.584,0.923,1.543c0.028-0.322-0.271-1.721,0.029-1.869
			c0.439-0.217,0.429,0.451,0.646,0.553c0.272,0.127,0.612,0.127,0.908,0.084c-0.003-0.219,0.142-0.242,0.18-0.404"/>
	</g>
</g>
<g id="Botones">
</g>
<g id="Logo">
</g>
<g id="TXT">
</g>
<g id="Guias">
</g>
</svg>
