<?xml version="1.0" encoding="utf-8"?>
<!-- Generator: Adobe Illustrator 16.0.0, SVG Export Plug-In . SVG Version: 6.00 Build 0)  -->
<!DOCTYPE svg PUBLIC "-//W3C//DTD SVG 1.1//EN" "http://www.w3.org/Graphics/SVG/1.1/DTD/svg11.dtd">
<svg version="1.1" xmlns="http://www.w3.org/2000/svg" xmlns:xlink="http://www.w3.org/1999/xlink" x="0px" y="0px"
	 width="71.499px" height="70.334px" viewBox="0 0 71.499 70.334" enable-background="new 0 0 71.499 70.334" xml:space="preserve">
<g id="IMG" display="none">
</g>
<g id="Soporte">
</g>
<g id="Cintillos">
</g>
<g id="Imagenes">
</g>
<g id="Vectores">
</g>
<g id="Iconos">
	<g>
		<polygon fill="none" stroke="#F7931E" stroke-miterlimit="10" points="6.999,2.068 6.999,65.068 35.999,51.193 35.999,12.068 		
			"/>
		<line fill="none" stroke="#F7931E" stroke-miterlimit="10" x1="11.333" y1="15.069" x2="34.166" y2="19.236"/>
		<line fill="none" stroke="#F7931E" stroke-miterlimit="10" x1="11.666" y1="32.402" x2="33.499" y2="31.568"/>
		<line fill="none" stroke="#F7931E" stroke-miterlimit="10" x1="11.666" y1="48.236" x2="33.499" y2="42.568"/>
		<polygon fill="none" stroke="#F7931E" stroke-miterlimit="10" points="66.999,2.068 66.999,65.068 37.999,51.193 37.999,12.068 		
			"/>
		<line fill="none" stroke="#F7931E" stroke-miterlimit="10" x1="62.665" y1="15.069" x2="39.832" y2="19.236"/>
		<line fill="none" stroke="#F7931E" stroke-miterlimit="10" x1="62.332" y1="32.402" x2="40.499" y2="31.568"/>
		<line fill="none" stroke="#F7931E" stroke-miterlimit="10" x1="62.332" y1="48.236" x2="40.499" y2="42.568"/>
		<polyline fill="none" stroke="#F7931E" stroke-width="0.5" stroke-miterlimit="10" points="6.904,1.784 3.999,4.902 3.999,69.068 
			32.583,54.818 35.999,51.193 		"/>
		<path fill="none" stroke="#F7931E" stroke-width="0.5" stroke-miterlimit="10" d="M5.749,3.151
			c0.344,0.015,0.641,0.113,0.91,0.353C6.2,3.738,5.575,3.743,5.009,3.748c0.172,0.579,1.08,0.386,1.564,0.675
			c-0.41,0.731-1.705,0.32-2.336,0.813c0.561,0.552,1.499,0.39,2.249,0.429c0.03,0.122,0.026,0.271,0,0.393
			C5.796,6.265,5.01,6.175,4.343,6.418c0.236,0.774,1.69,0.3,2.309,0.665c0.288,1.132-2.229,0.028-2.32,0.983
			c-0.068,0.712,1.996,0.311,2.486,0.6c0.065,0.949-1.944,0.467-2.42,0.984c-0.68,0.739,1.636,0.456,2.173,0.68
			c0.124,0.735-0.55,0.729-1.092,0.821c-0.728,0.123-0.841,0.047-1.241,0.669c0.557,0.555,1.604,0.032,2.332,0.094
			c0.014,0.321,0.015,0.654,0,0.975c-0.75,0.193-1.439,0.102-2.056,0.61c0.05,0.598,2.827-0.004,2.134,0.972
			c-0.486,0.682-2.506-0.098-2.469,1.252c0.727,0.057,1.376-0.432,2.07-0.237c0.78,0.218,0.381,0.754-0.334,0.981
			c-0.604,0.191-1.47-0.238-1.914,0.269c-0.676,0.772,0.435,0.667,0.998,0.666c0.354,0,1.627-0.196,1.82,0.186
			c0.41,0.812-1.268,0.517-1.588,0.563c-0.59,0.083-1.475,0.467-0.482,0.757c0.471,0.137,1.365-0.104,1.904-0.075
			c0.042,0.14,0.041,0.417-0.002,0.556c-0.646,0.262-2.897-0.115-2.723,1.086c0.713,0.031,3.098-0.701,2.808,0.75
			c-0.62,0.153-2.696-0.274-2.642,0.666c0.495,0.025,3.074-0.132,2.908,0.601c-0.104,0.458-2.447,0.944-2.914,1.269
			c0.611,0.359,1.297,0.065,1.994,0.228c1.138,0.265,0.271,0.631-0.418,0.833c-0.559,0.164-2.164,0.354-1.164,0.895
			c0.828,0.447,1.546-0.336,2.318-0.132c0.207,1.438-1.948,1.364-2.891,1.666c0.004,0.046,0.005,0.181,0,0.226
			c0.812,0.259,1.814-0.014,2.64,0.193c1.38,1.285-1.524,1.26-1.902,1.483c-0.682,0.403-0.353,0.657,0.171,0.831
			c0.611,0.204,1.061-0.127,1.649-0.149c0.149,1.825-1.538,0.528-2.136,1.673c-0.651,1.248,1.958,0.611,2.553,0.66
			c0.1,0.336-0.049,0.675-0.271,0.893c-0.606,0.125-2.739,0.117-2.538,1.164c0.828,0.294,1.507-0.25,2.309-0.14
			c0.179,1.727-2.064,0.589-2.395,2.136c0.926,0.675,1.936-0.042,2.896,0.114c0.092,1.273-2.7,0.613-2.561,2.058
			c0.936,0.191,2.017-0.682,2.154,0.347c0.162,1.211-1.521,1.117-2.237,1.681c-0.009,0.104,0.001,0.203,0.002,0.305
			c0.893,0.337,1.798-0.139,2.64-0.223c0.281,1.704-2.153,1.133-2.644,2.389c0.598,0.032,2.744-0.647,2.392,0.5
			c-0.646,0.299-2.414,0.559-2.473,1.252c0.906,0.143,1.639-0.599,2.475-0.475c0.295,1.794-2.174,0.332-2.392,1.809
			c0.837,0.04,1.794-0.06,2.577-0.336c0.668,1.248-2.206,1.604-2.809,2.184c1.012,0.351,1.99-0.26,2.956-0.156
			c-0.196,0.899-0.44,0.936-1.321,1.071c-0.726,0.111-1.781,0.352-1.82,1.237c0.877,0.128,1.785-0.646,2.575-0.391
			c0.278,0.091,0.689,0.485,0.59,0.821c-0.15,0.508-0.985,0.345-1.345,0.411c-0.638,0.116-2.305,0.811-1.166,1.254
			c0.83,0.323,1.538-0.575,2.238-0.322c0.344,1.687-2.059,0.778-2.803,1.676c-1.08,1.303,2.046,0.46,2.398,0.563
			c0.656,0.193,0.48,0.688-0.082,0.977c-0.605,0.31-1.88-0.245-2.344,0.377c-0.904,1.213,2.455,0.527,2.91,0.321
			c0.301,1.038-0.758,0.812-1.402,0.908c-0.791,0.118-1.233,0.329-1.824,0.912c0.394,1.013,2.537,0.102,3.229-0.066
			c0.272,1.566-2.439,1.182-2.996,2.487c0.972,0.812,1.999-0.525,2.995-0.487c0.273,1.439-2.461,0.462-2.716,1.825
			c-0.197,1.057,2.231-0.424,2.716-0.325c0.199,0.801-1.053,1.032-1.64,1.168c-0.164,0.219-0.188,0.21-0.417,0.334
			c-0.186,0.29-0.467,0.461-0.5,0.807c0.886,0.129,1.675-0.445,2.488-0.646c0.465,0.896-2.852,1.068-2.906,2.145
			c1.391,0.477,2.089-0.502,3.223-0.642c-0.004,0.312-0.117,0.55-0.249,0.808c-0.919,0.571-2.641,1.141-2.724,2.336
			c1.539,0.267,1.313-1.675,2.578-1.853c-0.149,0.407-2.998,2.7-1.676,3.117c0.553,0.174,0.919-1.26,1.082-1.584
			c0.366-0.73,0.918-1.045,1.34-1.722c-0.027,0.31-1.007,2.755-0.02,1.887c0.576-0.507,0.289-1.671,0.772-2.26
			c-0.017,0.416-0.181,1.363-0.077,1.914c0.662-0.063,0.427-0.904,0.488-1.404c0.094-0.765,0.242-0.865,0.982-1.158
			c0.042,0.412-1.504,2.555-0.33,2.313c0.423-0.785,0.36-1.766,0.694-2.64c0.027,0.007,0.19,0.001,0.224-0.002
			c0.047,0.38-0.35,2.446,0.434,1.568c0.466-0.522-0.113-1.568,0.328-2.095c0.09,0.227-0.096,2.468,0.648,2.082
			c0.311-0.161,0.096-2.105,0.116-2.47c0.041-0.034,0.087-0.058,0.139-0.071c0.034,0.623-0.065,1.861,0.835,1.879
			c0.04-0.818-0.021-1.658,0.027-2.475c0.126-0.054,0.194-0.08,0.322-0.088c0.31,0.778-0.008,1.33,0.579,2.001
			c0.288-0.515-0.142-2.165,0.485-2.336c-0.043,0.606,0.205,1.234,0.596,1.668c0.486-0.455-0.104-2.049,0.652-2.337
			c0.045,0.689-0.163,1.61,0.669,1.816c0.049-0.813-0.252-2.112,0.415-2.647c0.037,0.569-0.232,2.337,0.754,2.062
			c0.043-0.759-0.445-1.626,0.1-2.293c-0.011,0.7-0.214,1.893,0.646,1.965c0.048-0.662-0.31-1.769,0.184-2.256
			c0.126,0.304,0.073,0.782,0.099,1.166c0.165,0.172,0.417,0.298,0.64,0.335c0.032-0.603-0.144-1.465,0.241-1.896
			c0.314,0.717-0.139,1.345,0.754,1.732c0.063-0.936-0.035-1.589,0.689-2.209c-0.014,0.564-0.021,1.143,0.006,1.703
			c0.104,0.078,0.282,0.156,0.391,0.171c0.055-0.965-0.125-1.783,0.583-2.482c0.026,0.448-0.166,1.437,0.253,1.569
			c0.043-0.757,0.039-1.348,0.495-1.97c0.032,0.512-0.142,1.363,0.419,1.55c0.041-0.649-0.23-1.754,0.328-2.152
			c0.418,0.999-0.27,1.602,0.938,2.156c0.254-0.705,0.049-1.713,0.097-2.479c0.107-0.089,0.259-0.159,0.39-0.175
			c0.026,0.641-0.332,1.692,0.412,1.984c0.049-0.736-0.312-2.235,0.672-2.313c0.021,0.47-0.177,1.466,0.247,1.645
			c0.12-0.601-0.092-1.258-0.054-1.891c0.104-0.054,0.202-0.075,0.304-0.092c0.024,0.445-0.183,1.464,0.417,1.48
			c0.203-0.568-0.099-1.513,0.583-1.727c-0.011,0.174-0.354,1.697,0.245,1.14c0.412-0.383-0.331-1.471,0.507-1.388
			c0.02,0.387-0.03,0.857,0.097,1.166c0.156-0.384,0.148-1.525,0.484-1.668c0.062,0.986,0.51,2.105,0.58,0.508
			c0.008-0.186-0.233-1.118,0.352-0.942c0.305,0.092,0.164,0.958,0.18,1.245c0.156,0.047,0.484,0.047,0.641,0
			c-0.031-0.248-0.302-1.271-0.137-1.471c0.545-0.656,0.574,0.752,0.579,0.971c0.706-0.063,0.469-1.137,0.653-1.583
			c0.061,0.151,0.013,1.696,0.483,1.166c0.401-0.451-0.503-1.364,0.169-1.644c0.031,0.479-0.176,1.316,0.503,1.311
			c0.022-0.448-0.163-1.225,0.245-1.396c0.107,0.305,0.131,0.654,0.113,0.979c0.108,0.013,0.199,0.01,0.309,0.001
			c0.153-0.481,0.075-1.043,0.113-1.564c0.07,0.146,0.249,0.301,0.33,0.479c0.143,0.044,0.411,0.043,0.554,0
			c0.071-0.247,0.188-0.488,0.265-0.735"/>
	</g>
</g>
<g id="Botones">
</g>
<g id="Logo">
</g>
<g id="TXT">
</g>
<g id="Guias">
</g>
</svg>
