<?xml version="1.0" encoding="utf-8"?>
<!-- Generator: Adobe Illustrator 16.0.0, SVG Export Plug-In . SVG Version: 6.00 Build 0)  -->
<!DOCTYPE svg PUBLIC "-//W3C//DTD SVG 1.1//EN" "http://www.w3.org/Graphics/SVG/1.1/DTD/svg11.dtd">
<svg version="1.1" xmlns="http://www.w3.org/2000/svg" xmlns:xlink="http://www.w3.org/1999/xlink" x="0px" y="0px"
	 width="363.166px" height="37.999px" viewBox="0 0 363.166 37.999" enable-background="new 0 0 363.166 37.999"
	 xml:space="preserve">
<g id="IMG" display="none">
</g>
<g id="Soporte">
</g>
<g id="Cintillos">
</g>
<g id="Imagenes">
</g>
<g id="Vectores">
	<path fill-rule="evenodd" clip-rule="evenodd" fill="#21211F" d="M279.566,13.272c-15.505-0.736-31.021-0.887-46.54-0.889
		c-0.905-0.001-1.814,0.051-2.716-0.018c-0.942-0.072-2.401,0.383-2.376-1.157c0.018-1.136,1.271-1.021,2.169-1.044
		c1.552-0.04,3.103-0.112,4.655-0.109c9.184,0.014,18.367,0.048,27.551,0.074c6.309,0.412,12.609,0.095,18.917,0.025
		c5.11-0.058,10.297,0.007,15.423,0.603c7.418,0.862,14.82,1.861,22.229,2.804c2.301,0.293,4.622,0.422,6.621,1.787
		c3.626,0.488,7.247,0.693,10.645-0.996c3.96-1.968,5.497-6.352,3.269-9.303c-1.243-1.646-2.791-2.799-4.977-1.501
		c-2.299,1.363-0.4,2.784,0.303,4.45c-2.5,0-3.279-1.336-3.26-3.127c0.027-2.475,1.663-3.732,3.942-4.021
		c2.552-0.324,4.506,0.899,5.975,2.906c1.683,2.299,1.745,4.801,0.675,7.352c-1.115,2.656-2.898,4.193-7.395,6.549
		c-0.424,1.045,0.66,1.24,1.096,1.712c2.798,3.028,3.815,6.422,2.176,10.325c-1.469,3.497-5.686,5.959-9.748,5.849
		c-4.363-0.117-7.585-3.141-7.966-7.473c-0.353-4.023,1.912-6.444,6.768-7.231c4.482,0.397,6.175,3.172,4.829,7.897
		c-0.679,1.01-1.586,1.838-2.846,1.517c-1.254-0.318-1.108-1.559-1.148-2.571c-0.043-1.132,0.241-2.444-1.316-2.809
		c-0.814-0.19-1.489,0.269-2.01,0.88c-0.923,1.082-1.091,2.285-0.472,3.576c0.97,2.022,3.946,3.126,6.319,2.354
		c4.324-1.408,5.645-4.982,3.487-9.448c-1.833-3.01-4.983-3.252-7.989-3.801c-1.387-0.475-2.827-0.219-4.244-0.322
		c-7.826-0.689-15.576-1.978-23.396-2.74c-5.129-0.5-10.323,0.068-15.4-1.112C281.7,13.999,280.478,14.184,279.566,13.272z"/>
	<path fill-rule="evenodd" clip-rule="evenodd" fill="#21211F" d="M100.702,10.138c10.314-0.009,20.628-0.057,30.941,0.028
		c1.185,0.01,3.429-0.854,3.369,1.259c-0.048,1.641-2.115,0.914-3.266,0.918c-16.112,0.052-32.222,0.15-48.319,0.93
		c-2.25,1.617-5.063,1.441-7.458,1.482c-9.832,0.17-19.511,1.732-29.256,2.604c-2.926,0.012-5.805,0.442-8.652,1.076
		c-3.795,0.596-7.896,0.604-9.668,5.063c-1.503,3.228,0.041,5.438,2.511,7.25c2.063,1.513,4.261,1.679,6.456,0.206
		c1.256-0.842,2.09-1.962,1.824-3.547c-0.225-1.344-0.873-2.561-2.412-2.564c-1.615-0.004-1.607,1.315-1.625,2.519
		c-0.016,1.112,0.348,2.65-1.164,2.861c-1.585,0.222-2.509-1.128-3.098-2.446c-1.568-3.516,1.297-6.896,5.884-7.004
		c4.944,1.533,6.757,4.155,5.805,8.394c-0.987,4.388-4.729,7.023-9.256,6.294c-3.926-0.634-7.129-2.516-8.509-6.467
		c-1.58-4.529,0.487-7.983,3.998-11.147c-3.312-1.597-6.327-3.284-7.82-6.71c-2.051-4.699,1.001-10.265,5.789-10.325
		c2.256-0.028,4.139,0.826,4.633,3.257c0.393,1.925-0.125,3.529-2.646,4.061c-0.501-1.568,2.259-2.976,0.118-4.394
		c-1.076-0.713-2.138-0.975-3.268-0.427c-1.908,0.923-2.896,2.524-3.006,4.634c-0.189,3.648,3.237,7.132,7.962,7.464
		c4.104,0.289,8.254-0.042,12.383-0.099c3.333-3.101,7.735-2.511,11.691-3.134c8.492-1.335,17.118-2.063,25.68-2.094
		c6.006-0.022,12.065,0.156,18.099,0.326C99.19,10.428,99.973,10.482,100.702,10.138z"/>
	<path fill-rule="evenodd" clip-rule="evenodd" fill="#3A3A39" d="M42.961,13.994c-4.123-0.112-8.239,0.875-12.371-0.019
		c-4.24-0.916-5.667-2.764-5.086-8.071c2.049,7.997,7.542,7.073,12.794,6.54c14.789-1.501,29.378-4.773,44.286-5.184
		c16.162-0.443,32.329-0.724,48.493-1.064c0.624-0.014,1.295-0.013,1.982,1.386C116.05,8.771,99.253,7.739,82.57,9.197
		c-1.125,1.127-2.688,1.032-4.011,1.073c-11.079,0.35-21.987,2.173-32.938,3.624C44.749,14.01,43.862,14.39,42.961,13.994z"/>
	<path fill-rule="evenodd" clip-rule="evenodd" fill="#363736" d="M280.435,9.191c-14.425-1.254-28.9-0.714-43.346-1.182
		c-2.233-0.073-4.471-0.011-7.092-0.011c1.131-2.486,2.627-1.778,3.742-1.771c28.668,0.201,57.338,0.384,85.676,5.639
		c2.658,0.492,5.377,0.715,8.079,0.901c5.66,0.392,7.888-0.956,9.79-5.722c1.11,3.961,0.335,5.09-4.834,7.034
		c-9.613,1.396-18.994-0.778-28.412-2.007c-5.872-0.766-11.742-1.339-17.646-1.682C284.356,10.273,282.254,10.417,280.435,9.191z"/>
	<path fill-rule="evenodd" clip-rule="evenodd" fill="#333332" d="M260.87,14.003c3.259,1.096,6.627,0.355,9.939,0.554
		c8.07,0.482,16.152,0.764,24.229,1.126c-0.715,1.815-2.018,0.749-3.125,0.637c-3.272-0.064-6.544-0.129-9.816-0.194
		c-5.986-0.837-12.03,0.233-18.018-0.562c-11.146-0.316-22.284,0.242-33.425,0.635c-0.02-0.482-0.038-0.967-0.058-1.45
		C240.688,14.5,250.779,14.251,260.87,14.003z"/>
	<path fill-rule="evenodd" clip-rule="evenodd" fill="#494948" d="M308.705,16.863c4.511-0.59,8.974,1.611,13.495,0.222
		c1.41-0.142,2.844-0.446,4.062,0.635c3.201,1.117,6.788,1.627,8.364,5.313c0.406,1.756,0.871,3.518-0.711,4.983
		c-0.64,0.198-1.553,0.252-1.472-0.536c0.429-4.184-2.214-5.915-5.479-7.228c-6.709-0.839-13.418-1.678-20.127-2.517
		C306.857,16.155,307.903,16.768,308.705,16.863z"/>
	<path fill-rule="evenodd" clip-rule="evenodd" fill="#565655" d="M308.705,16.863c-0.694,0.136-1.43,0.187-1.868,0.872
		c-4.986-0.344-10.002-0.384-14.923-1.416c1.041-0.212,2.083-0.424,3.125-0.637C299.585,16.19,304.206,15.827,308.705,16.863z"/>
	<path fill="#232423" d="M357.814,20.159c-1.286-0.732-2.72-1.204-4.167-1.83c1.306-1.2,2.542-2.162,3.557-3.318
		c1.014-1.155,1.976-2.419,2.66-3.785c1.684-3.365,0.848-6.153-2.069-7.545c-3.328-1.589-8.354-0.201-9.484,2.789
		c-0.905,2.395-0.591,4.675,1.976,5.957c1.88,0.938,3.553,0.432,4.674-1.375c0.482-0.776,0.781-1.762,0.039-2.532
		c-1.142-1.188-1.459,0.097-1.919,0.776c-0.604,0.892-1.454,1.259-2.288,0.576c-0.974-0.795-0.73-1.9-0.023-2.773
		c1.611-1.988,3.754-2.355,5.927-1.271c2.368,1.18,1.831,3.144,0.755,4.963c-3.215,5.435-8.275,7.506-14.316,7.769
		c-1.414,0.062-2.913-0.416-4.909,0.53c3.257,1.938,6.138,1.977,9.04,1.356c2.652-0.566,5.17-0.184,7.605,0.759
		c2.061,0.798,4.316,1.775,4.197,4.46c-0.107,2.396-1.58,4.019-4.012,4.599c-1.498,1.305-2.889,0.551-4.203-0.297
		c-0.818-0.527-1.143-1.418-0.862-2.363c0.19-0.638,0.743-1.079,1.44-1.108c1.305-0.054,1.391,0.845,1.308,1.821
		c-0.099,1.149,0.685,1.171,1.485,1.176c1.41-1.936,1.147-3.719-0.813-4.982c-1.539-0.992-3.201-0.889-4.574,0.566
		c-1.89,2.005-1.254,5.343,1.342,6.996c2.964,1.89,8.043,0.389,10.179-3.005C362.362,25.876,361.351,22.172,357.814,20.159z"/>
	<path fill="#252524" d="M18.268,18.429C12.78,17.955,8.403,15.5,5.52,10.721C4.419,8.897,4.053,6.895,6.442,5.8
		c2.374-1.086,4.587-0.628,6.062,1.738c0.514,0.824,0.513,1.802-0.393,2.408c-0.737,0.494-1.466,0.223-2.037-0.455
		c-0.505-0.597-0.687-2.096-1.88-1.12c-1.133,0.927-0.562,2.141,0.202,3.098c1.355,1.698,3.136,1.932,4.813,0.739
		c2.215-1.574,2.563-3.822,1.281-6.175c-1.566-2.876-6.58-3.926-9.71-2.141c-2.726,1.556-3.188,4.259-1.443,7.78
		C4.7,14.422,7.126,16.245,9.403,18.4c-1.963,0.884-3.788,1.208-5.214,2.407c-2.069,1.741-3.065,3.962-2.28,6.55
		c0.945,3.112,3.349,4.868,6.494,5.413c2.423,0.42,4.654-0.041,6.098-2.356c1.155-1.854,1.203-3.694-0.301-5.34
		c-1.303-1.425-3.018-1.617-4.575-0.592c-1.925,1.269-2.262,3.04-0.847,4.992c1.12,0.085,1.609-0.355,1.459-1.542
		c-0.11-0.868,0.331-1.457,1.276-1.477c0.702-0.014,1.171,0.399,1.488,0.99c0.422,0.788,0.168,1.529-0.392,2.07
		c-1.359,1.313-2.87,2.076-4.689,0.774c-2.317-0.71-3.913-2.181-3.95-4.665c-0.04-2.69,2.163-3.633,4.231-4.435
		c2.576-0.998,5.204-1.219,7.99-0.655c2.795,0.564,5.638,0.504,7.921-1.674C22.119,18.454,20.181,18.593,18.268,18.429z"/>
	<circle fill="#303030" cx="179.342" cy="8.875" r="7.424"/>
	<path fill-rule="evenodd" clip-rule="evenodd" fill="#4C4C4B" d="M37.521,17.722c2.785-1.113,5.645-1.771,8.67-1.434
		c2.691,0.947,5.352,0.004,8.004-0.22c6.511-0.55,13.057-0.866,19.532-1.548c8.731-0.92,17.436,0.608,26.112-0.496
		c10.949-0.049,21.888,0.107,32.781,1.389c-4.928,1.186-9.846,0.371-14.754,0.262c-27.153-0.608-54.2,0.602-81.092,4.582
		c-3.306,1.313-7.1,2.219-5.869,7.229c0.127,0.519-0.15,1.161-0.675,1.167c-1.431,0.017-1.858-1.084-2.146-2.251
		c0.157-4.736,2.281-7.222,6.924-8.179C35.845,18.052,36.827,18.589,37.521,17.722z"/>
</g>
<g id="Iconos">
</g>
<g id="Botones">
</g>
<g id="Logo">
</g>
<g id="TXT">
</g>
<g id="Guias">
</g>
</svg>
