<?xml version="1.0" encoding="utf-8"?>
<!-- Generator: Adobe Illustrator 16.0.0, SVG Export Plug-In . SVG Version: 6.00 Build 0)  -->
<!DOCTYPE svg PUBLIC "-//W3C//DTD SVG 1.1//EN" "http://www.w3.org/Graphics/SVG/1.1/DTD/svg11.dtd">
<svg version="1.1" xmlns="http://www.w3.org/2000/svg" xmlns:xlink="http://www.w3.org/1999/xlink" x="0px" y="0px"
	 width="136.666px" height="39.166px" viewBox="0 0 136.666 39.166" enable-background="new 0 0 136.666 39.166"
	 xml:space="preserve">
<g id="IMG" display="none">
</g>
<g id="Soporte">
</g>
<g id="Cintillos">
</g>
<g id="Imagenes">
</g>
<g id="Vectores">
</g>
<g id="Iconos">
</g>
<g id="Botones">
</g>
<g id="Logo">
	<g>
		<path fill="#FFFFFF" d="M8.994,33.88c-0.132-0.133-0.288-0.236-0.469-0.309c-0.181-0.074-0.38-0.109-0.595-0.109
			c-0.114,0-0.231,0.01-0.354,0.029c-0.122,0.02-0.242,0.055-0.36,0.104S6.986,33.714,6.88,33.8
			c-0.106,0.088-0.199,0.199-0.277,0.332c-0.126-0.209-0.298-0.373-0.514-0.49c-0.217-0.121-0.464-0.18-0.742-0.18
			c-0.094,0-0.19,0.008-0.29,0.025c-0.101,0.018-0.2,0.047-0.298,0.088c-0.1,0.041-0.193,0.098-0.283,0.17s-0.172,0.164-0.244,0.273
			V33.56h-0.79v3.758h0.797v-2.084c0-0.158,0.025-0.301,0.076-0.426c0.05-0.123,0.118-0.227,0.203-0.311
			c0.084-0.084,0.184-0.146,0.298-0.191c0.113-0.041,0.235-0.064,0.364-0.064c0.269,0,0.476,0.086,0.625,0.256
			c0.147,0.17,0.222,0.412,0.222,0.729v2.092h0.797v-2.084c0-0.158,0.024-0.301,0.076-0.426c0.05-0.123,0.118-0.227,0.202-0.311
			c0.085-0.084,0.185-0.146,0.298-0.191c0.114-0.041,0.236-0.064,0.364-0.064c0.269,0,0.477,0.086,0.625,0.256
			c0.147,0.17,0.222,0.412,0.222,0.729v2.092h0.797v-2.361c0-0.221-0.036-0.42-0.108-0.604C9.228,34.169,9.125,34.011,8.994,33.88"
			/>
		<path fill="#FFFFFF" d="M13.196,34.015c-0.131-0.168-0.293-0.301-0.486-0.402s-0.425-0.15-0.694-0.15
			c-0.264,0-0.509,0.049-0.736,0.146s-0.427,0.234-0.596,0.41c-0.17,0.176-0.304,0.385-0.4,0.625
			c-0.097,0.242-0.146,0.508-0.146,0.793c0,0.289,0.049,0.553,0.146,0.795s0.23,0.451,0.4,0.625c0.169,0.176,0.368,0.313,0.596,0.41
			s0.473,0.146,0.736,0.146c0.27,0,0.501-0.049,0.694-0.148s0.355-0.232,0.486-0.398v0.451h0.82V33.56h-0.82V34.015z M13.166,35.915
			c-0.056,0.148-0.133,0.273-0.232,0.383c-0.099,0.107-0.218,0.189-0.356,0.252c-0.14,0.061-0.293,0.092-0.463,0.092
			c-0.177,0-0.337-0.031-0.477-0.096s-0.258-0.15-0.355-0.26c-0.096-0.107-0.171-0.234-0.223-0.381
			c-0.053-0.146-0.078-0.303-0.078-0.469c0-0.164,0.025-0.318,0.078-0.465c0.052-0.146,0.127-0.273,0.223-0.383
			c0.098-0.109,0.216-0.195,0.355-0.26c0.14-0.063,0.3-0.096,0.477-0.096c0.17,0,0.323,0.031,0.463,0.094
			c0.139,0.061,0.258,0.145,0.356,0.252c0.1,0.107,0.177,0.234,0.232,0.379c0.054,0.148,0.082,0.307,0.082,0.479
			C13.248,35.61,13.22,35.771,13.166,35.915"/>
		<path fill="#FFFFFF" d="M17.784,35.433c-0.23-0.18-0.551-0.299-0.962-0.359l-0.388-0.059c-0.086-0.014-0.167-0.027-0.243-0.045
			s-0.141-0.041-0.196-0.07c-0.055-0.027-0.099-0.064-0.132-0.107c-0.032-0.045-0.049-0.102-0.049-0.166
			c0-0.133,0.063-0.242,0.187-0.324s0.299-0.123,0.523-0.123c0.118,0,0.233,0.012,0.348,0.031c0.113,0.021,0.221,0.047,0.322,0.078
			c0.103,0.031,0.195,0.068,0.279,0.105s0.153,0.072,0.212,0.107l0.353-0.639c-0.195-0.127-0.425-0.225-0.686-0.293
			c-0.262-0.068-0.54-0.104-0.836-0.104c-0.24,0-0.456,0.027-0.646,0.084c-0.191,0.057-0.354,0.137-0.489,0.24
			c-0.135,0.104-0.237,0.229-0.309,0.377c-0.072,0.148-0.108,0.316-0.108,0.502c0,0.303,0.108,0.549,0.324,0.736
			c0.215,0.186,0.532,0.309,0.95,0.365l0.392,0.053c0.226,0.031,0.39,0.08,0.495,0.15c0.104,0.068,0.156,0.156,0.156,0.264
			c0,0.141-0.072,0.252-0.215,0.336c-0.146,0.082-0.356,0.123-0.64,0.123c-0.154,0-0.292-0.01-0.414-0.031
			c-0.121-0.021-0.232-0.049-0.333-0.084c-0.102-0.035-0.191-0.076-0.271-0.121c-0.08-0.047-0.153-0.096-0.222-0.146l-0.38,0.615
			c0.136,0.102,0.277,0.184,0.427,0.246s0.295,0.113,0.439,0.146c0.144,0.035,0.279,0.059,0.408,0.072
			c0.128,0.012,0.24,0.016,0.336,0.016c0.27,0,0.512-0.029,0.725-0.09c0.213-0.059,0.392-0.145,0.537-0.252s0.256-0.238,0.332-0.389
			c0.078-0.15,0.117-0.316,0.117-0.496C18.129,35.862,18.014,35.612,17.784,35.433"/>
		<path fill="#FFFFFF" d="M25.456,34.009c-0.155-0.174-0.342-0.309-0.561-0.404c-0.218-0.096-0.457-0.143-0.719-0.143
			c-0.277,0-0.53,0.047-0.76,0.143c-0.229,0.096-0.425,0.23-0.59,0.404c-0.165,0.172-0.293,0.381-0.384,0.625
			c-0.092,0.244-0.138,0.512-0.138,0.803c0,0.299,0.047,0.57,0.142,0.813c0.094,0.244,0.227,0.451,0.396,0.623
			c0.171,0.174,0.372,0.307,0.609,0.4c0.234,0.094,0.493,0.141,0.775,0.141c0.285,0,0.557-0.037,0.813-0.117
			c0.258-0.078,0.501-0.215,0.73-0.41l-0.406-0.584c-0.158,0.123-0.331,0.221-0.521,0.291c-0.189,0.068-0.378,0.104-0.566,0.104
			c-0.134,0-0.262-0.018-0.384-0.055c-0.123-0.037-0.234-0.094-0.334-0.17c-0.099-0.078-0.184-0.176-0.255-0.297
			c-0.07-0.121-0.119-0.266-0.146-0.436h2.776c0.006-0.047,0.01-0.096,0.013-0.148c0.002-0.053,0.004-0.105,0.004-0.156
			c0-0.293-0.045-0.561-0.132-0.803S25.612,34.181,25.456,34.009 M23.165,35.116c0.021-0.137,0.057-0.262,0.109-0.373
			c0.053-0.115,0.12-0.213,0.202-0.295s0.181-0.146,0.293-0.191c0.114-0.045,0.245-0.066,0.392-0.066
			c0.262,0,0.474,0.08,0.638,0.242c0.165,0.164,0.27,0.391,0.314,0.684H23.165z"/>
		<path fill="#FFFFFF" d="M36.345,34.015c-0.131-0.168-0.293-0.301-0.486-0.402c-0.192-0.102-0.425-0.15-0.694-0.15
			c-0.263,0-0.51,0.049-0.737,0.146c-0.227,0.098-0.426,0.234-0.596,0.41c-0.169,0.176-0.303,0.385-0.399,0.625
			c-0.097,0.242-0.146,0.508-0.146,0.793c0,0.289,0.049,0.553,0.146,0.795s0.23,0.451,0.399,0.625
			c0.17,0.176,0.369,0.313,0.596,0.41c0.228,0.098,0.475,0.146,0.737,0.146c0.27,0,0.502-0.049,0.694-0.148
			c0.193-0.1,0.355-0.232,0.486-0.398v0.451h0.819V33.56h-0.819V34.015z M36.313,35.915c-0.055,0.148-0.132,0.273-0.231,0.383
			c-0.1,0.107-0.219,0.189-0.356,0.252c-0.139,0.061-0.294,0.092-0.463,0.092c-0.178,0-0.337-0.031-0.477-0.096
			s-0.258-0.15-0.354-0.26c-0.097-0.107-0.172-0.234-0.224-0.381s-0.079-0.303-0.079-0.469c0-0.164,0.027-0.318,0.079-0.465
			s0.127-0.273,0.224-0.383s0.215-0.195,0.354-0.26c0.14-0.063,0.299-0.096,0.477-0.096c0.169,0,0.324,0.031,0.463,0.094
			c0.138,0.061,0.257,0.145,0.356,0.252s0.177,0.234,0.231,0.379c0.056,0.148,0.083,0.307,0.083,0.479
			C36.396,35.61,36.369,35.771,36.313,35.915"/>
		<path fill="#FFFFFF" d="M21.298,36.567c-0.133,0.049-0.263,0.074-0.39,0.074c-0.085,0-0.161-0.012-0.234-0.041
			c-0.072-0.025-0.135-0.064-0.188-0.121c-0.053-0.057-0.097-0.131-0.127-0.219c-0.031-0.088-0.047-0.195-0.047-0.32v-1.637h1.316
			V33.56h-1.316v-1.137h-0.823v1.137h-0.749v0.744h0.749v1.652c0,0.498,0.118,0.867,0.354,1.104s0.568,0.354,0.994,0.354
			c0.238,0,0.451-0.035,0.642-0.109c0.124-0.047,0.241-0.104,0.35-0.164l-0.28-0.688C21.468,36.497,21.386,36.534,21.298,36.567"/>
		<path fill="#FFFFFF" d="M28.696,33.462c-0.229,0-0.438,0.041-0.623,0.125s-0.342,0.285-0.467,0.465V33.56h-0.744v3.758h0.752
			v-2.068c0-0.158,0.022-0.301,0.066-0.428c0.045-0.125,0.106-0.23,0.185-0.316s0.172-0.152,0.282-0.197
			c0.109-0.043,0.229-0.066,0.36-0.066c0.101,0,0.207,0.012,0.322,0.037c0.059,0.01,0.113,0.025,0.165,0.043l0.242-0.785
			c-0.066-0.02-0.133-0.037-0.201-0.049C28.936,33.47,28.821,33.462,28.696,33.462"/>
		<path fill="#FFFFFF" d="M40.089,33.462c-0.23,0-0.438,0.041-0.623,0.125s-0.342,0.285-0.467,0.465V33.56h-0.744v3.758h0.752
			v-2.068c0-0.158,0.022-0.301,0.066-0.428c0.045-0.125,0.106-0.23,0.185-0.316s0.172-0.152,0.282-0.197
			c0.109-0.043,0.229-0.066,0.36-0.066c0.101,0,0.207,0.012,0.322,0.037c0.059,0.01,0.112,0.025,0.165,0.043l0.241-0.785
			c-0.065-0.02-0.132-0.037-0.2-0.049C40.327,33.47,40.215,33.462,40.089,33.462"/>
		<path fill="#FFFFFF" d="M43.917,32.032v1.982c-0.131-0.168-0.294-0.301-0.486-0.402c-0.193-0.102-0.425-0.15-0.693-0.15
			c-0.265,0-0.511,0.049-0.738,0.146c-0.227,0.098-0.426,0.234-0.596,0.41s-0.304,0.385-0.399,0.625
			c-0.098,0.242-0.146,0.508-0.146,0.793c0,0.289,0.048,0.553,0.146,0.795c0.096,0.242,0.229,0.451,0.399,0.625
			c0.17,0.176,0.369,0.313,0.596,0.41c0.228,0.098,0.474,0.146,0.738,0.146c0.269,0,0.5-0.049,0.693-0.148
			c0.192-0.1,0.355-0.232,0.486-0.398v0.451h0.819v-5.285H43.917z M43.886,35.915c-0.055,0.148-0.132,0.273-0.231,0.383
			c-0.1,0.107-0.218,0.189-0.357,0.252c-0.138,0.061-0.292,0.092-0.463,0.092c-0.177,0-0.336-0.031-0.476-0.096
			s-0.259-0.15-0.354-0.26c-0.098-0.107-0.172-0.234-0.224-0.381c-0.053-0.146-0.079-0.303-0.079-0.469
			c0-0.164,0.026-0.318,0.079-0.465c0.052-0.146,0.126-0.273,0.224-0.383c0.096-0.109,0.215-0.195,0.354-0.26
			c0.14-0.063,0.299-0.096,0.476-0.096c0.171,0,0.325,0.031,0.463,0.094c0.14,0.061,0.258,0.145,0.357,0.252
			s0.177,0.234,0.231,0.379c0.055,0.148,0.082,0.307,0.082,0.479C43.968,35.61,43.94,35.771,43.886,35.915"/>
		<path fill="#FFFFFF" d="M30.658,34.569c0.104-0.105,0.229-0.189,0.372-0.248c0.144-0.057,0.3-0.088,0.467-0.088
			c0.184,0,0.355,0.029,0.514,0.088c0.152,0.057,0.285,0.137,0.398,0.238l0.394-0.656c-0.148-0.119-0.315-0.217-0.5-0.291
			c-0.247-0.102-0.516-0.15-0.806-0.15s-0.559,0.049-0.806,0.15s-0.461,0.238-0.64,0.416s-0.318,0.385-0.421,0.625
			s-0.153,0.502-0.153,0.783c0,0.283,0.051,0.545,0.153,0.785s0.242,0.449,0.421,0.625c0.179,0.178,0.393,0.316,0.64,0.416
			c0.247,0.102,0.516,0.15,0.806,0.15s0.559-0.049,0.806-0.15c0.185-0.076,0.352-0.172,0.5-0.291l-0.394-0.654
			c-0.113,0.1-0.246,0.18-0.398,0.236c-0.158,0.059-0.33,0.088-0.514,0.088c-0.167,0-0.323-0.029-0.467-0.088
			s-0.268-0.143-0.372-0.248s-0.188-0.232-0.248-0.379c-0.06-0.148-0.09-0.313-0.09-0.49c0-0.176,0.03-0.338,0.09-0.486
			C30.471,34.802,30.554,34.675,30.658,34.569"/>
		<path fill="#FFFFFF" d="M46.464,36.767c0.054,0,0.105,0.01,0.152,0.029c0.048,0.02,0.09,0.047,0.125,0.082
			s0.063,0.076,0.084,0.121c0.021,0.047,0.031,0.096,0.031,0.15c0,0.051-0.01,0.102-0.031,0.148
			c-0.021,0.047-0.049,0.086-0.084,0.121s-0.077,0.063-0.125,0.082c-0.047,0.021-0.099,0.031-0.152,0.031
			c-0.057,0-0.108-0.01-0.157-0.031c-0.049-0.02-0.09-0.047-0.126-0.082c-0.035-0.035-0.063-0.074-0.083-0.121
			s-0.03-0.098-0.03-0.148c0-0.055,0.01-0.104,0.03-0.15c0.021-0.045,0.048-0.086,0.083-0.121c0.036-0.035,0.077-0.063,0.126-0.082
			S46.407,36.767,46.464,36.767 M46.464,37.427c0.037,0,0.072-0.008,0.106-0.023c0.034-0.014,0.063-0.033,0.087-0.059
			c0.025-0.025,0.045-0.055,0.059-0.088c0.016-0.033,0.021-0.07,0.021-0.107c0-0.039-0.006-0.074-0.021-0.109
			c-0.014-0.033-0.033-0.063-0.059-0.086c-0.024-0.025-0.053-0.045-0.087-0.061c-0.034-0.014-0.069-0.021-0.106-0.021
			c-0.04,0-0.076,0.008-0.11,0.021c-0.034,0.016-0.063,0.035-0.088,0.061c-0.026,0.023-0.045,0.053-0.059,0.086
			c-0.015,0.035-0.022,0.07-0.022,0.109c0,0.037,0.008,0.074,0.022,0.107c0.014,0.033,0.032,0.063,0.059,0.088
			c0.024,0.025,0.054,0.045,0.088,0.059C46.388,37.419,46.424,37.427,46.464,37.427 M46.485,36.979c0.047,0,0.082,0.01,0.106,0.031
			c0.023,0.02,0.036,0.049,0.036,0.082c0,0.027-0.009,0.049-0.026,0.068c-0.018,0.018-0.042,0.029-0.076,0.035l0.106,0.123h-0.114
			L46.423,37.2h-0.011v0.119h-0.096v-0.34H46.485z M46.412,37.062v0.063h0.071c0.015,0,0.026-0.002,0.034-0.006
			c0.007-0.006,0.012-0.014,0.012-0.025s-0.005-0.018-0.012-0.023c-0.008-0.004-0.02-0.008-0.034-0.008H46.412z"/>
		<path fill="#EC2026" d="M18.687,15.999c0-4.5,2.104-8.506,5.377-11.1c-2.414-1.912-5.464-3.057-8.781-3.057
			c-7.819,0-14.158,6.338-14.158,14.156c0,7.82,6.339,14.158,14.158,14.158c3.317,0,6.367-1.145,8.781-3.057
			C20.79,24.507,18.687,20.499,18.687,15.999"/>
		<path fill="#F16A21" d="M18.687,15.999c0,4.5,2.104,8.508,5.377,11.102c3.273-2.594,5.376-6.602,5.376-11.102
			s-2.103-8.506-5.376-11.1C20.79,7.493,18.687,11.499,18.687,15.999"/>
		<path fill="#F89E1D" d="M46.043,23.657v-0.414h-0.168V23.13h0.459v0.113h-0.168v0.414H46.043z M46.93,23.657v-0.365l-0.119,0.314
			H46.68l-0.118-0.314v0.365h-0.125V23.13h0.178l0.131,0.338l0.131-0.338h0.178v0.527H46.93z"/>
		<path fill="#F89E1D" d="M32.845,1.843c-3.318,0-6.367,1.145-8.781,3.057c3.273,2.594,5.376,6.6,5.376,11.1
			s-2.103,8.508-5.376,11.102c2.414,1.912,5.463,3.057,8.781,3.057c7.818,0,14.158-6.338,14.158-14.158
			C47.003,8.181,40.663,1.843,32.845,1.843"/>
	</g>
	<g>
		<polygon fill-rule="evenodd" clip-rule="evenodd" fill="#00579F" points="96.724,29.048 99.742,10.39 104.566,10.39 
			101.548,29.048 96.724,29.048 		"/>
		<path fill-rule="evenodd" clip-rule="evenodd" fill="#00579F" d="M119.039,10.845c-0.953-0.377-2.463-0.795-4.328-0.795
			c-4.764,0-8.12,2.541-8.14,6.176c-0.04,2.678,2.401,4.168,4.229,5.061c1.866,0.912,2.5,1.508,2.5,2.324
			c-0.018,1.25-1.507,1.824-2.897,1.824c-1.924,0-2.958-0.297-4.524-0.992l-0.637-0.297l-0.675,4.188
			c1.132,0.516,3.216,0.973,5.381,0.992c5.063,0,8.355-2.502,8.397-6.371c0.02-2.125-1.271-3.754-4.051-5.082
			c-1.688-0.854-2.721-1.43-2.721-2.303c0.02-0.795,0.874-1.607,2.779-1.607c1.57-0.041,2.721,0.336,3.595,0.713l0.437,0.199
			L119.039,10.845L119.039,10.845z"/>
		<path fill-rule="evenodd" clip-rule="evenodd" fill="#00579F" d="M125.451,22.437c0.397-1.07,1.926-5.221,1.926-5.221
			c-0.02,0.041,0.397-1.092,0.636-1.785l0.339,1.607c0,0,0.911,4.465,1.11,5.398C128.706,22.437,126.404,22.437,125.451,22.437
			L125.451,22.437z M131.408,10.39h-3.733c-1.15,0-2.024,0.336-2.521,1.547l-7.166,17.111h5.063c0,0,0.833-2.303,1.012-2.799
			c0.557,0,5.479,0,6.193,0c0.141,0.654,0.575,2.799,0.575,2.799h4.469L131.408,10.39L131.408,10.39z"/>
		<path fill-rule="evenodd" clip-rule="evenodd" fill="#00579F" d="M92.694,10.39l-4.724,12.723l-0.518-2.582
			c-0.873-2.977-3.613-6.211-6.671-7.82l4.329,16.318h5.102l7.582-18.639H92.694L92.694,10.39z"/>
		<path fill-rule="evenodd" clip-rule="evenodd" fill="#FAA61A" d="M83.581,10.39h-7.762l-0.079,0.375
			c6.054,1.549,10.064,5.281,11.713,9.766l-1.688-8.574C85.486,10.765,84.634,10.427,83.581,10.39L83.581,10.39z"/>
	</g>
</g>
<g id="TXT">
</g>
<g id="Guias">
</g>
</svg>
