<?xml version="1.0" encoding="utf-8"?>
<!-- Generator: Adobe Illustrator 16.0.0, SVG Export Plug-In . SVG Version: 6.00 Build 0)  -->
<!DOCTYPE svg PUBLIC "-//W3C//DTD SVG 1.1//EN" "http://www.w3.org/Graphics/SVG/1.1/DTD/svg11.dtd">
<svg version="1.1" xmlns="http://www.w3.org/2000/svg" xmlns:xlink="http://www.w3.org/1999/xlink" x="0px" y="0px"
	 width="34.417px" height="34.25px" viewBox="0 0 34.417 34.25" enable-background="new 0 0 34.417 34.25" xml:space="preserve">
<g id="Soporte">
</g>
<g id="Publicidad">
</g>
<g id="Iconos">
	<g>
		<defs>
			<circle id="SVGID_3_" cx="55.5" cy="17.345" r="15.917"/>
		</defs>
		<clipPath id="SVGID_2_">
			<use xlink:href="#SVGID_3_"  overflow="visible"/>
		</clipPath>
		<rect x="34" y="14.75" clip-path="url(#SVGID_2_)" fill="#AA0202" width="41" height="19"/>
		<rect x="34" y="5.75" clip-path="url(#SVGID_2_)" fill="#1E2F5E" width="41" height="19"/>
		<rect x="34" y="-2.25" clip-path="url(#SVGID_2_)" fill="#EFD451" width="41" height="20"/>
	</g>
	<g>
		<defs>
			<circle id="SVGID_7_" cx="17.5" cy="17.345" r="15.917"/>
		</defs>
		<clipPath id="SVGID_4_">
			<use xlink:href="#SVGID_7_"  overflow="visible"/>
		</clipPath>
		<g clip-path="url(#SVGID_4_)">
			<path fill-rule="evenodd" clip-rule="evenodd" fill="#FECD00" d="M44.079,22.622c0,3.559-0.001,7.117,0.004,10.676
				c0,0.144-0.028,0.173-0.173,0.173c-17.89-0.005-35.78-0.005-53.67,0c-0.144,0-0.172-0.029-0.172-0.173
				c0.005-3.559,0.004-7.117,0.004-10.676C8.074,22.622,26.077,22.622,44.079,22.622z"/>
			<path fill-rule="evenodd" clip-rule="evenodd" d="M-9.928,11.821c0-3.545,0-7.089-0.004-10.633c0-0.146,0.028-0.173,0.172-0.173
				c17.891,0.004,35.78,0.004,53.67,0c0.145,0,0.173,0.027,0.173,0.173c-0.005,3.544-0.004,7.088-0.004,10.633
				C26.077,11.821,8.074,11.821-9.928,11.821z"/>
			<path fill-rule="evenodd" clip-rule="evenodd" fill="#DC0000" d="M-9.928,11.821c18.002,0,36.005,0,54.007,0
				c0,3.6,0,7.201,0,10.801c-18.002,0-36.005,0-54.007,0C-9.928,19.022-9.928,15.42-9.928,11.821z"/>
		</g>
	</g>
	<g>
		<defs>
			<circle id="SVGID_9_" cx="-18.634" cy="17.345" r="15.917"/>
		</defs>
		<clipPath id="SVGID_6_">
			<use xlink:href="#SVGID_9_"  overflow="visible"/>
		</clipPath>
		<g clip-path="url(#SVGID_6_)">
			<path fill-rule="evenodd" clip-rule="evenodd" fill="#009530" d="M-18.635,33.418c-7.988,0-15.976-0.001-23.964,0.002
				c-0.11,0-0.141-0.02-0.141-0.137c0.004-10.624,0.004-21.248,0-31.872c0-0.128,0.034-0.143,0.149-0.142
				c15.972,0.002,31.943,0.002,47.914-0.001c0.12,0,0.149,0.019,0.149,0.145c-0.004,10.619-0.004,21.237,0,31.857
				c0,0.135-0.038,0.15-0.158,0.15C-2.67,33.417-10.652,33.418-18.635,33.418z M-17.053,10.409c0.071,0.008,0.158,0.062,0.209-0.015
				c0.055-0.085-0.025-0.151-0.076-0.208c-0.26-0.296-0.558-0.548-0.855-0.803c-0.045-0.039-0.099-0.076-0.164-0.044
				c-0.067,0.033-0.062,0.097-0.06,0.157c0.006,0.185,0.015,0.371,0.021,0.556c0.002,0.083,0.042,0.154,0.111,0.183
				c0.127,0.052,0.191,0.158,0.266,0.256c0.342,0.446,0.666,0.905,0.988,1.366c0.066,0.094,0.099,0.192,0.113,0.303
				c0.098,0.766,0.203,1.531,0.291,2.298c0.078,0.702,0.183,1.406-0.005,2.109c-0.016,0.059-0.039,0.156,0.031,0.175
				c0.066,0.017,0.089-0.079,0.115-0.136c0.191-0.43,0.248-0.885,0.245-1.35c-0.001-0.599-0.104-1.189-0.145-1.785
				c-0.015-0.215-0.034-0.431-0.05-0.646c0.047,0.022,0.066,0.049,0.084,0.078c0.557,0.881,1.121,1.757,1.528,2.722
				c0.022,0.053,0.044,0.146,0.104,0.13c0.075-0.021,0.035-0.111,0.029-0.17c-0.026-0.308-0.129-0.596-0.252-0.876
				c-0.389-0.879-0.905-1.685-1.417-2.493c-0.085-0.134-0.149-0.267-0.146-0.43c0.004-0.282,0.002-0.565,0.002-0.843
				c0.139,0.051,0.18,0.019,0.161-0.147c-0.006-0.049-0.021-0.098-0.035-0.146c-0.078-0.27-0.189-0.527-0.301-0.785
				c-0.041-0.096-0.072-0.198-0.137-0.283c-0.062-0.081-0.146-0.093-0.199-0.01c-0.101,0.156-0.204,0.34-0.133,0.52
				c0.074,0.183,0.077,0.368,0.104,0.553c0.022,0.169,0.038,0.34,0.057,0.51c-0.011,0.004-0.023,0.007-0.033,0.011
				c-0.16-0.239-0.321-0.479-0.481-0.718C-17.074,10.434-17.063,10.421-17.053,10.409z M-10.262,10.826
				c-0.128-0.134-0.218-0.294-0.32-0.448c0.161-0.052,0.188-0.106,0.089-0.205c-0.228-0.227-0.47-0.437-0.688-0.675
				c-0.034-0.035-0.085-0.063-0.136-0.036c-0.045,0.022-0.047,0.076-0.049,0.119c-0.003,0.125,0.014,0.254-0.005,0.376
				c-0.034,0.223,0.046,0.396,0.182,0.564c0.297,0.366,0.582,0.743,0.878,1.109c0.112,0.136,0.187,0.273,0.181,0.458
				c-0.004,0.164,0.023,0.33,0.036,0.495c0.056,0.805,0.139,1.61,0.123,2.419c-0.004,0.186-0.021,0.37-0.099,0.544
				c-0.121,0.268-0.403,0.334-0.63,0.149c-0.15-0.122-0.242-0.292-0.367-0.436c-0.202-0.231-0.322-0.225-0.493,0.025
				c-0.254,0.368-0.46,0.763-0.658,1.164c-0.058,0.117-0.108,0.237-0.195,0.337c-0.128,0.149-0.256,0.142-0.367-0.02
				c-0.027-0.041-0.051-0.087-0.07-0.132c-0.136-0.309-0.187-0.632-0.182-0.968c0.001-0.136,0.013-0.276-0.045-0.407
				c-0.054,0.008-0.052,0.052-0.062,0.082c-0.096,0.308-0.153,0.623-0.191,0.942c-0.051,0.432,0.078,0.782,0.454,1.022
				c0.026,0.016,0.048,0.037,0.071,0.056c0.264,0.21,0.377,0.191,0.574-0.087c0.226-0.322,0.385-0.68,0.556-1.03
				c0.066-0.136,0.135-0.268,0.248-0.374c0.072-0.067,0.122-0.069,0.177,0.02c0.097,0.154,0.216,0.293,0.374,0.387
				c0.478,0.284,0.906,0.238,1.187-0.238c0.121-0.206,0.172-0.44,0.174-0.678c0.009-0.708-0.068-1.414-0.098-2.12
				c-0.009-0.214-0.021-0.429-0.033-0.644c0.224,0.26,0.403,0.538,0.61,0.793c0.179,0.221,0.25,0.467,0.287,0.74
				c0.068,0.499,0.088,0.999,0.078,1.501c0,0.044-0.022,0.119,0.04,0.127c0.058,0.006,0.061-0.07,0.075-0.115
				c0.096-0.29,0.107-0.589,0.09-0.892c-0.012-0.19-0.019-0.381-0.029-0.615c0.042,0.052,0.056,0.066,0.067,0.081
				c0.318,0.451,0.659,0.885,0.924,1.371c0.022,0.041,0.045,0.114,0.095,0.102c0.068-0.016,0.035-0.093,0.038-0.143
				c0.019-0.338-0.088-0.641-0.261-0.925c-0.267-0.437-0.571-0.849-0.856-1.272c-0.052-0.078-0.082-0.154-0.088-0.249
				c-0.019-0.281-0.05-0.561-0.075-0.84c-0.04-0.475-0.086-0.949-0.099-1.426c0-0.03-0.041-0.108,0.04-0.095
				c0.143,0.024,0.145-0.075,0.128-0.153c-0.083-0.382-0.174-0.762-0.316-1.126C-8.959,9.307-9.026,9.304-9.13,9.439
				c-0.143,0.184-0.196,0.375-0.175,0.624c0.059,0.665,0.109,1.329,0.215,1.988c0.027,0.168,0.05,0.335,0.077,0.503
				c-0.244-0.288-0.458-0.583-0.673-0.879c-0.016-0.022-0.029-0.053-0.03-0.081c-0.022-0.331-0.042-0.661-0.063-0.988
				c0.056-0.02,0.099,0.063,0.142,0.011c0.034-0.042,0.008-0.096-0.009-0.145c-0.04-0.118-0.075-0.239-0.119-0.356
				c-0.076-0.211-0.155-0.422-0.238-0.631c-0.024-0.063-0.062-0.125-0.145-0.06c-0.139,0.107-0.274,0.458-0.212,0.615
				c0.099,0.25,0.089,0.51,0.118,0.768C-10.249,10.813-10.255,10.82-10.262,10.826z M-23.519,15.076
				c-0.074,0.028-0.091,0.086-0.113,0.133c-0.126,0.262-0.232,0.534-0.303,0.816c-0.024,0.093-0.067,0.155-0.148,0.211
				c-0.582,0.394-1.193,0.736-1.817,1.059c-0.061,0.031-0.179,0.05-0.143,0.135c0.027,0.065,0.136,0.023,0.207,0.003
				c0.577-0.169,1.15-0.351,1.698-0.601c0.113-0.051,0.155-0.058,0.175,0.09c0.066,0.478,0.363,0.719,0.848,0.71
				c0.216-0.003,0.413-0.069,0.601-0.173c0.354-0.192,0.638-0.466,0.903-0.764c0.184-0.205,0.345-0.428,0.523-0.662
				c0.078,0.183,0.152,0.345,0.253,0.493c0.448,0.65,1.106,0.916,1.854,1.008c0.373,0.047,0.388,0.028,0.486-0.334
				c0.042-0.155,0.016-0.21-0.138-0.26c-0.158-0.05-0.316-0.1-0.456-0.192c-0.136-0.09-0.274-0.191-0.264-0.374
				c0.012-0.189,0.168-0.268,0.317-0.327c0.624-0.248,1.261-0.461,1.929-0.558c0.242-0.036,0.389-0.141,0.462-0.38
				c0.097-0.322,0.104-0.33-0.236-0.313c-0.837,0.041-1.674,0.069-2.514,0.051c-0.057-0.001-0.118,0.012-0.175-0.025
				c0.03-0.049,0.082-0.059,0.124-0.08c0.314-0.157,0.643-0.276,0.972-0.397c0.087-0.032,0.171-0.09,0.268-0.023
				c0.027,0.018,0.075,0.007,0.073-0.023c-0.007-0.106,0.083-0.102,0.139-0.125c0.206-0.085,0.4-0.184,0.552-0.354
				c0.268-0.3,0.248-0.636-0.061-0.891c-0.179-0.148-0.38-0.26-0.609-0.315c-0.227-0.055-0.418,0-0.559,0.191
				c-0.08,0.109-0.154,0.223-0.208,0.348c-0.08,0.187-0.083,0.375,0.023,0.549c0.065,0.109,0.016,0.132-0.072,0.158
				c-0.355,0.107-0.696,0.256-1.05,0.365c-0.408,0.125-0.617,0.397-0.695,0.799c-0.025,0.128,0.01,0.192,0.144,0.199
				c0.301,0.017,0.601,0.034,0.902,0.058c0.233,0.02,0.458,0.069,0.638,0.25c-0.499,0.228-0.872,0.521-0.732,1.145
				c-0.55-0.136-0.904-0.452-1.015-1.002c-0.091-0.452-0.157-0.909-0.249-1.36c-0.125-0.607-0.374-1.172-0.631-1.732
				c-0.018-0.039-0.029-0.098-0.082-0.098c-0.049,0.001-0.065,0.057-0.088,0.094c-0.154,0.274-0.205,0.544-0.083,0.859
				c0.226,0.583,0.399,1.186,0.569,1.789c0.025,0.087,0.024,0.158-0.021,0.241c-0.236,0.431-0.531,0.816-0.907,1.133
				c-0.255,0.215-0.534,0.393-0.883,0.417c-0.098,0.006-0.191-0.001-0.281-0.036c-0.136-0.054-0.188-0.164-0.214-0.302
				c-0.026-0.141,0.073-0.178,0.163-0.232c0.387-0.233,0.713-0.54,1.001-0.882c0.279-0.331,0.395-0.713,0.321-1.148
				c-0.038-0.229-0.101-0.449-0.176-0.667c-0.011-0.033-0.062-0.09,0.016-0.107c0.15-0.032,0.105-0.126,0.063-0.205
				c-0.112-0.204-0.26-0.381-0.427-0.542c-0.08-0.076-0.156-0.065-0.206,0.034c-0.059,0.116-0.116,0.233-0.164,0.354
				c-0.053,0.132-0.036,0.248,0.111,0.313c0.034,0.015,0.059,0.037,0.075,0.071c0.118,0.253,0.241,0.506,0.354,0.763
				c0.043,0.096,0.052,0.201,0.024,0.309c-0.018,0.075-0.038,0.148-0.083,0.208c-0.26,0.351-0.618,0.589-0.958,0.864
				C-23.548,15.555-23.448,15.315-23.519,15.076z M-27.677,23.875c0.085,0.149,0.186,0.245,0.302,0.327
				c0.365,0.259,0.79,0.333,1.218,0.39c0.629,0.084,1.261,0.079,1.893,0.084c3.807,0.039,7.611-0.038,11.416-0.124
				c0.161-0.003,0.224,0.098,0.149,0.243c-0.011,0.023-0.029,0.041-0.043,0.062c-0.112,0.155-0.044,0.412,0.128,0.494
				c0.057,0.027,0.098,0.003,0.111-0.039c0.064-0.183,0.208-0.184,0.365-0.179c0.13,0.005,0.26,0,0.391-0.004
				c0.067-0.002,0.12,0.003,0.168,0.064c0.069,0.086,0.189,0.111,0.247,0.019c0.076-0.124,0.174-0.105,0.28-0.106
				c0.16-0.004,0.321-0.001,0.481-0.006c0.079-0.001,0.137,0.013,0.198,0.076c0.167,0.171,0.406,0.138,0.54-0.062
				c0.078-0.116,0.107-0.248,0.116-0.384c0.04-0.624-0.158-0.841-0.778-0.837c-0.623,0.005-1.246,0.021-1.868,0.031
				c-0.154,0.002-0.208-0.094-0.133-0.237c0.021-0.04,0.055-0.072,0.076-0.111c0.068-0.123-0.04-0.4-0.169-0.449
				c-0.037-0.013-0.059,0.004-0.083,0.021c-0.178,0.122-0.219,0.344-0.086,0.52c0.054,0.072,0.072,0.153,0.046,0.225
				c-0.027,0.072-0.115,0.033-0.174,0.033c-4.85,0.05-9.7,0.016-14.549-0.049C-27.508,23.874-27.583,23.875-27.677,23.875z
				 M-29.256,14.644c-0.061,0.039-0.076,0.083-0.091,0.125c-0.22,0.638-0.267,1.282-0.072,1.936
				c0.091,0.304,0.246,0.562,0.564,0.677c0.225,0.081,0.457,0.109,0.695,0.09c0.526-0.042,1.022-0.195,1.5-0.411
				c0.625-0.283,0.965-0.772,1.068-1.442c0.073-0.471,0.028-0.941,0.014-1.413c-0.002-0.065-0.006-0.13-0.01-0.195
				c-0.003-0.039,0.01-0.073,0.048-0.083c0.042-0.01,0.04,0.037,0.055,0.059c0.093,0.14,0.224,0.208,0.39,0.213
				c0.247,0.008,0.456-0.074,0.614-0.261c0.071-0.084,0.124-0.088,0.181,0.007c0.015,0.025,0.039,0.047,0.061,0.067
				c0.211,0.188,0.602,0.168,0.701-0.052c0.133-0.298,0.127-0.613,0.057-0.928c-0.01-0.042-0.028-0.075-0.082-0.071
				c-0.107,0.008-0.207,0.155-0.17,0.26c0.047,0.133,0.052,0.265,0.005,0.397c-0.057,0.157-0.194,0.189-0.318,0.075
				c-0.094-0.085-0.13-0.198-0.161-0.316c-0.028-0.11-0.019-0.228-0.07-0.333c-0.067,0.029-0.066,0.089-0.085,0.139
				c-0.075,0.202-0.153,0.402-0.327,0.547c-0.214,0.177-0.417,0.111-0.479-0.16c-0.027-0.118-0.024-0.239-0.023-0.359
				c0-0.047,0.01-0.108-0.049-0.13c-0.053-0.02-0.097,0.012-0.135,0.045c-0.078,0.068-0.156,0.136-0.257,0.224
				c-0.059-0.829-0.116-1.627-0.173-2.43c0.2,0.083,0.295,0.008,0.274-0.205c-0.001-0.009,0-0.02-0.004-0.029
				c-0.136-0.376-0.273-0.752-0.411-1.128c-0.017-0.048-0.042-0.077-0.1-0.057c-0.206,0.074-0.366,0.401-0.289,0.604
				c0.021,0.055,0.023,0.107,0.022,0.162c-0.003,0.136,0.001,0.27,0.016,0.406c0.093,0.882,0.237,1.76,0.289,2.647
				c0.016,0.275,0.016,0.271-0.232,0.402c-0.063,0.033-0.095,0.032-0.127-0.035c-0.084-0.174-0.22-0.312-0.356-0.444
				c-0.288-0.276-0.51-0.241-0.744,0.082c-0.191,0.265-0.204,0.553-0.183,0.86c0.019,0.287,0.059,0.342,0.341,0.395
				c0.093,0.017,0.18,0.001,0.267-0.026c0.129-0.041,0.26-0.078,0.385-0.128c0.088-0.036,0.103-0.002,0.104,0.076
				c0.004,0.118-0.003,0.238-0.08,0.329c-0.368,0.442-0.79,0.815-1.372,0.945c-0.249,0.055-0.456-0.025-0.603-0.24
				c-0.16-0.232-0.219-0.492-0.211-0.769c0.004-0.173,0.016-0.345,0.024-0.529c-0.092,0.073-0.097,0.072-0.117,0.144
				c-0.112,0.384-0.171,0.776-0.11,1.175c0.071,0.457,0.5,0.956,1.167,0.79c0.297-0.074,0.565-0.207,0.816-0.373
				c0.542-0.36,0.906-0.819,0.84-1.519c-0.02-0.217,0.018-0.255,0.242-0.305c0,0.352,0.01,0.704-0.003,1.055
				c-0.012,0.323-0.105,0.623-0.356,0.851c-0.516,0.472-1.127,0.739-1.82,0.812c-0.502,0.052-0.903-0.193-1.034-0.618
				c-0.113-0.374-0.156-0.754-0.073-1.144C-29.216,14.959-29.225,14.809-29.256,14.644z M-28.318,15.126
				c0.15-0.178,0.21-0.374,0.206-0.604c-0.008-0.497-0.053-0.992-0.091-1.487c-0.018-0.228-0.066-0.458,0.159-0.625
				c0.039-0.028,0.053-0.084,0.083-0.124c0.051-0.066,0.069-0.193,0.155-0.186c0.072,0.006,0.067,0.132,0.097,0.205
				c0.124,0.313,0.38,0.438,0.7,0.331c0.408-0.136,0.586-0.43,0.552-0.902c-0.023-0.318-0.113-0.62-0.191-0.926
				c-0.013-0.055-0.047-0.107,0.057-0.127c0.111-0.021,0.109-0.114,0.077-0.205c-0.068-0.188-0.196-0.336-0.336-0.474
				c-0.049-0.048-0.101-0.056-0.16-0.008c-0.219,0.18-0.259,0.322-0.158,0.591c0.028,0.075,0.06,0.148,0.087,0.224
				c0.113,0.317,0.21,0.638,0.247,0.974c0.021,0.196-0.063,0.278-0.26,0.267c-0.232-0.013-0.386-0.122-0.454-0.351
				c-0.1-0.336-0.188-0.677-0.149-1.035c0.029-0.261-0.057-0.483-0.232-0.673c-0.072-0.079-0.131-0.073-0.154,0.033
				c-0.038,0.17-0.086,0.339-0.047,0.519c0.062,0.29,0.113,0.581,0.17,0.87c0.048,0.236-0.083,0.522-0.313,0.652
				c-0.044-0.479-0.088-0.952-0.134-1.424c-0.01-0.095-0.035-0.182,0.074-0.248c0.062-0.037,0.065-0.122,0.053-0.193
				c-0.044-0.273-0.18-0.507-0.331-0.733c-0.032-0.047-0.086-0.07-0.126-0.022c-0.095,0.11-0.211,0.24-0.16,0.385
				c0.057,0.158,0.06,0.321,0.1,0.478c0.142,0.574,0.124,1.166,0.191,1.748c0.013,0.098-0.031,0.093-0.102,0.075
				c-0.138-0.035-0.226-0.126-0.287-0.247c-0.183-0.359-0.194-0.73-0.076-1.11c0.052-0.168,0.093-0.338,0.076-0.517
				c-0.014-0.168-0.135-0.237-0.285-0.161c-0.103,0.052-0.167,0.142-0.227,0.235c-0.218,0.346-0.329,0.727-0.366,1.133
				c-0.02,0.199-0.039,0.4-0.129,0.583c-0.067,0.137-0.156,0.146-0.251,0.03c-0.064-0.079-0.106-0.169-0.134-0.267
				c-0.112-0.384-0.149-0.777-0.149-1.175c0-0.077,0.022-0.16-0.04-0.231c-0.058,0.047-0.065,0.113-0.081,0.175
				c-0.082,0.315-0.089,0.636-0.052,0.956c0.042,0.36,0.122,0.712,0.306,1.03c0.126,0.216,0.3,0.223,0.454,0.021
				c0.103-0.137,0.165-0.295,0.201-0.463c0.083-0.367,0.104-0.746,0.238-1.101c0.022-0.061,0.03-0.134,0.105-0.181
				c0.038,0.079,0.041,0.149,0.03,0.224c-0.036,0.269-0.066,0.538-0.045,0.81c0.038,0.488,0.248,0.951,0.809,0.961
				c0.069,0.002,0.063,0.047,0.067,0.092c0.061,0.573,0.122,1.146,0.183,1.72C-28.346,14.796-28.334,14.944-28.318,15.126z
				 M-18.481,10.181c0.009-0.006,0.018-0.013,0.026-0.019c0.053,0.037,0.105,0.074,0.158,0.11c0.037,0.027,0.081,0.056,0.124,0.031
				c0.05-0.03,0.048-0.084,0.037-0.135c-0.078-0.3-0.228-0.553-0.476-0.745c-0.085-0.065-0.144-0.048-0.194,0.04
				c-0.049,0.082-0.072,0.178-0.146,0.243c-0.089,0.078-0.092,0.164-0.051,0.271c0.078,0.201,0.152,0.403,0.211,0.61
				c0.09,0.318,0.17,0.639,0.132,0.976c-0.016,0.138-0.057,0.261-0.201,0.304c-0.14,0.042-0.242-0.033-0.325-0.137
				c-0.218-0.271-0.311-0.593-0.349-0.93c-0.04-0.353-0.04-0.711-0.12-1.06c-0.036-0.157-0.077-0.311-0.161-0.45
				c-0.021-0.036-0.061-0.096-0.097-0.026c-0.098,0.19-0.249,0.358-0.167,0.61c0.113,0.354,0.162,0.725,0.179,1.097
				c0.023,0.514-0.167,0.826-0.597,1.006c-0.35,0.147-0.619-0.021-0.633-0.397c-0.007-0.206-0.005-0.412-0.005-0.617
				c0-0.267,0.033-0.53,0.085-0.792c0.026-0.141-0.026-0.262-0.144-0.321c-0.116-0.058-0.175,0.067-0.229,0.142
				c-0.138,0.191-0.257,0.395-0.363,0.605c-0.168,0.331-0.311,0.672-0.435,1.021c-0.031,0.085-0.068,0.179-0.174,0.185
				c-0.099,0.006-0.158-0.069-0.214-0.144c-0.096-0.127-0.153-0.268-0.182-0.423c-0.07-0.37-0.064-0.738,0.01-1.106
				c0.007-0.04,0.038-0.085-0.019-0.122c-0.082,0.114-0.112,0.247-0.147,0.375c-0.179,0.645-0.106,1.242,0.344,1.763
				c0.253,0.294,0.481,0.259,0.635-0.095c0.019-0.046,0.038-0.092,0.055-0.14c0.092-0.259,0.182-0.519,0.276-0.777
				c0.026-0.07,0.058-0.139,0.091-0.206c0.012-0.026,0.03-0.058,0.067-0.047c0.034,0.01,0.038,0.043,0.038,0.073
				c-0.001,0.085,0,0.171-0.008,0.255c-0.026,0.271-0.022,0.542,0.048,0.807c0.128,0.486,0.53,0.68,0.986,0.48
				c0.273-0.121,0.495-0.305,0.651-0.56c0.064-0.105,0.098-0.093,0.161-0.005c0.046,0.064,0.105,0.121,0.164,0.176
				c0.448,0.421,0.913,0.303,1.105-0.283c0.016-0.048,0.024-0.097,0.037-0.146c0.091-0.341,0.025-0.676-0.047-1.01
				C-18.384,10.504-18.437,10.344-18.481,10.181z M-7.003,10.528c0.072-0.011,0.117,0.101,0.182,0.035
				c0.055-0.056,0.006-0.128-0.016-0.183C-6.97,10.056-7.11,9.736-7.269,9.423c-0.046-0.092-0.102-0.109-0.169-0.026
				c-0.139,0.171-0.291,0.338-0.195,0.591c0.022,0.059,0.019,0.128,0.027,0.193c0.085,0.747,0.172,1.494,0.255,2.242
				c0.092,0.832,0.19,1.663,0.201,2.502c0.008,0.608-0.17,1.144-0.603,1.584c-0.229,0.233-0.497,0.42-0.762,0.609
				c-0.1,0.07-0.194,0.143-0.288,0.218c-0.025,0.02-0.06,0.048-0.036,0.089c0.017,0.03,0.053,0.028,0.082,0.023
				c0.113-0.017,0.228-0.035,0.34-0.058c0.734-0.157,1.241-0.575,1.49-1.293c0.168-0.486,0.216-0.989,0.211-1.496
				c-0.009-1.034-0.129-2.062-0.245-3.088C-6.998,11.186-7.033,10.859-7.003,10.528z M-13.926,10.704
				c0.219,0.056,0.242,0.031,0.181-0.186c-0.067-0.241-0.132-0.483-0.201-0.724c-0.019-0.067-0.04-0.135-0.065-0.2
				c-0.061-0.148-0.083-0.153-0.191-0.041c-0.069,0.072-0.134,0.151-0.207,0.218c-0.119,0.111-0.13,0.241-0.084,0.385
				c0.015,0.043,0.036,0.084,0.042,0.129c0.115,0.88,0.242,1.759,0.305,2.645c0.055,0.761,0.098,1.523,0.145,2.284
				c0.022,0.37,0.017,0.738-0.207,1.056c-0.325,0.462-0.721,0.848-1.239,1.093c-0.13,0.062-0.272,0.098-0.408,0.149
				c-0.043,0.017-0.11,0.031-0.096,0.095c0.011,0.049,0.075,0.044,0.116,0.045c0.267,0.001,0.532-0.017,0.793-0.071
				c0.14-0.029,0.266-0.092,0.375-0.183c0.62-0.514,0.992-1.146,1.007-1.979c0.021-1.143-0.08-2.276-0.199-3.41
				C-13.903,11.575-13.951,11.142-13.926,10.704z M-12.798,11.006c-0.016-0.125-0.002-0.193,0.15-0.127
				c0.063,0.028,0.151,0.059,0.207-0.021c0.049-0.073,0.005-0.145-0.034-0.209c-0.156-0.253-0.264-0.527-0.352-0.811
				c-0.039-0.124-0.084-0.247-0.137-0.366c-0.066-0.151-0.151-0.16-0.253-0.034c-0.2,0.248-0.286,0.525-0.211,0.842
				c0.099,0.425,0.164,0.856,0.218,1.289c0.132,1.04,0.27,2.079,0.407,3.117c0.07,0.527,0.164,1.053,0.035,1.584
				c-0.018,0.073-0.028,0.16,0.04,0.188c0.068,0.029,0.121-0.045,0.158-0.107c0.014-0.021,0.029-0.041,0.041-0.063
				c0.165-0.333,0.275-0.686,0.237-1.057c-0.064-0.638-0.164-1.271-0.24-1.908C-12.626,12.55-12.712,11.778-12.798,11.006z
				 M-23.24,9.779c0.001-0.152-0.024-0.271-0.158-0.333c-0.142-0.066-0.264-0.018-0.372,0.079c-0.224,0.202-0.268,0.567-0.088,0.804
				c0.047,0.063,0.048,0.097-0.001,0.151c-0.092,0.099-0.176,0.205-0.27,0.303c-0.264,0.279-0.58,0.493-0.888,0.718
				c-0.038,0.028-0.11,0.057-0.083,0.108c0.031,0.062,0.098,0.018,0.146-0.001c0.523-0.2,0.991-0.48,1.333-0.938
				c0.045-0.061,0.084-0.118,0.176-0.118c0.076,0,0.109-0.073,0.087-0.129c-0.044-0.118,0.009-0.208,0.045-0.312
				C-23.274,9.999-23.236,9.883-23.24,9.779z M-30.174,15.287c-0.16,0.449-0.361,0.887-0.314,1.382
				c0.014,0.139-0.003,0.283,0.047,0.417c0.047,0.124,0.124,0.219,0.266,0.234c0.134,0.013,0.231-0.051,0.306-0.154
				c0.073-0.1,0.103-0.217,0.111-0.337c0.004-0.072,0.041-0.178-0.032-0.208c-0.086-0.035-0.105,0.082-0.151,0.133
				c-0.043,0.05-0.08,0.117-0.152,0.107c-0.083-0.012-0.118-0.083-0.143-0.157c-0.062-0.183-0.048-0.366-0.01-0.548
				C-30.186,15.87-30.059,15.592-30.174,15.287z M-11.325,12.356c-0.075-0.065-0.092-0.129-0.118-0.187
				c-0.073-0.16-0.141-0.32-0.243-0.465c-0.038-0.054-0.085-0.088-0.152-0.063c-0.063,0.024-0.088,0.076-0.085,0.144
				c0.003,0.09,0,0.18,0.002,0.27c0.002,0.09,0.074,0.131,0.129,0.081c0.106-0.097,0.14-0.014,0.181,0.052
				c0.064,0.106,0.117,0.221,0.182,0.326c0.051,0.081,0.064,0.244,0.164,0.221c0.105-0.025,0.072-0.179,0.075-0.282
				c0.005-0.21-0.016-0.421,0.011-0.63c0.014-0.107,0.059-0.173,0.181-0.111c0.04,0.02,0.083,0.052,0.119-0.001
				c0.028-0.04,0.026-0.084,0.003-0.128c-0.022-0.039-0.043-0.079-0.064-0.119c-0.073-0.152-0.128-0.162-0.254-0.048
				c-0.154,0.138-0.148,0.318-0.132,0.5C-11.316,12.053-11.29,12.19-11.325,12.356z M-30.531,14.398
				c0.508-0.33,1.044-0.599,1.62-0.783c0.005-0.002,0.01-0.005,0.013-0.007c0.117-0.067,0.086-0.173,0.057-0.267
				c-0.032-0.108-0.112-0.044-0.171-0.025c-0.249,0.08-0.483,0.188-0.706,0.326C-30.037,13.839-30.314,14.084-30.531,14.398z
				 M-16.623,16.92c-0.106-0.045-0.173-0.003-0.24,0.024c-0.12,0.051-0.236,0.108-0.356,0.16c-0.077,0.033-0.168,0.087-0.24,0.031
				c-0.076-0.059-0.032-0.157-0.015-0.24c0.018-0.083,0.042-0.165,0.053-0.25c0.009-0.05-0.002-0.117-0.073-0.097
				c-0.194,0.058-0.354,0.174-0.527,0.313c0.135,0.043,0.25-0.089,0.312-0.011c0.061,0.078-0.029,0.197-0.042,0.3
				c0,0.005-0.001,0.01-0.002,0.015c-0.016,0.147,0.06,0.244,0.206,0.258c0.09,0.009,0.18,0.003,0.266-0.034
				C-17.034,17.286-16.835,17.112-16.623,16.92z M-19.468,12.764c-0.014,0.132-0.026,0.265-0.04,0.397
				c-0.003,0.04-0.01,0.085-0.056,0.096c-0.048,0.011-0.071-0.032-0.091-0.064c-0.041-0.075-0.076-0.153-0.114-0.229
				c-0.014-0.03-0.021-0.075-0.067-0.065c-0.036,0.008-0.035,0.045-0.04,0.074c-0.008,0.069-0.014,0.14-0.027,0.208
				c-0.011,0.058-0.013,0.132-0.088,0.139c-0.065,0.005-0.087-0.063-0.107-0.111c-0.036-0.093-0.065-0.188-0.111-0.323
				c-0.048,0.214-0.057,0.381,0.017,0.543c0.037,0.081,0.09,0.151,0.188,0.153c0.086,0.001,0.133-0.062,0.162-0.135
				c0.031-0.08,0.063-0.099,0.141-0.039c0.145,0.113,0.289,0.062,0.347-0.116C-19.293,13.102-19.353,12.93-19.468,12.764z
				 M-9.946,16.602c-0.073,0.025-0.186-0.032-0.231,0.097c-0.042,0.12,0.045,0.155,0.122,0.205c0.103,0.067,0.081,0.15,0.008,0.226
				c-0.055,0.057-0.124,0.101-0.177,0.161c-0.078,0.088-0.043,0.187,0.074,0.189c0.213,0.004,0.393-0.092,0.556-0.222
				c0.04-0.03,0.042-0.08,0.027-0.125c-0.014-0.048-0.059-0.043-0.099-0.047c-0.154-0.013-0.167-0.039-0.095-0.179
				c0.018-0.035,0.036-0.07,0.056-0.105c0.055-0.106,0.001-0.16-0.094-0.187C-9.843,16.604-9.889,16.606-9.946,16.602z
				 M-10.478,13.106c-0.003-0.025,0.014-0.115-0.056-0.147c-0.068-0.03-0.115,0.045-0.159,0.088
				c-0.23,0.226-0.496,0.409-0.748,0.606c-0.099,0.078-0.193,0.161-0.283,0.248c-0.035,0.034-0.066,0.092-0.031,0.136
				c0.036,0.042,0.086,0.004,0.121-0.02c0.334-0.249,0.687-0.468,1.051-0.672C-10.507,13.304-10.463,13.239-10.478,13.106z
				 M-8.042,11.343c0.119-0.094,0.127-0.219,0.134-0.342c0.021-0.366-0.021-0.719-0.199-1.046c-0.027-0.049-0.051-0.123-0.133-0.06
				c-0.115,0.088-0.151,0.26-0.075,0.389c0.106,0.179,0.177,0.37,0.211,0.573C-8.076,11.017-8.063,11.181-8.042,11.343z
				 M-15.029,10.203c-0.021-0.24-0.082-0.486-0.238-0.698c-0.076-0.104-0.135-0.1-0.211,0.003c-0.114,0.154-0.11,0.241,0.03,0.379
				c0.183,0.178,0.262,0.385,0.202,0.639c-0.008,0.039-0.012,0.08-0.012,0.12c0,0.032-0.005,0.077,0.04,0.086
				c0.035,0.008,0.045-0.031,0.062-0.055C-15.062,10.541-15.036,10.384-15.029,10.203z M-23.499,11.858
				c-0.083,0.021-0.125,0.097-0.186,0.145c-0.087,0.07-0.174,0.165-0.29,0.08c-0.107-0.079-0.076-0.201-0.038-0.305
				c0.03-0.083,0.081-0.16,0.122-0.239c0.018-0.036,0.036-0.071,0.052-0.108c0.011-0.022,0.022-0.051-0.008-0.064
				c-0.014-0.006-0.038,0-0.054,0.008c-0.181,0.101-0.378,0.534-0.338,0.736c0.031,0.151,0.167,0.265,0.306,0.254
				C-23.704,12.35-23.489,12.1-23.499,11.858z M-15.1,11.215c-0.082,0.057-0.058,0.156-0.096,0.229
				c-0.016,0.03-0.012,0.077-0.056,0.078c-0.039,0-0.052-0.04-0.073-0.069c-0.032-0.049-0.027-0.124-0.105-0.158
				c-0.026,0.116-0.024,0.219,0.009,0.321c0.046,0.137,0.108,0.162,0.217,0.068c0.09-0.078,0.158-0.082,0.248-0.006
				c0.087,0.073,0.189,0.073,0.234-0.041c0.067-0.169,0.047-0.343-0.015-0.53c-0.087,0.087-0.084,0.184-0.119,0.264
				c-0.019,0.049-0.021,0.121-0.092,0.12c-0.072-0.001-0.07-0.077-0.093-0.124C-15.064,11.32-15.059,11.26-15.1,11.215z
				 M-10.442,14.396c-0.021-0.189-0.092-0.377-0.248-0.528c-0.064-0.063-0.137-0.061-0.196,0.008
				c-0.055,0.063-0.144,0.149-0.053,0.217c0.222,0.164,0.364,0.343,0.271,0.635c-0.007,0.017,0.012,0.053,0.029,0.063
				c0.024,0.013,0.043-0.014,0.06-0.032C-10.49,14.663-10.448,14.547-10.442,14.396z M-27.382,9.436
				c-0.042,0.079-0.076,0.155-0.12,0.226c-0.031,0.051-0.073,0.103-0.143,0.087c-0.07-0.017-0.081-0.08-0.088-0.142
				c-0.008-0.08,0.005-0.166-0.06-0.238c-0.086,0.086-0.101,0.183-0.088,0.285c0.03,0.261,0.222,0.354,0.425,0.201
				c0.072-0.055,0.093-0.012,0.128,0.032c0.077,0.096,0.168,0.094,0.24,0.006c0.08-0.1,0.114-0.217,0.03-0.338
				c-0.052,0.017-0.036,0.061-0.05,0.09c-0.024,0.051-0.026,0.128-0.107,0.123c-0.08-0.006-0.099-0.076-0.12-0.137
				C-27.357,9.571-27.335,9.501-27.382,9.436z M-24.495,15.664c0.244-0.248,0.249-0.66,0.172-0.891
				c-0.038-0.114-0.148-0.16-0.255-0.125c-0.127,0.042-0.145,0.17-0.145,0.286c0,0.117,0.079,0.155,0.185,0.137
				c0.075-0.012,0.082,0.034,0.085,0.087c0.006,0.121-0.009,0.239-0.042,0.355C-24.506,15.558-24.536,15.604-24.495,15.664z
				 M-20.498,10.806c0.143-0.411,0.148-0.82-0.038-1.221c-0.023-0.048-0.063-0.121-0.137-0.073c-0.062,0.04-0.128,0.091-0.104,0.183
				c0.011,0.037,0.033,0.072,0.054,0.105c0.156,0.24,0.214,0.504,0.196,0.788C-20.532,10.661-20.54,10.735-20.498,10.806z
				 M-29.871,10.161c0.139-0.15,0.188-0.337,0.208-0.532c0.012-0.122,0.005-0.257-0.122-0.312c-0.133-0.057-0.205,0.07-0.283,0.149
				c-0.045,0.044-0.097,0.106-0.045,0.17c0.051,0.062,0.11,0.012,0.16-0.018c0.104-0.063,0.135-0.009,0.141,0.084
				c0.008,0.105,0.008,0.224-0.042,0.307C-29.891,10.074-29.771,10.128-29.871,10.161z"/>
		</g>
	</g>
</g>
<g id="Imagenes">
</g>
<g id="Cintillos">
</g>
<g id="Botones">
</g>
<g id="TXT">
</g>
<g id="Logo">
</g>
<g id="Guia">
</g>
</svg>
