<?xml version="1.0" encoding="utf-8"?>
<!-- Generator: Adobe Illustrator 16.0.0, SVG Export Plug-In . SVG Version: 6.00 Build 0)  -->
<!DOCTYPE svg PUBLIC "-//W3C//DTD SVG 1.1//EN" "http://www.w3.org/Graphics/SVG/1.1/DTD/svg11.dtd">
<svg version="1.1" xmlns="http://www.w3.org/2000/svg" xmlns:xlink="http://www.w3.org/1999/xlink" x="0px" y="0px"
	 width="34.417px" height="34.25px" viewBox="0 0 34.417 34.25" enable-background="new 0 0 34.417 34.25" xml:space="preserve">
<g id="Soporte">
</g>
<g id="Publicidad">
</g>
<g id="Iconos">
	<g>
		<defs>
			<circle id="SVGID_7_" cx="53.5" cy="17.345" r="15.917"/>
		</defs>
		<clipPath id="SVGID_2_">
			<use xlink:href="#SVGID_7_"  overflow="visible"/>
		</clipPath>
		<g clip-path="url(#SVGID_2_)">
			<path fill-rule="evenodd" clip-rule="evenodd" fill="#FECD00" d="M80.079,22.622c0,3.559-0.001,7.117,0.004,10.676
				c0,0.144-0.028,0.173-0.173,0.173c-17.89-0.005-35.78-0.005-53.67,0c-0.144,0-0.172-0.029-0.172-0.173
				c0.005-3.559,0.004-7.117,0.004-10.676C44.074,22.622,62.077,22.622,80.079,22.622z"/>
			<path fill-rule="evenodd" clip-rule="evenodd" d="M26.072,11.821c0-3.545,0-7.089-0.004-10.633c0-0.146,0.028-0.173,0.172-0.173
				c17.891,0.004,35.78,0.004,53.67,0c0.145,0,0.173,0.027,0.173,0.173c-0.005,3.544-0.004,7.088-0.004,10.633
				C62.077,11.821,44.074,11.821,26.072,11.821z"/>
			<path fill-rule="evenodd" clip-rule="evenodd" fill="#DC0000" d="M26.072,11.821c18.002,0,36.005,0,54.007,0
				c0,3.6,0,7.201,0,10.801c-18.002,0-36.005,0-54.007,0C26.072,19.022,26.072,15.42,26.072,11.821z"/>
		</g>
	</g>
	<g>
		<defs>
			<circle id="SVGID_9_" cx="17.366" cy="17.345" r="15.917"/>
		</defs>
		<clipPath id="SVGID_4_">
			<use xlink:href="#SVGID_9_"  overflow="visible"/>
		</clipPath>
		<g clip-path="url(#SVGID_4_)">
			<path fill-rule="evenodd" clip-rule="evenodd" fill="#009530" d="M17.365,33.418c-7.988,0-15.976-0.001-23.964,0.002
				c-0.11,0-0.141-0.02-0.141-0.137c0.004-10.624,0.004-21.248,0-31.872c0-0.128,0.034-0.143,0.149-0.142
				C9.381,1.272,25.353,1.272,41.323,1.269c0.12,0,0.149,0.019,0.149,0.145c-0.004,10.619-0.004,21.237,0,31.857
				c0,0.135-0.038,0.15-0.158,0.15C33.33,33.417,25.348,33.418,17.365,33.418z M18.947,10.409c0.071,0.008,0.158,0.062,0.209-0.015
				c0.055-0.085-0.025-0.151-0.076-0.208c-0.26-0.296-0.558-0.548-0.855-0.803c-0.045-0.039-0.099-0.076-0.164-0.044
				C17.995,9.372,18,9.436,18.002,9.496c0.006,0.185,0.015,0.371,0.021,0.556c0.002,0.083,0.042,0.154,0.111,0.183
				c0.127,0.052,0.191,0.158,0.266,0.256c0.342,0.446,0.666,0.905,0.988,1.366c0.066,0.094,0.099,0.192,0.113,0.303
				c0.098,0.766,0.203,1.531,0.291,2.298c0.078,0.702,0.183,1.406-0.005,2.109c-0.016,0.059-0.039,0.156,0.031,0.175
				c0.066,0.017,0.089-0.079,0.115-0.136c0.191-0.43,0.248-0.885,0.245-1.35c-0.001-0.599-0.104-1.189-0.145-1.785
				c-0.015-0.215-0.034-0.431-0.05-0.646c0.047,0.022,0.066,0.049,0.084,0.078c0.557,0.881,1.121,1.757,1.528,2.722
				c0.022,0.053,0.044,0.146,0.104,0.13c0.075-0.021,0.035-0.111,0.029-0.17c-0.026-0.308-0.129-0.596-0.252-0.876
				c-0.389-0.879-0.905-1.685-1.417-2.493c-0.085-0.134-0.149-0.267-0.146-0.43c0.004-0.282,0.002-0.565,0.002-0.843
				c0.139,0.051,0.18,0.019,0.161-0.147c-0.006-0.049-0.021-0.098-0.035-0.146c-0.078-0.27-0.189-0.527-0.301-0.785
				c-0.041-0.096-0.072-0.198-0.137-0.283c-0.062-0.081-0.146-0.093-0.199-0.01c-0.101,0.156-0.204,0.34-0.133,0.52
				c0.074,0.183,0.077,0.368,0.104,0.553c0.022,0.169,0.038,0.34,0.057,0.51c-0.011,0.004-0.023,0.007-0.033,0.011
				c-0.16-0.239-0.321-0.479-0.481-0.718C18.926,10.434,18.937,10.421,18.947,10.409z M25.738,10.826
				c-0.128-0.134-0.218-0.294-0.32-0.448c0.161-0.052,0.188-0.106,0.089-0.205c-0.228-0.227-0.47-0.437-0.688-0.675
				c-0.034-0.035-0.085-0.063-0.136-0.036c-0.045,0.022-0.047,0.076-0.049,0.119c-0.003,0.125,0.014,0.254-0.005,0.376
				c-0.034,0.223,0.046,0.396,0.182,0.564c0.297,0.366,0.582,0.743,0.878,1.109c0.112,0.136,0.187,0.273,0.181,0.458
				c-0.004,0.164,0.023,0.33,0.036,0.495c0.056,0.805,0.139,1.61,0.123,2.419c-0.004,0.186-0.021,0.37-0.099,0.544
				c-0.121,0.268-0.403,0.334-0.63,0.149c-0.15-0.122-0.242-0.292-0.367-0.436c-0.202-0.231-0.322-0.225-0.493,0.025
				c-0.254,0.368-0.46,0.763-0.658,1.164c-0.058,0.117-0.108,0.237-0.195,0.337c-0.128,0.149-0.256,0.142-0.367-0.02
				c-0.027-0.041-0.051-0.087-0.07-0.132c-0.136-0.309-0.187-0.632-0.182-0.968c0.001-0.136,0.013-0.276-0.045-0.407
				c-0.054,0.008-0.052,0.052-0.062,0.082c-0.096,0.308-0.153,0.623-0.191,0.942c-0.051,0.432,0.078,0.782,0.454,1.022
				c0.026,0.016,0.048,0.037,0.071,0.056c0.264,0.21,0.377,0.191,0.574-0.087c0.226-0.322,0.385-0.68,0.556-1.03
				c0.066-0.136,0.135-0.268,0.248-0.374c0.072-0.067,0.122-0.069,0.177,0.02c0.097,0.154,0.216,0.293,0.374,0.387
				c0.478,0.284,0.906,0.238,1.187-0.238c0.121-0.206,0.172-0.44,0.174-0.678c0.009-0.708-0.068-1.414-0.098-2.12
				c-0.009-0.214-0.021-0.429-0.033-0.644c0.224,0.26,0.403,0.538,0.61,0.793c0.179,0.221,0.25,0.467,0.287,0.74
				c0.068,0.499,0.088,0.999,0.078,1.501c0,0.044-0.022,0.119,0.04,0.127c0.058,0.006,0.061-0.07,0.075-0.115
				c0.096-0.29,0.107-0.589,0.09-0.892c-0.012-0.19-0.019-0.381-0.029-0.615c0.042,0.052,0.056,0.066,0.067,0.081
				c0.318,0.451,0.659,0.885,0.924,1.371c0.022,0.041,0.045,0.114,0.095,0.102c0.068-0.016,0.035-0.093,0.038-0.143
				c0.019-0.338-0.088-0.641-0.261-0.925c-0.267-0.437-0.571-0.849-0.856-1.272c-0.052-0.078-0.082-0.154-0.088-0.249
				c-0.019-0.281-0.05-0.561-0.075-0.84c-0.04-0.475-0.086-0.949-0.099-1.426c0-0.03-0.041-0.108,0.04-0.095
				c0.143,0.024,0.145-0.075,0.128-0.153c-0.083-0.382-0.174-0.762-0.316-1.126c-0.061-0.155-0.128-0.157-0.232-0.022
				c-0.143,0.184-0.196,0.375-0.175,0.624c0.059,0.665,0.109,1.329,0.215,1.988c0.027,0.168,0.05,0.335,0.077,0.503
				c-0.244-0.288-0.458-0.583-0.673-0.879c-0.016-0.022-0.029-0.053-0.03-0.081c-0.022-0.331-0.042-0.661-0.063-0.988
				c0.056-0.02,0.099,0.063,0.142,0.011c0.034-0.042,0.008-0.096-0.009-0.145c-0.04-0.118-0.075-0.239-0.119-0.356
				c-0.076-0.211-0.155-0.422-0.238-0.631c-0.024-0.063-0.062-0.125-0.145-0.06c-0.139,0.107-0.274,0.458-0.212,0.615
				c0.099,0.25,0.089,0.51,0.118,0.768C25.751,10.813,25.745,10.82,25.738,10.826z M12.481,15.076
				c-0.074,0.028-0.091,0.086-0.113,0.133c-0.126,0.262-0.232,0.534-0.303,0.816c-0.024,0.093-0.067,0.155-0.148,0.211
				c-0.582,0.394-1.193,0.736-1.817,1.059c-0.061,0.031-0.179,0.05-0.143,0.135c0.027,0.065,0.136,0.023,0.207,0.003
				c0.577-0.169,1.15-0.351,1.698-0.601c0.113-0.051,0.155-0.058,0.175,0.09c0.066,0.478,0.363,0.719,0.848,0.71
				c0.216-0.003,0.413-0.069,0.601-0.173c0.354-0.192,0.638-0.466,0.903-0.764c0.184-0.205,0.345-0.428,0.523-0.662
				c0.078,0.183,0.152,0.345,0.253,0.493c0.448,0.65,1.106,0.916,1.854,1.008c0.373,0.047,0.388,0.028,0.486-0.334
				c0.042-0.155,0.016-0.21-0.138-0.26c-0.158-0.05-0.316-0.1-0.456-0.192c-0.136-0.09-0.274-0.191-0.264-0.374
				c0.012-0.189,0.168-0.268,0.317-0.327c0.624-0.248,1.261-0.461,1.929-0.558c0.242-0.036,0.389-0.141,0.462-0.38
				c0.097-0.322,0.104-0.33-0.236-0.313c-0.837,0.041-1.674,0.069-2.514,0.051c-0.057-0.001-0.118,0.012-0.175-0.025
				c0.03-0.049,0.082-0.059,0.124-0.08c0.314-0.157,0.643-0.276,0.972-0.397c0.087-0.032,0.171-0.09,0.268-0.023
				c0.027,0.018,0.075,0.007,0.073-0.023c-0.007-0.106,0.083-0.102,0.139-0.125c0.206-0.085,0.4-0.184,0.552-0.354
				c0.268-0.3,0.248-0.636-0.061-0.891c-0.179-0.148-0.38-0.26-0.609-0.315c-0.227-0.055-0.418,0-0.559,0.191
				c-0.08,0.109-0.154,0.223-0.208,0.348c-0.08,0.187-0.083,0.375,0.023,0.549c0.065,0.109,0.016,0.132-0.072,0.158
				c-0.355,0.107-0.696,0.256-1.05,0.365c-0.408,0.125-0.617,0.397-0.695,0.799c-0.025,0.128,0.01,0.192,0.144,0.199
				c0.301,0.017,0.601,0.034,0.902,0.058c0.233,0.02,0.458,0.069,0.638,0.25c-0.499,0.228-0.872,0.521-0.732,1.145
				c-0.55-0.136-0.904-0.452-1.015-1.002c-0.091-0.452-0.157-0.909-0.249-1.36c-0.125-0.607-0.374-1.172-0.631-1.732
				c-0.018-0.039-0.029-0.098-0.082-0.098c-0.049,0.001-0.065,0.057-0.088,0.094c-0.154,0.274-0.205,0.544-0.083,0.859
				c0.226,0.583,0.399,1.186,0.569,1.789c0.025,0.087,0.024,0.158-0.021,0.241c-0.236,0.431-0.531,0.816-0.907,1.133
				c-0.255,0.215-0.534,0.393-0.883,0.417c-0.098,0.006-0.191-0.001-0.281-0.036c-0.136-0.054-0.188-0.164-0.214-0.302
				c-0.026-0.141,0.073-0.178,0.163-0.232c0.387-0.233,0.713-0.54,1.001-0.882c0.279-0.331,0.395-0.713,0.321-1.148
				c-0.038-0.229-0.101-0.449-0.176-0.667c-0.011-0.033-0.062-0.09,0.016-0.107c0.15-0.032,0.105-0.126,0.063-0.205
				c-0.112-0.204-0.26-0.381-0.427-0.542c-0.08-0.076-0.156-0.065-0.206,0.034c-0.059,0.116-0.116,0.233-0.164,0.354
				c-0.053,0.132-0.036,0.248,0.111,0.313c0.034,0.015,0.059,0.037,0.075,0.071c0.118,0.253,0.241,0.506,0.354,0.763
				c0.043,0.096,0.052,0.201,0.024,0.309c-0.018,0.075-0.038,0.148-0.083,0.208c-0.26,0.351-0.618,0.589-0.958,0.864
				C12.452,15.555,12.552,15.315,12.481,15.076z M8.323,23.875c0.085,0.149,0.186,0.245,0.302,0.327
				c0.365,0.259,0.79,0.333,1.218,0.39c0.629,0.084,1.261,0.079,1.893,0.084c3.807,0.039,7.611-0.038,11.416-0.124
				c0.161-0.003,0.224,0.098,0.149,0.243c-0.011,0.023-0.029,0.041-0.043,0.062c-0.112,0.155-0.044,0.412,0.128,0.494
				c0.057,0.027,0.098,0.003,0.111-0.039c0.064-0.183,0.208-0.184,0.365-0.179c0.13,0.005,0.26,0,0.391-0.004
				c0.067-0.002,0.12,0.003,0.168,0.064c0.069,0.086,0.189,0.111,0.247,0.019c0.076-0.124,0.174-0.105,0.28-0.106
				c0.16-0.004,0.321-0.001,0.481-0.006c0.079-0.001,0.137,0.013,0.198,0.076c0.167,0.171,0.406,0.138,0.54-0.062
				c0.078-0.116,0.107-0.248,0.116-0.384c0.04-0.624-0.158-0.841-0.778-0.837c-0.623,0.005-1.246,0.021-1.868,0.031
				c-0.154,0.002-0.208-0.094-0.133-0.237c0.021-0.04,0.055-0.072,0.076-0.111c0.068-0.123-0.04-0.4-0.169-0.449
				c-0.037-0.013-0.059,0.004-0.083,0.021c-0.178,0.122-0.219,0.344-0.086,0.52c0.054,0.072,0.072,0.153,0.046,0.225
				c-0.027,0.072-0.115,0.033-0.174,0.033c-4.85,0.05-9.7,0.016-14.549-0.049C8.492,23.874,8.417,23.875,8.323,23.875z
				 M6.744,14.644c-0.061,0.039-0.076,0.083-0.091,0.125c-0.22,0.638-0.267,1.282-0.072,1.936c0.091,0.304,0.246,0.562,0.564,0.677
				c0.225,0.081,0.457,0.109,0.695,0.09c0.526-0.042,1.022-0.195,1.5-0.411c0.625-0.283,0.965-0.772,1.068-1.442
				c0.073-0.471,0.028-0.941,0.014-1.413c-0.002-0.065-0.006-0.13-0.01-0.195c-0.003-0.039,0.01-0.073,0.048-0.083
				c0.042-0.01,0.04,0.037,0.055,0.059c0.093,0.14,0.224,0.208,0.39,0.213c0.247,0.008,0.456-0.074,0.614-0.261
				c0.071-0.084,0.124-0.088,0.181,0.007c0.015,0.025,0.039,0.047,0.061,0.067c0.211,0.188,0.602,0.168,0.701-0.052
				c0.133-0.298,0.127-0.613,0.057-0.928c-0.01-0.042-0.028-0.075-0.082-0.071c-0.107,0.008-0.207,0.155-0.17,0.26
				c0.047,0.133,0.052,0.265,0.005,0.397c-0.057,0.157-0.194,0.189-0.318,0.075c-0.094-0.085-0.13-0.198-0.161-0.316
				c-0.028-0.11-0.019-0.228-0.07-0.333c-0.067,0.029-0.066,0.089-0.085,0.139c-0.075,0.202-0.153,0.402-0.327,0.547
				c-0.214,0.177-0.417,0.111-0.479-0.16c-0.027-0.118-0.024-0.239-0.023-0.359c0-0.047,0.01-0.108-0.049-0.13
				c-0.053-0.02-0.097,0.012-0.135,0.045c-0.078,0.068-0.156,0.136-0.257,0.224c-0.059-0.829-0.116-1.627-0.173-2.43
				c0.2,0.083,0.295,0.008,0.274-0.205c-0.001-0.009,0-0.02-0.004-0.029c-0.136-0.376-0.273-0.752-0.411-1.128
				c-0.017-0.048-0.042-0.077-0.1-0.057c-0.206,0.074-0.366,0.401-0.289,0.604c0.021,0.055,0.023,0.107,0.022,0.162
				c-0.003,0.136,0.001,0.27,0.016,0.406c0.093,0.882,0.237,1.76,0.289,2.647c0.016,0.275,0.016,0.271-0.232,0.402
				c-0.063,0.033-0.095,0.032-0.127-0.035c-0.084-0.174-0.22-0.312-0.356-0.444c-0.288-0.276-0.51-0.241-0.744,0.082
				c-0.191,0.265-0.204,0.553-0.183,0.86c0.019,0.287,0.059,0.342,0.341,0.395c0.093,0.017,0.18,0.001,0.267-0.026
				c0.129-0.041,0.26-0.078,0.385-0.128c0.088-0.036,0.103-0.002,0.104,0.076c0.004,0.118-0.003,0.238-0.08,0.329
				c-0.368,0.442-0.79,0.815-1.372,0.945c-0.249,0.055-0.456-0.025-0.603-0.24c-0.16-0.232-0.219-0.492-0.211-0.769
				c0.004-0.173,0.016-0.345,0.024-0.529c-0.092,0.073-0.097,0.072-0.117,0.144c-0.112,0.384-0.171,0.776-0.11,1.175
				c0.071,0.457,0.5,0.956,1.167,0.79c0.297-0.074,0.565-0.207,0.816-0.373c0.542-0.36,0.906-0.819,0.84-1.519
				c-0.02-0.217,0.018-0.255,0.242-0.305c0,0.352,0.01,0.704-0.003,1.055c-0.012,0.323-0.105,0.623-0.356,0.851
				c-0.516,0.472-1.127,0.739-1.82,0.812c-0.502,0.052-0.903-0.193-1.034-0.618c-0.113-0.374-0.156-0.754-0.073-1.144
				C6.784,14.959,6.775,14.809,6.744,14.644z M7.682,15.126c0.15-0.178,0.21-0.374,0.206-0.604
				c-0.008-0.497-0.053-0.992-0.091-1.487c-0.018-0.228-0.066-0.458,0.159-0.625c0.039-0.028,0.053-0.084,0.083-0.124
				c0.051-0.066,0.069-0.193,0.155-0.186c0.072,0.006,0.067,0.132,0.097,0.205c0.124,0.313,0.38,0.438,0.7,0.331
				c0.408-0.136,0.586-0.43,0.552-0.902c-0.023-0.318-0.113-0.62-0.191-0.926c-0.013-0.055-0.047-0.107,0.057-0.127
				c0.111-0.021,0.109-0.114,0.077-0.205c-0.068-0.188-0.196-0.336-0.336-0.474C9.101,9.954,9.049,9.947,8.99,9.995
				c-0.219,0.18-0.259,0.322-0.158,0.591c0.028,0.075,0.06,0.148,0.087,0.224c0.113,0.317,0.21,0.638,0.247,0.974
				c0.021,0.196-0.063,0.278-0.26,0.267c-0.232-0.013-0.386-0.122-0.454-0.351c-0.1-0.336-0.188-0.677-0.149-1.035
				c0.029-0.261-0.057-0.483-0.232-0.673c-0.072-0.079-0.131-0.073-0.154,0.033c-0.038,0.17-0.086,0.339-0.047,0.519
				c0.062,0.29,0.113,0.581,0.17,0.87c0.048,0.236-0.083,0.522-0.313,0.652c-0.044-0.479-0.088-0.952-0.134-1.424
				c-0.01-0.095-0.035-0.182,0.074-0.248c0.062-0.037,0.065-0.122,0.053-0.193C7.676,9.926,7.54,9.692,7.389,9.466
				c-0.032-0.047-0.086-0.07-0.126-0.022c-0.095,0.11-0.211,0.24-0.16,0.385c0.057,0.158,0.06,0.321,0.1,0.478
				c0.142,0.574,0.124,1.166,0.191,1.748c0.013,0.098-0.031,0.093-0.102,0.075c-0.138-0.035-0.226-0.126-0.287-0.247
				c-0.183-0.359-0.194-0.73-0.076-1.11c0.052-0.168,0.093-0.338,0.076-0.517c-0.014-0.168-0.135-0.237-0.285-0.161
				c-0.103,0.052-0.167,0.142-0.227,0.235c-0.218,0.346-0.329,0.727-0.366,1.133c-0.02,0.199-0.039,0.4-0.129,0.583
				c-0.067,0.137-0.156,0.146-0.251,0.03c-0.064-0.079-0.106-0.169-0.134-0.267c-0.112-0.384-0.149-0.777-0.149-1.175
				c0-0.077,0.022-0.16-0.04-0.231c-0.058,0.047-0.065,0.113-0.081,0.175c-0.082,0.315-0.089,0.636-0.052,0.956
				c0.042,0.36,0.122,0.712,0.306,1.03c0.126,0.216,0.3,0.223,0.454,0.021c0.103-0.137,0.165-0.295,0.201-0.463
				c0.083-0.367,0.104-0.746,0.238-1.101c0.022-0.061,0.03-0.134,0.105-0.181c0.038,0.079,0.041,0.149,0.03,0.224
				c-0.036,0.269-0.066,0.538-0.045,0.81c0.038,0.488,0.248,0.951,0.809,0.961c0.069,0.002,0.063,0.047,0.067,0.092
				c0.061,0.573,0.122,1.146,0.183,1.72C7.654,14.796,7.666,14.944,7.682,15.126z M17.519,10.181
				c0.009-0.006,0.018-0.013,0.026-0.019c0.053,0.037,0.105,0.074,0.158,0.11c0.037,0.027,0.081,0.056,0.124,0.031
				c0.05-0.03,0.048-0.084,0.037-0.135c-0.078-0.3-0.228-0.553-0.476-0.745c-0.085-0.065-0.144-0.048-0.194,0.04
				c-0.049,0.082-0.072,0.178-0.146,0.243c-0.089,0.078-0.092,0.164-0.051,0.271c0.078,0.201,0.152,0.403,0.211,0.61
				c0.09,0.318,0.17,0.639,0.132,0.976c-0.016,0.138-0.057,0.261-0.201,0.304c-0.14,0.042-0.242-0.033-0.325-0.137
				c-0.218-0.271-0.311-0.593-0.349-0.93c-0.04-0.353-0.04-0.711-0.12-1.06c-0.036-0.157-0.077-0.311-0.161-0.45
				c-0.021-0.036-0.061-0.096-0.097-0.026c-0.098,0.19-0.249,0.358-0.167,0.61c0.113,0.354,0.162,0.725,0.179,1.097
				c0.023,0.514-0.167,0.826-0.597,1.006c-0.35,0.147-0.619-0.021-0.633-0.397c-0.007-0.206-0.005-0.412-0.005-0.617
				c0-0.267,0.033-0.53,0.085-0.792c0.026-0.141-0.026-0.262-0.144-0.321c-0.116-0.058-0.175,0.067-0.229,0.142
				c-0.138,0.191-0.257,0.395-0.363,0.605c-0.168,0.331-0.311,0.672-0.435,1.021c-0.031,0.085-0.068,0.179-0.174,0.185
				c-0.099,0.006-0.158-0.069-0.214-0.144c-0.096-0.127-0.153-0.268-0.182-0.423c-0.07-0.37-0.064-0.738,0.01-1.106
				c0.007-0.04,0.038-0.085-0.019-0.122c-0.082,0.114-0.112,0.247-0.147,0.375c-0.179,0.645-0.106,1.242,0.344,1.763
				c0.253,0.294,0.481,0.259,0.635-0.095c0.019-0.046,0.038-0.092,0.055-0.14c0.092-0.259,0.182-0.519,0.276-0.777
				c0.026-0.07,0.058-0.139,0.091-0.206c0.012-0.026,0.03-0.058,0.067-0.047c0.034,0.01,0.038,0.043,0.038,0.073
				c-0.001,0.085,0,0.171-0.008,0.255c-0.026,0.271-0.022,0.542,0.048,0.807c0.128,0.486,0.53,0.68,0.986,0.48
				c0.273-0.121,0.495-0.305,0.651-0.56c0.064-0.105,0.098-0.093,0.161-0.005c0.046,0.064,0.105,0.121,0.164,0.176
				c0.448,0.421,0.913,0.303,1.105-0.283c0.016-0.048,0.024-0.097,0.037-0.146c0.091-0.341,0.025-0.676-0.047-1.01
				C17.616,10.504,17.563,10.344,17.519,10.181z M28.997,10.528c0.072-0.011,0.117,0.101,0.182,0.035
				c0.055-0.056,0.006-0.128-0.016-0.183c-0.132-0.324-0.273-0.645-0.432-0.957c-0.046-0.092-0.102-0.109-0.169-0.026
				c-0.139,0.171-0.291,0.338-0.195,0.591c0.022,0.059,0.019,0.128,0.027,0.193c0.085,0.747,0.172,1.494,0.255,2.242
				c0.092,0.832,0.19,1.663,0.201,2.502c0.008,0.608-0.17,1.144-0.603,1.584c-0.229,0.233-0.497,0.42-0.762,0.609
				c-0.1,0.07-0.194,0.143-0.288,0.218c-0.025,0.02-0.06,0.048-0.036,0.089c0.017,0.03,0.053,0.028,0.082,0.023
				c0.113-0.017,0.228-0.035,0.34-0.058c0.734-0.157,1.241-0.575,1.49-1.293c0.168-0.486,0.216-0.989,0.211-1.496
				c-0.009-1.034-0.129-2.062-0.245-3.088C29.002,11.186,28.967,10.859,28.997,10.528z M22.074,10.704
				c0.219,0.056,0.242,0.031,0.181-0.186c-0.067-0.241-0.132-0.483-0.201-0.724c-0.019-0.067-0.04-0.135-0.065-0.2
				c-0.061-0.148-0.083-0.153-0.191-0.041c-0.069,0.072-0.134,0.151-0.207,0.218c-0.119,0.111-0.13,0.241-0.084,0.385
				c0.015,0.043,0.036,0.084,0.042,0.129c0.115,0.88,0.242,1.759,0.305,2.645c0.055,0.761,0.098,1.523,0.145,2.284
				c0.022,0.37,0.017,0.738-0.207,1.056c-0.325,0.462-0.721,0.848-1.239,1.093c-0.13,0.062-0.272,0.098-0.408,0.149
				c-0.043,0.017-0.11,0.031-0.096,0.095c0.011,0.049,0.075,0.044,0.116,0.045c0.267,0.001,0.532-0.017,0.793-0.071
				c0.14-0.029,0.266-0.092,0.375-0.183c0.62-0.514,0.992-1.146,1.007-1.979c0.021-1.143-0.08-2.276-0.199-3.41
				C22.097,11.575,22.049,11.142,22.074,10.704z M23.202,11.006c-0.016-0.125-0.002-0.193,0.15-0.127
				c0.063,0.028,0.151,0.059,0.207-0.021c0.049-0.073,0.005-0.145-0.034-0.209c-0.156-0.253-0.264-0.527-0.352-0.811
				c-0.039-0.124-0.084-0.247-0.137-0.366c-0.066-0.151-0.151-0.16-0.253-0.034c-0.2,0.248-0.286,0.525-0.211,0.842
				c0.099,0.425,0.164,0.856,0.218,1.289c0.132,1.04,0.27,2.079,0.407,3.117c0.07,0.527,0.164,1.053,0.035,1.584
				c-0.018,0.073-0.028,0.16,0.04,0.188c0.068,0.029,0.121-0.045,0.158-0.107c0.014-0.021,0.029-0.041,0.041-0.063
				c0.165-0.333,0.275-0.686,0.237-1.057c-0.064-0.638-0.164-1.271-0.24-1.908C23.374,12.55,23.288,11.778,23.202,11.006z
				 M12.76,9.779c0.001-0.152-0.024-0.271-0.158-0.333C12.46,9.38,12.338,9.428,12.23,9.525c-0.224,0.202-0.268,0.567-0.088,0.804
				c0.047,0.063,0.048,0.097-0.001,0.151c-0.092,0.099-0.176,0.205-0.27,0.303c-0.264,0.279-0.58,0.493-0.888,0.718
				c-0.038,0.028-0.11,0.057-0.083,0.108c0.031,0.062,0.098,0.018,0.146-0.001c0.523-0.2,0.991-0.48,1.333-0.938
				c0.045-0.061,0.084-0.118,0.176-0.118c0.076,0,0.109-0.073,0.087-0.129c-0.044-0.118,0.009-0.208,0.045-0.312
				C12.726,9.999,12.764,9.883,12.76,9.779z M5.826,15.287c-0.16,0.449-0.361,0.887-0.314,1.382
				c0.014,0.139-0.003,0.283,0.047,0.417c0.047,0.124,0.124,0.219,0.266,0.234c0.134,0.013,0.231-0.051,0.306-0.154
				c0.073-0.1,0.103-0.217,0.111-0.337c0.004-0.072,0.041-0.178-0.032-0.208c-0.086-0.035-0.105,0.082-0.151,0.133
				c-0.043,0.05-0.08,0.117-0.152,0.107c-0.083-0.012-0.118-0.083-0.143-0.157c-0.062-0.183-0.048-0.366-0.01-0.548
				C5.814,15.87,5.941,15.592,5.826,15.287z M24.675,12.356c-0.075-0.065-0.092-0.129-0.118-0.187
				c-0.073-0.16-0.141-0.32-0.243-0.465c-0.038-0.054-0.085-0.088-0.152-0.063c-0.063,0.024-0.088,0.076-0.085,0.144
				c0.003,0.09,0,0.18,0.002,0.27c0.002,0.09,0.074,0.131,0.129,0.081c0.106-0.097,0.14-0.014,0.181,0.052
				c0.064,0.106,0.117,0.221,0.182,0.326c0.051,0.081,0.064,0.244,0.164,0.221c0.105-0.025,0.072-0.179,0.075-0.282
				c0.005-0.21-0.016-0.421,0.011-0.63c0.014-0.107,0.059-0.173,0.181-0.111c0.04,0.02,0.083,0.052,0.119-0.001
				c0.028-0.04,0.026-0.084,0.003-0.128c-0.022-0.039-0.043-0.079-0.064-0.119c-0.073-0.152-0.128-0.162-0.254-0.048
				c-0.154,0.138-0.148,0.318-0.132,0.5C24.684,12.053,24.71,12.19,24.675,12.356z M5.469,14.398c0.508-0.33,1.044-0.599,1.62-0.783
				c0.005-0.002,0.01-0.005,0.013-0.007c0.117-0.067,0.086-0.173,0.057-0.267c-0.032-0.108-0.112-0.044-0.171-0.025
				c-0.249,0.08-0.483,0.188-0.706,0.326C5.963,13.839,5.686,14.084,5.469,14.398z M19.377,16.92
				c-0.106-0.045-0.173-0.003-0.24,0.024c-0.12,0.051-0.236,0.108-0.356,0.16c-0.077,0.033-0.168,0.087-0.24,0.031
				c-0.076-0.059-0.032-0.157-0.015-0.24c0.018-0.083,0.042-0.165,0.053-0.25c0.009-0.05-0.002-0.117-0.073-0.097
				c-0.194,0.058-0.354,0.174-0.527,0.313c0.135,0.043,0.25-0.089,0.312-0.011c0.061,0.078-0.029,0.197-0.042,0.3
				c0,0.005-0.001,0.01-0.002,0.015c-0.016,0.147,0.06,0.244,0.206,0.258c0.09,0.009,0.18,0.003,0.266-0.034
				C18.966,17.286,19.165,17.112,19.377,16.92z M16.532,12.764c-0.014,0.132-0.026,0.265-0.04,0.397
				c-0.003,0.04-0.01,0.085-0.056,0.096c-0.048,0.011-0.071-0.032-0.091-0.064c-0.041-0.075-0.076-0.153-0.114-0.229
				c-0.014-0.03-0.021-0.075-0.067-0.065c-0.036,0.008-0.035,0.045-0.04,0.074c-0.008,0.069-0.014,0.14-0.027,0.208
				c-0.011,0.058-0.013,0.132-0.088,0.139c-0.065,0.005-0.087-0.063-0.107-0.111c-0.036-0.093-0.065-0.188-0.111-0.323
				c-0.048,0.214-0.057,0.381,0.017,0.543c0.037,0.081,0.09,0.151,0.188,0.153c0.086,0.001,0.133-0.062,0.162-0.135
				c0.031-0.08,0.063-0.099,0.141-0.039c0.145,0.113,0.289,0.062,0.347-0.116C16.707,13.102,16.647,12.93,16.532,12.764z
				 M26.054,16.602c-0.073,0.025-0.186-0.032-0.231,0.097c-0.042,0.12,0.045,0.155,0.122,0.205c0.103,0.067,0.081,0.15,0.008,0.226
				c-0.055,0.057-0.124,0.101-0.177,0.161c-0.078,0.088-0.043,0.187,0.074,0.189c0.213,0.004,0.393-0.092,0.556-0.222
				c0.04-0.03,0.042-0.08,0.027-0.125c-0.014-0.048-0.059-0.043-0.099-0.047c-0.154-0.013-0.167-0.039-0.095-0.179
				c0.018-0.035,0.036-0.07,0.056-0.105c0.055-0.106,0.001-0.16-0.094-0.187C26.157,16.604,26.111,16.606,26.054,16.602z
				 M25.522,13.106c-0.003-0.025,0.014-0.115-0.056-0.147c-0.068-0.03-0.115,0.045-0.159,0.088c-0.23,0.226-0.496,0.409-0.748,0.606
				c-0.099,0.078-0.193,0.161-0.283,0.248c-0.035,0.034-0.066,0.092-0.031,0.136c0.036,0.042,0.086,0.004,0.121-0.02
				c0.334-0.249,0.687-0.468,1.051-0.672C25.493,13.304,25.537,13.239,25.522,13.106z M27.958,11.343
				c0.119-0.094,0.127-0.219,0.134-0.342c0.021-0.366-0.021-0.719-0.199-1.046c-0.027-0.049-0.051-0.123-0.133-0.06
				c-0.115,0.088-0.151,0.26-0.075,0.389c0.106,0.179,0.177,0.37,0.211,0.573C27.924,11.017,27.938,11.181,27.958,11.343z
				 M20.971,10.203c-0.021-0.24-0.082-0.486-0.238-0.698c-0.076-0.104-0.135-0.1-0.211,0.003c-0.114,0.154-0.11,0.241,0.03,0.379
				c0.183,0.178,0.262,0.385,0.202,0.639c-0.008,0.039-0.012,0.08-0.012,0.12c0,0.032-0.005,0.077,0.04,0.086
				c0.035,0.008,0.045-0.031,0.062-0.055C20.938,10.541,20.964,10.384,20.971,10.203z M12.501,11.858
				c-0.083,0.021-0.125,0.097-0.186,0.145c-0.087,0.07-0.174,0.165-0.29,0.08c-0.107-0.079-0.076-0.201-0.038-0.305
				c0.03-0.083,0.081-0.16,0.122-0.239c0.018-0.036,0.036-0.071,0.052-0.108c0.011-0.022,0.022-0.051-0.008-0.064
				c-0.014-0.006-0.038,0-0.054,0.008c-0.181,0.101-0.378,0.534-0.338,0.736c0.031,0.151,0.167,0.265,0.306,0.254
				C12.296,12.35,12.511,12.1,12.501,11.858z M20.9,11.215c-0.082,0.057-0.058,0.156-0.096,0.229
				c-0.016,0.03-0.012,0.077-0.056,0.078c-0.039,0-0.052-0.04-0.073-0.069c-0.032-0.049-0.027-0.124-0.105-0.158
				c-0.026,0.116-0.024,0.219,0.009,0.321c0.046,0.137,0.108,0.162,0.217,0.068c0.09-0.078,0.158-0.082,0.248-0.006
				c0.087,0.073,0.189,0.073,0.234-0.041c0.067-0.169,0.047-0.343-0.015-0.53c-0.087,0.087-0.084,0.184-0.119,0.264
				c-0.019,0.049-0.021,0.121-0.092,0.12c-0.072-0.001-0.07-0.077-0.093-0.124C20.936,11.32,20.941,11.26,20.9,11.215z
				 M25.558,14.396c-0.021-0.189-0.092-0.377-0.248-0.528c-0.064-0.063-0.137-0.061-0.196,0.008
				c-0.055,0.063-0.144,0.149-0.053,0.217c0.222,0.164,0.364,0.343,0.271,0.635c-0.007,0.017,0.012,0.053,0.029,0.063
				c0.024,0.013,0.043-0.014,0.06-0.032C25.51,14.663,25.552,14.547,25.558,14.396z M8.618,9.436
				c-0.042,0.079-0.076,0.155-0.12,0.226C8.467,9.713,8.425,9.765,8.355,9.749c-0.07-0.017-0.081-0.08-0.088-0.142
				c-0.008-0.08,0.005-0.166-0.06-0.238C8.122,9.455,8.106,9.552,8.119,9.654c0.03,0.261,0.222,0.354,0.425,0.201
				C8.616,9.8,8.637,9.843,8.672,9.887c0.077,0.096,0.168,0.094,0.24,0.006c0.08-0.1,0.114-0.217,0.03-0.338
				c-0.052,0.017-0.036,0.061-0.05,0.09C8.867,9.697,8.865,9.774,8.784,9.768c-0.08-0.006-0.099-0.076-0.12-0.137
				C8.643,9.571,8.665,9.501,8.618,9.436z M11.505,15.664c0.244-0.248,0.249-0.66,0.172-0.891c-0.038-0.114-0.148-0.16-0.255-0.125
				c-0.127,0.042-0.145,0.17-0.145,0.286c0,0.117,0.079,0.155,0.185,0.137c0.075-0.012,0.082,0.034,0.085,0.087
				c0.006,0.121-0.009,0.239-0.042,0.355C11.494,15.558,11.464,15.604,11.505,15.664z M15.502,10.806
				c0.143-0.411,0.148-0.82-0.038-1.221c-0.023-0.048-0.063-0.121-0.137-0.073c-0.062,0.04-0.128,0.091-0.104,0.183
				c0.011,0.037,0.033,0.072,0.054,0.105c0.156,0.24,0.214,0.504,0.196,0.788C15.468,10.661,15.46,10.735,15.502,10.806z
				 M6.129,10.161c0.139-0.15,0.188-0.337,0.208-0.532c0.012-0.122,0.005-0.257-0.122-0.312C6.082,9.26,6.011,9.387,5.933,9.466
				C5.888,9.51,5.836,9.572,5.888,9.636c0.051,0.062,0.11,0.012,0.16-0.018c0.104-0.063,0.135-0.009,0.141,0.084
				c0.008,0.105,0.008,0.224-0.042,0.307C6.109,10.074,6.229,10.128,6.129,10.161z"/>
			<path fill-rule="evenodd" clip-rule="evenodd" fill="#FBFDFB" d="M12.481,15.076c0.071,0.24-0.029,0.479,0.027,0.736
				c0.34-0.275,0.698-0.513,0.958-0.864c0.044-0.06,0.065-0.133,0.083-0.208c0.027-0.108,0.019-0.213-0.024-0.309
				c-0.112-0.256-0.235-0.509-0.354-0.763c-0.016-0.034-0.041-0.057-0.075-0.071c-0.147-0.065-0.164-0.181-0.111-0.313
				c0.048-0.121,0.105-0.238,0.164-0.354c0.05-0.099,0.126-0.11,0.206-0.034c0.167,0.161,0.315,0.338,0.427,0.542
				c0.042,0.079,0.086,0.173-0.063,0.205c-0.078,0.017-0.027,0.074-0.016,0.107c0.075,0.218,0.138,0.438,0.176,0.667
				c0.073,0.435-0.042,0.817-0.321,1.148c-0.288,0.342-0.614,0.649-1.001,0.882c-0.09,0.054-0.189,0.091-0.163,0.232
				c0.026,0.138,0.078,0.248,0.214,0.302c0.09,0.035,0.183,0.042,0.281,0.036c0.349-0.025,0.627-0.202,0.883-0.417
				c0.376-0.316,0.67-0.702,0.907-1.133c0.045-0.083,0.046-0.154,0.021-0.241c-0.17-0.603-0.343-1.206-0.569-1.789
				c-0.122-0.315-0.071-0.585,0.083-0.859c0.023-0.037,0.04-0.093,0.088-0.094c0.053,0,0.064,0.059,0.082,0.098
				c0.257,0.56,0.506,1.125,0.631,1.732c0.092,0.452,0.158,0.909,0.249,1.36c0.11,0.551,0.465,0.867,1.015,1.002
				c-0.14-0.625,0.234-0.917,0.732-1.145c-0.179-0.181-0.404-0.23-0.638-0.25c-0.301-0.024-0.601-0.041-0.902-0.058
				c-0.134-0.007-0.169-0.071-0.144-0.199c0.078-0.402,0.287-0.674,0.695-0.799c0.354-0.109,0.695-0.258,1.05-0.365
				c0.088-0.026,0.138-0.049,0.072-0.158c-0.106-0.173-0.103-0.362-0.023-0.549c0.054-0.125,0.128-0.239,0.208-0.348
				c0.141-0.191,0.333-0.246,0.559-0.191c0.229,0.055,0.43,0.167,0.609,0.315c0.309,0.255,0.329,0.591,0.061,0.891
				c-0.152,0.17-0.346,0.269-0.552,0.354c-0.057,0.023-0.146,0.019-0.139,0.125c0.002,0.03-0.046,0.042-0.073,0.023
				c-0.097-0.067-0.181-0.009-0.268,0.023c-0.329,0.121-0.658,0.24-0.972,0.397c-0.042,0.021-0.093,0.031-0.124,0.08
				c0.057,0.037,0.118,0.023,0.175,0.025c0.839,0.018,1.676-0.01,2.514-0.051c0.34-0.017,0.333-0.009,0.236,0.313
				c-0.073,0.239-0.22,0.344-0.462,0.38c-0.668,0.097-1.305,0.31-1.929,0.558c-0.149,0.059-0.306,0.138-0.317,0.327
				c-0.01,0.183,0.128,0.284,0.264,0.374c0.139,0.092,0.297,0.142,0.456,0.192c0.154,0.05,0.18,0.104,0.138,0.26
				c-0.098,0.362-0.113,0.381-0.486,0.334c-0.748-0.092-1.406-0.358-1.854-1.008c-0.102-0.148-0.175-0.31-0.253-0.493
				c-0.178,0.233-0.339,0.457-0.523,0.662c-0.265,0.297-0.549,0.571-0.903,0.764c-0.188,0.104-0.385,0.169-0.601,0.173
				c-0.484,0.009-0.781-0.232-0.848-0.71c-0.021-0.148-0.063-0.142-0.175-0.09c-0.548,0.25-1.121,0.432-1.698,0.601
				c-0.071,0.021-0.18,0.062-0.207-0.003c-0.036-0.085,0.083-0.104,0.143-0.135c0.624-0.323,1.235-0.666,1.817-1.059
				c0.081-0.056,0.124-0.118,0.148-0.211c0.071-0.282,0.177-0.554,0.303-0.816C12.391,15.162,12.407,15.104,12.481,15.076z
				 M17.575,13.387c0.006,0.301,0.012,0.307,0.304,0.24c0.067-0.016,0.134-0.039,0.201-0.058c0.067-0.019,0.093-0.049,0.019-0.093
				c-0.12-0.071-0.24-0.146-0.366-0.204C17.611,13.217,17.573,13.251,17.575,13.387z"/>
			<path fill-rule="evenodd" clip-rule="evenodd" fill="#FBFDFB" d="M8.323,23.875c0.094,0,0.168-0.001,0.241,0
				c4.849,0.065,9.699,0.099,14.549,0.049c0.06,0,0.147,0.039,0.174-0.033c0.026-0.071,0.008-0.153-0.046-0.225
				c-0.133-0.175-0.092-0.398,0.086-0.52c0.024-0.017,0.046-0.034,0.083-0.021c0.13,0.049,0.238,0.327,0.169,0.449
				c-0.021,0.039-0.055,0.072-0.076,0.111c-0.076,0.143-0.021,0.239,0.133,0.237c0.622-0.01,1.245-0.026,1.868-0.031
				c0.62-0.004,0.818,0.214,0.778,0.837c-0.009,0.137-0.038,0.269-0.116,0.384c-0.133,0.2-0.372,0.232-0.54,0.062
				c-0.061-0.063-0.119-0.077-0.198-0.076c-0.16,0.005-0.321,0.002-0.481,0.006c-0.105,0.001-0.204-0.018-0.28,0.106
				c-0.058,0.092-0.178,0.067-0.247-0.019c-0.048-0.061-0.101-0.066-0.168-0.064c-0.131,0.004-0.261,0.009-0.391,0.004
				c-0.156-0.005-0.3-0.004-0.365,0.179c-0.014,0.042-0.055,0.066-0.111,0.039c-0.172-0.083-0.24-0.339-0.128-0.494
				c0.014-0.021,0.032-0.039,0.043-0.062c0.075-0.145,0.012-0.246-0.149-0.243c-3.804,0.085-7.609,0.163-11.416,0.124
				c-0.632-0.006-1.264,0-1.893-0.084c-0.428-0.057-0.853-0.131-1.218-0.39C8.509,24.12,8.408,24.024,8.323,23.875z M25.097,24.916
				c0-0.003,0-0.007,0-0.009c0.091,0,0.181,0.002,0.271-0.002c0.04-0.002,0.116,0.018,0.104-0.046
				c-0.021-0.125,0.056-0.244,0.008-0.365c-0.003-0.008-0.037-0.007-0.057-0.006c-0.612,0.017-1.224,0.032-1.836,0.049
				c-0.033,0.001-0.069-0.006-0.088,0.037c-0.061,0.129,0.095,0.375,0.241,0.374c0.175-0.002,0.351-0.011,0.526-0.015
				c0.063-0.001,0.104-0.012,0.145-0.074c0.07-0.108,0.183-0.118,0.266-0.02c0.063,0.075,0.128,0.081,0.209,0.078
				C24.957,24.914,25.027,24.916,25.097,24.916z"/>
			<path fill-rule="evenodd" clip-rule="evenodd" fill="#FAFCFB" d="M6.744,14.644c0.032,0.165,0.041,0.315,0.01,0.461
				c-0.083,0.389-0.04,0.77,0.073,1.144c0.131,0.425,0.532,0.67,1.034,0.618c0.693-0.072,1.305-0.339,1.82-0.812
				c0.251-0.228,0.345-0.528,0.356-0.851c0.014-0.351,0.003-0.703,0.003-1.055c-0.224,0.05-0.262,0.088-0.242,0.305
				c0.066,0.699-0.298,1.159-0.84,1.519c-0.25,0.166-0.519,0.298-0.816,0.373c-0.667,0.167-1.096-0.333-1.167-0.79
				c-0.062-0.399-0.002-0.791,0.11-1.175c0.021-0.071,0.025-0.07,0.117-0.144c-0.009,0.185-0.021,0.356-0.024,0.529
				c-0.008,0.277,0.051,0.537,0.211,0.769c0.147,0.214,0.354,0.295,0.603,0.24c0.582-0.13,1.004-0.503,1.372-0.945
				c0.077-0.091,0.084-0.211,0.08-0.329c-0.001-0.078-0.016-0.111-0.104-0.076c-0.125,0.05-0.256,0.087-0.385,0.128
				c-0.087,0.027-0.174,0.042-0.267,0.026c-0.283-0.052-0.322-0.107-0.341-0.395c-0.021-0.307-0.008-0.595,0.183-0.86
				c0.233-0.322,0.456-0.358,0.744-0.082c0.136,0.132,0.272,0.27,0.356,0.444c0.032,0.067,0.064,0.067,0.127,0.035
				c0.248-0.131,0.248-0.127,0.232-0.402c-0.052-0.888-0.196-1.765-0.289-2.647c-0.015-0.136-0.019-0.27-0.016-0.406
				c0.001-0.055-0.001-0.107-0.022-0.162c-0.077-0.203,0.083-0.53,0.289-0.604c0.059-0.021,0.083,0.008,0.1,0.057
				c0.137,0.376,0.275,0.752,0.411,1.128c0.004,0.01,0.003,0.02,0.004,0.029c0.021,0.213-0.074,0.287-0.274,0.205
				c0.057,0.803,0.114,1.601,0.173,2.43c0.101-0.088,0.179-0.156,0.257-0.224c0.039-0.034,0.082-0.065,0.135-0.045
				c0.06,0.022,0.049,0.083,0.049,0.13c-0.001,0.121-0.003,0.241,0.023,0.359c0.062,0.271,0.265,0.337,0.479,0.16
				c0.174-0.145,0.252-0.346,0.327-0.547c0.019-0.049,0.019-0.11,0.085-0.139c0.052,0.106,0.042,0.224,0.07,0.333
				c0.031,0.118,0.067,0.231,0.161,0.316c0.125,0.114,0.261,0.082,0.318-0.075c0.046-0.132,0.042-0.264-0.005-0.397
				c-0.037-0.105,0.063-0.252,0.17-0.26c0.054-0.004,0.072,0.029,0.082,0.071c0.07,0.315,0.076,0.63-0.057,0.928
				c-0.099,0.22-0.489,0.24-0.701,0.052c-0.022-0.02-0.046-0.042-0.061-0.067c-0.058-0.095-0.11-0.091-0.181-0.007
				c-0.158,0.188-0.367,0.27-0.614,0.261c-0.167-0.005-0.297-0.074-0.39-0.213c-0.015-0.022-0.012-0.068-0.055-0.059
				c-0.038,0.01-0.051,0.044-0.048,0.083c0.004,0.065,0.008,0.13,0.01,0.195c0.014,0.471,0.059,0.941-0.014,1.413
				c-0.103,0.669-0.443,1.159-1.068,1.442c-0.478,0.216-0.974,0.369-1.5,0.411c-0.238,0.019-0.471-0.009-0.695-0.09
				c-0.319-0.115-0.473-0.374-0.564-0.677c-0.195-0.653-0.147-1.298,0.072-1.936C6.667,14.727,6.683,14.683,6.744,14.644z
				 M9.228,13.923c-0.116-0.174-0.168-0.232-0.242-0.272c-0.161-0.086-0.23-0.047-0.237,0.134c-0.009,0.21,0.048,0.258,0.258,0.216
				C9.08,13.986,9.153,13.969,9.228,13.923z"/>
			<path fill-rule="evenodd" clip-rule="evenodd" fill="#FAFCFB" d="M25.759,10.808c-0.029-0.258-0.02-0.518-0.118-0.768
				c-0.062-0.157,0.073-0.508,0.212-0.615c0.083-0.064,0.12-0.002,0.145,0.06c0.083,0.209,0.162,0.42,0.238,0.631
				c0.044,0.117,0.079,0.238,0.119,0.356c0.017,0.048,0.042,0.102,0.009,0.145c-0.043,0.052-0.086-0.031-0.142-0.011
				c0.021,0.327,0.042,0.657,0.063,0.988c0.001,0.028,0.015,0.059,0.03,0.081c0.214,0.296,0.429,0.591,0.673,0.879
				c-0.026-0.167-0.05-0.335-0.077-0.503c-0.106-0.659-0.156-1.324-0.215-1.988c-0.021-0.249,0.032-0.439,0.175-0.624
				c0.104-0.135,0.171-0.132,0.232,0.022c0.143,0.365,0.234,0.744,0.316,1.126c0.017,0.078,0.015,0.177-0.128,0.153
				c-0.081-0.014-0.04,0.064-0.04,0.095c0.013,0.477,0.059,0.951,0.099,1.426c0.024,0.28,0.056,0.56,0.075,0.84
				c0.006,0.095,0.036,0.171,0.088,0.249c0.286,0.424,0.59,0.835,0.856,1.272c0.173,0.284,0.28,0.587,0.261,0.925
				c-0.003,0.05,0.031,0.127-0.038,0.143c-0.05,0.012-0.073-0.061-0.095-0.102c-0.266-0.486-0.606-0.92-0.924-1.371
				c-0.011-0.015-0.024-0.029-0.067-0.081c0.01,0.234,0.017,0.425,0.029,0.615c0.017,0.303,0.005,0.602-0.09,0.892
				c-0.014,0.044-0.018,0.121-0.075,0.115c-0.063-0.008-0.041-0.083-0.04-0.127c0.01-0.502-0.01-1.002-0.078-1.501
				c-0.036-0.273-0.107-0.52-0.287-0.74c-0.207-0.255-0.386-0.533-0.61-0.793c0.012,0.215,0.024,0.429,0.033,0.644
				c0.029,0.706,0.106,1.412,0.098,2.12c-0.002,0.238-0.053,0.472-0.174,0.678c-0.281,0.476-0.709,0.522-1.187,0.238
				c-0.158-0.094-0.277-0.232-0.374-0.387c-0.055-0.089-0.105-0.087-0.177-0.02c-0.113,0.106-0.182,0.238-0.248,0.374
				c-0.17,0.351-0.33,0.708-0.556,1.03c-0.197,0.279-0.31,0.298-0.574,0.087c-0.023-0.019-0.045-0.041-0.071-0.056
				c-0.376-0.241-0.505-0.591-0.454-1.022c0.038-0.319,0.095-0.634,0.191-0.942c0.01-0.029,0.008-0.073,0.062-0.082
				c0.058,0.131,0.046,0.271,0.045,0.407c-0.005,0.335,0.046,0.659,0.182,0.968c0.02,0.045,0.043,0.091,0.07,0.132
				c0.111,0.161,0.238,0.168,0.367,0.02c0.086-0.1,0.137-0.22,0.195-0.337c0.198-0.4,0.404-0.795,0.658-1.164
				c0.171-0.25,0.292-0.256,0.493-0.025c0.125,0.144,0.217,0.314,0.367,0.436c0.228,0.185,0.51,0.119,0.63-0.149
				c0.078-0.174,0.095-0.358,0.099-0.544c0.016-0.81-0.067-1.614-0.123-2.419c-0.012-0.165-0.04-0.331-0.036-0.495
				c0.005-0.185-0.069-0.322-0.181-0.458c-0.296-0.367-0.581-0.744-0.878-1.109c-0.136-0.168-0.216-0.341-0.182-0.564
				c0.019-0.123,0.002-0.251,0.005-0.376c0.002-0.042,0.003-0.096,0.049-0.119c0.051-0.026,0.102,0.001,0.136,0.036
				c0.217,0.238,0.46,0.448,0.688,0.675c0.099,0.099,0.072,0.152-0.089,0.205c0.102,0.154,0.191,0.314,0.32,0.448
				c0.004,0.011,0.004,0.03,0.021,0.019C25.765,10.841,25.759,10.821,25.759,10.808z"/>
			<path fill-rule="evenodd" clip-rule="evenodd" fill="#FAFCFB" d="M7.682,15.126c-0.016-0.182-0.027-0.33-0.043-0.478
				c-0.061-0.573-0.122-1.146-0.183-1.72c-0.004-0.045,0.001-0.09-0.067-0.092c-0.561-0.01-0.771-0.473-0.809-0.961
				c-0.021-0.272,0.009-0.541,0.045-0.81c0.01-0.075,0.008-0.145-0.03-0.224c-0.075,0.047-0.083,0.12-0.105,0.181
				c-0.134,0.355-0.155,0.734-0.238,1.101c-0.037,0.168-0.099,0.327-0.201,0.463c-0.153,0.201-0.327,0.195-0.454-0.021
				c-0.185-0.318-0.265-0.67-0.306-1.03c-0.037-0.32-0.029-0.641,0.052-0.956c0.016-0.062,0.023-0.128,0.081-0.175
				c0.062,0.071,0.04,0.154,0.04,0.231c0,0.398,0.037,0.791,0.149,1.175c0.028,0.097,0.07,0.188,0.134,0.267
				c0.095,0.116,0.184,0.107,0.251-0.03c0.09-0.183,0.11-0.385,0.129-0.583c0.037-0.406,0.147-0.787,0.366-1.133
				c0.059-0.094,0.124-0.184,0.227-0.235c0.149-0.077,0.271-0.007,0.285,0.161c0.017,0.179-0.024,0.349-0.076,0.517
				c-0.118,0.38-0.106,0.751,0.076,1.11c0.061,0.12,0.149,0.212,0.287,0.247c0.071,0.019,0.115,0.023,0.102-0.075
				c-0.067-0.582-0.049-1.173-0.191-1.748c-0.04-0.157-0.042-0.32-0.1-0.478c-0.051-0.145,0.065-0.274,0.16-0.385
				c0.041-0.048,0.095-0.025,0.126,0.022C7.54,9.692,7.676,9.926,7.72,10.2c0.013,0.071,0.009,0.156-0.053,0.193
				c-0.108,0.066-0.084,0.153-0.074,0.248c0.046,0.472,0.089,0.945,0.134,1.424c0.229-0.13,0.36-0.416,0.313-0.652
				c-0.057-0.289-0.109-0.58-0.17-0.87c-0.039-0.18,0.009-0.349,0.047-0.519C7.939,9.918,7.998,9.912,8.07,9.991
				c0.176,0.19,0.261,0.413,0.232,0.673c-0.039,0.358,0.05,0.698,0.149,1.035c0.067,0.229,0.222,0.338,0.454,0.351
				c0.197,0.012,0.281-0.07,0.26-0.267c-0.037-0.336-0.134-0.657-0.247-0.974c-0.027-0.076-0.059-0.149-0.087-0.224
				c-0.101-0.269-0.061-0.411,0.158-0.591c0.059-0.048,0.111-0.041,0.16,0.008c0.14,0.138,0.268,0.286,0.336,0.474
				c0.032,0.091,0.034,0.184-0.077,0.205c-0.104,0.02-0.07,0.073-0.057,0.127c0.079,0.306,0.168,0.608,0.191,0.926
				C9.578,12.207,9.4,12.5,8.992,12.636c-0.32,0.107-0.577-0.018-0.7-0.331c-0.03-0.072-0.025-0.198-0.097-0.205
				c-0.085-0.007-0.104,0.12-0.155,0.186c-0.03,0.039-0.044,0.096-0.083,0.124c-0.226,0.167-0.177,0.397-0.159,0.625
				c0.038,0.495,0.083,0.99,0.091,1.487C7.892,14.752,7.832,14.948,7.682,15.126z"/>
			<path fill-rule="evenodd" clip-rule="evenodd" fill="#FAFCFB" d="M17.519,10.181c0.045,0.163,0.098,0.323,0.134,0.488
				c0.072,0.334,0.138,0.669,0.047,1.01c-0.012,0.049-0.021,0.098-0.037,0.146c-0.193,0.586-0.657,0.705-1.105,0.283
				c-0.059-0.055-0.118-0.112-0.164-0.176c-0.063-0.088-0.097-0.1-0.161,0.005c-0.156,0.254-0.377,0.438-0.651,0.56
				c-0.456,0.2-0.858,0.006-0.986-0.48c-0.07-0.265-0.074-0.535-0.048-0.807c0.008-0.084,0.007-0.17,0.008-0.255
				c0-0.03-0.004-0.063-0.038-0.073c-0.037-0.011-0.056,0.021-0.067,0.047c-0.033,0.067-0.064,0.136-0.091,0.206
				c-0.094,0.259-0.184,0.519-0.276,0.777c-0.017,0.048-0.036,0.094-0.055,0.14c-0.154,0.354-0.382,0.389-0.635,0.095
				c-0.45-0.521-0.523-1.118-0.344-1.763c0.035-0.128,0.065-0.261,0.147-0.375c0.057,0.037,0.025,0.082,0.019,0.122
				c-0.074,0.369-0.08,0.737-0.01,1.106c0.029,0.155,0.086,0.296,0.182,0.423c0.056,0.075,0.116,0.15,0.214,0.144
				c0.106-0.006,0.143-0.1,0.174-0.185c0.124-0.349,0.266-0.69,0.435-1.021c0.106-0.211,0.226-0.414,0.363-0.605
				c0.054-0.074,0.112-0.199,0.229-0.142c0.118,0.059,0.17,0.18,0.144,0.321c-0.053,0.261-0.085,0.524-0.085,0.792
				c0,0.206-0.002,0.412,0.005,0.617c0.014,0.376,0.283,0.544,0.633,0.397c0.43-0.181,0.62-0.492,0.597-1.006
				c-0.017-0.372-0.065-0.742-0.179-1.097c-0.082-0.252,0.069-0.42,0.167-0.61c0.036-0.07,0.076-0.01,0.097,0.026
				c0.084,0.139,0.125,0.293,0.161,0.45c0.081,0.348,0.08,0.707,0.12,1.06c0.039,0.337,0.131,0.659,0.349,0.93
				c0.083,0.104,0.186,0.179,0.325,0.137c0.144-0.043,0.186-0.166,0.201-0.304c0.038-0.337-0.042-0.658-0.132-0.976
				c-0.059-0.207-0.134-0.409-0.211-0.61c-0.041-0.107-0.038-0.193,0.051-0.271c0.074-0.065,0.098-0.161,0.146-0.243
				c0.05-0.088,0.109-0.105,0.194-0.04c0.249,0.192,0.398,0.445,0.476,0.745c0.012,0.05,0.014,0.105-0.037,0.135
				c-0.043,0.025-0.087-0.004-0.124-0.031c-0.053-0.036-0.105-0.074-0.158-0.11C17.536,10.168,17.527,10.175,17.519,10.181z"/>
			<path fill-rule="evenodd" clip-rule="evenodd" fill="#FAFCFB" d="M18.916,10.446c0.16,0.239,0.321,0.479,0.481,0.718
				c0.01-0.004,0.022-0.007,0.033-0.011c-0.019-0.17-0.035-0.34-0.057-0.51c-0.026-0.185-0.03-0.37-0.104-0.553
				c-0.071-0.179,0.032-0.363,0.133-0.52c0.054-0.083,0.137-0.071,0.199,0.01c0.065,0.085,0.097,0.187,0.137,0.283
				c0.112,0.258,0.223,0.515,0.301,0.785c0.014,0.048,0.029,0.097,0.035,0.146c0.019,0.166-0.022,0.198-0.161,0.147
				c0,0.278,0.002,0.561-0.002,0.843c-0.003,0.164,0.061,0.296,0.146,0.43c0.513,0.808,1.029,1.614,1.417,2.493
				c0.123,0.281,0.226,0.568,0.252,0.876c0.005,0.059,0.046,0.149-0.029,0.17c-0.06,0.016-0.082-0.077-0.104-0.13
				c-0.407-0.965-0.971-1.841-1.528-2.722c-0.018-0.029-0.037-0.056-0.084-0.078c0.017,0.215,0.036,0.431,0.05,0.646
				c0.042,0.595,0.144,1.186,0.145,1.785c0.002,0.465-0.054,0.92-0.245,1.35c-0.026,0.057-0.049,0.153-0.115,0.136
				c-0.069-0.019-0.046-0.116-0.031-0.175c0.188-0.703,0.083-1.407,0.005-2.109c-0.087-0.767-0.193-1.532-0.291-2.298
				c-0.014-0.111-0.047-0.209-0.113-0.303c-0.322-0.461-0.646-0.919-0.988-1.366c-0.075-0.099-0.139-0.205-0.266-0.256
				c-0.069-0.029-0.109-0.1-0.111-0.183c-0.006-0.185-0.015-0.371-0.021-0.556c-0.002-0.06-0.007-0.124,0.06-0.157
				c0.065-0.031,0.119,0.005,0.164,0.044c0.297,0.254,0.596,0.507,0.855,0.803c0.05,0.057,0.131,0.123,0.076,0.208
				c-0.051,0.077-0.138,0.023-0.209,0.015c-0.016,0.001-0.032,0.002-0.048,0.003C18.905,10.424,18.91,10.435,18.916,10.446z"/>
			<path fill-rule="evenodd" clip-rule="evenodd" fill="#FAFCFB" d="M28.997,10.528c-0.03,0.331,0.005,0.657,0.042,0.985
				c0.116,1.026,0.236,2.054,0.245,3.088c0.005,0.507-0.043,1.01-0.211,1.496c-0.25,0.718-0.756,1.136-1.49,1.293
				c-0.112,0.023-0.227,0.041-0.34,0.058c-0.029,0.004-0.064,0.007-0.082-0.023c-0.024-0.041,0.011-0.069,0.036-0.089
				c0.093-0.075,0.188-0.148,0.288-0.218c0.266-0.188,0.533-0.375,0.762-0.609c0.433-0.44,0.611-0.977,0.603-1.584
				c-0.011-0.839-0.109-1.67-0.201-2.502c-0.083-0.748-0.17-1.496-0.255-2.242c-0.008-0.064-0.005-0.134-0.027-0.193
				c-0.095-0.253,0.056-0.419,0.195-0.591c0.067-0.083,0.124-0.066,0.169,0.026c0.159,0.313,0.299,0.633,0.432,0.957
				c0.022,0.055,0.071,0.127,0.016,0.183C29.114,10.629,29.069,10.518,28.997,10.528z"/>
			<path fill-rule="evenodd" clip-rule="evenodd" fill="#FAFCFB" d="M22.074,10.704c-0.025,0.438,0.022,0.871,0.068,1.305
				c0.119,1.133,0.22,2.267,0.199,3.41c-0.015,0.833-0.387,1.465-1.007,1.979c-0.109,0.09-0.235,0.154-0.375,0.183
				c-0.261,0.054-0.526,0.073-0.793,0.071c-0.041-0.001-0.105,0.003-0.116-0.045c-0.014-0.063,0.053-0.078,0.096-0.095
				c0.136-0.052,0.278-0.088,0.408-0.149c0.518-0.245,0.914-0.63,1.239-1.093c0.223-0.318,0.229-0.686,0.207-1.056
				c-0.047-0.761-0.09-1.523-0.145-2.284c-0.063-0.886-0.19-1.765-0.305-2.645c-0.006-0.044-0.027-0.085-0.042-0.129
				c-0.046-0.144-0.035-0.273,0.084-0.385c0.073-0.067,0.137-0.146,0.207-0.218c0.108-0.112,0.131-0.107,0.191,0.041
				c0.026,0.065,0.046,0.133,0.065,0.2c0.068,0.241,0.134,0.483,0.201,0.724C22.316,10.735,22.293,10.759,22.074,10.704z"/>
			<path fill-rule="evenodd" clip-rule="evenodd" fill="#FAFCFB" d="M23.202,11.006c0.086,0.772,0.172,1.544,0.265,2.317
				c0.076,0.637,0.176,1.271,0.24,1.908c0.039,0.371-0.072,0.725-0.237,1.057c-0.011,0.023-0.027,0.042-0.041,0.063
				c-0.037,0.062-0.09,0.136-0.158,0.107c-0.068-0.028-0.058-0.115-0.04-0.188c0.129-0.531,0.035-1.057-0.035-1.584
				c-0.137-1.038-0.274-2.077-0.407-3.117c-0.054-0.433-0.119-0.864-0.218-1.289c-0.075-0.317,0.011-0.594,0.211-0.842
				c0.102-0.126,0.187-0.118,0.253,0.034c0.053,0.119,0.098,0.242,0.137,0.366c0.088,0.283,0.195,0.557,0.352,0.811
				c0.04,0.064,0.083,0.136,0.034,0.209c-0.055,0.079-0.144,0.048-0.207,0.021C23.2,10.813,23.186,10.881,23.202,11.006z"/>
			<path fill-rule="evenodd" clip-rule="evenodd" fill="#FAFCFB" d="M12.76,9.779c0.003,0.104-0.034,0.22-0.075,0.332
				c-0.036,0.103-0.089,0.193-0.045,0.312c0.022,0.057-0.011,0.129-0.087,0.129c-0.091,0-0.131,0.058-0.176,0.118
				c-0.342,0.458-0.81,0.738-1.333,0.938c-0.048,0.019-0.115,0.063-0.146,0.001c-0.027-0.052,0.045-0.081,0.083-0.108
				c0.308-0.225,0.624-0.438,0.888-0.718c0.094-0.098,0.178-0.204,0.27-0.303c0.05-0.054,0.048-0.089,0.001-0.151
				c-0.18-0.236-0.135-0.602,0.088-0.804c0.108-0.097,0.23-0.145,0.372-0.079C12.736,9.508,12.762,9.627,12.76,9.779z
				 M12.384,10.075c0.014-0.034,0.028-0.065,0.041-0.096c0.026-0.064,0.059-0.128,0.017-0.197c-0.009-0.015-0.036-0.012-0.052,0.004
				c-0.052,0.057-0.077,0.127-0.075,0.202C12.315,10.02,12.329,10.056,12.384,10.075z"/>
			<path fill-rule="evenodd" clip-rule="evenodd" fill="#FAFCFB" d="M5.826,15.287c0.115,0.306-0.012,0.583-0.073,0.87
				c-0.039,0.182-0.052,0.366,0.01,0.548c0.025,0.074,0.06,0.145,0.143,0.157c0.073,0.01,0.109-0.057,0.152-0.107
				c0.046-0.052,0.065-0.168,0.151-0.133c0.073,0.029,0.037,0.135,0.032,0.208c-0.009,0.12-0.038,0.237-0.111,0.337
				c-0.075,0.103-0.172,0.167-0.306,0.154c-0.142-0.015-0.218-0.11-0.266-0.234c-0.05-0.134-0.034-0.277-0.047-0.417
				C5.465,16.173,5.667,15.736,5.826,15.287z"/>
			<path fill-rule="evenodd" clip-rule="evenodd" fill="#FAFCFB" d="M24.675,12.356c0.036-0.167,0.009-0.304-0.003-0.441
				c-0.016-0.183-0.021-0.362,0.132-0.5c0.126-0.114,0.182-0.104,0.254,0.048c0.021,0.04,0.042,0.08,0.064,0.119
				c0.023,0.043,0.025,0.088-0.003,0.128c-0.037,0.053-0.08,0.021-0.119,0.001c-0.122-0.063-0.167,0.003-0.181,0.111
				c-0.027,0.209-0.005,0.42-0.011,0.63c-0.003,0.103,0.03,0.256-0.075,0.282c-0.1,0.023-0.113-0.14-0.164-0.221
				c-0.065-0.105-0.118-0.22-0.182-0.326c-0.041-0.065-0.075-0.149-0.181-0.052c-0.056,0.051-0.127,0.01-0.129-0.081
				c-0.002-0.09,0.001-0.18-0.002-0.27c-0.002-0.068,0.022-0.119,0.085-0.144c0.067-0.025,0.114,0.01,0.152,0.063
				c0.102,0.145,0.17,0.305,0.243,0.465C24.583,12.227,24.6,12.292,24.675,12.356z"/>
			<path fill-rule="evenodd" clip-rule="evenodd" fill="#FAFCFB" d="M5.469,14.398c0.216-0.313,0.494-0.559,0.814-0.756
				c0.223-0.138,0.457-0.246,0.706-0.326c0.059-0.02,0.139-0.083,0.171,0.025c0.029,0.093,0.06,0.199-0.057,0.267
				c-0.003,0.002-0.008,0.005-0.013,0.007C6.513,13.799,5.978,14.068,5.469,14.398z"/>
			<path fill-rule="evenodd" clip-rule="evenodd" fill="#FAFCFB" d="M19.377,16.92c-0.212,0.192-0.412,0.365-0.658,0.471
				c-0.085,0.037-0.175,0.042-0.266,0.034c-0.146-0.014-0.222-0.111-0.206-0.258c0.001-0.005,0.002-0.01,0.002-0.015
				c0.013-0.103,0.103-0.222,0.042-0.3c-0.062-0.078-0.177,0.055-0.312,0.011c0.172-0.139,0.333-0.255,0.527-0.313
				c0.07-0.021,0.082,0.046,0.073,0.097c-0.012,0.084-0.035,0.167-0.053,0.25c-0.017,0.083-0.061,0.181,0.015,0.24
				c0.072,0.056,0.163,0.001,0.24-0.031c0.12-0.052,0.236-0.109,0.356-0.16C19.204,16.917,19.271,16.875,19.377,16.92z"/>
			<path fill-rule="evenodd" clip-rule="evenodd" fill="#FAFCFB" d="M16.532,12.764c0.115,0.166,0.175,0.338,0.114,0.527
				c-0.058,0.178-0.202,0.229-0.347,0.116c-0.078-0.06-0.11-0.041-0.141,0.039c-0.029,0.073-0.076,0.136-0.162,0.135
				c-0.097-0.002-0.15-0.072-0.188-0.153c-0.074-0.162-0.065-0.329-0.017-0.543c0.046,0.135,0.075,0.23,0.111,0.323
				c0.02,0.048,0.042,0.116,0.107,0.111c0.075-0.007,0.077-0.082,0.088-0.139c0.013-0.068,0.019-0.139,0.027-0.208
				c0.005-0.029,0.004-0.066,0.04-0.074c0.046-0.01,0.053,0.035,0.067,0.065c0.038,0.076,0.074,0.154,0.114,0.229
				c0.02,0.033,0.042,0.076,0.091,0.064c0.046-0.011,0.052-0.056,0.056-0.096C16.506,13.029,16.519,12.896,16.532,12.764z"/>
			<path fill-rule="evenodd" clip-rule="evenodd" fill="#FAFCFB" d="M26.054,16.602c0.057,0.005,0.103,0.002,0.146,0.013
				c0.095,0.027,0.149,0.081,0.094,0.187c-0.02,0.036-0.038,0.07-0.056,0.105c-0.072,0.14-0.059,0.166,0.095,0.179
				c0.04,0.003,0.084-0.001,0.099,0.047c0.015,0.045,0.012,0.094-0.027,0.125c-0.163,0.129-0.343,0.226-0.556,0.222
				c-0.117-0.003-0.152-0.101-0.074-0.189c0.053-0.06,0.123-0.104,0.177-0.161c0.073-0.076,0.095-0.159-0.008-0.226
				c-0.076-0.05-0.164-0.085-0.122-0.205C25.869,16.57,25.981,16.626,26.054,16.602z"/>
			<path fill-rule="evenodd" clip-rule="evenodd" fill="#FAFCFB" d="M25.522,13.106c0.014,0.133-0.029,0.197-0.104,0.239
				c-0.364,0.204-0.717,0.423-1.051,0.672c-0.035,0.024-0.085,0.063-0.121,0.02c-0.035-0.043-0.004-0.102,0.031-0.136
				c0.09-0.087,0.184-0.17,0.283-0.248c0.252-0.198,0.518-0.38,0.748-0.606c0.044-0.043,0.091-0.119,0.159-0.088
				C25.537,12.992,25.52,13.081,25.522,13.106z"/>
			<path fill-rule="evenodd" clip-rule="evenodd" fill="#FAFCFB" d="M27.958,11.343c-0.021-0.162-0.034-0.326-0.062-0.486
				c-0.034-0.203-0.104-0.395-0.211-0.573c-0.076-0.129-0.04-0.301,0.075-0.389c0.082-0.063,0.106,0.011,0.133,0.06
				c0.178,0.327,0.22,0.681,0.199,1.046C28.085,11.124,28.077,11.249,27.958,11.343z"/>
			<path fill-rule="evenodd" clip-rule="evenodd" fill="#FAFCFB" d="M20.971,10.203c-0.007,0.181-0.033,0.337-0.127,0.474
				c-0.016,0.024-0.027,0.063-0.062,0.055c-0.045-0.009-0.04-0.054-0.04-0.086c0-0.04,0.003-0.081,0.012-0.12
				c0.061-0.254-0.019-0.461-0.202-0.639c-0.14-0.138-0.145-0.225-0.03-0.379c0.076-0.103,0.136-0.107,0.211-0.003
				C20.889,9.717,20.95,9.963,20.971,10.203z"/>
			<path fill-rule="evenodd" clip-rule="evenodd" fill="#FAFCFB" d="M12.501,11.858c0.01,0.242-0.205,0.492-0.433,0.507
				c-0.138,0.01-0.275-0.104-0.306-0.254c-0.041-0.202,0.157-0.635,0.338-0.736c0.016-0.008,0.04-0.015,0.054-0.008
				c0.031,0.013,0.019,0.042,0.008,0.064c-0.016,0.037-0.034,0.072-0.052,0.108c-0.041,0.08-0.092,0.156-0.122,0.239
				c-0.038,0.104-0.07,0.226,0.038,0.305c0.116,0.085,0.203-0.01,0.29-0.08C12.376,11.955,12.418,11.879,12.501,11.858z"/>
			<path fill-rule="evenodd" clip-rule="evenodd" fill="#FAFCFB" d="M20.9,11.215c0.041,0.045,0.036,0.105,0.06,0.152
				c0.023,0.047,0.021,0.123,0.093,0.124c0.071,0.001,0.073-0.071,0.092-0.12c0.035-0.081,0.031-0.177,0.119-0.264
				c0.062,0.187,0.082,0.361,0.015,0.53c-0.045,0.114-0.147,0.114-0.234,0.041c-0.09-0.076-0.158-0.071-0.248,0.006
				c-0.108,0.094-0.171,0.069-0.217-0.068c-0.034-0.102-0.035-0.205-0.009-0.321c0.079,0.034,0.073,0.109,0.105,0.158
				c0.021,0.029,0.034,0.069,0.073,0.069c0.044-0.001,0.04-0.048,0.056-0.078C20.842,11.372,20.818,11.272,20.9,11.215z"/>
			<path fill-rule="evenodd" clip-rule="evenodd" fill="#FAFCFB" d="M25.558,14.396c-0.006,0.151-0.048,0.267-0.137,0.363
				c-0.017,0.019-0.035,0.045-0.06,0.032c-0.018-0.01-0.036-0.047-0.029-0.063c0.094-0.292-0.049-0.472-0.271-0.635
				c-0.091-0.067-0.002-0.154,0.053-0.217c0.06-0.069,0.132-0.07,0.196-0.008C25.466,14.019,25.537,14.207,25.558,14.396z"/>
			<path fill-rule="evenodd" clip-rule="evenodd" fill="#FAFCFB" d="M8.618,9.436c0.047,0.065,0.025,0.135,0.045,0.195
				c0.021,0.062,0.04,0.131,0.12,0.137c0.082,0.006,0.083-0.071,0.107-0.123c0.014-0.029-0.001-0.074,0.05-0.09
				c0.084,0.121,0.05,0.238-0.03,0.338c-0.072,0.088-0.163,0.09-0.24-0.006C8.637,9.843,8.616,9.8,8.544,9.855
				c-0.203,0.153-0.395,0.061-0.425-0.201C8.106,9.552,8.122,9.455,8.208,9.369c0.065,0.072,0.052,0.158,0.06,0.238
				c0.007,0.062,0.018,0.125,0.088,0.142c0.07,0.016,0.112-0.036,0.143-0.087C8.542,9.591,8.576,9.515,8.618,9.436z"/>
			<path fill-rule="evenodd" clip-rule="evenodd" fill="#FAFCFB" d="M11.505,15.664c-0.041-0.059-0.012-0.106,0-0.151
				c0.034-0.116,0.049-0.234,0.042-0.355c-0.003-0.053-0.01-0.099-0.085-0.087c-0.106,0.018-0.185-0.02-0.185-0.137
				c0-0.116,0.018-0.244,0.145-0.286c0.107-0.035,0.218,0.012,0.255,0.125C11.754,15.003,11.75,15.416,11.505,15.664z"/>
			<path fill-rule="evenodd" clip-rule="evenodd" fill="#FAFCFB" d="M15.502,10.806c-0.042-0.071-0.034-0.145-0.029-0.218
				c0.018-0.283-0.041-0.547-0.196-0.788c-0.021-0.033-0.043-0.068-0.054-0.105c-0.024-0.091,0.042-0.143,0.104-0.183
				c0.074-0.048,0.114,0.024,0.137,0.073C15.65,9.986,15.645,10.396,15.502,10.806z"/>
			<path fill-rule="evenodd" clip-rule="evenodd" fill="#FAFCFB" d="M6.129,10.161c0.101-0.033-0.02-0.087,0.018-0.151
				c0.049-0.083,0.049-0.202,0.042-0.307C6.183,9.609,6.151,9.556,6.047,9.619c-0.049,0.029-0.109,0.08-0.16,0.018
				c-0.052-0.064,0-0.126,0.045-0.17C6.011,9.387,6.082,9.26,6.215,9.317c0.127,0.055,0.134,0.19,0.122,0.312
				C6.317,9.824,6.268,10.011,6.129,10.161z"/>
			<path fill-rule="evenodd" clip-rule="evenodd" fill="#009530" d="M17.575,13.387c-0.002-0.135,0.036-0.17,0.158-0.115
				c0.126,0.059,0.246,0.133,0.366,0.204c0.074,0.044,0.048,0.074-0.019,0.093c-0.067,0.019-0.133,0.042-0.201,0.058
				C17.587,13.693,17.581,13.688,17.575,13.387z"/>
			<path fill-rule="evenodd" clip-rule="evenodd" fill="#009530" d="M25.097,24.916c-0.069,0-0.14-0.002-0.21,0
				c-0.081,0.003-0.146-0.003-0.209-0.078c-0.083-0.098-0.196-0.088-0.266,0.02c-0.041,0.062-0.083,0.073-0.145,0.074
				c-0.176,0.003-0.351,0.012-0.526,0.015c-0.146,0.001-0.302-0.244-0.241-0.374c0.02-0.042,0.055-0.036,0.088-0.037
				c0.612-0.018,1.225-0.033,1.836-0.049c0.02-0.001,0.054-0.002,0.057,0.006c0.048,0.122-0.03,0.24-0.008,0.365
				c0.011,0.064-0.064,0.044-0.104,0.046c-0.09,0.004-0.18,0.002-0.271,0.002C25.097,24.909,25.097,24.913,25.097,24.916z"/>
			<path fill-rule="evenodd" clip-rule="evenodd" fill="#009530" d="M9.228,13.923c-0.074,0.046-0.147,0.063-0.22,0.078
				c-0.21,0.042-0.268-0.006-0.258-0.216c0.006-0.181,0.076-0.22,0.237-0.134C9.059,13.691,9.112,13.749,9.228,13.923z"/>
			<path fill-rule="evenodd" clip-rule="evenodd" fill="#009530" d="M25.759,10.808c0,0.013,0.006,0.034,0,0.038
				c-0.017,0.011-0.017-0.008-0.021-0.019C25.745,10.82,25.751,10.813,25.759,10.808z"/>
			<path fill-rule="evenodd" clip-rule="evenodd" fill="#009530" d="M18.916,10.446c-0.005-0.011-0.011-0.022-0.016-0.034
				c0.016-0.001,0.032-0.002,0.048-0.003C18.937,10.421,18.926,10.434,18.916,10.446z"/>
			<path fill-rule="evenodd" clip-rule="evenodd" fill="#009530" d="M12.384,10.075c-0.055-0.019-0.069-0.055-0.069-0.087
				c-0.002-0.075,0.022-0.145,0.075-0.202c0.016-0.017,0.042-0.019,0.052-0.004c0.042,0.069,0.009,0.133-0.017,0.197
				C12.413,10.01,12.398,10.042,12.384,10.075z"/>
		</g>
	</g>
	<g>
		<defs>
			<circle id="SVGID_91_" cx="-19.634" cy="17.345" r="15.917"/>
		</defs>
		<clipPath id="SVGID_6_">
			<use xlink:href="#SVGID_91_"  overflow="visible"/>
		</clipPath>
		<g clip-path="url(#SVGID_6_)">
			<path fill-rule="evenodd" clip-rule="evenodd" fill="#75AADB" d="M-45.737,0.565c17.347,0,34.693,0,52.039,0
				c0,3.729,0,7.459,0,11.188c-0.107-0.004-0.216-0.011-0.323-0.011c-17.121,0-34.24,0-51.36,0c-0.115,0-0.23-0.004-0.346-0.005
				c-0.023-0.1-0.015-0.202-0.015-0.303c0-3.535,0-7.07,0-10.604C-45.742,0.741-45.739,0.652-45.737,0.565z"/>
			<path fill-rule="evenodd" clip-rule="evenodd" fill="#75AADB" d="M6.302,22.903c0,3.716,0,7.432,0,11.148
				c-17.359,0-34.72,0-52.08,0c0.003-0.054,0.01-0.107,0.01-0.162c0-3.657,0-7.315-0.001-10.973
				c0.114-0.028,0.229-0.015,0.344-0.015C-28.277,22.9-11.131,22.9,6.019,22.9C6.112,22.9,6.208,22.902,6.302,22.903z"/>
			<path fill-rule="evenodd" clip-rule="evenodd" fill="#FFFFFF" d="M6.302,22.903C6.208,22.902,6.112,22.9,6.019,22.9
				c-17.149,0-34.296,0-51.444,0.001c-0.114,0-0.229-0.013-0.344,0.015c-0.017-0.004-0.033-0.009-0.05-0.013
				c0-3.717,0-7.433,0-11.149c0.03-0.006,0.061-0.011,0.092-0.017c0.115,0.001,0.23,0.005,0.346,0.005c17.12,0,34.239,0,51.36,0
				c0.107,0,0.216,0.007,0.323,0.011C6.302,15.47,6.302,19.186,6.302,22.903z M-22.195,20.933c-0.015,0.012-0.03,0.023-0.045,0.035
				c-0.024,0.011-0.05,0.02-0.071,0.035c-0.042,0.027-0.111,0.043-0.081,0.114c0.027,0.063,0.094,0.051,0.142,0.035
				c0.144-0.044,0.26-0.13,0.331-0.268c0.124-0.155,0.148-0.358,0.247-0.525c0.03-0.04,0.061-0.08,0.09-0.12
				c0.012-0.014,0.022-0.028,0.033-0.042c0.014-0.015,0.025-0.029,0.038-0.044c0.014-0.014,0.027-0.028,0.04-0.041
				c0.014-0.014,0.027-0.027,0.041-0.041c0.015-0.012,0.028-0.025,0.043-0.038s0.028-0.023,0.043-0.036
				c0.094-0.071,0.181-0.146,0.243-0.247c0.052-0.048,0.095-0.103,0.119-0.17c0.074-0.057,0.067-0.187,0.185-0.215
				c0.022,0.098-0.026,0.17-0.055,0.244c-0.219,0.596-0.442,1.193-0.663,1.789c-0.018,0.05-0.04,0.102-0.045,0.155
				c-0.008,0.073,0.057,0.106,0.121,0.066c0.03-0.019,0.042-0.051,0.049-0.085c0.084-0.142,0.149-0.292,0.208-0.446
				c0.088-0.173,0.177-0.346,0.241-0.53c0.083-0.142,0.148-0.292,0.206-0.446c0.094-0.171,0.174-0.348,0.243-0.53
				c0.057-0.061,0.057-0.161,0.155-0.231c-0.006,0.346,0.011,0.668-0.144,0.964c-0.139,0.267-0.188,0.549-0.147,0.844
				c0.03,0.219,0.056,0.43-0.114,0.608c-0.021,0.021-0.02,0.052-0.002,0.074c0.018,0.021,0.045,0.029,0.073,0.02
				c0.089-0.027,0.156-0.075,0.173-0.173h0.002c0.141-0.128,0.135-0.301,0.128-0.465c-0.012-0.262,0.026-0.512,0.148-0.742
				c0.154-0.292,0.226-0.603,0.245-0.927c0.022-0.013,0.045-0.025,0.067-0.039c0.028,0.758,0.058,1.518,0.088,2.276
				c0.003,0.079-0.015,0.191,0.096,0.191c0.101,0,0.076-0.11,0.08-0.18c0.027-0.69,0.052-1.381,0.079-2.072
				c0.004-0.099-0.005-0.199,0.042-0.333c0.135,0.333,0.265,0.627,0.245,0.961c-0.006,0.102-0.007,0.202,0.005,0.305
				c0.029,0.249,0.135,0.466,0.256,0.679c0.071,0.127,0.122,0.257,0.067,0.407c-0.017,0.047-0.05,0.109,0.021,0.137
				c0.063,0.023,0.101-0.028,0.127-0.076c0.019-0.035,0.033-0.074,0.044-0.113c0.049-0.178,0.022-0.353-0.06-0.513
				c-0.136-0.262-0.174-0.538-0.15-0.828c0.021-0.26-0.014-0.513-0.1-0.76c-0.019-0.051-0.049-0.107-0.015-0.181
				c0.08,0.057,0.085,0.148,0.137,0.207c0.059,0.153,0.121,0.306,0.206,0.447c0.066,0.184,0.15,0.358,0.241,0.53
				c0.059,0.153,0.124,0.303,0.206,0.446c0.066,0.184,0.151,0.358,0.246,0.529c0.012,0.017,0.024,0.032,0.036,0.048
				c0.069,0.038,0.102,0.007,0.11-0.061c0.008-0.063-0.025-0.118-0.047-0.174c-0.245-0.666-0.491-1.33-0.737-1.995
				c-0.019-0.051-0.047-0.102-0.049-0.153c-0.002-0.062,0.04-0.026,0.068-0.016c0.096,0.106,0.191,0.212,0.288,0.318
				c0.056,0.081,0.111,0.162,0.168,0.243c0.069,0.181,0.113,0.374,0.238,0.531c0.029,0.063,0.07,0.118,0.127,0.16
				c0.014,0.014,0.026,0.028,0.04,0.042c0.015,0.014,0.027,0.027,0.04,0.041c0.016,0.013,0.03,0.025,0.046,0.039
				c0.054,0.07,0.122,0.124,0.198,0.168c0.12,0.104,0.205,0.227,0.213,0.392c0.001,0.034,0.008,0.069,0.05,0.076
				c0.049,0.009,0.073-0.025,0.087-0.064c0.048-0.145,0.008-0.276-0.065-0.4c-0.017-0.05-0.043-0.091-0.084-0.125
				c-0.012-0.014-0.022-0.028-0.034-0.041c-0.013-0.014-0.026-0.028-0.041-0.042c-0.015-0.013-0.029-0.026-0.043-0.04
				c-0.014-0.013-0.029-0.026-0.044-0.039c-0.014-0.013-0.027-0.027-0.042-0.04c-0.014-0.013-0.027-0.027-0.04-0.04
				c-0.012-0.015-0.024-0.029-0.036-0.042c-0.123-0.168-0.214-0.351-0.277-0.549c-0.023-0.075-0.044-0.153-0.096-0.218
				c-0.008-0.031-0.016-0.062-0.043-0.082c-0.009-0.051-0.04-0.09-0.073-0.127c-0.021-0.045-0.048-0.087-0.091-0.116
				c-0.011-0.015-0.023-0.031-0.035-0.045c-0.011-0.015-0.022-0.029-0.032-0.043c-0.021-0.023-0.042-0.044-0.063-0.066
				c-0.017-0.061-0.089-0.09-0.091-0.159c0.114-0.009,0.141,0.115,0.227,0.151c0.014,0.013,0.027,0.025,0.041,0.037
				c0.015,0.012,0.028,0.024,0.042,0.037c0.015,0.013,0.029,0.026,0.044,0.039c0.123,0.136,0.26,0.259,0.401,0.377
				c0.013,0.012,0.026,0.025,0.041,0.038c0.014,0.013,0.027,0.026,0.041,0.038c0.015,0.012,0.028,0.025,0.043,0.038
				c0.014,0.012,0.029,0.025,0.043,0.038c0.014,0.013,0.027,0.027,0.042,0.04c0.075,0.088,0.158,0.169,0.254,0.234
				c0.036,0.06,0.092,0.101,0.146,0.141c0.014,0.013,0.028,0.025,0.042,0.038c0.015,0.013,0.027,0.026,0.042,0.039
				c0.015,0.013,0.029,0.025,0.043,0.038c0.015,0.013,0.029,0.026,0.043,0.039c0.08,0.079,0.16,0.159,0.242,0.238
				c0.033,0.032,0.063,0.073,0.111,0.08c0.065,0.01,0.129,0.01,0.089-0.089v-0.001c-0.092-0.168-0.238-0.289-0.37-0.421
				c-0.013-0.015-0.026-0.028-0.039-0.043c-0.012-0.014-0.024-0.028-0.036-0.042c-0.013-0.014-0.026-0.028-0.038-0.041
				c-0.014-0.014-0.026-0.028-0.039-0.042c-0.105-0.126-0.214-0.25-0.337-0.358c-0.014-0.015-0.026-0.029-0.04-0.043
				c-0.012-0.014-0.024-0.029-0.037-0.043c-0.013-0.014-0.026-0.028-0.038-0.042c-0.013-0.014-0.024-0.028-0.037-0.042
				c-0.028-0.041-0.057-0.082-0.104-0.105c-0.079-0.109-0.172-0.206-0.272-0.295c-0.014-0.015-0.026-0.029-0.04-0.043
				c-0.012-0.015-0.025-0.028-0.037-0.043c-0.013-0.014-0.025-0.028-0.037-0.042c-0.013-0.014-0.025-0.027-0.039-0.041
				c-0.031-0.04-0.063-0.08-0.095-0.12c0.017-0.016,0.032-0.031,0.048-0.046c0.069,0.028,0.14,0.056,0.208,0.084
				c0.08,0.04,0.161,0.081,0.24,0.122c0.042,0.028,0.084,0.055,0.126,0.082c0.171,0.139,0.286,0.341,0.49,0.446
				c0.156,0.127,0.346,0.178,0.534,0.231c0.14,0.039,0.269,0.091,0.356,0.214c0.01,0.03,0.018,0.062,0.046,0.082
				c0.061,0.089,0.1,0.043,0.118-0.026c0.016-0.06-0.01-0.118-0.047-0.167c-0.044-0.104-0.122-0.177-0.216-0.235
				c-0.135-0.12-0.316-0.143-0.471-0.221c-0.042-0.026-0.083-0.052-0.126-0.078c-0.044-0.036-0.09-0.072-0.135-0.107
				c-0.006-0.021-0.02-0.035-0.042-0.04c-0.013-0.014-0.025-0.028-0.04-0.041c-0.014-0.014-0.025-0.028-0.04-0.042
				c-0.04-0.067-0.09-0.125-0.154-0.17c-0.014-0.014-0.027-0.028-0.041-0.042c-0.056-0.071-0.121-0.128-0.203-0.166
				c-0.108-0.092-0.236-0.15-0.366-0.204c-0.021-0.02-0.041-0.039-0.063-0.058c0.01-0.012,0.019-0.025,0.027-0.038
				c0.063,0.021,0.129,0.04,0.192,0.063c0.647,0.24,1.295,0.479,1.942,0.718c0.052,0.02,0.101,0.044,0.153,0.054
				c0.086,0.017,0.103-0.016,0.074-0.132c-0.249-0.145-0.514-0.256-0.78-0.364c-0.17-0.096-0.347-0.176-0.529-0.244
				c-0.143-0.083-0.293-0.149-0.447-0.205c-0.152-0.104-0.344-0.136-0.521-0.282c0.369,0.014,0.699-0.008,1.003,0.153
				c0.293,0.155,0.603,0.181,0.924,0.131c0.136-0.02,0.267-0.02,0.396,0.03c0.035,0.03,0.068,0.063,0.104,0.091
				c0.026,0.021,0.061,0.03,0.091,0.007s0.029-0.06,0.016-0.09c-0.014-0.029-0.037-0.053-0.056-0.08
				c-0.015-0.014-0.028-0.028-0.042-0.041c-0.032-0.042-0.073-0.07-0.125-0.082c-0.131-0.086-0.279-0.098-0.427-0.086
				c-0.264,0.02-0.514-0.03-0.744-0.152c-0.28-0.149-0.579-0.217-0.892-0.238c-0.013-0.023-0.025-0.045-0.038-0.068
				c0.735-0.029,1.469-0.058,2.203-0.087c0.061-0.001,0.123,0,0.18-0.017c0.056-0.016,0.097-0.055,0.048-0.12
				c-0.036-0.042-0.085-0.037-0.132-0.039c-0.216-0.01-0.432-0.022-0.647-0.03c-0.515-0.019-1.028-0.034-1.543-0.052
				c-0.066-0.003-0.14,0.007-0.221-0.051c0.346-0.138,0.661-0.257,1.021-0.233c0.314,0.021,0.612-0.058,0.861-0.27l-0.001,0
				c0.052,0.018,0.09-0.02,0.132-0.038c0.096-0.044,0.192-0.058,0.296-0.027c0.056,0.017,0.13,0.058,0.156-0.018
				c0.025-0.076-0.051-0.115-0.113-0.144c-0.029-0.015-0.063-0.022-0.096-0.031c-0.172-0.042-0.339-0.016-0.492,0.064
				c-0.262,0.136-0.537,0.174-0.826,0.151c-0.231-0.018-0.458,0.001-0.681,0.072c-0.04,0.012-0.087,0.039-0.143-0.015
				c0.067-0.093,0.188-0.097,0.267-0.165c0.183-0.066,0.358-0.15,0.53-0.242c0.153-0.059,0.304-0.122,0.445-0.206
				c0.029-0.013,0.057-0.026,0.085-0.039c0.154-0.057,0.305-0.122,0.446-0.206c0.104-0.031,0.203-0.074,0.292-0.135
				c0.031-0.022,0.039-0.055,0.028-0.091c-0.012-0.039-0.046-0.043-0.081-0.044c-0.069-0.001-0.131,0.034-0.193,0.057
				c-0.634,0.234-1.265,0.472-1.899,0.704c-0.06,0.021-0.123,0.093-0.197,0.024c-0.021-0.057,0.047-0.068,0.058-0.108
				c0.015-0.013,0.03-0.025,0.044-0.039c0.015-0.013,0.029-0.026,0.045-0.038c0.013-0.011,0.025-0.023,0.038-0.034
				c0.068-0.056,0.136-0.111,0.204-0.168c0.136-0.09,0.293-0.138,0.438-0.209c0.03-0.012,0.058-0.024,0.088-0.037
				c0.025-0.015,0.052-0.029,0.078-0.044c0.05-0.014,0.09-0.042,0.122-0.082c0.016-0.012,0.031-0.022,0.046-0.032
				c0.085-0.054,0.152-0.126,0.21-0.208c0.012-0.014,0.023-0.029,0.034-0.042c0.012-0.016,0.023-0.031,0.035-0.047
				c0.033-0.022,0.06-0.051,0.072-0.09c0.021-0.022,0.042-0.042,0.063-0.064c0.012-0.011,0.022-0.023,0.034-0.035
				c0.073-0.051,0.153-0.082,0.242-0.097c0.051-0.008,0.127,0.005,0.123-0.069c-0.001-0.073-0.078-0.083-0.137-0.091
				c-0.04-0.005-0.08,0.001-0.12,0.008c-0.16,0.023-0.291,0.102-0.403,0.215c-0.091,0.091-0.181,0.181-0.271,0.272
				c-0.041,0.027-0.083,0.055-0.125,0.082c-0.104,0.043-0.208,0.091-0.315,0.131c-0.145,0.053-0.292,0.097-0.418,0.19
				c-0.046,0.019-0.087,0.046-0.12,0.083c-0.027,0.013-0.056,0.027-0.068,0.057c-0.036,0.01-0.074,0.053-0.105,0.022
				c-0.04-0.041,0.005-0.078,0.031-0.11c0.016-0.02,0.029-0.042,0.045-0.063c0.058-0.037,0.101-0.091,0.141-0.147
				c0.012-0.013,0.023-0.026,0.036-0.039c0.014-0.015,0.025-0.03,0.04-0.044c0.012-0.015,0.024-0.029,0.037-0.044
				c0.013-0.014,0.026-0.028,0.039-0.042c0.013-0.015,0.026-0.029,0.04-0.043c0.109-0.095,0.206-0.204,0.298-0.316
				c0.013-0.014,0.026-0.027,0.038-0.041c0.013-0.014,0.024-0.028,0.037-0.043c0.013-0.014,0.025-0.028,0.038-0.042
				c0.012-0.014,0.026-0.028,0.038-0.042c0.014-0.015,0.026-0.028,0.038-0.043c0.015-0.014,0.026-0.028,0.04-0.042
				c0.113-0.092,0.206-0.205,0.3-0.315c0.013-0.014,0.024-0.028,0.037-0.042c0.012-0.014,0.025-0.028,0.038-0.042
				c0.012-0.014,0.024-0.029,0.037-0.042c0.013-0.015,0.025-0.029,0.038-0.043c0.014-0.015,0.027-0.028,0.04-0.043
				c0.048-0.037,0.097-0.086,0.048-0.144c-0.06-0.07-0.113-0.016-0.157,0.034c-0.015,0.013-0.028,0.027-0.043,0.04
				c-0.014,0.012-0.028,0.025-0.043,0.037c-0.015,0.013-0.028,0.026-0.042,0.04c-0.014,0.012-0.028,0.024-0.042,0.036
				s-0.027,0.025-0.042,0.038c-0.098,0.079-0.192,0.163-0.273,0.261c-0.014,0.013-0.028,0.026-0.043,0.039
				c-0.014,0.013-0.028,0.026-0.042,0.039c-0.014,0.013-0.028,0.026-0.043,0.039c-0.014,0.013-0.028,0.025-0.042,0.038
				c-0.015,0.012-0.028,0.024-0.043,0.037c-0.013,0.013-0.027,0.026-0.041,0.039c-0.111,0.093-0.223,0.186-0.315,0.298
				c-0.015,0.013-0.028,0.026-0.043,0.04c-0.015,0.012-0.028,0.025-0.042,0.039c-0.015,0.013-0.028,0.026-0.043,0.039
				c-0.015,0.012-0.028,0.025-0.042,0.038c-0.015,0.012-0.028,0.024-0.043,0.037c-0.014,0.012-0.027,0.025-0.042,0.038
				c-0.042,0.027-0.081,0.058-0.104,0.104c-0.081,0.052-0.15,0.119-0.21,0.194c-0.033,0.022-0.066,0.043-0.099,0.066
				c-0.018-0.011-0.034-0.021-0.051-0.032c0.02-0.056,0.038-0.111,0.058-0.167c0.039-0.081,0.078-0.163,0.118-0.245
				c0.045-0.066,0.09-0.132,0.135-0.198c0.012-0.015,0.021-0.029,0.032-0.042c0.014-0.014,0.026-0.029,0.038-0.042
				c0.015-0.013,0.028-0.027,0.042-0.04c0.014-0.013,0.03-0.026,0.045-0.039c0.013-0.011,0.025-0.022,0.039-0.034
				c0.05-0.035,0.093-0.077,0.125-0.129c0.011-0.016,0.021-0.031,0.033-0.046c0.04-0.03,0.068-0.071,0.085-0.119
				c0.097-0.125,0.14-0.273,0.185-0.42c0.037-0.121,0.072-0.243,0.137-0.354c0.014-0.013,0.028-0.027,0.042-0.04
				c0.046-0.025,0.094-0.051,0.141-0.077c0.031-0.018,0.056-0.044,0.042-0.081c-0.013-0.034-0.049-0.05-0.082-0.049
				c-0.082,0.001-0.156,0.03-0.218,0.086c-0.072,0.037-0.126,0.094-0.166,0.164c-0.064,0.064-0.096,0.147-0.123,0.229
				c-0.058,0.168-0.141,0.321-0.246,0.463c-0.011,0.014-0.022,0.028-0.034,0.042c-0.014,0.015-0.026,0.03-0.039,0.043
				c-0.014,0.014-0.027,0.027-0.041,0.041c-0.015,0.013-0.028,0.026-0.041,0.039c-0.015,0.012-0.029,0.024-0.043,0.037
				c-0.015,0.012-0.028,0.024-0.043,0.036c-0.093,0.072-0.18,0.149-0.241,0.252c-0.039,0.032-0.065,0.073-0.086,0.12
				c-0.105,0.117-0.128,0.288-0.257,0.403c-0.027-0.101,0.026-0.17,0.053-0.243c0.234-0.638,0.473-1.275,0.709-1.913
				c0.021-0.057,0.04-0.114,0.054-0.172c0.009-0.04,0.005-0.084-0.045-0.1c-0.045-0.014-0.08,0.009-0.101,0.046
				c-0.049,0.088-0.096,0.178-0.123,0.276c-0.083,0.142-0.147,0.292-0.205,0.447c-0.013,0.028-0.024,0.056-0.039,0.083
				c-0.082,0.142-0.147,0.292-0.203,0.446c-0.026,0.022-0.032,0.053-0.038,0.085c-0.084,0.141-0.151,0.29-0.206,0.446
				c-0.082,0.142-0.147,0.292-0.205,0.445c-0.021,0.008-0.057,0.071-0.058-0.003c-0.001-0.344,0.004-0.687,0.169-1.004
				c0.118-0.228,0.15-0.471,0.127-0.725c-0.008-0.087-0.011-0.175-0.018-0.262c-0.01-0.117-0.002-0.229,0.062-0.331
				c0.012-0.016,0.024-0.031,0.036-0.047c0.037-0.03,0.075-0.063,0.035-0.113c-0.03-0.039-0.07-0.026-0.106-0.005
				c-0.079,0.034-0.132,0.093-0.164,0.173c-0.097,0.125-0.12,0.27-0.107,0.42c0.025,0.314-0.049,0.603-0.193,0.879
				c-0.109,0.211-0.171,0.439-0.182,0.681c-0.003,0.106-0.023,0.213-0.037,0.319c-0.013-0.001-0.026-0.002-0.04-0.004
				c-0.036-0.356-0.026-0.715-0.038-1.072c0.011-0.047,0.011-0.093-0.008-0.138c-0.019-0.396-0.035-0.79-0.055-1.185
				c-0.004-0.064,0.015-0.136-0.039-0.191c-0.05-0.039-0.087-0.021-0.115,0.028c-0.028,0.05-0.021,0.104-0.022,0.159
				c-0.018,0.5-0.032,1.001-0.052,1.502c-0.011,0.285-0.027,0.57-0.043,0.884c-0.185-0.329-0.279-0.674-0.264-1.012
				c0.015-0.315-0.06-0.603-0.23-0.867c-0.015-0.027-0.029-0.053-0.044-0.079c-0.015-0.027-0.028-0.054-0.041-0.081
				c-0.04-0.124-0.042-0.247,0-0.372c0.011-0.034,0.005-0.067-0.028-0.086c-0.035-0.021-0.064,0.001-0.088,0.024
				c-0.019,0.018-0.03,0.042-0.044,0.064c-0.116,0.211-0.08,0.421,0.018,0.623c0.134,0.269,0.177,0.551,0.154,0.848
				c-0.019,0.231-0.002,0.459,0.077,0.681c0.016,0.044,0.036,0.096-0.009,0.153c-0.095-0.076-0.096-0.19-0.164-0.264
				c-0.012-0.029-0.024-0.058-0.036-0.086c-0.057-0.154-0.124-0.304-0.208-0.445c-0.064-0.184-0.147-0.358-0.24-0.53
				c-0.059-0.153-0.121-0.304-0.205-0.446c-0.014-0.028-0.026-0.057-0.038-0.084c-0.029-0.088-0.063-0.176-0.121-0.25
				c-0.116-0.031-0.15-0.015-0.134,0.07c0.01,0.052,0.034,0.102,0.053,0.152c0.252,0.683,0.504,1.365,0.756,2.047
				c0.018,0.045,0.05,0.09,0.033,0.12c-0.115-0.103-0.23-0.206-0.346-0.308c-0.012-0.015-0.022-0.03-0.034-0.045
				c-0.029-0.039-0.06-0.078-0.089-0.117c-0.101-0.168-0.136-0.365-0.24-0.53c-0.037-0.093-0.091-0.176-0.168-0.24
				c-0.014-0.015-0.026-0.03-0.039-0.044c-0.014-0.014-0.027-0.027-0.04-0.041c-0.015-0.013-0.029-0.027-0.043-0.04
				c-0.055-0.071-0.124-0.123-0.197-0.171c-0.016-0.011-0.031-0.022-0.046-0.034c-0.041-0.041-0.081-0.082-0.122-0.123
				c-0.041-0.085-0.056-0.178-0.069-0.271c-0.003-0.023-0.026-0.054-0.047-0.06c-0.035-0.011-0.061,0.018-0.082,0.047
				c-0.028,0.042-0.026,0.089-0.026,0.136c0.002,0.147,0.055,0.275,0.15,0.386c0.012,0.016,0.022,0.031,0.034,0.045
				c0.028,0.029,0.057,0.057,0.084,0.085c0.014,0.012,0.026,0.024,0.04,0.037s0.028,0.026,0.043,0.039
				c0.013,0.014,0.026,0.027,0.041,0.041c0.014,0.014,0.025,0.027,0.039,0.041c0.011,0.014,0.022,0.029,0.034,0.043
				c0.028,0.04,0.057,0.08,0.086,0.121c0.016,0.024,0.03,0.049,0.046,0.075c0.014,0.027,0.028,0.055,0.042,0.083
				c0.082,0.222,0.134,0.458,0.284,0.65c0.026,0.066,0.067,0.12,0.123,0.164c0.011,0.016,0.022,0.031,0.033,0.045
				c0.011,0.018,0.023,0.034,0.031,0.051c0.011,0.022,0.037,0.042,0.01,0.07c-0.029,0.029-0.048,0.002-0.069-0.01
				c-0.017-0.009-0.032-0.022-0.048-0.034c-0.015-0.012-0.029-0.024-0.043-0.037c-0.014-0.013-0.029-0.025-0.043-0.038
				c-0.014-0.012-0.027-0.025-0.042-0.039s-0.029-0.026-0.044-0.039c-0.107-0.126-0.232-0.231-0.357-0.338
				c-0.014-0.013-0.027-0.026-0.041-0.038c-0.015-0.013-0.028-0.025-0.042-0.038c-0.015-0.012-0.029-0.024-0.043-0.038
				c-0.014-0.013-0.028-0.026-0.044-0.039c-0.074-0.088-0.156-0.169-0.253-0.234c-0.014-0.013-0.027-0.026-0.042-0.039
				c-0.023-0.046-0.065-0.074-0.105-0.103c-0.014-0.013-0.027-0.025-0.041-0.038c-0.015-0.013-0.028-0.026-0.042-0.038
				c-0.014-0.013-0.028-0.025-0.042-0.038c-0.016-0.013-0.029-0.026-0.044-0.039c-0.12-0.12-0.224-0.256-0.381-0.332l0,0
				c-0.061-0.04-0.085-0.005-0.094,0.049c-0.008,0.051,0.024,0.088,0.057,0.122c0.102,0.105,0.203,0.21,0.306,0.314
				c0.013,0.014,0.025,0.028,0.04,0.043c0.012,0.014,0.023,0.028,0.036,0.042c0.012,0.014,0.024,0.028,0.036,0.042
				c0.015,0.014,0.026,0.028,0.04,0.041c0.041,0.055,0.082,0.111,0.143,0.148c0.053,0.082,0.119,0.149,0.194,0.21
				c0.014,0.015,0.026,0.029,0.04,0.043c0.012,0.015,0.024,0.029,0.037,0.043c0.013,0.014,0.025,0.028,0.039,0.042
				c0.013,0.014,0.024,0.028,0.036,0.043c0.013,0.013,0.025,0.027,0.039,0.041c0.105,0.125,0.212,0.25,0.338,0.358
				c0.012,0.014,0.025,0.029,0.039,0.043c0.013,0.015,0.025,0.028,0.038,0.043c0.012,0.014,0.024,0.028,0.036,0.042
				c0.016,0.016,0.029,0.031,0.043,0.046c0.011,0.012,0.022,0.024,0.033,0.037c0.028,0.035,0.054,0.069,0.082,0.104
				c-0.015,0.014-0.03,0.028-0.044,0.042c-0.074-0.031-0.146-0.066-0.22-0.094c-0.123-0.045-0.221-0.146-0.356-0.162l0.004,0.001
				c-0.134-0.159-0.272-0.313-0.436-0.441c-0.013-0.01-0.037-0.006-0.056-0.008l0.002,0.002c0.004-0.033-0.02-0.049-0.041-0.061
				c-0.198-0.116-0.409-0.197-0.638-0.223l0.006,0c-0.107-0.077-0.219-0.152-0.271-0.284c-0.011-0.027-0.038-0.04-0.065-0.037
				c-0.039,0.004-0.057,0.037-0.057,0.071c-0.002,0.127,0.042,0.233,0.161,0.297l-0.001-0.001c-0.003,0.031,0.013,0.045,0.044,0.042
				l-0.002-0.001c0.021,0.057,0.056,0.096,0.124,0.084l-0.002-0.002c0.125,0.12,0.291,0.154,0.45,0.204l-0.003,0
				c0.014,0.042,0.037,0.066,0.084,0.044l-0.006-0.003c-0.01,0.042,0.016,0.044,0.046,0.042l-0.002-0.002
				c0.031,0.079,0.1,0.12,0.165,0.162l-0.001-0.002c0.003,0.025,0.017,0.04,0.043,0.043l-0.002-0.001
				c0.039,0.07,0.081,0.137,0.162,0.166l-0.002-0.002c-0.003,0.031,0.012,0.046,0.044,0.043l-0.004-0.003
				c-0.002,0.032,0.014,0.046,0.044,0.043l-0.002-0.001c0.031,0.071,0.078,0.124,0.164,0.125l-0.002-0.002
				c0.018,0.063,0.06,0.09,0.125,0.083l-0.002-0.001c0.029,0.099,0.186,0.07,0.203,0.195c-0.095,0.015-0.166-0.03-0.239-0.057
				c-0.607-0.224-1.214-0.45-1.82-0.674c-0.057-0.021-0.11-0.054-0.174-0.046c-0.067,0.008-0.102,0.038-0.063,0.108
				c0.016,0.012,0.031,0.025,0.048,0.039c0.17,0.097,0.346,0.179,0.529,0.245c0.142,0.083,0.292,0.149,0.445,0.207
				c0.173,0.089,0.347,0.177,0.531,0.241c0.141,0.083,0.292,0.148,0.445,0.207c0.083,0.07,0.211,0.072,0.292,0.177
				c-0.395,0.006-0.762-0.016-1.104-0.199c-0.164-0.088-0.351-0.104-0.533-0.105c-0.115,0-0.23,0.011-0.345,0.025
				c-0.146,0.018-0.283-0.003-0.407-0.084l0.001,0.001c-0.023-0.044-0.059-0.082-0.109-0.057c-0.053,0.027-0.034,0.08-0.017,0.124
				c0.008,0.017,0.027,0.027,0.041,0.04c0.02,0.019,0.038,0.039,0.058,0.058c0.136,0.142,0.31,0.173,0.494,0.167
				c0.216-0.008,0.428-0.001,0.633,0.08c0.022,0.009,0.05,0.002,0.076,0.003l-0.003-0.001c0.01,0.051,0.047,0.048,0.085,0.041
				h-0.005c0.209,0.166,0.456,0.218,0.713,0.245c0.122,0.012,0.246,0.011,0.408,0.071c-0.36,0.058-0.68,0.026-0.995,0.055
				c-0.07-0.008-0.142-0.01-0.211,0.011c-0.412,0.016-0.825,0.03-1.238,0.049c-0.072,0.003-0.194-0.033-0.188,0.088
				c0.005,0.107,0.121,0.084,0.197,0.087c0.752,0.028,1.503,0.056,2.254,0.086c0.03,0.001,0.087-0.032,0.093,0.046
				c-0.333,0.129-0.663,0.264-1.035,0.228c-0.258-0.025-0.496,0.056-0.721,0.176c-0.197,0.105-0.382,0.227-0.629,0.139
				c-0.087-0.03-0.094,0.046-0.043,0.111c0.24,0.19,0.481,0.132,0.724,0.002c0.278-0.12,0.57-0.149,0.872-0.124
				c0.196,0.016,0.391-0.006,0.579-0.067c0.063-0.02,0.122-0.047,0.188-0.033c0.013,0.076-0.056,0.074-0.083,0.107
				c-0.182,0.069-0.357,0.151-0.529,0.243c-0.154,0.058-0.304,0.125-0.446,0.207c-0.184,0.065-0.359,0.15-0.53,0.243
				c-0.16,0.072-0.321,0.142-0.48,0.215c-0.045,0.02-0.087,0.056-0.066,0.11c0.024,0.063,0.08,0.064,0.138,0.042
				c0.043-0.018,0.089-0.033,0.133-0.05c0.622-0.23,1.242-0.462,1.865-0.69c0.079-0.028,0.155-0.083,0.248-0.059
				c0.012,0.051-0.028,0.075-0.045,0.11c-0.015,0.013-0.029,0.026-0.044,0.039c-0.014,0.012-0.029,0.025-0.044,0.039
				c-0.014,0.011-0.027,0.023-0.041,0.035c-0.066,0.057-0.132,0.113-0.198,0.169c-0.041,0.027-0.082,0.053-0.122,0.08
				c-0.027,0.015-0.055,0.03-0.08,0.044c-0.159,0.051-0.319,0.098-0.457,0.195c-0.04,0.028-0.079,0.056-0.119,0.083
				c-0.042,0.025-0.083,0.052-0.106,0.099c-0.014,0.014-0.027,0.028-0.04,0.041c-0.048,0.023-0.074,0.065-0.102,0.107
				c-0.011,0.015-0.022,0.03-0.033,0.044c-0.057,0.064-0.113,0.13-0.169,0.195c-0.089,0.073-0.191,0.104-0.307,0.116
				c-0.094,0.009-0.096,0.044-0.016,0.137c0.128,0.046,0.249,0.02,0.364-0.042c0.026-0.015,0.053-0.03,0.08-0.043
				c0.183-0.099,0.288-0.284,0.451-0.404c0.134-0.075,0.27-0.146,0.416-0.196c0.106-0.037,0.218-0.064,0.311-0.133
				c0.078-0.026,0.146-0.066,0.202-0.125c0.016-0.011,0.032-0.021,0.048-0.032c0.026-0.015,0.055-0.028,0.067-0.058
				c0.035-0.01,0.074-0.054,0.107-0.018c0.029,0.034-0.011,0.068-0.032,0.1c-0.054,0.079-0.154,0.122-0.174,0.228l0.007,0.001
				c-0.04-0.01-0.05,0.008-0.043,0.043l0.002-0.002c-0.037-0.009-0.049,0.008-0.042,0.043l0.001-0.002
				c-0.035-0.007-0.047,0.01-0.041,0.043l0.001-0.002c-0.033-0.004-0.046,0.012-0.042,0.043l0.002-0.002
				c-0.032-0.004-0.045,0.012-0.043,0.043l0.003-0.002c-0.032-0.002-0.045,0.013-0.043,0.043l0.002-0.002
				c-0.122,0.086-0.231,0.183-0.289,0.327l0.003-0.003c-0.038-0.01-0.05,0.008-0.043,0.044l0.003-0.003
				c-0.038-0.008-0.049,0.01-0.043,0.043l0.002-0.001c-0.034-0.006-0.046,0.01-0.042,0.043l0.002-0.002
				c-0.033-0.004-0.046,0.011-0.042,0.043l0.001-0.003c-0.032-0.003-0.045,0.012-0.041,0.044l0.001-0.003
				c-0.031-0.001-0.043,0.014-0.041,0.043v-0.002c-0.122,0.086-0.231,0.184-0.289,0.327l0.003-0.003
				c-0.038-0.009-0.051,0.007-0.043,0.044l0.003-0.003c-0.037-0.009-0.049,0.009-0.043,0.043l0.003-0.002
				c-0.035-0.006-0.047,0.011-0.043,0.043l0.003-0.001c-0.035-0.006-0.051,0.017-0.063,0.045l-0.014,0.002l-0.004,0.015
				c-0.053,0.034-0.077,0.087-0.036,0.135c0.038,0.045,0.092,0.04,0.121-0.024v-0.001c0.031,0.003,0.047-0.01,0.043-0.042
				l-0.003,0.002c0.032,0.003,0.049-0.009,0.044-0.043l-0.002,0.003c0.033,0.004,0.049-0.008,0.044-0.043l-0.004,0.002
				c0.035,0.006,0.053-0.004,0.044-0.042l-0.002,0.002c0.036,0.008,0.054-0.003,0.044-0.042l-0.004,0.003
				c0.07,0.011,0.091-0.044,0.122-0.087l-0.002,0c0.083-0.053,0.162-0.11,0.206-0.203l-0.002,0.001
				c0.03,0.001,0.046-0.011,0.043-0.043l-0.001,0.003c0.031,0.002,0.047-0.011,0.043-0.043l-0.003,0.003
				c0.032,0.003,0.049-0.009,0.043-0.044l-0.002,0.003c0.033,0.005,0.051-0.007,0.044-0.043l-0.003,0.003
				c0.036,0.007,0.053-0.005,0.044-0.043l-0.003,0.003c0.036,0.007,0.054-0.003,0.044-0.044l-0.004,0.004
				c0.146-0.056,0.242-0.167,0.327-0.289l-0.002,0.001c0.03,0.002,0.046-0.011,0.042-0.042l-0.001,0.001
				c0.031,0.004,0.047-0.008,0.043-0.042l-0.002,0.001c0.032,0.004,0.048-0.008,0.043-0.042l-0.003,0.002
				c0.033,0.005,0.051-0.006,0.044-0.042l-0.003,0.002c0.036,0.006,0.054-0.004,0.045-0.043l-0.004,0.003
				c0.037,0.008,0.055-0.003,0.044-0.043l0.002,0.006c0.143-0.056,0.226-0.179,0.329-0.281c0.033-0.022,0.065-0.043,0.099-0.065
				c0.015,0.01,0.028,0.02,0.042,0.03c-0.064,0.187-0.166,0.356-0.249,0.534c-0.03,0.04-0.061,0.079-0.092,0.118
				c-0.011,0.014-0.022,0.029-0.033,0.042c-0.015,0.014-0.027,0.028-0.04,0.042c-0.015,0.013-0.03,0.025-0.044,0.039
				c-0.014,0.012-0.027,0.023-0.041,0.036c-0.052,0.032-0.094,0.075-0.128,0.125c-0.011,0.014-0.022,0.028-0.034,0.042
				c-0.139,0.146-0.211,0.327-0.271,0.516c-0.041,0.128-0.072,0.26-0.137,0.38C-22.172,20.904-22.184,20.919-22.195,20.933z"/>
		</g>
	</g>
</g>
<g id="Imagenes">
</g>
<g id="Cintillos">
</g>
<g id="Botones">
</g>
<g id="TXT">
</g>
<g id="Logo">
</g>
<g id="Guia">
</g>
</svg>
