<?xml version="1.0" encoding="utf-8"?>
<!-- Generator: Adobe Illustrator 16.0.0, SVG Export Plug-In . SVG Version: 6.00 Build 0)  -->
<!DOCTYPE svg PUBLIC "-//W3C//DTD SVG 1.1//EN" "http://www.w3.org/Graphics/SVG/1.1/DTD/svg11.dtd">
<svg version="1.1" xmlns="http://www.w3.org/2000/svg" xmlns:xlink="http://www.w3.org/1999/xlink" x="0px" y="0px"
	 width="34.417px" height="34.25px" viewBox="0 0 34.417 34.25" enable-background="new 0 0 34.417 34.25" xml:space="preserve">
<g id="Soporte">
</g>
<g id="Publicidad">
</g>
<g id="Iconos">
	<g>
		<defs>
			<circle id="SVGID_11_" cx="-19.217" cy="17.595" r="15.917"/>
		</defs>
		<clipPath id="SVGID_2_">
			<use xlink:href="#SVGID_11_"  overflow="visible"/>
		</clipPath>
		<g clip-path="url(#SVGID_2_)">
			<path fill-rule="evenodd" clip-rule="evenodd" fill="#D32B1E" d="M-44.029,11.99c0-3.698,0-7.396-0.002-11.093
				c0-0.089,0.014-0.115,0.111-0.115c16.347,0.002,32.693,0.002,49.04,0c0.097,0,0.111,0.027,0.111,0.115
				C5.228,4.595,5.229,8.292,5.229,11.99c-0.033,0.043-0.081,0.052-0.131,0.055c-0.074,0.002-0.148,0.002-0.222,0.002
				c-16.184,0-32.368,0-48.551,0c-0.074,0-0.148,0-0.222-0.002C-43.948,12.042-43.995,12.034-44.029,11.99z"/>
			<path fill-rule="evenodd" clip-rule="evenodd" fill="#007834" d="M5.229,23.172c0,3.698-0.001,7.396,0.002,11.093
				c0,0.089-0.014,0.115-0.111,0.115c-16.347-0.002-32.693-0.002-49.04,0c-0.097,0-0.111-0.026-0.111-0.115
				c0.002-3.698,0.002-7.396,0.002-11.093c0.034-0.043,0.081-0.053,0.132-0.055c0.074-0.002,0.147-0.002,0.222-0.002
				c16.184,0,32.367,0,48.551,0c0.074,0,0.148,0,0.222,0.002C5.148,23.119,5.195,23.128,5.229,23.172z"/>
			<path fill-rule="evenodd" clip-rule="evenodd" fill="#FDDE00" d="M5.229,23.172c-0.049,0.002-0.098,0.006-0.147,0.006
				c-16.321,0-32.642,0-48.963,0c-0.049,0-0.099-0.004-0.147-0.006c0-3.728,0-7.454,0-11.182c0.053-0.002,0.107-0.005,0.16-0.005
				c16.313,0,32.625,0,48.938,0c0.053,0,0.106,0.003,0.16,0.005C5.229,15.718,5.229,19.444,5.229,23.172z"/>
		</g>
	</g>
	<g>
		<defs>
			<circle id="SVGID_89_" cx="17.391" cy="17.595" r="15.917"/>
		</defs>
		<clipPath id="SVGID_4_">
			<use xlink:href="#SVGID_89_"  overflow="visible"/>
		</clipPath>
		<g clip-path="url(#SVGID_4_)">
			<path fill-rule="evenodd" clip-rule="evenodd" fill="#F9DF42" d="M23.983,34.797c-4.408,0-8.816,0-13.225,0
				c0-11.394,0-22.788,0.004-34.182c0-0.153-0.038-0.189-0.189-0.189C6.294,0.431,2.015,0.43-2.264,0.43
				c-0.067,0-0.134-0.001-0.202-0.002c0.007-0.01-0.017-0.035,0.017-0.034c0.044,0.001,0.089,0,0.134,0
				c13.135,0,26.27,0,39.404-0.003c0.126,0,0.154,0.028,0.154,0.154c-0.003,11.367-0.003,22.734-0.005,34.101
				c0,0.049,0.038,0.114-0.032,0.151c-0.001-0.079-0.002-0.157-0.002-0.235c0-11.304,0-22.608,0-33.912
				c0-0.252,0.033-0.219-0.225-0.219c-4.245,0-8.491,0-12.736,0c-0.26,0-0.26,0-0.26,0.253
				C23.983,12.055,23.983,23.426,23.983,34.797z"/>
			<path fill-rule="evenodd" clip-rule="evenodd" d="M-2.465,0.427C-2.398,0.428-2.331,0.43-2.264,0.43
				c4.278,0,8.558,0.001,12.837-0.003c0.151,0,0.189,0.036,0.189,0.189c-0.004,11.394-0.004,22.788-0.004,34.182
				c-4.357,0-8.715-0.001-13.073,0.003c-0.125,0-0.154-0.028-0.154-0.154C-2.465,23.24-2.465,11.833-2.465,0.427z"/>
			<path fill-rule="evenodd" clip-rule="evenodd" fill="#EC2939" d="M23.983,34.797c0-11.371,0-22.742,0-34.113
				c0-0.253,0-0.253,0.26-0.253c4.245,0,8.491,0,12.736,0c0.258,0,0.225-0.033,0.225,0.219c0,11.304,0,22.608,0,33.912
				c0,0.078,0.001,0.156,0.002,0.235C32.799,34.797,28.391,34.797,23.983,34.797z"/>
		</g>
	</g>
	<g>
		<defs>
			<circle id="SVGID_91_" cx="51.783" cy="17.595" r="15.917"/>
		</defs>
		<clipPath id="SVGID_6_">
			<use xlink:href="#SVGID_91_"  overflow="visible"/>
		</clipPath>
		<g clip-path="url(#SVGID_6_)">
			<path fill-rule="evenodd" clip-rule="evenodd" fill="#75AADB" d="M25.68,0.815c17.347,0,34.693,0,52.039,0
				c0,3.729,0,7.459,0,11.188c-0.107-0.004-0.216-0.011-0.323-0.011c-17.121,0-34.24,0-51.36,0c-0.115,0-0.23-0.004-0.346-0.005
				c-0.023-0.1-0.015-0.202-0.015-0.303c0-3.535,0-7.07,0-10.604C25.675,0.991,25.678,0.902,25.68,0.815z"/>
			<path fill-rule="evenodd" clip-rule="evenodd" fill="#75AADB" d="M77.719,23.153c0,3.716,0,7.432,0,11.148
				c-17.359,0-34.72,0-52.08,0c0.003-0.054,0.01-0.107,0.01-0.162c0-3.657,0-7.315-0.001-10.973
				c0.114-0.028,0.229-0.015,0.344-0.015C43.14,23.15,60.286,23.15,77.436,23.15C77.529,23.15,77.625,23.152,77.719,23.153z"/>
			<path fill-rule="evenodd" clip-rule="evenodd" fill="#FFFFFF" d="M77.719,23.153c-0.094-0.001-0.189-0.002-0.283-0.002
				c-17.149,0-34.296,0-51.444,0.001c-0.114,0-0.229-0.013-0.344,0.015c-0.017-0.004-0.033-0.009-0.05-0.013
				c0-3.717,0-7.433,0-11.149c0.03-0.006,0.061-0.011,0.092-0.017c0.115,0.001,0.23,0.005,0.346,0.005c17.12,0,34.239,0,51.36,0
				c0.107,0,0.216,0.007,0.323,0.011C77.719,15.72,77.719,19.436,77.719,23.153z M49.222,21.183
				c-0.015,0.012-0.03,0.023-0.045,0.035c-0.024,0.011-0.05,0.02-0.071,0.035c-0.042,0.027-0.111,0.043-0.081,0.114
				c0.027,0.063,0.094,0.051,0.142,0.035c0.144-0.044,0.26-0.13,0.331-0.268c0.124-0.155,0.148-0.358,0.247-0.525
				c0.03-0.04,0.061-0.08,0.09-0.12c0.012-0.014,0.022-0.028,0.033-0.042c0.014-0.015,0.025-0.029,0.038-0.044
				c0.014-0.014,0.027-0.028,0.04-0.041c0.014-0.014,0.027-0.027,0.041-0.041c0.015-0.012,0.028-0.025,0.043-0.038
				s0.028-0.023,0.043-0.036c0.094-0.071,0.181-0.146,0.243-0.247c0.052-0.048,0.095-0.103,0.119-0.17
				c0.074-0.057,0.067-0.187,0.185-0.215c0.022,0.098-0.026,0.17-0.055,0.244c-0.219,0.596-0.442,1.193-0.663,1.789
				c-0.018,0.05-0.04,0.102-0.045,0.155c-0.008,0.073,0.057,0.106,0.121,0.066c0.03-0.019,0.042-0.051,0.049-0.085
				c0.084-0.142,0.149-0.292,0.208-0.446c0.088-0.173,0.177-0.346,0.241-0.53c0.083-0.142,0.148-0.292,0.206-0.446
				c0.094-0.171,0.174-0.348,0.243-0.53c0.057-0.061,0.057-0.161,0.155-0.231c-0.006,0.346,0.011,0.668-0.144,0.964
				c-0.139,0.267-0.188,0.549-0.147,0.844c0.03,0.219,0.056,0.43-0.114,0.608c-0.021,0.021-0.02,0.052-0.002,0.074
				c0.018,0.021,0.045,0.029,0.073,0.02c0.089-0.027,0.156-0.075,0.173-0.173h0.002c0.141-0.128,0.135-0.301,0.128-0.465
				c-0.012-0.262,0.026-0.512,0.148-0.742c0.154-0.292,0.226-0.603,0.245-0.927c0.022-0.013,0.045-0.025,0.067-0.039
				c0.028,0.758,0.058,1.518,0.088,2.276c0.003,0.079-0.015,0.191,0.096,0.191c0.101,0,0.076-0.11,0.08-0.18
				c0.027-0.69,0.052-1.381,0.079-2.072c0.004-0.099-0.005-0.199,0.042-0.333c0.135,0.333,0.265,0.627,0.245,0.961
				c-0.006,0.102-0.007,0.202,0.005,0.305c0.029,0.249,0.135,0.466,0.256,0.679c0.071,0.127,0.122,0.257,0.067,0.407
				c-0.017,0.047-0.05,0.109,0.021,0.137c0.063,0.023,0.101-0.028,0.127-0.076c0.019-0.035,0.033-0.074,0.044-0.113
				c0.049-0.178,0.022-0.353-0.06-0.513c-0.136-0.262-0.174-0.538-0.15-0.828c0.021-0.26-0.014-0.513-0.1-0.76
				c-0.019-0.051-0.049-0.107-0.015-0.181c0.08,0.057,0.085,0.148,0.137,0.207c0.059,0.153,0.121,0.306,0.206,0.447
				c0.066,0.184,0.15,0.358,0.241,0.53c0.059,0.153,0.124,0.303,0.206,0.446c0.066,0.184,0.151,0.358,0.246,0.529
				c0.012,0.017,0.024,0.032,0.036,0.048c0.069,0.038,0.102,0.007,0.11-0.061c0.008-0.063-0.025-0.118-0.047-0.174
				c-0.245-0.666-0.491-1.33-0.737-1.995c-0.019-0.051-0.047-0.102-0.049-0.153c-0.002-0.062,0.04-0.026,0.068-0.016
				c0.096,0.106,0.191,0.212,0.288,0.318c0.056,0.081,0.111,0.162,0.168,0.243c0.069,0.181,0.113,0.374,0.238,0.531
				c0.029,0.063,0.07,0.118,0.127,0.16c0.014,0.014,0.026,0.028,0.04,0.042c0.015,0.014,0.027,0.027,0.04,0.041
				c0.016,0.013,0.03,0.025,0.046,0.039c0.054,0.07,0.122,0.124,0.198,0.168c0.12,0.104,0.205,0.227,0.213,0.392
				c0.001,0.034,0.008,0.069,0.05,0.076c0.049,0.009,0.073-0.025,0.087-0.064c0.048-0.145,0.008-0.276-0.065-0.4
				c-0.017-0.05-0.043-0.091-0.084-0.125c-0.012-0.014-0.022-0.028-0.034-0.041c-0.013-0.014-0.026-0.028-0.041-0.042
				c-0.015-0.013-0.029-0.026-0.043-0.04c-0.014-0.013-0.029-0.026-0.044-0.039c-0.014-0.013-0.027-0.027-0.042-0.04
				c-0.014-0.013-0.027-0.027-0.04-0.04c-0.012-0.015-0.024-0.029-0.036-0.042c-0.123-0.168-0.214-0.351-0.277-0.549
				c-0.023-0.075-0.044-0.153-0.096-0.218c-0.008-0.031-0.016-0.062-0.043-0.082c-0.009-0.051-0.04-0.09-0.073-0.127
				c-0.021-0.045-0.048-0.087-0.091-0.116c-0.011-0.015-0.023-0.031-0.035-0.045c-0.011-0.015-0.022-0.029-0.032-0.043
				c-0.021-0.023-0.042-0.044-0.063-0.066c-0.017-0.061-0.089-0.09-0.091-0.159c0.114-0.009,0.141,0.115,0.227,0.151
				c0.014,0.013,0.027,0.025,0.041,0.037c0.015,0.012,0.028,0.024,0.042,0.037c0.015,0.013,0.029,0.026,0.044,0.039
				c0.123,0.136,0.26,0.259,0.401,0.377c0.013,0.012,0.026,0.025,0.041,0.038c0.014,0.013,0.027,0.026,0.041,0.038
				c0.015,0.012,0.028,0.025,0.043,0.038c0.014,0.012,0.029,0.025,0.043,0.038c0.014,0.013,0.027,0.027,0.042,0.04
				c0.075,0.088,0.158,0.169,0.254,0.234c0.036,0.06,0.092,0.101,0.146,0.141c0.014,0.013,0.028,0.025,0.042,0.038
				c0.015,0.013,0.027,0.026,0.042,0.039c0.015,0.013,0.029,0.025,0.043,0.038c0.015,0.013,0.029,0.026,0.043,0.039
				c0.08,0.079,0.16,0.159,0.242,0.238c0.033,0.032,0.063,0.073,0.111,0.08c0.065,0.01,0.129,0.01,0.089-0.089v-0.001
				c-0.092-0.168-0.238-0.289-0.37-0.421c-0.013-0.015-0.026-0.028-0.039-0.043c-0.012-0.014-0.024-0.028-0.036-0.042
				c-0.013-0.014-0.026-0.028-0.038-0.041c-0.014-0.014-0.026-0.028-0.039-0.042c-0.105-0.126-0.214-0.25-0.337-0.358
				c-0.014-0.015-0.026-0.029-0.04-0.043c-0.012-0.014-0.024-0.029-0.037-0.043c-0.013-0.014-0.026-0.028-0.038-0.042
				c-0.013-0.014-0.024-0.028-0.037-0.042c-0.028-0.041-0.057-0.082-0.104-0.105c-0.079-0.109-0.172-0.206-0.272-0.295
				c-0.014-0.015-0.026-0.029-0.04-0.043c-0.012-0.015-0.025-0.028-0.037-0.043c-0.013-0.014-0.025-0.028-0.037-0.042
				c-0.013-0.014-0.025-0.027-0.039-0.041c-0.031-0.04-0.063-0.08-0.095-0.12c0.017-0.016,0.032-0.031,0.048-0.046
				c0.069,0.028,0.14,0.056,0.208,0.084c0.08,0.04,0.161,0.081,0.24,0.122c0.042,0.028,0.084,0.055,0.126,0.082
				c0.171,0.139,0.286,0.341,0.49,0.446c0.156,0.127,0.346,0.178,0.534,0.231c0.14,0.039,0.269,0.091,0.356,0.214
				c0.01,0.03,0.018,0.062,0.046,0.082c0.061,0.089,0.1,0.043,0.118-0.026c0.016-0.06-0.01-0.118-0.047-0.167
				c-0.044-0.104-0.122-0.177-0.216-0.235c-0.135-0.12-0.316-0.143-0.471-0.221c-0.042-0.026-0.083-0.052-0.126-0.078
				c-0.044-0.036-0.09-0.072-0.135-0.107c-0.006-0.021-0.02-0.035-0.042-0.04c-0.013-0.014-0.025-0.028-0.04-0.041
				c-0.014-0.014-0.025-0.028-0.04-0.042c-0.04-0.067-0.09-0.125-0.154-0.17c-0.014-0.014-0.027-0.028-0.041-0.042
				c-0.056-0.071-0.121-0.128-0.203-0.166c-0.108-0.092-0.236-0.15-0.366-0.204c-0.021-0.02-0.041-0.039-0.063-0.058
				c0.01-0.012,0.019-0.025,0.027-0.038c0.063,0.021,0.129,0.04,0.192,0.063c0.647,0.24,1.295,0.479,1.942,0.718
				c0.052,0.02,0.101,0.044,0.153,0.054c0.086,0.017,0.103-0.016,0.074-0.132c-0.249-0.145-0.514-0.256-0.78-0.364
				c-0.17-0.096-0.347-0.176-0.529-0.244c-0.143-0.083-0.293-0.149-0.447-0.205c-0.152-0.104-0.344-0.136-0.521-0.282
				c0.369,0.014,0.699-0.008,1.003,0.153c0.293,0.155,0.603,0.181,0.924,0.131c0.136-0.02,0.267-0.02,0.396,0.03
				c0.035,0.03,0.068,0.063,0.104,0.091c0.026,0.021,0.061,0.03,0.091,0.007s0.029-0.06,0.016-0.09
				c-0.014-0.029-0.037-0.053-0.056-0.08c-0.015-0.014-0.028-0.028-0.042-0.041c-0.032-0.042-0.073-0.07-0.125-0.082
				c-0.131-0.086-0.279-0.098-0.427-0.086c-0.264,0.02-0.514-0.03-0.744-0.152c-0.28-0.149-0.579-0.217-0.892-0.238
				c-0.013-0.023-0.025-0.045-0.038-0.068c0.735-0.029,1.469-0.058,2.203-0.087c0.061-0.001,0.123,0,0.18-0.017
				c0.056-0.016,0.097-0.055,0.048-0.12c-0.036-0.042-0.085-0.037-0.132-0.039c-0.216-0.01-0.432-0.022-0.647-0.03
				c-0.515-0.019-1.028-0.034-1.543-0.052c-0.066-0.003-0.14,0.007-0.221-0.051c0.346-0.138,0.661-0.257,1.021-0.233
				c0.314,0.021,0.612-0.058,0.861-0.27l-0.001,0c0.052,0.018,0.09-0.02,0.132-0.038c0.096-0.044,0.192-0.058,0.296-0.027
				c0.056,0.017,0.13,0.058,0.156-0.018c0.025-0.076-0.051-0.115-0.113-0.144c-0.029-0.015-0.063-0.022-0.096-0.031
				c-0.172-0.042-0.339-0.016-0.492,0.064c-0.262,0.136-0.537,0.174-0.826,0.151c-0.231-0.018-0.458,0.001-0.681,0.072
				c-0.04,0.012-0.087,0.039-0.143-0.015c0.067-0.093,0.188-0.097,0.267-0.165c0.183-0.066,0.358-0.15,0.53-0.242
				c0.153-0.059,0.304-0.122,0.445-0.206c0.029-0.013,0.057-0.026,0.085-0.039c0.154-0.057,0.305-0.122,0.446-0.206
				c0.104-0.031,0.203-0.074,0.292-0.135c0.031-0.022,0.039-0.055,0.028-0.091c-0.012-0.039-0.046-0.043-0.081-0.044
				c-0.069-0.001-0.131,0.034-0.193,0.057c-0.634,0.234-1.265,0.472-1.899,0.704c-0.06,0.021-0.123,0.093-0.197,0.024
				c-0.021-0.057,0.047-0.068,0.058-0.108c0.015-0.013,0.03-0.025,0.044-0.039c0.015-0.013,0.029-0.026,0.045-0.038
				c0.013-0.011,0.025-0.023,0.038-0.034c0.068-0.056,0.136-0.111,0.204-0.168c0.136-0.09,0.293-0.138,0.438-0.209
				c0.03-0.012,0.058-0.024,0.088-0.037c0.025-0.015,0.052-0.029,0.078-0.044c0.05-0.014,0.09-0.042,0.122-0.082
				c0.016-0.012,0.031-0.022,0.046-0.032c0.085-0.054,0.152-0.126,0.21-0.208c0.012-0.014,0.023-0.029,0.034-0.042
				c0.012-0.016,0.023-0.031,0.035-0.047c0.033-0.022,0.06-0.051,0.072-0.09c0.021-0.022,0.042-0.042,0.063-0.064
				c0.012-0.011,0.022-0.023,0.034-0.035c0.073-0.051,0.153-0.082,0.242-0.097c0.051-0.008,0.127,0.005,0.123-0.069
				c-0.001-0.073-0.078-0.083-0.137-0.091c-0.04-0.005-0.08,0.001-0.12,0.008c-0.16,0.023-0.291,0.102-0.403,0.215
				c-0.091,0.091-0.181,0.181-0.271,0.272c-0.041,0.027-0.083,0.055-0.125,0.082c-0.104,0.043-0.208,0.091-0.315,0.131
				c-0.145,0.053-0.292,0.097-0.418,0.19c-0.046,0.019-0.087,0.046-0.12,0.083c-0.027,0.013-0.056,0.027-0.068,0.057
				c-0.036,0.01-0.074,0.053-0.105,0.022c-0.04-0.041,0.005-0.078,0.031-0.11c0.016-0.02,0.029-0.042,0.045-0.063
				c0.058-0.037,0.101-0.091,0.141-0.147c0.012-0.013,0.023-0.026,0.036-0.039c0.014-0.015,0.025-0.03,0.04-0.044
				c0.012-0.015,0.024-0.029,0.037-0.044c0.013-0.014,0.026-0.028,0.039-0.042c0.013-0.015,0.026-0.029,0.04-0.043
				c0.109-0.095,0.206-0.204,0.298-0.316c0.013-0.014,0.026-0.027,0.038-0.041c0.013-0.014,0.024-0.028,0.037-0.043
				c0.013-0.014,0.025-0.028,0.038-0.042c0.012-0.014,0.026-0.028,0.038-0.042c0.014-0.015,0.026-0.028,0.038-0.043
				c0.015-0.014,0.026-0.028,0.04-0.042c0.113-0.092,0.206-0.205,0.3-0.315c0.013-0.014,0.024-0.028,0.037-0.042
				c0.012-0.014,0.025-0.028,0.038-0.042c0.012-0.014,0.024-0.029,0.037-0.042c0.013-0.015,0.025-0.029,0.038-0.043
				c0.014-0.015,0.027-0.028,0.04-0.043c0.048-0.037,0.097-0.086,0.048-0.144c-0.06-0.07-0.113-0.016-0.157,0.034
				c-0.015,0.013-0.028,0.027-0.043,0.04c-0.014,0.012-0.028,0.025-0.043,0.037c-0.015,0.013-0.028,0.026-0.042,0.04
				c-0.014,0.012-0.028,0.024-0.042,0.036s-0.027,0.025-0.042,0.038c-0.098,0.079-0.192,0.163-0.273,0.261
				c-0.014,0.013-0.028,0.026-0.043,0.039c-0.014,0.013-0.028,0.026-0.042,0.039c-0.014,0.013-0.028,0.026-0.043,0.039
				c-0.014,0.013-0.028,0.025-0.042,0.038c-0.015,0.012-0.028,0.024-0.043,0.037c-0.013,0.013-0.027,0.026-0.041,0.039
				c-0.111,0.093-0.223,0.186-0.315,0.298c-0.015,0.013-0.028,0.026-0.043,0.04c-0.015,0.012-0.028,0.025-0.042,0.039
				c-0.015,0.013-0.028,0.026-0.043,0.039c-0.015,0.012-0.028,0.025-0.042,0.038c-0.015,0.012-0.028,0.024-0.043,0.037
				c-0.014,0.012-0.027,0.025-0.042,0.038c-0.042,0.027-0.081,0.058-0.104,0.104c-0.081,0.052-0.15,0.119-0.21,0.194
				c-0.033,0.022-0.066,0.043-0.099,0.066c-0.018-0.011-0.034-0.021-0.051-0.032c0.02-0.056,0.038-0.111,0.058-0.167
				c0.039-0.081,0.078-0.163,0.118-0.245c0.045-0.066,0.09-0.132,0.135-0.198c0.012-0.015,0.021-0.029,0.032-0.042
				c0.014-0.014,0.026-0.029,0.038-0.042c0.015-0.013,0.028-0.027,0.042-0.04c0.014-0.013,0.03-0.026,0.045-0.039
				c0.013-0.011,0.025-0.022,0.039-0.034c0.05-0.035,0.093-0.077,0.125-0.129c0.011-0.016,0.021-0.031,0.033-0.046
				c0.04-0.03,0.068-0.071,0.085-0.119c0.097-0.125,0.14-0.273,0.185-0.42c0.037-0.121,0.072-0.243,0.137-0.354
				c0.014-0.013,0.028-0.027,0.042-0.04c0.046-0.025,0.094-0.051,0.141-0.077c0.031-0.018,0.056-0.044,0.042-0.081
				c-0.013-0.034-0.049-0.05-0.082-0.049c-0.082,0.001-0.156,0.03-0.218,0.086c-0.072,0.037-0.126,0.094-0.166,0.164
				c-0.064,0.064-0.096,0.147-0.123,0.229c-0.058,0.168-0.141,0.321-0.246,0.463c-0.011,0.014-0.022,0.028-0.034,0.042
				c-0.014,0.015-0.026,0.03-0.039,0.043c-0.014,0.014-0.027,0.027-0.041,0.041c-0.015,0.013-0.028,0.026-0.041,0.039
				c-0.015,0.012-0.029,0.024-0.043,0.037c-0.015,0.012-0.028,0.024-0.043,0.036c-0.093,0.072-0.18,0.149-0.241,0.252
				c-0.039,0.032-0.065,0.073-0.086,0.12c-0.105,0.117-0.128,0.288-0.257,0.403c-0.027-0.101,0.026-0.17,0.053-0.243
				c0.234-0.638,0.473-1.275,0.709-1.913c0.021-0.057,0.04-0.114,0.054-0.172c0.009-0.04,0.005-0.084-0.045-0.1
				c-0.045-0.014-0.08,0.009-0.101,0.046c-0.049,0.088-0.096,0.178-0.123,0.276c-0.083,0.142-0.147,0.292-0.205,0.447
				c-0.013,0.028-0.024,0.056-0.039,0.083c-0.082,0.142-0.147,0.292-0.203,0.446c-0.026,0.022-0.032,0.053-0.038,0.085
				c-0.084,0.141-0.151,0.29-0.206,0.446c-0.082,0.142-0.147,0.292-0.205,0.445c-0.021,0.008-0.057,0.071-0.058-0.003
				c-0.001-0.344,0.004-0.687,0.169-1.004c0.118-0.228,0.15-0.471,0.127-0.725c-0.008-0.087-0.011-0.175-0.018-0.262
				c-0.01-0.117-0.002-0.229,0.062-0.331c0.012-0.016,0.024-0.031,0.036-0.047c0.037-0.03,0.075-0.063,0.035-0.113
				c-0.03-0.039-0.07-0.026-0.106-0.005c-0.079,0.034-0.132,0.093-0.164,0.173c-0.097,0.125-0.12,0.27-0.107,0.42
				c0.025,0.314-0.049,0.603-0.193,0.879c-0.109,0.211-0.171,0.439-0.182,0.681c-0.003,0.106-0.023,0.213-0.037,0.319
				c-0.013-0.001-0.026-0.002-0.04-0.004c-0.036-0.356-0.026-0.715-0.038-1.072c0.011-0.047,0.011-0.093-0.008-0.138
				c-0.019-0.396-0.035-0.79-0.055-1.185c-0.004-0.064,0.015-0.136-0.039-0.191c-0.05-0.039-0.087-0.021-0.115,0.028
				c-0.028,0.05-0.021,0.104-0.022,0.159c-0.018,0.5-0.032,1.001-0.052,1.502c-0.011,0.285-0.027,0.57-0.043,0.884
				c-0.185-0.329-0.279-0.674-0.264-1.012c0.015-0.315-0.06-0.603-0.23-0.867c-0.015-0.027-0.029-0.053-0.044-0.079
				c-0.015-0.027-0.028-0.054-0.041-0.081c-0.04-0.124-0.042-0.247,0-0.372c0.011-0.034,0.005-0.067-0.028-0.086
				c-0.035-0.021-0.064,0.001-0.088,0.024c-0.019,0.018-0.03,0.042-0.044,0.064c-0.116,0.211-0.08,0.421,0.018,0.623
				c0.134,0.269,0.177,0.551,0.154,0.848c-0.019,0.231-0.002,0.459,0.077,0.681c0.016,0.044,0.036,0.096-0.009,0.153
				c-0.095-0.076-0.096-0.19-0.164-0.264c-0.012-0.029-0.024-0.058-0.036-0.086c-0.057-0.154-0.124-0.304-0.208-0.445
				c-0.064-0.184-0.147-0.358-0.24-0.53c-0.059-0.153-0.121-0.304-0.205-0.446c-0.014-0.028-0.026-0.057-0.038-0.084
				c-0.029-0.088-0.063-0.176-0.121-0.25c-0.116-0.031-0.15-0.015-0.134,0.07c0.01,0.052,0.034,0.102,0.053,0.152
				c0.252,0.683,0.504,1.365,0.756,2.047c0.018,0.045,0.05,0.09,0.033,0.12c-0.115-0.103-0.23-0.206-0.346-0.308
				c-0.012-0.015-0.022-0.03-0.034-0.045c-0.029-0.039-0.06-0.078-0.089-0.117c-0.101-0.168-0.136-0.365-0.24-0.53
				c-0.037-0.093-0.091-0.176-0.168-0.24c-0.014-0.015-0.026-0.03-0.039-0.044c-0.014-0.014-0.027-0.027-0.04-0.041
				c-0.015-0.013-0.029-0.027-0.043-0.04c-0.055-0.071-0.124-0.123-0.197-0.171c-0.016-0.011-0.031-0.022-0.046-0.034
				c-0.041-0.041-0.081-0.082-0.122-0.123c-0.041-0.085-0.056-0.178-0.069-0.271c-0.003-0.023-0.026-0.054-0.047-0.06
				c-0.035-0.011-0.061,0.018-0.082,0.047c-0.028,0.042-0.026,0.089-0.026,0.136c0.002,0.147,0.055,0.275,0.15,0.386
				c0.012,0.016,0.022,0.031,0.034,0.045c0.028,0.029,0.057,0.057,0.084,0.085c0.014,0.012,0.026,0.024,0.04,0.037
				s0.028,0.026,0.043,0.039c0.013,0.014,0.026,0.027,0.041,0.041c0.014,0.014,0.025,0.027,0.039,0.041
				c0.011,0.014,0.022,0.029,0.034,0.043c0.028,0.04,0.057,0.08,0.086,0.121c0.016,0.024,0.03,0.049,0.046,0.075
				c0.014,0.027,0.028,0.055,0.042,0.083c0.082,0.222,0.134,0.458,0.284,0.65c0.026,0.066,0.067,0.12,0.123,0.164
				c0.011,0.016,0.022,0.031,0.033,0.045c0.011,0.018,0.023,0.034,0.031,0.051c0.011,0.022,0.037,0.042,0.01,0.07
				c-0.029,0.029-0.048,0.002-0.069-0.01c-0.017-0.009-0.032-0.022-0.048-0.034c-0.015-0.012-0.029-0.024-0.043-0.037
				c-0.014-0.013-0.029-0.025-0.043-0.038c-0.014-0.012-0.027-0.025-0.042-0.039s-0.029-0.026-0.044-0.039
				c-0.107-0.126-0.232-0.231-0.357-0.338c-0.014-0.013-0.027-0.026-0.041-0.038c-0.015-0.013-0.028-0.025-0.042-0.038
				c-0.015-0.012-0.029-0.024-0.043-0.038c-0.014-0.013-0.028-0.026-0.044-0.039c-0.074-0.088-0.156-0.169-0.253-0.234
				c-0.014-0.013-0.027-0.026-0.042-0.039c-0.023-0.046-0.065-0.074-0.105-0.103c-0.014-0.013-0.027-0.025-0.041-0.038
				c-0.015-0.013-0.028-0.026-0.042-0.038c-0.014-0.013-0.028-0.025-0.042-0.038c-0.016-0.013-0.029-0.026-0.044-0.039
				c-0.12-0.12-0.224-0.256-0.381-0.332l0,0c-0.061-0.04-0.085-0.005-0.094,0.049c-0.008,0.051,0.024,0.088,0.057,0.122
				c0.102,0.105,0.203,0.21,0.306,0.314c0.013,0.014,0.025,0.028,0.04,0.043c0.012,0.014,0.023,0.028,0.036,0.042
				c0.012,0.014,0.024,0.028,0.036,0.042c0.015,0.014,0.026,0.028,0.04,0.041c0.041,0.055,0.082,0.111,0.143,0.148
				c0.053,0.082,0.119,0.149,0.194,0.21c0.014,0.015,0.026,0.029,0.04,0.043c0.012,0.015,0.024,0.029,0.037,0.043
				c0.013,0.014,0.025,0.028,0.039,0.042c0.013,0.014,0.024,0.028,0.036,0.043c0.013,0.013,0.025,0.027,0.039,0.041
				c0.105,0.125,0.212,0.25,0.338,0.358c0.012,0.014,0.025,0.029,0.039,0.043c0.013,0.015,0.025,0.028,0.038,0.043
				c0.012,0.014,0.024,0.028,0.036,0.042c0.016,0.016,0.029,0.031,0.043,0.046c0.011,0.012,0.022,0.024,0.033,0.037
				c0.028,0.035,0.054,0.069,0.082,0.104c-0.015,0.014-0.03,0.028-0.044,0.042c-0.074-0.031-0.146-0.066-0.22-0.094
				c-0.123-0.045-0.221-0.146-0.356-0.162l0.004,0.001c-0.134-0.159-0.272-0.313-0.436-0.441c-0.013-0.01-0.037-0.006-0.056-0.008
				l0.002,0.002c0.004-0.033-0.02-0.049-0.041-0.061c-0.198-0.116-0.409-0.197-0.638-0.223l0.006,0
				c-0.107-0.077-0.219-0.152-0.271-0.284c-0.011-0.027-0.038-0.04-0.065-0.037c-0.039,0.004-0.057,0.037-0.057,0.071
				c-0.002,0.127,0.042,0.233,0.161,0.297l-0.001-0.001c-0.003,0.031,0.013,0.045,0.044,0.042l-0.002-0.001
				c0.021,0.057,0.056,0.096,0.124,0.084l-0.002-0.002c0.125,0.12,0.291,0.154,0.45,0.204l-0.003,0
				c0.014,0.042,0.037,0.066,0.084,0.044l-0.006-0.003c-0.01,0.042,0.016,0.044,0.046,0.042l-0.002-0.002
				c0.031,0.079,0.1,0.12,0.165,0.162l-0.001-0.002c0.003,0.025,0.017,0.04,0.043,0.043l-0.002-0.001
				c0.039,0.07,0.081,0.137,0.162,0.166l-0.002-0.002c-0.003,0.031,0.012,0.046,0.044,0.043l-0.004-0.003
				c-0.002,0.032,0.014,0.046,0.044,0.043l-0.002-0.001c0.031,0.071,0.078,0.124,0.164,0.125l-0.002-0.002
				c0.018,0.063,0.06,0.09,0.125,0.083l-0.002-0.001c0.029,0.099,0.186,0.07,0.203,0.195c-0.095,0.015-0.166-0.03-0.239-0.057
				c-0.607-0.224-1.214-0.45-1.82-0.674c-0.057-0.021-0.11-0.054-0.174-0.046c-0.067,0.008-0.102,0.038-0.063,0.108
				c0.016,0.012,0.031,0.025,0.048,0.039c0.17,0.097,0.346,0.179,0.529,0.245c0.142,0.083,0.292,0.149,0.445,0.207
				c0.173,0.089,0.347,0.177,0.531,0.241c0.141,0.083,0.292,0.148,0.445,0.207c0.083,0.07,0.211,0.072,0.292,0.177
				c-0.395,0.006-0.762-0.016-1.104-0.199c-0.164-0.088-0.351-0.104-0.533-0.105c-0.115,0-0.23,0.011-0.345,0.025
				c-0.146,0.018-0.283-0.003-0.407-0.084l0.001,0.001c-0.023-0.044-0.059-0.082-0.109-0.057c-0.053,0.027-0.034,0.08-0.017,0.124
				c0.008,0.017,0.027,0.027,0.041,0.04c0.02,0.019,0.038,0.039,0.058,0.058c0.136,0.142,0.31,0.173,0.494,0.167
				c0.216-0.008,0.428-0.001,0.633,0.08c0.022,0.009,0.05,0.002,0.076,0.003l-0.003-0.001c0.01,0.051,0.047,0.048,0.085,0.041H48.54
				c0.209,0.166,0.456,0.218,0.713,0.245c0.122,0.012,0.246,0.011,0.408,0.071c-0.36,0.058-0.68,0.026-0.995,0.055
				c-0.07-0.008-0.142-0.01-0.211,0.011c-0.412,0.016-0.825,0.03-1.238,0.049c-0.072,0.003-0.194-0.033-0.188,0.088
				c0.005,0.107,0.121,0.084,0.197,0.087c0.752,0.028,1.503,0.056,2.254,0.086c0.03,0.001,0.087-0.032,0.093,0.046
				c-0.333,0.129-0.663,0.264-1.035,0.228c-0.258-0.025-0.496,0.056-0.721,0.176c-0.197,0.105-0.382,0.227-0.629,0.139
				c-0.087-0.03-0.094,0.046-0.043,0.111c0.24,0.19,0.481,0.132,0.724,0.002c0.278-0.12,0.57-0.149,0.872-0.124
				c0.196,0.016,0.391-0.006,0.579-0.067c0.063-0.02,0.122-0.047,0.188-0.033c0.013,0.076-0.056,0.074-0.083,0.107
				c-0.182,0.069-0.357,0.151-0.529,0.243c-0.154,0.058-0.304,0.125-0.446,0.207c-0.184,0.065-0.359,0.15-0.53,0.243
				c-0.16,0.072-0.321,0.142-0.48,0.215c-0.045,0.02-0.087,0.056-0.066,0.11c0.024,0.063,0.08,0.064,0.138,0.042
				c0.043-0.018,0.089-0.033,0.133-0.05c0.622-0.23,1.242-0.462,1.865-0.69c0.079-0.028,0.155-0.083,0.248-0.059
				c0.012,0.051-0.028,0.075-0.045,0.11c-0.015,0.013-0.029,0.026-0.044,0.039c-0.014,0.012-0.029,0.025-0.044,0.039
				c-0.014,0.011-0.027,0.023-0.041,0.035c-0.066,0.057-0.132,0.113-0.198,0.169c-0.041,0.027-0.082,0.053-0.122,0.08
				c-0.027,0.015-0.055,0.03-0.08,0.044c-0.159,0.051-0.319,0.098-0.457,0.195c-0.04,0.028-0.079,0.056-0.119,0.083
				c-0.042,0.025-0.083,0.052-0.106,0.099c-0.014,0.014-0.027,0.028-0.04,0.041c-0.048,0.023-0.074,0.065-0.102,0.107
				c-0.011,0.015-0.022,0.03-0.033,0.044c-0.057,0.064-0.113,0.13-0.169,0.195c-0.089,0.073-0.191,0.104-0.307,0.116
				c-0.094,0.009-0.096,0.044-0.016,0.137c0.128,0.046,0.249,0.02,0.364-0.042c0.026-0.015,0.053-0.03,0.08-0.043
				c0.183-0.099,0.288-0.284,0.451-0.404c0.134-0.075,0.27-0.146,0.416-0.196c0.106-0.037,0.218-0.064,0.311-0.133
				c0.078-0.026,0.146-0.066,0.202-0.125c0.016-0.011,0.032-0.021,0.048-0.032c0.026-0.015,0.055-0.028,0.067-0.058
				c0.035-0.01,0.074-0.054,0.107-0.018c0.029,0.034-0.011,0.068-0.032,0.1c-0.054,0.079-0.154,0.122-0.174,0.228l0.007,0.001
				c-0.04-0.01-0.05,0.008-0.043,0.043l0.002-0.002c-0.037-0.009-0.049,0.008-0.042,0.043l0.001-0.002
				c-0.035-0.007-0.047,0.01-0.041,0.043l0.001-0.002c-0.033-0.004-0.046,0.012-0.042,0.043l0.002-0.002
				c-0.032-0.004-0.045,0.012-0.043,0.043l0.003-0.002c-0.032-0.002-0.045,0.013-0.043,0.043l0.002-0.002
				c-0.122,0.086-0.231,0.183-0.289,0.327l0.003-0.003c-0.038-0.01-0.05,0.008-0.043,0.044l0.003-0.003
				c-0.038-0.008-0.049,0.01-0.043,0.043l0.002-0.001c-0.034-0.006-0.046,0.01-0.042,0.043l0.002-0.002
				c-0.033-0.004-0.046,0.011-0.042,0.043l0.001-0.003c-0.032-0.003-0.045,0.012-0.041,0.044l0.001-0.003
				c-0.031-0.001-0.043,0.014-0.041,0.043v-0.002c-0.122,0.086-0.231,0.184-0.289,0.327l0.003-0.003
				c-0.038-0.009-0.051,0.007-0.043,0.044l0.003-0.003c-0.037-0.009-0.049,0.009-0.043,0.043l0.003-0.002
				c-0.035-0.006-0.047,0.011-0.043,0.043l0.003-0.001c-0.035-0.006-0.051,0.017-0.063,0.045l-0.014,0.002l-0.004,0.015
				c-0.053,0.034-0.077,0.087-0.036,0.135c0.038,0.045,0.092,0.04,0.121-0.024v-0.001c0.031,0.003,0.047-0.01,0.043-0.042
				l-0.003,0.002c0.032,0.003,0.049-0.009,0.044-0.043l-0.002,0.003c0.033,0.004,0.049-0.008,0.044-0.043l-0.004,0.002
				c0.035,0.006,0.053-0.004,0.044-0.042l-0.002,0.002c0.036,0.008,0.054-0.003,0.044-0.042l-0.004,0.003
				c0.07,0.011,0.091-0.044,0.122-0.087l-0.002,0c0.083-0.053,0.162-0.11,0.206-0.203l-0.002,0.001
				c0.03,0.001,0.046-0.011,0.043-0.043l-0.001,0.003c0.031,0.002,0.047-0.011,0.043-0.043l-0.003,0.003
				c0.032,0.003,0.049-0.009,0.043-0.044l-0.002,0.003c0.033,0.005,0.051-0.007,0.044-0.043L49.2,20.188
				c0.036,0.007,0.053-0.005,0.044-0.043l-0.003,0.003c0.036,0.007,0.054-0.003,0.044-0.044l-0.004,0.004
				c0.146-0.056,0.242-0.167,0.327-0.289l-0.002,0.001c0.03,0.002,0.046-0.011,0.042-0.042l-0.001,0.001
				c0.031,0.004,0.047-0.008,0.043-0.042l-0.002,0.001c0.032,0.004,0.048-0.008,0.043-0.042L49.729,19.7
				c0.033,0.005,0.051-0.006,0.044-0.042L49.77,19.66c0.036,0.006,0.054-0.004,0.045-0.043l-0.004,0.003
				c0.037,0.008,0.055-0.003,0.044-0.043l0.002,0.006c0.143-0.056,0.226-0.179,0.329-0.281c0.033-0.022,0.065-0.043,0.099-0.065
				c0.015,0.01,0.028,0.02,0.042,0.03c-0.064,0.187-0.166,0.356-0.249,0.534c-0.03,0.04-0.061,0.079-0.092,0.118
				c-0.011,0.014-0.022,0.029-0.033,0.042c-0.015,0.014-0.027,0.028-0.04,0.042c-0.015,0.013-0.03,0.025-0.044,0.039
				c-0.014,0.012-0.027,0.023-0.041,0.036c-0.052,0.032-0.094,0.075-0.128,0.125c-0.011,0.014-0.022,0.028-0.034,0.042
				c-0.139,0.146-0.211,0.327-0.271,0.516c-0.041,0.128-0.072,0.26-0.137,0.38C49.245,21.154,49.233,21.169,49.222,21.183z"/>
			<path fill-rule="evenodd" clip-rule="evenodd" fill="#B4D1EC" d="M25.689,11.987c-0.031,0.006-0.062,0.011-0.092,0.017
				c0-3.669,0-7.338,0-11.007c0-0.047,0.002-0.095,0-0.142c-0.004-0.08,0.056-0.023,0.082-0.04
				c-0.002,0.087-0.005,0.176-0.005,0.264c0,3.535,0,7.07,0,10.604C25.675,11.785,25.666,11.887,25.689,11.987z"/>
			<path fill-rule="evenodd" clip-rule="evenodd" fill="#B4D1EC" d="M25.598,23.153c0.017,0.004,0.033,0.009,0.05,0.013
				c0.001,3.658,0.001,7.315,0.001,10.973c0,0.055-0.007,0.108-0.01,0.162c-0.013-0.009-0.043,0.021-0.041-0.02
				c0.002-0.054,0-0.108,0-0.163C25.598,30.463,25.598,26.808,25.598,23.153z"/>
		</g>
	</g>
</g>
<g id="Imagenes">
</g>
<g id="Cintillos">
</g>
<g id="Botones">
</g>
<g id="TXT">
</g>
<g id="Logo">
</g>
<g id="Guia">
</g>
</svg>
