<?xml version="1.0" encoding="utf-8"?>
<!-- Generator: Adobe Illustrator 16.0.0, SVG Export Plug-In . SVG Version: 6.00 Build 0)  -->
<!DOCTYPE svg PUBLIC "-//W3C//DTD SVG 1.1//EN" "http://www.w3.org/Graphics/SVG/1.1/DTD/svg11.dtd">
<svg version="1.1" xmlns="http://www.w3.org/2000/svg" xmlns:xlink="http://www.w3.org/1999/xlink" x="0px" y="0px"
	 width="34.417px" height="34.25px" viewBox="0 0 34.417 34.25" enable-background="new 0 0 34.417 34.25" xml:space="preserve">
<g id="Soporte">
</g>
<g id="Publicidad">
</g>
<g id="Iconos">
	<g>
		<defs>
			<circle id="SVGID_11_" cx="17.783" cy="17.595" r="15.917"/>
		</defs>
		<clipPath id="SVGID_2_">
			<use xlink:href="#SVGID_11_"  overflow="visible"/>
		</clipPath>
		<g clip-path="url(#SVGID_2_)">
			<path fill-rule="evenodd" clip-rule="evenodd" fill="#D32B1E" d="M-7.029,11.99c0-3.698,0-7.396-0.002-11.093
				c0-0.089,0.014-0.115,0.111-0.115c16.347,0.002,32.693,0.002,49.04,0c0.097,0,0.111,0.027,0.111,0.115
				c-0.003,3.698-0.002,7.396-0.002,11.093c-0.033,0.043-0.081,0.052-0.131,0.055c-0.074,0.002-0.148,0.002-0.222,0.002
				c-16.184,0-32.368,0-48.551,0c-0.074,0-0.148,0-0.222-0.002C-6.948,12.042-6.995,12.034-7.029,11.99z"/>
			<path fill-rule="evenodd" clip-rule="evenodd" fill="#007834" d="M42.229,23.172c0,3.698-0.001,7.396,0.002,11.093
				c0,0.089-0.014,0.115-0.111,0.115c-16.347-0.002-32.693-0.002-49.04,0c-0.097,0-0.111-0.026-0.111-0.115
				c0.002-3.698,0.002-7.396,0.002-11.093c0.034-0.043,0.081-0.053,0.132-0.055c0.074-0.002,0.147-0.002,0.222-0.002
				c16.184,0,32.367,0,48.551,0c0.074,0,0.148,0,0.222,0.002C42.148,23.119,42.195,23.128,42.229,23.172z"/>
			<path fill-rule="evenodd" clip-rule="evenodd" fill="#FDDE00" d="M42.229,23.172c-0.049,0.002-0.098,0.006-0.147,0.006
				c-16.321,0-32.642,0-48.963,0c-0.049,0-0.099-0.004-0.147-0.006c0-3.728,0-7.454,0-11.182c0.053-0.002,0.107-0.005,0.16-0.005
				c16.313,0,32.625,0,48.938,0c0.053,0,0.106,0.003,0.16,0.005C42.229,15.718,42.229,19.444,42.229,23.172z"/>
			<path fill-rule="evenodd" clip-rule="evenodd" fill="#D42B1E" d="M13.967,21.326c-0.063,0.004-0.124-0.007-0.181-0.028
				c-0.085-0.033-0.165-0.045-0.241,0.021c-0.027,0.023-0.056,0.026-0.082-0.01c-0.025-0.035-0.037-0.063,0.011-0.089
				c0.032-0.017,0.039-0.037,0.007-0.063c-0.365-0.297-0.458-0.72-0.537-1.151c-0.094-0.514-0.074-1.026,0.018-1.537
				c0.016-0.089-0.002-0.181,0.032-0.267c0.015-0.089,0.021-0.179,0.076-0.258c0.041-0.057,0.005-0.125,0-0.188
				c-0.002-0.014-0.003-0.028-0.003-0.042c-0.027-0.228-0.042-0.457-0.024-0.686c0.015-0.188,0.044-0.374,0.062-0.561
				c0.006-0.058,0.033-0.093,0.099-0.064c0.144,0.085,0.287,0.171,0.431,0.257c0.078,0.049,0.104,0.12,0.082,0.207
				c-0.022,0.084-0.02,0.17-0.02,0.255c0.014,0.127-0.047,0.241-0.062,0.362c0.154,0.137,0.045,0.308,0.057,0.463
				c0.002,0.03-0.006,0.063-0.007,0.072c0.03-0.118-0.015-0.272,0.077-0.401c0.019-0.085,0.027-0.17,0.011-0.256
				c-0.006-0.249-0.002-0.497-0.008-0.746c-0.004-0.177,0.044-0.353,0.058-0.531c0.003-0.037,0.022-0.072,0.073-0.052
				c0.082,0.059,0.168,0.112,0.245,0.177c0.072,0.061,0.099,0.039,0.121-0.041c0.035-0.12,0.076-0.238,0.114-0.357
				c0.075,0.022,0.057,0.09,0.06,0.14c0.006,0.114,0.002,0.229,0.001,0.343c0,0.013,0,0.027-0.001,0.04
				c-0.022,0.077-0.026,0.156-0.023,0.235c-0.002,0.057,0.002,0.113,0.014,0.158c0-0.022-0.011-0.055-0.006-0.089
				c0.032-0.271,0.024-0.543,0.002-0.815c-0.003-0.041-0.013-0.081-0.009-0.122c0.005-0.041,0.011-0.086,0.074-0.063
				c0.156,0.157,0.312,0.314,0.47,0.468c0.042,0.04,0.037,0.066,0.021,0.121c-0.047,0.162-0.118,0.314-0.169,0.473
				c-0.009,0-0.019,0.002-0.024-0.002c-0.177-0.108-0.177-0.108-0.238,0.102c-0.092,0.32-0.132,0.647-0.147,0.979
				c-0.021,0.461-0.083,0.921-0.076,1.385c0.003,0.239,0.039,0.471,0.125,0.695c0.018,0.049,0.031,0.102,0.076,0.136
				c0.062,0.023,0.056,0.077,0.052,0.125c-0.012,0.15,0.022,0.286,0.121,0.401c0.074,0.086,0.012,0.145-0.055,0.218
				c0.166-0.069,0.164-0.066,0.312,0.03c0.135,0.088,0.281,0.135,0.442,0.075c0.078-0.029,0.155-0.066,0.183-0.151
				c0.047-0.143,0.174-0.213,0.271-0.311c0.044-0.045,0.112-0.052,0.174-0.043c0.046,0.007,0.089,0.003,0.134-0.004
				c0.146,0.055,0.264,0.144,0.344,0.281c0.002,0.069-0.038,0.111-0.09,0.148c-0.182,0.132-0.38,0.233-0.59,0.313
				c-0.07,0.027-0.14,0.042-0.211-0.003c-0.023-0.015-0.054-0.015-0.08,0.003c-0.021,0-0.04,0-0.061,0.001
				c-0.105,0.07-0.199-0.042-0.306-0.009c0,0,0.002-0.002,0.009-0.001c0.04,0.004,0.109-0.027,0.11,0.027
				c0.001,0.071-0.079,0.043-0.125,0.057c-0.176,0.078-0.361,0.123-0.552,0.148c-0.071,0.015-0.144,0.019-0.209,0.059
				c-0.02,0.013-0.05,0.021-0.07,0.011C14.211,21.311,14.084,21.356,13.967,21.326z"/>
			<path fill-rule="evenodd" clip-rule="evenodd" fill="#D42B1E" d="M22.205,18.037c-0.001,0.263,0.055,0.52,0.083,0.78
				c0.07,0.624,0.015,1.234-0.198,1.827c-0.067,0.188-0.185,0.346-0.333,0.481c-0.035,0.032-0.104,0.06-0.012,0.109
				c0.026,0.014,0.017,0.043-0.002,0.064c-0.018,0.02-0.034,0.059-0.067,0.03c-0.11-0.097-0.221-0.044-0.334-0.012
				c-0.034,0.01-0.073,0.007-0.11,0.01c-0.213,0.018-0.427,0.063-0.637-0.024c-0.19-0.025-0.375-0.07-0.552-0.148
				c-0.003-0.002-0.007-0.006-0.011-0.006c-0.047,0.001-0.12,0.01-0.113-0.051c0.006-0.062,0.078-0.016,0.113-0.031
				c-0.047,0.007-0.1-0.011-0.151,0.028c-0.049,0.038-0.1-0.004-0.15-0.014c-0.02,0-0.04-0.001-0.06-0.001
				c-0.003-0.002-0.008-0.007-0.01-0.006c-0.314,0.083-0.541-0.114-0.784-0.25c-0.08-0.045-0.173-0.085-0.177-0.201
				c0.07-0.147,0.206-0.216,0.341-0.285c0.016-0.001,0.033,0.008,0.048,0.006c0.283-0.037,0.417,0.151,0.534,0.359
				c0.059,0.105,0.223,0.188,0.358,0.17c0.099-0.013,0.197-0.042,0.271-0.107c0.092-0.081,0.174-0.136,0.291-0.023
				c-0.11-0.099-0.076-0.185-0.005-0.272c0.077-0.095,0.089-0.208,0.087-0.325c-0.001-0.054-0.021-0.119,0.052-0.149
				c0.153-0.238,0.191-0.507,0.198-0.781c0.011-0.413-0.024-0.824-0.066-1.234c-0.015-0.146-0.01-0.293-0.023-0.44
				c-0.021-0.224-0.059-0.445-0.108-0.664c0.112-0.074,0.111-0.189,0.111-0.304c0.002-0.08,0.001-0.159-0.023-0.236
				c-0.001-0.014-0.001-0.028-0.001-0.042c0-0.125-0.002-0.25,0.001-0.375c0.001-0.044-0.013-0.103,0.06-0.11
				c0.038,0.119,0.079,0.237,0.114,0.357c0.022,0.078,0.048,0.103,0.122,0.042c0.076-0.065,0.163-0.12,0.245-0.178
				c0.061-0.021,0.07,0.024,0.075,0.064c0.042,0.353,0.087,0.705,0.066,1.062c-0.023,0.163-0.058,0.327,0.006,0.489
				c0.071,0.131,0.037,0.279,0.065,0.395c0-0.074-0.016-0.168-0.027-0.263c-0.013-0.108-0.02-0.215,0.075-0.295
				c0.009-0.059-0.032-0.106-0.036-0.162c-0.004-0.139-0.048-0.271-0.062-0.41c-0.01-0.107,0-0.193,0.097-0.252
				c0.144-0.086,0.288-0.171,0.431-0.257c0.065-0.029,0.092,0.007,0.099,0.064c0.042,0.349,0.086,0.696,0.067,1.048
				c-0.021,0.124-0.037,0.248-0.028,0.374c0.003,0.051,0.008,0.097,0.063,0.12C22.206,18.015,22.208,18.025,22.205,18.037z"/>
			<path fill-rule="evenodd" clip-rule="evenodd" fill="#00A5DD" d="M19.069,20.357c-0.114,0.085-0.229,0.171-0.342,0.257
				c-0.034,0.101-0.13,0.122-0.21,0.165c-0.034,0.011-0.072,0.01-0.101,0.035c-0.071,0.058-0.154,0.051-0.238,0.045
				c-0.032,0.04-0.088,0.015-0.124,0.046c-0.092,0.075-0.186,0.094-0.305,0.05c-0.094-0.035-0.201-0.021-0.301-0.003
				c-0.052,0.009-0.103,0.018-0.156,0.015c-0.06,0.002-0.104-0.028-0.147-0.063c-0.045-0.014-0.091-0.027-0.136-0.041
				c-0.1,0.008-0.19-0.021-0.275-0.072c-0.1-0.041-0.215-0.058-0.263-0.178c-0.114-0.085-0.228-0.171-0.342-0.257
				c-0.102,0.007-0.152-0.07-0.206-0.133c-0.22-0.255-0.384-0.543-0.51-0.855c-0.021-0.051-0.021-0.103-0.029-0.154
				c-0.212-0.712-0.16-1.407,0.136-2.086c0.055-0.125,0.134-0.231,0.233-0.322c0.033-0.05,0.065-0.101,0.098-0.15
				c0.01-0.135,0.122-0.198,0.206-0.276c0.104-0.097,0.217-0.184,0.321-0.281c0.07-0.065,0.162-0.093,0.243-0.139
				c0.074-0.034,0.147-0.07,0.228-0.088c0.102-0.058,0.211-0.085,0.328-0.075c0.053-0.007,0.106-0.012,0.145,0.037
				c0.034-0.034,0.061-0.084,0.113-0.087c0.112-0.006,0.226-0.005,0.338-0.004c0.054,0,0.098,0.059,0.068,0.105
				c-0.051,0.081-0.032,0.172-0.054,0.23c0.019-0.052,0.023-0.13,0.063-0.206c0.051-0.096,0.097-0.12,0.189-0.075
				c0.017,0.009,0.041-0.002,0.06,0.003c0.16,0.044,0.326,0.072,0.471,0.16c0.251,0.09,0.412,0.301,0.613,0.458
				c0.083,0.064,0.155,0.14,0.175,0.251c0.029,0.045,0.058,0.091,0.086,0.136c0.327,0.334,0.407,0.767,0.474,1.204
				c0.056,0.36,0.019,0.716-0.067,1.068c-0.01,0.04-0.022,0.079-0.039,0.116c-0.081,0.385-0.271,0.714-0.522,1.011
				C19.232,20.274,19.181,20.362,19.069,20.357z"/>
			<path fill-rule="evenodd" clip-rule="evenodd" fill="#422A23" d="M17.171,15.853c-0.112-0.027-0.208,0.033-0.31,0.058
				c-0.097-0.021-0.055-0.097-0.061-0.154c0.001-0.018,0.003-0.036,0.012-0.053c0.013-0.029,0.053-0.036,0.057-0.078
				c-0.021-0.009-0.054-0.003-0.076-0.023c-0.024-0.021-0.035-0.048-0.032-0.081c0.03-0.055,0.048-0.115,0.089-0.164
				c0.027-0.017,0.058-0.017,0.08,0.002c0.054,0.047,0.072-0.006,0.09-0.034c0.031-0.047-0.012-0.063-0.045-0.077
				c-0.118-0.047-0.232-0.105-0.364-0.099c-0.021-0.002-0.05-0.018-0.049,0.023c0.001,0.058-0.021,0.108-0.047,0.158
				c-0.008,0.009-0.018,0.016-0.029,0.021c-0.087,0.006-0.144-0.032-0.17-0.116c-0.002-0.019,0.001-0.036,0.011-0.053
				c0.104-0.077,0.119-0.134,0.057-0.223c-0.011-0.003-0.021-0.006-0.032-0.009c-0.033-0.01-0.062-0.025-0.083-0.054
				c-0.011-0.017-0.021-0.035-0.04-0.044c-0.022-0.012-0.048-0.007-0.072-0.013c-0.031-0.012-0.058,0.005-0.085,0.016
				c-0.042,0.011-0.086,0.014-0.129,0.024c-0.09,0.021-0.16,0-0.186-0.101c-0.008-0.117-0.096-0.079-0.162-0.082
				c-0.028-0.007-0.056-0.014-0.084-0.017c-0.048-0.008-0.085-0.057-0.14-0.041c-0.028,0.009-0.055,0.007-0.083,0
				c-0.068-0.069-0.143-0.11-0.245-0.071c-0.078,0.03-0.149-0.017-0.223-0.029c-0.071-0.012-0.141-0.02-0.22-0.037
				c0.074-0.046,0.148-0.092,0.223-0.137c0.229-0.088,0.448-0.196,0.672-0.293c0.162-0.069,0.332-0.109,0.5-0.158
				c0.093-0.027,0.187,0.015,0.28,0.021c0.13,0.009,0.259,0.03,0.389,0.041c0.076,0.006,0.117,0.056,0.146,0.117
				c0.068,0.146,0.183,0.237,0.333,0.288c0.04,0.014,0.08,0.031,0.116,0c0.144-0.122,0.311-0.085,0.469-0.059
				c0.261,0.044,0.471-0.037,0.619-0.258c0.059-0.089,0.155-0.119,0.245-0.119c0.31,0.002,0.622,0.015,0.918,0.12
				c0.054,0.02,0.103,0.012,0.155,0.012c0.322,0.128,0.638,0.271,0.951,0.418c0.018,0.01,0.035,0.021,0.054,0.032
				c-0.022,0.034-0.053,0.02-0.075,0.011c-0.089-0.039-0.133,0.019-0.173,0.079c-0.028,0.042-0.058,0.003-0.085,0.009
				c-0.05,0.011-0.123-0.092-0.153,0.03c-0.001,0.004-0.055,0.002-0.08-0.009c-0.096-0.042-0.148,0.003-0.186,0.084
				c-0.028-0.009-0.056,0.012-0.083,0.001c-0.083-0.031-0.157,0.051-0.24,0.022c-0.089,0.006-0.196-0.045-0.25,0.077
				c-0.042,0.039-0.09,0.05-0.146,0.038c-0.077-0.018-0.152-0.008-0.224,0.023c-0.01,0.003-0.021,0.005-0.031,0.007
				c-0.06,0.044-0.098,0.108-0.15,0.159c-0.009,0.008-0.02,0.013-0.031,0.017c-0.018,0.004-0.034,0.011-0.052,0.012
				c-0.05-0.007-0.088-0.007-0.125,0.044c-0.05,0.068-0.147,0.072-0.219,0.082c-0.199,0.026-0.297,0.142-0.352,0.318
				c-0.015,0.021-0.035,0.032-0.059,0.037c-0.07,0.019-0.102-0.063-0.165-0.062c-0.116,0.008-0.138,0.134-0.224,0.179
				c-0.118,0.022-0.125,0.012-0.089-0.095c-0.018,0.108-0.097,0.188-0.234,0.207C17.212,15.803,17.178,15.812,17.171,15.853z"/>
			<path fill-rule="evenodd" clip-rule="evenodd" fill="#E7A20E" d="M19.069,20.357c0.217-0.22,0.403-0.461,0.541-0.74
				c0.065-0.131,0.104-0.27,0.145-0.409c0.092-0.029,0.18,0.016,0.24,0.125c0.016,0.028,0.02,0.062,0.042,0.087
				c0.088,0.084,0.163,0.199,0.269,0.243c0.088,0.038,0.074,0.148,0.174,0.163c0.093,0.013,0.145,0.097,0.198,0.169
				c-0.024,0.041-0.002,0.081,0.002,0.12c0.021,0.197-0.047,0.36-0.192,0.507c0.082,0.024,0.153,0.051,0.141,0.146
				c-0.006,0.049-0.039,0.044-0.079,0.05c-0.094,0.015-0.115-0.037-0.119-0.13c-0.123,0.104-0.23,0.199-0.38,0.229
				c-0.223,0.044-0.391-0.051-0.507-0.242c-0.085-0.139-0.181-0.303-0.395-0.282C19.121,20.395,19.08,20.405,19.069,20.357z"/>
			<path fill-rule="evenodd" clip-rule="evenodd" fill="#E7A20E" d="M15.435,19.242c0.123,0.372,0.313,0.704,0.58,0.992
				c0.039,0.042,0.078,0.083,0.116,0.125c-0.011,0.047-0.052,0.038-0.079,0.034c-0.202-0.029-0.3,0.128-0.377,0.251
				c-0.196,0.314-0.521,0.384-0.797,0.138c-0.03-0.027-0.059-0.055-0.102-0.094c-0.002,0.111-0.056,0.145-0.149,0.133
				c-0.037-0.004-0.051-0.021-0.055-0.052c-0.012-0.094,0.055-0.124,0.147-0.147c-0.211-0.174-0.208-0.399-0.196-0.626
				c0.056-0.081,0.122-0.148,0.218-0.186c0.041-0.015,0.085-0.034,0.08-0.104c-0.003-0.038,0.074-0.014,0.108-0.056
				c0.07-0.083,0.155-0.154,0.234-0.229c0.036-0.074,0.073-0.146,0.143-0.194C15.352,19.195,15.399,19.166,15.435,19.242z"/>
			<path fill-rule="evenodd" clip-rule="evenodd" fill="#9F592C" d="M16.472,20.615c0.088,0.044,0.176,0.088,0.264,0.132
				c0.067,0.107,0.079,0.217,0.018,0.33c-0.126,0.22-0.257,0.438-0.374,0.662c-0.05,0.097-0.104,0.116-0.19,0.063
				c-0.076-0.046-0.11-0.017-0.147,0.055c-0.098,0.191-0.104,0.193-0.301,0.098c-0.166-0.08-0.325-0.173-0.49-0.254
				c-0.069-0.034-0.042-0.067-0.015-0.104c0.107-0.15,0.214-0.3,0.324-0.447c0.042-0.056,0.031-0.074-0.034-0.071
				c0.319-0.033,0.588-0.182,0.848-0.357C16.416,20.693,16.458,20.666,16.472,20.615z"/>
			<path fill-rule="evenodd" clip-rule="evenodd" fill="#9F592C" d="M18.511,20.723c0.072-0.036,0.144-0.072,0.216-0.108
				c0.092,0.147,0.252,0.203,0.391,0.284c0.17,0.099,0.356,0.159,0.554,0.18c-0.02,0.003-0.04,0.006-0.061,0.009
				c0.122,0.172,0.241,0.342,0.364,0.51c0.041,0.056,0.036,0.08-0.033,0.113c-0.187,0.091-0.365,0.198-0.556,0.283
				c-0.088,0.039-0.148,0.032-0.185-0.063c-0.038-0.101-0.085-0.174-0.212-0.101c-0.063,0.036-0.083-0.03-0.106-0.07
				c-0.139-0.245-0.278-0.49-0.417-0.735C18.386,20.908,18.397,20.83,18.511,20.723z"/>
			<path fill-rule="evenodd" clip-rule="evenodd" fill="#017834" d="M15.435,19.242c-0.043-0.048-0.063,0.002-0.088,0.022
				c-0.063,0.05-0.105,0.125-0.185,0.157c-0.193-0.761-0.16-1.521,0.009-2.279c0.032-0.144,0.036-0.144,0.158-0.061
				c0.013,0.009,0.027,0.016,0.043,0.026c0.045-0.146,0.088-0.289,0.145-0.477c0.06,0.076,0.101,0.126,0.14,0.178
				c0.035,0.046,0.065,0.033,0.097-0.001c0.003,0.031-0.015,0.054-0.03,0.078c-0.423,0.706-0.51,1.458-0.305,2.25
				C15.428,19.17,15.442,19.204,15.435,19.242z"/>
			<path fill-rule="evenodd" clip-rule="evenodd" fill="#007834" d="M20.038,19.42c-0.076-0.026-0.115-0.096-0.172-0.146
				c-0.034-0.029-0.064-0.06-0.11-0.066c0.239-0.806,0.155-1.574-0.267-2.303c-0.018-0.031-0.046-0.058-0.043-0.099
				c0.032,0.035,0.063,0.047,0.097,0.001c0.039-0.052,0.08-0.102,0.14-0.178c0.057,0.188,0.1,0.33,0.144,0.473
				c0.166-0.097,0.172-0.098,0.214,0.098C20.199,17.941,20.227,18.681,20.038,19.42z"/>
			<path fill-rule="evenodd" clip-rule="evenodd" fill="#D32B1E" d="M15.612,16.004c-0.053,0.088-0.106,0.174-0.182,0.245
				c-0.043,0.04-0.083,0.056-0.142,0.028c-0.057-0.027-0.064-0.069-0.055-0.121c0.022-0.135-0.009-0.257-0.08-0.374
				c-0.056-0.091-0.083-0.195-0.108-0.297c-0.054-0.225,0.104-0.428,0.362-0.473c0.139-0.039,0.278-0.077,0.385,0.066
				c0.007,0.011,0.011,0.024,0.014,0.037c0.01,0.053-0.031,0.087-0.046,0.131c-0.005,0.014-0.015,0.027-0.02,0.041
				c-0.003,0.041,0.033,0.022,0.05,0.032c0.034,0.007,0.055,0.036,0.082,0.054c0.049,0.055,0.116,0.082,0.18,0.113
				c0.036,0.018,0.072,0.032,0.086,0.075c-0.047,0.109-0.15,0.167-0.225,0.251c-0.032,0.021-0.066,0.032-0.104,0.029
				c-0.049-0.005-0.078-0.041-0.109-0.075c-0.054,0.059-0.057,0.127-0.057,0.196C15.637,15.981,15.626,15.994,15.612,16.004z"/>
			<path fill-rule="evenodd" clip-rule="evenodd" fill="#186423" d="M16.117,15.571c-0.106-0.032-0.197-0.094-0.287-0.156
				c0.02-0.038,0.026-0.073-0.021-0.097c-0.035-0.018-0.069-0.038-0.094-0.069c-0.021-0.064,0.049-0.073,0.069-0.111
				c0.007,0.001,0.013,0,0.017-0.005c-0.006-0.001-0.013-0.003-0.019-0.005c-0.099-0.125-0.237-0.123-0.377-0.115
				c0.036-0.024,0.037-0.057,0.019-0.092c0.03-0.011,0.06,0.019,0.09,0.001c0.015-0.042,0.022-0.089,0.078-0.097
				c-0.061-0.042-0.135-0.075-0.091-0.17c0.033,0,0.066,0,0.099,0c0.059,0.04,0.16,0.016,0.18,0.116
				c0.052,0.076,0.101,0.125,0.18,0.021c0.041-0.054,0.057,0.073,0.109,0.029c0.032,0.016,0.052-0.015,0.077-0.023
				c0.042,0.002,0.084,0.004,0.126,0.006c0.001,0.06-0.036,0.103-0.062,0.145c0.03-0.017,0.023-0.082,0.081-0.076
				c0.027,0.017,0.053,0.035,0.08,0.052c0.043,0.063,0,0.112-0.032,0.156c-0.043,0.059-0.052,0.11-0.001,0.165
				c0.04,0.052,0.112,0.055,0.157,0.098c0.005,0.006,0.008,0.008,0.008,0.008c0.002,0.004-0.001,0.001-0.009-0.007
				c-0.006-0.083,0.033-0.167-0.005-0.25c-0.007-0.017-0.003-0.042,0.018-0.053c0.021-0.013,0.04,0.001,0.054,0.015
				c0.02,0.02,0.037,0.043,0.055,0.064c0.028,0.021,0.062,0.036,0.082,0.067c0.024,0.031,0.031,0.065,0.022,0.103
				c-0.072,0.136-0.067,0.153,0.081,0.293c0.055,0.008,0.108,0.008,0.146-0.05c-0.02,0.074-0.008,0.161-0.108,0.179
				c-0.008,0.009-0.017,0.012-0.029,0.01c-0.041-0.059-0.081-0.047-0.12,0.004c-0.114,0.092-0.251,0.104-0.39,0.112
				c-0.027,0.004-0.054-0.002-0.081-0.007c-0.052-0.036-0.124-0.044-0.159-0.106c-0.01-0.039,0.005-0.067,0.039-0.087
				C16.124,15.62,16.144,15.602,16.117,15.571z"/>
			<path fill-rule="evenodd" clip-rule="evenodd" fill="#0D6326" d="M18.928,13.912c-0.036-0.061,0.022-0.104,0.026-0.157
				c0.01-0.143-0.099-0.234-0.171-0.354c0.131-0.002,0.234,0.123,0.385,0.057c-0.1-0.061-0.21-0.034-0.288-0.104
				c-0.075-0.068-0.12-0.149-0.154-0.268c0.098,0.069,0.195,0.081,0.294,0.124c-0.015-0.056-0.022-0.101-0.086-0.102
				c-0.107-0.001-0.137-0.075-0.146-0.163c-0.007-0.068-0.008-0.138-0.04-0.222c0.109,0.065,0.204,0.113,0.272,0.219
				c0.005-0.049,0.008-0.083,0.014-0.134c0.065,0.091,0.12,0.167,0.176,0.247c0.017-0.029,0.034-0.058,0.064-0.109
				c0.047,0.219,0.222,0.357,0.231,0.568c0.002,0.053,0.011,0.105,0.018,0.158c0.045-0.002,0.039-0.06,0.086-0.073
				c0.017,0.147-0.001,0.291-0.016,0.435c-0.076,0.063-0.141,0.02-0.206-0.022c-0.033-0.041-0.04-0.092-0.015-0.133
				c0.041-0.065-0.004-0.083-0.044-0.109c-0.027-0.032-0.023-0.075-0.041-0.11c0.018,0.037,0.013,0.083,0.044,0.115
				c0.016,0.083-0.022,0.081-0.078,0.05c-0.007,0.007-0.032-0.045-0.025,0.008c0.001,0.014,0.005,0.029,0.007,0.044
				c0.01,0.046-0.005,0.079-0.049,0.099C19.095,13.98,18.995,14.012,18.928,13.912z"/>
			<path fill-rule="evenodd" clip-rule="evenodd" fill="#D22B1D" d="M17.286,20.931c0.257,0.021,0.513,0.009,0.769-0.025
				c0.014,0.26,0.048,0.519,0.1,0.774c0.013,0.063,0.026,0.167,0.144,0.145c0.001,0,0.006,0.013,0.005,0.019
				c-0.033,0.156-0.05,0.315-0.117,0.462c-0.028,0.063-0.061,0.134-0.148,0.125c-0.088-0.01-0.102-0.087-0.114-0.155
				c-0.068-0.366-0.103-0.736-0.151-1.105c-0.001-0.008,0-0.016-0.002-0.024c-0.018-0.182-0.102-0.236-0.282-0.187
				c-0.07,0.019-0.023,0.088-0.058,0.12c-0.042-0.005-0.054,0.025-0.066,0.056c-0.062,0.163-0.056,0.333-0.062,0.502
				c-0.001,0.04,0.039,0.019,0.051,0.037c-0.011,0.172-0.025,0.345-0.071,0.513c-0.075-0.035-0.061-0.111-0.075-0.171
				c-0.079-0.337-0.053-0.673,0.023-1.008C17.24,20.974,17.252,20.945,17.286,20.931z"/>
			<path fill-rule="evenodd" clip-rule="evenodd" fill="#E3E3E3" d="M19.391,13.979c0.068,0.019,0.136,0.036,0.204,0.055v0.002
				c0.05-0.006,0.088,0.018,0.124,0.048l0,0c0.002,0.046-0.023,0.04-0.052,0.027c-0.049,0.048-0.1,0.038-0.158,0.013
				c-0.288-0.123-0.595-0.135-0.9-0.125c-0.099,0.003-0.246,0.018-0.258,0.184c-0.002,0.025-0.014,0.06-0.045,0.069
				c-0.189,0.059-0.362,0.181-0.583,0.109c-0.151-0.049-0.312-0.05-0.461,0.045c-0.099,0.063-0.365-0.044-0.428-0.159
				c-0.012-0.021-0.024-0.043-0.031-0.066c-0.053-0.18-0.218-0.167-0.342-0.165c-0.106,0.001-0.227-0.004-0.313-0.025
				c-0.268-0.065-0.474,0.068-0.698,0.144c-0.212,0.071-0.406,0.191-0.628,0.234c0.077-0.044,0.153-0.088,0.23-0.133
				c0.032-0.039,0.081-0.041,0.125-0.054c0.117-0.05,0.234-0.101,0.352-0.151c0.026-0.041,0.064-0.056,0.111-0.045
				c0.021-0.008,0.042-0.016,0.063-0.024c0.026-0.057,0.075-0.051,0.123-0.045c0.008,0,0.016-0.002,0.022-0.006
				c0.136-0.101,0.276-0.179,0.446-0.073c0.037,0.008,0.074,0.017,0.11,0.025c0.112,0.026,0.226,0.005,0.338,0.012
				c0.044,0.003,0.089-0.01,0.131,0.014c0.084,0.085,0.09,0.197,0.107,0.306c0.015,0.095,0.212,0.193,0.298,0.148
				c0.141-0.09,0.294-0.045,0.443-0.036c0.052,0.003,0.102,0.021,0.153,0c0.053-0.032,0.117-0.031,0.173-0.051
				c0.089-0.032,0.17-0.067,0.174-0.19c0.005-0.124,0.077-0.177,0.203-0.179c0.057-0.001,0.114,0,0.171,0
				c0.089,0.032,0.185-0.01,0.273,0.025c0.02,0,0.039-0.001,0.059-0.001c0.092,0.025,0.188,0.028,0.283,0.033
				C19.279,13.915,19.344,13.901,19.391,13.979z"/>
			<path fill-rule="evenodd" clip-rule="evenodd" fill="#D7D7D8" d="M19.741,15.796c-0.062,0.118-0.121,0.237-0.184,0.354
				c-0.022,0.041-0.012,0.077,0.002,0.115c0.023,0.059,0.028,0.118-0.013,0.172c-0.146,0.108-0.213,0.103-0.348,0
				c-0.1-0.078-0.197-0.159-0.288-0.246c-0.068-0.065-0.131-0.137-0.117-0.244c0-0.012,0-0.023,0-0.036
				c-0.02-0.146-0.063-0.114,0.179-0.165c0.051,0.002,0.105,0.008,0.066-0.071c0.017-0.063,0.066-0.085,0.123-0.099
				c0.024,0,0.047,0.011,0.071,0.015c0.117,0.021,0.151,0.075,0.127,0.189c-0.009,0.042-0.045,0.081-0.021,0.128
				c0.053,0.078,0.1,0.067,0.145-0.007c0.043-0.069,0.094-0.135,0.167-0.172C19.707,15.703,19.772,15.692,19.741,15.796z"/>
			<path fill-rule="evenodd" clip-rule="evenodd" fill="#D42B1E" d="M20.655,16.807c-0.059-0.209-0.059-0.209-0.261-0.102
				c-0.062-0.172-0.12-0.344-0.187-0.513c-0.019-0.048,0.013-0.059,0.032-0.079c0.158-0.16,0.317-0.318,0.477-0.477
				c0.093-0.009,0.08,0.061,0.072,0.111c-0.035,0.21-0.017,0.422-0.024,0.633c-0.003,0.098,0.008,0.194,0.02,0.291
				c-0.007,0.035-0.004,0.075-0.028,0.104C20.73,16.807,20.708,16.859,20.655,16.807z"/>
			<path fill-rule="evenodd" clip-rule="evenodd" fill="#D6D6D7" d="M16.117,15.571c0.016-0.004,0.033-0.015,0.046-0.012
				c0.037,0.008,0.097-0.025,0.106,0.027c0.012,0.073-0.06,0.045-0.097,0.057c-0.043,0.014-0.088,0.021-0.105,0.072
				c0.021,0.099,0.106,0.04,0.157,0.065c0.029,0.006,0.057,0.013,0.085,0.019c0.052-0.001,0.083,0.022,0.094,0.074
				c0.035,0.137-0.026,0.235-0.122,0.325c-0.09,0.084-0.186,0.159-0.281,0.237c-0.131,0.108-0.2,0.11-0.348,0.003
				c-0.04-0.054-0.046-0.118-0.012-0.171c0.062-0.099,0.034-0.181-0.028-0.263c-0.002-0.014-0.004-0.028-0.006-0.042
				c0.031-0.121,0.044-0.128,0.146-0.048c0.046,0.037,0.078,0.035,0.114-0.004c0.039-0.031,0.011-0.085,0.042-0.12
				C15.957,15.699,16.037,15.635,16.117,15.571z"/>
			<path fill-rule="evenodd" clip-rule="evenodd" fill="#E5E5E4" d="M19.84,14.718c0.03-0.016,0.064-0.053,0.076,0.017
				c-0.086,0.176-0.174,0.353-0.259,0.53c-0.047,0.097,0.021,0.19,0.134,0.18c0.06-0.005,0.095,0.026,0.119,0.064
				c0.077,0.125,0.176,0.156,0.297,0.083c0.035-0.021,0.068-0.044,0.115-0.074c0.033,0.142,0.018,0.264-0.074,0.369
				c-0.099,0.114-0.222,0.183-0.377,0.165c-0.084-0.009-0.033-0.055-0.011-0.083c0.081-0.099,0.075-0.184-0.032-0.258
				c-0.098,0.016-0.188,0.008-0.25-0.085c-0.048-0.023-0.096-0.045-0.146-0.066c-0.139-0.059-0.162-0.158-0.055-0.265
				c0.066-0.066,0.136-0.127,0.192-0.204c0.051-0.07,0.095-0.141,0.127-0.221C19.726,14.804,19.754,14.733,19.84,14.718z"/>
			<path fill-rule="evenodd" clip-rule="evenodd" fill="#D32B1D" d="M17.286,20.931c0.022,0.145-0.031,0.281-0.057,0.419
				c-0.042,0.223,0.011,0.437,0.036,0.654c0.007,0.061,0.013,0.121,0.02,0.182c-0.015,0.094,0.005,0.223-0.119,0.24
				c-0.132,0.018-0.154-0.112-0.183-0.207c-0.035-0.116-0.058-0.236-0.084-0.355c-0.008-0.037,0.003-0.017,0.027-0.02
				c0.057-0.005,0.086-0.067,0.106-0.122c0.041-0.107,0.048-0.222,0.061-0.334c0.02-0.161,0.052-0.32,0.053-0.483
				C17.196,20.894,17.242,20.909,17.286,20.931z"/>
			<path fill-rule="evenodd" clip-rule="evenodd" fill="#26651E" d="M16.293,13.837c-0.155-0.018-0.3,0.032-0.446,0.073
				c0.048-0.061-0.016-0.087-0.041-0.121c-0.085-0.114-0.146-0.233-0.128-0.413c0.1,0.137,0.13,0.277,0.198,0.402
				c0.052-0.099,0.052-0.099-0.003-0.179c-0.079-0.112-0.132-0.23-0.109-0.384c0.065,0.032,0.063,0.092,0.084,0.136
				c0.014,0.03,0.032,0.055,0.062,0.039c0.03-0.016,0-0.043-0.007-0.063c-0.045-0.112-0.07-0.223,0.003-0.348
				c0.07,0.096,0.063,0.202,0.093,0.296c0.011,0.035,0.012,0.074,0.027,0.106c0.013,0.026,0.021-0.004,0.031-0.012
				c0.102,0,0.201-0.013,0.288-0.073c0.02,0,0.048-0.008,0.057,0.002c0.021,0.024-0.006,0.044-0.021,0.059
				c-0.067,0.072-0.052,0.164-0.066,0.249c-0.002,0.012-0.002,0.026-0.009,0.033C16.238,13.704,16.259,13.77,16.293,13.837z"/>
			<path fill-rule="evenodd" clip-rule="evenodd" fill="#9C592A" d="M15.155,21.153c0.03-0.02,0.061-0.039,0.107-0.068
				c-0.062-0.006-0.11-0.011-0.19-0.018c0.155-0.024,0.274-0.001,0.395,0.012c-0.401,0.397-0.801,0.796-1.207,1.189
				c-0.043,0.042-0.083,0.175-0.174,0.076c-0.082-0.089,0.047-0.12,0.086-0.16c0.305-0.315,0.618-0.622,0.925-0.933
				C15.123,21.225,15.179,21.21,15.155,21.153z"/>
			<path fill-rule="evenodd" clip-rule="evenodd" fill="#9F592C" d="M19.732,21.079c0.12-0.006,0.24-0.038,0.362-0.006
				c-0.047,0-0.095,0-0.17,0c0.056,0.038,0.087,0.059,0.119,0.08c-0.021,0.057,0.034,0.072,0.059,0.098
				c0.326,0.329,0.654,0.654,0.979,0.983c0.027,0.027,0.101,0.05,0.036,0.114c-0.059,0.059-0.092,0.013-0.13-0.025
				c-0.376-0.376-0.752-0.752-1.129-1.128C19.818,21.155,19.775,21.118,19.732,21.079z"/>
			<path fill-rule="evenodd" clip-rule="evenodd" fill="#81530B" d="M21.396,17.196c-0.002-0.285,0-0.57-0.031-0.854
				c-0.012-0.104,0.008-0.218-0.059-0.313c0.086-0.063,0.166-0.132,0.158-0.254c0.074,0.068,0.075,0.174,0.13,0.251
				c-0.148,0.023-0.174,0.059-0.154,0.202c0.018,0.124,0.037,0.247,0.05,0.372c0.005,0.052,0.02,0.077,0.075,0.057
				c-0.101,0.163-0.009,0.329-0.008,0.494c0.001,0.067,0.04,0.132,0.035,0.202c-0.019,0.007-0.057-0.003-0.042,0.037
				c0.014,0.037,0.015,0.094,0.082,0.08c0.049,0.061-0.001,0.106-0.042,0.098c-0.095-0.019-0.063,0.036-0.069,0.082
				c-0.025,0.179,0.035,0.355,0.012,0.542c-0.056-0.131-0.032-0.264-0.059-0.39c-0.012-0.054-0.028-0.1-0.066-0.139
				c0.008-0.009,0.02-0.02,0.019-0.03C21.422,17.487,21.447,17.338,21.396,17.196z"/>
			<path fill-rule="evenodd" clip-rule="evenodd" fill="#845B0B" d="M13.203,16.4c-0.049,0.001-0.057,0.034-0.06,0.075
				c-0.029,0.385-0.084,0.77-0.027,1.157c0.006,0.04,0,0.082-0.001,0.123c-0.113-0.014-0.009,0.09-0.054,0.101
				c0.012-0.029,0.006-0.079,0.053-0.102c0.04,0.115,0.075,0.227-0.066,0.304c-0.055,0.03-0.016,0.102-0.055,0.142
				c-0.005-0.176-0.059-0.353-0.007-0.531c0.008-0.032,0.003-0.039-0.043-0.059c-0.036-0.015-0.021-0.038-0.019-0.058
				c0.039-0.313,0.079-0.627,0.119-0.94c0.021-0.163,0.003-0.186-0.167-0.214c-0.001-0.081,0.036-0.143,0.095-0.193
				c0.021,0.074,0.055,0.13,0.144,0.139C13.146,16.346,13.174,16.38,13.203,16.4z"/>
			<path fill-rule="evenodd" clip-rule="evenodd" fill="#633F0A" d="M13.894,16.029c-0.069,0.081-0.047,0.186-0.055,0.276
				c-0.023,0.247-0.039,0.495-0.032,0.743c0.003,0.122,0.04,0.241,0.024,0.364c-0.011,0.027-0.051-0.064-0.051,0.012
				c0,0.068-0.045,0.145,0.039,0.196c-0.162,0.156-0.086,0.375-0.152,0.574c-0.021-0.191,0.041-0.365,0.013-0.541
				c-0.007-0.047,0.027-0.115-0.076-0.087c-0.03,0.008-0.082-0.036-0.043-0.092c0.067,0.008,0.079-0.043,0.093-0.089
				c0.026-0.084,0.027-0.173,0.039-0.233c0-0.005-0.014,0.006-0.033,0.013c-0.001-0.11-0.012-0.219,0.019-0.327
				c0.02-0.068-0.012-0.126-0.046-0.182c0.059,0.023,0.068-0.014,0.075-0.06c0.021-0.14,0.046-0.279,0.066-0.419
				c0.017-0.12-0.072-0.136-0.157-0.154c0.037-0.082,0.048-0.177,0.121-0.242C13.722,15.907,13.806,15.969,13.894,16.029z"/>
			<path fill-rule="evenodd" clip-rule="evenodd" fill="#037632" d="M18.511,20.723c-0.078,0.091-0.018,0.202-0.044,0.3
				c-0.068,0.145,0.003,0.29,0.003,0.434c0,0.089,0.015,0.178,0.025,0.289c-0.139-0.154-0.209-0.314-0.236-0.494
				c-0.019-0.133-0.044-0.264-0.082-0.393C18.29,20.814,18.4,20.769,18.511,20.723z"/>
			<path fill-rule="evenodd" clip-rule="evenodd" fill="#037632" d="M16.754,21.077c-0.047-0.108-0.022-0.219-0.018-0.33
				c0.091,0.04,0.194,0.05,0.273,0.117c-0.024,0.136-0.051,0.271-0.074,0.408c-0.03,0.171-0.1,0.323-0.233,0.478
				c0.019-0.193,0.034-0.361,0.052-0.528C16.759,21.173,16.771,21.125,16.754,21.077z"/>
			<path fill-rule="evenodd" clip-rule="evenodd" fill="#845F0A" d="M22.11,17.563c-0.002-0.282-0.005-0.564-0.029-0.846
				c-0.008-0.089-0.018-0.178-0.027-0.268c-0.004-0.036-0.026-0.048-0.058-0.049c0.036-0.026,0.065-0.058,0.118-0.063
				c0.071-0.007,0.096-0.072,0.114-0.134c0.056,0.053,0.096,0.115,0.095,0.195c-0.17,0.029-0.188,0.052-0.167,0.215
				c0.042,0.326,0.083,0.652,0.125,0.978c0.002,0.019,0.014,0.038,0.021,0.056c-0.065,0.026-0.043,0.078-0.034,0.124
				c0.013,0.058,0.013,0.111-0.033,0.156c-0.01,0.037,0.004,0.081-0.03,0.111l-0.003-0.008c-0.08-0.092-0.067-0.206-0.065-0.314
				C22.138,17.66,22.146,17.609,22.11,17.563z"/>
			<path fill-rule="evenodd" clip-rule="evenodd" fill="#E4E4E4" d="M13.738,15.782c0,0.024-0.001,0.049,0.002,0.072
				c0.016,0.099-0.018,0.161-0.124,0.17c-0.087,0-0.174,0-0.261,0c0.052-0.068,0.134-0.063,0.19-0.134
				c-0.068-0.005-0.131,0.007-0.163-0.072c-0.022-0.055-0.052,0.034-0.095,0.02c-0.049-0.157-0.17-0.268-0.285-0.391
				c0.148,0.085,0.301,0.155,0.469,0.183c-0.017,0.104,0.143,0.096,0.119,0.204c0.069-0.035,0.055-0.104,0.082-0.151
				C13.721,15.7,13.714,15.751,13.738,15.782z"/>
			<path fill-rule="evenodd" clip-rule="evenodd" fill="#E4E3E3" d="M21.594,16.026c-0.177-0.015-0.13-0.145-0.13-0.251
				c0.023-0.027,0.017-0.073,0.065-0.094c0.023,0.048,0.012,0.115,0.074,0.152c0.005-0.058,0.024-0.103,0.086-0.112
				c0.011-0.001,0.032-0.011,0.031-0.013c-0.038-0.151,0.097-0.088,0.147-0.107c0.112-0.042,0.212-0.104,0.331-0.144
				c-0.045,0.045-0.09,0.09-0.135,0.136c-0.055,0.056-0.1,0.12-0.13,0.192c-0.015,0.037-0.024,0.088-0.077,0.03
				c-0.011-0.012-0.035-0.037-0.043-0.001c-0.019,0.086-0.088,0.076-0.158,0.075c0.05,0.074,0.13,0.067,0.193,0.106
				C21.762,16.029,21.678,16.024,21.594,16.026z"/>
			<path fill-rule="evenodd" clip-rule="evenodd" fill="#E3E3E2" d="M22.323,16.398c-0.122-0.021-0.097-0.114-0.095-0.195
				c0.029-0.047,0.032-0.11,0.088-0.144c0.035,0.043,0.002,0.107,0.053,0.143c0.031-0.029,0.073-0.063,0.098-0.092
				c0.134-0.162,0.361-0.072,0.5-0.203c0.027-0.018,0.047-0.02,0.047,0.021c-0.205,0.142-0.242,0.179-0.337,0.333
				c-0.038-0.01-0.078-0.121-0.12,0c-0.014,0.041-0.079,0.015-0.13,0.025c0.042,0.059,0.097,0.077,0.165,0.102
				C22.493,16.435,22.407,16.403,22.323,16.398z"/>
			<path fill-rule="evenodd" clip-rule="evenodd" fill="#E3E3E2" d="M12.972,16.205c0.003,0.082,0.029,0.175-0.095,0.193
				c-0.083,0.009-0.167,0.028-0.266,0.003c0.054-0.047,0.124-0.049,0.155-0.118c-0.062-0.005-0.129,0.015-0.153-0.065
				c-0.007-0.024-0.019-0.021-0.093,0.044c-0.078-0.147-0.196-0.252-0.341-0.329c-0.002-0.017,0.003-0.03,0.019-0.035
				c0.017-0.005,0.028,0.004,0.031,0.021c0.133,0.053,0.271,0.081,0.409,0.111c0.075,0.017,0.132,0.111,0.197,0.17
				c0.036-0.039,0.023-0.092,0.042-0.144C12.94,16.089,12.941,16.157,12.972,16.205z"/>
			<path fill-rule="evenodd" clip-rule="evenodd" fill="#E4E4E4" d="M14.193,15.538c-0.1,0.008-0.194-0.005-0.307-0.059
				c0.086-0.023,0.159-0.015,0.221-0.077c-0.083-0.005-0.163-0.013-0.136-0.133c-0.043,0.027-0.071,0.044-0.109,0.067
				c-0.02-0.172-0.125-0.295-0.214-0.432c0.139,0.104,0.281,0.196,0.449,0.235c0.012,0.045-0.047,0.044-0.044,0.089
				c0.076-0.01,0.107,0.045,0.129,0.107c0.05-0.025,0.057-0.075,0.085-0.122c0.063,0.081,0.032,0.161,0.032,0.237
				C14.307,15.555,14.294,15.565,14.193,15.538z"/>
			<path fill-rule="evenodd" clip-rule="evenodd" fill="#E4E4E4" d="M20.899,15.452c-0.007-0.076-0.017-0.152,0.014-0.234
				c0.055,0.03,0.047,0.097,0.104,0.118c0.021-0.061,0.052-0.117,0.159-0.102c-0.074-0.059-0.106-0.095-0.008-0.117
				c0.136-0.03,0.246-0.118,0.363-0.193c-0.074,0.132-0.179,0.246-0.19,0.412c-0.037-0.021-0.068-0.038-0.111-0.063
				c0.02,0.116-0.052,0.128-0.139,0.125c0.056,0.068,0.13,0.058,0.208,0.077c-0.095,0.067-0.193,0.067-0.292,0.063
				C20.905,15.565,20.894,15.555,20.899,15.452z"/>
			<path fill-rule="evenodd" clip-rule="evenodd" fill="#9A5927" d="M20.595,21.301c0.211,0.024,0.424,0.026,0.637,0.024
				c-0.079,0.047-0.169,0.007-0.273,0.036c0.181,0.138,0.352,0.268,0.522,0.397c0.032,0.024,0.066,0.048,0.098,0.075
				c0.027,0.023,0.085,0.035,0.041,0.091c-0.04,0.051-0.076,0.046-0.124,0.007c-0.093-0.075-0.189-0.144-0.284-0.215
				c-0.138-0.104-0.277-0.205-0.411-0.313C20.738,21.354,20.669,21.325,20.595,21.301z"/>
			<path fill-rule="evenodd" clip-rule="evenodd" fill="#9B5928" d="M13.967,21.326c0.212,0.003,0.425-0.002,0.636-0.024
				c-0.15,0.034-0.252,0.145-0.37,0.231c-0.176,0.127-0.349,0.259-0.52,0.393c-0.049,0.037-0.089,0.061-0.133,0
				c-0.046-0.065,0.021-0.075,0.051-0.098c0.197-0.152,0.396-0.302,0.604-0.459C14.142,21.325,14.046,21.376,13.967,21.326z"/>
			<path fill-rule="evenodd" clip-rule="evenodd" fill="#C49216" d="M15.652,16.438c0.067,0.042,0.138,0.044,0.212,0.017
				c0.203-0.076,0.361-0.206,0.468-0.394c0.04-0.071,0.054-0.146,0.018-0.224c0.053-0.023,0.093,0.005,0.132,0.035
				c0.026,0.03,0.066,0.028,0.098,0.043c0.036,0.017,0.085,0.036,0.048,0.094c-0.308,0.157-0.549,0.394-0.777,0.647
				C15.807,16.564,15.704,16.525,15.652,16.438z"/>
			<path fill-rule="evenodd" clip-rule="evenodd" fill="#C39018" d="M18.826,15.929c0.05,0.239,0.333,0.509,0.57,0.543
				c0.055,0.008,0.104-0.007,0.151-0.034c-0.063,0.078-0.126,0.155-0.188,0.233c-0.17-0.181-0.333-0.371-0.543-0.509
				c-0.081-0.053-0.159-0.113-0.255-0.144c-0.028-0.045,0.007-0.067,0.038-0.08C18.672,15.908,18.748,15.882,18.826,15.929z"/>
			<path fill-rule="evenodd" clip-rule="evenodd" fill="#146624" d="M16.118,12.966c0-0.076,0.027-0.137,0.083-0.196
				c0.04,0.061,0.003,0.116,0.031,0.183c0.04-0.094,0.086-0.17,0.178-0.198c0.024-0.007,0.053-0.036,0.075-0.001
				c0.015,0.023-0.001,0.047-0.017,0.067c-0.07,0.09-0.14,0.179-0.225,0.288c0.086-0.056,0.154-0.101,0.237-0.156
				c-0.007,0.108-0.099,0.134-0.137,0.197c-0.002,0.006-0.005,0.013-0.008,0.019c-0.065,0.054-0.131,0.103-0.22,0.043
				C16.083,13.129,16.036,13.047,16.118,12.966z"/>
			<path fill-rule="evenodd" clip-rule="evenodd" fill="#D32B1D" d="M17.355,21.673c-0.051,0.025,0.005,0.133-0.067,0.115
				c-0.06-0.014-0.031-0.1-0.032-0.154c-0.006-0.195-0.008-0.391,0.081-0.573c0.015-0.031,0.015-0.089,0.057-0.084
				c0.055,0.006,0.024,0.067,0.038,0.101C17.417,21.278,17.396,21.477,17.355,21.673z"/>
			<path fill-rule="evenodd" clip-rule="evenodd" fill="#276F21" d="M16.118,12.966c0.011,0.084,0.021,0.168,0.033,0.252
				c0.01,0.01,0.023,0.017,0.034,0.024c0.012,0.002,0.018-0.007,0.024-0.016c0.042-0.033,0.095-0.045,0.135-0.08l-0.001,0.003
				c0.041,0.013,0.07-0.041,0.117-0.015c-0.008,0.076-0.082,0.108-0.118,0.165c-0.072,0.12-0.202,0.152-0.288,0.073
				c-0.005-0.098-0.058-0.185-0.056-0.285c0.002-0.077,0.002-0.152,0.053-0.217C16.095,12.892,16.063,12.957,16.118,12.966z"/>
			<path fill-rule="evenodd" clip-rule="evenodd" fill="#7A3F11" d="M14.193,15.538c0.067,0.011,0.097-0.026,0.106-0.086
				c0.062,0.062,0.123,0.124,0.184,0.186c-0.061,0.047-0.04,0.116-0.033,0.171c0.035,0.292,0.028,0.584,0.021,0.876
				c-0.07,0.008-0.046-0.082-0.098-0.093c0.015-0.083-0.04-0.174,0.026-0.252c0.007,0.004,0.013,0.006,0.016,0.006
				c-0.003-0.005-0.009-0.007-0.017-0.007c0-0.134,0.001-0.269,0-0.403c-0.001-0.043,0.01-0.09-0.026-0.127
				C14.394,15.665,14.256,15.625,14.193,15.538z"/>
			<path fill-rule="evenodd" clip-rule="evenodd" fill="#7A4111" d="M20.899,15.452c0.01,0.061,0.04,0.096,0.107,0.086
				c-0.063,0.088-0.2,0.127-0.181,0.271c-0.056,0.125-0.013,0.256-0.022,0.383c-0.004,0.049-0.002,0.098-0.003,0.146
				c-0.008,0-0.014,0.002-0.018,0.008c0.004,0.001,0.01,0,0.018-0.005c0.065,0.077,0.011,0.167,0.026,0.249
				c-0.053,0.011-0.027,0.103-0.099,0.094c-0.005-0.292-0.015-0.584,0.021-0.875c0.007-0.056,0.028-0.124-0.033-0.171
				C20.777,15.575,20.838,15.513,20.899,15.452z"/>
			<path fill-rule="evenodd" clip-rule="evenodd" fill="#975D31" d="M19.577,15.562c0.007,0.002,0.02,0.002,0.022,0.007
				c0.049,0.093,0.129,0.133,0.229,0.144c-0.056,0-0.061,0.052-0.086,0.083c0-0.049-0.006-0.09-0.063-0.033
				c-0.092,0.093-0.18,0.189-0.246,0.322c-0.058-0.063-0.108-0.117-0.158-0.171C19.38,15.801,19.513,15.711,19.577,15.562z"/>
			<path fill-rule="evenodd" clip-rule="evenodd" fill="#A7A79A" d="M19.667,14.11c0.017-0.009,0.035-0.018,0.052-0.027
				c0.1-0.001,0.178,0.062,0.258,0.104c0.105,0.057,0.161,0.032,0.205-0.07c0.015-0.035,0.04-0.067,0.083-0.089
				c-0.025,0.053-0.047,0.108-0.076,0.16c-0.032,0.056-0.021,0.083,0.04,0.108c0.136,0.054,0.275,0.103,0.387,0.203
				c-0.192-0.055-0.376-0.131-0.555-0.217C19.93,14.22,19.802,14.156,19.667,14.11z"/>
			<path fill-rule="evenodd" clip-rule="evenodd" fill="#0E6A29" d="M15.825,13.916c-0.037,0.027-0.079,0.04-0.123,0.045
				c-0.044-0.093-0.133-0.167-0.126-0.283c0.002-0.027,0.005-0.053,0.01-0.095C15.707,13.679,15.731,13.823,15.825,13.916z"/>
			<path fill-rule="evenodd" clip-rule="evenodd" fill="#D79A0C" d="M22.235,17.926c-0.01-0.081-0.022-0.161-0.028-0.241
				c-0.002-0.03-0.019-0.073,0.018-0.087c0.034-0.012,0.049,0.034,0.077,0.049c0.014,0.038,0.029,0.075,0.043,0.113
				C22.39,17.886,22.376,17.906,22.235,17.926z"/>
			<path fill-rule="evenodd" clip-rule="evenodd" fill="#C98D0C" d="M20.728,16.684c0.019-0.026,0.023-0.057,0.028-0.088
				c0.015-0.076,0.043-0.044,0.07-0.006c-0.001,0.049-0.006,0.099,0,0.146c0.014,0.116-0.026,0.169-0.148,0.14
				c-0.008-0.022-0.015-0.045-0.023-0.068C20.73,16.795,20.709,16.729,20.728,16.684z"/>
			<path fill-rule="evenodd" clip-rule="evenodd" fill="#DEDEDE" d="M15.559,14.962c-0.073,0.084-0.102,0.015-0.133-0.041
				c-0.046-0.094-0.093-0.186-0.139-0.278c0.016-0.03,0.04-0.037,0.071-0.027c0.096,0.03,0.132,0.115,0.16,0.197
				C15.533,14.861,15.552,14.91,15.559,14.962z"/>
			<path fill-rule="evenodd" clip-rule="evenodd" fill="#787450" d="M15.176,14.182c-0.038,0.028-0.076,0.052-0.125,0.054
				c0.013-0.088-0.053-0.148-0.079-0.223c-0.016-0.048-0.059-0.086-0.052-0.175c0.063,0.107,0.109,0.19,0.157,0.272
				C15.1,14.149,15.116,14.195,15.176,14.182z"/>
			<path fill-rule="evenodd" clip-rule="evenodd" fill="#67592A" d="M17.875,14.307c-0.05,0.043-0.106,0.028-0.163,0.018
				c-0.146-0.024-0.291-0.04-0.434,0.018c0.027-0.067,0.087-0.058,0.142-0.063C17.573,14.262,17.723,14.299,17.875,14.307z"/>
			<path fill-rule="evenodd" clip-rule="evenodd" fill="#256728" d="M15.639,13.985c-0.037,0.015-0.075,0.03-0.111,0.045
				c0.003-0.05-0.042-0.097-0.009-0.15C15.585,13.885,15.604,13.945,15.639,13.985z"/>
			<path fill-rule="evenodd" clip-rule="evenodd" fill="#918C78" d="M16.873,13.889c-0.156-0.02-0.315,0.028-0.469-0.026
				C16.56,13.877,16.719,13.83,16.873,13.889z"/>
			<path fill-rule="evenodd" clip-rule="evenodd" fill="#A09652" d="M12.229,15.919c-0.02-0.005-0.039-0.009-0.05,0.014
				c-0.051-0.031-0.102-0.063-0.153-0.094C12.103,15.846,12.176,15.859,12.229,15.919z"/>
			<path fill-rule="evenodd" clip-rule="evenodd" fill="#A09652" d="M23.015,15.928c-0.015-0.007-0.031-0.014-0.047-0.021
				c0.064-0.031,0.128-0.063,0.192-0.094C23.122,15.866,23.08,15.913,23.015,15.928z"/>
			<path fill-rule="evenodd" clip-rule="evenodd" fill="#A7A79A" d="M19.719,14.083c-0.045-0.007-0.09-0.013-0.124-0.048
				c0.028-0.019,0.056-0.038,0.086-0.058C19.693,14.014,19.706,14.048,19.719,14.083z"/>
			<path fill-rule="evenodd" clip-rule="evenodd" fill="#9A946E" d="M18.869,13.913c-0.091,0.002-0.184,0.002-0.273-0.025
				C18.687,13.892,18.782,13.865,18.869,13.913z"/>
			<path fill-rule="evenodd" clip-rule="evenodd" fill="#E4A00E" d="M13.819,17.622c-0.067,0.051-0.11,0.038-0.107-0.049
				c0.002-0.105,0.016-0.21,0.024-0.316c0.002-0.022,0.012-0.041,0.036-0.042c0.027,0,0.031,0.022,0.032,0.042
				c0.002,0.053,0,0.107,0.027,0.156C13.822,17.482,13.846,17.553,13.819,17.622z"/>
			<path fill-rule="evenodd" clip-rule="evenodd" fill="#D5960D" d="M13.661,17.166c0.043-0.058,0.008-0.133,0.048-0.193
				c0.01,0.174,0.017,0.35-0.033,0.517c-0.025,0.083-0.079,0.021-0.114-0.014C13.606,17.376,13.654,17.278,13.661,17.166z"/>
			<path fill-rule="evenodd" clip-rule="evenodd" fill="#CE900C" d="M14.374,16.592c0.025-0.039,0.053-0.076,0.069,0.003
				c0.006,0.032,0.01,0.063,0.029,0.09c0.007,0.032,0.016,0.063,0.022,0.095c0.009,0.047,0.01,0.095-0.053,0.1
				c-0.057,0.005-0.064-0.038-0.065-0.082C14.375,16.729,14.375,16.661,14.374,16.592z"/>
			<path fill-rule="evenodd" clip-rule="evenodd" fill="#CE900C" d="M14.399,16.339c0.011-0.028,0.022-0.056,0.045-0.111
				c0,0.114,0.013,0.2-0.013,0.295c-0.06-0.063-0.011-0.127-0.031-0.182C14.4,16.34,14.399,16.339,14.399,16.339z"/>
			<path fill-rule="evenodd" clip-rule="evenodd" fill="#E5A10E" d="M21.396,17.196c0.032,0.009,0.065,0.018,0.069,0.059
				c0.009,0.113,0.019,0.227,0.024,0.34c0.002,0.051-0.013,0.092-0.08,0.068c-0.109-0.106-0.021-0.231-0.03-0.346
				C21.376,17.277,21.39,17.236,21.396,17.196z"/>
			<path fill-rule="evenodd" clip-rule="evenodd" fill="#E5A10E" d="M22.11,17.563c0.037,0.01,0.072,0.029,0.068,0.072
				c-0.013,0.133,0.046,0.261,0.023,0.394c-0.1,0.024-0.135-0.026-0.128-0.116C22.083,17.796,22.098,17.68,22.11,17.563z"/>
			<path fill-rule="evenodd" clip-rule="evenodd" fill="#E4A00E" d="M21.633,17.47c-0.013,0.041-0.043,0.062-0.083,0.054
				c-0.042-0.008-0.031-0.051-0.039-0.081c-0.02-0.071-0.029-0.142-0.01-0.223c0.069,0.022,0.055,0.095,0.091,0.132
				C21.606,17.392,21.619,17.431,21.633,17.47z"/>
			<path fill-rule="evenodd" clip-rule="evenodd" fill="#C98D0C" d="M20.8,16.341c-0.022,0.055,0.029,0.119-0.032,0.181
				c-0.025-0.095-0.013-0.18-0.013-0.294c0.022,0.055,0.034,0.082,0.045,0.109L20.8,16.341z"/>
			<path fill-rule="evenodd" clip-rule="evenodd" fill="#007834" d="M19.322,18.465c0.003,0.743-0.499,1.708-1.467,1.881
				c-0.483,0.086-0.915-0.05-1.28-0.367c-0.458-0.397-0.683-0.911-0.699-1.516c0.038-0.057,0.089-0.093,0.151-0.121
				c0.266-0.119,0.508-0.279,0.754-0.433c0.039-0.024,0.063-0.064,0.095-0.096c0.195-0.166,0.416-0.287,0.657-0.369
				c0.024-0.006,0.046-0.017,0.07-0.021c0.031-0.001,0.061-0.005,0.091-0.001c0.034,0.013,0.071,0.02,0.101,0.043
				c0.201,0.076,0.341,0.253,0.543,0.328c0.158,0.134,0.308,0.275,0.501,0.364C19.015,18.237,19.178,18.337,19.322,18.465z"/>
			<path fill-rule="evenodd" clip-rule="evenodd" fill="#E7A20E" d="M16.914,17.85c-0.307,0.269-0.659,0.464-1.038,0.613
				c-0.018-0.566,0.125-1.083,0.496-1.519c0.716-0.845,1.918-0.778,2.562,0.138c0.292,0.415,0.406,0.881,0.388,1.384
				c-0.09-0.011-0.168-0.046-0.241-0.103c-0.116-0.09-0.243-0.164-0.385-0.204c-0.071-0.02-0.098-0.082-0.146-0.123
				c-0.078-0.064-0.15-0.136-0.225-0.205c0.006-0.021,0.025-0.031,0.047-0.042c-0.062-0.024-0.126-0.033-0.18-0.068
				c-0.04-0.025-0.071-0.059-0.069-0.109c0.002-0.054,0.045-0.076,0.089-0.089c0.071-0.021,0.143-0.038,0.215-0.04
				c-0.07,0.008-0.138-0.01-0.203-0.033c-0.075-0.026-0.089-0.086-0.034-0.143c0.061-0.063,0.11-0.14,0.184-0.168
				c-0.053,0.026-0.105,0.084-0.182,0.095c-0.05,0.007-0.1,0.012-0.134-0.037c-0.03-0.042-0.02-0.087,0.002-0.128
				c0.025-0.047,0.053-0.093,0.09-0.136c-0.013,0.009-0.022,0.017-0.032,0.024c-0.055,0.042-0.11,0.103-0.185,0.07
				c-0.079-0.035-0.036-0.115-0.042-0.177c-0.003-0.031,0.002-0.063,0.003-0.088c-0.034,0.08-0.048,0.204-0.166,0.192
				c-0.134-0.013-0.092-0.159-0.13-0.233c-0.024,0.063-0.003,0.172-0.099,0.196c-0.093,0.023-0.132-0.081-0.191-0.132
				c-0.027-0.024-0.046-0.056-0.06-0.08c0.034,0.05,0.075,0.106,0.092,0.176c0.012,0.049,0.015,0.1-0.028,0.137
				c-0.044,0.038-0.092,0.021-0.137-0.003c-0.046-0.025-0.091-0.054-0.134-0.091c0.007,0.008,0.014,0.013,0.018,0.019
				c0.042,0.064,0.117,0.126,0.08,0.207c-0.04,0.085-0.133,0.029-0.202,0.041c-0.02,0.003-0.041,0-0.067-0.002
				c0.047,0.022,0.093,0.031,0.132,0.055c0.044,0.026,0.082,0.06,0.076,0.116c-0.007,0.058-0.054,0.081-0.103,0.093
				c-0.075,0.018-0.15,0.041-0.22,0.03c0.07-0.008,0.148,0.006,0.222,0.037c0.07,0.03,0.092,0.083,0.036,0.146
				c-0.06,0.067-0.12,0.135-0.198,0.174C16.845,17.825,16.882,17.81,16.914,17.85z"/>
			<path fill-rule="evenodd" clip-rule="evenodd" fill="#A0794A" d="M17.806,15.472c0.023-0.025,0.053-0.058,0.067,0
				c0.015,0.061,0.056,0.059,0.101,0.06c-0.026,0.101,0.024,0.149,0.111,0.189c0.044,0.02,0.134,0.018,0.105,0.113
				c-0.037,0.017-0.073,0.014-0.109-0.002c-0.033,0.06-0.057,0-0.083-0.009c-0.049-0.02-0.066-0.034-0.096,0.042
				c-0.044,0.114-0.074,0.224-0.083,0.343c-0.002,0.032-0.021,0.04-0.051,0.038c-0.036-0.002-0.056-0.022-0.044-0.056
				c0.039-0.112-0.028-0.25,0.087-0.347c0.031-0.026,0.002-0.06-0.04-0.063c-0.107-0.008-0.214,0.037-0.322,0
				c-0.03-0.01-0.048,0.026-0.06,0.052c-0.022,0.049-0.06,0.082-0.111,0.119c0-0.05,0-0.09,0-0.14
				c-0.042,0.016-0.075,0.027-0.107,0.04c-0.017-0.039,0.004-0.071,0.035-0.08c0.18-0.051,0.288-0.154,0.257-0.369
				c0.08,0.072,0.079,0.072,0.04,0.194c-0.011,0.033-0.062,0.101,0.042,0.067C17.674,15.658,17.761,15.594,17.806,15.472z"/>
			<path fill-rule="evenodd" clip-rule="evenodd" fill="#046E2F" d="M18.08,15.832c0.035-0.01,0.075,0.01,0.107-0.018
				c0.01-0.032,0.02-0.064,0.052-0.082c0.013-0.005,0.025-0.008,0.039-0.009c0.186,0.009,0.366,0.035,0.529,0.135
				c0.018,0.011,0.031,0.025,0.023,0.049c-0.001,0.007-0.002,0.014-0.004,0.021c-0.086,0.034-0.189,0.021-0.265,0.089
				C18.408,15.938,18.244,15.886,18.08,15.832z"/>
			<path fill-rule="evenodd" clip-rule="evenodd" fill="#BF911A" d="M16.071,17.137c-0.008,0.068-0.052,0.13-0.09,0.192
				c-0.025,0.039-0.053,0.005-0.072-0.009c-0.081-0.063-0.211-0.064-0.25-0.169c-0.013-0.037,0.048-0.11,0.089-0.153
				c0.049-0.052,0.102-0.038,0.14,0.026c0.018,0.03,0.043,0.001,0.065,0C16.033,17.019,16.072,17.055,16.071,17.137z"/>
			<path fill-rule="evenodd" clip-rule="evenodd" fill="#BB901C" d="M16.597,16.495c-0.002,0.104-0.104,0.199-0.211,0.199
				c-0.105,0-0.19-0.091-0.188-0.201c0.002-0.106,0.103-0.201,0.208-0.2C16.508,16.294,16.6,16.392,16.597,16.495z"/>
			<path fill-rule="evenodd" clip-rule="evenodd" fill="#D19914" d="M16.238,20.067c-0.102-0.089-0.178-0.099-0.274,0.002
				c0.045-0.119,0.042-0.196-0.056-0.253c0.095-0.003,0.175-0.015,0.177-0.139c0.046,0.084,0.088,0.156,0.2,0.136
				C16.199,19.874,16.177,19.946,16.238,20.067z"/>
			<path fill-rule="evenodd" clip-rule="evenodd" fill="#D29913" d="M15.648,19.48c0.041-0.107,0.013-0.178-0.072-0.236
				c0.112,0.013,0.165-0.04,0.183-0.16c0.044,0.099,0.067,0.196,0.21,0.139c-0.109,0.123-0.109,0.123-0.079,0.246
				C15.808,19.434,15.728,19.367,15.648,19.48z"/>
			<path fill-rule="evenodd" clip-rule="evenodd" fill="#D19915" d="M18.917,19.813c0.107,0.014,0.156-0.035,0.176-0.154
				c0.042,0.104,0.085,0.172,0.196,0.154c-0.089,0.061-0.107,0.134-0.049,0.253c-0.101-0.089-0.177-0.097-0.274,0.003
				C19.015,19.95,19.009,19.874,18.917,19.813z"/>
			<path fill-rule="evenodd" clip-rule="evenodd" fill="#D59A13" d="M19.243,19.245c0.106,0.006,0.175-0.027,0.184-0.146
				c0.034,0.099,0.081,0.165,0.197,0.145c-0.086,0.059-0.113,0.129-0.072,0.227c-0.082-0.068-0.156-0.066-0.238,0
				C19.355,19.374,19.33,19.303,19.243,19.245z"/>
			<path fill-rule="evenodd" clip-rule="evenodd" fill="#086329" d="M16.629,16.009c-0.027-0.081-0.14-0.024-0.168-0.104
				c-0.007-0.042,0.013-0.073,0.048-0.089c0.059-0.027,0.114-0.055,0.167-0.095c0.058-0.045,0.114-0.014,0.16,0.035
				c0.055,0.044-0.026,0.111,0.026,0.155C16.787,15.951,16.712,15.988,16.629,16.009z"/>
			<path fill-rule="evenodd" clip-rule="evenodd" fill="#D49A14" d="M15.511,18.797c0.049-0.108,0.005-0.17-0.095-0.236
				c0.123,0.015,0.186-0.02,0.208-0.154c0.038,0.117,0.08,0.182,0.215,0.143c-0.091,0.081-0.144,0.143-0.064,0.265
				C15.669,18.749,15.594,18.694,15.511,18.797z"/>
			<path fill-rule="evenodd" clip-rule="evenodd" fill="#D39A14" d="M19.571,18.43c0.027,0.108,0.083,0.147,0.203,0.125
				c-0.084,0.075-0.136,0.137-0.083,0.235c-0.084-0.06-0.16-0.066-0.239,0.005c0.037-0.096,0.018-0.169-0.102-0.235
				C19.482,18.575,19.551,18.542,19.571,18.43z"/>
			<path fill-rule="evenodd" clip-rule="evenodd" fill="#D59A13" d="M17.943,20.458c0.028,0.1,0.087,0.141,0.209,0.121
				c-0.087,0.069-0.146,0.126-0.061,0.25c-0.107-0.062-0.183-0.098-0.275,0.017c0.037-0.122,0.036-0.201-0.096-0.26
				C17.85,20.59,17.922,20.566,17.943,20.458z"/>
			<path fill-rule="evenodd" clip-rule="evenodd" fill="#D49A14" d="M17.253,20.456c0.034,0.09,0.079,0.151,0.214,0.115
				c-0.096,0.078-0.143,0.142-0.093,0.24c-0.082-0.063-0.157-0.063-0.26,0.028c0.059-0.122,0.044-0.192-0.08-0.25
				C17.161,20.589,17.23,20.56,17.253,20.456z"/>
			<path fill-rule="evenodd" clip-rule="evenodd" fill="#D49A14" d="M18.579,20.158c0.042,0.102,0.066,0.191,0.192,0.148
				c-0.071,0.07-0.118,0.134-0.067,0.231c-0.083-0.052-0.157-0.083-0.238,0.009c0.036-0.1,0.026-0.172-0.069-0.224
				C18.495,20.321,18.558,20.281,18.579,20.158z"/>
			<path fill-rule="evenodd" clip-rule="evenodd" fill="#D49A14" d="M16.431,20.317c0.104,0.009,0.156-0.035,0.177-0.15
				c0.048,0.088,0.071,0.182,0.193,0.138c-0.067,0.072-0.116,0.136-0.064,0.232c-0.082-0.051-0.157-0.084-0.239,0.008
				C16.537,20.443,16.519,20.374,16.431,20.317z"/>
			<path fill-rule="evenodd" clip-rule="evenodd" fill="#B98E1C" d="M18.462,16.313c0.072-0.029,0.112-0.083,0.163-0.123
				c0.019-0.015,0.039-0.037,0.063-0.015c0.031,0.03-0.006,0.042-0.022,0.054c-0.077,0.061-0.155,0.12-0.232,0.18
				c-0.02,0.015-0.042,0.035-0.064,0.014c-0.011-0.011-0.013-0.037-0.011-0.056c0.008-0.09,0.016-0.18,0.028-0.269
				c0.003-0.025-0.018-0.077,0.042-0.064c0.042,0.009,0.059,0.039,0.049,0.083C18.466,16.179,18.45,16.239,18.462,16.313z"/>
			<path fill-rule="evenodd" clip-rule="evenodd" fill="#D59A12" d="M19.163,17.178c0.12,0,0.24-0.005,0.36,0.002
				c0.067,0.003,0.056,0.045,0.021,0.083c-0.064,0.069-0.127,0.14-0.192,0.208c-0.014,0.015-0.027,0.049-0.056,0.023
				c-0.017-0.015-0.029-0.039-0.021-0.066c0.057-0.179,0.057-0.179-0.111-0.217C19.164,17.2,19.163,17.189,19.163,17.178z"/>
			<path fill-rule="evenodd" clip-rule="evenodd" fill="#BC921D" d="M17.296,16.234c-0.003,0.026-0.025,0.03-0.044,0.036
				c-0.047,0.014-0.095,0.024-0.142,0.041c-0.039,0.013-0.061,0.005-0.071-0.037c-0.022-0.087-0.046-0.174-0.071-0.26
				c-0.01-0.034-0.005-0.054,0.032-0.064c0.039-0.01,0.051,0.009,0.058,0.042c0.006,0.032,0.016,0.064,0.025,0.095
				c0.025,0.084,0.023,0.205,0.17,0.123C17.273,16.197,17.292,16.21,17.296,16.234z"/>
			<path fill-rule="evenodd" clip-rule="evenodd" fill="#CE9614" d="M18.919,16.841c-0.032,0-0.043-0.018-0.056-0.033
				c-0.012-0.015-0.012-0.029,0.003-0.042c0.075-0.069,0.151-0.137,0.226-0.207c0.014-0.012,0.027-0.019,0.041-0.004
				c0.014,0.015,0.036,0.044,0.034,0.046C19.084,16.684,19,16.764,18.919,16.841z"/>
			<path fill-rule="evenodd" clip-rule="evenodd" fill="#18581E" d="M18.241,15.762c-0.006,0.029-0.027,0.043-0.054,0.052
				c-0.065-0.028-0.131-0.054-0.194-0.086c-0.145-0.074-0.145-0.087-0.021-0.196c0.006-0.002,0.012-0.006,0.016-0.01
				c0.027-0.067,0.074-0.119,0.141-0.143c0.061-0.022,0.111-0.015,0.074,0.073c-0.011,0.045-0.044,0.081-0.051,0.127
				c0.004-0.037,0.027-0.066,0.041-0.1c0.054-0.158,0.158-0.258,0.324-0.296c0.079-0.018,0.095-0.124,0.181-0.134
				c0.017-0.002,0.033-0.005,0.051-0.007c0.053,0.097,0.093,0.194,0.011,0.28c0.062-0.05,0.07-0.121,0.024-0.203
				c-0.014-0.025-0.022-0.053-0.008-0.083c-0.012-0.035-0.034-0.083,0.021-0.087c0.107-0.01,0.071-0.068,0.044-0.125
				c0.057-0.01,0.081,0.029,0.115,0.048c0.028,0.049,0.074,0.09,0.066,0.153c0.008-0.064-0.037-0.105-0.067-0.152
				c0.024-0.037,0.096-0.019,0.094-0.094c-0.001-0.04,0.037-0.014,0.05,0.001c0.064,0.075,0.142,0.059,0.221,0.037
				c0.004,0.004,0.009,0.007,0.014,0.011c0.025,0.056,0.001,0.09-0.05,0.113c-0.009,0.02-0.07-0.029-0.047,0.035
				c0.044-0.001,0.076-0.028,0.11-0.05c0.047-0.028,0.11-0.059,0.142-0.006c0.04,0.065-0.032,0.095-0.077,0.126
				c-0.074,0.052-0.167,0.063-0.24,0.116c-0.053,0.019-0.125,0.014-0.125,0.1c-0.005,0.01-0.011,0.018-0.02,0.025
				c-0.012,0.018-0.045,0-0.049,0.029c0.043,0.001,0.08-0.019,0.119-0.028c0.03-0.007,0.06-0.003,0.075,0.024
				c0.02,0.037-0.01,0.059-0.034,0.081c-0.054,0.05-0.133,0.028-0.191,0.066c-0.078,0.025-0.185-0.039-0.231,0.078
				c0.096,0.03,0.187,0.005,0.276-0.021c0.049-0.015,0.111-0.034,0.129,0.022c0.021,0.067-0.05,0.078-0.099,0.095
				c-0.13,0.045-0.266,0.035-0.373,0.052c0.096,0.007,0.218-0.026,0.339,0.005c0.04,0.038,0.038,0.068-0.017,0.088
				c-0.023,0.007-0.053,0.008-0.066,0.023c-0.012,0.014-0.124-0.005-0.027,0.059c0.008,0.005,0.004,0.01-0.049,0.046
				c-0.181-0.085-0.368-0.141-0.569-0.15c-0.005-0.011,0-0.022-0.001-0.033C18.246,15.732,18.236,15.743,18.241,15.762z"/>
			<path fill-rule="evenodd" clip-rule="evenodd" fill="#F8DA02" d="M19.577,15.562c0.035,0.026,0.047,0.061,0.018,0.093
				c-0.082,0.09-0.166,0.178-0.251,0.265c-0.019,0.019-0.046,0.005-0.068-0.006c-0.033-0.05,0.012-0.083,0.027-0.121
				c0.056-0.133,0.052-0.143-0.101-0.161c-0.011-0.001-0.021-0.01-0.032-0.015c0.018-0.118,0.027-0.235,0.123-0.329
				c0.104-0.101,0.157-0.244,0.263-0.348c0.049-0.047,0.013-0.107,0.001-0.161c0.003-0.026,0.017-0.044,0.043-0.052
				c0.042-0.014,0.089,0.005,0.124-0.055c0.019-0.034,0.093-0.016,0.117,0.045c-0.087,0.153-0.176,0.305-0.261,0.458
				c-0.021,0.039-0.052,0.061-0.088,0.081c-0.06,0.032-0.106,0.078-0.134,0.139c-0.022,0.048-0.032,0.091,0.047,0.104
				C19.464,15.51,19.52,15.541,19.577,15.562z"/>
			<path fill-rule="evenodd" clip-rule="evenodd" fill="#E5E5E6" d="M17.262,14.551c0.016-0.121,0.216-0.213,0.339-0.158
				c0.176,0.081,0.242,0.256,0.162,0.439c-0.035,0.08-0.123,0.107-0.195,0.059c-0.018-0.012-0.028-0.018-0.052-0.01
				c-0.162,0.056-0.163,0.054-0.23-0.116c0.046-0.063,0.126-0.047,0.185-0.081c0.035-0.02,0.083-0.036,0.069-0.086
				c-0.013-0.049-0.058-0.025-0.093-0.026C17.385,14.572,17.317,14.61,17.262,14.551z"/>
			<path fill-rule="evenodd" clip-rule="evenodd" fill="#D49B5E" d="M17.262,14.551c0.076-0.016,0.151-0.034,0.227-0.046
				c0.052-0.008,0.101,0.006,0.124,0.058c0.028,0.059-0.004,0.105-0.049,0.137c-0.083,0.057-0.176,0.083-0.278,0.067
				c-0.125-0.002-0.251-0.008-0.376-0.004c-0.035,0.001-0.061-0.006-0.092-0.02c0.004-0.054,0.067-0.054,0.084-0.094
				c0.033-0.11,0.063-0.126,0.184-0.1C17.144,14.53,17.202,14.591,17.262,14.551z"/>
			<path fill-rule="evenodd" clip-rule="evenodd" fill="#FCDD00" d="M18.699,15.049c-0.057,0.068-0.133,0.202-0.166,0.192
				c-0.124-0.036-0.135,0.086-0.208,0.113c-0.054,0.02-0.096,0.074-0.118,0.133c-0.016,0-0.021-0.008-0.019-0.024
				c-0.008-0.018,0.042-0.086-0.036-0.042c-0.056,0.031-0.109,0.066-0.163,0.1c-0.03-0.062,0.018-0.104,0.042-0.15
				c0.028-0.054,0.059-0.107,0.066-0.18c0.096,0.081,0.149,0.063,0.146-0.061c0.062,0.01,0.121,0.144,0.167-0.009
				c0.013-0.043,0.039-0.001,0.056,0.004c0.049,0.016,0.088,0.04,0.103-0.045C18.584,14.998,18.657,15.068,18.699,15.049z"/>
			<path fill-rule="evenodd" clip-rule="evenodd" fill="#F7D900" d="M16.664,15.19c-0.04-0.008-0.026-0.051-0.046-0.071
				c0.035-0.009,0.07-0.017,0.105-0.026c0.018-0.004,0.045-0.031,0.05-0.004c0.033,0.167,0.095,0.033,0.156,0.014
				c0.018,0.061,0.01,0.173,0.129,0.091c0.028-0.019,0.022,0.02,0.03,0.034c0.036,0.063,0.022,0.141-0.029,0.158
				c-0.07,0.024-0.07,0.048-0.035,0.114c-0.051-0.065-0.091-0.115-0.159-0.129c-0.065-0.019-0.093-0.076-0.128-0.125
				C16.718,15.217,16.7,15.193,16.664,15.19z"/>
			<path fill-rule="evenodd" clip-rule="evenodd" fill="#FCDD00" d="M17.806,15.472c0.003,0.071,0.03,0.161-0.05,0.195
				c-0.061,0.025-0.143,0.092-0.211,0c0.051-0.082,0.112-0.156,0.183-0.222C17.774,15.401,17.794,15.421,17.806,15.472z"/>
			<path fill-rule="evenodd" clip-rule="evenodd" fill="#E5CD0D" d="M15.559,14.962c-0.067-0.116-0.134-0.231-0.201-0.346
				c0.061-0.037,0.123-0.076,0.145,0.038c0.048,0.102,0.143,0.16,0.224,0.231c-0.019,0.016-0.034,0.009-0.049,0.003
				c-0.037-0.013-0.08-0.051-0.112-0.017c-0.031,0.033,0.018,0.063,0.035,0.092c0.011,0.021,0.006,0.031-0.017,0.023
				C15.573,14.984,15.566,14.971,15.559,14.962z"/>
			<path fill-rule="evenodd" clip-rule="evenodd" fill="#086B2B" d="M16.664,15.19c0.133-0.015,0.172,0.078,0.202,0.18
				c0.007,0.072,0.001,0.135-0.09,0.144c-0.1-0.049-0.115-0.089-0.086-0.225C16.681,15.256,16.672,15.223,16.664,15.19z"/>
			<path fill-rule="evenodd" clip-rule="evenodd" fill="#F3D601" d="M16.835,15.756c-0.054,0.015-0.134-0.063-0.143-0.021
				c-0.03,0.136-0.174,0.089-0.231,0.169c-0.049-0.001-0.069-0.052-0.11-0.067c-0.014-0.013-0.027-0.026-0.041-0.039
				c0.13-0.027,0.26-0.05,0.378-0.117c0.047-0.026,0.091-0.025,0.124,0.023c0.01,0.001,0.019,0.002,0.028,0.004
				C16.838,15.725,16.836,15.741,16.835,15.756z"/>
			<path fill-rule="evenodd" clip-rule="evenodd" fill="#F0D401" d="M18.777,15.037c0.012,0.025,0.021,0.053,0.038,0.076
				c0.1,0.136,0.101,0.136-0.03,0.245c-0.041,0.034-0.085,0.063-0.128,0.094c-0.009,0.006-0.021,0.007-0.063,0.02
				c0.14-0.131,0.202-0.263,0.158-0.429C18.758,15.041,18.768,15.039,18.777,15.037z"/>
			<path fill-rule="evenodd" clip-rule="evenodd" fill="#186423" d="M16.394,14.923c0.018-0.008,0.038-0.026,0.056-0.008
				c0.069,0.074,0.003,0.25-0.103,0.275c-0.061-0.047-0.011-0.096,0-0.144C16.355,15.003,16.375,14.963,16.394,14.923z"/>
			<path fill-rule="evenodd" clip-rule="evenodd" fill="#F7D900" d="M16.689,15.289c0.029,0.075,0.057,0.15,0.086,0.225
				c0.009,0.022,0.018,0.045,0.027,0.067c-0.026-0.011-0.054-0.02-0.08-0.032C16.607,15.493,16.595,15.398,16.689,15.289z"/>
			<path fill-rule="evenodd" clip-rule="evenodd" fill="#B52729" d="M17.084,14.549c-0.061,0.034-0.138,0.037-0.184,0.1
				c-0.122-0.017-0.027-0.08-0.015-0.105C16.93,14.452,17.026,14.458,17.084,14.549z"/>
			<path fill-rule="evenodd" clip-rule="evenodd" fill="#F3D601" d="M16.293,14.871c-0.029,0.079-0.058,0.158-0.09,0.245
				c-0.083-0.069-0.121-0.131-0.013-0.209c0.035-0.025,0.057-0.069,0.084-0.104C16.316,14.815,16.289,14.847,16.293,14.871z"/>
			<path fill-rule="evenodd" clip-rule="evenodd" fill="#F1D501" d="M16.394,14.923c-0.016,0.089-0.032,0.178-0.047,0.267
				c-0.002,0.018-0.004,0.036-0.006,0.054c-0.089-0.017-0.124-0.057-0.063-0.142c0.04-0.055,0.077-0.112,0.096-0.179
				C16.38,14.923,16.387,14.923,16.394,14.923z"/>
			<path fill-rule="evenodd" clip-rule="evenodd" fill="#18581E" d="M19.6,14.728c-0.01,0.015-0.021,0.03-0.03,0.045
				c-0.048-0.003-0.082,0.031-0.121,0.047c-0.04,0.017-0.08,0.045-0.122,0.005l-0.006-0.007C19.357,14.71,19.46,14.676,19.6,14.728z
				"/>
			<path fill-rule="evenodd" clip-rule="evenodd" fill="#D5C751" d="M15.781,14.77c-0.055-0.047-0.133-0.057-0.18-0.116
				c0.084-0.027,0.15,0.027,0.221,0.055C15.852,14.721,15.85,14.726,15.781,14.77z"/>
			<path fill-rule="evenodd" clip-rule="evenodd" fill="#A39B05" d="M16.147,14.796c-0.02,0.046-0.039,0.093-0.059,0.14
				c-0.068-0.034-0.018-0.078-0.018-0.116C16.093,14.801,16.113,14.776,16.147,14.796z"/>
			<path fill-rule="evenodd" clip-rule="evenodd" fill="#93562D" d="M15.909,15.928c-0.035,0.042-0.071,0.084-0.108,0.128
				c-0.057-0.072-0.101-0.127-0.15-0.189c-0.02,0.042-0.032,0.068-0.044,0.096c-0.017-0.125,0.01-0.234,0.119-0.32
				c-0.008,0.078,0.022,0.132,0.086,0.167C15.862,15.833,15.906,15.863,15.909,15.928z"/>
			<path fill-rule="evenodd" clip-rule="evenodd" fill="#F4D703" d="M15.715,15.25c0.114,0.011,0.19,0.114,0.317,0.092
				c-0.003,0.013-0.006,0.027-0.01,0.041c-0.064,0.011-0.128,0.022-0.192,0.034c-0.035-0.013-0.024-0.057-0.05-0.076
				c-0.047-0.004-0.076-0.025-0.068-0.078C15.713,15.258,15.714,15.253,15.715,15.25z"/>
			<path fill-rule="evenodd" clip-rule="evenodd" fill="#E1C70C" d="M15.909,15.928c-0.062-0.015-0.081-0.066-0.098-0.118
				c0.033-0.003,0.06-0.036,0.096-0.02C15.923,15.836,15.993,15.88,15.909,15.928z"/>
			<path fill-rule="evenodd" clip-rule="evenodd" fill="#E1E1E1" d="M15.711,15.262c0.023,0.026,0.045,0.052,0.068,0.078
				c-0.003,0.02,0.01,0.057-0.033,0.038c-0.04-0.018-0.096-0.03-0.106-0.072C15.631,15.267,15.684,15.271,15.711,15.262z"/>
			<path fill-rule="evenodd" clip-rule="evenodd" fill="#F1D400" d="M15.783,15.128c0.064-0.014,0.111,0.019,0.188,0.06
				c-0.091,0.009-0.148,0.014-0.186-0.049L15.783,15.128z"/>
			<path fill-rule="evenodd" clip-rule="evenodd" fill="#FADC00" d="M16.66,15.581c-0.121,0.016-0.221,0.028-0.321,0.042
				c-0.02,0.002-0.042,0.007-0.045-0.022c-0.001-0.01,0.003-0.024,0.01-0.031C16.334,15.541,16.594,15.542,16.66,15.581z"/>
			<path fill-rule="evenodd" clip-rule="evenodd" fill="#C1B028" d="M16.224,15.78c-0.039,0.011-0.079,0.021-0.116,0.036
				c-0.026,0.009-0.046,0.016-0.059-0.017c-0.014-0.033-0.042-0.068,0.019-0.084C16.124,15.728,16.176,15.749,16.224,15.78z"/>
			<path fill-rule="evenodd" clip-rule="evenodd" fill="#422A23" d="M16.812,15.706c-0.044,0.009-0.088,0.014-0.124-0.023
				c0.003-0.039,0.012-0.077,0.061-0.067C16.795,15.624,16.833,15.646,16.812,15.706z"/>
			<path fill-rule="evenodd" clip-rule="evenodd" fill="#E5CD0D" d="M15.975,14.999c0.074-0.02,0.1,0.019,0.127,0.08
				C16.044,15.069,16.006,15.049,15.975,14.999z"/>
			<path fill-rule="evenodd" clip-rule="evenodd" fill="#DCC501" d="M16.496,15.343c0.097-0.01,0.018,0.073,0.06,0.093
				C16.485,15.431,16.484,15.39,16.496,15.343L16.496,15.343z"/>
			<path fill-rule="evenodd" clip-rule="evenodd" fill="#F6D900" d="M16.097,15.201c0.07-0.036,0.108-0.002,0.149,0.067
				C16.187,15.245,16.129,15.26,16.097,15.201z"/>
			<path fill-rule="evenodd" clip-rule="evenodd" fill="#8D6B11" d="M19.391,13.979c-0.06-0.012-0.12-0.023-0.18-0.034
				c-0.005-0.026-0.01-0.053-0.015-0.079c0.023-0.032,0.046-0.063,0.083-0.082c0.041,0.048,0.041,0.008,0.045-0.021l-0.002,0.001
				c0.052-0.004,0.103-0.009,0.159-0.013C19.45,13.829,19.421,13.904,19.391,13.979z"/>
			<path fill-rule="evenodd" clip-rule="evenodd" fill="#F3D700" d="M19.279,13.784c0.003,0.059-0.005,0.105-0.083,0.082
				c-0.025-0.054-0.049-0.107-0.082-0.178C19.192,13.706,19.257,13.705,19.279,13.784z"/>
			<path fill-rule="evenodd" clip-rule="evenodd" fill="#999A08" d="M19.324,13.763c-0.084-0.07-0.058-0.153-0.018-0.238
				c0.005,0.08,0.011,0.16,0.016,0.24L19.324,13.763z"/>
			<path fill-rule="evenodd" clip-rule="evenodd" fill="#046E2F" d="M19.326,14.826c0.045-0.026,0.091-0.053,0.137-0.078
				c0.043-0.024,0.085-0.039,0.106,0.025c0.087,0.03,0.104,0.158,0.009,0.234c-0.14,0.111-0.167,0.308-0.328,0.397
				c-0.007,0.004-0.012,0.011-0.018,0.017c0.045,0.022,0.064,0.046,0.019,0.093c-0.03,0.031-0.073,0.055-0.083,0.103
				c-0.045,0.007-0.082,0.03-0.113,0.063c-0.016,0.037-0.054,0.015-0.079,0.029c-0.16,0.047-0.322,0.029-0.483,0.006
				c-0.025-0.003-0.067-0.003-0.061-0.043c0.004-0.033,0.042-0.035,0.07-0.036c0.167-0.002,0.334-0.02,0.5-0.046
				c0.032-0.005,0.066-0.005,0.097-0.043c-0.152,0.007-0.296,0.084-0.441,0.011c0.029-0.087,0.109-0.078,0.176-0.094
				c0.033-0.008,0.075,0.018,0.096-0.029c0.052-0.073,0.154-0.041,0.218-0.105c-0.078-0.02-0.145,0.067-0.217,0.014
				c-0.009-0.078,0.069-0.047,0.098-0.079l-0.001,0.001c0.01-0.073,0.111-0.059,0.125-0.129c0.088-0.093,0.223-0.11,0.332-0.201
				c-0.107,0-0.165,0.105-0.262,0.074c-0.014-0.055,0.005-0.085,0.063-0.09C19.32,14.898,19.303,14.853,19.326,14.826z"/>
			<path fill-rule="evenodd" clip-rule="evenodd" fill="#D9C215" d="M18.978,15.709c0.015-0.041,0.051-0.023,0.079-0.029
				c0.026,0.011,0.052,0.021,0.079,0.031c0.038,0.014,0.05,0.035,0.031,0.074c-0.018,0.036-0.038,0.045-0.077,0.028
				c-0.036-0.017-0.077-0.024-0.116-0.035C18.989,15.757,19.03,15.736,18.978,15.709z"/>
			<path fill-rule="evenodd" clip-rule="evenodd" fill="#DFC902" d="M16.159,13.664c-0.075,0.046-0.149,0.093-0.233,0.146
				C15.93,13.629,16.075,13.687,16.159,13.664z"/>
			<path fill-rule="evenodd" clip-rule="evenodd" fill="#E6A10E" d="M13.115,17.754c0,0.061,0,0.123-0.002,0.184
				c-0.001,0.041-0.024,0.075-0.065,0.076c-0.05,0.001-0.052-0.043-0.051-0.08c0-0.098,0.038-0.192,0.025-0.291
				c-0.003-0.024,0.01-0.052,0.039-0.05c0.035,0.003,0.024,0.037,0.027,0.059C13.093,17.687,13.083,17.726,13.115,17.754
				L13.115,17.754z"/>
			<path fill-rule="evenodd" clip-rule="evenodd" fill="#D5960D" d="M13.697,16.931c0.006-0.076,0.014-0.152,0.02-0.228
				C13.73,16.781,13.74,16.858,13.697,16.931z"/>
			<path fill-rule="evenodd" clip-rule="evenodd" fill="#FDDE00" d="M16.345,13.146c-0.021,0.06-0.092,0.056-0.124,0.1
				c-0.01,0.021-0.021,0.04-0.05,0.028c-0.032-0.009-0.017-0.036-0.021-0.056C16.216,13.194,16.28,13.17,16.345,13.146z"/>
			<path fill-rule="evenodd" clip-rule="evenodd" fill="#26651E" d="M16.171,13.273c0.017-0.009,0.033-0.018,0.05-0.028
				c0.017,0.017,0.034,0.033,0.052,0.049C16.242,13.267,16.175,13.407,16.171,13.273z"/>
			<path fill-rule="evenodd" clip-rule="evenodd" fill="#D32B1E" d="M16.914,17.85c-0.071,0.014-0.14,0.049-0.234,0.018
				c0.153-0.054,0.215-0.193,0.344-0.276c-0.138-0.061-0.278-0.057-0.408-0.119c0.105-0.021,0.211-0.042,0.316-0.065
				c0.042-0.009,0.107-0.004,0.109-0.057c0.002-0.048-0.06-0.062-0.101-0.077c-0.089-0.033-0.188-0.047-0.263-0.159
				c0.16,0.046,0.298,0.005,0.457,0.043c-0.084-0.127-0.155-0.234-0.225-0.341c0.007-0.007,0.013-0.015,0.021-0.022
				c0.086,0.056,0.172,0.114,0.259,0.167c0.032,0.019,0.065,0.071,0.104,0.03c0.029-0.031,0.01-0.077-0.008-0.116
				c-0.034-0.078-0.09-0.148-0.083-0.24c0.002-0.019-0.006-0.04,0.022-0.062c0.042,0.145,0.182,0.205,0.265,0.333
				c0.063-0.131,0.052-0.27,0.107-0.409c0.049,0.115,0.055,0.223,0.08,0.326c0.009,0.037,0.004,0.097,0.05,0.102
				c0.052,0.005,0.067-0.053,0.083-0.093c0.035-0.089,0.045-0.191,0.164-0.27c-0.056,0.159-0.011,0.296-0.048,0.457
				c0.125-0.083,0.231-0.153,0.338-0.223c0.008,0.006,0.018,0.012,0.026,0.018c-0.055,0.084-0.113,0.167-0.165,0.253
				c-0.02,0.035-0.078,0.071-0.036,0.114c0.033,0.034,0.086,0.007,0.126-0.013c0.091-0.044,0.177-0.105,0.317-0.067
				c-0.167,0.05-0.229,0.192-0.369,0.284c0.154,0.032,0.286,0.059,0.417,0.086c0,0.007,0,0.015,0,0.022
				c-0.117,0.026-0.233,0.05-0.349,0.078c-0.029,0.007-0.076,0-0.078,0.044c0,0.035,0.036,0.052,0.066,0.066
				c0.084,0.041,0.185,0.046,0.255,0.116c0.017,0.016,0.04,0.03,0.037,0.068c-0.063-0.016-0.121-0.056-0.188-0.035
				c-0.215-0.055-0.351-0.243-0.548-0.326c-0.021-0.068,0.063-0.061,0.082-0.116c-0.083-0.041-0.101,0.084-0.167,0.067
				c-0.03,0-0.06,0-0.089,0c-0.04,0.019-0.041-0.015-0.038-0.035c0.012-0.11-0.054-0.15-0.139-0.168
				c0.143,0.049,0.157,0.075,0.12,0.226C17.315,17.57,17.109,17.7,16.914,17.85z"/>
			<path fill-rule="evenodd" clip-rule="evenodd" fill="#2C8E56" d="M18.635,18.837c0.146,0.104,0.19,0.174,0.192,0.312
				c-0.109-0.064-0.214-0.126-0.331-0.195c0.042,0.125,0.109,0.237,0.03,0.367c-0.068-0.091-0.133-0.176-0.165-0.281
				c-0.001-0.026-0.011-0.053-0.039-0.054c-0.036-0.002-0.032,0.031-0.033,0.053c-0.002,0.132,0.001,0.263-0.002,0.394
				c-0.001,0.035,0.023,0.088-0.043,0.096c0-0.167,0-0.333,0-0.521c-0.117,0.068-0.173,0.155-0.248,0.223
				c-0.016,0.014-0.026,0.049-0.057,0.032c-0.026-0.014-0.019-0.042-0.016-0.066c0.017-0.106,0.058-0.202,0.145-0.292
				c-0.148-0.005-0.275,0.02-0.428,0.043c0.11-0.157,0.258-0.206,0.42-0.251c-0.066-0.111-0.163-0.181-0.254-0.274
				c0.186-0.039,0.313,0.056,0.439,0.176c0.078-0.159,0.197-0.256,0.4-0.275c-0.063,0.056-0.072,0.129-0.146,0.144
				c-0.032,0.027-0.047,0.065-0.066,0.1c-0.04,0.074-0.022,0.108,0.058,0.104c0.041-0.002,0.09-0.019,0.1,0.035
				c0.01,0.056-0.051,0.049-0.081,0.069C18.55,18.796,18.575,18.853,18.635,18.837z"/>
			<path fill-rule="evenodd" clip-rule="evenodd" fill="#E5E5E5" d="M17.425,20.026c-0.078-0.103-0.132-0.206-0.184-0.316
				c-0.029,0.122-0.055,0.241-0.102,0.368c-0.026-0.121-0.027-0.229-0.022-0.339c0.001-0.038-0.005-0.078-0.052-0.084
				c-0.046-0.006-0.043,0.041-0.053,0.066c-0.038,0.104-0.063,0.21,0.016,0.336c-0.123-0.054-0.134-0.148-0.168-0.236
				c-0.046,0.08,0.007,0.166-0.026,0.24c-0.074-0.187-0.075-0.187-0.029-0.361c0.009-0.037-0.008-0.064-0.021-0.093
				c-0.069-0.154-0.002-0.269,0.171-0.28c0.069-0.004,0.14-0.007,0.208,0.003c0.094,0.014,0.126-0.031,0.135-0.111
				c0.003-0.029,0.006-0.057,0.007-0.086c0.004-0.067,0.03-0.133,0.102-0.129c0.06,0.004,0.104,0.063,0.144,0.112
				c0.011,0.014,0.007,0.036-0.011,0.042c-0.106,0.03-0.074,0.122-0.079,0.19c-0.008,0.104-0.021,0.2-0.08,0.291
				c-0.051,0.078,0.028,0.157,0.026,0.239C17.404,19.921,17.437,19.963,17.425,20.026z"/>
			<path fill-rule="evenodd" clip-rule="evenodd" fill="#A3760B" d="M17.89,20.124c-0.125,0-0.135-0.019-0.123-0.148
				c0.012-0.125,0.022-0.247-0.098-0.345c-0.094-0.078-0.071-0.122,0.047-0.167c0.127-0.049,0.249-0.034,0.366,0.022
				c0.072,0.034,0.099,0.086,0.024,0.147c-0.116,0.096-0.135,0.223-0.098,0.355C18.043,20.11,17.977,20.121,17.89,20.124z"/>
			<path fill-rule="evenodd" clip-rule="evenodd" fill="#ADB5B0" d="M18.245,19.529c0.03-0.165,0.001-0.333,0.024-0.496
				c0.008-0.06-0.105-0.043-0.043-0.1c0.019-0.018,0.053-0.063,0.077-0.032c0.03,0.038,0.097,0.069,0.059,0.139
				c-0.083-0.02-0.045,0.045-0.045,0.072c-0.001,0.276,0.001,0.553,0.002,0.829c0,0.029,0.002,0.058,0,0.086
				c-0.001,0.026,0.01,0.063-0.032,0.066c-0.049,0.004-0.047-0.033-0.047-0.066c0.003-0.146,0.006-0.292,0.008-0.438
				C18.247,19.568,18.245,19.548,18.245,19.529z"/>
			<path fill-rule="evenodd" clip-rule="evenodd" fill="#62A57F" d="M18.635,18.837c-0.096,0.021-0.167-0.062-0.258-0.068
				c0.062-0.014,0.123-0.028,0.185-0.042c0-0.004,0-0.008,0-0.013c-0.068,0-0.136,0-0.208,0c0.025-0.104,0.035-0.206,0.146-0.246
				c0.027,0.065-0.059,0.092-0.049,0.163c0.154-0.038,0.312-0.078,0.465,0.021c-0.117,0.053-0.227,0.102-0.347,0.125
				C18.581,18.818,18.612,18.823,18.635,18.837z"/>
			<path fill-rule="evenodd" clip-rule="evenodd" fill="#711710" d="M17.691,17.457c0.017-0.098,0.059-0.167,0.175-0.141
				c0.035,0.008,0.081,0.019,0.087,0.057c0.006,0.042-0.03,0.075-0.065,0.095c-0.033,0.02-0.074,0.026-0.112,0.038
				C17.748,17.489,17.72,17.473,17.691,17.457z"/>
			<path fill-rule="evenodd" clip-rule="evenodd" fill="#9DA29F" d="M17.599,18.019c0.023,0.061,0.116,0.1,0.068,0.172
				c-0.021,0.034-0.11,0.034-0.133,0.001C17.48,18.119,17.579,18.082,17.599,18.019z"/>
			<path fill-rule="evenodd" clip-rule="evenodd" fill="#711710" d="M17.545,17.479c0.015-0.191-0.042-0.227-0.291-0.182
				c0.067-0.066,0.129-0.083,0.21-0.056c0.078,0.026,0.125,0.073,0.114,0.163c-0.002,0.017,0.015,0.035,0.023,0.053
				C17.583,17.464,17.564,17.472,17.545,17.479z"/>
			<path fill-rule="evenodd" clip-rule="evenodd" fill="#F0D400" d="M18.241,15.762c-0.032,0-0.064,0-0.096,0
				c0.068-0.047,0.133-0.106,0.225-0.036c-0.04,0.012-0.074,0.021-0.109,0.031l-0.01-0.001L18.241,15.762z"/>
			<path fill-rule="evenodd" clip-rule="evenodd" fill="#0D96BD" d="M15.943,17.105c0.035,0.01,0.082,0.017,0.076,0.07
				c-0.002,0.034-0.014,0.081-0.063,0.067c-0.038-0.011-0.097-0.018-0.094-0.075C15.865,17.132,15.896,17.104,15.943,17.105z"/>
			<path fill-rule="evenodd" clip-rule="evenodd" fill="#0D96BD" d="M15.784,17.044c0.033,0.012,0.067,0.024,0.062,0.066
				c-0.004,0.026-0.011,0.063-0.053,0.047c-0.028-0.011-0.068-0.02-0.066-0.062C15.729,17.063,15.752,17.047,15.784,17.044z"/>
			<path fill-rule="evenodd" clip-rule="evenodd" fill="#01A3D9" d="M16.351,16.353c0.064-0.001,0.179,0.114,0.182,0.183
				c0.003,0.061-0.034,0.09-0.088,0.095c-0.074,0.008-0.185-0.105-0.183-0.184C16.262,16.387,16.302,16.363,16.351,16.353z"/>
			<path fill-rule="evenodd" clip-rule="evenodd" fill="#00A5DD" d="M19.452,17.228c-0.016,0.036-0.031,0.071-0.074,0.063
				c-0.01-0.002-0.026-0.041-0.02-0.051C19.381,17.204,19.416,17.218,19.452,17.228z"/>
			<path fill-rule="evenodd" clip-rule="evenodd" fill="#F2D601" d="M18.931,15.435c0.061,0.064,0.025,0.077-0.04,0.082
				c-0.079,0.006-0.164-0.025-0.232,0.041c-0.029,0.009-0.053,0.042-0.105,0.005C18.688,15.52,18.764,15.359,18.931,15.435z"/>
			<path fill-rule="evenodd" clip-rule="evenodd" fill="#CDA706" d="M18.955,14.875c0.016,0.013,0.031,0.027,0.048,0.037
				c0.104,0.064,0.103,0.134,0.005,0.208c-0.026,0.02-0.033,0.002-0.047-0.005c-0.007-0.004-0.011-0.016-0.017-0.024
				c0.103-0.066,0.01-0.145,0.013-0.217L18.955,14.875z"/>
			<path fill-rule="evenodd" clip-rule="evenodd" fill="#AC8B35" d="M19.153,15.137c0.017,0.029,0.074,0.015,0.072,0.052
				c-0.003,0.045-0.056,0.047-0.086,0.045c-0.044-0.003-0.066,0.05-0.111,0.033c-0.008-0.022-0.059-0.025-0.029-0.065
				C19.039,15.149,19.082,15.11,19.153,15.137z"/>
			<path fill-rule="evenodd" clip-rule="evenodd" fill="#EED201" d="M18.339,15.604c0.11-0.122,0.119-0.134,0.158-0.258
				C18.569,15.513,18.558,15.535,18.339,15.604z"/>
			<path fill-rule="evenodd" clip-rule="evenodd" fill="#E6CD01" d="M19.286,14.921c-0.021,0.03-0.042,0.06-0.063,0.09
				c-0.034,0.028-0.068,0.056-0.119,0.098c0.015-0.092,0.06-0.146,0.102-0.2C19.229,14.88,19.268,14.86,19.286,14.921z"/>
			<path fill-rule="evenodd" clip-rule="evenodd" fill="#BE8109" d="M18.188,15.464c0.006,0.008,0.013,0.016,0.019,0.024
				c-0.003,0.037-0.011,0.073-0.009,0.109c0.002,0.045-0.028,0.065-0.057,0.087c-0.003,0.003-0.021-0.004-0.026-0.011
				c-0.02-0.031-0.033-0.064-0.004-0.1C18.138,15.539,18.163,15.501,18.188,15.464z"/>
			<path fill-rule="evenodd" clip-rule="evenodd" fill="#D7C102" d="M19.03,15.265c-0.033,0.026-0.066,0.053-0.099,0.079
				c-0.032,0.003-0.042,0.052-0.091,0.036C18.891,15.314,18.934,15.25,19.03,15.265z"/>
			<path fill-rule="evenodd" clip-rule="evenodd" fill="#711710" d="M17.387,17.486c-0.076,0.007-0.128-0.04-0.135-0.1
				c-0.008-0.069,0.068-0.074,0.118-0.072c0.053,0.001,0.115,0.006,0.12,0.088C17.495,17.485,17.44,17.482,17.387,17.486z"/>
			<path fill-rule="evenodd" clip-rule="evenodd" fill="#711710" d="M17.629,17.402c0.015-0.175,0.169-0.218,0.341-0.1
				C17.831,17.277,17.705,17.23,17.629,17.402z"/>
		</g>
	</g>
	<g>
		<defs>
			<circle id="SVGID_87_" cx="-19.217" cy="17.595" r="15.917"/>
		</defs>
		<clipPath id="SVGID_4_">
			<use xlink:href="#SVGID_87_"  overflow="visible"/>
		</clipPath>
		<g clip-path="url(#SVGID_4_)">
			<path fill-rule="evenodd" clip-rule="evenodd" fill="#00923F" d="M-43.079,34.19c0-11.15,0-22.3,0-33.45
				c15.929,0,31.857,0,47.785,0c0,11.15,0,22.3,0,33.45C-11.222,34.19-27.15,34.19-43.079,34.19z M-38.975,17.483
				c0.053,0.034,0.105,0.069,0.159,0.103c1.644,1.05,3.287,2.1,4.932,3.149c4.86,3.104,9.721,6.207,14.579,9.313
				c0.111,0.071,0.192,0.081,0.286-0.007c0.007-0.007,0.017-0.011,0.024-0.016c3.938-2.514,7.876-5.029,11.813-7.543
				c2.563-1.636,5.125-3.272,7.687-4.909c0.048-0.031,0.102-0.055,0.144-0.108c-0.046-0.032-0.081-0.058-0.119-0.082
				C-5.99,13.22-12.511,9.057-19.03,4.89c-0.098-0.062-0.162-0.068-0.264-0.003c-6.52,4.167-13.04,8.331-19.561,12.495
				C-38.896,17.408-38.946,17.424-38.975,17.483z"/>
			<path fill-rule="evenodd" clip-rule="evenodd" fill="#AADABF" d="M-43.079,34.19c15.929,0,31.857,0,47.785,0
				c-0.006,0.009,0.016,0.031-0.015,0.03c-0.04-0.001-0.079,0-0.119,0c-15.839,0-31.679,0-47.518-0.001
				C-42.989,34.218-43.046,34.252-43.079,34.19z"/>
			<path fill-rule="evenodd" clip-rule="evenodd" fill="#F7C300" d="M-38.975,17.483c0.028-0.059,0.079-0.075,0.12-0.101
				c6.521-4.165,13.041-8.328,19.561-12.495c0.102-0.065,0.166-0.059,0.264,0.003c6.52,4.167,13.04,8.33,19.561,12.494
				c0.038,0.024,0.073,0.05,0.119,0.082c-0.042,0.053-0.096,0.077-0.144,0.108c-2.562,1.636-5.124,3.272-7.687,4.909
				c-3.938,2.514-7.875,5.029-11.813,7.543c-0.008,0.005-0.018,0.009-0.024,0.016c-0.094,0.088-0.175,0.078-0.286,0.007
				c-4.858-3.107-9.719-6.21-14.579-9.313c-1.645-1.049-3.288-2.099-4.932-3.149C-38.869,17.552-38.922,17.517-38.975,17.483z
				 M-10.9,18.463c0.004-0.015,0.008-0.029,0.01-0.044c0.098-0.927,0.059-1.847-0.145-2.759c-0.262-1.183-0.759-2.258-1.49-3.223
				c-0.798-1.053-1.791-1.874-2.975-2.459c-1.021-0.504-2.103-0.783-3.239-0.843c-0.637-0.033-1.271,0.004-1.901,0.116
				c-0.773,0.138-1.514,0.376-2.218,0.724c-1.18,0.583-2.169,1.399-2.967,2.445c-0.354,0.464-0.659,0.958-0.902,1.49
				c-0.188,0.386-0.345,0.784-0.453,1.2c-0.014,0.042-0.03,0.084-0.042,0.127c-0.199,0.713-0.297,1.44-0.302,2.18
				c-0.005,0.751,0.087,1.489,0.282,2.213c0.344,1.276,0.957,2.408,1.837,3.394c0.762,0.853,1.662,1.523,2.7,2.008
				c0.882,0.412,1.809,0.66,2.779,0.745c0.971,0.084,1.928,0.009,2.87-0.24c1.142-0.301,2.174-0.82,3.093-1.561
				c1.216-0.979,2.09-2.203,2.628-3.666c0.071-0.195,0.149-0.39,0.18-0.598C-11.021,19.307-10.943,18.889-10.9,18.463z"/>
		</g>
	</g>
</g>
<g id="Imagenes">
</g>
<g id="Cintillos">
</g>
<g id="Botones">
</g>
<g id="TXT">
</g>
<g id="Logo">
</g>
<g id="Guia">
</g>
</svg>
