<?xml version="1.0" encoding="utf-8"?>
<!-- Generator: Adobe Illustrator 16.0.0, SVG Export Plug-In . SVG Version: 6.00 Build 0)  -->
<!DOCTYPE svg PUBLIC "-//W3C//DTD SVG 1.1//EN" "http://www.w3.org/Graphics/SVG/1.1/DTD/svg11.dtd">
<svg version="1.1" xmlns="http://www.w3.org/2000/svg" xmlns:xlink="http://www.w3.org/1999/xlink" x="0px" y="0px"
	 width="34.417px" height="34.25px" viewBox="0 0 34.417 34.25" enable-background="new 0 0 34.417 34.25" xml:space="preserve">
<g id="Soporte">
</g>
<g id="Publicidad">
</g>
<g id="Iconos">
	<g>
		<defs>
			<circle id="SVGID_11_" cx="54.783" cy="16.595" r="15.917"/>
		</defs>
		<clipPath id="SVGID_2_">
			<use xlink:href="#SVGID_11_"  overflow="visible"/>
		</clipPath>
		<g clip-path="url(#SVGID_2_)">
			<path fill-rule="evenodd" clip-rule="evenodd" fill="#D32B1E" d="M29.971,10.99c0-3.698,0-7.396-0.002-11.093
				c0-0.089,0.014-0.115,0.111-0.115c16.347,0.002,32.693,0.002,49.04,0c0.097,0,0.111,0.027,0.111,0.115
				c-0.003,3.698-0.002,7.396-0.002,11.093c-0.033,0.043-0.081,0.052-0.131,0.055c-0.074,0.002-0.148,0.002-0.222,0.002
				c-16.184,0-32.368,0-48.551,0c-0.074,0-0.148,0-0.222-0.002C30.052,11.042,30.005,11.034,29.971,10.99z"/>
			<path fill-rule="evenodd" clip-rule="evenodd" fill="#007834" d="M79.229,22.172c0,3.698-0.001,7.396,0.002,11.093
				c0,0.089-0.014,0.115-0.111,0.115c-16.347-0.002-32.693-0.002-49.04,0c-0.097,0-0.111-0.026-0.111-0.115
				c0.002-3.698,0.002-7.396,0.002-11.093c0.034-0.043,0.081-0.053,0.132-0.055c0.074-0.002,0.147-0.002,0.222-0.002
				c16.184,0,32.367,0,48.551,0c0.074,0,0.148,0,0.222,0.002C79.148,22.119,79.195,22.128,79.229,22.172z"/>
			<path fill-rule="evenodd" clip-rule="evenodd" fill="#FDDE00" d="M79.229,22.172c-0.049,0.002-0.098,0.006-0.147,0.006
				c-16.321,0-32.642,0-48.963,0c-0.049,0-0.099-0.004-0.147-0.006c0-3.728,0-7.454,0-11.182c0.053-0.002,0.107-0.005,0.16-0.005
				c16.313,0,32.625,0,48.938,0c0.053,0,0.106,0.003,0.16,0.005C79.229,14.718,79.229,18.444,79.229,22.172z"/>
		</g>
	</g>
	<g>
		<defs>
			<circle id="SVGID_85_" cx="-21.217" cy="16.595" r="15.917"/>
		</defs>
		<clipPath id="SVGID_4_">
			<use xlink:href="#SVGID_85_"  overflow="visible"/>
		</clipPath>
		<g clip-path="url(#SVGID_4_)">
			<path fill-rule="evenodd" clip-rule="evenodd" fill="#FE0000" d="M-10.695,32.888c0-10.808,0-21.616,0-32.424
				c5.631,0,11.262,0.001,16.894-0.004c0.183,0,0.219,0.034,0.219,0.207c-0.007,10.673-0.007,21.346,0,32.019
				c0,0.173-0.036,0.208-0.219,0.207C0.566,32.887-5.064,32.888-10.695,32.888z"/>
		</g>
	</g>
	<g>
		<defs>
			<circle id="SVGID_87_" cx="17.783" cy="16.595" r="15.917"/>
		</defs>
		<clipPath id="SVGID_6_">
			<use xlink:href="#SVGID_87_"  overflow="visible"/>
		</clipPath>
		<g clip-path="url(#SVGID_6_)">
			<path fill-rule="evenodd" clip-rule="evenodd" fill="#00923F" d="M-6.079,33.19c0-11.15,0-22.3,0-33.45
				c15.929,0,31.857,0,47.785,0c0,11.15,0,22.3,0,33.45C25.778,33.19,9.85,33.19-6.079,33.19z M-1.975,16.483
				c0.053,0.034,0.105,0.069,0.159,0.103c1.644,1.05,3.287,2.1,4.932,3.149c4.86,3.104,9.721,6.207,14.579,9.313
				c0.111,0.071,0.192,0.081,0.286-0.007c0.007-0.007,0.017-0.011,0.024-0.016c3.938-2.514,7.876-5.029,11.813-7.543
				c2.563-1.636,5.125-3.272,7.687-4.909c0.048-0.031,0.102-0.055,0.144-0.108c-0.046-0.032-0.081-0.058-0.119-0.082
				C31.01,12.22,24.489,8.057,17.97,3.89c-0.098-0.062-0.162-0.068-0.264-0.003c-6.52,4.167-13.04,8.331-19.561,12.495
				C-1.896,16.408-1.946,16.424-1.975,16.483z"/>
			<path fill-rule="evenodd" clip-rule="evenodd" fill="#AADABF" d="M-6.079,33.19c15.929,0,31.857,0,47.785,0
				c-0.006,0.009,0.016,0.031-0.015,0.03c-0.04-0.001-0.079,0-0.119,0c-15.839,0-31.679,0-47.518-0.001
				C-5.989,33.218-6.046,33.252-6.079,33.19z"/>
			<path fill-rule="evenodd" clip-rule="evenodd" fill="#F7C300" d="M-1.975,16.483c0.028-0.059,0.079-0.075,0.12-0.101
				c6.521-4.165,13.041-8.328,19.561-12.495c0.102-0.065,0.166-0.059,0.264,0.003c6.52,4.167,13.04,8.33,19.561,12.494
				c0.038,0.024,0.073,0.05,0.119,0.082c-0.042,0.053-0.096,0.077-0.144,0.108c-2.562,1.636-5.124,3.272-7.687,4.909
				c-3.938,2.514-7.875,5.029-11.813,7.543c-0.008,0.005-0.018,0.009-0.024,0.016c-0.094,0.088-0.175,0.078-0.286,0.007
				c-4.858-3.107-9.719-6.21-14.579-9.313c-1.645-1.049-3.288-2.099-4.932-3.149C-1.869,16.552-1.922,16.517-1.975,16.483z
				 M26.1,17.463c0.004-0.015,0.008-0.029,0.01-0.044c0.098-0.927,0.059-1.847-0.145-2.759c-0.262-1.183-0.759-2.258-1.49-3.223
				c-0.798-1.053-1.791-1.874-2.975-2.459c-1.021-0.504-2.103-0.783-3.239-0.843c-0.637-0.033-1.271,0.004-1.901,0.116
				c-0.773,0.138-1.514,0.376-2.218,0.724c-1.18,0.583-2.169,1.399-2.967,2.445c-0.354,0.464-0.659,0.958-0.902,1.49
				c-0.188,0.386-0.345,0.784-0.453,1.2c-0.014,0.042-0.03,0.084-0.042,0.127c-0.199,0.713-0.297,1.44-0.302,2.18
				c-0.005,0.751,0.087,1.489,0.282,2.213c0.344,1.276,0.957,2.408,1.837,3.394c0.762,0.853,1.662,1.523,2.7,2.008
				c0.882,0.412,1.809,0.66,2.779,0.745c0.971,0.084,1.928,0.009,2.87-0.24c1.142-0.301,2.174-0.82,3.093-1.561
				c1.216-0.979,2.09-2.203,2.628-3.666c0.071-0.195,0.149-0.39,0.18-0.598C25.979,18.307,26.057,17.889,26.1,17.463z"/>
			<path fill-rule="evenodd" clip-rule="evenodd" fill="#29176F" d="M25.845,18.713c-0.03,0.208-0.108,0.403-0.18,0.598
				c-0.538,1.463-1.412,2.688-2.628,3.666c-0.919,0.74-1.951,1.26-3.093,1.561c-0.942,0.249-1.899,0.324-2.87,0.24
				c-0.971-0.084-1.897-0.333-2.779-0.745c-1.038-0.484-1.938-1.155-2.7-2.008c-0.88-0.985-1.493-2.118-1.837-3.394
				c-0.195-0.724-0.287-1.462-0.282-2.213c0.005-0.74,0.103-1.467,0.302-2.18c0.012-0.043,0.028-0.085,0.042-0.127
				c0.06-0.005,0.119-0.006,0.178-0.015c0.689-0.106,1.384-0.167,2.079-0.191c1.066-0.037,2.129,0.001,3.188,0.134
				c0.904,0.113,1.797,0.281,2.677,0.515c2.568,0.684,4.907,1.837,7.018,3.453C25.259,18.236,25.55,18.478,25.845,18.713z
				 M14.741,20.99c-0.013-0.011-0.02-0.021-0.027-0.023c-0.089-0.012-0.199,0.006-0.259-0.042c-0.065-0.052-0.083-0.164-0.121-0.251
				c-0.049,0.042-0.061,0.103-0.078,0.158c-0.026,0.081-0.065,0.126-0.158,0.119c-0.058-0.004-0.119-0.001-0.174,0.025
				c0.007,0.037,0.034,0.054,0.058,0.067c0.133,0.076,0.169,0.179,0.105,0.32c-0.012,0.024-0.034,0.063,0.006,0.098
				c0.055-0.034,0.11-0.064,0.162-0.102s0.095-0.037,0.148,0c0.055,0.038,0.107,0.083,0.192,0.104
				c-0.021-0.085-0.038-0.157-0.059-0.227c-0.013-0.044-0.003-0.076,0.034-0.104C14.629,21.087,14.684,21.039,14.741,20.99z
				 M10.609,14.984c0.058,0.048,0.095,0.088,0.14,0.117c0.073,0.047,0.095,0.105,0.064,0.188c-0.02,0.056-0.04,0.115-0.036,0.188
				c0.058-0.035,0.108-0.058,0.149-0.092c0.072-0.058,0.135-0.063,0.21-0.003c0.044,0.036,0.093,0.073,0.154,0.085
				c0.008-0.058-0.013-0.11-0.03-0.159c-0.033-0.092-0.023-0.16,0.065-0.214c0.044-0.027,0.091-0.059,0.123-0.119
				c-0.07-0.006-0.132-0.015-0.194-0.017c-0.072-0.002-0.118-0.027-0.14-0.103c-0.018-0.058-0.035-0.12-0.083-0.174
				c-0.063,0.085-0.055,0.202-0.13,0.254C10.827,14.988,10.719,14.952,10.609,14.984z M17.857,19.94
				c-0.058,0.075-0.073,0.149-0.101,0.218c-0.02,0.049-0.049,0.067-0.101,0.07c-0.07,0.003-0.145-0.008-0.218,0.022
				c0.034,0.06,0.08,0.093,0.125,0.121c0.084,0.052,0.093,0.118,0.063,0.203c-0.018,0.05-0.027,0.103-0.044,0.169
				c0.084-0.026,0.139-0.068,0.193-0.106c0.053-0.036,0.094-0.04,0.146,0c0.054,0.041,0.115,0.072,0.195,0.121
				c-0.021-0.087-0.027-0.151-0.051-0.209c-0.029-0.075-0.003-0.12,0.055-0.165c0.049-0.038,0.105-0.07,0.147-0.143
				c-0.083-0.005-0.15-0.013-0.218-0.011c-0.059,0-0.092-0.023-0.11-0.077C17.918,20.086,17.891,20.022,17.857,19.94z
				 M11.438,18.944c0.042-0.009,0.055-0.008,0.062-0.014c0.145-0.131,0.289-0.149,0.437-0.004c0.009,0.009,0.026,0.008,0.052,0.016
				c-0.018-0.07-0.03-0.133-0.05-0.193c-0.024-0.072-0.005-0.121,0.057-0.165c0.05-0.036,0.104-0.072,0.146-0.141
				c-0.08-0.004-0.143-0.012-0.206-0.01c-0.071,0.002-0.105-0.031-0.13-0.095c-0.022-0.061-0.032-0.131-0.092-0.185
				c-0.02,0.043-0.04,0.074-0.047,0.106c-0.026,0.134-0.102,0.196-0.24,0.177c-0.036-0.005-0.074,0.003-0.113,0.005
				c0.007,0.023,0.007,0.037,0.014,0.041C11.515,18.586,11.558,18.735,11.438,18.944z M23.687,18.976
				c-0.059,0.071-0.073,0.146-0.101,0.214c-0.02,0.048-0.048,0.071-0.099,0.073c-0.072,0.004-0.144,0.01-0.247,0.018
				c0.074,0.062,0.125,0.107,0.179,0.147c0.05,0.038,0.063,0.077,0.046,0.14c-0.018,0.065-0.053,0.129-0.036,0.2
				c0.03,0.005,0.052-0.012,0.067-0.028c0.126-0.122,0.248-0.107,0.371,0.004c0.016,0.014,0.036,0.035,0.067,0.018
				c0.007-0.065-0.021-0.126-0.04-0.186c-0.021-0.069-0.006-0.109,0.049-0.152c0.053-0.041,0.112-0.077,0.156-0.146
				c-0.078-0.005-0.141-0.013-0.204-0.013c-0.069,0-0.111-0.026-0.132-0.093C23.744,19.111,23.716,19.052,23.687,18.976z
				 M14.933,16.691c-0.216,0.043-0.315-0.057-0.359-0.246c-0.042,0.183-0.141,0.276-0.323,0.258c-0.005,0-0.012,0.012-0.024,0.027
				c0.163,0.075,0.204,0.197,0.131,0.358c-0.003,0.006,0.005,0.016,0.009,0.026c0.051-0.008,0.09-0.041,0.128-0.07
				c0.056-0.042,0.103-0.044,0.158-0.001c0.04,0.03,0.08,0.064,0.142,0.072c-0.018-0.083-0.053-0.159-0.042-0.226
				C14.764,16.811,14.866,16.788,14.933,16.691z M23.617,20.544c-0.012,0.016-0.03,0.03-0.034,0.047
				c-0.027,0.136-0.103,0.204-0.246,0.188c-0.021-0.002-0.051-0.003-0.059,0.043c0.178,0.072,0.183,0.212,0.105,0.381
				c0.072-0.015,0.111-0.046,0.149-0.075c0.056-0.042,0.104-0.045,0.161-0.001c0.038,0.03,0.079,0.064,0.157,0.075
				c-0.106-0.183-0.056-0.308,0.119-0.392c-0.031-0.016-0.044-0.03-0.056-0.028c-0.171,0.022-0.248-0.074-0.285-0.223
				C23.629,20.555,23.624,20.552,23.617,20.544z M23.676,20.121c-0.001,0.015-0.003,0.021-0.001,0.024
				c0.013,0.015,0.023,0.034,0.039,0.042c0.126,0.064,0.141,0.162,0.089,0.282c-0.009,0.02-0.023,0.044,0.008,0.067
				c0.063-0.035,0.123-0.091,0.191-0.103c0.079-0.014,0.13,0.08,0.207,0.099c0.004,0.001,0.009,0,0.015-0.001
				c0.012-0.046-0.01-0.089-0.024-0.128c-0.028-0.078-0.014-0.129,0.055-0.177c0.036-0.025,0.092-0.043,0.092-0.106
				c-0.076-0.007-0.16,0.005-0.221-0.026c-0.063-0.034-0.06-0.131-0.099-0.194c-0.004-0.006-0.013-0.01-0.019-0.016
				c-0.037,0.037-0.049,0.087-0.063,0.133c-0.021,0.066-0.056,0.099-0.129,0.093C23.77,20.107,23.722,20.117,23.676,20.121z
				 M18.665,18.298c-0.051,0.057-0.049,0.143-0.098,0.196c-0.059,0.065-0.15,0.019-0.225,0.042c-0.007,0.002-0.011,0.013-0.02,0.025
				c0.054,0.049,0.127,0.089,0.158,0.15c0.036,0.071-0.033,0.149-0.033,0.228c0,0.004,0.004,0.009,0.006,0.014
				c0.036-0.001,0.065-0.023,0.091-0.044c0.079-0.068,0.153-0.077,0.234-0.003c0.025,0.023,0.058,0.047,0.105,0.047
				c-0.019-0.081-0.055-0.156-0.045-0.224c0.012-0.072,0.103-0.1,0.154-0.153c0.005-0.005,0.003-0.018,0.004-0.031
				c-0.071-0.034-0.163,0.013-0.225-0.036S18.719,18.361,18.665,18.298z M11.085,19.606c-0.097-0.175-0.063-0.3,0.091-0.386
				c0.006-0.003,0.005-0.018,0.009-0.033c-0.029-0.002-0.059-0.009-0.087-0.006c-0.11,0.013-0.177-0.032-0.204-0.141
				c-0.008-0.034-0.014-0.076-0.057-0.092c-0.098,0.22-0.098,0.22-0.31,0.236c-0.014,0.001-0.02,0.005-0.017,0.025
				c0.035,0.064,0.134,0.084,0.157,0.159c0.023,0.075-0.049,0.146-0.032,0.231c0.078-0.021,0.133-0.102,0.206-0.106
				C10.917,19.489,10.97,19.579,11.085,19.606z M22.031,21.708c-0.009,0.01-0.025,0.02-0.027,0.031
				c-0.028,0.164-0.132,0.215-0.284,0.199c-0.007,0-0.015,0.009-0.025,0.017c0.016,0.051,0.062,0.075,0.1,0.101
				c0.061,0.041,0.067,0.089,0.051,0.154c-0.012,0.046-0.045,0.091-0.018,0.148c0.065-0.037,0.127-0.09,0.195-0.103
				c0.075-0.014,0.126,0.07,0.194,0.096c0.007,0.002,0.017-0.006,0.031-0.012c-0.009-0.037-0.012-0.078-0.026-0.113
				c-0.033-0.077-0.016-0.13,0.053-0.178c0.036-0.025,0.09-0.046,0.088-0.121c-0.196,0.057-0.275-0.054-0.318-0.214
				C22.043,21.711,22.037,21.71,22.031,21.708z M17.693,18.246c0.041-0.025,0.073-0.04,0.099-0.062
				c0.071-0.06,0.138-0.063,0.211-0.001c0.028,0.023,0.058,0.055,0.112,0.045c-0.015-0.072-0.047-0.146-0.038-0.214
				c0.01-0.075,0.105-0.098,0.15-0.156c0.005-0.006,0.001-0.018,0.001-0.034c-0.071-0.007-0.152,0.003-0.213-0.027
				c-0.065-0.033-0.059-0.13-0.1-0.191c-0.005-0.007-0.017-0.01-0.036-0.021c-0.023,0.176-0.121,0.26-0.299,0.237
				c-0.005,0-0.011,0.013-0.021,0.025c0.053,0.05,0.123,0.091,0.155,0.152C17.754,18.069,17.675,18.146,17.693,18.246z
				 M13.624,19.659c0.016-0.046-0.01-0.088-0.023-0.127c-0.026-0.077-0.012-0.13,0.059-0.176c0.036-0.023,0.087-0.045,0.09-0.108
				c-0.041-0.002-0.075-0.008-0.109-0.004c-0.094,0.009-0.148-0.027-0.172-0.121c-0.01-0.038-0.017-0.086-0.071-0.112
				c-0.03,0.171-0.118,0.269-0.303,0.239c-0.004-0.001-0.011,0.012-0.018,0.021c0.039,0.064,0.127,0.088,0.154,0.153
				c0.029,0.069-0.024,0.142-0.034,0.215c-0.001,0.007,0.007,0.016,0.013,0.03c0.064-0.037,0.125-0.094,0.193-0.105
				c0.078-0.013,0.131,0.079,0.207,0.099C13.613,19.663,13.617,19.661,13.624,19.659z M19.916,22.15
				c0.042,0.083,0.14,0.101,0.165,0.176c0.026,0.076-0.052,0.147-0.023,0.236c0.064-0.038,0.123-0.093,0.191-0.106
				c0.073-0.014,0.124,0.068,0.193,0.094c0.006,0.002,0.017-0.002,0.031-0.006c-0.013-0.072-0.043-0.147-0.032-0.215
				c0.013-0.073,0.106-0.096,0.151-0.155c0.005-0.006,0.002-0.018,0.003-0.028c-0.073-0.007-0.155,0.003-0.218-0.028
				c-0.065-0.032-0.061-0.129-0.1-0.191c-0.005-0.007-0.017-0.008-0.03-0.015c-0.029,0.066-0.046,0.146-0.093,0.195
				C20.098,22.168,20.003,22.125,19.916,22.15z M21.714,21.168c0.05,0.047,0.12,0.082,0.136,0.134
				c0.018,0.057-0.014,0.129-0.024,0.195c0.123-0.135,0.242-0.081,0.37,0.021c-0.017-0.089-0.05-0.159-0.032-0.212
				c0.018-0.056,0.084-0.096,0.134-0.147c-0.198-0.038-0.198-0.038-0.286-0.213c-0.051,0.046-0.044,0.124-0.089,0.166
				C21.87,21.161,21.786,21.123,21.714,21.168z M21.023,21.139c-0.045,0.049-0.043,0.125-0.087,0.17
				c-0.051,0.052-0.133,0.004-0.223,0.055c0.172,0.064,0.184,0.184,0.125,0.347c0.125-0.149,0.243-0.104,0.37-0.012
				c-0.073-0.154-0.024-0.263,0.116-0.343c-0.078-0.038-0.151-0.002-0.202-0.038C21.064,21.278,21.073,21.191,21.023,21.139z
				 M25.21,19.408c-0.212-0.046-0.212-0.046-0.307-0.218c-0.049,0.047-0.042,0.125-0.09,0.168c-0.054,0.049-0.136,0.007-0.209,0.053
				c0.051,0.046,0.113,0.081,0.142,0.133c0.031,0.058-0.035,0.126-0.015,0.235c0.112-0.185,0.231-0.109,0.357-0.038
				C25.019,19.587,25.063,19.483,25.21,19.408z M12.904,20.519c0.089-0.048,0.141-0.094,0.199-0.104
				c0.068-0.012,0.111,0.076,0.192,0.083c-0.014-0.065-0.043-0.129-0.035-0.188c0.009-0.068,0.106-0.081,0.139-0.159
				c-0.069-0.008-0.14,0-0.19-0.027c-0.061-0.033-0.048-0.126-0.104-0.181c-0.027,0.06-0.042,0.127-0.082,0.173
				c-0.048,0.054-0.133,0.003-0.21,0.05C12.945,20.245,13.001,20.35,12.904,20.519z M19.481,15.896
				c0.19,0.056,0.176,0.186,0.131,0.345c0.123-0.161,0.242-0.098,0.368-0.019c-0.064-0.146-0.025-0.248,0.092-0.326
				c0.01-0.007,0.007-0.018-0.018-0.031c-0.148,0.04-0.215-0.062-0.248-0.208c-0.06,0.059-0.054,0.136-0.101,0.18
				C19.652,15.887,19.571,15.843,19.481,15.896z M16.74,18.453c-0.038,0.159-0.133,0.22-0.308,0.191
				c0.066,0.067,0.121,0.104,0.15,0.157c0.035,0.062-0.038,0.129-0.012,0.229c0.109-0.148,0.223-0.121,0.335-0.02
				c0.032-0.078-0.031-0.136-0.016-0.196c0.017-0.068,0.107-0.083,0.146-0.18C16.857,18.693,16.785,18.603,16.74,18.453z
				 M23.005,21.502c0.026-0.066-0.036-0.125-0.021-0.186c0.018-0.069,0.109-0.082,0.141-0.17c-0.167,0.043-0.243-0.051-0.297-0.192
				c-0.033,0.167-0.132,0.221-0.286,0.197c0.03,0.079,0.11,0.093,0.136,0.152c0.029,0.067-0.044,0.131-0.017,0.201
				C22.833,21.418,22.833,21.418,23.005,21.502z M22.313,22.866c-0.012-0.008-0.302-0.22-0.313-0.227
				c-0.012,0.163-0.115,0.211-0.271,0.194c0.037,0.078,0.111,0.096,0.138,0.153c0.03,0.063-0.05,0.126,0,0.219
				c0.103-0.166,0.216-0.086,0.354,0.007C22.15,23.048,22.162,22.933,22.313,22.866z M19.404,21.476
				c0.067-0.009,0.106-0.082,0.173-0.08c0.063,0.002,0.103,0.072,0.17,0.079c0.023-0.068-0.04-0.126-0.02-0.19
				c0.021-0.066,0.116-0.075,0.129-0.152c-0.064-0.021-0.136,0.011-0.19-0.03c-0.05-0.039-0.037-0.121-0.104-0.174
				c-0.028,0.149-0.11,0.221-0.257,0.201c-0.003,0-0.008,0.014-0.013,0.021c0.03,0.058,0.109,0.074,0.13,0.138
				C19.441,21.351,19.376,21.409,19.404,21.476z M12.72,17.952c-0.145,0.029-0.192-0.051-0.241-0.159
				c-0.017,0.138-0.098,0.171-0.233,0.171c0.059,0.049,0.1,0.072,0.123,0.107c0.029,0.042-0.028,0.091-0.004,0.148
				c0.08-0.069,0.164-0.064,0.251,0C12.602,18.069,12.602,18.069,12.72,17.952z M17.568,19.122c-0.124,0.021-0.18-0.05-0.228-0.175
				c-0.018,0.151-0.105,0.175-0.228,0.188c0.131,0.056,0.127,0.146,0.107,0.243c0.127-0.06,0.127-0.06,0.255-0.005
				C17.465,19.232,17.465,19.232,17.568,19.122z M17.971,23.243c-0.03-0.076-0.005-0.125,0.063-0.171
				c-0.078-0.007-0.129-0.036-0.152-0.109c-0.027,0.038-0.042,0.063-0.062,0.084s-0.061,0-0.08,0.041
				c0.064,0.03,0.048,0.093,0.05,0.161C17.85,23.201,17.904,23.199,17.971,23.243z"/>
			<path fill-rule="evenodd" clip-rule="evenodd" fill="#29176F" d="M10.272,12.911c0.243-0.531,0.548-1.026,0.902-1.49
				c0.798-1.046,1.787-1.862,2.967-2.445c0.704-0.348,1.444-0.586,2.218-0.724c0.63-0.112,1.265-0.149,1.901-0.116
				c1.137,0.06,2.219,0.339,3.239,0.843c1.184,0.585,2.177,1.406,2.975,2.459c0.731,0.965,1.229,2.041,1.49,3.223
				c0.203,0.912,0.242,1.832,0.145,2.759c-0.002,0.015-0.006,0.029-0.01,0.044c-0.044-0.033-0.089-0.063-0.131-0.098
				c-1.194-0.953-2.476-1.769-3.847-2.443c-2.629-1.291-5.406-2.003-8.333-2.137c-0.921-0.042-1.841-0.02-2.76,0.057
				C10.777,12.863,10.526,12.908,10.272,12.911z M20.646,13.93c0.005-0.09-0.019-0.151-0.039-0.211
				c-0.023-0.07-0.002-0.109,0.051-0.151c0.052-0.041,0.114-0.074,0.151-0.145c-0.076-0.005-0.14-0.012-0.204-0.012
				c-0.07,0.001-0.108-0.032-0.13-0.096c-0.021-0.062-0.048-0.121-0.077-0.193c-0.064,0.089-0.063,0.193-0.124,0.254
				c-0.07,0.071-0.18,0.027-0.271,0.044c-0.013,0.003-0.019,0.006-0.017,0.022c0.009,0.032,0.041,0.051,0.069,0.067
				c0.118,0.071,0.157,0.163,0.099,0.294c-0.015,0.032-0.029,0.072-0.005,0.118c0.064-0.04,0.129-0.076,0.189-0.118
				c0.038-0.026,0.069-0.025,0.107,0C20.507,13.846,20.571,13.882,20.646,13.93z"/>
			<path fill-rule="evenodd" clip-rule="evenodd" fill="#F8FBFA" d="M10.272,12.911c0.254-0.003,0.505-0.047,0.757-0.068
				c0.919-0.076,1.839-0.099,2.76-0.057c2.927,0.134,5.704,0.847,8.333,2.137c1.371,0.674,2.652,1.49,3.847,2.443
				c0.042,0.034,0.087,0.065,0.131,0.098c-0.043,0.425-0.12,0.843-0.255,1.25c-0.295-0.236-0.586-0.477-0.886-0.707
				c-2.11-1.615-4.449-2.769-7.018-3.453c-0.88-0.234-1.772-0.402-2.677-0.515c-1.06-0.133-2.122-0.171-3.188-0.134
				c-0.695,0.024-1.39,0.085-2.079,0.191c-0.059,0.009-0.118,0.01-0.178,0.015C9.928,13.695,10.085,13.297,10.272,12.911z
				 M14.986,13.408c0.026,0.13,0.011,0.252-0.006,0.375c-0.009,0.06,0.021,0.078,0.075,0.082c0.055,0.004,0.067-0.023,0.071-0.07
				c0.018-0.173,0.039-0.345,0.056-0.518c0.016-0.161,0.007-0.166-0.153-0.167c-0.061,0-0.072,0.033-0.09,0.077
				c-0.056,0.132-0.09,0.273-0.171,0.396c-0.03-0.124-0.048-0.246-0.066-0.368c-0.021-0.148-0.045-0.167-0.188-0.16
				c-0.041,0.002-0.066,0.013-0.071,0.057c-0.021,0.203-0.041,0.405-0.063,0.607c-0.007,0.061,0.025,0.077,0.077,0.082
				c0.057,0.005,0.065-0.028,0.069-0.072c0.013-0.126,0.027-0.252,0.041-0.381c0.051,0.019,0.042,0.059,0.047,0.091
				c0.014,0.098,0.028,0.197,0.039,0.295c0.007,0.064,0.034,0.095,0.103,0.102c0.068,0.006,0.084-0.034,0.102-0.083
				C14.899,13.637,14.943,13.522,14.986,13.408z M22.206,16.049c0.02-0.052,0.037-0.098,0.054-0.145s0.047-0.092,0.031-0.143
				c-0.016-0.052,0.01-0.06,0.049-0.083c0.169-0.102,0.166-0.273-0.006-0.375c-0.089-0.053-0.186-0.093-0.278-0.142
				c-0.052-0.027-0.079-0.012-0.104,0.039c-0.093,0.196-0.19,0.391-0.285,0.584c0.127,0.087,0.127,0.087,0.185-0.027
				c0.018-0.036,0.036-0.071,0.054-0.106c0.01-0.02,0.027-0.028,0.048-0.027c0.127,0.005,0.199,0.116,0.154,0.234
				c-0.009,0.023-0.019,0.046-0.029,0.068c-0.02,0.043-0.014,0.077,0.036,0.094C22.142,16.032,22.163,16.055,22.206,16.049z
				 M12.214,13.729c-0.035-0.101-0.013-0.206-0.064-0.292c-0.027-0.045-0.025-0.064,0.001-0.11c0.097-0.161,0.012-0.315-0.174-0.324
				c-0.104-0.004-0.208,0.004-0.313,0.002c-0.065,0-0.086,0.027-0.083,0.091c0.009,0.193,0.016,0.387,0.021,0.581
				c0.001,0.059,0.023,0.077,0.079,0.077c0.058,0,0.08-0.022,0.075-0.08c-0.004-0.049-0.002-0.099-0.003-0.149
				c-0.002-0.043,0.019-0.06,0.06-0.067c0.147-0.025,0.194,0.008,0.213,0.16C12.039,13.72,12.041,13.767,12.214,13.729z
				 M19.484,14.863c0.018-0.097,0.05-0.189,0.044-0.279c-0.005-0.062-0.001-0.088,0.047-0.131c0.133-0.119,0.099-0.283-0.07-0.351
				c-0.101-0.041-0.207-0.067-0.31-0.104c-0.049-0.018-0.074-0.002-0.089,0.044c-0.06,0.194-0.117,0.389-0.179,0.582
				c-0.02,0.061,0.01,0.077,0.059,0.093c0.047,0.016,0.074,0.012,0.088-0.041s0.033-0.104,0.05-0.156
				c0.008-0.024,0.014-0.047,0.045-0.049c0.127-0.01,0.216,0.088,0.19,0.21c-0.006,0.024-0.014,0.048-0.021,0.072
				c-0.012,0.047,0.008,0.076,0.054,0.089C19.42,14.85,19.449,14.855,19.484,14.863z M21.54,15.156
				c0.009-0.023,0.018-0.037,0.018-0.051c0.006-0.144-0.073-0.231-0.193-0.29c-0.133-0.064-0.26-0.059-0.377,0.038
				c-0.071,0.059-0.113,0.136-0.142,0.223c-0.084,0.262,0.07,0.47,0.346,0.465c0.035,0,0.053-0.004,0.076,0.039
				c0.038,0.07,0.078,0.061,0.113-0.009c0.016-0.031,0.028-0.063,0.042-0.095c0.097-0.226,0.097-0.225-0.136-0.303
				c-0.039-0.013-0.063-0.018-0.083,0.024c-0.023,0.045-0.017,0.073,0.03,0.094c0.028,0.013,0.071,0.013,0.071,0.061
				c-0.099,0.077-0.161,0.086-0.238,0.035c-0.071-0.046-0.103-0.128-0.08-0.224c0.016-0.068,0.046-0.132,0.095-0.184
				c0.1-0.107,0.267-0.082,0.313,0.057C21.42,15.114,21.465,15.135,21.54,15.156z M10.901,13.051
				c-0.226-0.001-0.371,0.146-0.371,0.374c0,0.242,0.146,0.408,0.359,0.409c0.222,0.001,0.371-0.151,0.371-0.377
				C11.261,13.211,11.119,13.052,10.901,13.051z M20.241,15.153c0.201-0.001,0.369-0.193,0.373-0.427
				c0.004-0.198-0.165-0.357-0.379-0.357c-0.204,0-0.365,0.187-0.367,0.426C19.866,15.001,20.025,15.155,20.241,15.153z
				 M12.562,13.351c-0.002,0-0.005,0-0.007,0c0,0.095,0.003,0.189-0.001,0.283c-0.003,0.062,0.015,0.091,0.082,0.088
				c0.079-0.004,0.158,0.003,0.238,0c0.158-0.006,0.25-0.077,0.296-0.223c0.055-0.173,0.012-0.372-0.097-0.454
				c-0.041-0.031-0.088-0.045-0.137-0.055c-0.099-0.019-0.198-0.011-0.297-0.016c-0.059-0.003-0.079,0.024-0.078,0.079
				C12.563,13.152,12.562,13.251,12.562,13.351z M25.613,17.539c-0.002-0.186-0.182-0.357-0.37-0.355
				c-0.194,0.002-0.4,0.225-0.397,0.431c0.002,0.187,0.179,0.354,0.372,0.352C25.42,17.963,25.616,17.752,25.613,17.539z
				 M24.759,17.01c0.024-0.016,0.036-0.036,0.041-0.062c0.023-0.125-0.04-0.231-0.187-0.306c-0.12-0.062-0.227-0.048-0.297,0.038
				c-0.077,0.094-0.071,0.181,0.021,0.293c0.041,0.05,0.084,0.099,0.122,0.151c0.024,0.034,0.036,0.076,0.006,0.111
				c-0.036,0.042-0.082,0.028-0.123,0.004c-0.062-0.036-0.116-0.079-0.108-0.163c0.007-0.074-0.053-0.107-0.1-0.105
				c-0.063,0.002-0.053,0.073-0.053,0.12c0.001,0.145,0.173,0.297,0.335,0.304c0.089,0.004,0.153-0.035,0.201-0.105
				c0.055-0.083,0.049-0.151-0.022-0.247c-0.048-0.063-0.103-0.122-0.15-0.185c-0.021-0.029-0.03-0.063,0.001-0.095
				c0.027-0.029,0.061-0.032,0.096-0.016c0.055,0.026,0.115,0.059,0.111,0.126C24.647,16.96,24.695,16.988,24.759,17.01z
				 M16.6,13.618c0.027-0.14,0.027-0.14,0.15-0.115c0.059,0.012,0.117,0.023,0.176,0.036c0.05,0.011,0.083,0.006,0.097-0.055
				c0.014-0.063-0.025-0.063-0.064-0.071c-0.121-0.026-0.243-0.052-0.363-0.082c-0.068-0.017-0.099,0.005-0.112,0.074
				c-0.038,0.19-0.079,0.379-0.122,0.568c-0.012,0.049,0.001,0.074,0.052,0.083c0.141,0.029,0.282,0.058,0.422,0.091
				c0.058,0.014,0.068-0.021,0.078-0.062c0.01-0.041-0.001-0.065-0.047-0.074c-0.083-0.016-0.164-0.041-0.247-0.053
				c-0.068-0.01-0.096-0.032-0.077-0.106c0.018-0.071,0.043-0.103,0.121-0.079c0.062,0.019,0.126,0.025,0.189,0.039
				c0.041,0.01,0.063,0.001,0.074-0.045c0.012-0.05-0.004-0.07-0.054-0.082C16.781,13.666,16.685,13.661,16.6,13.618z
				 M22.794,16.021c0.082,0.044,0.164,0.088,0.246,0.135c0.047,0.027,0.071,0.009,0.093-0.033c0.022-0.043,0.003-0.063-0.032-0.081
				c-0.065-0.036-0.129-0.075-0.195-0.108c-0.049-0.025-0.047-0.053-0.022-0.095c0.025-0.042,0.043-0.078,0.102-0.042
				c0.071,0.044,0.147,0.083,0.22,0.125c0.042,0.024,0.072,0.02,0.096-0.027c0.02-0.039,0.014-0.064-0.025-0.085
				c-0.121-0.067-0.242-0.135-0.363-0.203c-0.036-0.02-0.063-0.018-0.085,0.022c-0.101,0.183-0.201,0.365-0.305,0.546
				c-0.023,0.041-0.013,0.063,0.023,0.083c0.131,0.072,0.262,0.143,0.391,0.217c0.045,0.026,0.061-0.002,0.08-0.034
				c0.019-0.032,0.034-0.063-0.01-0.087c-0.057-0.032-0.112-0.063-0.169-0.094C22.686,16.176,22.686,16.176,22.794,16.021z
				 M13.545,13c-0.032,0.229-0.028,0.448-0.043,0.666c-0.004,0.061,0.023,0.077,0.078,0.079c0.134,0.005,0.268,0.012,0.401,0.021
				c0.051,0.004,0.073-0.014,0.076-0.064c0.003-0.047-0.008-0.075-0.062-0.076c-0.075-0.001-0.149-0.006-0.224-0.012
				c-0.115-0.01-0.108-0.012-0.112-0.107c-0.003-0.096,0.055-0.088,0.117-0.084c0.06,0.003,0.119,0.006,0.178,0.01
				c0.042,0.003,0.066-0.009,0.069-0.055c0.003-0.048-0.011-0.075-0.064-0.076c-0.069,0-0.139-0.006-0.208-0.007
				c-0.059-0.001-0.077-0.029-0.073-0.085c0.004-0.055,0.024-0.079,0.084-0.073c0.078,0.008,0.158,0.009,0.237,0.014
				c0.045,0.002,0.076-0.007,0.077-0.063c0.002-0.057-0.031-0.063-0.075-0.067C13.854,13.006,13.707,12.997,13.545,13z
				 M23.98,16.489c0.069-0.165,0.013-0.283-0.17-0.364c-0.124-0.055-0.228-0.037-0.293,0.054c-0.074,0.101-0.065,0.18,0.035,0.292
				c0.046,0.052,0.095,0.102,0.137,0.156c0.021,0.027,0.032,0.063,0.006,0.097c-0.029,0.037-0.066,0.038-0.106,0.02
				c-0.076-0.034-0.136-0.077-0.135-0.175c0-0.047-0.081-0.105-0.113-0.091c-0.045,0.021-0.037,0.067-0.038,0.105
				c-0.004,0.155,0.183,0.312,0.359,0.306c0.096-0.002,0.156-0.055,0.196-0.135c0.039-0.076,0.021-0.146-0.03-0.208
				c-0.045-0.053-0.096-0.101-0.142-0.153c-0.035-0.041-0.08-0.083-0.032-0.142c0.033-0.039,0.101-0.027,0.16,0.024
				c0.027,0.023,0.056,0.05,0.053,0.086C23.861,16.447,23.92,16.466,23.98,16.489z M18.762,14.008
				c-0.006-0.102-0.062-0.167-0.155-0.197c-0.09-0.028-0.183-0.045-0.272-0.076c-0.059-0.021-0.082,0-0.096,0.052
				c-0.051,0.191-0.103,0.383-0.154,0.575c-0.012,0.044-0.006,0.076,0.045,0.092c0.056,0.017,0.088,0.013,0.108-0.055
				c0.051-0.172,0.056-0.171,0.217-0.134C18.635,14.306,18.766,14.196,18.762,14.008z"/>
			<path fill-rule="evenodd" clip-rule="evenodd" fill="#F8FBFA" d="M14.741,20.99c-0.058,0.048-0.112,0.097-0.17,0.143
				c-0.037,0.028-0.047,0.06-0.034,0.104c0.021,0.07,0.037,0.142,0.059,0.227c-0.085-0.021-0.138-0.067-0.192-0.104
				c-0.054-0.037-0.097-0.037-0.148,0s-0.107,0.068-0.162,0.102c-0.04-0.035-0.018-0.073-0.006-0.098
				c0.063-0.141,0.027-0.244-0.105-0.32c-0.023-0.013-0.051-0.03-0.058-0.067c0.055-0.026,0.116-0.029,0.174-0.025
				c0.093,0.007,0.132-0.039,0.158-0.119c0.018-0.055,0.029-0.116,0.078-0.158c0.038,0.087,0.056,0.199,0.121,0.251
				c0.06,0.047,0.17,0.03,0.259,0.042C14.722,20.969,14.729,20.979,14.741,20.99z"/>
			<path fill-rule="evenodd" clip-rule="evenodd" fill="#F8FBFA" d="M10.609,14.984c0.109-0.032,0.218,0.004,0.293-0.048
				c0.075-0.052,0.067-0.169,0.13-0.254c0.048,0.054,0.065,0.116,0.083,0.174c0.021,0.076,0.067,0.101,0.14,0.103
				c0.063,0.002,0.124,0.011,0.194,0.017c-0.032,0.061-0.079,0.092-0.123,0.119c-0.089,0.055-0.099,0.122-0.065,0.214
				c0.018,0.049,0.038,0.102,0.03,0.159c-0.062-0.012-0.11-0.05-0.154-0.085c-0.075-0.06-0.138-0.055-0.21,0.003
				c-0.041,0.034-0.092,0.057-0.149,0.092c-0.004-0.074,0.017-0.132,0.036-0.188c0.03-0.083,0.009-0.141-0.064-0.188
				C10.704,15.072,10.667,15.032,10.609,14.984z"/>
			<path fill-rule="evenodd" clip-rule="evenodd" fill="#F8FBFA" d="M17.857,19.94c0.033,0.083,0.061,0.146,0.084,0.211
				c0.019,0.054,0.052,0.077,0.11,0.077c0.067-0.001,0.135,0.006,0.218,0.011c-0.042,0.073-0.099,0.105-0.147,0.143
				c-0.058,0.044-0.084,0.089-0.055,0.165c0.023,0.058,0.03,0.123,0.051,0.209c-0.08-0.049-0.142-0.08-0.195-0.121
				c-0.053-0.04-0.094-0.036-0.146,0c-0.055,0.038-0.109,0.081-0.193,0.106c0.017-0.067,0.026-0.12,0.044-0.169
				c0.029-0.085,0.021-0.151-0.063-0.203c-0.045-0.028-0.091-0.061-0.125-0.121c0.073-0.03,0.147-0.019,0.218-0.022
				c0.052-0.002,0.081-0.021,0.101-0.07C17.784,20.089,17.8,20.015,17.857,19.94z"/>
			<path fill-rule="evenodd" clip-rule="evenodd" fill="#F8FBFA" d="M11.438,18.944c0.119-0.209,0.076-0.358-0.111-0.463
				c-0.007-0.003-0.007-0.017-0.014-0.041c0.039-0.002,0.077-0.01,0.113-0.005c0.139,0.019,0.214-0.043,0.24-0.177
				c0.007-0.033,0.027-0.063,0.047-0.106c0.06,0.054,0.069,0.124,0.092,0.185c0.024,0.064,0.059,0.098,0.13,0.095
				c0.063-0.002,0.126,0.006,0.206,0.01c-0.043,0.069-0.097,0.105-0.146,0.141c-0.062,0.044-0.081,0.093-0.057,0.165
				c0.02,0.06,0.032,0.123,0.05,0.193c-0.025-0.007-0.043-0.007-0.052-0.016c-0.147-0.146-0.292-0.127-0.437,0.004
				C11.493,18.936,11.48,18.935,11.438,18.944z"/>
			<path fill-rule="evenodd" clip-rule="evenodd" fill="#F8FBFA" d="M23.687,18.976c0.029,0.076,0.058,0.135,0.077,0.196
				c0.021,0.067,0.063,0.094,0.132,0.093c0.063,0,0.126,0.007,0.204,0.013c-0.044,0.07-0.104,0.106-0.156,0.146
				c-0.055,0.042-0.07,0.083-0.049,0.152c0.02,0.06,0.047,0.121,0.04,0.186c-0.031,0.017-0.052-0.004-0.067-0.018
				c-0.123-0.112-0.245-0.126-0.371-0.004c-0.016,0.016-0.037,0.033-0.067,0.028c-0.017-0.071,0.019-0.135,0.036-0.2
				c0.018-0.063,0.004-0.102-0.046-0.14c-0.054-0.04-0.104-0.085-0.179-0.147c0.104-0.007,0.175-0.014,0.247-0.018
				c0.051-0.002,0.079-0.024,0.099-0.073C23.613,19.122,23.628,19.047,23.687,18.976z"/>
			<path fill-rule="evenodd" clip-rule="evenodd" fill="#F8FBFA" d="M14.933,16.691c-0.066,0.097-0.169,0.12-0.182,0.197
				c-0.011,0.067,0.024,0.143,0.042,0.226c-0.062-0.007-0.102-0.042-0.142-0.072c-0.056-0.043-0.103-0.041-0.158,0.001
				c-0.038,0.029-0.077,0.062-0.128,0.07c-0.004-0.01-0.012-0.02-0.009-0.026c0.073-0.161,0.032-0.283-0.131-0.358
				c0.013-0.015,0.02-0.027,0.024-0.027c0.183,0.018,0.281-0.075,0.323-0.258C14.617,16.634,14.717,16.734,14.933,16.691z"/>
			<path fill-rule="evenodd" clip-rule="evenodd" fill="#F8FBFA" d="M23.617,20.544c0.007,0.008,0.012,0.011,0.013,0.015
				c0.037,0.148,0.114,0.245,0.285,0.223c0.012-0.001,0.024,0.012,0.056,0.028c-0.175,0.084-0.226,0.209-0.119,0.392
				c-0.078-0.01-0.119-0.045-0.157-0.075c-0.058-0.043-0.105-0.041-0.161,0.001c-0.038,0.028-0.077,0.06-0.149,0.075
				c0.077-0.169,0.072-0.309-0.105-0.381c0.008-0.047,0.038-0.046,0.059-0.043c0.144,0.017,0.219-0.052,0.246-0.188
				C23.587,20.574,23.605,20.561,23.617,20.544z"/>
			<path fill-rule="evenodd" clip-rule="evenodd" fill="#F8FBFA" d="M23.676,20.121c0.046-0.004,0.094-0.013,0.14-0.01
				c0.073,0.005,0.107-0.027,0.129-0.093c0.015-0.046,0.026-0.096,0.063-0.133c0.006,0.005,0.015,0.009,0.019,0.016
				c0.039,0.063,0.035,0.161,0.099,0.194c0.061,0.032,0.145,0.019,0.221,0.026c0,0.063-0.056,0.082-0.092,0.106
				c-0.068,0.048-0.083,0.099-0.055,0.177c0.015,0.039,0.036,0.082,0.024,0.128c-0.006,0-0.011,0.002-0.015,0.001
				c-0.077-0.019-0.128-0.112-0.207-0.099c-0.068,0.012-0.129,0.068-0.191,0.103c-0.031-0.023-0.017-0.048-0.008-0.067
				c0.052-0.12,0.037-0.218-0.089-0.282c-0.016-0.008-0.026-0.027-0.039-0.042C23.673,20.142,23.675,20.136,23.676,20.121z"/>
			<path fill-rule="evenodd" clip-rule="evenodd" fill="#F8FBFA" d="M18.665,18.298c0.054,0.063,0.047,0.161,0.108,0.21
				s0.153,0.001,0.225,0.036c-0.001,0.013,0.001,0.026-0.004,0.031c-0.052,0.053-0.143,0.081-0.154,0.153
				c-0.01,0.068,0.026,0.144,0.045,0.224c-0.048,0-0.08-0.024-0.105-0.047c-0.081-0.074-0.155-0.065-0.234,0.003
				c-0.025,0.021-0.055,0.043-0.091,0.044c-0.002-0.004-0.006-0.009-0.006-0.014c0-0.079,0.069-0.157,0.033-0.228
				c-0.031-0.061-0.104-0.101-0.158-0.15c0.009-0.012,0.013-0.023,0.02-0.025c0.074-0.023,0.166,0.022,0.225-0.042
				C18.616,18.441,18.614,18.355,18.665,18.298z"/>
			<path fill-rule="evenodd" clip-rule="evenodd" fill="#F8FBFA" d="M11.085,19.606c-0.115-0.027-0.168-0.117-0.243-0.112
				c-0.073,0.004-0.128,0.084-0.206,0.106c-0.017-0.084,0.056-0.156,0.032-0.231c-0.023-0.075-0.122-0.095-0.157-0.159
				c-0.003-0.02,0.003-0.024,0.017-0.025c0.212-0.016,0.212-0.016,0.31-0.236c0.043,0.016,0.049,0.058,0.057,0.092
				c0.027,0.109,0.094,0.154,0.204,0.141c0.028-0.003,0.058,0.003,0.087,0.006c-0.004,0.015-0.003,0.029-0.009,0.033
				C11.022,19.306,10.988,19.431,11.085,19.606z"/>
			<path fill-rule="evenodd" clip-rule="evenodd" fill="#F8FBFA" d="M22.031,21.708c0.006,0.003,0.012,0.004,0.013,0.006
				c0.043,0.161,0.122,0.271,0.318,0.214c0.002,0.075-0.052,0.095-0.088,0.121c-0.068,0.048-0.086,0.101-0.053,0.178
				c0.015,0.035,0.018,0.076,0.026,0.113c-0.015,0.006-0.024,0.014-0.031,0.012c-0.068-0.025-0.119-0.11-0.194-0.096
				c-0.068,0.013-0.13,0.066-0.195,0.103c-0.027-0.058,0.006-0.103,0.018-0.148c0.017-0.065,0.01-0.113-0.051-0.154
				c-0.038-0.026-0.084-0.05-0.1-0.101c0.011-0.008,0.019-0.018,0.025-0.017c0.152,0.016,0.256-0.036,0.284-0.199
				C22.006,21.727,22.022,21.717,22.031,21.708z"/>
			<path fill-rule="evenodd" clip-rule="evenodd" fill="#F8FBFA" d="M17.693,18.246c-0.019-0.1,0.061-0.177,0.022-0.248
				c-0.032-0.061-0.103-0.102-0.155-0.152c0.01-0.012,0.016-0.026,0.021-0.025c0.178,0.022,0.275-0.062,0.299-0.237
				c0.02,0.011,0.031,0.014,0.036,0.021c0.041,0.061,0.034,0.159,0.1,0.191c0.061,0.03,0.142,0.02,0.213,0.027
				c0,0.016,0.004,0.028-0.001,0.034c-0.045,0.058-0.141,0.081-0.15,0.156c-0.009,0.068,0.023,0.142,0.038,0.214
				c-0.055,0.01-0.084-0.022-0.112-0.045c-0.073-0.061-0.14-0.058-0.211,0.001C17.767,18.206,17.734,18.221,17.693,18.246z"/>
			<path fill-rule="evenodd" clip-rule="evenodd" fill="#F8FBFA" d="M13.624,19.659c-0.007,0.001-0.011,0.004-0.015,0.002
				c-0.076-0.02-0.129-0.112-0.207-0.099c-0.068,0.012-0.129,0.069-0.193,0.105c-0.006-0.014-0.014-0.022-0.013-0.03
				c0.01-0.073,0.063-0.146,0.034-0.215c-0.027-0.065-0.115-0.089-0.154-0.153c0.007-0.009,0.014-0.022,0.018-0.021
				c0.185,0.03,0.272-0.068,0.303-0.239c0.055,0.026,0.062,0.074,0.071,0.112c0.023,0.094,0.078,0.13,0.172,0.121
				c0.034-0.003,0.068,0.002,0.109,0.004c-0.003,0.063-0.054,0.084-0.09,0.108c-0.07,0.046-0.085,0.099-0.059,0.176
				C13.614,19.571,13.64,19.613,13.624,19.659z"/>
			<path fill-rule="evenodd" clip-rule="evenodd" fill="#F8FBFA" d="M19.916,22.15c0.087-0.025,0.182,0.019,0.239-0.041
				c0.047-0.049,0.063-0.129,0.093-0.195c0.014,0.006,0.025,0.008,0.03,0.015c0.039,0.062,0.034,0.159,0.1,0.191
				c0.063,0.031,0.145,0.021,0.218,0.028c-0.001,0.01,0.002,0.022-0.003,0.028c-0.045,0.059-0.139,0.082-0.151,0.155
				c-0.011,0.068,0.02,0.143,0.032,0.215c-0.015,0.003-0.025,0.008-0.031,0.006c-0.069-0.026-0.12-0.108-0.193-0.094
				c-0.068,0.013-0.127,0.068-0.191,0.106c-0.028-0.089,0.05-0.161,0.023-0.236C20.056,22.25,19.958,22.233,19.916,22.15z"/>
			<path fill-rule="evenodd" clip-rule="evenodd" fill="#F8FBFA" d="M21.714,21.168c0.072-0.045,0.156-0.007,0.208-0.055
				c0.045-0.042,0.038-0.12,0.089-0.166c0.088,0.175,0.088,0.175,0.286,0.213c-0.05,0.051-0.116,0.092-0.134,0.147
				c-0.018,0.053,0.016,0.123,0.032,0.212c-0.128-0.103-0.247-0.156-0.37-0.021c0.011-0.066,0.042-0.138,0.024-0.195
				C21.834,21.25,21.764,21.215,21.714,21.168z"/>
			<path fill-rule="evenodd" clip-rule="evenodd" fill="#F8FBFA" d="M21.023,21.139c0.05,0.052,0.041,0.139,0.1,0.18
				c0.051,0.036,0.124,0,0.202,0.038c-0.141,0.08-0.189,0.188-0.116,0.343c-0.127-0.092-0.245-0.137-0.37,0.012
				c0.059-0.163,0.047-0.283-0.125-0.347c0.09-0.051,0.172-0.003,0.223-0.055C20.98,21.265,20.979,21.188,21.023,21.139z"/>
			<path fill-rule="evenodd" clip-rule="evenodd" fill="#F8FBFA" d="M25.21,19.408c-0.146,0.075-0.191,0.179-0.121,0.333
				c-0.126-0.071-0.245-0.147-0.357,0.038c-0.021-0.109,0.046-0.177,0.015-0.235c-0.028-0.053-0.091-0.087-0.142-0.133
				c0.073-0.046,0.155-0.004,0.209-0.053c0.048-0.043,0.041-0.122,0.09-0.168C24.998,19.362,24.998,19.362,25.21,19.408z"/>
			<path fill-rule="evenodd" clip-rule="evenodd" fill="#F8FBFA" d="M12.904,20.519c0.097-0.169,0.041-0.274-0.091-0.353
				c0.077-0.047,0.162,0.004,0.21-0.05c0.04-0.045,0.055-0.113,0.082-0.173c0.056,0.055,0.043,0.148,0.104,0.181
				c0.051,0.027,0.121,0.019,0.19,0.027c-0.032,0.078-0.13,0.09-0.139,0.159c-0.008,0.059,0.021,0.123,0.035,0.188
				c-0.081-0.007-0.124-0.095-0.192-0.083C13.045,20.425,12.993,20.471,12.904,20.519z"/>
			<path fill-rule="evenodd" clip-rule="evenodd" fill="#F8FBFA" d="M19.481,15.896c0.09-0.053,0.171-0.009,0.225-0.059
				c0.047-0.043,0.041-0.121,0.101-0.18c0.033,0.146,0.1,0.247,0.248,0.208c0.024,0.013,0.027,0.024,0.018,0.031
				c-0.117,0.078-0.156,0.18-0.092,0.326c-0.126-0.079-0.245-0.142-0.368,0.019C19.657,16.082,19.672,15.952,19.481,15.896z"/>
			<path fill-rule="evenodd" clip-rule="evenodd" fill="#F8FBFA" d="M16.74,18.453c0.045,0.149,0.117,0.24,0.296,0.181
				c-0.038,0.097-0.129,0.112-0.146,0.18c-0.016,0.06,0.048,0.118,0.016,0.196c-0.112-0.101-0.226-0.128-0.335,0.02
				c-0.026-0.1,0.047-0.167,0.012-0.229c-0.029-0.052-0.084-0.09-0.15-0.157C16.607,18.673,16.702,18.612,16.74,18.453z"/>
			<path fill-rule="evenodd" clip-rule="evenodd" fill="#F8FBFA" d="M23.005,21.502c-0.172-0.084-0.172-0.084-0.344,0.001
				c-0.027-0.07,0.046-0.134,0.017-0.201c-0.025-0.059-0.105-0.073-0.136-0.152c0.154,0.024,0.253-0.03,0.286-0.197
				c0.054,0.141,0.13,0.236,0.297,0.192c-0.031,0.088-0.123,0.101-0.141,0.17C22.969,21.378,23.031,21.436,23.005,21.502z"/>
			<path fill-rule="evenodd" clip-rule="evenodd" fill="#F8FBFA" d="M22.313,22.866c-0.15,0.066-0.162,0.182-0.092,0.346
				c-0.139-0.094-0.252-0.173-0.354-0.007c-0.05-0.092,0.03-0.155,0-0.219c-0.026-0.057-0.101-0.075-0.138-0.153
				c0.156,0.017,0.26-0.032,0.271-0.194C22.011,22.646,22.301,22.858,22.313,22.866z"/>
			<path fill-rule="evenodd" clip-rule="evenodd" fill="#F8FBFA" d="M19.404,21.476c-0.028-0.067,0.037-0.125,0.019-0.187
				c-0.021-0.064-0.1-0.08-0.13-0.138c0.005-0.008,0.01-0.021,0.013-0.021c0.146,0.02,0.229-0.052,0.257-0.201
				c0.066,0.053,0.054,0.135,0.104,0.174c0.055,0.042,0.126,0.01,0.19,0.03c-0.013,0.077-0.107,0.086-0.129,0.152
				c-0.021,0.064,0.043,0.122,0.02,0.19c-0.067-0.007-0.106-0.077-0.17-0.079C19.511,21.394,19.472,21.467,19.404,21.476z"/>
			<path fill-rule="evenodd" clip-rule="evenodd" fill="#F8FBFA" d="M12.72,17.952c-0.118,0.118-0.118,0.118-0.104,0.266
				c-0.087-0.064-0.171-0.069-0.251,0c-0.024-0.057,0.033-0.105,0.004-0.148c-0.023-0.035-0.064-0.058-0.123-0.107
				c0.136,0,0.217-0.033,0.233-0.171C12.527,17.9,12.575,17.981,12.72,17.952z"/>
			<path fill-rule="evenodd" clip-rule="evenodd" fill="#F8FBFA" d="M17.568,19.122c-0.104,0.11-0.104,0.11-0.093,0.251
				c-0.128-0.055-0.128-0.055-0.255,0.005c0.02-0.097,0.023-0.187-0.107-0.243c0.122-0.013,0.21-0.037,0.228-0.188
				C17.389,19.072,17.444,19.143,17.568,19.122z"/>
			<path fill-rule="evenodd" clip-rule="evenodd" fill="#F8FBFA" d="M17.971,23.243c-0.066-0.044-0.121-0.042-0.181,0.006
				c-0.002-0.067,0.015-0.131-0.05-0.161c0.02-0.042,0.061-0.02,0.08-0.041s0.034-0.046,0.062-0.084
				c0.023,0.073,0.074,0.102,0.152,0.109C17.966,23.118,17.94,23.167,17.971,23.243z"/>
			<path fill-rule="evenodd" clip-rule="evenodd" fill="#F8FBFA" d="M20.646,13.93c-0.075-0.047-0.14-0.084-0.2-0.125
				c-0.038-0.026-0.069-0.027-0.107,0c-0.061,0.042-0.125,0.078-0.189,0.118c-0.024-0.045-0.01-0.086,0.005-0.118
				c0.059-0.131,0.02-0.223-0.099-0.294c-0.028-0.017-0.061-0.035-0.069-0.067c-0.002-0.016,0.004-0.02,0.017-0.022
				c0.092-0.017,0.201,0.026,0.271-0.044c0.061-0.061,0.06-0.165,0.124-0.254c0.029,0.072,0.056,0.132,0.077,0.193
				c0.021,0.064,0.06,0.097,0.13,0.096c0.064,0,0.128,0.007,0.204,0.012c-0.037,0.071-0.1,0.104-0.151,0.145
				c-0.053,0.042-0.074,0.082-0.051,0.151C20.628,13.778,20.651,13.84,20.646,13.93z"/>
			<path fill-rule="evenodd" clip-rule="evenodd" fill="#11984A" d="M14.986,13.408c-0.043,0.115-0.087,0.229-0.129,0.344
				c-0.018,0.049-0.033,0.089-0.102,0.083c-0.068-0.006-0.096-0.038-0.103-0.102c-0.011-0.099-0.025-0.197-0.039-0.295
				c-0.005-0.032,0.004-0.072-0.047-0.091c-0.014,0.129-0.028,0.255-0.041,0.381c-0.004,0.044-0.013,0.078-0.069,0.072
				c-0.052-0.004-0.084-0.021-0.077-0.082c0.022-0.203,0.043-0.405,0.063-0.607c0.005-0.043,0.03-0.055,0.071-0.057
				c0.143-0.006,0.166,0.012,0.188,0.16c0.019,0.122,0.036,0.244,0.066,0.368c0.081-0.124,0.115-0.265,0.171-0.396
				c0.018-0.043,0.029-0.077,0.09-0.077c0.16,0.001,0.169,0.006,0.153,0.167c-0.017,0.173-0.038,0.345-0.056,0.518
				c-0.004,0.047-0.017,0.074-0.071,0.07c-0.054-0.004-0.084-0.022-0.075-0.082C14.997,13.66,15.013,13.538,14.986,13.408z"/>
			<path fill-rule="evenodd" clip-rule="evenodd" fill="#11984A" d="M22.206,16.049c-0.043,0.006-0.064-0.018-0.092-0.027
				c-0.05-0.018-0.056-0.051-0.036-0.094c0.011-0.022,0.021-0.045,0.029-0.068c0.045-0.118-0.027-0.229-0.154-0.234
				c-0.021-0.001-0.038,0.007-0.048,0.027c-0.018,0.036-0.036,0.071-0.054,0.106c-0.058,0.114-0.058,0.114-0.185,0.027
				c0.095-0.194,0.192-0.388,0.285-0.584c0.024-0.051,0.052-0.066,0.104-0.039c0.093,0.049,0.189,0.089,0.278,0.142
				c0.172,0.102,0.175,0.273,0.006,0.375c-0.039,0.023-0.064,0.031-0.049,0.083c0.016,0.05-0.015,0.096-0.031,0.143
				S22.226,15.997,22.206,16.049z M22.296,15.476c-0.003-0.01-0.004-0.027-0.013-0.037c-0.051-0.058-0.121-0.087-0.191-0.106
				c-0.043-0.012-0.051,0.04-0.063,0.069c-0.014,0.029-0.047,0.056-0.021,0.094c0.021,0.028,0.186,0.094,0.217,0.084
				C22.273,15.566,22.295,15.531,22.296,15.476z"/>
			<path fill-rule="evenodd" clip-rule="evenodd" fill="#11984A" d="M12.214,13.729c-0.173,0.038-0.175-0.009-0.188-0.111
				c-0.019-0.152-0.065-0.185-0.213-0.16c-0.041,0.007-0.062,0.024-0.06,0.067c0.001,0.05-0.001,0.1,0.003,0.149
				c0.005,0.057-0.018,0.079-0.075,0.08c-0.056,0-0.078-0.019-0.079-0.077c-0.005-0.194-0.012-0.387-0.021-0.581
				c-0.003-0.063,0.018-0.091,0.083-0.091c0.104,0.001,0.209-0.007,0.313-0.002c0.186,0.009,0.271,0.163,0.174,0.324
				c-0.026,0.046-0.028,0.065-0.001,0.11C12.201,13.523,12.179,13.628,12.214,13.729z M11.87,13.328
				c0.016-0.002,0.055-0.002,0.093-0.011c0.044-0.009,0.066-0.041,0.066-0.085c0.002-0.05-0.02-0.088-0.07-0.097
				c-0.038-0.006-0.078-0.002-0.117-0.005c-0.074-0.004-0.105,0.024-0.098,0.104C11.753,13.327,11.748,13.328,11.87,13.328z"/>
			<path fill-rule="evenodd" clip-rule="evenodd" fill="#11984A" d="M19.484,14.863c-0.035-0.008-0.064-0.014-0.092-0.021
				c-0.046-0.013-0.065-0.042-0.054-0.089c0.007-0.024,0.015-0.047,0.021-0.072c0.025-0.122-0.063-0.22-0.19-0.21
				c-0.031,0.002-0.037,0.025-0.045,0.049c-0.017,0.052-0.036,0.103-0.05,0.156s-0.041,0.057-0.088,0.041
				c-0.049-0.016-0.078-0.032-0.059-0.093c0.062-0.193,0.119-0.388,0.179-0.582c0.015-0.046,0.04-0.062,0.089-0.044
				c0.103,0.037,0.209,0.063,0.31,0.104c0.169,0.068,0.203,0.232,0.07,0.351c-0.048,0.043-0.052,0.069-0.047,0.131
				C19.534,14.674,19.502,14.766,19.484,14.863z M19.488,14.292c-0.002-0.01-0.002-0.02-0.006-0.029
				c-0.017-0.044-0.194-0.121-0.233-0.096c-0.047,0.029-0.042,0.086-0.057,0.132c-0.012,0.04,0.025,0.047,0.054,0.056
				c0.047,0.015,0.094,0.033,0.143,0.039C19.448,14.401,19.491,14.353,19.488,14.292z"/>
			<path fill-rule="evenodd" clip-rule="evenodd" fill="#11984A" d="M21.54,15.156c-0.075-0.021-0.12-0.042-0.146-0.119
				c-0.046-0.139-0.213-0.165-0.313-0.057c-0.049,0.052-0.079,0.115-0.095,0.184c-0.022,0.095,0.009,0.177,0.08,0.224
				c0.077,0.051,0.14,0.042,0.238-0.035c0-0.047-0.043-0.047-0.071-0.061c-0.047-0.021-0.054-0.049-0.03-0.094
				c0.021-0.042,0.044-0.038,0.083-0.024c0.232,0.079,0.232,0.078,0.136,0.303c-0.014,0.032-0.026,0.064-0.042,0.095
				c-0.035,0.07-0.075,0.079-0.113,0.009c-0.023-0.043-0.041-0.04-0.076-0.039c-0.275,0.005-0.43-0.203-0.346-0.465
				c0.028-0.087,0.07-0.165,0.142-0.223c0.117-0.096,0.244-0.102,0.377-0.038c0.12,0.059,0.199,0.146,0.193,0.29
				C21.558,15.119,21.549,15.132,21.54,15.156z"/>
			<path fill-rule="evenodd" clip-rule="evenodd" fill="#11984A" d="M10.901,13.051c0.218,0.001,0.359,0.16,0.359,0.405
				c0,0.226-0.149,0.378-0.371,0.377c-0.214-0.001-0.359-0.167-0.359-0.409C10.53,13.196,10.676,13.05,10.901,13.051z
				 M11.101,13.432c-0.002-0.016-0.003-0.051-0.012-0.084c-0.026-0.105-0.104-0.167-0.2-0.165c-0.108,0.002-0.177,0.067-0.195,0.186
				c-0.012,0.076-0.001,0.149,0.031,0.217c0.051,0.105,0.179,0.142,0.279,0.083C11.088,13.62,11.104,13.539,11.101,13.432z"/>
			<path fill-rule="evenodd" clip-rule="evenodd" fill="#11984A" d="M20.241,15.153c-0.216,0.001-0.375-0.152-0.373-0.358
				c0.002-0.239,0.163-0.426,0.367-0.426c0.214,0,0.383,0.159,0.379,0.357C20.61,14.96,20.442,15.152,20.241,15.153z M20.242,15.014
				c0.017-0.005,0.047-0.01,0.072-0.023c0.105-0.057,0.174-0.259,0.126-0.368c-0.054-0.125-0.228-0.156-0.322-0.055
				c-0.067,0.071-0.1,0.16-0.096,0.258C20.026,14.938,20.116,15.018,20.242,15.014z"/>
			<path fill-rule="evenodd" clip-rule="evenodd" fill="#11984A" d="M12.562,13.351c0-0.099,0.001-0.198,0-0.297
				c-0.001-0.055,0.02-0.082,0.078-0.079c0.099,0.005,0.198-0.003,0.297,0.016c0.049,0.01,0.096,0.024,0.137,0.055
				c0.108,0.082,0.151,0.281,0.097,0.454c-0.046,0.146-0.138,0.216-0.296,0.223c-0.08,0.003-0.159-0.003-0.238,0
				c-0.067,0.003-0.085-0.026-0.082-0.088c0.004-0.094,0.001-0.188,0.001-0.283C12.557,13.351,12.56,13.351,12.562,13.351z
				 M12.711,13.349c-0.001,0-0.002,0-0.003,0c0,0.059-0.001,0.119,0,0.178c0,0.025,0.003,0.048,0.031,0.06
				c0.08,0.034,0.229-0.011,0.264-0.086c0.043-0.094,0.044-0.193,0.006-0.289c-0.033-0.083-0.125-0.117-0.242-0.096
				c-0.096,0.017-0.042,0.095-0.055,0.145C12.705,13.288,12.711,13.319,12.711,13.349z"/>
			<path fill-rule="evenodd" clip-rule="evenodd" fill="#11984A" d="M25.613,17.539c0.003,0.213-0.193,0.425-0.396,0.427
				c-0.193,0.002-0.37-0.165-0.372-0.352c-0.003-0.207,0.203-0.429,0.397-0.431C25.432,17.181,25.611,17.353,25.613,17.539z
				 M25.192,17.824c0.117,0.002,0.259-0.145,0.271-0.277c0.008-0.083-0.026-0.144-0.096-0.188c-0.065-0.041-0.132-0.042-0.197-0.002
				c-0.089,0.054-0.147,0.132-0.168,0.234C24.978,17.709,25.072,17.822,25.192,17.824z"/>
			<path fill-rule="evenodd" clip-rule="evenodd" fill="#11984A" d="M24.759,17.01c-0.063-0.022-0.111-0.05-0.106-0.135
				c0.004-0.067-0.057-0.1-0.111-0.126c-0.035-0.017-0.068-0.013-0.096,0.016c-0.031,0.031-0.022,0.065-0.001,0.095
				c0.048,0.063,0.103,0.122,0.15,0.185c0.071,0.095,0.077,0.164,0.022,0.247c-0.048,0.071-0.112,0.109-0.201,0.105
				c-0.162-0.007-0.334-0.16-0.335-0.304c0-0.047-0.011-0.118,0.053-0.12c0.047-0.002,0.106,0.031,0.1,0.105
				c-0.008,0.083,0.047,0.126,0.108,0.163c0.041,0.023,0.087,0.038,0.123-0.004c0.03-0.035,0.019-0.077-0.006-0.111
				c-0.038-0.052-0.081-0.101-0.122-0.151c-0.092-0.112-0.098-0.2-0.021-0.293c0.07-0.086,0.177-0.1,0.297-0.038
				c0.146,0.075,0.21,0.181,0.187,0.306C24.795,16.974,24.783,16.995,24.759,17.01z"/>
			<path fill-rule="evenodd" clip-rule="evenodd" fill="#11984A" d="M16.6,13.618c0.085,0.043,0.182,0.048,0.272,0.069
				c0.05,0.012,0.065,0.032,0.054,0.082c-0.011,0.046-0.033,0.055-0.074,0.045c-0.063-0.014-0.128-0.02-0.189-0.039
				c-0.078-0.024-0.104,0.007-0.121,0.079c-0.019,0.074,0.009,0.097,0.077,0.106c0.083,0.013,0.164,0.038,0.247,0.053
				c0.046,0.009,0.057,0.033,0.047,0.074c-0.01,0.041-0.021,0.075-0.078,0.062c-0.14-0.033-0.281-0.063-0.422-0.091
				c-0.051-0.01-0.063-0.034-0.052-0.083c0.043-0.189,0.084-0.378,0.122-0.568c0.014-0.069,0.044-0.09,0.112-0.074
				c0.12,0.03,0.242,0.055,0.363,0.082c0.039,0.008,0.078,0.008,0.064,0.071c-0.014,0.062-0.047,0.066-0.097,0.055
				c-0.059-0.013-0.117-0.024-0.176-0.036C16.627,13.478,16.627,13.478,16.6,13.618z"/>
			<path fill-rule="evenodd" clip-rule="evenodd" fill="#11984A" d="M22.794,16.021c-0.108,0.155-0.108,0.155,0.043,0.239
				c0.057,0.031,0.112,0.063,0.169,0.094c0.044,0.024,0.028,0.055,0.01,0.087c-0.02,0.032-0.035,0.06-0.08,0.034
				c-0.129-0.074-0.26-0.146-0.391-0.217c-0.036-0.021-0.047-0.043-0.023-0.083c0.104-0.181,0.204-0.363,0.305-0.546
				c0.021-0.041,0.049-0.042,0.085-0.022c0.121,0.068,0.242,0.136,0.363,0.203c0.039,0.021,0.045,0.046,0.025,0.085
				c-0.023,0.047-0.054,0.051-0.096,0.027c-0.072-0.042-0.148-0.08-0.22-0.125c-0.059-0.036-0.076,0-0.102,0.042
				c-0.024,0.042-0.026,0.07,0.022,0.095c0.066,0.034,0.13,0.073,0.195,0.108c0.035,0.019,0.055,0.038,0.032,0.081
				c-0.021,0.042-0.046,0.061-0.093,0.033C22.958,16.109,22.876,16.065,22.794,16.021z"/>
			<path fill-rule="evenodd" clip-rule="evenodd" fill="#11984A" d="M13.545,13c0.162-0.003,0.31,0.006,0.457,0.02
				c0.044,0.004,0.077,0.01,0.075,0.067c-0.001,0.056-0.032,0.065-0.077,0.063c-0.079-0.005-0.159-0.005-0.237-0.014
				c-0.06-0.006-0.08,0.019-0.084,0.073c-0.004,0.056,0.015,0.084,0.073,0.085c0.069,0.001,0.139,0.007,0.208,0.007
				c0.054,0,0.067,0.028,0.064,0.076c-0.003,0.046-0.027,0.059-0.069,0.055c-0.059-0.004-0.118-0.007-0.178-0.01
				c-0.063-0.004-0.12-0.012-0.117,0.084c0.004,0.095-0.003,0.097,0.112,0.107c0.074,0.006,0.148,0.011,0.224,0.012
				c0.054,0,0.064,0.028,0.062,0.076c-0.003,0.051-0.025,0.068-0.076,0.064c-0.134-0.009-0.268-0.016-0.401-0.021
				c-0.055-0.001-0.082-0.018-0.078-0.079C13.517,13.448,13.513,13.229,13.545,13z"/>
			<path fill-rule="evenodd" clip-rule="evenodd" fill="#11984A" d="M23.98,16.489c-0.061-0.023-0.119-0.042-0.113-0.127
				c0.003-0.036-0.025-0.063-0.053-0.086c-0.06-0.051-0.127-0.063-0.16-0.024c-0.048,0.059-0.003,0.101,0.032,0.142
				c0.046,0.052,0.097,0.1,0.142,0.153c0.052,0.062,0.069,0.131,0.03,0.208c-0.04,0.08-0.101,0.132-0.196,0.135
				c-0.177,0.005-0.363-0.151-0.359-0.306c0.001-0.038-0.007-0.084,0.038-0.105c0.032-0.015,0.113,0.043,0.113,0.091
				c-0.001,0.098,0.059,0.141,0.135,0.175c0.04,0.019,0.077,0.017,0.106-0.02c0.026-0.033,0.015-0.07-0.006-0.097
				c-0.042-0.055-0.091-0.104-0.137-0.156c-0.101-0.112-0.109-0.19-0.035-0.292c0.065-0.09,0.169-0.109,0.293-0.054
				C23.993,16.207,24.05,16.325,23.98,16.489z"/>
			<path fill-rule="evenodd" clip-rule="evenodd" fill="#11984A" d="M18.762,14.008c0.004,0.188-0.127,0.298-0.308,0.257
				c-0.161-0.037-0.166-0.038-0.217,0.134c-0.021,0.068-0.053,0.072-0.108,0.055c-0.051-0.016-0.057-0.048-0.045-0.092
				c0.052-0.192,0.104-0.384,0.154-0.575c0.014-0.052,0.037-0.073,0.096-0.052c0.09,0.031,0.183,0.048,0.272,0.076
				C18.7,13.841,18.756,13.906,18.762,14.008z M18.502,14.132c0.063-0.003,0.105-0.055,0.099-0.122
				c-0.006-0.059-0.106-0.12-0.188-0.114c-0.038,0.002-0.084,0.089-0.083,0.156C18.33,14.09,18.427,14.135,18.502,14.132z"/>
			<path fill-rule="evenodd" clip-rule="evenodd" fill="#F8FBFA" d="M22.296,15.476c-0.001,0.055-0.022,0.09-0.071,0.105
				c-0.031,0.01-0.196-0.056-0.217-0.084c-0.026-0.038,0.007-0.065,0.021-0.094c0.013-0.029,0.021-0.081,0.063-0.069
				c0.07,0.019,0.141,0.048,0.191,0.106C22.292,15.449,22.293,15.466,22.296,15.476z"/>
			<path fill-rule="evenodd" clip-rule="evenodd" fill="#F8FBFA" d="M11.87,13.328c-0.122,0-0.117-0.001-0.126-0.094
				c-0.008-0.08,0.023-0.108,0.098-0.104c0.039,0.002,0.079-0.001,0.117,0.005c0.051,0.009,0.072,0.047,0.07,0.097
				c0,0.044-0.022,0.076-0.066,0.085C11.925,13.326,11.886,13.326,11.87,13.328z"/>
			<path fill-rule="evenodd" clip-rule="evenodd" fill="#F8FBFA" d="M19.488,14.292c0.003,0.06-0.04,0.109-0.1,0.102
				c-0.049-0.006-0.096-0.024-0.143-0.039c-0.028-0.008-0.065-0.016-0.054-0.056c0.015-0.045,0.01-0.103,0.057-0.132
				c0.039-0.025,0.217,0.052,0.233,0.096C19.486,14.272,19.486,14.283,19.488,14.292z"/>
			<path fill-rule="evenodd" clip-rule="evenodd" fill="#F8FBFA" d="M11.101,13.432c0.003,0.107-0.013,0.188-0.097,0.237
				c-0.101,0.059-0.229,0.021-0.279-0.083c-0.032-0.068-0.043-0.142-0.031-0.217c0.019-0.119,0.087-0.184,0.195-0.186
				c0.097-0.002,0.174,0.06,0.2,0.165C11.098,13.381,11.099,13.416,11.101,13.432z"/>
			<path fill-rule="evenodd" clip-rule="evenodd" fill="#F8FBFA" d="M20.242,15.014c-0.126,0.004-0.216-0.076-0.22-0.188
				c-0.004-0.099,0.028-0.187,0.096-0.258c0.095-0.101,0.269-0.07,0.322,0.055c0.048,0.109-0.021,0.311-0.126,0.368
				C20.289,15.004,20.259,15.009,20.242,15.014z"/>
			<path fill-rule="evenodd" clip-rule="evenodd" fill="#F8FBFA" d="M12.711,13.349c0-0.03-0.006-0.061,0.001-0.089
				c0.013-0.05-0.041-0.127,0.055-0.145c0.117-0.021,0.209,0.013,0.242,0.096c0.038,0.096,0.037,0.195-0.006,0.289
				c-0.035,0.076-0.184,0.121-0.264,0.086c-0.028-0.012-0.031-0.035-0.031-0.06c-0.001-0.06,0-0.119,0-0.178
				C12.709,13.349,12.71,13.349,12.711,13.349z"/>
			<path fill-rule="evenodd" clip-rule="evenodd" fill="#F8FBFA" d="M25.192,17.824c-0.12-0.002-0.215-0.115-0.19-0.232
				c0.021-0.102,0.079-0.18,0.168-0.234c0.065-0.039,0.132-0.038,0.197,0.002c0.069,0.043,0.104,0.104,0.096,0.188
				C25.451,17.679,25.31,17.826,25.192,17.824z"/>
			<path fill-rule="evenodd" clip-rule="evenodd" fill="#F8FBFA" d="M18.502,14.132c-0.075,0.003-0.172-0.042-0.172-0.08
				c-0.001-0.067,0.045-0.154,0.083-0.156c0.081-0.005,0.182,0.056,0.188,0.114C18.607,14.077,18.565,14.129,18.502,14.132z"/>
		</g>
	</g>
</g>
<g id="Imagenes">
</g>
<g id="Cintillos">
</g>
<g id="Botones">
</g>
<g id="TXT">
</g>
<g id="Logo">
</g>
<g id="Guia">
</g>
</svg>
