<?xml version="1.0" encoding="utf-8"?>
<!-- Generator: Adobe Illustrator 16.0.0, SVG Export Plug-In . SVG Version: 6.00 Build 0)  -->
<!DOCTYPE svg PUBLIC "-//W3C//DTD SVG 1.1//EN" "http://www.w3.org/Graphics/SVG/1.1/DTD/svg11.dtd">
<svg version="1.1" xmlns="http://www.w3.org/2000/svg" xmlns:xlink="http://www.w3.org/1999/xlink" x="0px" y="0px"
	 width="34.417px" height="34.25px" viewBox="0 0 34.417 34.25" enable-background="new 0 0 34.417 34.25" xml:space="preserve">
<g id="Soporte">
</g>
<g id="Publicidad">
</g>
<g id="Iconos">
	<g>
		<defs>
			<circle id="SVGID_83_" cx="-18.4" cy="16.595" r="15.917"/>
		</defs>
		<clipPath id="SVGID_2_">
			<use xlink:href="#SVGID_83_"  overflow="visible"/>
		</clipPath>
		<g clip-path="url(#SVGID_2_)">
			<path fill-rule="evenodd" clip-rule="evenodd" fill="#D42B1E" d="M16.438,33.215c-17.856,0-35.712,0-53.568,0.007
				c-0.246,0-0.268-0.068-0.268-0.262c0.006-5.437,0.005-10.874,0.005-16.311c0.122-0.043,0.249-0.022,0.373-0.022
				c5.738-0.001,11.475-0.001,17.212-0.002c0.115,0,0.231-0.012,0.347-0.019c0.125,0.005,0.25,0.014,0.375,0.014
				c11.732,0,23.464,0.001,35.197-0.006c0.275,0,0.333,0.065,0.333,0.312C16.436,22.356,16.438,27.786,16.438,33.215z"/>
			<path fill-rule="evenodd" clip-rule="evenodd" fill="#FEFEFE" d="M16.438,33.215c0-5.43-0.002-10.859,0.006-16.289
				c0-0.247-0.053-0.312-0.308-0.312c-10.843,0.007-21.685,0.006-32.527,0.006c-0.116,0-0.231-0.009-0.347-0.014
				c0.002-0.049,0.006-0.099,0.006-0.149c0-5.409,0-10.817,0-16.226c0-0.066-0.007-0.132-0.011-0.198
				c11.002,0,22.005,0,33.008-0.005c0.187,0,0.229,0.042,0.229,0.229c-0.006,10.912-0.005,21.823-0.008,32.734
				C16.485,33.064,16.542,33.16,16.438,33.215z"/>
		</g>
	</g>
	<g>
		<defs>
			<circle id="SVGID_85_" cx="17.783" cy="16.595" r="15.917"/>
		</defs>
		<clipPath id="SVGID_4_">
			<use xlink:href="#SVGID_85_"  overflow="visible"/>
		</clipPath>
		<g clip-path="url(#SVGID_4_)">
			<path fill-rule="evenodd" clip-rule="evenodd" fill="#FE0000" d="M7.068,0.463c0,10.809,0,21.616,0,32.424
				c-5.59,0-11.182-0.001-16.773,0.004c-0.182,0-0.218-0.034-0.218-0.207c0.006-10.673,0.006-21.346,0-32.019
				c0-0.173,0.036-0.208,0.218-0.207C-4.114,0.464,1.478,0.463,7.068,0.463z"/>
			<path fill-rule="evenodd" clip-rule="evenodd" fill="#FFFFFF" d="M28.525,0.463c0,10.809,0,21.616,0,32.424
				c-7.102,0-14.205-0.001-21.306,0.004c-0.232,0-0.277-0.034-0.277-0.207c0.008-10.673,0.008-21.346,0-32.019
				c0-0.173,0.045-0.208,0.277-0.207C14.32,0.464,21.423,0.463,28.525,0.463z"/>
			<path fill-rule="evenodd" clip-rule="evenodd" fill="#FE0000" d="M28.305,32.888c0-10.808,0-21.616,0-32.424
				c5.631,0,11.262,0.001,16.894-0.004c0.183,0,0.219,0.034,0.219,0.207c-0.007,10.673-0.007,21.346,0,32.019
				c0,0.173-0.036,0.208-0.219,0.207C39.566,32.887,33.936,32.888,28.305,32.888z"/>
			<path fill-rule="evenodd" clip-rule="evenodd" fill="#FE0101" d="M14.229,9.778c0.199,0.102,0.379,0.191,0.557,0.283
				c0.218,0.112,0.433,0.231,0.653,0.339c0.38,0.185,0.597,0.111,0.796-0.26c0.498-0.928,0.995-1.856,1.492-2.782
				c0.07,0.005,0.073,0.063,0.093,0.101c0.48,0.891,0.958,1.782,1.436,2.672c0.209,0.39,0.42,0.458,0.823,0.256
				c0.337-0.169,0.67-0.345,1.004-0.518c0.053-0.027,0.106-0.052,0.188-0.091c-0.093,0.496-0.182,0.963-0.27,1.431
				c-0.195,1.036-0.392,2.071-0.585,3.107c-0.021,0.117-0.032,0.237-0.012,0.358c0.041,0.251,0.225,0.353,0.46,0.251
				c0.102-0.044,0.178-0.119,0.251-0.2c0.61-0.685,1.221-1.37,1.832-2.053c0.04-0.044,0.081-0.085,0.14-0.147
				c0.103,0.355,0.199,0.691,0.296,1.026c0.092,0.318,0.25,0.411,0.577,0.342c0.755-0.161,1.51-0.321,2.265-0.481
				c0.034-0.007,0.069-0.009,0.131-0.017c-0.023,0.092-0.041,0.17-0.062,0.247c-0.225,0.826-0.454,1.65-0.675,2.476
				c-0.096,0.358-0.053,0.434,0.28,0.585c0.272,0.124,0.542,0.252,0.811,0.378c0,0.073-0.06,0.091-0.099,0.123
				c-1.354,1.101-2.708,2.2-4.062,3.3c-0.047,0.038-0.093,0.076-0.138,0.116c-0.187,0.169-0.248,0.373-0.173,0.617
				c0.121,0.394,0.239,0.788,0.364,1.205c-0.497-0.068-0.976-0.133-1.456-0.2c-0.902-0.125-1.803-0.253-2.705-0.376
				c-0.306-0.042-0.484,0.126-0.477,0.446c0.034,1.415,0.067,2.83,0.11,4.244c0.005,0.171-0.047,0.213-0.205,0.199
				c-0.166-0.016-0.387,0.051-0.485-0.033c-0.104-0.09-0.014-0.314-0.007-0.479c0.054-1.318,0.11-2.636,0.166-3.954
				c0.011-0.281-0.18-0.462-0.465-0.425c-0.814,0.107-1.625,0.223-2.439,0.335c-0.575,0.08-1.149,0.16-1.75,0.244
				c0.117-0.386,0.226-0.749,0.335-1.111c0.118-0.387,0.068-0.544-0.26-0.811c-1.354-1.1-2.708-2.2-4.061-3.3
				c-0.044-0.036-0.105-0.059-0.127-0.136c0.291-0.136,0.581-0.274,0.873-0.407c0.25-0.114,0.313-0.207,0.243-0.48
				c-0.138-0.545-0.292-1.086-0.439-1.628c-0.094-0.346-0.184-0.694-0.287-1.038c-0.039-0.127-0.009-0.144,0.108-0.119
				c0.744,0.16,1.488,0.315,2.23,0.474c0.365,0.078,0.512-0.006,0.613-0.359c0.093-0.326,0.185-0.652,0.279-0.98
				c0.076,0.017,0.102,0.077,0.14,0.12c0.617,0.688,1.231,1.376,1.845,2.066c0.068,0.077,0.141,0.146,0.237,0.189
				c0.241,0.109,0.434,0.005,0.469-0.256c0.035-0.256-0.042-0.5-0.087-0.746c-0.25-1.348-0.506-2.695-0.76-4.042
				C14.237,9.854,14.235,9.832,14.229,9.778z"/>
		</g>
	</g>
	<g>
		<defs>
			<circle id="SVGID_87_" cx="56.783" cy="16.595" r="15.917"/>
		</defs>
		<clipPath id="SVGID_6_">
			<use xlink:href="#SVGID_87_"  overflow="visible"/>
		</clipPath>
		<g clip-path="url(#SVGID_6_)">
			<path fill-rule="evenodd" clip-rule="evenodd" fill="#00923F" d="M32.921,33.19c0-11.15,0-22.3,0-33.45
				c15.929,0,31.857,0,47.785,0c0,11.15,0,22.3,0,33.45C64.778,33.19,48.85,33.19,32.921,33.19z M37.025,16.483
				c0.053,0.034,0.105,0.069,0.159,0.103c1.644,1.05,3.287,2.1,4.932,3.149c4.86,3.104,9.721,6.207,14.579,9.313
				c0.111,0.071,0.192,0.081,0.286-0.007c0.007-0.007,0.017-0.011,0.024-0.016c3.938-2.514,7.876-5.029,11.813-7.543
				c2.563-1.636,5.125-3.272,7.687-4.909c0.048-0.031,0.102-0.055,0.144-0.108c-0.046-0.032-0.081-0.058-0.119-0.082
				C70.01,12.22,63.489,8.057,56.97,3.89c-0.098-0.062-0.162-0.068-0.264-0.003c-6.52,4.167-13.04,8.331-19.561,12.495
				C37.104,16.408,37.054,16.424,37.025,16.483z"/>
			<path fill-rule="evenodd" clip-rule="evenodd" fill="#AADABF" d="M32.921,33.19c15.929,0,31.857,0,47.785,0
				c-0.006,0.009,0.016,0.031-0.015,0.03c-0.04-0.001-0.079,0-0.119,0c-15.839,0-31.679,0-47.518-0.001
				C33.011,33.218,32.954,33.252,32.921,33.19z"/>
		</g>
	</g>
</g>
<g id="Imagenes">
</g>
<g id="Cintillos">
</g>
<g id="Botones">
</g>
<g id="TXT">
</g>
<g id="Logo">
</g>
<g id="Guia">
</g>
</svg>
