<?xml version="1.0" encoding="utf-8"?>
<!-- Generator: Adobe Illustrator 16.0.0, SVG Export Plug-In . SVG Version: 6.00 Build 0)  -->
<!DOCTYPE svg PUBLIC "-//W3C//DTD SVG 1.1//EN" "http://www.w3.org/Graphics/SVG/1.1/DTD/svg11.dtd">
<svg version="1.1" xmlns="http://www.w3.org/2000/svg" xmlns:xlink="http://www.w3.org/1999/xlink" x="0px" y="0px"
	 width="34.417px" height="34.25px" viewBox="0 0 34.417 34.25" enable-background="new 0 0 34.417 34.25" xml:space="preserve">
<g id="Soporte">
</g>
<g id="Publicidad">
</g>
<g id="Iconos">
	<g>
		<defs>
			<circle id="SVGID_81_" cx="-17.217" cy="16.595" r="15.917"/>
		</defs>
		<clipPath id="SVGID_2_">
			<use xlink:href="#SVGID_81_"  overflow="visible"/>
		</clipPath>
		<g clip-path="url(#SVGID_2_)">
			<path fill-rule="evenodd" clip-rule="evenodd" fill="#DD2910" d="M-8.097,34.652c-8.575,0-17.15,0-25.725,0.002
				c-0.098,0-0.119-0.021-0.119-0.119c0.002-11.405,0.002-22.809,0-34.213c0-0.097,0.021-0.119,0.119-0.119
				c17.149,0.002,34.299,0.002,51.449,0c0.097,0,0.119,0.021,0.119,0.119c-0.003,11.405-0.003,22.809,0,34.213
				c0,0.097-0.022,0.119-0.119,0.119C9.053,34.652,0.477,34.652-8.097,34.652z M-12.24,13.602l0.006-0.003l-0.008,0.001
				c0.03-0.055-0.006-0.101-0.022-0.147c-0.107-0.3-0.214-0.599-0.33-0.896c-0.035-0.09-0.016-0.138,0.058-0.194
				c0.25-0.188,0.496-0.384,0.743-0.579c0.032-0.026,0.083-0.043,0.085-0.075c-0.361,0-0.718-0.003-1.074,0.002
				c-0.088,0.001-0.13-0.022-0.158-0.107c-0.088-0.256-0.183-0.51-0.278-0.763c-0.032-0.087-0.052-0.18-0.117-0.272
				c-0.104,0.362-0.205,0.708-0.299,1.056c-0.025,0.091-0.068,0.125-0.161,0.126c-0.323,0.007-0.645,0.02-0.967,0.032
				c-0.039,0.001-0.082-0.012-0.129,0.024c0.299,0.201,0.583,0.401,0.877,0.587c0.106,0.067,0.125,0.13,0.088,0.248
				c-0.104,0.331-0.192,0.667-0.289,1.004c0.062,0.001,0.088-0.037,0.12-0.063c0.258-0.201,0.515-0.402,0.772-0.604
				c0.04-0.032,0.075-0.068,0.135-0.026C-12.872,13.173-12.555,13.387-12.24,13.602z M-28.331,12.972
				c0.069-0.049,0.131-0.093,0.192-0.138c0.899-0.652,1.799-1.304,2.694-1.961c0.095-0.07,0.153-0.063,0.243,0.004
				c0.92,0.674,1.845,1.343,2.768,2.014c0.035,0.025,0.066,0.061,0.131,0.067c-0.02-0.062-0.035-0.111-0.051-0.159
				c-0.348-1.072-0.694-2.145-1.047-3.215c-0.039-0.117-0.024-0.18,0.078-0.254c0.906-0.651,1.807-1.309,2.709-1.963
				c0.054-0.039,0.107-0.08,0.169-0.124c-0.063-0.039-0.116-0.024-0.165-0.024c-1.129,0-2.257-0.003-3.385,0.003
				c-0.13,0.001-0.187-0.034-0.228-0.16c-0.308-0.967-0.624-1.932-0.937-2.898c-0.052-0.157-0.104-0.314-0.159-0.479
				c-0.05,0.049-0.054,0.103-0.069,0.151c-0.351,1.075-0.702,2.151-1.047,3.229c-0.037,0.118-0.09,0.157-0.214,0.157
				c-1.132-0.005-2.265-0.003-3.398-0.002c-0.048,0-0.102-0.02-0.152,0.027c0.037,0.029,0.069,0.056,0.103,0.081
				c0.923,0.67,1.845,1.343,2.771,2.009c0.092,0.067,0.113,0.124,0.077,0.233c-0.352,1.07-0.7,2.142-1.047,3.215
				C-28.311,12.839-28.344,12.893-28.331,12.972z M-13.566,8.751c0.05-0.021,0.06-0.065,0.079-0.101
				c0.149-0.281,0.303-0.56,0.445-0.845c0.047-0.097,0.104-0.119,0.203-0.1c0.316,0.061,0.634,0.115,0.952,0.169
				c0.034,0.006,0.073,0.03,0.108-0.013c-0.244-0.251-0.482-0.505-0.73-0.75c-0.08-0.079-0.096-0.138-0.038-0.241
				c0.155-0.273,0.296-0.554,0.442-0.832c0.019-0.035,0.048-0.067,0.041-0.127c-0.335,0.165-0.66,0.32-0.981,0.484
				c-0.079,0.04-0.126,0.035-0.187-0.031c-0.219-0.232-0.442-0.459-0.665-0.686c-0.031-0.032-0.052-0.081-0.119-0.08
				c0.043,0.292,0.084,0.581,0.126,0.87c0.046,0.317,0.046,0.316-0.238,0.456c-0.266,0.13-0.531,0.26-0.797,0.391
				c0.027,0.048,0.064,0.042,0.097,0.048c0.317,0.054,0.635,0.111,0.954,0.161c0.097,0.015,0.146,0.048,0.159,0.157
				C-13.674,8.037-13.619,8.389-13.566,8.751z M-17.966,2.539c-0.006,0.009-0.012,0.017-0.018,0.025
				c0.188,0.313,0.374,0.627,0.564,0.939c0.041,0.065,0.041,0.107-0.013,0.166c-0.215,0.241-0.426,0.485-0.637,0.729
				c-0.028,0.033-0.075,0.058-0.069,0.124c0.354-0.08,0.707-0.156,1.057-0.243c0.089-0.022,0.131,0,0.174,0.076
				c0.126,0.22,0.259,0.436,0.39,0.653c0.056,0.094,0.114,0.188,0.17,0.282c0.054-0.327,0.084-0.646,0.109-0.966
				c0.02-0.241,0.016-0.241,0.254-0.295c0.312-0.072,0.624-0.145,0.944-0.219c-0.038-0.062-0.092-0.067-0.137-0.086
				c-0.284-0.123-0.568-0.247-0.855-0.362c-0.089-0.035-0.115-0.082-0.104-0.173c0.027-0.256,0.047-0.514,0.068-0.771
				c0.01-0.104,0.017-0.208,0.027-0.35c-0.262,0.301-0.5,0.566-0.729,0.84C-16.837,2.991-16.89,3-16.985,2.957
				C-17.31,2.812-17.639,2.677-17.966,2.539z M-16.276,17.333c0.037-0.078,0.03-0.139,0.033-0.199
				c0.013-0.279,0.03-0.559,0.033-0.838c0.001-0.132,0.039-0.203,0.179-0.229c0.173-0.032,0.34-0.09,0.509-0.136
				c0.161-0.044,0.32-0.089,0.485-0.135c-0.033-0.056-0.08-0.059-0.118-0.073c-0.237-0.091-0.474-0.18-0.711-0.27
				c-0.302-0.113-0.299-0.113-0.281-0.438c0.017-0.291,0.028-0.581,0.042-0.909c-0.054,0.062-0.085,0.095-0.113,0.13
				c-0.195,0.241-0.392,0.48-0.579,0.727c-0.067,0.09-0.125,0.098-0.225,0.057c-0.225-0.094-0.457-0.175-0.686-0.261
				c-0.099-0.037-0.199-0.073-0.304-0.11c-0.005,0.067,0.035,0.099,0.059,0.137c0.174,0.266,0.347,0.534,0.527,0.796
				c0.047,0.07,0.043,0.114-0.009,0.178c-0.208,0.252-0.411,0.509-0.614,0.765c-0.024,0.031-0.064,0.056-0.06,0.114
				c0.348-0.095,0.692-0.185,1.034-0.285c0.101-0.03,0.152-0.01,0.208,0.079C-16.679,16.732-16.481,17.023-16.276,17.333z"/>
		</g>
	</g>
	<g>
		<defs>
			<circle id="SVGID_83_" cx="17.6" cy="16.595" r="15.917"/>
		</defs>
		<clipPath id="SVGID_4_">
			<use xlink:href="#SVGID_83_"  overflow="visible"/>
		</clipPath>
		<g clip-path="url(#SVGID_4_)">
			<path fill-rule="evenodd" clip-rule="evenodd" fill="#D42B1E" d="M52.438,33.215c-17.856,0-35.712,0-53.568,0.007
				c-0.246,0-0.268-0.068-0.268-0.262c0.006-5.437,0.005-10.874,0.005-16.311c0.122-0.043,0.249-0.022,0.373-0.022
				c5.738-0.001,11.475-0.001,17.212-0.002c0.115,0,0.231-0.012,0.347-0.019c0.125,0.005,0.25,0.014,0.375,0.014
				c11.732,0,23.464,0.001,35.197-0.006c0.275,0,0.333,0.065,0.333,0.312C52.436,22.356,52.438,27.786,52.438,33.215z"/>
			<path fill-rule="evenodd" clip-rule="evenodd" fill="#FEFEFE" d="M52.438,33.215c0-5.43-0.002-10.859,0.006-16.289
				c0-0.247-0.053-0.312-0.308-0.312c-10.843,0.007-21.685,0.006-32.527,0.006c-0.116,0-0.231-0.009-0.347-0.014
				c0.002-0.049,0.006-0.099,0.006-0.149c0-5.409,0-10.817,0-16.226c0-0.066-0.007-0.132-0.011-0.198
				c11.002,0,22.005,0,33.008-0.005c0.187,0,0.229,0.042,0.229,0.229c-0.006,10.912-0.005,21.823-0.008,32.734
				C52.485,33.064,52.542,33.16,52.438,33.215z"/>
			<path fill-rule="evenodd" clip-rule="evenodd" fill="#0139A5" d="M19.254,0.034c0.005,0.066,0.014,0.132,0.014,0.198
				c0,5.409,0,10.817,0,16.226c0,0.05-0.005,0.1-0.007,0.149c-0.136,0.006-0.272,0.019-0.409,0.019
				c-6.754,0.001-13.508,0.001-20.263,0.002c-0.146,0-0.295-0.021-0.438,0.022c0-5.468,0.001-10.937-0.006-16.404
				c0-0.179,0.047-0.216,0.275-0.216C5.364,0.035,12.309,0.034,19.254,0.034z M8.551,11.679c0.781-0.568,1.518-1.1,2.249-1.64
				c0.131-0.097,0.213-0.116,0.357-0.005c0.525,0.402,1.065,0.784,1.601,1.172c0.2,0.145,0.401,0.286,0.662,0.472
				c-0.306-0.93-0.584-1.784-0.868-2.636c-0.052-0.155-0.041-0.255,0.114-0.36c0.444-0.301,0.874-0.625,1.308-0.941
				c0.3-0.219,0.598-0.441,0.941-0.694c-0.977,0-1.888-0.004-2.799,0.003c-0.148,0.001-0.224-0.043-0.267-0.184
				c-0.184-0.592-0.373-1.182-0.563-1.771c-0.093-0.288-0.193-0.574-0.304-0.902c-0.3,0.917-0.591,1.786-0.865,2.659
				c-0.049,0.158-0.118,0.201-0.274,0.198C9.385,7.039,8.93,7.045,8.474,7.045c-0.452,0-0.904,0-1.417,0
				c0.11,0.087,0.171,0.139,0.235,0.185c0.675,0.49,1.349,0.984,2.03,1.466c0.124,0.088,0.145,0.154,0.095,0.301
				C9.125,9.872,8.849,10.751,8.551,11.679z"/>
			<path fill-rule="evenodd" clip-rule="evenodd" fill="#FEFEFE" d="M8.551,11.679c0.297-0.927,0.574-1.807,0.866-2.681
				c0.049-0.147,0.029-0.213-0.095-0.301C8.641,8.214,7.967,7.72,7.292,7.23C7.228,7.184,7.167,7.132,7.057,7.045
				c0.513,0,0.965,0,1.417,0c0.456,0,0.912-0.006,1.367,0.003c0.156,0.003,0.225-0.041,0.274-0.198
				c0.274-0.874,0.565-1.742,0.865-2.659c0.111,0.328,0.211,0.614,0.304,0.902c0.19,0.59,0.379,1.18,0.563,1.771
				c0.043,0.141,0.119,0.185,0.267,0.184c0.911-0.007,1.822-0.003,2.799-0.003c-0.343,0.253-0.641,0.476-0.941,0.694
				c-0.434,0.316-0.863,0.64-1.308,0.941c-0.154,0.105-0.166,0.205-0.114,0.36c0.284,0.852,0.562,1.706,0.868,2.636
				c-0.26-0.186-0.462-0.327-0.662-0.472c-0.536-0.388-1.076-0.77-1.601-1.172c-0.144-0.11-0.226-0.091-0.357,0.005
				C10.069,10.579,9.332,11.111,8.551,11.679z"/>
		</g>
	</g>
	<g>
		<defs>
			<circle id="SVGID_85_" cx="53.783" cy="16.595" r="15.917"/>
		</defs>
		<clipPath id="SVGID_6_">
			<use xlink:href="#SVGID_85_"  overflow="visible"/>
		</clipPath>
		<g clip-path="url(#SVGID_6_)">
			<path fill-rule="evenodd" clip-rule="evenodd" fill="#FE0000" d="M43.068,0.463c0,10.809,0,21.616,0,32.424
				c-5.59,0-11.182-0.001-16.773,0.004c-0.182,0-0.218-0.034-0.218-0.207c0.006-10.673,0.006-21.346,0-32.019
				c0-0.173,0.036-0.208,0.218-0.207C31.886,0.464,37.478,0.463,43.068,0.463z"/>
		</g>
	</g>
</g>
<g id="Imagenes">
</g>
<g id="Cintillos">
</g>
<g id="Botones">
</g>
<g id="TXT">
</g>
<g id="Logo">
</g>
<g id="Guia">
</g>
</svg>
