<?xml version="1.0" encoding="utf-8"?>
<!-- Generator: Adobe Illustrator 16.0.0, SVG Export Plug-In . SVG Version: 6.00 Build 0)  -->
<!DOCTYPE svg PUBLIC "-//W3C//DTD SVG 1.1//EN" "http://www.w3.org/Graphics/SVG/1.1/DTD/svg11.dtd">
<svg version="1.1" xmlns="http://www.w3.org/2000/svg" xmlns:xlink="http://www.w3.org/1999/xlink" x="0px" y="0px"
	 width="34.417px" height="34.25px" viewBox="0 0 34.417 34.25" enable-background="new 0 0 34.417 34.25" xml:space="preserve">
<g id="Soporte">
</g>
<g id="Publicidad">
</g>
<g id="Iconos">
	<g>
		<defs>
			<circle id="SVGID_79_" cx="-17.217" cy="16.595" r="15.917"/>
		</defs>
		<clipPath id="SVGID_2_">
			<use xlink:href="#SVGID_79_"  overflow="visible"/>
		</clipPath>
		<g clip-path="url(#SVGID_2_)">
			<path fill-rule="evenodd" clip-rule="evenodd" fill="#CC1126" d="M16.383,11.074c0,3.718,0,7.436,0,11.153
				c-0.043,0.043-0.098,0.051-0.154,0.054c-0.061,0.002-0.121,0.001-0.181,0.001c-18.365,0-36.731,0-55.097-0.001
				c-0.113,0-0.234,0.031-0.334-0.054c0-3.718,0-7.436,0-11.153c0.043-0.043,0.097-0.051,0.154-0.054
				c0.061-0.002,0.121-0.001,0.182-0.001c18.365,0,36.73,0,55.096,0.001C16.161,11.02,16.283,10.989,16.383,11.074z"/>
			<path fill-rule="evenodd" clip-rule="evenodd" fill="#002B7E" d="M-39.383,5.497c0-1.821,0.001-3.643-0.002-5.464
				c0-0.093,0.015-0.115,0.113-0.115c18.515,0.003,37.03,0.003,55.545,0c0.098,0,0.113,0.022,0.113,0.115
				c-0.003,1.821-0.002,3.643-0.002,5.464c-0.043,0.042-0.098,0.052-0.154,0.054c-0.061,0.002-0.121,0.001-0.181,0.001
				c-18.365,0-36.731,0-55.097-0.001C-39.162,5.551-39.282,5.582-39.383,5.497z"/>
			<path fill-rule="evenodd" clip-rule="evenodd" fill="#FEFEFE" d="M-39.383,5.497c18.589,0,37.177,0,55.766,0
				c0,1.859,0,3.718,0,5.577c-18.589,0-37.177,0-55.766,0C-39.383,9.215-39.383,7.356-39.383,5.497z"/>
			<path fill-rule="evenodd" clip-rule="evenodd" fill="#002B7E" d="M16.383,27.804c0,1.821-0.001,3.643,0.002,5.464
				c0,0.093-0.015,0.115-0.113,0.115c-18.515-0.003-37.03-0.003-55.545,0c-0.098,0-0.113-0.022-0.113-0.115
				c0.003-1.821,0.002-3.643,0.002-5.464c0.043-0.042,0.097-0.052,0.154-0.054c0.061-0.002,0.121-0.001,0.182-0.001
				c18.365,0,36.73,0,55.096,0.001C16.161,27.75,16.283,27.719,16.383,27.804z"/>
			<path fill-rule="evenodd" clip-rule="evenodd" fill="#FEFEFE" d="M16.383,27.804c-18.589,0-37.177,0-55.766,0
				c0-1.859,0-3.718,0-5.577c18.589,0,37.177,0,55.766,0C16.383,24.086,16.383,25.945,16.383,27.804z"/>
		</g>
	</g>
	<g>
		<defs>
			<circle id="SVGID_81_" cx="17.783" cy="16.595" r="15.917"/>
		</defs>
		<clipPath id="SVGID_4_">
			<use xlink:href="#SVGID_81_"  overflow="visible"/>
		</clipPath>
		<g clip-path="url(#SVGID_4_)">
			<path fill-rule="evenodd" clip-rule="evenodd" fill="#DD2910" d="M26.903,34.652c-8.575,0-17.15,0-25.725,0.002
				c-0.098,0-0.119-0.021-0.119-0.119c0.002-11.405,0.002-22.809,0-34.213c0-0.097,0.021-0.119,0.119-0.119
				c17.149,0.002,34.299,0.002,51.449,0c0.097,0,0.119,0.021,0.119,0.119c-0.003,11.405-0.003,22.809,0,34.213
				c0,0.097-0.022,0.119-0.119,0.119C44.053,34.652,35.477,34.652,26.903,34.652z M22.76,13.602l0.006-0.003L22.758,13.6
				c0.03-0.055-0.006-0.101-0.022-0.147c-0.107-0.3-0.214-0.599-0.33-0.896c-0.035-0.09-0.016-0.138,0.058-0.194
				c0.25-0.188,0.496-0.384,0.743-0.579c0.032-0.026,0.083-0.043,0.085-0.075c-0.361,0-0.718-0.003-1.074,0.002
				c-0.088,0.001-0.13-0.022-0.158-0.107c-0.088-0.256-0.183-0.51-0.278-0.763c-0.032-0.087-0.052-0.18-0.117-0.272
				c-0.104,0.362-0.205,0.708-0.299,1.056c-0.025,0.091-0.068,0.125-0.161,0.126c-0.323,0.007-0.645,0.02-0.967,0.032
				c-0.039,0.001-0.082-0.012-0.129,0.024c0.299,0.201,0.583,0.401,0.877,0.587c0.106,0.067,0.125,0.13,0.088,0.248
				c-0.104,0.331-0.192,0.667-0.289,1.004c0.062,0.001,0.088-0.037,0.12-0.063c0.258-0.201,0.515-0.402,0.772-0.604
				c0.04-0.032,0.075-0.068,0.135-0.026C22.128,13.173,22.445,13.387,22.76,13.602z M6.669,12.972
				c0.069-0.049,0.131-0.093,0.192-0.138c0.899-0.652,1.799-1.304,2.694-1.961c0.095-0.07,0.153-0.063,0.243,0.004
				c0.92,0.674,1.845,1.343,2.768,2.014c0.035,0.025,0.066,0.061,0.131,0.067c-0.02-0.062-0.035-0.111-0.051-0.159
				c-0.348-1.072-0.694-2.145-1.047-3.215c-0.039-0.117-0.024-0.18,0.078-0.254c0.906-0.651,1.807-1.309,2.709-1.963
				c0.054-0.039,0.107-0.08,0.169-0.124c-0.063-0.039-0.116-0.024-0.165-0.024c-1.129,0-2.257-0.003-3.385,0.003
				c-0.13,0.001-0.187-0.034-0.228-0.16c-0.308-0.967-0.624-1.932-0.937-2.898C9.792,4.006,9.739,3.849,9.685,3.685
				c-0.05,0.049-0.054,0.103-0.069,0.151C9.265,4.911,8.914,5.986,8.568,7.064c-0.037,0.118-0.09,0.157-0.214,0.157
				C7.221,7.216,6.088,7.217,4.956,7.219c-0.048,0-0.102-0.02-0.152,0.027C4.84,7.274,4.873,7.302,4.907,7.326
				c0.923,0.67,1.845,1.343,2.771,2.009C7.77,9.403,7.791,9.459,7.754,9.569c-0.352,1.07-0.7,2.142-1.047,3.215
				C6.689,12.839,6.656,12.893,6.669,12.972z M21.434,8.751c0.05-0.021,0.06-0.065,0.079-0.101c0.149-0.281,0.303-0.56,0.445-0.845
				c0.047-0.097,0.104-0.119,0.203-0.1c0.316,0.061,0.634,0.115,0.952,0.169c0.034,0.006,0.073,0.03,0.108-0.013
				c-0.244-0.251-0.482-0.505-0.73-0.75c-0.08-0.079-0.096-0.138-0.038-0.241c0.155-0.273,0.296-0.554,0.442-0.832
				c0.019-0.035,0.048-0.067,0.041-0.127c-0.335,0.165-0.66,0.32-0.981,0.484c-0.079,0.04-0.126,0.035-0.187-0.031
				c-0.219-0.232-0.442-0.459-0.665-0.686c-0.031-0.032-0.052-0.081-0.119-0.08c0.043,0.292,0.084,0.581,0.126,0.87
				c0.046,0.317,0.046,0.316-0.238,0.456c-0.266,0.13-0.531,0.26-0.797,0.391c0.027,0.048,0.064,0.042,0.097,0.048
				c0.317,0.054,0.635,0.111,0.954,0.161c0.097,0.015,0.146,0.048,0.159,0.157C21.326,8.037,21.381,8.389,21.434,8.751z
				 M17.034,2.539c-0.006,0.009-0.012,0.017-0.018,0.025c0.188,0.313,0.374,0.627,0.564,0.939c0.041,0.065,0.041,0.107-0.013,0.166
				c-0.215,0.241-0.426,0.485-0.637,0.729c-0.028,0.033-0.075,0.058-0.069,0.124c0.354-0.08,0.707-0.156,1.057-0.243
				c0.089-0.022,0.131,0,0.174,0.076c0.126,0.22,0.259,0.436,0.39,0.653c0.056,0.094,0.114,0.188,0.17,0.282
				c0.054-0.327,0.084-0.646,0.109-0.966c0.02-0.241,0.016-0.241,0.254-0.295c0.312-0.072,0.624-0.145,0.944-0.219
				c-0.038-0.062-0.092-0.067-0.137-0.086c-0.284-0.123-0.568-0.247-0.855-0.362c-0.089-0.035-0.115-0.082-0.104-0.173
				c0.027-0.256,0.047-0.514,0.068-0.771c0.01-0.104,0.017-0.208,0.027-0.35c-0.262,0.301-0.5,0.566-0.729,0.84
				C18.163,2.991,18.11,3,18.015,2.957C17.69,2.812,17.361,2.677,17.034,2.539z M18.724,17.333c0.037-0.078,0.03-0.139,0.033-0.199
				c0.013-0.279,0.03-0.559,0.033-0.838c0.001-0.132,0.039-0.203,0.179-0.229c0.173-0.032,0.34-0.09,0.509-0.136
				c0.161-0.044,0.32-0.089,0.485-0.135c-0.033-0.056-0.08-0.059-0.118-0.073c-0.237-0.091-0.474-0.18-0.711-0.27
				c-0.302-0.113-0.299-0.113-0.281-0.438c0.017-0.291,0.028-0.581,0.042-0.909c-0.054,0.062-0.085,0.095-0.113,0.13
				c-0.195,0.241-0.392,0.48-0.579,0.727c-0.067,0.09-0.125,0.098-0.225,0.057c-0.225-0.094-0.457-0.175-0.686-0.261
				c-0.099-0.037-0.199-0.073-0.304-0.11c-0.005,0.067,0.035,0.099,0.059,0.137c0.174,0.266,0.347,0.534,0.527,0.796
				c0.047,0.07,0.043,0.114-0.009,0.178c-0.208,0.252-0.411,0.509-0.614,0.765c-0.024,0.031-0.064,0.056-0.06,0.114
				c0.348-0.095,0.692-0.185,1.034-0.285c0.101-0.03,0.152-0.01,0.208,0.079C18.321,16.732,18.519,17.023,18.724,17.333z"/>
			<path fill-rule="evenodd" clip-rule="evenodd" fill="#FEDC00" d="M6.669,12.972c-0.013-0.08,0.02-0.133,0.038-0.188
				c0.347-1.073,0.695-2.145,1.047-3.215C7.791,9.459,7.77,9.403,7.677,9.335C6.751,8.669,5.83,7.997,4.907,7.326
				C4.873,7.302,4.84,7.274,4.804,7.246c0.05-0.046,0.104-0.027,0.152-0.027c1.133-0.001,2.266-0.003,3.398,0.002
				c0.124,0,0.177-0.039,0.214-0.157c0.346-1.078,0.697-2.153,1.047-3.229c0.016-0.048,0.019-0.102,0.069-0.151
				c0.054,0.165,0.107,0.322,0.159,0.479c0.313,0.966,0.629,1.931,0.937,2.898c0.041,0.125,0.098,0.161,0.228,0.16
				c1.127-0.006,2.256-0.003,3.385-0.003c0.049,0,0.102-0.014,0.165,0.024c-0.062,0.044-0.115,0.085-0.169,0.124
				c-0.902,0.655-1.803,1.312-2.709,1.963c-0.103,0.074-0.117,0.137-0.078,0.254c0.353,1.07,0.699,2.143,1.047,3.215
				c0.016,0.048,0.031,0.097,0.051,0.159c-0.065-0.006-0.097-0.042-0.131-0.067c-0.923-0.67-1.848-1.34-2.768-2.014
				c-0.09-0.066-0.148-0.074-0.243-0.004c-0.896,0.657-1.795,1.309-2.694,1.961C6.8,12.879,6.738,12.923,6.669,12.972z"/>
			<path fill-rule="evenodd" clip-rule="evenodd" fill="#FEDB00" d="M21.434,8.751c-0.053-0.362-0.108-0.714-0.151-1.069
				c-0.013-0.108-0.062-0.142-0.159-0.157c-0.319-0.05-0.636-0.107-0.954-0.161c-0.032-0.006-0.07,0-0.097-0.048
				c0.266-0.131,0.531-0.261,0.797-0.391c0.284-0.139,0.284-0.139,0.238-0.456c-0.042-0.289-0.083-0.578-0.126-0.87
				c0.067-0.001,0.088,0.048,0.119,0.08c0.223,0.227,0.446,0.454,0.665,0.686c0.061,0.065,0.108,0.07,0.187,0.031
				c0.321-0.164,0.646-0.319,0.981-0.484c0.008,0.06-0.022,0.092-0.041,0.127c-0.146,0.278-0.287,0.559-0.442,0.832
				c-0.059,0.103-0.042,0.162,0.038,0.241c0.248,0.245,0.486,0.499,0.73,0.75c-0.035,0.043-0.074,0.019-0.108,0.013
				c-0.318-0.055-0.635-0.109-0.952-0.169c-0.099-0.019-0.155,0.003-0.203,0.1c-0.142,0.285-0.295,0.563-0.445,0.845
				C21.494,8.686,21.484,8.729,21.434,8.751z"/>
			<path fill-rule="evenodd" clip-rule="evenodd" fill="#FEDB00" d="M17.034,2.539c0.327,0.139,0.657,0.273,0.981,0.418
				C18.11,3,18.163,2.991,18.231,2.909c0.229-0.273,0.466-0.539,0.729-0.84c-0.01,0.142-0.018,0.246-0.027,0.35
				c-0.021,0.257-0.042,0.515-0.068,0.771c-0.01,0.091,0.016,0.138,0.104,0.173c0.288,0.115,0.571,0.239,0.855,0.362
				c0.045,0.019,0.099,0.024,0.137,0.086c-0.32,0.074-0.632,0.146-0.944,0.219c-0.238,0.055-0.234,0.055-0.254,0.295
				c-0.024,0.319-0.055,0.639-0.109,0.966c-0.056-0.094-0.114-0.188-0.17-0.282c-0.131-0.218-0.264-0.434-0.39-0.653
				c-0.043-0.076-0.085-0.099-0.174-0.076c-0.35,0.086-0.703,0.163-1.057,0.243c-0.006-0.065,0.041-0.09,0.069-0.124
				c0.21-0.244,0.421-0.489,0.637-0.729c0.053-0.059,0.053-0.101,0.013-0.166c-0.19-0.312-0.377-0.626-0.564-0.939
				C17.022,2.556,17.028,2.547,17.034,2.539z"/>
			<path fill-rule="evenodd" clip-rule="evenodd" fill="#FEDB00" d="M18.724,17.333c-0.205-0.31-0.403-0.602-0.591-0.899
				c-0.056-0.088-0.107-0.108-0.208-0.079c-0.342,0.101-0.686,0.19-1.034,0.285c-0.004-0.058,0.036-0.083,0.06-0.114
				c0.203-0.256,0.406-0.513,0.614-0.765c0.053-0.064,0.056-0.108,0.009-0.178c-0.18-0.263-0.353-0.53-0.527-0.796
				c-0.024-0.038-0.063-0.069-0.059-0.137c0.104,0.038,0.205,0.073,0.304,0.11c0.229,0.086,0.461,0.167,0.686,0.261
				c0.099,0.041,0.157,0.033,0.225-0.057c0.187-0.247,0.384-0.486,0.579-0.727c0.028-0.035,0.059-0.068,0.113-0.13
				c-0.014,0.328-0.025,0.618-0.042,0.909c-0.018,0.326-0.021,0.325,0.281,0.438c0.237,0.089,0.474,0.178,0.711,0.27
				c0.038,0.014,0.084,0.017,0.118,0.073c-0.165,0.046-0.324,0.09-0.485,0.135c-0.169,0.046-0.336,0.104-0.509,0.136
				c-0.141,0.026-0.178,0.097-0.179,0.229c-0.003,0.279-0.021,0.559-0.033,0.838C18.754,17.194,18.761,17.255,18.724,17.333z"/>
			<path fill-rule="evenodd" clip-rule="evenodd" fill="#FEDB00" d="M22.76,13.603c-0.315-0.216-0.632-0.43-0.947-0.647
				c-0.06-0.042-0.095-0.005-0.135,0.026c-0.258,0.201-0.515,0.403-0.772,0.604c-0.032,0.025-0.059,0.064-0.12,0.063
				c0.096-0.338,0.185-0.673,0.289-1.004c0.037-0.118,0.018-0.181-0.088-0.248c-0.294-0.186-0.579-0.386-0.877-0.587
				c0.047-0.036,0.09-0.023,0.129-0.024c0.322-0.012,0.645-0.025,0.967-0.032c0.093-0.001,0.136-0.035,0.161-0.126
				c0.094-0.348,0.195-0.694,0.299-1.056c0.065,0.092,0.085,0.185,0.117,0.272c0.096,0.253,0.19,0.507,0.278,0.763
				c0.028,0.085,0.07,0.108,0.158,0.107c0.356-0.005,0.713-0.002,1.074-0.002c-0.002,0.032-0.053,0.049-0.085,0.075
				c-0.247,0.195-0.493,0.39-0.743,0.579c-0.074,0.056-0.093,0.104-0.058,0.194c0.116,0.296,0.222,0.596,0.33,0.896
				c0.017,0.046,0.053,0.092,0.022,0.147L22.76,13.603z"/>
			<polygon fill-rule="evenodd" clip-rule="evenodd" fill="#FEDB00" points="22.758,13.6 22.766,13.599 22.76,13.603 			"/>
		</g>
	</g>
	<g>
		<defs>
			<circle id="SVGID_83_" cx="52.6" cy="16.595" r="15.917"/>
		</defs>
		<clipPath id="SVGID_6_">
			<use xlink:href="#SVGID_83_"  overflow="visible"/>
		</clipPath>
		<g clip-path="url(#SVGID_6_)">
			<path fill-rule="evenodd" clip-rule="evenodd" fill="#D42B1E" d="M87.438,33.215c-17.856,0-35.712,0-53.568,0.007
				c-0.246,0-0.268-0.068-0.268-0.262c0.006-5.437,0.005-10.874,0.005-16.311c0.122-0.043,0.249-0.022,0.373-0.022
				c5.738-0.001,11.475-0.001,17.212-0.002c0.115,0,0.231-0.012,0.347-0.019c0.125,0.005,0.25,0.014,0.375,0.014
				c11.732,0,23.464,0.001,35.197-0.006c0.275,0,0.333,0.065,0.333,0.312C87.436,22.356,87.438,27.786,87.438,33.215z"/>
			<path fill-rule="evenodd" clip-rule="evenodd" fill="#0139A5" d="M54.254,0.034c0.005,0.066,0.014,0.132,0.014,0.198
				c0,5.409,0,10.817,0,16.226c0,0.05-0.005,0.1-0.007,0.149c-0.136,0.006-0.272,0.019-0.409,0.019
				c-6.754,0.001-13.508,0.001-20.263,0.002c-0.146,0-0.295-0.021-0.438,0.022c0-5.468,0.001-10.937-0.006-16.404
				c0-0.179,0.047-0.216,0.275-0.216C40.364,0.035,47.309,0.034,54.254,0.034z M43.551,11.679c0.781-0.568,1.518-1.1,2.249-1.64
				c0.131-0.097,0.213-0.116,0.357-0.005c0.525,0.402,1.065,0.784,1.601,1.172c0.2,0.145,0.401,0.286,0.662,0.472
				c-0.306-0.93-0.584-1.784-0.868-2.636c-0.052-0.155-0.041-0.255,0.114-0.36c0.444-0.301,0.874-0.625,1.308-0.941
				c0.3-0.219,0.598-0.441,0.941-0.694c-0.977,0-1.888-0.004-2.799,0.003c-0.148,0.001-0.224-0.043-0.267-0.184
				c-0.184-0.592-0.373-1.182-0.563-1.771c-0.093-0.288-0.193-0.574-0.304-0.902c-0.3,0.917-0.591,1.786-0.865,2.659
				c-0.049,0.158-0.118,0.201-0.274,0.198c-0.456-0.01-0.911-0.003-1.367-0.003c-0.452,0-0.904,0-1.417,0
				c0.11,0.087,0.171,0.139,0.235,0.185c0.675,0.49,1.349,0.984,2.03,1.466c0.124,0.088,0.145,0.154,0.095,0.301
				C44.125,9.872,43.849,10.751,43.551,11.679z"/>
		</g>
	</g>
</g>
<g id="Imagenes">
</g>
<g id="Cintillos">
</g>
<g id="Botones">
</g>
<g id="TXT">
</g>
<g id="Logo">
</g>
<g id="Guia">
</g>
</svg>
