<?xml version="1.0" encoding="utf-8"?>
<!-- Generator: Adobe Illustrator 16.0.0, SVG Export Plug-In . SVG Version: 6.00 Build 0)  -->
<!DOCTYPE svg PUBLIC "-//W3C//DTD SVG 1.1//EN" "http://www.w3.org/Graphics/SVG/1.1/DTD/svg11.dtd">
<svg version="1.1" xmlns="http://www.w3.org/2000/svg" xmlns:xlink="http://www.w3.org/1999/xlink" x="0px" y="0px"
	 width="34.417px" height="34.25px" viewBox="0 0 34.417 34.25" enable-background="new 0 0 34.417 34.25" xml:space="preserve">
<g id="Soporte">
</g>
<g id="Publicidad">
</g>
<g id="Iconos">
	<g>
		<defs>
			<circle id="SVGID_53_" cx="-19.217" cy="16.595" r="15.917"/>
		</defs>
		<clipPath id="SVGID_2_">
			<use xlink:href="#SVGID_53_"  overflow="visible"/>
		</clipPath>
		<g clip-path="url(#SVGID_2_)">
			<path fill-rule="evenodd" clip-rule="evenodd" fill="#EB1C24" d="M-43.549,8.336c0-2.714,0.001-5.428-0.002-8.143
				c0-0.081,0.012-0.103,0.1-0.103c16.438,0.003,32.874,0.003,49.312,0c0.088,0,0.1,0.022,0.1,0.103
				C5.957,2.908,5.958,5.622,5.958,8.336c-0.037,0.033-0.082,0.038-0.127,0.04C5.772,8.378,5.715,8.376,5.657,8.376
				c-8.154,0-16.309,0.005-24.464-0.001c-8.167-0.007-16.334-0.001-24.501-0.005C-43.389,8.37-43.475,8.393-43.549,8.336z"/>
			<path fill-rule="evenodd" clip-rule="evenodd" fill="#EB1C24" d="M5.958,24.846c0,2.714-0.001,5.428,0.002,8.142
				c0,0.082-0.012,0.103-0.1,0.103c-16.438-0.002-32.874-0.002-49.312,0c-0.088,0-0.1-0.021-0.1-0.103
				c0.003-2.714,0.002-5.428,0.002-8.142c0.037-0.034,0.083-0.034,0.129-0.035c0.058,0,0.115,0,0.173,0
				c9.145,0,18.29,0.005,27.435-0.001c7.169-0.005,14.338-0.001,21.507-0.003C5.783,24.806,5.877,24.784,5.958,24.846z"/>
			<path fill-rule="evenodd" clip-rule="evenodd" fill="#FDFDFD" d="M-43.549,24.821c9.301,0,18.602,0,27.901-0.001
				c0.057,0,0.116,0.018,0.169-0.018c0.023-0.023,0.054-0.014,0.082-0.017c0.172-0.016,0.244-0.146,0.167-0.298
				c-0.053-0.104-0.15-0.16-0.244-0.221c-0.519-0.339-0.982-0.736-1.338-1.25c-0.223-0.323-0.32-0.688-0.331-1.073
				c-0.012-0.403-0.006-0.807,0.045-1.209c0.052-0.409,0.471-0.653,0.845-0.481c0.232,0.107,0.461,0.224,0.696,0.323
				c0.211,0.089,0.431,0.128,0.662,0.131c0.417,0.006,0.832-0.024,1.248-0.032c0.653-0.012,1.22,0.2,1.738,0.58
				c0.279,0.205,0.566,0.4,0.887,0.538c0.17,0.072,0.28,0.055,0.361-0.065c0.085-0.126,0.059-0.29-0.059-0.403
				c-0.414-0.397-0.888-0.709-1.39-0.983c-0.452-0.247-0.9-0.502-1.338-0.775c-0.262-0.164-0.267-0.505-0.006-0.678
				c0.212-0.14,0.444-0.167,0.688-0.098c0.136,0.039,0.265,0.094,0.379,0.178c0.226,0.165,0.48,0.253,0.754,0.291
				c0.19,0.026,0.298-0.119,0.225-0.297c-0.033-0.08-0.091-0.139-0.169-0.172c-0.27-0.118-0.488-0.308-0.695-0.509
				c-0.236-0.23-0.476-0.457-0.724-0.674c-0.313-0.274-0.667-0.42-1.085-0.403c-0.037,0.001-0.074,0.002-0.111-0.002
				c-0.126-0.014-0.194-0.114-0.164-0.237c0.037-0.152,0.16-0.257,0.317-0.269c0.078-0.006,0.158-0.011,0.234,0
				c0.315,0.049,0.624-0.033,0.936-0.042c0.133-0.003,0.262-0.02,0.393,0.017c0.121,0.034,0.22-0.018,0.301-0.101
				c0.075-0.077,0.06-0.173-0.034-0.245c-0.077-0.059-0.17-0.085-0.262-0.106c-0.571-0.131-1.122-0.338-1.7-0.441
				c-0.14-0.025-0.212-0.109-0.223-0.229c-0.011-0.124,0.056-0.226,0.181-0.28c0.095-0.042,0.192-0.047,0.289-0.01
				c0.341,0.13,0.703,0.135,1.058,0.187c0.1,0.015,0.156-0.044,0.148-0.147c-0.01-0.13-0.096-0.215-0.207-0.254
				c-0.719-0.256-1.293-0.735-1.877-1.2c-0.301-0.239-0.585-0.497-0.891-0.729c-0.086-0.065-0.177-0.119-0.278-0.158
				c-0.085-0.032-0.167-0.073-0.236-0.132c-0.17-0.142-0.146-0.367,0.052-0.468c0.108-0.056,0.222-0.057,0.337-0.024
				c0.115,0.034,0.228,0.074,0.337,0.124c0.266,0.121,0.548,0.179,0.834,0.219c0.058,0.008,0.115,0.011,0.173-0.003
				c0.033-0.008,0.063-0.023,0.073-0.059c0.011-0.039-0.017-0.062-0.044-0.081c-0.047-0.034-0.1-0.058-0.152-0.082
				c-0.397-0.182-0.736-0.454-1.074-0.724c-0.121-0.096-0.095-0.22,0.049-0.277c0.115-0.046,0.235-0.033,0.354-0.016
				c0.078,0.011,0.165,0.032,0.202-0.066c0.034-0.092,0.003-0.183-0.077-0.229c-0.498-0.282-0.927-0.679-1.47-0.888
				c-0.186-0.071-0.376-0.125-0.573-0.149c-0.655-0.082-1.146-0.412-1.481-0.977c-0.146-0.245-0.271-0.5-0.374-0.765
				c-0.063,0-0.124-0.002-0.186-0.002c-8.107,0-16.214,0-24.321,0c0-0.008,0-0.017,0-0.024c0.054,0.001,0.107,0.004,0.161,0.004
				c8.047,0,16.094,0,24.141,0c8.348,0,16.696,0,25.044,0c0.054,0,0.106-0.002,0.161-0.004c0,5.503,0,11.007,0,16.51
				c-0.05-0.001-0.1-0.004-0.148-0.004c-16.403,0-32.807,0-49.21,0c-0.05,0-0.099,0.002-0.148,0.004
				C-43.549,24.838-43.549,24.83-43.549,24.821z"/>
		</g>
	</g>
	<g>
		<defs>
			<circle id="SVGID_55_" cx="52.783" cy="17.028" r="15.917"/>
		</defs>
		<clipPath id="SVGID_4_">
			<use xlink:href="#SVGID_55_"  overflow="visible"/>
		</clipPath>
		<g clip-path="url(#SVGID_4_)">
			<path fill-rule="evenodd" clip-rule="evenodd" fill="#FEFEFE" d="M52.52,32.994c-8.123,0-16.246,0-24.369,0.003
				c-0.142,0-0.178-0.028-0.178-0.175c0.004-10.797,0.004-21.594-0.001-32.391c0-0.165,0.045-0.181,0.191-0.181
				C44.416,0.254,60.668,0.254,76.921,0.25c0.153,0,0.188,0.028,0.188,0.186c-0.005,10.79-0.005,21.58,0.001,32.371
				c0,0.175-0.052,0.19-0.201,0.19C68.778,32.993,60.648,32.994,52.52,32.994z M52.528,26.44c5.437,0,9.837-4.39,9.837-9.815
				c0.001-5.398-4.389-9.79-9.756-9.824c-5.384-0.035-9.896,4.327-9.895,9.82C42.715,22.042,47.11,26.439,52.528,26.44z"/>
		</g>
	</g>
	<g>
		<defs>
			<circle id="SVGID_99_" cx="16.783" cy="16.595" r="15.917"/>
		</defs>
		<clipPath id="SVGID_6_">
			<use xlink:href="#SVGID_99_"  overflow="visible"/>
		</clipPath>
		<g clip-path="url(#SVGID_6_)">
			<path fill-rule="evenodd" clip-rule="evenodd" fill="#FBFBFB" d="M16.643-3.523c10.016,0,20.033,0.001,30.05-0.002
				c0.113,0,0.139,0.025,0.139,0.139c-0.004,13.322-0.004,26.643,0,39.965c0,0.114-0.025,0.139-0.139,0.139
				c-20.034-0.004-40.066-0.004-60.098,0c-0.114,0-0.14-0.025-0.14-0.139c0.004-13.322,0.004-26.643,0-39.965
				c0-0.114,0.025-0.139,0.14-0.139C-3.39-3.522,6.626-3.523,16.643-3.523z"/>
			<path fill-rule="evenodd" clip-rule="evenodd" fill="#003477" d="M22.317,19.75c-0.035,0.124-0.108,0.229-0.177,0.334
				c-0.958,1.48-2.295,2.432-4.008,2.85c-0.672,0.164-1.354,0.218-2.042,0.153c-1.662-0.157-3.073-0.841-4.218-2.057
				c-0.884-0.94-1.432-2.056-1.648-3.326c-0.256-1.498-0.015-2.92,0.715-4.256c0.003-0.005,0.008-0.01,0.013-0.015
				c0.043,0.038,0.016,0.077,0,0.114c-0.206,0.48-0.278,0.984-0.237,1.5c0.054,0.674,0.295,1.279,0.729,1.799
				c0.556,0.663,1.27,1.049,2.128,1.151c0.686,0.083,1.332-0.058,1.938-0.39c0.501-0.274,0.866-0.683,1.196-1.141
				c0.537-0.743,1.273-1.18,2.18-1.311c1.017-0.147,1.907,0.148,2.673,0.817c0.404,0.353,0.687,0.795,0.874,1.3
				c0.166,0.448,0.226,0.91,0.191,1.382C22.598,19.038,22.519,19.412,22.317,19.75z"/>
			<path fill-rule="evenodd" clip-rule="evenodd" fill="#C50C30" d="M22.317,19.75c0.215-0.487,0.318-0.996,0.284-1.528
				c-0.058-0.899-0.42-1.655-1.093-2.256c-0.509-0.455-1.107-0.727-1.786-0.797c-0.974-0.102-1.832,0.178-2.564,0.829
				c-0.201,0.179-0.369,0.385-0.521,0.605c-0.504,0.733-1.188,1.205-2.063,1.375c-1.022,0.201-1.942-0.041-2.743-0.707
				c-0.633-0.525-0.999-1.208-1.119-2.017c-0.088-0.588-0.016-1.16,0.213-1.711c0.015-0.035,0.045-0.067,0.027-0.109
				c0.331-0.6,0.747-1.135,1.25-1.6c1.033-0.957,2.252-1.522,3.649-1.699c3.277-0.414,6.357,1.724,7.122,4.952
				c0.375,1.582,0.177,3.098-0.57,4.542C22.382,19.672,22.372,19.727,22.317,19.75z"/>
			<path fill-rule="evenodd" clip-rule="evenodd" d="M7.607,26.523c-0.017,0.013-0.029,0.027-0.046,0.038
				c-0.268,0.179-0.536,0.355-0.802,0.537c-0.066,0.045-0.077-0.009-0.099-0.042c-0.389-0.581-0.776-1.163-1.164-1.744
				c-0.78-1.17-1.56-2.342-2.344-3.511c-0.051-0.076-0.039-0.105,0.033-0.15c0.251-0.162,0.499-0.329,0.747-0.498
				c0.05-0.034,0.073-0.035,0.11,0.02c1.174,1.764,2.35,3.527,3.525,5.291C7.582,26.481,7.594,26.501,7.607,26.523z"/>
			<path fill-rule="evenodd" clip-rule="evenodd" d="M7.604,6.674C7.59,6.694,7.577,6.716,7.563,6.738
				C6.5,8.33,5.438,9.923,4.376,11.516C4.264,11.684,4.15,11.85,4.042,12.02c-0.03,0.049-0.052,0.057-0.104,0.022
				c-0.257-0.176-0.518-0.349-0.778-0.519c-0.055-0.035-0.056-0.058-0.021-0.11c1.175-1.759,2.349-3.52,3.521-5.281
				c0.034-0.053,0.058-0.068,0.117-0.027c0.254,0.175,0.513,0.344,0.77,0.516C7.569,6.635,7.595,6.644,7.604,6.674z"/>
			<path fill-rule="evenodd" clip-rule="evenodd" d="M25.213,6.972c0.034,0.014,0.043,0.044,0.059,0.067
				c0.482,0.721,0.963,1.442,1.444,2.165c0.688,1.032,1.375,2.065,2.066,3.096c0.047,0.07,0.038,0.095-0.026,0.137
				c-0.255,0.163-0.506,0.331-0.754,0.502c-0.06,0.04-0.082,0.029-0.119-0.026c-1.171-1.76-2.345-3.52-3.521-5.278
				c-0.038-0.057-0.031-0.079,0.024-0.115c0.259-0.168,0.515-0.341,0.771-0.512C25.177,6.996,25.195,6.984,25.213,6.972z"/>
			<path fill-rule="evenodd" clip-rule="evenodd" d="M8.959,7.576C8.947,7.593,8.938,7.61,8.927,7.626
				c-1.176,1.764-2.353,3.527-3.527,5.292c-0.033,0.051-0.055,0.062-0.11,0.024c-0.257-0.176-0.517-0.349-0.778-0.519
				c-0.05-0.033-0.054-0.053-0.021-0.102c1.177-1.762,2.354-3.526,3.529-5.29C8.046,6.991,8.062,6.959,8.12,7
				c0.263,0.18,0.529,0.355,0.795,0.532C8.931,7.543,8.957,7.549,8.959,7.576z"/>
			<path fill-rule="evenodd" clip-rule="evenodd" d="M6.708,13.883c-0.025-0.016-0.045-0.028-0.063-0.041
				c-0.252-0.167-0.502-0.337-0.757-0.501c-0.065-0.042-0.075-0.071-0.029-0.139c0.762-1.137,1.521-2.276,2.279-3.414
				c0.409-0.614,0.82-1.227,1.227-1.843C9.41,7.875,9.438,7.876,9.502,7.92c0.249,0.172,0.501,0.338,0.755,0.504
				c0.051,0.033,0.06,0.055,0.022,0.11c-1.177,1.762-2.353,3.526-3.528,5.29C6.738,13.844,6.723,13.863,6.708,13.883z"/>
			<path fill-rule="evenodd" clip-rule="evenodd" d="M6.702,19.311c0.029,0.012,0.038,0.041,0.054,0.063
				c0.372,0.557,0.743,1.113,1.114,1.671c0.799,1.198,1.597,2.396,2.398,3.593c0.045,0.066,0.043,0.094-0.027,0.139
				c-0.255,0.163-0.505,0.333-0.755,0.502c-0.047,0.032-0.072,0.041-0.11-0.017c-1.174-1.765-2.35-3.528-3.526-5.29
				c-0.029-0.044-0.044-0.069,0.014-0.106c0.264-0.172,0.525-0.349,0.787-0.523C6.667,19.332,6.684,19.322,6.702,19.311z"/>
			<path fill-rule="evenodd" clip-rule="evenodd" d="M28.229,24.648c-0.014,0.021-0.024,0.037-0.035,0.053
				c-0.526,0.79-1.053,1.579-1.577,2.369c-0.03,0.045-0.051,0.053-0.098,0.022c-0.263-0.179-0.528-0.356-0.794-0.53
				c-0.045-0.029-0.044-0.049-0.017-0.09c0.529-0.792,1.057-1.583,1.584-2.376c0.022-0.033,0.037-0.055,0.081-0.024
				c0.272,0.184,0.546,0.365,0.818,0.546C28.205,24.627,28.217,24.638,28.229,24.648z"/>
			<path fill-rule="evenodd" clip-rule="evenodd" d="M28.226,8.536c-0.006,0.028-0.031,0.033-0.049,0.045
				c-0.26,0.174-0.52,0.345-0.777,0.521c-0.056,0.038-0.078,0.036-0.116-0.023c-0.303-0.458-0.608-0.915-0.912-1.372
				c-0.217-0.324-0.433-0.649-0.651-0.972c-0.036-0.054-0.04-0.079,0.021-0.118c0.259-0.167,0.516-0.339,0.77-0.514
				c0.055-0.037,0.077-0.029,0.111,0.022c0.521,0.785,1.045,1.568,1.567,2.353C28.201,8.498,28.213,8.517,28.226,8.536z"/>
			<path fill-rule="evenodd" clip-rule="evenodd" d="M27.469,13.269c-0.002,0.04-0.035,0.046-0.059,0.062
				c-0.253,0.169-0.51,0.336-0.761,0.51c-0.062,0.043-0.085,0.031-0.123-0.026c-0.461-0.696-0.925-1.391-1.388-2.085
				c-0.059-0.086-0.113-0.174-0.175-0.259c-0.036-0.049-0.036-0.074,0.02-0.11c0.261-0.168,0.517-0.339,0.771-0.514
				c0.056-0.038,0.079-0.034,0.116,0.023c0.32,0.485,0.645,0.968,0.968,1.452c0.198,0.298,0.396,0.595,0.594,0.893
				C27.444,13.233,27.457,13.251,27.469,13.269z"/>
			<path fill-rule="evenodd" clip-rule="evenodd" d="M27.47,19.918c-0.01,0.015-0.02,0.031-0.03,0.048
				c-0.524,0.787-1.051,1.573-1.572,2.361c-0.039,0.059-0.063,0.049-0.11,0.017c-0.256-0.172-0.512-0.344-0.771-0.513
				c-0.052-0.033-0.061-0.055-0.023-0.11c0.525-0.785,1.05-1.572,1.573-2.359c0.027-0.041,0.044-0.059,0.095-0.024
				c0.263,0.18,0.529,0.354,0.794,0.531C27.443,19.881,27.468,19.888,27.47,19.918z"/>
			<path fill-rule="evenodd" clip-rule="evenodd" d="M28.826,20.819c-0.012,0.019-0.021,0.035-0.033,0.052
				c-0.522,0.784-1.046,1.568-1.566,2.353c-0.039,0.058-0.063,0.06-0.117,0.022c-0.256-0.173-0.512-0.345-0.771-0.513
				c-0.053-0.034-0.056-0.058-0.021-0.11c0.524-0.783,1.048-1.567,1.568-2.352c0.036-0.054,0.059-0.058,0.112-0.022
				c0.257,0.176,0.518,0.347,0.777,0.521C28.796,20.783,28.824,20.79,28.826,20.819z"/>
			<path fill-rule="evenodd" clip-rule="evenodd" d="M7.301,23.149c0.035,0.008,0.042,0.04,0.057,0.063
				c0.395,0.589,0.787,1.179,1.18,1.769c0.13,0.194,0.259,0.391,0.392,0.583c0.035,0.05,0.026,0.071-0.021,0.102
				c-0.262,0.17-0.522,0.342-0.779,0.52c-0.058,0.04-0.077,0.022-0.109-0.026c-0.522-0.785-1.045-1.569-1.569-2.352
				c-0.037-0.054-0.027-0.076,0.022-0.109c0.259-0.169,0.516-0.341,0.772-0.513C7.263,23.174,7.282,23.162,7.301,23.149z"/>
			<path fill-rule="evenodd" clip-rule="evenodd" d="M25.212,26.217c-0.014-0.009-0.029-0.019-0.046-0.029
				c-0.264-0.177-0.528-0.354-0.795-0.529c-0.04-0.027-0.049-0.043-0.019-0.087c0.529-0.791,1.057-1.582,1.583-2.374
				c0.03-0.046,0.051-0.052,0.097-0.021c0.26,0.177,0.522,0.352,0.786,0.523c0.047,0.031,0.056,0.051,0.021,0.102
				c-0.527,0.788-1.053,1.576-1.58,2.365C25.248,26.186,25.243,26.21,25.212,26.217z"/>
			<path fill-rule="evenodd" clip-rule="evenodd" d="M25.515,10.34c-0.005,0.025-0.025,0.032-0.041,0.042
				c-0.267,0.179-0.535,0.356-0.802,0.537c-0.045,0.031-0.063,0.018-0.089-0.021c-0.527-0.792-1.056-1.584-1.585-2.375
				c-0.028-0.042-0.023-0.061,0.02-0.089c0.267-0.174,0.531-0.351,0.794-0.53c0.038-0.024,0.059-0.034,0.09,0.013
				c0.528,0.796,1.06,1.59,1.589,2.385C25.499,10.315,25.507,10.329,25.515,10.34z"/>
			<path fill-rule="evenodd" clip-rule="evenodd" d="M30.18,11.466c0.004,0.027-0.02,0.032-0.034,0.042
				c-0.272,0.183-0.546,0.363-0.818,0.547c-0.05,0.034-0.061-0.002-0.079-0.03c-0.157-0.235-0.313-0.47-0.47-0.705
				c-0.366-0.549-0.73-1.098-1.099-1.645c-0.039-0.058-0.042-0.084,0.022-0.125c0.26-0.167,0.516-0.339,0.77-0.514
				C28.523,9,28.544,9.009,28.575,9.057c0.523,0.788,1.048,1.574,1.572,2.36C30.157,11.434,30.169,11.45,30.18,11.466z"/>
			<path fill-rule="evenodd" clip-rule="evenodd" d="M29.296,21.117c0.011,0.007,0.025,0.016,0.038,0.025
				c0.268,0.178,0.534,0.357,0.803,0.533c0.043,0.028,0.047,0.047,0.019,0.09c-0.53,0.791-1.058,1.583-1.585,2.375
				c-0.026,0.039-0.043,0.053-0.089,0.021c-0.264-0.179-0.528-0.355-0.794-0.53c-0.047-0.03-0.051-0.052-0.02-0.098
				c0.527-0.788,1.054-1.578,1.58-2.366C29.26,21.149,29.268,21.125,29.296,21.117z"/>
			<path fill-rule="evenodd" clip-rule="evenodd" d="M25.515,22.851c-0.013,0.02-0.023,0.036-0.034,0.053
				c-0.524,0.786-1.05,1.573-1.572,2.361c-0.034,0.051-0.056,0.051-0.103,0.019c-0.258-0.176-0.517-0.349-0.779-0.519
				c-0.058-0.037-0.051-0.061-0.019-0.11c0.522-0.78,1.044-1.561,1.563-2.343c0.041-0.062,0.065-0.065,0.125-0.024
				c0.251,0.173,0.507,0.34,0.76,0.51C25.479,22.811,25.509,22.819,25.515,22.851z"/>
			<path fill-rule="evenodd" clip-rule="evenodd" d="M7.004,22.692c-0.282,0.189-0.566,0.377-0.849,0.569
				c-0.041,0.028-0.058,0.017-0.083-0.02c-0.528-0.795-1.058-1.59-1.59-2.385c-0.027-0.04-0.021-0.055,0.017-0.08
				c0.269-0.177,0.536-0.355,0.803-0.535c0.034-0.023,0.056-0.033,0.084,0.011C5.923,21.063,6.462,21.871,7,22.68
				C7.002,22.683,7.003,22.686,7.004,22.692z"/>
		</g>
	</g>
</g>
<g id="Imagenes">
</g>
<g id="Cintillos">
</g>
<g id="Botones">
</g>
<g id="TXT">
</g>
<g id="Logo">
</g>
<g id="Guia">
</g>
</svg>
