<?xml version="1.0" encoding="utf-8"?>
<!-- Generator: Adobe Illustrator 16.0.0, SVG Export Plug-In . SVG Version: 6.00 Build 0)  -->
<!DOCTYPE svg PUBLIC "-//W3C//DTD SVG 1.1//EN" "http://www.w3.org/Graphics/SVG/1.1/DTD/svg11.dtd">
<svg version="1.1" xmlns="http://www.w3.org/2000/svg" xmlns:xlink="http://www.w3.org/1999/xlink" x="0px" y="0px"
	 width="34.417px" height="34.25px" viewBox="0 0 34.417 34.25" enable-background="new 0 0 34.417 34.25" xml:space="preserve">
<g id="Soporte">
</g>
<g id="Publicidad">
</g>
<g id="Iconos">
	<g>
		<defs>
			<circle id="SVGID_75_" cx="-18.217" cy="16.595" r="15.917"/>
		</defs>
		<clipPath id="SVGID_2_">
			<use xlink:href="#SVGID_75_"  overflow="visible"/>
		</clipPath>
		<g clip-path="url(#SVGID_2_)">
			<path fill-rule="evenodd" clip-rule="evenodd" fill="#002A8E" d="M-36.329,33.09c0.781-0.468,1.561-0.94,2.344-1.403
				c2.863-1.693,5.727-3.383,8.59-5.074c0.08-0.047,0.165-0.084,0.248-0.125c0.117,0.002,0.234,0.007,0.353,0.007
				c17.669,0,35.338,0,53.008,0c0,2.201,0,4.402,0,6.603c-21.396,0-42.793,0-64.189,0C-36.094,33.098-36.212,33.092-36.329,33.09z"
				/>
			<path fill-rule="evenodd" clip-rule="evenodd" fill="#002A8E" d="M-25.142,6.694c-0.825-0.48-1.65-0.958-2.473-1.442
				c-2.845-1.678-5.69-3.357-8.534-5.037c-0.063-0.038-0.143-0.055-0.178-0.132c21.438,0,42.875,0,64.312-0.005
				c0.189,0,0.233,0.043,0.232,0.237c-0.007,2.124-0.004,4.247-0.004,6.371c-17.659,0-35.318,0-52.977,0
				C-24.89,6.686-25.017,6.692-25.142,6.694z"/>
			<path fill-rule="evenodd" clip-rule="evenodd" fill="#FEFEFE" d="M28.213,26.495c-17.67,0-35.339,0-53.008,0
				c-0.118,0-0.235-0.005-0.353-0.007c0.963-0.575,1.925-1.154,2.891-1.725c2.696-1.593,5.395-3.184,8.093-4.775
				c0.065-0.039,0.134-0.069,0.202-0.104c0.108,0.003,0.218,0.008,0.327,0.008c13.949,0,27.898,0,41.848,0
				C28.213,22.093,28.213,24.294,28.213,26.495z"/>
			<path fill-rule="evenodd" clip-rule="evenodd" fill="#FEFEFE" d="M-25.142,6.694c0.125-0.002,0.252-0.008,0.377-0.008
				c17.659,0,35.318,0,52.977,0c0,2.201,0,4.402,0,6.604c-13.948,0-27.896,0-41.843,0c-0.109,0-0.218,0.005-0.327,0.008
				c-0.947-0.554-1.896-1.104-2.841-1.661c-2.72-1.603-5.439-3.208-8.158-4.814C-25.021,6.785-25.08,6.738-25.142,6.694z"/>
			<path fill-rule="evenodd" clip-rule="evenodd" fill="#002A8E" d="M-13.957,13.297c0.109-0.003,0.218-0.008,0.327-0.008
				c13.947,0,27.895,0,41.843,0c0,2.201,0,4.402,0,6.603c-13.95,0-27.898,0-41.848,0c-0.109,0-0.219-0.005-0.327-0.008
				c1.094-0.651,2.187-1.303,3.281-1.953c0.675-0.4,1.352-0.797,2.027-1.196c0.244-0.144,0.244-0.146,0.004-0.287
				c-1.721-1.017-3.443-2.033-5.164-3.05C-13.864,13.368-13.91,13.331-13.957,13.297z"/>
			<path fill-rule="evenodd" clip-rule="evenodd" fill="#FEFEFE" d="M-36.329,33.09c0.117,0.002,0.235,0.008,0.353,0.008
				c21.396,0,42.793,0,64.189,0c-0.012,0.016,0.025,0.055-0.025,0.052c-0.067-0.002-0.135,0-0.202,0
				c-21.378,0-42.757,0-64.135-0.003c-0.074,0-0.171,0.06-0.228-0.048C-36.36,33.099-36.344,33.096-36.329,33.09z"/>
		</g>
	</g>
	<g>
		<defs>
			<circle id="SVGID_77_" cx="17.783" cy="16.595" r="15.917"/>
		</defs>
		<clipPath id="SVGID_4_">
			<use xlink:href="#SVGID_77_"  overflow="visible"/>
		</clipPath>
		<g clip-path="url(#SVGID_4_)">
			<path fill-rule="evenodd" clip-rule="evenodd" fill="#171795" d="M50.693,22.011c0,3.555,0,7.11,0.004,10.667
				c0,0.106-0.017,0.135-0.132,0.135c-21.533-0.003-43.066-0.003-64.599,0c-0.115,0-0.13-0.029-0.13-0.135
				c0.004-3.556,0.004-7.111,0.004-10.667c0.047-0.053,0.107-0.067,0.175-0.067c0.081,0,0.163-0.002,0.244-0.002
				c8.754,0,17.508,0,26.263,0.001c0.112,0,0.227-0.011,0.338,0.018c0.092,0.004,0.144,0.064,0.189,0.134
				c0.43,0.664,0.975,1.219,1.617,1.679c0.438,0.315,0.913,0.562,1.418,0.757c0.509,0.196,1.035,0.324,1.573,0.373
				c0.442,0.04,0.89,0.034,1.336-0.018c0.762-0.088,1.481-0.309,2.156-0.665c0.884-0.467,1.628-1.106,2.206-1.931
				c0.053-0.075,0.113-0.145,0.158-0.226c0.032-0.059,0.084-0.097,0.155-0.102c0.085-0.024,0.172-0.019,0.258-0.019
				c8.816-0.001,17.632-0.001,26.446,0C50.482,21.944,50.603,21.914,50.693,22.011z"/>
			<path fill-rule="evenodd" clip-rule="evenodd" fill="#FD0000" d="M23.624,22.001c-0.368,0.563-0.797,1.073-1.317,1.504
				c-0.935,0.778-2,1.285-3.209,1.415c-2.615,0.28-4.66-0.707-6.146-2.868c-0.013-0.018-0.026-0.034-0.04-0.051
				c-0.093-0.034-0.143-0.111-0.188-0.192c-0.423-0.765-0.703-1.574-0.79-2.448c-0.018-0.183-0.027-0.366-0.027-0.549
				c0-2.372,0-4.744,0-7.117c0-0.064,0-0.129,0-0.194c-0.002-0.233-0.019-0.25-0.248-0.252c-0.081-0.001-0.162-0.001-0.243-0.001
				c-8.403,0-16.805,0-25.208-0.002c-0.125,0-0.262,0.042-0.369-0.066c0-3.555,0-7.11-0.004-10.667c0-0.106,0.016-0.135,0.13-0.135
				c21.533,0.003,43.066,0.003,64.599,0c0.115,0,0.132,0.029,0.132,0.135c-0.004,3.556-0.004,7.111-0.004,10.667
				c-0.047,0.052-0.107,0.066-0.176,0.067c-0.091,0-0.184,0.001-0.274,0.001c-8.409,0-16.816,0-25.225,0
				c-0.417,0-0.392-0.025-0.392,0.4c0,2.394-0.001,4.787,0,7.181c0.001,0.856-0.2,1.667-0.543,2.446
				c-0.08,0.184-0.179,0.357-0.27,0.535C23.77,21.896,23.714,21.963,23.624,22.001z"/>
			<path fill-rule="evenodd" clip-rule="evenodd" fill="#FEFEFE" d="M-14.16,11.18c0.069,0.003,0.139,0.008,0.209,0.008
				c8.569,0,17.138,0,25.707,0.001c0.245,0,0.211-0.032,0.211,0.217c0.001,2.458-0.001,4.916,0.005,7.375
				c0.002,1.098,0.305,2.117,0.853,3.065c0.03,0.051,0.058,0.104,0.086,0.155c-0.081,0-0.162,0.002-0.243,0.002
				c-8.873,0-17.746,0-26.618,0c-0.071,0-0.141,0.005-0.21,0.008C-14.16,18.401-14.16,14.79-14.16,11.18z"/>
			<path fill-rule="evenodd" clip-rule="evenodd" fill="#FEFEFE" d="M23.624,22.001c0.379-0.64,0.665-1.316,0.817-2.047
				c0.097-0.473,0.13-0.951,0.13-1.434c-0.001-2.383,0.001-4.767-0.004-7.15c0-0.149,0.038-0.185,0.187-0.185
				c8.577,0.004,17.154,0.003,25.729,0.003c0.071,0,0.141-0.005,0.21-0.008c0,3.61,0,7.221,0,10.832
				c-0.069-0.003-0.139-0.008-0.21-0.008c-8.877,0-17.755,0-26.632,0C23.775,22.003,23.7,22.001,23.624,22.001z"/>
			<path fill-rule="evenodd" clip-rule="evenodd" fill="#FEFEFE" d="M18.283,11.31c1.999,0,3.998,0.002,5.997-0.003
				c0.14,0,0.179,0.028,0.179,0.174c-0.005,2.372,0.013,4.744-0.009,7.116c-0.021,2.444-1.108,4.299-3.223,5.516
				c-1.255,0.722-2.629,0.951-4.05,0.659c-2.523-0.518-4.142-2.046-4.885-4.506c-0.162-0.536-0.208-1.09-0.208-1.649
				c-0.001-2.383,0.001-4.766-0.005-7.148c0-0.145,0.05-0.162,0.175-0.162C14.264,11.311,16.272,11.31,18.283,11.31z"/>
			<path fill-rule="evenodd" clip-rule="evenodd" fill="#FDFDFD" d="M12.219,11.095c-0.06,0.011-0.058-0.043-0.071-0.072
				c-0.468-1.059-0.934-2.119-1.402-3.178c-0.024-0.054-0.024-0.097,0.008-0.149c0.345-0.554,0.69-1.107,1.03-1.665
				c0.054-0.092,0.106-0.063,0.172-0.038c0.541,0.2,1.082,0.397,1.62,0.604c0.1,0.038,0.149,0.02,0.215-0.057
				c0.37-0.431,0.748-0.853,1.116-1.285c0.08-0.094,0.137-0.094,0.235-0.037c0.493,0.289,0.992,0.567,1.485,0.856
				c0.08,0.047,0.124,0.043,0.195-0.015c0.444-0.37,0.895-0.732,1.337-1.103c0.083-0.07,0.134-0.067,0.216,0.001
				c0.439,0.367,0.886,0.726,1.325,1.093c0.08,0.067,0.132,0.067,0.222,0.015c0.497-0.292,1.002-0.573,1.5-0.863
				c0.083-0.048,0.124-0.04,0.185,0.031c0.381,0.441,0.768,0.877,1.149,1.32c0.06,0.07,0.105,0.081,0.188,0.048
				c0.539-0.205,1.081-0.403,1.619-0.607c0.094-0.036,0.146-0.033,0.204,0.065c0.32,0.531,0.649,1.057,0.979,1.583
				c0.053,0.084,0.064,0.151,0.02,0.249c-0.457,1.023-0.91,2.047-1.355,3.076c-0.057,0.132-0.107,0.129-0.222,0.079
				c-2.147-0.949-4.398-1.342-6.736-1.22c-1.778,0.092-3.485,0.501-5.118,1.219C12.297,11.063,12.258,11.079,12.219,11.095z"/>
			<path fill-rule="evenodd" clip-rule="evenodd" fill="#FE0000" d="M14.699,14.165c-0.74-0.002-1.479-0.007-2.219-0.002
				c-0.134,0.001-0.17-0.036-0.168-0.17c0.006-0.767,0.005-1.534,0.001-2.3c-0.001-0.115,0.021-0.157,0.149-0.156
				c0.701,0.007,1.403,0.004,2.105,0.001c0.091,0,0.133,0.013,0.133,0.121c-0.007,0.837-0.005,1.674-0.007,2.51L14.699,14.165z"/>
			<path fill-rule="evenodd" clip-rule="evenodd" fill="#FE0000" d="M21.846,14.176c-0.003-0.043-0.011-0.085-0.011-0.128
				c-0.001-0.789,0.001-1.578-0.004-2.367c0-0.111,0.025-0.145,0.142-0.144c0.697,0.006,1.393,0.006,2.09,0
				c0.128-0.001,0.149,0.04,0.149,0.155c-0.005,0.773-0.006,1.545,0,2.318c0.001,0.121-0.03,0.153-0.151,0.152
				c-0.681-0.006-1.362-0.003-2.044-0.002c-0.058,0-0.116,0.008-0.176,0.012L21.846,14.176z"/>
			<path fill-rule="evenodd" clip-rule="evenodd" fill="#FE0000" d="M17.068,14.166c0.001-0.815,0.008-1.632,0-2.447
				c-0.002-0.155,0.047-0.183,0.188-0.182c0.724,0.008,1.447,0.006,2.173,0.006c0.027,0.025,0.02,0.06,0.02,0.09
				c0,0.823,0,1.646,0,2.469c0,0.021-0.002,0.042-0.009,0.063c-0.049,0.064-0.121,0.064-0.191,0.064
				c-0.663,0.002-1.327,0.002-1.99,0c-0.06,0-0.119,0-0.17-0.039C17.083,14.183,17.076,14.175,17.068,14.166z"/>
			<path fill-rule="evenodd" clip-rule="evenodd" fill="#FE0000" d="M14.693,14.169c0.496-0.003,0.991-0.008,1.487-0.009
				c0.296,0,0.592,0.004,0.888,0.006l-0.004-0.004c0.063,0.056,0.07,0.129,0.07,0.207c0.001,0.734,0.001,1.467,0,2.2
				c0,0.071-0.002,0.141-0.053,0.199c-0.044,0.04-0.099,0.038-0.151,0.038c-0.69,0.002-1.379,0.001-2.069,0
				c-0.058,0-0.12,0.007-0.163-0.047c0-0.864,0.001-1.729,0.001-2.593L14.693,14.169z"/>
			<path fill-rule="evenodd" clip-rule="evenodd" fill="#FE0000" d="M21.831,19.382c0.001,0.865,0.001,1.731,0.002,2.596
				c-0.034,0.024-0.074,0.016-0.11,0.016c-0.711,0-1.422-0.002-2.135,0.003c-0.128,0.001-0.172-0.045-0.171-0.167
				c0-0.771-0.001-1.542,0.001-2.312c0-0.049,0-0.098,0.03-0.14c0.057-0.061,0.134-0.061,0.208-0.061
				c0.656-0.002,1.311-0.002,1.967,0c0.064,0,0.13-0.004,0.186,0.04C21.817,19.365,21.824,19.374,21.831,19.382z"/>
			<path fill-rule="evenodd" clip-rule="evenodd" fill="#FE0000" d="M14.697,21.978c0.001-0.865,0.004-1.731,0.005-2.596
				c0.008-0.008,0.014-0.017,0.022-0.024c0.059-0.048,0.131-0.04,0.201-0.04c0.641-0.002,1.283-0.002,1.923,0
				c0.081,0,0.163-0.004,0.229,0.057c0.054,0.056,0.056,0.126,0.057,0.197c0.002,0.738,0.001,1.477,0,2.215
				c0,0.07,0,0.142-0.057,0.196c-0.057,0.024-0.116,0.013-0.174,0.013c-0.678,0.001-1.355,0.001-2.032,0
				C14.813,21.994,14.753,22.009,14.697,21.978z"/>
			<path fill-rule="evenodd" clip-rule="evenodd" fill="#FE0000" d="M21.841,14.171c-0.002,0.862-0.005,1.724-0.007,2.586
				c-0.048,0.059-0.118,0.047-0.181,0.047c-0.669,0.001-1.338,0.002-2.009,0c-0.2,0-0.224-0.025-0.226-0.225
				c-0.001-0.74,0-1.48,0-2.221c0-0.069-0.008-0.142,0.048-0.199c0.757,0,1.514-0.001,2.269-0.001c0.037,0,0.074,0.01,0.111,0.016
				L21.841,14.171z"/>
			<path fill-rule="evenodd" clip-rule="evenodd" fill="#FE0000" d="M14.702,19.382c-0.737,0-1.476,0-2.214,0.005
				c-0.104,0.001-0.146-0.03-0.146-0.13c-0.003-0.086-0.009-0.172-0.014-0.258c-0.025-0.199-0.01-0.397-0.01-0.597
				c-0.002-0.501,0-1.001-0.002-1.502c0-0.082,0.01-0.128,0.111-0.128c0.749,0.005,1.498,0.001,2.247,0.004
				c0.01,0,0.02,0.006,0.031,0.009c0.064,0.05,0.062,0.122,0.063,0.192c0.002,0.734,0.001,1.468,0,2.203
				c0,0.078-0.006,0.151-0.07,0.207L14.702,19.382z"/>
			<path fill-rule="evenodd" clip-rule="evenodd" fill="#FE0000" d="M24.202,16.789c0.01,0.782,0.019,1.564-0.008,2.346
				c-0.009,0.25-0.017,0.25-0.259,0.25c-0.701,0-1.402-0.002-2.104-0.002l0.005,0.004c-0.063-0.055-0.069-0.129-0.069-0.206
				c-0.001-0.733-0.001-1.465,0-2.197c0-0.07-0.001-0.142,0.058-0.194c0.029-0.019,0.063-0.015,0.094-0.015
				c0.73-0.001,1.46-0.001,2.189,0C24.14,16.774,24.173,16.77,24.202,16.789z"/>
			<path fill-rule="evenodd" clip-rule="evenodd" fill="#FE0000" d="M19.434,24.507c-0.749,0.162-1.5,0.153-2.251,0.025
				c-0.1-0.017-0.113-0.066-0.113-0.154c0.003-0.767,0.002-1.534,0.002-2.3c0.021-0.131,0.123-0.116,0.213-0.116
				c0.583-0.001,1.167,0,1.751,0c0.414,0,0.414,0,0.414,0.409c0,0.653,0.001,1.308,0,1.961C19.45,24.39,19.465,24.451,19.434,24.507
				z"/>
			<path fill-rule="evenodd" clip-rule="evenodd" fill="#FE7C7C" d="M19.434,24.507c0.001-0.795,0.002-1.589,0.006-2.383
				c0-0.084-0.029-0.111-0.112-0.111c-0.714,0.002-1.428,0.002-2.141,0c-0.054,0-0.095,0.01-0.114,0.066
				c-0.021-0.099-0.1-0.063-0.155-0.063c-0.74-0.004-1.48-0.004-2.22-0.005c-0.047,0.053-0.107,0.065-0.174,0.066
				c-0.327,0.001-0.654,0.001-0.982,0c-0.06,0-0.114-0.026-0.172-0.034c-0.021-0.11,0.068-0.059,0.103-0.06
				c0.37-0.004,0.741-0.002,1.113-0.003c0.037,0,0.074-0.002,0.112-0.004c0.791,0,1.583,0,2.374,0
				c0.064-0.078,0.155-0.067,0.24-0.067c0.6-0.002,1.199,0,1.799-0.001c0.246,0,0.255-0.009,0.256-0.256c0-0.669,0-1.339,0-2.009
				c0-0.086,0-0.173,0.009-0.259c-0.021-0.738-0.004-1.477-0.009-2.215c-0.002-0.312-0.001-0.31-0.313-0.313
				c-0.663-0.004-1.326,0.012-1.989-0.008c-0.73,0.019-1.461,0.005-2.191,0.007c-0.068,0-0.128-0.017-0.176-0.067
				c-0.739,0-1.478,0.001-2.217-0.006c-0.129-0.001-0.15,0.046-0.149,0.16c0.005,0.642,0.004,1.284,0.004,1.926
				c0,0.043-0.004,0.085-0.006,0.128c-0.034-0.072-0.025-0.148-0.027-0.223c-0.001-0.621,0.001-1.241-0.003-1.861
				c0-0.114,0.023-0.163,0.15-0.162c0.75,0.006,1.5,0.003,2.25,0.005c0.791,0,1.582,0,2.373,0c0.064-0.077,0.154-0.067,0.24-0.068
				c0.556-0.002,1.111,0,1.667,0c0.423,0,0.389,0.032,0.39-0.397c0-0.625-0.001-1.251,0-1.877c0-0.091-0.009-0.185,0.067-0.257
				c-0.002-0.872-0.003-1.743-0.004-2.615c0.065,0.024,0.038,0.083,0.038,0.125c0.001,0.831,0,1.662-0.001,2.493
				c0.001,0.809,0.005,1.618,0.001,2.426c-0.001,0.132,0.029,0.173,0.167,0.171c0.732-0.006,1.466-0.002,2.199,0
				c0.751,0,1.501-0.002,2.253-0.001c0.039,0,0.088-0.02,0.115,0.032c-0.79,0.001-1.579,0.001-2.369,0.001
				c-0.065,0.075-0.155,0.068-0.239,0.068c-0.605,0.001-1.208,0-1.812,0.001c-0.235,0-0.247,0.013-0.248,0.248
				c0,0.674,0.001,1.348,0,2.022c-0.001,0.09,0.012,0.186-0.068,0.256c0.001,0.804,0.007,1.607,0.001,2.411
				c-0.001,0.141,0.025,0.194,0.182,0.192c0.728-0.011,1.457-0.008,2.184-0.01c0.405,0.002,0.808,0.004,1.213,0.01
				c0.039,0,0.116-0.044,0.115,0.055c-0.146,0.053-0.296,0.034-0.445,0.036c-0.226,0.002-0.451,0.001-0.676,0
				c-0.076,0-0.152-0.004-0.206-0.067c-0.734,0.001-1.467,0.005-2.199,0c-0.134-0.001-0.171,0.033-0.17,0.168
				c0.007,0.722,0.004,1.444,0.001,2.167C19.467,24.399,19.501,24.466,19.434,24.507z"/>
			<path fill-rule="evenodd" clip-rule="evenodd" fill="#FE0000" d="M13.369,22.044c0.047-0.056,0.109-0.029,0.166-0.029
				c0.387-0.004,0.774-0.004,1.163-0.004c0,0.461,0,0.922,0,1.417C14.162,23.025,13.729,22.57,13.369,22.044z"/>
			<path fill-rule="evenodd" clip-rule="evenodd" fill="#FE0000" d="M21.835,22.011c0.387,0.001,0.772,0.001,1.16,0.005
				c0.056,0,0.119-0.025,0.167,0.026c-0.362,0.522-0.795,0.976-1.327,1.384C21.835,22.938,21.835,22.475,21.835,22.011z"/>
			<path fill-rule="evenodd" clip-rule="evenodd" fill="#018FDA" d="M19.5,9.733c-1.054-0.076-2.104-0.056-3.151,0.081
				c-1.366,0.179-2.684,0.531-3.947,1.08c-0.113,0.048-0.157,0.04-0.208-0.079c-0.422-0.974-0.853-1.945-1.284-2.916
				c-0.039-0.088-0.035-0.154,0.017-0.237c0.297-0.47,0.591-0.942,0.877-1.418c0.064-0.109,0.121-0.133,0.241-0.086
				c0.503,0.195,1.009,0.38,1.515,0.566c0.063,0.023,0.124,0.07,0.199,0.048c0.081,0.082,0.088,0.192,0.114,0.294
				c0.046,0.18,0.098,0.359,0.134,0.543c0.098,0.287,0.156,0.584,0.225,0.879c0.066,0.183,0.099,0.375,0.149,0.562
				c0.047,0.175,0.063,0.188,0.234,0.146c0.451-0.108,0.905-0.193,1.365-0.26c0.25-0.038,0.501-0.077,0.752-0.089
				c0.105-0.005,0.144-0.046,0.14-0.148c-0.009-0.237-0.044-0.472-0.057-0.708c-0.024-0.278-0.061-0.554-0.063-0.832
				c-0.034-0.226-0.038-0.454-0.068-0.681c-0.009-0.07-0.001-0.139,0.052-0.193c0.472-0.384,0.946-0.766,1.416-1.154
				c0.086-0.071,0.138-0.079,0.228-0.003c0.467,0.391,0.941,0.773,1.413,1.159c0.065,0.049,0.07,0.121,0.062,0.191
				c-0.047,0.438-0.073,0.877-0.114,1.316c-0.029,0.305-0.054,0.61-0.076,0.916c-0.021,0.29-0.056,0.577-0.07,0.867
				C19.591,9.643,19.567,9.702,19.5,9.733z"/>
			<path fill-rule="evenodd" clip-rule="evenodd" fill="#1E1691" d="M19.5,9.733c0.031-0.311,0.065-0.621,0.091-0.932
				c0.066-0.763,0.129-1.525,0.192-2.288c0.006-0.076,0.006-0.151,0.009-0.227c0.537-0.308,1.073-0.614,1.608-0.923
				c0.06-0.034,0.101-0.058,0.161,0.012c0.405,0.474,0.816,0.944,1.225,1.416c0.046,0.051,0.043,0.11,0.028,0.168
				c-0.083,0.311-0.16,0.624-0.241,0.936c-0.014,0.054-0.042,0.099-0.088,0.13c-0.024,0.082-0.059,0.161-0.048,0.25
				c0.005,0.009,0.015,0.019,0.015,0.027c-0.003,0.273-0.062,0.53-0.21,0.762c-0.064,0.074-0.069,0.166-0.08,0.257
				c-0.009,0.289-0.044,0.571-0.223,0.814c-0.446-0.088-0.888-0.203-1.338-0.263C20.234,9.821,19.867,9.779,19.5,9.733z"/>
			<path fill-rule="evenodd" clip-rule="evenodd" fill="#0092DC" d="M22.485,8.024c0.101-0.411,0.201-0.823,0.301-1.234
				c0.566-0.208,1.134-0.414,1.698-0.628c0.113-0.042,0.174-0.039,0.244,0.077c0.273,0.459,0.557,0.912,0.844,1.362
				c0.076,0.12,0.098,0.217,0.028,0.354c-0.133,0.264-0.25,0.537-0.359,0.813c-0.053,0.138-0.099,0.171-0.248,0.104
				c-0.764-0.341-1.555-0.606-2.365-0.82C22.581,8.04,22.533,8.033,22.485,8.024z"/>
			<path fill-rule="evenodd" clip-rule="evenodd" fill="#FE0000" d="M13.958,7.62c-0.075-0.269-0.151-0.539-0.224-0.808
				c-0.002-0.011,0.016-0.026,0.023-0.04l0.002,0.005c0.157-0.13,0.355-0.144,0.542-0.186c0.687-0.154,1.383-0.26,2.082-0.336
				c0.113-0.012,0.223,0.004,0.333,0.028c0.006,0,0.013,0,0.019,0.001c0.026,0.291,0.071,0.58,0.066,0.873
				c-0.046,0.056-0.109,0.062-0.175,0.069c-0.825,0.088-1.644,0.219-2.452,0.409C14.104,7.653,14.027,7.676,13.958,7.62z"/>
			<path fill-rule="evenodd" clip-rule="evenodd" fill="#020000" d="M22.242,9.063c0.064-0.263,0.129-0.526,0.195-0.789
				c0.174-0.005,0.333,0.068,0.495,0.116c0.608,0.175,1.205,0.387,1.79,0.625c0.088,0.036,0.164,0.094,0.26,0.11
				c0.063,0.01,0.062,0.049,0.035,0.106c-0.092,0.202-0.18,0.409-0.265,0.614c-0.044,0.108-0.116,0.051-0.17,0.027
				c-0.489-0.217-0.99-0.401-1.498-0.561C22.804,9.223,22.521,9.145,22.242,9.063z"/>
			<path fill-rule="evenodd" clip-rule="evenodd" fill="#0092DC" d="M21.939,10.134c0.081-0.27,0.12-0.551,0.223-0.814
				c0.813,0.198,1.601,0.477,2.37,0.806c0.072,0.03,0.082,0.065,0.051,0.134c-0.093,0.2-0.183,0.402-0.27,0.605
				c-0.025,0.059-0.048,0.085-0.118,0.054c-0.721-0.319-1.466-0.568-2.228-0.769C21.958,10.147,21.948,10.139,21.939,10.134z"/>
			<path fill-rule="evenodd" clip-rule="evenodd" fill="#171795" d="M16.717,6.283c-0.468,0.064-0.94,0.106-1.408,0.182
				c-0.52,0.084-1.032,0.208-1.549,0.312c0.406-0.469,0.813-0.937,1.219-1.406c0.035-0.04,0.062-0.063,0.12-0.029
				C15.636,5.658,16.177,5.97,16.717,6.283z"/>
			<path fill-rule="evenodd" clip-rule="evenodd" fill="#FEFEFE" d="M19.434,14.158c0.002,0.826,0.002,1.652,0.009,2.478
				c0,0.126-0.067,0.121-0.153,0.121c-0.74,0-1.479,0.001-2.219,0.001c-0.001-0.866-0.004-1.731-0.005-2.596
				C17.854,14.16,18.644,14.16,19.434,14.158z"/>
			<path fill-rule="evenodd" clip-rule="evenodd" fill="#FEFEFE" d="M19.466,19.385c0.001-0.809,0.005-1.619,0-2.428
				c0-0.13,0.027-0.175,0.167-0.174c0.733,0.008,1.467,0.005,2.201,0.007c0.001,0.865,0.001,1.731,0.002,2.596
				C21.046,19.386,20.256,19.386,19.466,19.385z"/>
			<path fill-rule="evenodd" clip-rule="evenodd" fill="#FEFEFE" d="M19.435,19.384c0.001,0.825,0.001,1.65,0.006,2.476
				c0.001,0.106-0.044,0.124-0.135,0.124c-0.745-0.004-1.489-0.004-2.234-0.006c0-0.865-0.001-1.731-0.003-2.596
				c0.008-0.008,0.014-0.016,0.021-0.024c0.06-0.048,0.132-0.041,0.201-0.041c0.641-0.002,1.279-0.002,1.919,0
				C19.292,19.317,19.374,19.315,19.435,19.384z"/>
			<path fill-rule="evenodd" clip-rule="evenodd" fill="#FEFEFE" d="M14.696,16.79c0.792,0,1.585,0,2.377,0
				c0.06,0.059,0.061,0.134,0.061,0.21c0.001,0.721,0.001,1.442,0,2.164c0,0.082-0.001,0.163-0.07,0.222l0.004-0.004
				c-0.791,0.002-1.58,0.003-2.371,0.004C14.697,18.521,14.697,17.655,14.696,16.79z"/>
			<path fill-rule="evenodd" clip-rule="evenodd" fill="#FE0000" d="M17.064,19.386c0.003-0.741,0.005-1.483,0.008-2.225
				c0-0.124,0-0.247,0.001-0.371c0.744,0,1.488,0,2.232-0.004c0.091,0,0.135,0.019,0.134,0.124
				c-0.004,0.824-0.004,1.649-0.005,2.474C18.644,19.385,17.854,19.386,17.064,19.386z"/>
			<path fill-rule="evenodd" clip-rule="evenodd" fill="#171795" d="M13.958,7.62c0.846-0.206,1.702-0.363,2.57-0.445
				c0.09-0.009,0.182-0.011,0.273-0.017c0.031,0.282,0.072,0.563,0.064,0.847c-0.042,0.066-0.106,0.087-0.18,0.094
				c-0.775,0.063-1.54,0.199-2.297,0.375c-0.073,0.017-0.146,0.036-0.223,0.006C14.098,8.193,14.028,7.907,13.958,7.62z"/>
			<path fill-rule="evenodd" clip-rule="evenodd" fill="#FE0000" d="M14.167,8.48c0.341-0.126,0.697-0.177,1.051-0.248
				c0.544-0.109,1.097-0.163,1.648-0.228c0.052,0.248,0.053,0.501,0.081,0.752c0.011,0.109-0.021,0.143-0.123,0.15
				c-0.5,0.036-0.996,0.11-1.488,0.205c-0.28,0.054-0.558,0.115-0.833,0.184c-0.099,0.024-0.135-0.001-0.156-0.095
				C14.291,8.959,14.228,8.72,14.167,8.48z"/>
			<path fill-rule="evenodd" clip-rule="evenodd" fill="#EDD216" d="M12.77,7.332c-0.076,0.146-0.011,0.256,0.126,0.348
				c0.057,0.039,0.07,0.088-0.019,0.104c-0.163,0.031-0.253,0.117-0.256,0.291c-0.002,0.104-0.065,0.086-0.111,0.03
				c-0.104-0.131-0.223-0.141-0.364-0.07c-0.075,0.039-0.118,0.018-0.087-0.073c0.049-0.148,0.027-0.265-0.117-0.353
				c-0.097-0.061-0.042-0.106,0.033-0.123c0.134-0.029,0.22-0.088,0.228-0.241c0.004-0.077,0.07-0.125,0.133-0.052
				c0.103,0.119,0.209,0.112,0.339,0.057C12.771,7.209,12.78,7.223,12.77,7.332z"/>
			<path fill-rule="evenodd" clip-rule="evenodd" fill="#F2D717" d="M18.463,7.175c0.03-0.086,0.095-0.18-0.055-0.21
				c0.007-0.066,0.095-0.047,0.085-0.113c0.037-0.043-0.09-0.179,0.082-0.146l-0.001-0.001c0.162-0.02,0.325-0.011,0.487-0.017
				c0.092-0.004,0.178,0.01,0.261,0.049c0.056,0.003,0.124-0.017,0.111,0.083c-0.007,0.053-0.136,0.122,0.019,0.169
				c0.019,0.006-0.081,0.051-0.098,0.104c0.013,0.066,0.158,0.155-0.035,0.187c-0.063,0.011,0.017,0.082-0.044,0.13
				c-0.07,0.054-0.168,0.084-0.212,0.173c0,0-0.009-0.001-0.011-0.004c-0.004-0.003-0.007-0.009-0.009-0.013
				c-0.026-0.034-0.046-0.027-0.072,0.005c-0.03,0.04-0.061,0.025-0.085-0.012C18.699,7.481,18.591,7.317,18.463,7.175z"/>
			<path fill-rule="evenodd" clip-rule="evenodd" fill="#F2D617" d="M18.396,9.12c-0.072-0.012-0.139,0.01-0.219-0.021
				c-0.094-0.037-0.265-0.12-0.278-0.229c-0.006-0.05-0.017-0.064-0.058-0.067c-0.057-0.004-0.056-0.033-0.038-0.077
				c0.027-0.06,0.062-0.116-0.025-0.172c-0.088-0.056,0.116-0.058,0.035-0.127c-0.033-0.09,0.021-0.129,0.095-0.147
				c0.222-0.056,0.446-0.04,0.671-0.022c0.114,0.009,0.158,0.07,0.124,0.183c-0.012,0.107-0.04,0.217,0.047,0.31l0.002-0.003
				c-0.087,0.078-0.147,0.17-0.19,0.281c-0.018,0.045-0.119,0.041-0.146,0.111c-0.004-0.002-0.009-0.002-0.012-0.005
				C18.399,9.13,18.398,9.125,18.396,9.12z"/>
			<path fill-rule="evenodd" clip-rule="evenodd" fill="#F2D717" d="M18.069,6.819c-0.01,0.012-0.033,0.031-0.03,0.035
				c0.047,0.077,0.019,0.156,0.014,0.234c-0.004,0.054,0.111,0.141-0.049,0.145c-0.041,0.001-0.014,0.041-0.018,0.063
				c-0.021,0.133-0.198,0.27-0.301,0.238c-0.121-0.038-0.281,0.006-0.336-0.167c-0.006-0.02-0.032-0.028-0.045-0.043
				c-0.067-0.07-0.206-0.104-0.124-0.249c-0.01-0.004-0.018-0.01-0.024-0.019c-0.018-0.014-0.036-0.029-0.054-0.042
				c-0.009-0.039,0.018-0.054,0.045-0.063c0.037-0.011,0.033-0.029,0.014-0.052l0.002,0.003c-0.044-0.177-0.044-0.177,0.145-0.197
				c0.217-0.023,0.435-0.027,0.652,0.002l-0.001-0.001C18.09,6.65,18.078,6.736,18.069,6.819z"/>
			<path fill-rule="evenodd" clip-rule="evenodd" fill="#FDFDFD" d="M12.013,9.159c0.288,0.308,0.613,0.414,0.989,0.304
				c0.421-0.124,0.615-0.44,0.672-0.872c0.139,0.494-0.101,0.957-0.563,1.11C12.662,9.85,12.182,9.623,12.013,9.159z"/>
			<path fill-rule="evenodd" clip-rule="evenodd" fill="#887B11" d="M18.685,8.451c-0.002-0.028-0.061-0.033-0.028-0.078
				c0.03-0.044,0.038-0.077-0.04-0.073c-0.188,0.011-0.376-0.013-0.564,0c-0.109,0.008-0.192,0.019-0.239,0.126
				c-0.098-0.177-0.096-0.18,0.107-0.177c-0.005-0.112-0.1-0.183-0.133-0.289c0.122-0.013,0.204,0.11,0.321,0.087
				c0.103,0.023,0.204,0.045,0.3-0.021c0.129,0.072,0.217-0.078,0.344-0.067c-0.025,0.107-0.123,0.178-0.126,0.287
				c0.168,0.003,0.168,0.003,0.1,0.239C18.693,8.496,18.674,8.49,18.685,8.451z"/>
			<path fill-rule="evenodd" clip-rule="evenodd" fill="#7B7314" d="M19.322,6.737c-0.146,0.061-0.291-0.017-0.438-0.005
				c-0.101,0.008-0.213,0.054-0.31-0.027c0.061-0.042,0.009-0.085,0.001-0.128c0.027-0.068,0.12-0.027,0.149-0.092
				c0.021,0.002,0.044,0.005,0.067,0.007c0.107,0.037,0.206,0.039,0.271-0.075c0.122,0.186,0.252-0.019,0.38,0.007
				C19.431,6.54,19.281,6.602,19.322,6.737z"/>
			<path fill-rule="evenodd" clip-rule="evenodd" fill="#7B7112" d="M17.959,6.708c-0.03,0.054-0.081,0.039-0.129,0.037
				c-0.166-0.006-0.333-0.031-0.495,0.026c-0.063,0.023-0.108-0.051-0.177-0.017c0.033,0.046,0.079,0.099,0.004,0.148
				c-0.115-0.128-0.114-0.127,0.037-0.196c0.066-0.03,0.01-0.07,0.005-0.106c0.022-0.055,0.1-0.048,0.117-0.106
				c0.038,0.002,0.076,0.012,0.113-0.01c0.104,0.042,0.208,0.037,0.313,0.005c0.014,0,0.027-0.001,0.041-0.001
				c0.044,0.042,0.089,0.056,0.133,0c0.03-0.035,0.068-0.047,0.113-0.04C18.019,6.538,17.916,6.602,17.959,6.708z"/>
			<path fill-rule="evenodd" clip-rule="evenodd" fill="#948A19" d="M17.154,7.057c0.036,0.011,0.147-0.04,0.057,0.073
				c-0.033,0.041-0.068,0.099,0.036,0.097c0.034,0,0.064,0.002,0.078,0.04c0.06,0.17,0.229,0.192,0.359,0.268
				c0.009,0.039-0.02,0.079-0.044,0.072c-0.171-0.049-0.325-0.091-0.433-0.283C17.148,7.219,17.154,7.149,17.154,7.057z"/>
			<path fill-rule="evenodd" clip-rule="evenodd" fill="#D9C216" d="M17.747,6.489c-0.029,0.153-0.15,0.063-0.229,0.084
				c-0.063,0.018-0.099-0.018-0.083-0.089c0.042-0.059,0.085-0.119,0.127-0.179C17.643,6.357,17.695,6.423,17.747,6.489z"/>
			<path fill-rule="evenodd" clip-rule="evenodd" fill="#DAC215" d="M18.408,8.027c0.004,0.021,0.018,0.048,0.01,0.061
				c-0.049,0.08-0.259,0.052-0.31-0.04c0.01-0.012,0.021-0.022,0.032-0.036C18.273,7.821,18.274,7.821,18.408,8.027z"/>
			<path fill-rule="evenodd" clip-rule="evenodd" fill="#E2C915" d="M19.063,6.417c-0.01,0.052,0.085,0.133,0.011,0.145
				c-0.089,0.014-0.225,0.087-0.284-0.069c0.024-0.069,0.086-0.108,0.135-0.151C19.013,6.266,19.011,6.4,19.063,6.417z"/>
			<path fill-rule="evenodd" clip-rule="evenodd" fill="#9C8D12" d="M18.463,7.175c0.04,0.011,0.081,0.032,0.12,0.028
				c0.053-0.004,0.073,0.012,0.061,0.06c-0.037,0.126,0.041,0.155,0.138,0.173c0.067,0.013,0.123,0.037,0.105,0.123
				c-0.051-0.044-0.094,0.046-0.126,0.018c-0.081-0.072-0.224-0.172-0.21-0.23C18.577,7.233,18.408,7.265,18.463,7.175z"/>
			<path fill-rule="evenodd" clip-rule="evenodd" fill="#374D2F" d="M19.043,7.566c0.042-0.092,0.181-0.103,0.2-0.188
				c0.021-0.105,0.217-0.139,0.111-0.286c0.055,0.066,0.155,0.122,0.004,0.208c-0.035,0.02-0.08,0.106-0.111,0.166
				c-0.043,0.082-0.146,0.06-0.193,0.128C19.05,7.585,19.047,7.575,19.043,7.566z"/>
			<path fill-rule="evenodd" clip-rule="evenodd" fill="#455226" d="M18.396,9.12c0.028-0.099,0.157-0.098,0.191-0.205
				c0.034-0.108,0.087-0.136,0.164-0.167c0.007,0.013,0.014,0.026,0.021,0.039c-0.113,0.007-0.155,0.146-0.159,0.183
				c-0.015,0.132-0.173,0.084-0.191,0.186C18.414,9.143,18.404,9.131,18.396,9.12z"/>
			<path fill-rule="evenodd" clip-rule="evenodd" fill="#E7CD16" d="M18.725,6.484c0.03,0.162-0.103,0.057-0.149,0.092
				c-0.029-0.054-0.064-0.104-0.069-0.169C18.597,6.392,18.644,6.485,18.725,6.484z"/>
			<path fill-rule="evenodd" clip-rule="evenodd" fill="#978D19" d="M18.685,8.451c0.014,0.012,0.027,0.023,0.042,0.036
				c0.034,0.006,0.119,0.002,0.057,0.054c-0.086,0.073-0.037,0.139-0.034,0.21C18.616,8.674,18.604,8.572,18.685,8.451z"/>
			<path fill-rule="evenodd" clip-rule="evenodd" fill="#D9C216" d="M18.033,6.449C18,6.473,17.97,6.499,17.941,6.531
				c-0.067,0.075-0.135,0.088-0.154-0.043c0.083,0.002,0.142-0.062,0.216-0.085C18.074,6.381,18.042,6.421,18.033,6.449z"/>
			<path fill-rule="evenodd" clip-rule="evenodd" fill="#E3C915" d="M17.321,6.495c0.033,0.034,0.101,0.072-0.013,0.087
				c-0.034,0.004-0.069,0.012-0.104,0.019c-0.026-0.046-0.052-0.091-0.08-0.138C17.208,6.392,17.252,6.518,17.321,6.495z"/>
			<path fill-rule="evenodd" clip-rule="evenodd" fill="#7B7314" d="M18.575,6.706c-0.006,0.021-0.081-0.015-0.04,0.039
				c0.05,0.068-0.032,0.071-0.042,0.107c-0.043-0.048-0.087-0.107-0.044-0.165C18.477,6.65,18.536,6.673,18.575,6.706z"/>
			<path fill-rule="evenodd" clip-rule="evenodd" fill="#7B7112" d="M17.16,6.899c0.039,0.026,0.083,0.049,0.08,0.104
				c-0.045,0.047-0.098-0.067-0.139,0.01C17.013,6.919,17.175,6.956,17.16,6.899z"/>
			<path fill-rule="evenodd" clip-rule="evenodd" fill="#7B7112" d="M18.069,6.819c-0.057-0.017-0.021-0.129-0.111-0.112
				c0.044-0.028,0.099-0.06,0.138-0.014C18.126,6.728,18.104,6.781,18.069,6.819z"/>
			<path fill-rule="evenodd" clip-rule="evenodd" fill="#F1D616" d="M20.787,8.926c0.073-0.068,0.162-0.122,0.208-0.219
				c0.049-0.107,0.01-0.177-0.105-0.193c-0.148-0.022-0.256,0.007-0.295,0.178c-0.019,0.086-0.067,0.167-0.103,0.25
				c-0.08,0.041-0.086,0.04-0.107-0.029c0.119-0.168,0.159-0.357,0.106-0.515c-0.148,0.074-0.127,0.249-0.215,0.354
				c-0.048,0.025-0.074,0.01-0.079-0.043c0.158-0.225,0.146-0.461,0.031-0.693c-0.03-0.062,0.015-0.075,0.024-0.109
				c0.03-0.093,0.119-0.173,0.036-0.287c-0.032-0.044,0.024-0.098,0.044-0.146c-0.028-0.032-0.06-0.021-0.087-0.006
				c-0.058,0.029-0.072-0.026-0.104-0.051c-0.048-0.04,0.001-0.06,0.016-0.09c0.038-0.08,0.168-0.149,0.019-0.252
				c-0.047-0.031,0.001-0.066,0.044-0.064c0.049,0.003,0.092,0.025,0.125,0.065c0.129-0.001,0.257-0.001,0.368,0.08
				c0.047,0.022,0.094,0.046,0.143,0.07c-0.024,0.072-0.092,0.078-0.133,0.071c-0.123-0.02-0.107,0.047-0.09,0.12
				c0.036,0.144,0.27,0.277,0.394,0.347c0.203,0.114,0.424,0,0.629,0.111c0.096,0.053,0.269,0.02,0.414-0.018
				c-0.085,0.066-0.105,0.19-0.195,0.232c-0.086,0.04-0.108,0.144-0.104,0.168c0.051,0.271-0.095,0.444-0.272,0.608
				c-0.062,0.057-0.083,0.153-0.173,0.185c-0.042,0.024-0.08,0.022-0.109-0.021c0.03-0.1,0.148-0.116,0.194-0.206
				c0.034-0.07,0.052-0.122-0.024-0.179c-0.064-0.048-0.1-0.042-0.172,0.002c-0.133,0.082-0.196,0.227-0.325,0.306
				C20.847,8.979,20.811,8.973,20.787,8.926z"/>
			<path fill-rule="evenodd" clip-rule="evenodd" fill="#CB0502" d="M20.714,7.155c-0.132,0.016-0.253-0.019-0.368-0.08
				c0.1-0.063,0.196-0.134,0.313-0.165c0.185-0.05,0.363-0.034,0.528,0.066c0.137,0.082,0.281,0.135,0.486,0.117
				c-0.186,0.119-0.328,0.04-0.483-0.005c0.181,0.229,0.343,0.313,0.639,0.337c-0.143,0.09-0.351,0.057-0.55-0.093
				c-0.152-0.113-0.295-0.242-0.506-0.202C20.752,7.136,20.732,7.147,20.714,7.155z"/>
			<path fill-rule="evenodd" clip-rule="evenodd" fill="#D91406" d="M21.217,9.029c0.036,0.007,0.072,0.014,0.109,0.021
				c0.062,0.087-0.009,0.108-0.068,0.133c-0.056,0.023-0.102,0.017-0.13-0.045C21.081,9.035,21.199,9.076,21.217,9.029z"/>
			<path fill-rule="evenodd" clip-rule="evenodd" fill="#ED1A03" d="M20.197,8.708c0.016,0.034,0.043,0.045,0.079,0.043
				c0.02,0.067-0.002,0.101-0.075,0.099c-0.043-0.001-0.092-0.002-0.103-0.053C20.086,8.724,20.158,8.731,20.197,8.708z"/>
			<path fill-rule="evenodd" clip-rule="evenodd" fill="#D01F07" d="M20.385,8.912c0.028,0.039,0.068,0.03,0.107,0.029
				c0.023,0.081-0.031,0.111-0.092,0.118c-0.029,0.003-0.081-0.026-0.091-0.052C20.285,8.947,20.355,8.942,20.385,8.912z"/>
			<path fill-rule="evenodd" clip-rule="evenodd" fill="#D82005" d="M20.787,8.926c0.034,0.009,0.068,0.018,0.103,0.027
				c0.024,0.062,0,0.09-0.063,0.089c-0.043-0.001-0.087,0.003-0.104-0.051C20.704,8.93,20.762,8.945,20.787,8.926z"/>
			<path fill-rule="evenodd" clip-rule="evenodd" fill="#EBD016" d="M23.676,7.327c0.2-0.111,0.31-0.225,0.224-0.429
				c-0.025-0.061-0.002-0.102,0.067-0.068c0.158,0.076,0.291,0.064,0.407-0.079c0.044-0.057,0.087-0.034,0.09,0.035
				c0.008,0.171,0.085,0.275,0.259,0.303c0.092,0.015,0.071,0.072,0.018,0.107c-0.144,0.092-0.183,0.208-0.124,0.368
				c0.026,0.073-0.021,0.105-0.088,0.068c-0.153-0.085-0.273-0.046-0.379,0.079c-0.029,0.034-0.093,0.061-0.091-0.008
				C24.061,7.468,23.892,7.399,23.676,7.327z"/>
			<path fill-rule="evenodd" clip-rule="evenodd" fill="#C8C7C7" d="M23.438,9.094c0.156-0.031,0.272-0.009,0.38,0.092
				C23.629,9.21,23.563,9.195,23.438,9.094z"/>
			<path fill-rule="evenodd" clip-rule="evenodd" fill="#92820E" d="M12.519,7.63c0.001,0.024-0.058,0.125-0.069,0.118
				c-0.051-0.035-0.127-0.048-0.146-0.109c-0.006-0.022,0.034-0.091,0.094-0.094C12.468,7.542,12.518,7.579,12.519,7.63z"/>
			<path fill-rule="evenodd" clip-rule="evenodd" fill="#AC9810" d="M19.063,7.291c-0.025,0.042-0.057,0.081-0.105,0.108
				c-0.048,0.027-0.096,0.013-0.113-0.021c-0.021-0.042-0.081-0.079-0.045-0.14c0.012-0.022,0.017-0.07,0.063-0.028
				c0.023,0.021,0.051,0.039,0.086,0.024C18.999,7.211,19.065,7.241,19.063,7.291z"/>
			<path fill-rule="evenodd" clip-rule="evenodd" fill="#9A880E" d="M18.98,6.964c-0.076-0.012-0.057,0.082-0.107,0.101
				c-0.037-0.031-0.077-0.058-0.108-0.094c-0.021-0.027-0.013-0.08,0.027-0.064c0.099,0.037,0.123-0.021,0.14-0.115
				C18.993,6.856,19,6.908,18.979,6.966L18.98,6.964z"/>
			<path fill-rule="evenodd" clip-rule="evenodd" fill="#786A0B" d="M18.979,6.966c0.054-0.02,0.105-0.041,0.164-0.063
				c-0.047,0.137-0.067,0.144-0.162,0.062L18.979,6.966z"/>
			<path fill-rule="evenodd" clip-rule="evenodd" fill="#9E8C0F" d="M18.477,8.496c-0.004,0.008-0.007,0.018-0.013,0.027
				c-0.036,0.06-0.326,0.071-0.367,0.012c-0.011-0.016-0.021-0.043-0.016-0.058c0.027-0.069,0.313-0.083,0.363-0.023
				C18.455,8.466,18.485,8.463,18.477,8.496z"/>
			<path fill-rule="evenodd" clip-rule="evenodd" fill="#AC9910" d="M18.392,8.837c-0.019,0.073-0.057,0.129-0.129,0.126
				c-0.078-0.003-0.121-0.062-0.112-0.141c0.002-0.02,0.002-0.125,0.077-0.038c0.019,0.021,0.044,0.016,0.073,0.003
				c0.03-0.014-0.043-0.099,0.038-0.057C18.368,8.747,18.377,8.803,18.392,8.837z"/>
			<path fill-rule="evenodd" clip-rule="evenodd" fill="#A69310" d="M17.743,7.284c-0.032,0.052-0.054,0.126-0.134,0.128
				c-0.076,0.002-0.135-0.074-0.129-0.118c0.02-0.117,0.154-0.003,0.214-0.081C17.709,7.194,17.736,7.244,17.743,7.284z"/>
			<path fill-rule="evenodd" clip-rule="evenodd" fill="#98870E" d="M17.543,7.069c-0.053-0.055-0.154-0.057-0.138-0.147
				c0.009-0.043,0.097,0.03,0.119-0.041C17.59,6.931,17.569,6.992,17.543,7.069z"/>
			<path fill-rule="evenodd" clip-rule="evenodd" fill="#7D6F0C" d="M17.753,6.904c0.023,0.001,0.049-0.004,0.048,0.026
				C17.797,6.979,17.762,7,17.719,7.013c-0.033,0.01-0.058-0.009-0.053-0.034C17.675,6.935,17.712,6.913,17.753,6.904z"/>
			<path fill-rule="evenodd" clip-rule="evenodd" fill="#E2C915" d="M18.407,8.194c-0.097,0.038-0.19,0.049-0.328-0.004
				C18.217,8.157,18.313,8.165,18.407,8.194z"/>
			<path fill-rule="evenodd" clip-rule="evenodd" fill="#DEC515" d="M19.084,6.65c-0.143,0.022-0.286,0.033-0.428-0.012
				C18.799,6.612,18.943,6.592,19.084,6.65z"/>
			<path fill-rule="evenodd" clip-rule="evenodd" fill="#E0C615" d="M17.88,6.636c-0.142,0.057-0.286,0.031-0.431,0.013
				C17.59,6.594,17.734,6.612,17.88,6.636z"/>
			<path fill-rule="evenodd" clip-rule="evenodd" fill="#9E8C0F" d="M24.276,7.388c-0.001-0.079-0.088-0.095-0.11-0.155
				c-0.02-0.059,0.056-0.093,0.083-0.091c0.058,0.003,0.116,0.038,0.173,0.06C24.376,7.261,24.33,7.32,24.276,7.388z"/>
		</g>
	</g>
	<g>
		<defs>
			<circle id="SVGID_79_" cx="50.783" cy="16.595" r="15.917"/>
		</defs>
		<clipPath id="SVGID_6_">
			<use xlink:href="#SVGID_79_"  overflow="visible"/>
		</clipPath>
		<g clip-path="url(#SVGID_6_)">
			<path fill-rule="evenodd" clip-rule="evenodd" fill="#CC1126" d="M84.383,11.074c0,3.718,0,7.436,0,11.153
				c-0.043,0.043-0.098,0.051-0.154,0.054c-0.061,0.002-0.121,0.001-0.181,0.001c-18.365,0-36.731,0-55.097-0.001
				c-0.113,0-0.234,0.031-0.334-0.054c0-3.718,0-7.436,0-11.153c0.043-0.043,0.097-0.051,0.154-0.054
				c0.061-0.002,0.121-0.001,0.182-0.001c18.365,0,36.73,0,55.096,0.001C84.161,11.02,84.283,10.989,84.383,11.074z"/>
			<path fill-rule="evenodd" clip-rule="evenodd" fill="#002B7E" d="M28.617,5.497c0-1.821,0.001-3.643-0.002-5.464
				c0-0.093,0.015-0.115,0.113-0.115c18.515,0.003,37.03,0.003,55.545,0c0.098,0,0.113,0.022,0.113,0.115
				c-0.003,1.821-0.002,3.643-0.002,5.464c-0.043,0.042-0.098,0.052-0.154,0.054c-0.061,0.002-0.121,0.001-0.181,0.001
				c-18.365,0-36.731,0-55.097-0.001C28.838,5.551,28.718,5.582,28.617,5.497z"/>
			<path fill-rule="evenodd" clip-rule="evenodd" fill="#FEFEFE" d="M28.617,5.497c18.589,0,37.177,0,55.766,0
				c0,1.859,0,3.718,0,5.577c-18.589,0-37.177,0-55.766,0C28.617,9.215,28.617,7.356,28.617,5.497z"/>
			<path fill-rule="evenodd" clip-rule="evenodd" fill="#002B7E" d="M84.383,27.804c0,1.821-0.001,3.643,0.002,5.464
				c0,0.093-0.015,0.115-0.113,0.115c-18.515-0.003-37.03-0.003-55.545,0c-0.098,0-0.113-0.022-0.113-0.115
				c0.003-1.821,0.002-3.643,0.002-5.464c0.043-0.042,0.097-0.052,0.154-0.054c0.061-0.002,0.121-0.001,0.182-0.001
				c18.365,0,36.73,0,55.096,0.001C84.161,27.75,84.283,27.719,84.383,27.804z"/>
			<path fill-rule="evenodd" clip-rule="evenodd" fill="#FEFEFE" d="M84.383,27.804c-18.589,0-37.177,0-55.766,0
				c0-1.859,0-3.718,0-5.577c18.589,0,37.177,0,55.766,0C84.383,24.086,84.383,25.945,84.383,27.804z"/>
		</g>
	</g>
</g>
<g id="Imagenes">
</g>
<g id="Cintillos">
</g>
<g id="Botones">
</g>
<g id="TXT">
</g>
<g id="Logo">
</g>
<g id="Guia">
</g>
</svg>
