<?xml version="1.0" encoding="utf-8"?>
<!-- Generator: Adobe Illustrator 16.0.0, SVG Export Plug-In . SVG Version: 6.00 Build 0)  -->
<!DOCTYPE svg PUBLIC "-//W3C//DTD SVG 1.1//EN" "http://www.w3.org/Graphics/SVG/1.1/DTD/svg11.dtd">
<svg version="1.1" xmlns="http://www.w3.org/2000/svg" xmlns:xlink="http://www.w3.org/1999/xlink" x="0px" y="0px"
	 width="34.417px" height="34.25px" viewBox="0 0 34.417 34.25" enable-background="new 0 0 34.417 34.25" xml:space="preserve">
<g id="Soporte">
</g>
<g id="Publicidad">
</g>
<g id="Iconos">
	<g>
		<defs>
			<circle id="SVGID_75_" cx="16.783" cy="16.595" r="15.917"/>
		</defs>
		<clipPath id="SVGID_2_">
			<use xlink:href="#SVGID_75_"  overflow="visible"/>
		</clipPath>
		<g clip-path="url(#SVGID_2_)">
			<path fill-rule="evenodd" clip-rule="evenodd" fill="#CE142B" d="M-1.377,33.098c0-10.927,0-21.855,0.003-32.783
				c0-0.076-0.058-0.175,0.048-0.232c0.035,0.078,0.115,0.095,0.178,0.132c2.844,1.68,5.688,3.359,8.534,5.037
				c0.822,0.484,1.648,0.961,2.473,1.442c0.062,0.043,0.12,0.091,0.186,0.128c2.719,1.605,5.438,3.211,8.158,4.814
				c0.945,0.557,1.894,1.107,2.841,1.661c0.047,0.033,0.093,0.07,0.144,0.1c1.721,1.017,3.443,2.033,5.164,3.05
				c0.24,0.141,0.239,0.143-0.004,0.287c-0.675,0.399-1.352,0.796-2.027,1.196c-1.095,0.649-2.188,1.302-3.281,1.953
				c-0.067,0.035-0.137,0.065-0.202,0.104c-2.699,1.591-5.397,3.182-8.093,4.775c-0.966,0.571-1.928,1.15-2.891,1.725
				c-0.083,0.041-0.167,0.079-0.247,0.125c-2.863,1.69-5.728,3.38-8.59,5.074c-0.783,0.463-1.563,0.935-2.344,1.403
				C-1.344,33.096-1.36,33.099-1.377,33.098z M10.73,20.514c0.005,0.019,0.01,0.045,0.036,0.027
				c0.006-0.004-0.005-0.036-0.009-0.056c-0.325-1.027-0.646-2.057-0.979-3.083c-0.056-0.171-0.041-0.266,0.114-0.378
				c0.81-0.585,1.61-1.184,2.411-1.781c0.063-0.047,0.152-0.073,0.177-0.188c-0.09,0-0.171,0-0.252,0
				c-0.984,0-1.968-0.005-2.952,0.004c-0.178,0.002-0.262-0.047-0.316-0.229c-0.208-0.696-0.435-1.388-0.656-2.081
				c-0.111-0.348-0.226-0.694-0.357-1.099c-0.045,0.141-0.071,0.218-0.096,0.296c-0.305,0.954-0.614,1.906-0.91,2.863
				c-0.057,0.182-0.133,0.254-0.331,0.251c-0.799-0.013-1.597-0.005-2.396-0.005c-0.266,0-0.53,0-0.81,0
				c0.043,0.124,0.138,0.154,0.207,0.207C4.405,15.855,5.199,16.448,6,17.03c0.143,0.103,0.17,0.188,0.114,0.356
				c-0.311,0.942-0.609,1.889-0.908,2.836c-0.029,0.094-0.093,0.185-0.063,0.295c0.095-0.008,0.15-0.081,0.216-0.128
				c0.791-0.583,1.583-1.164,2.366-1.758c0.158-0.12,0.269-0.156,0.431-0.008c0.181,0.164,0.388,0.3,0.587,0.443
				C9.409,19.544,10.046,20.063,10.73,20.514z"/>
			<path fill-rule="evenodd" clip-rule="evenodd" fill="#002A8E" d="M-1.329,33.09c0.781-0.468,1.561-0.94,2.344-1.403
				c2.863-1.693,5.727-3.383,8.59-5.074c0.08-0.047,0.165-0.084,0.248-0.125c0.117,0.002,0.234,0.007,0.353,0.007
				c17.669,0,35.338,0,53.008,0c0,2.201,0,4.402,0,6.603c-21.396,0-42.793,0-64.189,0C-1.094,33.098-1.212,33.092-1.329,33.09z"/>
			<path fill-rule="evenodd" clip-rule="evenodd" fill="#002A8E" d="M9.858,6.694c-0.825-0.48-1.65-0.958-2.473-1.442
				c-2.845-1.678-5.69-3.357-8.534-5.037c-0.063-0.038-0.143-0.055-0.178-0.132c21.438,0,42.875,0,64.312-0.005
				c0.189,0,0.233,0.043,0.232,0.237c-0.007,2.124-0.004,4.247-0.004,6.371c-17.659,0-35.318,0-52.977,0
				C10.11,6.686,9.983,6.692,9.858,6.694z"/>
			<path fill-rule="evenodd" clip-rule="evenodd" fill="#FEFEFE" d="M63.213,26.495c-17.67,0-35.339,0-53.008,0
				c-0.118,0-0.235-0.005-0.353-0.007c0.963-0.575,1.925-1.154,2.891-1.725c2.696-1.593,5.395-3.184,8.093-4.775
				c0.065-0.039,0.134-0.069,0.202-0.104c0.108,0.003,0.218,0.008,0.327,0.008c13.949,0,27.898,0,41.848,0
				C63.213,22.093,63.213,24.294,63.213,26.495z"/>
			<path fill-rule="evenodd" clip-rule="evenodd" fill="#FEFEFE" d="M9.858,6.694c0.125-0.002,0.252-0.008,0.377-0.008
				c17.659,0,35.318,0,52.977,0c0,2.201,0,4.402,0,6.604c-13.948,0-27.896,0-41.843,0c-0.109,0-0.218,0.005-0.327,0.008
				c-0.947-0.554-1.896-1.104-2.841-1.661c-2.72-1.603-5.439-3.208-8.158-4.814C9.979,6.785,9.92,6.738,9.858,6.694z"/>
			<path fill-rule="evenodd" clip-rule="evenodd" fill="#002A8E" d="M21.043,13.297c0.109-0.003,0.218-0.008,0.327-0.008
				c13.947,0,27.895,0,41.843,0c0,2.201,0,4.402,0,6.603c-13.95,0-27.898,0-41.848,0c-0.109,0-0.219-0.005-0.327-0.008
				c1.094-0.651,2.187-1.303,3.281-1.953c0.675-0.4,1.352-0.797,2.027-1.196c0.244-0.144,0.244-0.146,0.004-0.287
				c-1.721-1.017-3.443-2.033-5.164-3.05C21.136,13.368,21.09,13.331,21.043,13.297z"/>
			<path fill-rule="evenodd" clip-rule="evenodd" fill="#FEFEFE" d="M-1.329,33.09c0.117,0.002,0.235,0.008,0.353,0.008
				c21.396,0,42.793,0,64.189,0c-0.012,0.016,0.025,0.055-0.025,0.052c-0.067-0.002-0.135,0-0.202,0
				c-21.378,0-42.757,0-64.135-0.003c-0.074,0-0.171,0.06-0.228-0.048C-1.36,33.099-1.344,33.096-1.329,33.09z"/>
			<path fill-rule="evenodd" clip-rule="evenodd" fill="#FEFEFE" d="M10.73,20.514c-0.685-0.451-1.322-0.97-1.988-1.447
				c-0.2-0.144-0.406-0.279-0.587-0.443c-0.162-0.147-0.272-0.112-0.431,0.008c-0.783,0.594-1.575,1.174-2.366,1.758
				c-0.065,0.048-0.121,0.12-0.216,0.128c-0.029-0.11,0.034-0.201,0.063-0.295c0.299-0.948,0.598-1.894,0.908-2.836
				C6.17,17.219,6.143,17.133,6,17.03c-0.801-0.582-1.595-1.175-2.389-1.768c-0.069-0.052-0.164-0.083-0.207-0.207
				c0.279,0,0.544,0,0.81,0c0.8,0,1.598-0.008,2.396,0.005c0.198,0.003,0.274-0.069,0.331-0.251c0.296-0.957,0.605-1.91,0.91-2.863
				c0.024-0.078,0.051-0.155,0.096-0.296c0.132,0.405,0.247,0.751,0.357,1.099c0.222,0.693,0.448,1.384,0.656,2.081
				c0.055,0.183,0.139,0.231,0.316,0.229c0.984-0.009,1.968-0.004,2.952-0.004c0.081,0,0.162,0,0.252,0
				c-0.024,0.114-0.114,0.141-0.177,0.188c-0.801,0.597-1.601,1.196-2.411,1.781c-0.155,0.112-0.17,0.207-0.114,0.378
				c0.333,1.026,0.653,2.056,0.979,3.083C10.749,20.495,10.739,20.504,10.73,20.514z"/>
			<path fill-rule="evenodd" clip-rule="evenodd" fill="#FEFEFE" d="M10.758,20.485c0.003,0.02,0.015,0.052,0.009,0.056
				c-0.026,0.018-0.031-0.009-0.036-0.027C10.739,20.504,10.749,20.495,10.758,20.485z"/>
		</g>
	</g>
	<g>
		<defs>
			<circle id="SVGID_77_" cx="52.783" cy="16.595" r="15.917"/>
		</defs>
		<clipPath id="SVGID_4_">
			<use xlink:href="#SVGID_77_"  overflow="visible"/>
		</clipPath>
		<g clip-path="url(#SVGID_4_)">
			<path fill-rule="evenodd" clip-rule="evenodd" fill="#171795" d="M85.693,22.011c0,3.555,0,7.11,0.004,10.667
				c0,0.106-0.017,0.135-0.132,0.135c-21.533-0.003-43.066-0.003-64.599,0c-0.115,0-0.13-0.029-0.13-0.135
				c0.004-3.556,0.004-7.111,0.004-10.667c0.047-0.053,0.107-0.067,0.175-0.067c0.081,0,0.163-0.002,0.244-0.002
				c8.754,0,17.508,0,26.263,0.001c0.112,0,0.227-0.011,0.338,0.018c0.092,0.004,0.144,0.064,0.189,0.134
				c0.43,0.664,0.975,1.219,1.617,1.679c0.438,0.315,0.913,0.562,1.418,0.757c0.509,0.196,1.035,0.324,1.573,0.373
				c0.442,0.04,0.89,0.034,1.336-0.018c0.762-0.088,1.481-0.309,2.156-0.665c0.884-0.467,1.628-1.106,2.206-1.931
				c0.053-0.075,0.113-0.145,0.158-0.226c0.032-0.059,0.084-0.097,0.155-0.102c0.085-0.024,0.172-0.019,0.258-0.019
				c8.816-0.001,17.632-0.001,26.446,0C85.482,21.944,85.603,21.914,85.693,22.011z"/>
			<path fill-rule="evenodd" clip-rule="evenodd" fill="#FD0000" d="M58.624,22.001c-0.368,0.563-0.797,1.073-1.317,1.504
				c-0.935,0.778-2,1.285-3.209,1.415c-2.615,0.28-4.66-0.707-6.146-2.868c-0.013-0.018-0.026-0.034-0.04-0.051
				c-0.093-0.034-0.143-0.111-0.188-0.192c-0.423-0.765-0.703-1.574-0.79-2.448c-0.018-0.183-0.027-0.366-0.027-0.549
				c0-2.372,0-4.744,0-7.117c0-0.064,0-0.129,0-0.194c-0.002-0.233-0.019-0.25-0.248-0.252c-0.081-0.001-0.162-0.001-0.243-0.001
				c-8.403,0-16.805,0-25.208-0.002c-0.125,0-0.262,0.042-0.369-0.066c0-3.555,0-7.11-0.004-10.667c0-0.106,0.016-0.135,0.13-0.135
				c21.533,0.003,43.066,0.003,64.599,0c0.115,0,0.132,0.029,0.132,0.135c-0.004,3.556-0.004,7.111-0.004,10.667
				c-0.047,0.052-0.107,0.066-0.176,0.067c-0.091,0-0.184,0.001-0.274,0.001c-8.409,0-16.816,0-25.225,0
				c-0.417,0-0.392-0.025-0.392,0.4c0,2.394-0.001,4.787,0,7.181c0.001,0.856-0.2,1.667-0.543,2.446
				c-0.08,0.184-0.179,0.357-0.27,0.535C58.77,21.896,58.714,21.963,58.624,22.001z"/>
			<path fill-rule="evenodd" clip-rule="evenodd" fill="#FEFEFE" d="M20.84,11.18c0.069,0.003,0.139,0.008,0.209,0.008
				c8.569,0,17.138,0,25.707,0.001c0.245,0,0.211-0.032,0.211,0.217c0.001,2.458-0.001,4.916,0.005,7.375
				c0.002,1.098,0.305,2.117,0.853,3.065c0.03,0.051,0.058,0.104,0.086,0.155c-0.081,0-0.162,0.002-0.243,0.002
				c-8.873,0-17.746,0-26.618,0c-0.071,0-0.141,0.005-0.21,0.008C20.84,18.401,20.84,14.79,20.84,11.18z"/>
		</g>
	</g>
	<g>
		<defs>
			<circle id="SVGID_93_" cx="-19.217" cy="16.595" r="15.917"/>
		</defs>
		<clipPath id="SVGID_6_">
			<use xlink:href="#SVGID_93_"  overflow="visible"/>
		</clipPath>
		<g clip-path="url(#SVGID_6_)">
			<path fill-rule="evenodd" clip-rule="evenodd" fill="#FCDB00" d="M-43.675,16.583c0-5.462,0-10.924-0.002-16.387
				c0-0.088,0.012-0.116,0.111-0.116c16.444,0.002,32.889,0.002,49.332,0c0.099,0,0.111,0.028,0.111,0.116
				C5.875,5.659,5.875,11.121,5.875,16.583c-0.031,0.033-0.072,0.036-0.114,0.036C5.707,16.62,5.653,16.62,5.6,16.62
				c-6.224,0-12.447,0-18.671,0c-0.033,0-0.066,0.002-0.099-0.001c-0.077-0.008-0.174,0.032-0.21-0.079
				c-0.037-0.113,0.003-0.219,0.089-0.296c0.054-0.047,0.156-0.036,0.166-0.132c0.009-0.094-0.029-0.177-0.07-0.259
				c-0.031-0.063,0.009-0.137-0.027-0.2c-0.012-0.479-0.101-0.954-0.083-1.435c0.004-0.11-0.047-0.217-0.03-0.329
				c0.092-0.121,0.208-0.219,0.322-0.319c0.141-0.009,0.227,0.124,0.183,0.277c-0.011,0.041-0.067,0.086-0.03,0.12
				c0.044,0.039,0.109,0.013,0.164-0.008c0.123-0.046,0.202-0.134,0.246-0.256c0.011-0.054,0.073-0.111-0.008-0.16
				c-0.138,0.051-0.269,0.063-0.37-0.072c-0.014-0.044-0.022-0.088-0.019-0.135c0.054-0.111,0.164-0.117,0.263-0.13
				c0.097-0.013,0.151-0.054,0.182-0.15c0.053-0.16,0.118-0.315,0.205-0.46c0.021-0.039,0.045-0.075,0.069-0.097
				c-0.029,0.032-0.083,0.046-0.122,0.085c-0.138,0.084-0.284,0.152-0.437,0.203c-0.084,0.028-0.128,0.078-0.147,0.164
				c-0.021,0.091-0.033,0.189-0.114,0.254c-0.068,0.039-0.123-0.003-0.181-0.03c-0.047-0.02-0.082-0.066-0.152-0.064
				c0.001,0.097,0.097,0.146,0.111,0.231c0.006,0.04-0.007,0.075-0.023,0.11c-0.025,0.056-0.06,0.1-0.129,0.102
				c-0.058-0.011-0.069-0.064-0.092-0.105c-0.037-0.066-0.089-0.107-0.168-0.095c-0.077,0.012-0.087,0.074-0.094,0.137
				c-0.004,0.033-0.008,0.065-0.024,0.094c-0.099,0.106-0.099,0.114-0.002,0.224c0.021,0.024,0.046,0.044,0.061,0.074
				c0.023,0.057-0.011,0.095-0.046,0.13c-0.13,0.132-0.261,0.264-0.394,0.393c-0.026,0.026-0.055,0.06-0.095,0.048
				c-0.049-0.014-0.026-0.063-0.027-0.096c-0.003-0.09-0.001-0.181,0-0.272c0-0.04-0.005-0.074,0.046-0.1
				c0.057-0.03,0.027-0.097,0.022-0.146c-0.004-0.035-0.014-0.061,0.023-0.084c0.122-0.072,0.136-0.111,0.093-0.244
				c-0.005-0.016-0.016-0.029-0.027-0.042c-0.019-0.026-0.033-0.054-0.039-0.086c0.009-0.065,0.037-0.131-0.003-0.196
				c-0.053-0.099-0.03-0.21-0.047-0.315c-0.019-0.112-0.031-0.229-0.031-0.343c0-0.227-0.013-0.452-0.059-0.674
				c0.005-0.058,0.034-0.096,0.092-0.11c0.139,0.01,0.277,0.058,0.418,0.011c0.008-0.002,0.017-0.006,0.024-0.004
				c0.015,0.005,0.02-0.007,0.004-0.002c-0.048,0.014-0.097,0.011-0.146,0.018c-0.076-0.002-0.138-0.035-0.186-0.093
				c-0.014-0.022-0.023-0.046-0.02-0.074c0.019-0.071,0.081-0.096,0.14-0.104c0.098-0.014,0.14-0.071,0.162-0.159
				c0.016-0.064,0.043-0.125,0.074-0.184c0.021-0.034,0.044-0.067,0.059-0.103c-0.023,0.025-0.056,0.042-0.083,0.067
				c-0.017,0.012-0.033,0.024-0.052,0.031c-0.156,0.054-0.287,0.131-0.31,0.316c-0.002,0.019-0.021,0.034-0.037,0.046
				c-0.017,0.009-0.035,0.012-0.054,0.008c-0.09-0.041-0.102-0.126-0.117-0.209c-0.001-0.019,0.007-0.038-0.003-0.055
				c-0.007,0.037-0.015,0.072-0.027,0.106c-0.022,0.039-0.042,0.076-0.098,0.082c-0.194,0.021-0.194,0.022-0.245,0.203
				c-0.067,0.114,0.036,0.169,0.098,0.2c0.144,0.073,0.169,0.187,0.165,0.327c-0.007,0.335-0.034,0.673,0.063,1.002
				c0.005,0.122-0.022,0.246,0.019,0.367c0.007,0.01,0.012,0.02,0.018,0.03c0.106,0.074,0.167,0.244,0.136,0.374
				c-0.006,0.029-0.018,0.044-0.048,0.045c-0.029,0.001-0.048-0.009-0.05-0.04c-0.002-0.024,0-0.049-0.001-0.074
				c-0.002,0.032,0.015,0.073-0.009,0.094c-0.046,0.041-0.063,0.009-0.064-0.039c-0.001-0.014-0.001-0.014-0.001,0.002
				c0,0.04-0.017,0.071-0.059,0.046c-0.048-0.029-0.021-0.082-0.023-0.11c-0.018,0.071-0.009,0.133,0.103,0.119
				c0.07-0.009,0.08,0.03,0.08,0.089c0.001,0.127-0.012,0.255,0.007,0.382c0.007,0.048-0.02,0.078-0.048,0.108
				c-0.098,0.105-0.206,0.202-0.308,0.304c-0.037,0.037-0.078,0.064-0.129,0.019c-0.035-0.152-0.028-0.309-0.063-0.461
				c-0.035-0.408-0.115-0.808-0.216-1.204c-0.007-0.028-0.01-0.057-0.014-0.085c-0.01-0.153-0.05-0.3-0.1-0.444
				c-0.034-0.104-0.028-0.182,0.066-0.246c0.03-0.021,0.054-0.051,0.079-0.078c-0.153,0.151-0.166,0.225-0.258-0.042
				c0.018,0.037,0.033,0.084,0.048,0.131c0.033,0.104-0.02,0.219-0.123,0.26c-0.081,0.032-0.115-0.026-0.143-0.083
				c-0.072-0.148-0.133-0.301-0.188-0.42c0.054,0.121,0.123,0.271,0.186,0.423c0.03,0.073,0.056,0.147,0.029,0.228
				c-0.008,0.017-0.02,0.031-0.035,0.041c-0.09,0.039-0.116-0.03-0.143-0.09c-0.087-0.19-0.169-0.381-0.272-0.564
				c0.108,0.192,0.199,0.392,0.283,0.594c0.057,0.136,0.018,0.211-0.115,0.252c-0.049-0.014-0.066-0.053-0.081-0.096
				c-0.146-0.308-0.313-0.604-0.438-0.841c0.141,0.254,0.311,0.574,0.456,0.906c0.009,0.023,0.017,0.047,0.018,0.073
				c-0.013,0.063-0.043,0.092-0.107,0.057c-0.066-0.065-0.093-0.154-0.137-0.233c-0.189-0.338-0.402-0.66-0.575-0.896
				c0.208,0.344,0.463,0.769,0.647,1.233c0.003,0.082-0.044,0.135-0.116,0.156c-0.071,0.021-0.111-0.041-0.149-0.089
				c-0.144-0.185-0.26-0.39-0.39-0.565c0.152,0.214,0.306,0.446,0.425,0.7c0.004,0.011,0.007,0.022,0.008,0.034
				c0,0.053-0.028,0.101-0.075,0.111c-0.059,0.014-0.043,0.057-0.056,0.09c-0.055,0.074-0.102,0.162-0.216,0.15
				c-0.109-0.118-0.173-0.267-0.268-0.395c-0.23-0.309-0.512-0.563-0.815-0.796c-0.053-0.041-0.1-0.09-0.169-0.105
				c-0.021-0.008-0.042-0.019-0.06-0.034c-0.047-0.048-0.108-0.071-0.166-0.099c-0.075-0.036-0.139-0.082-0.185-0.152
				c-0.065-0.119-0.213-0.139-0.293-0.241c-0.021-0.046-0.012-0.097-0.027-0.145c-0.021-0.07-0.009-0.132,0.07-0.16
				c0.042-0.015,0.073-0.048,0.085-0.085c0.06-0.185,0.192-0.335,0.239-0.526c0.031-0.126,0.049-0.129,0.155-0.058
				c0.096,0.064,0.121,0.055,0.147-0.059c0.032-0.133,0.046-0.139,0.159-0.061c0.021,0.014,0.04,0.029,0.062,0.041
				c0.056,0.031,0.086,0.024,0.103-0.048c0.033-0.147,0.043-0.149,0.176-0.072c0.124,0.071,0.141,0.066,0.166-0.063
				c0.011-0.054,0.039-0.079,0.092-0.08c0.037,0,0.074,0.001,0.111,0.002c0.073,0,0.104-0.023,0.09-0.105
				c-0.024-0.134-0.006-0.147,0.124-0.116c0.021,0.005,0.04,0.012,0.06,0.015c0.138,0.026,0.159,0.003,0.121-0.129
				c-0.026-0.09-0.002-0.117,0.087-0.1c0.045,0.009,0.087,0.028,0.132,0.035c0.106,0.016,0.121,0.002,0.116-0.108
				c-0.003-0.079,0.029-0.101,0.111-0.067c0.076,0.032,0.144,0.081,0.227,0.097c0.116,0.023,0.137,0.006,0.114-0.104
				c-0.014-0.07,0.019-0.091,0.079-0.09c0.054,0.001,0.105,0.02,0.158,0.031c0.067,0.015,0.134,0.042,0.191-0.032
				c0.028-0.035,0.077-0.021,0.117-0.013c0.065,0.013,0.129,0.026,0.196,0.031c0.081,0.006,0.167,0.018,0.195-0.096
				c0.013-0.051,0.062-0.049,0.104-0.042c0.053,0.007,0.104,0.029,0.155,0.042c0.101,0.026,0.199,0.063,0.268-0.065
				c0.026-0.05,0.089-0.03,0.137-0.02c0.092,0.02,0.183,0.048,0.274,0.05c0.017-0.023,0.001-0.035-0.006-0.048
				c-0.014-0.027-0.05-0.053-0.024-0.087c0.026-0.035,0.068-0.026,0.103-0.015c0.122,0.038,0.241,0.085,0.372,0.102
				c-0.008-0.045-0.09-0.064-0.052-0.109c0.054-0.065,0.131-0.006,0.2-0.011c0.014-0.021-0.01-0.024-0.019-0.035
				c-0.02-0.024-0.059-0.043-0.032-0.082c0.021-0.031,0.059-0.026,0.091-0.02c0.098,0.018,0.19,0.054,0.285,0.081
				c0.016,0.005,0.003,0.007,0.01,0c0.013-0.014-0.015-0.011-0.019-0.021c-0.333-0.235-0.726-0.341-1.086-0.518
				c-0.033-0.016-0.068-0.027-0.099-0.048c-0.061-0.055-0.131-0.091-0.212-0.103c-0.024-0.003-0.045-0.012-0.064-0.026
				c-0.064-0.051-0.133-0.09-0.217-0.097c-0.108-0.041-0.219-0.074-0.328-0.118c-0.072-0.049-0.151-0.078-0.239-0.073
				c-0.042-0.002-0.08-0.015-0.117-0.032c-0.169-0.088-0.357-0.1-0.54-0.118c-0.295-0.03-0.589-0.065-0.885-0.085
				c-0.065-0.004-0.13-0.009-0.196,0.004c-0.075,0.002-0.147-0.01-0.22-0.02c-0.128-0.041-0.254-0.064-0.375,0.019
				c-0.138,0.083-0.19,0.217-0.221,0.365c-0.056,0.195-0.195,0.295-0.384,0.335c-0.138,0.029-0.266,0.086-0.397,0.133
				c-0.061,0.021-0.113,0.024-0.177,0.005c-0.268-0.077-0.54-0.092-0.815-0.044c-0.059,0.01-0.115,0.033-0.155,0.071
				c-0.091,0.085-0.187,0.091-0.294,0.041c-0.039-0.014-0.073-0.037-0.101-0.066c-0.015-0.014-0.024-0.037-0.042-0.043
				c-0.157-0.051-0.228-0.164-0.238-0.323c-0.037-0.099-0.057-0.202-0.072-0.306c0-0.09-0.028-0.163-0.126-0.188
				c-0.012-0.003-0.024-0.007-0.036-0.011c-0.172-0.066-0.352-0.048-0.526-0.03c-0.109,0.012-0.215,0.022-0.317-0.014
				c-0.311-0.111-0.617-0.07-0.922,0.019c-0.146,0.043-0.291,0.09-0.433,0.146c-0.064,0.025-0.134,0.038-0.186,0.086
				c-0.257,0.126-0.528,0.218-0.794,0.323c-0.211,0.059-0.4,0.164-0.582,0.285c-0.017,0.017-0.038,0.029-0.062,0.034
				c-0.062,0.016-0.119,0.042-0.167,0.085c-0.009,0.007-0.019,0.014-0.029,0.02c-0.199,0.099-0.372,0.245-0.579,0.331
				c0.1-0.052,0.205-0.078,0.318-0.061c0.106,0.016,0.21,0.047,0.319,0.033c0.012-0.002,0.028-0.002,0.036,0.005
				c0.125,0.13,0.269,0.051,0.405,0.031c0.1-0.014,0.19-0.035,0.266,0.066c0.039,0.051,0.117,0.026,0.178,0.024
				c0.066-0.001,0.13-0.021,0.194-0.035c0.088-0.019,0.177-0.062,0.211,0.082c0.013,0.053,0.087,0.051,0.142,0.045
				c0.09-0.01,0.178-0.032,0.266-0.056c0.042-0.011,0.106-0.028,0.112,0.034c0.008,0.092,0.059,0.068,0.11,0.06
				c0.053-0.008,0.104-0.026,0.157-0.031c0.103-0.01,0.125,0.017,0.105,0.119c-0.018,0.091,0,0.112,0.091,0.096
				c0.089-0.016,0.172-0.055,0.255-0.091c0.034-0.015,0.072-0.031,0.106-0.007c0.04,0.028,0.018,0.068,0.004,0.101
				c-0.039,0.093,0.012,0.096,0.081,0.087c0.053-0.006,0.105-0.019,0.159-0.025c0.094-0.011,0.112,0.013,0.087,0.104
				c-0.038,0.131-0.018,0.152,0.116,0.127c0.016-0.003,0.032-0.007,0.048-0.011c0.154-0.034,0.165-0.027,0.134,0.132
				c-0.013,0.071,0.023,0.087,0.075,0.101c0.042,0.011,0.082-0.004,0.124-0.007c0.066-0.005,0.096,0.021,0.104,0.09
				c0.012,0.118,0.022,0.121,0.137,0.077c0.126-0.049,0.128-0.05,0.185,0.077c0.029,0.067,0.064,0.064,0.112,0.022
				c0.034-0.03,0.064-0.065,0.099-0.093c0.073-0.057,0.106-0.044,0.125,0.048c0.008,0.041,0.005,0.082,0.008,0.123
				c0.005,0.081,0.045,0.09,0.106,0.051c0.021-0.013,0.04-0.03,0.062-0.042c0.062-0.038,0.1-0.02,0.119,0.049
				c0.041,0.147,0.055,0.278-0.039,0.428c-0.147,0.237-0.292,0.48-0.402,0.737c-0.087,0.203-0.166,0.413-0.234,0.624
				c-0.035,0.109-0.128,0.17-0.173,0.267c-0.19,0.184-0.349,0.392-0.483,0.62c-0.027,0.046-0.054,0.094-0.113,0.105
				c-0.133-0.035-0.197-0.148-0.279-0.242c-0.031-0.036,0.002-0.077,0.017-0.114c-0.042-0.042-0.106-0.002-0.147-0.043
				c-0.02-0.016-0.03-0.036-0.031-0.061c0.015-0.077,0.084-0.105,0.138-0.146c0.042-0.032,0.079-0.068,0.112-0.113
				c-0.038,0.004-0.071,0.021-0.107,0.017c-0.097-0.034-0.102-0.05-0.038-0.112c0.075-0.073,0.175-0.08,0.268-0.102
				c0.191-0.011,0.385-0.005,0.56-0.102c-0.125-0.053-0.126-0.053-0.243,0.016c-0.035,0.021-0.068,0.026-0.104,0.007
				c-0.087-0.123-0.013-0.258,0.158-0.279c0.098-0.012,0.198-0.006,0.297-0.026c0,0.001-0.005,0.002-0.017,0.003
				c-0.072,0.003-0.169,0.039-0.208-0.033c-0.048-0.089,0.066-0.136,0.095-0.201c-0.093-0.001-0.16,0.158-0.291,0.064
				c-0.004,0.007-0.01,0.029-0.012,0.048c-0.028,0.246-0.183,0.396-0.382,0.512c-0.018,0.01-0.029,0.029-0.047,0.04
				c-0.049,0.03-0.092,0.065-0.127,0.114c-0.039,0.054-0.067,0.026-0.082-0.024c0.055-0.178,0.134-0.336,0.325-0.413
				c-0.188,0.009-0.358,0.045-0.478,0.201c-0.01,0.012-0.025,0.024-0.019,0.042c0.007,0.02,0.027,0.031,0.034,0.051
				c0.019,0.065-0.03,0.19-0.079,0.187c-0.081-0.005-0.122-0.063-0.134-0.138c-0.022-0.13,0.096-0.366,0.215-0.424
				c0.049-0.024,0.091-0.056,0.13-0.093c0.19-0.166,0.281-0.325,0.315-0.555c-0.218,0.137-0.406,0.296-0.488,0.55
				c-0.02,0.023-0.038,0.05-0.075,0.037c-0.068-0.074-0.039-0.172-0.067-0.254c-0.026,0.046-0.045,0.1-0.075,0.149
				c-0.021,0.04-0.025,0.087-0.048,0.126c-0.12,0.204-0.1,0.417-0.047,0.633c0.004,0.073,0.006,0.146,0,0.22
				c-0.004,0.02-0.012,0.037-0.025,0.052c-0.049,0.037-0.071,0.097-0.12,0.134c-0.11,0.036-0.187,0.122-0.281,0.181
				c-0.128-0.021-0.178-0.131-0.103-0.256c0.049-0.082,0.084-0.181,0.187-0.22c0.008-0.003,0.018,0.001,0.017-0.006
				c-0.036-0.23,0.092-0.452,0.042-0.684c-0.004-0.02-0.005-0.041-0.011-0.061c-0.048,0.064-0.058,0.181-0.146,0.181
				c-0.092,0-0.101-0.117-0.145-0.183c-0.01-0.014-0.015-0.03-0.039-0.034c-0.055,0.126-0.02,0.242,0.046,0.35
				c0.045,0.075,0.063,0.149,0.048,0.235c-0.022,0.137-0.053,0.158-0.199,0.117c0.04,0.083,0.067,0.166,0.111,0.239
				c0.082,0.138,0.081,0.29,0.08,0.442c-0.001,0.037-0.001,0.084-0.042,0.096c-0.052,0.015-0.063-0.04-0.084-0.072
				c-0.046-0.127-0.086-0.257-0.141-0.392c-0.06,0.274-0.07,0.541-0.008,0.809c0.011,0.048,0.028,0.095-0.001,0.143
				c-0.054,0.037-0.076-0.011-0.096-0.042c-0.053-0.083-0.106-0.167-0.122-0.285c0.002,0.049,0,0.082-0.007,0.115
				c-0.02,0.068-0.024,0.137-0.024,0.207c0,0.037-0.001,0.078-0.045,0.092c-0.041,0.013-0.067-0.019-0.095-0.043
				c-0.002-0.002-0.004-0.006-0.008-0.009c-0.041-0.045-0.054-0.453-0.017-0.5c0.011-0.013-0.004,0.001,0.009-0.008
				c0.047-0.034,0.125-0.028,0.13-0.112c0.005-0.088-0.012-0.17-0.053-0.249c-0.006-0.013-0.01-0.027-0.012-0.041
				c0.025-0.157,0.017-0.314,0.016-0.471c0.005-0.099,0.038-0.193,0.047-0.291c0.044-0.161,0.042-0.323-0.002-0.483
				c-0.014-0.118-0.009-0.235,0.018-0.352c0.009-0.041,0.018-0.08,0.055-0.104c0.037-0.015,0.059,0.002,0.083,0.029
				c0.129,0.143,0.271,0.274,0.378,0.384c-0.091-0.09-0.209-0.208-0.327-0.327c-0.032-0.032-0.07-0.062-0.039-0.115
				c0.023-0.039,0.056-0.069,0.086-0.101c0.049-0.051,0.058-0.103,0.012-0.16c-0.034-0.175-0.052-0.189-0.234-0.177
				c-0.03,0.002-0.058,0.001-0.08-0.021c-0.046-0.058-0.033-0.133-0.057-0.196c-0.03,0.05-0.004,0.106-0.016,0.157
				c-0.014,0.051-0.034,0.098-0.082,0.126c-0.046,0.014-0.075-0.011-0.099-0.044c-0.021-0.031-0.032-0.067-0.037-0.103
				c-0.01-0.074-0.052-0.114-0.118-0.141c-0.072-0.029-0.141-0.065-0.207-0.107c-0.027-0.024-0.057-0.045-0.087-0.073
				c0.009,0.032,0.023,0.056,0.039,0.081c0.025,0.033,0.044,0.071,0.052,0.11c0.03,0.156,0.109,0.264,0.273,0.294
				c0.035,0.033,0.065,0.068,0.05,0.122c-0.036,0.073-0.105,0.09-0.175,0.109c-0.049,0.002-0.099,0.004-0.147-0.009
				c-0.008-0.002-0.017-0.002-0.025-0.003c-0.015,0-0.019-0.003-0.012-0.002c0.014,0.003,0.028,0.004,0.043,0.007
				c0.141,0.046,0.279,0.007,0.417-0.011c0.092,0.013,0.114,0.077,0.098,0.153c-0.071,0.335-0.042,0.679-0.09,1.016
				c-0.02,0.137-0.075,0.27-0.051,0.411c0.004,0.098-0.072,0.172-0.079,0.269c-0.006,0.076-0.017,0.142,0.084,0.158
				c0.04,0.006,0.068,0.033,0.073,0.074c0.021,0.17,0.061,0.339,0.043,0.513c-0.007,0.069-0.042,0.097-0.095,0.051
				c-0.151-0.133-0.296-0.274-0.426-0.429c-0.017-0.02-0.015-0.047-0.006-0.071c0.014-0.034,0.042-0.058,0.066-0.085
				C-24,13.697-24,13.693-24.098,13.588c-0.019-0.033-0.023-0.069-0.025-0.106c-0.003-0.06-0.015-0.117-0.084-0.131
				c-0.072-0.014-0.126,0.021-0.167,0.078c-0.032,0.045-0.038,0.111-0.104,0.129c-0.071,0.003-0.11-0.038-0.134-0.098
				c-0.01-0.037-0.025-0.074-0.019-0.113c0.007-0.046,0.037-0.08,0.062-0.117c0.022-0.033,0.052-0.063,0.047-0.117
				c-0.062-0.01-0.099,0.041-0.148,0.062c-0.057,0.026-0.11,0.07-0.18,0.032c-0.081-0.063-0.092-0.16-0.113-0.25
				c-0.021-0.088-0.065-0.141-0.153-0.17c-0.151-0.05-0.296-0.116-0.432-0.201c-0.049-0.048-0.123-0.066-0.15-0.122
				c0.013,0.024,0.045,0.048,0.068,0.082c0.104,0.169,0.18,0.352,0.245,0.538c0.025,0.072,0.065,0.103,0.139,0.116
				c0.107,0.018,0.225,0.023,0.292,0.134c0.008,0.047-0.003,0.091-0.016,0.136c-0.102,0.14-0.235,0.123-0.374,0.076
				c-0.069,0.05-0.018,0.104-0.006,0.156c0.06,0.161,0.172,0.259,0.345,0.279c0.063,0.008,0.1-0.009,0.06-0.082
				c-0.045-0.081-0.048-0.165-0.003-0.248c0.038-0.068,0.087-0.111,0.171-0.07c0.11,0.094,0.214,0.193,0.309,0.301
				c0.021,0.161-0.034,0.316-0.03,0.478c0.009,0.374-0.029,0.746-0.088,1.115c-0.011,0.07-0.007,0.139-0.002,0.209
				c0.012,0.116-0.044,0.216-0.075,0.322c-0.028,0.096-0.012,0.16,0.09,0.208c0.154,0.073,0.179,0.137,0.16,0.294
				c-0.008,0.068-0.04,0.105-0.11,0.109c-0.042,0.002-0.083,0.002-0.124,0.002c-6.276,0-12.551,0-18.827-0.001
				C-43.542,16.619-43.616,16.638-43.675,16.583z"/>
			<path fill-rule="evenodd" clip-rule="evenodd" fill="#EB1C24" d="M5.875,24.858c0,2.716,0,5.433,0.003,8.149
				c0,0.082-0.012,0.103-0.1,0.103c-16.452-0.002-32.903-0.002-49.355,0c-0.087,0-0.1-0.021-0.099-0.103
				c0.002-2.717,0.002-5.433,0.002-8.149c0.035-0.037,0.081-0.037,0.127-0.037c0.058-0.001,0.116,0,0.173,0
				c7.993,0,15.985,0.014,23.978-0.004c8.326-0.019,16.651-0.002,24.977-0.01C5.679,24.807,5.789,24.773,5.875,24.858z"/>
			<path fill-rule="evenodd" clip-rule="evenodd" fill="#034EA1" d="M5.875,24.858c-0.057-0.001-0.115-0.004-0.173-0.004
				c-7.988,0-15.976,0-23.964,0c-8.414,0-16.827,0-25.24,0c-0.058,0-0.115,0.002-0.173,0.004c0-0.008,0-0.017,0-0.025
				c0.036-0.041,0.082-0.051,0.134-0.051c0.074-0.001,0.149-0.001,0.223-0.001c7.799,0,15.599,0,23.398,0
				c0.082,0,0.165,0.009,0.246-0.01c0.012-0.004,0.024-0.013,0.035-0.009c0.205,0.059,0.377-0.029,0.55-0.119
				c0.018-0.01,0.038-0.015,0.059-0.018c0.025-0.001,0.051-0.001,0.077-0.001c0.113,0.014,0.197,0.095,0.302,0.13
				c0.108,0.036,0.214,0.06,0.3-0.047c0.063-0.103,0.019-0.209,0.012-0.313c-0.004-0.045-0.015-0.089-0.011-0.135
				c0.01-0.102,0.055-0.138,0.156-0.117c0.109,0.022,0.219,0.035,0.328,0.047c0.109,0.013,0.159-0.039,0.149-0.148
				c-0.007-0.087-0.024-0.17-0.066-0.248c-0.033-0.139-0.095-0.272-0.063-0.421c0.044-0.045,0.098-0.033,0.151-0.028
				c0.168,0.014,0.333,0.052,0.503,0.056c0.223,0.004,0.286-0.074,0.231-0.329c-0.015-0.072-0.059-0.136-0.096-0.2
				c-0.107-0.186-0.224-0.366-0.347-0.542c-0.033-0.048-0.067-0.095-0.062-0.158c0.017-0.075,0.078-0.076,0.134-0.075
				c0.069,0,0.137,0.001,0.203-0.018c0.013-0.001,0.027-0.003,0.04-0.004c0.127,0.013,0.222-0.092,0.344-0.096
				c0.273,0.088,0.548,0.172,0.818,0.27c0.055,0.089,0.135,0.155,0.212,0.222c0.287,0.248,0.543,0.528,0.813,0.793
				c0.083,0.081,0.174,0.15,0.259,0.229c0.02,0.019,0.047,0.049,0.073,0.024c0.034-0.031,0-0.06-0.019-0.084
				c-0.03-0.039-0.065-0.074-0.104-0.106c-0.242-0.2-0.451-0.434-0.674-0.652c-0.109-0.107-0.219-0.211-0.346-0.297
				c-0.028-0.019-0.073-0.035-0.036-0.084c0.117-0.057,0.242-0.029,0.364-0.03c0.322-0.002,0.617-0.095,0.883-0.273
				c0.161-0.108,0.303-0.24,0.418-0.399c0.031-0.042,0.06-0.09,0.115-0.107c0.138,0.068,0.229,0.193,0.345,0.289
				c0.085,0.07,0.156,0.158,0.238,0.232c0.042,0.038,0.089,0.126,0.142,0.076c0.045-0.044-0.042-0.092-0.077-0.131
				c-0.152-0.167-0.325-0.314-0.491-0.467c-0.039-0.035-0.085-0.067-0.088-0.129c0.001-0.073,0.041-0.133,0.07-0.196
				c0.238-0.506,0.366-1.039,0.374-1.598c0.001-0.124,0.002-0.248,0-0.371c-0.015-0.643,0.04-1.284,0.026-1.927
				c0-0.033,0-0.066,0.007-0.099c0.041-0.137,0.029-0.278,0.032-0.418c0.002-0.138,0.009-0.146,0.148-0.146c1.878,0,3.756,0,5.633,0
				c4.441,0,8.882,0,13.322,0c0.053,0,0.107-0.013,0.158,0.012C5.875,19.358,5.875,22.108,5.875,24.858z"/>
			<path fill-rule="evenodd" clip-rule="evenodd" fill="#684F05" d="M5.875,16.607c-0.049-0.001-0.098-0.003-0.148-0.003
				c-6.3,0-12.6,0-18.899,0c-0.207,0-0.178-0.024-0.185,0.186c-0.004,0.136,0.017,0.272-0.017,0.406
				c-0.056-0.04-0.051-0.1-0.051-0.156c-0.002-0.177-0.001-0.354-0.001-0.53c0-0.068-0.007-0.128-0.076-0.168
				c-0.059-0.034-0.076-0.097-0.07-0.161c0.022-0.228,0.048-0.455,0.066-0.683c0.043-0.064,0.07-0.032,0.091,0.018
				c0.02,0.049,0.009,0.104,0.02,0.161c0.041-0.017,0.031-0.07,0.066-0.088c0.062-0.006,0.064,0.044,0.08,0.083
				c-0.005,0.063,0.037,0.102,0.074,0.142c0.074,0.104,0.104,0.221,0.102,0.349c0,0.047-0.007,0.09-0.065,0.075
				c-0.083-0.022-0.135,0.044-0.181,0.078c-0.066,0.049-0.025,0.151-0.024,0.23c0,0.063,0.061,0.038,0.096,0.042
				c0.029,0.004,0.058,0,0.087,0c6.292,0,12.584,0,18.875,0c0.054,0,0.108-0.003,0.161-0.005
				C5.875,16.591,5.875,16.599,5.875,16.607z"/>
		</g>
	</g>
</g>
<g id="Imagenes">
</g>
<g id="Cintillos">
</g>
<g id="Botones">
</g>
<g id="TXT">
</g>
<g id="Logo">
</g>
<g id="Guia">
</g>
</svg>
