<?xml version="1.0" encoding="utf-8"?>
<!-- Generator: Adobe Illustrator 16.0.0, SVG Export Plug-In . SVG Version: 6.00 Build 0)  -->
<!DOCTYPE svg PUBLIC "-//W3C//DTD SVG 1.1//EN" "http://www.w3.org/Graphics/SVG/1.1/DTD/svg11.dtd">
<svg version="1.1" xmlns="http://www.w3.org/2000/svg" xmlns:xlink="http://www.w3.org/1999/xlink" x="0px" y="0px"
	 width="34.417px" height="34.25px" viewBox="0 0 34.417 34.25" enable-background="new 0 0 34.417 34.25" xml:space="preserve">
<g id="Soporte">
</g>
<g id="Publicidad">
</g>
<g id="Iconos">
	<g>
		<defs>
			<circle id="SVGID_71_" cx="-17.217" cy="16.595" r="15.917"/>
		</defs>
		<clipPath id="SVGID_2_">
			<use xlink:href="#SVGID_71_"  overflow="visible"/>
		</clipPath>
		<g clip-path="url(#SVGID_2_)">
			<path fill-rule="evenodd" clip-rule="evenodd" fill="#FEC300" d="M9.669,8.378c0,5.501,0,11.002,0,16.504
				c-0.053,0.067-0.126,0.082-0.207,0.084c-0.103,0.003-0.206,0.003-0.309,0.003c-16.147,0-32.295,0-48.442,0
				c-0.103,0-0.206,0-0.309-0.003c-0.08-0.002-0.153-0.018-0.206-0.084c0-5.501,0-11.003,0-16.504
				c0.053-0.067,0.126-0.082,0.207-0.084c0.103-0.003,0.206-0.003,0.309-0.003c16.147,0,32.294,0,48.441,0
				c0.103,0,0.206,0,0.309,0.003C9.543,8.296,9.617,8.311,9.669,8.378z"/>
			<path fill-rule="evenodd" clip-rule="evenodd" fill="#C50B1E" d="M9.669,8.378C9.586,8.379,9.502,8.383,9.418,8.383
				c-16.323,0-32.648,0-48.971,0c-0.084,0-0.167-0.004-0.251-0.005c0-2.693,0.001-5.385-0.004-8.078
				c0-0.132,0.026-0.158,0.158-0.158c16.388,0.004,32.776,0.004,49.164,0c0.132,0,0.158,0.026,0.158,0.158
				C9.668,2.993,9.669,5.685,9.669,8.378z"/>
			<path fill-rule="evenodd" clip-rule="evenodd" fill="#C50B1E" d="M-39.803,24.882c0.083-0.002,0.167-0.005,0.251-0.005
				c16.323,0,32.647,0,48.971,0c0.084,0,0.167,0.003,0.251,0.005c0,2.691-0.001,5.384,0.003,8.076c0,0.127-0.018,0.161-0.155,0.161
				c-16.39-0.004-32.779-0.004-49.169,0c-0.137,0-0.156-0.034-0.155-0.161C-39.802,30.266-39.803,27.573-39.803,24.882z"/>
		</g>
	</g>
	<g>
		<defs>
			<circle id="SVGID_73_" cx="17.475" cy="16.595" r="15.917"/>
		</defs>
		<clipPath id="SVGID_4_">
			<use xlink:href="#SVGID_73_"  overflow="visible"/>
		</clipPath>
		<g clip-path="url(#SVGID_4_)">
			<path fill-rule="evenodd" clip-rule="evenodd" fill="#CC1126" d="M-7.007,11.266c0-3.586,0-7.172-0.002-10.757
				c0-0.089,0.014-0.115,0.111-0.115c16.249,0.003,32.497,0.003,48.746,0c0.096,0,0.11,0.026,0.11,0.115
				c-0.003,3.585-0.002,7.171-0.002,10.757c-0.036,0.033-0.081,0.037-0.126,0.039c-0.053,0.002-0.106,0.001-0.16,0.001
				c-16.13,0-32.261,0-48.392-0.001C-6.816,11.305-6.919,11.331-7.007,11.266z"/>
			<path fill-rule="evenodd" clip-rule="evenodd" d="M41.956,22.161c0,3.585-0.001,7.171,0.002,10.757
				c0,0.089-0.014,0.115-0.11,0.115c-16.249-0.003-32.497-0.003-48.746,0c-0.097,0-0.111-0.026-0.111-0.115
				c0.002-3.586,0.002-7.172,0.002-10.757c0.036-0.033,0.081-0.038,0.126-0.039c0.054-0.003,0.105-0.002,0.159-0.002
				c16.131,0,32.262,0,48.393,0.001C41.766,22.121,41.868,22.095,41.956,22.161z"/>
			<path fill-rule="evenodd" clip-rule="evenodd" fill="#FEFEFE" d="M41.956,22.161c-0.045-0.003-0.09-0.006-0.135-0.006
				c-16.231,0-32.463,0-48.693,0c-0.045,0-0.09,0.003-0.135,0.006c0-3.632,0-7.263,0-10.895c0.049,0.002,0.098,0.005,0.146,0.005
				c16.223,0.001,32.447,0.001,48.67,0c0.049,0,0.098-0.003,0.146-0.005C41.956,14.898,41.956,18.529,41.956,22.161z"/>
			<path fill-rule="evenodd" clip-rule="evenodd" fill="#BF9200" d="M15.653,18.582c-0.238,0.216-0.474,0.428-0.708,0.641
				c-0.387,0.351-0.773,0.701-1.16,1.052c-0.026,0.023-0.049,0.067-0.09,0.046c-0.038-0.021-0.02-0.065-0.018-0.1
				c0.046-1.125,0.094-2.25,0.142-3.374c0.036-0.855,0.072-1.712,0.106-2.567c0.007-0.175,0.006-0.351,0.049-0.522
				c0.083-0.325,0.335-0.491,0.67-0.448c0.313,0.039,0.595,0.165,0.862,0.324c0.275,0.164,0.573,0.252,0.89,0.273
				c0.052,0.004,0.103,0.015,0.142-0.042c0.31-0.452,0.498-0.941,0.474-1.498c-0.005-0.118-0.056-0.211-0.139-0.29
				c-0.086-0.085-0.181-0.123-0.295-0.049c-0.073,0.047-0.102,0.017-0.112-0.06c-0.032-0.247,0.087-0.385,0.336-0.381
				c0.068,0.001,0.137,0.012,0.206,0.021c0.069,0.011,0.137,0.041,0.193-0.04c0.02-0.029,0.075-0.023,0.116-0.02
				c0.126,0.013,0.249,0.044,0.371,0.071c0.311,0.069,0.44,0.279,0.472,0.575c0.02,0.183,0.022,0.366,0.019,0.55
				c-0.006,0.358,0.059,0.704,0.189,1.039c0.038,0.1,0.091,0.136,0.2,0.125c0.309-0.032,0.598-0.112,0.867-0.271
				c0.261-0.153,0.53-0.281,0.837-0.323c0.41-0.055,0.686,0.151,0.727,0.564c0.025,0.263,0.034,0.528,0.045,0.793
				c0.054,1.275,0.105,2.551,0.158,3.826c0.023,0.57,0.048,1.141,0.07,1.712c0.002,0.037,0.025,0.089-0.02,0.111
				c-0.045,0.021-0.069-0.031-0.096-0.057c-0.573-0.528-1.144-1.059-1.716-1.587c-0.053-0.049-0.11-0.093-0.189-0.159
				c0.139,0.489,0.27,0.946,0.396,1.404c0.015,0.056,0.038,0.061,0.085,0.042c0.124-0.05,0.243-0.055,0.376-0.011
				c0.19,0.063,0.294,0.181,0.277,0.388c-0.006,0.089-0.006,0.154,0.099,0.185c0.057,0.017,0.092,0.076,0.131,0.124
				c0.04,0.05,0.076,0.106,0.153,0.108c0.03,0,0.054,0.018,0.058,0.052s-0.014,0.06-0.043,0.067
				c-0.062,0.015-0.063,0.068-0.076,0.112c-0.024,0.094-0.056,0.181-0.141,0.235c-0.038,0.024-0.037,0.059-0.04,0.095
				c-0.017,0.171-0.119,0.256-0.279,0.297c-0.528,0.135-1.066,0.191-1.606,0.226c-0.906,0.057-1.811,0.049-2.714-0.027
				c-0.422-0.035-0.841-0.098-1.251-0.209c-0.146-0.039-0.235-0.124-0.251-0.276c-0.005-0.052-0.019-0.09-0.065-0.121
				c-0.066-0.047-0.095-0.121-0.114-0.197c-0.016-0.058-0.026-0.111-0.093-0.145c-0.054-0.027-0.05-0.094,0.017-0.104
				c0.09-0.014,0.129-0.075,0.181-0.133c0.032-0.037,0.065-0.087,0.106-0.098c0.12-0.032,0.111-0.11,0.104-0.205
				c-0.013-0.199,0.093-0.31,0.28-0.373c0.134-0.045,0.253-0.036,0.377,0.012c0.039,0.015,0.066,0.021,0.08-0.033
				c0.122-0.439,0.245-0.878,0.367-1.317C15.667,18.609,15.661,18.601,15.653,18.582z"/>
			<path fill-rule="evenodd" clip-rule="evenodd" fill="#FEFEFE" d="M20.234,19.303c-0.123-0.074-0.167-0.167-0.173-0.304
				c-0.061-1.464-0.128-2.926-0.194-4.389c-0.003-0.069-0.011-0.138-0.017-0.229c-0.1,0.083-0.188,0.155-0.276,0.229
				c-0.033,0.028-0.021,0.068-0.018,0.104c0.028,0.726,0.057,1.451,0.085,2.176c0.026,0.64,0.051,1.279,0.077,1.93
				c-0.111-0.068-0.178-0.145-0.182-0.282c-0.031-0.848-0.068-1.695-0.103-2.543c-0.019-0.419-0.036-0.839-0.055-1.257
				c-0.547,0.176-1.048-0.011-1.551-0.191c-0.027-0.009-0.051-0.024-0.078-0.035c-0.103-0.04-0.18-0.18-0.266-0.169
				c-0.09,0.011-0.177,0.118-0.278,0.163c-0.365,0.163-0.746,0.264-1.14,0.302c-0.167,0.016-0.338,0.018-0.495-0.097
				c-0.019,0.438-0.037,0.857-0.056,1.276c-0.037,0.868-0.076,1.736-0.108,2.604c-0.004,0.128-0.067,0.197-0.156,0.252
				c0-0.207-0.006-0.412,0.001-0.617c0.044-1.084,0.082-2.169,0.14-3.253c0.015-0.263-0.026-0.461-0.295-0.57
				c-0.005,0.067-0.013,0.143-0.016,0.217c-0.067,1.496-0.135,2.991-0.198,4.487c-0.005,0.119-0.1,0.146-0.173,0.216
				c0-0.041-0.002-0.083,0-0.124c0.054-1.243,0.109-2.485,0.163-3.729c0.017-0.383,0.033-0.767,0.05-1.149
				c0.002-0.047-0.001-0.086-0.042-0.12c-0.111-0.093-0.22-0.189-0.346-0.298c-0.015,0.27-0.028,0.521-0.039,0.771
				c-0.036,0.807-0.071,1.614-0.106,2.42c-0.039,0.86-0.081,1.72-0.117,2.58c-0.003,0.085-0.056,0.116-0.095,0.146
				c0-0.269-0.009-0.539,0.001-0.81c0.025-0.673,0.059-1.346,0.087-2.018c0.043-1.019,0.085-2.037,0.126-3.057
				c0.007-0.147,0-0.151-0.135-0.086c-0.04,0.02-0.08,0.04-0.118,0.063c-0.038,0.021-0.075,0.046-0.116,0.071
				c-0.023-0.409,0.247-0.662,0.638-0.605c0.258,0.037,0.499,0.128,0.719,0.262c0.309,0.187,0.635,0.311,0.998,0.332
				c0.02,0.001,0.039,0.008,0.066,0.014c-0.034,0.051-0.064,0.097-0.104,0.154c0.196,0.015,0.349-0.07,0.518-0.146
				c-0.019,0.092-0.035,0.169-0.055,0.266c0.146-0.04,0.254-0.118,0.353-0.202c0.075-0.063,0.116-0.053,0.177,0.016
				c0.128,0.142,0.134,0.142,0.265-0.003c0.062-0.066,0.108-0.077,0.18-0.016c0.074,0.064,0.168,0.099,0.264,0.121
				c0.136,0.032,0.146,0.022,0.141-0.113c0.087,0.015,0.175,0.033,0.262,0.043c0.036,0.003,0.08,0.042,0.11-0.01
				c0.03-0.053-0.045-0.06-0.047-0.115c0.088-0.01,0.179-0.016,0.268-0.031c0.252-0.042,0.487-0.129,0.707-0.261
				c0.239-0.142,0.489-0.258,0.768-0.304c0.419-0.07,0.679,0.152,0.683,0.595c-0.092-0.049-0.18-0.097-0.269-0.145
				c-0.08-0.043-0.113-0.03-0.108,0.071c0.023,0.506,0.04,1.011,0.062,1.517c0.028,0.668,0.059,1.337,0.088,2.005
				c0.033,0.762,0.065,1.523,0.097,2.286c0.002,0.032,0,0.065,0,0.108c-0.08-0.042-0.122-0.091-0.126-0.186
				c-0.045-1.083-0.094-2.168-0.145-3.252c-0.035-0.798-0.074-1.597-0.111-2.396c-0.001-0.022-0.004-0.046-0.009-0.085
				c-0.124,0.107-0.235,0.206-0.35,0.302c-0.042,0.036-0.033,0.08-0.032,0.124c0.048,1.108,0.094,2.217,0.143,3.325
				c0.02,0.461,0.042,0.921,0.062,1.382C20.237,19.124,20.234,19.208,20.234,19.303z"/>
			<path fill-rule="evenodd" clip-rule="evenodd" fill="#FEFEFE" d="M17.633,21.749c-0.994-0.002-1.823-0.036-2.644-0.2
				c-0.095-0.019-0.188-0.048-0.284-0.069c-0.103-0.023-0.154-0.085-0.15-0.19c0.002-0.074-0.018-0.127-0.093-0.168
				c-0.1-0.056-0.101-0.171-0.119-0.269c-0.009-0.047,0.179-0.229,0.234-0.229c0.079-0.002,0.101-0.035,0.11-0.109
				c0.019-0.132,0.139-0.206,0.271-0.175c0.251,0.059,0.499,0.116,0.752,0.163c0.13,0.024,0.149,0.157,0.208,0.249
				c0.014,0.022-0.001,0.066,0.036,0.069c0.048,0.004,0.038-0.043,0.049-0.071c0.045-0.109,0.144-0.166,0.262-0.16
				c0.203,0.012,0.409,0.049,0.61,0.011c0.182-0.036,0.288,0.069,0.374,0.186c0.071,0.097,0.088,0.047,0.118-0.013
				c0.021-0.039,0.031-0.083,0.046-0.126c0.012-0.032,0.007-0.074,0.063-0.071c0.049,0.001,0.046,0.036,0.055,0.065
				c0.005,0.02,0.011,0.04,0.018,0.059c0.053,0.153,0.065,0.153,0.171,0.049c0.102-0.098,0.204-0.182,0.371-0.148
				c0.192,0.039,0.391,0,0.585-0.01c0.129-0.007,0.223,0.047,0.27,0.166c0.01,0.026,0.005,0.064,0.041,0.065
				c0.041,0.001,0.029-0.041,0.04-0.065c0.064-0.137,0.13-0.257,0.313-0.278c0.213-0.026,0.421-0.088,0.632-0.134
				c0.158-0.035,0.263,0.03,0.292,0.188c0.009,0.042,0.012,0.087,0.065,0.086c0.146-0.002,0.188,0.131,0.267,0.211
				c0.042,0.043-0.03,0.249-0.104,0.29c-0.071,0.039-0.101,0.088-0.097,0.166c0.007,0.117-0.057,0.174-0.167,0.203
				c-0.415,0.112-0.84,0.166-1.265,0.203C18.467,21.734,17.97,21.755,17.633,21.749z"/>
			<path fill-rule="evenodd" clip-rule="evenodd" fill="#FEFEFE" d="M18.113,14.12c-0.08-0.008-0.134-0.031-0.191-0.055
				c-0.148-0.062-0.227-0.154-0.235-0.33c-0.013-0.285-0.015-0.571-0.024-0.856c-0.001-0.032,0.02-0.087-0.033-0.089
				c-0.056-0.002-0.034,0.055-0.034,0.085c0.001,0.334-0.002,0.669,0.041,1.001c0.006,0.047-0.129,0.229-0.17,0.231
				c-0.047,0.001-0.167-0.173-0.15-0.222c0.111-0.339,0.141-0.692,0.166-1.046c0.002-0.029,0.027-0.074-0.023-0.081
				c-0.053-0.007-0.038,0.044-0.04,0.071c-0.027,0.279-0.063,0.558-0.108,0.836c-0.04,0.238-0.185,0.368-0.394,0.471
				c-0.013-0.089,0.012-0.162,0.053-0.23c0.199-0.329,0.252-0.7,0.319-1.069c0.004-0.024,0.012-0.052-0.023-0.059
				c-0.055-0.01-0.042,0.042-0.046,0.066c-0.044,0.252-0.106,0.5-0.174,0.748c-0.07,0.261-0.245,0.391-0.488,0.458
				c-0.018,0.006-0.038,0.004-0.07,0.006c0.113-0.17,0.222-0.327,0.311-0.497c0.2-0.383,0.305-0.787,0.278-1.222
				c-0.004-0.07,0.01-0.101,0.083-0.096c0.036,0.003,0.073,0.001,0.123,0.001c-0.099-0.172-0.216-0.313-0.39-0.397
				c-0.154-0.074-0.209-0.055-0.351,0.106c-0.015-0.105-0.001-0.187,0.051-0.214c0.103-0.054,0.226-0.069,0.318-0.011
				c0.153,0.095,0.314,0.175,0.465,0.275c0.046,0.031,0.079,0.027,0.117-0.014c0.092-0.099,0.349-0.153,0.474-0.105
				c0.054,0.021,0.067,0.066,0.083,0.113c0.06,0.19,0.07,0.385,0.063,0.581c-0.014,0.374,0.024,0.741,0.146,1.097
				c0.042,0.123,0.096,0.24,0.171,0.354c-0.234,0.002-0.316-0.051-0.387-0.253c-0.086-0.248-0.123-0.506-0.149-0.766
				c-0.005-0.041-0.006-0.081-0.011-0.122c-0.002-0.023-0.006-0.053-0.039-0.049c-0.035,0.004-0.029,0.034-0.027,0.057
				c0.012,0.122,0.02,0.244,0.038,0.364c0.042,0.263,0.087,0.523,0.226,0.757C18.094,14.042,18.099,14.076,18.113,14.12z"/>
			<path fill-rule="evenodd" clip-rule="evenodd" fill="#FEFDFC" d="M19.066,15.071c-0.072,1.126-0.496,2.089-1.33,2.858
				c-0.26,0.24-0.269,0.239-0.53-0.001c-0.701-0.647-1.121-1.447-1.275-2.388c-0.032-0.189-0.049-0.38-0.051-0.572
				c-0.001-0.075,0.015-0.097,0.098-0.102c0.52-0.027,1.012-0.152,1.46-0.424c0.036-0.021,0.055-0.029,0.093-0.001
				c0.326,0.243,0.714,0.325,1.103,0.397c0.104,0.02,0.211,0.032,0.315,0.027c0.097-0.004,0.134,0.022,0.118,0.118
				C19.063,15.012,19.066,15.042,19.066,15.071z"/>
			<path fill-rule="evenodd" clip-rule="evenodd" fill="#FEFEFE" d="M18.255,19.105c-0.1-0.15-0.184-0.279-0.269-0.407
				c-0.02-0.029-0.026-0.059-0.016-0.092c0.053-0.18,0.106-0.358,0.166-0.563c0.065,0.084,0.117,0.152,0.17,0.22
				c0.022,0.027,0.038,0.077,0.078,0.066c0.045-0.013,0.037-0.066,0.042-0.104c0.017-0.158,0.033-0.316,0.051-0.499
				c0.114,0.109,0.216,0.2,0.31,0.298c0.064,0.065,0.105,0.07,0.136-0.026c0.014-0.046,0.037-0.09,0.068-0.163
				c0.085,0.305,0.166,0.584,0.253,0.892c-0.119-0.116-0.217-0.21-0.312-0.308c-0.059-0.062-0.093-0.074-0.117,0.026
				c-0.028,0.117-0.066,0.231-0.105,0.367c-0.085-0.113-0.159-0.214-0.235-0.313c-0.02-0.024-0.033-0.065-0.072-0.058
				c-0.044,0.01-0.039,0.057-0.044,0.09C18.324,18.713,18.292,18.897,18.255,19.105z"/>
			<path fill-rule="evenodd" clip-rule="evenodd" fill="#FEFEFE" d="M16.694,19.105c-0.038-0.21-0.07-0.393-0.104-0.577
				c-0.005-0.03-0.003-0.073-0.035-0.085c-0.046-0.017-0.061,0.03-0.082,0.058c-0.076,0.099-0.149,0.199-0.234,0.311
				c-0.038-0.131-0.074-0.241-0.101-0.355s-0.065-0.099-0.13-0.029c-0.088,0.096-0.183,0.186-0.292,0.271
				c0.077-0.276,0.154-0.552,0.242-0.864c0.034,0.079,0.055,0.126,0.073,0.175c0.027,0.076,0.062,0.086,0.122,0.027
				c0.099-0.101,0.202-0.196,0.32-0.311c0.02,0.189,0.037,0.355,0.055,0.521c0.003,0.031,0,0.073,0.034,0.085
				c0.038,0.014,0.054-0.029,0.072-0.053c0.056-0.07,0.108-0.142,0.18-0.236c0.062,0.212,0.117,0.403,0.172,0.595
				c0.007,0.03-0.016,0.054-0.03,0.077C16.874,18.834,16.793,18.957,16.694,19.105z"/>
			<path fill-rule="evenodd" clip-rule="evenodd" fill="#FEFEFE" d="M19.07,19.592c-0.089-0.144-0.162-0.265-0.237-0.383
				c-0.016-0.026-0.025-0.068-0.067-0.062c-0.039,0.006-0.039,0.047-0.049,0.077c-0.042,0.121-0.082,0.242-0.129,0.385
				c-0.093-0.145-0.175-0.27-0.256-0.396c-0.013-0.021-0.02-0.043-0.014-0.069c0.035-0.188,0.068-0.375,0.108-0.593
				c0.089,0.119,0.162,0.218,0.236,0.315c0.019,0.024,0.032,0.064,0.071,0.053c0.028-0.009,0.031-0.043,0.039-0.071
				c0.034-0.121,0.068-0.241,0.102-0.357c0.123,0.115,0.243,0.229,0.365,0.342c0.024,0.022,0.027,0.049,0.019,0.078
				C19.198,19.129,19.137,19.347,19.07,19.592z"/>
			<path fill-rule="evenodd" clip-rule="evenodd" fill="#FEFEFE" d="M16.072,18.488c0.034,0.114,0.067,0.23,0.102,0.347
				c0.01,0.033,0.005,0.08,0.051,0.087c0.037,0.005,0.05-0.037,0.068-0.062c0.07-0.094,0.14-0.189,0.228-0.31
				c0.041,0.222,0.079,0.418,0.112,0.615c0.007,0.042-0.032,0.073-0.054,0.107c-0.067,0.106-0.137,0.211-0.218,0.336
				c-0.048-0.145-0.09-0.268-0.131-0.393c-0.01-0.026-0.013-0.061-0.043-0.068c-0.041-0.009-0.052,0.032-0.068,0.059
				c-0.075,0.12-0.148,0.24-0.239,0.386c-0.069-0.247-0.129-0.469-0.19-0.689c-0.007-0.025-0.001-0.048,0.019-0.067
				C15.828,18.721,15.948,18.607,16.072,18.488z"/>
			<path fill-rule="evenodd" clip-rule="evenodd" fill="#FEFEFE" d="M18.78,19.254c0.09,0.147,0.17,0.279,0.25,0.41
				c0.015,0.026,0.013,0.055,0.004,0.083c-0.032,0.109-0.065,0.219-0.1,0.327c-0.008,0.026-0.013,0.058-0.048,0.065
				c-0.043,0.008-0.056-0.028-0.072-0.055c-0.04-0.066-0.078-0.134-0.118-0.2c-0.012-0.02-0.022-0.047-0.05-0.047
				c-0.037,0.001-0.04,0.035-0.049,0.061c-0.02,0.059-0.045,0.115-0.056,0.175c-0.015,0.091-0.072,0.107-0.152,0.121
				c-0.114,0.019-0.147-0.023-0.179-0.13c-0.078-0.267,0.039-0.505,0.077-0.789c0.085,0.134,0.157,0.245,0.23,0.355
				c0.021,0.032,0.031,0.087,0.079,0.083c0.058-0.005,0.05-0.066,0.064-0.105C18.702,19.499,18.737,19.386,18.78,19.254z"/>
			<path fill-rule="evenodd" clip-rule="evenodd" fill="#FEFEFD" d="M16.169,19.252c0.042,0.13,0.073,0.236,0.112,0.339
				c0.016,0.043,0.008,0.111,0.064,0.122c0.061,0.011,0.068-0.061,0.095-0.098c0.07-0.103,0.136-0.209,0.218-0.337
				c0.047,0.293,0.17,0.55,0.064,0.826c-0.015,0.038-0.003,0.102-0.072,0.091c-0.077-0.014-0.179,0.032-0.225-0.07
				c-0.032-0.071-0.05-0.146-0.074-0.221c-0.009-0.026-0.012-0.061-0.044-0.066c-0.035-0.006-0.045,0.029-0.06,0.052
				c-0.04,0.066-0.078,0.134-0.118,0.2c-0.014,0.024-0.027,0.053-0.062,0.051c-0.036-0.003-0.045-0.033-0.053-0.061
				c-0.035-0.112-0.068-0.226-0.103-0.339c-0.01-0.032-0.003-0.063,0.015-0.092C16.004,19.526,16.08,19.4,16.169,19.252z"/>
			<path fill-rule="evenodd" clip-rule="evenodd" fill="#FDFDFB" d="M16.669,20.545c-0.091-0.006-0.177-0.017-0.261-0.017
				c-0.141,0.002-0.263-0.005-0.277-0.192c-0.004-0.063-0.06-0.117-0.138-0.113c-0.085,0.005-0.156,0.049-0.178,0.128
				c-0.023,0.088-0.064,0.088-0.138,0.073c-0.224-0.044-0.447-0.087-0.667-0.147c-0.081-0.022-0.113-0.112-0.082-0.216
				c0.024-0.081,0.074-0.09,0.15-0.065c0.5,0.157,1.013,0.238,1.537,0.268c0.123,0.006,0.244,0.005,0.366-0.009
				c0.05-0.006,0.1-0.011,0.14,0.025c0.048,0.041,0.063,0.073,0.014,0.14C17.006,20.589,16.825,20.517,16.669,20.545z"/>
			<path fill-rule="evenodd" clip-rule="evenodd" fill="#FDFDFB" d="M20.025,20.158c0.02,0.077-0.027,0.106-0.109,0.127
				c-0.225,0.056-0.451,0.102-0.679,0.146c-0.06,0.012-0.078-0.003-0.094-0.056c-0.029-0.097-0.098-0.155-0.197-0.15
				c-0.105,0.005-0.143,0.093-0.151,0.18c-0.009,0.098-0.058,0.113-0.142,0.118c-0.228,0.013-0.455,0.029-0.683,0.003
				c-0.104-0.013-0.138-0.095-0.188-0.156c-0.035-0.044,0.068-0.125,0.16-0.116c0.146,0.012,0.293,0.015,0.439,0.006
				c0.498-0.03,0.986-0.109,1.464-0.255C19.99,19.96,20.03,19.993,20.025,20.158z"/>
			<path fill-rule="evenodd" clip-rule="evenodd" fill="#FEFDFC" d="M16.777,20.196c0.007-0.069,0.013-0.13,0.042-0.185
				c0.008,0.003,0.017,0.004,0.023,0.007c0.049,0.021,0.068,0.121,0.13,0.081c0.081-0.052,0.183-0.089,0.199-0.212
				c0.04-0.319,0.088-0.638,0.132-0.956c0.003-0.02,0.006-0.039,0.033-0.056c-0.017,0.271-0.022,0.543-0.051,0.813
				c-0.022,0.187,0.005,0.346,0.148,0.475c0.018,0.018,0.037,0.062,0.063,0.022c0.071-0.104,0.19-0.176,0.176-0.332
				c-0.027-0.329-0.04-0.659-0.037-0.99c0.036,0.252,0.072,0.504,0.107,0.757c0.01,0.063,0.029,0.129,0.025,0.192
				c-0.011,0.151,0.101,0.21,0.195,0.284c0.029,0.021,0.049,0.015,0.074-0.009c0.028-0.027,0.05-0.065,0.091-0.077
				c0.005,0.008,0.011,0.015,0.013,0.021c0.054,0.168,0.043,0.182-0.127,0.161c-0.199-0.024-0.35,0.06-0.467,0.211
				c-0.048,0.061-0.094,0.062-0.136,0.009c-0.128-0.164-0.286-0.25-0.498-0.218C16.869,20.201,16.823,20.196,16.777,20.196z"/>
			<path fill-rule="evenodd" clip-rule="evenodd" fill="#FEFDFD" d="M19.195,18.222c-0.11-0.273-0.192-0.548-0.198-0.845
				c-0.006-0.399-0.031-0.797-0.043-1.196c-0.005-0.16,0.074-0.308,0.122-0.466C19.115,16.551,19.155,17.387,19.195,18.222z"/>
			<path fill-rule="evenodd" clip-rule="evenodd" fill="#FEFDFC" d="M15.902,15.719c0.015,0.17,0.105,0.326,0.091,0.501
				c-0.058,0.668,0.039,1.354-0.238,1.999c0.039-0.834,0.079-1.667,0.118-2.501C15.883,15.718,15.893,15.719,15.902,15.719z"/>
			<path fill-rule="evenodd" clip-rule="evenodd" fill="#FEFEFD" d="M18.695,16.784c0.086,0.305,0.171,0.601,0.25,0.898
				c0.028,0.104-0.054,0.182-0.085,0.271c-0.012,0.035-0.04,0.002-0.057-0.013c-0.094-0.09-0.188-0.181-0.282-0.271
				c-0.018-0.018-0.031-0.036-0.034-0.063C18.465,17.398,18.571,16.967,18.695,16.784z"/>
			<path fill-rule="evenodd" clip-rule="evenodd" fill="#FEFEFD" d="M16.254,16.789c0.206,0.248,0.162,0.546,0.205,0.822
				c0.005,0.03-0.023,0.05-0.042,0.07c-0.088,0.085-0.177,0.168-0.264,0.254c-0.039,0.038-0.055,0.042-0.083-0.015
				c-0.06-0.121-0.081-0.235-0.037-0.371C16.115,17.3,16.18,17.046,16.254,16.789z"/>
			<path fill-rule="evenodd" clip-rule="evenodd" fill="#FEFEFD" d="M15.649,19.02c0.053,0.195,0.106,0.391,0.161,0.585
				c0.014,0.048-0.001,0.087-0.029,0.125c-0.066,0.088-0.129,0.178-0.192,0.268c-0.025,0.038-0.05,0.051-0.1,0.041
				c-0.102-0.02-0.152-0.041-0.109-0.169c0.094-0.28,0.164-0.567,0.243-0.853C15.632,19.019,15.641,19.02,15.649,19.02z"/>
			<path fill-rule="evenodd" clip-rule="evenodd" fill="#FEFDFD" d="M19.326,19.017c0.087,0.311,0.174,0.621,0.262,0.932
				c0.008,0.032,0.012,0.057-0.028,0.062c-0.061,0.006-0.126,0.074-0.179,0.009c-0.086-0.103-0.159-0.216-0.235-0.326
				c-0.011-0.015-0.015-0.04-0.011-0.059c0.055-0.206,0.11-0.412,0.165-0.618C19.309,19.017,19.317,19.017,19.326,19.017z"/>
			<path fill-rule="evenodd" clip-rule="evenodd" fill="#FEFEFD" d="M18.353,18.21c-0.116-0.152-0.216-0.283-0.315-0.414
				c-0.016-0.02-0.033-0.04-0.012-0.064c0.061-0.07,0.123-0.14,0.184-0.21c0.017-0.019,0.036-0.019,0.053-0.001
				c0.07,0.072,0.17,0.123,0.144,0.257C18.379,17.912,18.371,18.048,18.353,18.21z"/>
			<path fill-rule="evenodd" clip-rule="evenodd" fill="#FEFDFD" d="M16.595,18.21c-0.02-0.181-0.037-0.333-0.051-0.486
				c-0.004-0.051,0.115-0.206,0.159-0.214c0.031-0.006,0.041,0.021,0.058,0.037c0.195,0.195,0.195,0.195,0.028,0.413
				C16.728,18.037,16.669,18.113,16.595,18.21z"/>
			<path fill-rule="evenodd" clip-rule="evenodd" fill="#FDFDFB" d="M17.888,18.555c-0.039-0.174-0.08-0.346-0.118-0.52
				c-0.007-0.035,0.143-0.213,0.177-0.216c0.041-0.004,0.134,0.146,0.12,0.199c-0.049,0.179-0.103,0.357-0.153,0.536
				C17.905,18.555,17.896,18.555,17.888,18.555z"/>
			<path fill-rule="evenodd" clip-rule="evenodd" fill="#FDFDFB" d="M17.043,18.581c-0.06-0.205-0.116-0.388-0.164-0.571
				c-0.021-0.085,0.054-0.136,0.105-0.176c0.04-0.032,0.065,0.042,0.101,0.064c0.091,0.059,0.106,0.138,0.073,0.24
				C17.113,18.275,17.106,18.422,17.043,18.581z"/>
			<path fill-rule="evenodd" clip-rule="evenodd" fill="#FDFCFA" d="M16.827,19.633c-0.196-0.345-0.05-0.604,0.188-0.856
				C16.95,19.069,16.89,19.346,16.827,19.633z"/>
			<path fill-rule="evenodd" clip-rule="evenodd" fill="#FDFCFA" d="M17.961,18.786c0.084,0.129,0.169,0.258,0.254,0.386
				c0.018,0.026,0.02,0.053,0.013,0.082c-0.027,0.122-0.053,0.245-0.105,0.371c-0.062-0.276-0.124-0.552-0.185-0.828
				C17.945,18.792,17.953,18.79,17.961,18.786z"/>
			<path fill-rule="evenodd" clip-rule="evenodd" fill="#FDFCF8" d="M18.984,20.66c-0.091-0.07-0.169-0.143-0.117-0.273
				c0.017-0.041,0.031-0.087,0.084-0.09c0.06-0.004,0.098,0.032,0.122,0.084C19.126,20.499,19.059,20.579,18.984,20.66z"/>
			<path fill-rule="evenodd" clip-rule="evenodd" fill="#FDFCF9" d="M15.966,20.661c-0.123-0.146-0.139-0.26-0.051-0.334
				c0.045-0.037,0.093-0.052,0.138,0.001C16.136,20.424,16.108,20.531,15.966,20.661z"/>
			<path fill-rule="evenodd" clip-rule="evenodd" fill="#FCFBF7" d="M15.846,19.756c0.039,0.132,0.073,0.243,0.106,0.354
				c-0.011,0.005-0.019,0.013-0.024,0.011c-0.094-0.024-0.266-0.005-0.27-0.069C15.651,19.952,15.771,19.863,15.846,19.756z"/>
			<path fill-rule="evenodd" clip-rule="evenodd" fill="#FCFBF6" d="M18.992,20.129c0.038-0.129,0.072-0.24,0.111-0.372
				c0.068,0.095,0.128,0.179,0.188,0.261c0.029,0.04,0.017,0.055-0.028,0.063C19.18,20.093,19.097,20.111,18.992,20.129z"/>
			<path fill-rule="evenodd" clip-rule="evenodd" fill="#FDFCF9" d="M17.631,20.715c-0.042-0.105-0.063-0.208-0.008-0.312
				c0.019-0.036,0.041-0.076,0.089-0.007C17.84,20.58,17.846,20.576,17.631,20.715z"/>
			<path fill-rule="evenodd" clip-rule="evenodd" fill="#FDFCF9" d="M17.257,20.342c0.117,0.101,0.13,0.204,0.053,0.376
				c-0.062-0.058-0.167-0.08-0.18-0.165C17.116,20.463,17.253,20.444,17.257,20.342z"/>
			<path fill-rule="evenodd" clip-rule="evenodd" fill="#FCFBF8" d="M20.308,20.341c-0.221-0.073-0.221-0.073-0.206-0.305
				C20.262,20.064,20.331,20.167,20.308,20.341z"/>
			<path fill-rule="evenodd" clip-rule="evenodd" fill="#FCFBF8" d="M14.845,20.037c0.02,0.23,0.02,0.23-0.203,0.304
				C14.616,20.169,14.686,20.065,14.845,20.037z"/>
			<path fill-rule="evenodd" clip-rule="evenodd" fill="#FBFAF4" d="M18.452,17.198c0.01,0.131-0.02,0.239-0.028,0.354
				C18.232,17.423,18.252,17.469,18.452,17.198z"/>
			<path fill-rule="evenodd" clip-rule="evenodd" fill="#FBF9F3" d="M16.528,17.565c-0.012-0.086-0.021-0.156-0.03-0.228
				c-0.003-0.036-0.003-0.072-0.006-0.111C16.677,17.362,16.688,17.436,16.528,17.565z"/>
			<path fill-rule="evenodd" clip-rule="evenodd" fill="#F8F3E5" d="M18.584,20.167c0.021-0.066,0.042-0.131,0.071-0.221
				c0.046,0.079,0.079,0.137,0.116,0.199C18.706,20.167,18.65,20.182,18.584,20.167z"/>
			<path fill-rule="evenodd" clip-rule="evenodd" fill="#F7F3E3" d="M16.364,20.169c-0.072,0.011-0.125-0.007-0.188-0.021
				c0.038-0.065,0.071-0.124,0.11-0.189C16.333,20.027,16.345,20.097,16.364,20.169z"/>
			<path fill-rule="evenodd" clip-rule="evenodd" fill="#FBF8F0" d="M17.473,11.846c0.001,0.044-0.024,0.065-0.058,0.068
				c-0.035,0.002-0.063-0.016-0.064-0.056s0.02-0.062,0.057-0.063C17.443,11.793,17.466,11.815,17.473,11.846z"/>
			<path fill-rule="evenodd" clip-rule="evenodd" fill="#C09302" d="M18.78,21.473c0.006-0.033,0.027-0.037,0.045-0.044
				c0.035-0.013,0.08-0.021,0.067-0.069c-0.012-0.05-0.053-0.015-0.083-0.015c-0.048,0-0.061-0.027-0.063-0.07
				c-0.003-0.104,0.064-0.155,0.146-0.188c0.061-0.023,0.061,0.035,0.072,0.072c0.009,0.028,0.019,0.058,0.053,0.056
				c0.032-0.003,0.028-0.036,0.035-0.058c0.012-0.044,0.023-0.087,0.06-0.118c0.039-0.032,0.071-0.059,0.029-0.12
				c-0.027-0.039,0.012-0.083,0.051-0.094c0.045-0.012,0.047,0.036,0.05,0.064c0.007,0.07,0.068,0.076,0.109,0.111
				c0.094,0.085,0.167,0.184,0.277,0.016c0.023-0.037,0.081,0.004,0.118,0.031c0.022,0.017,0.045,0.037,0.077,0.018
				c0.036-0.022,0.01-0.049,0.003-0.075c-0.016-0.071-0.03-0.143-0.047-0.214c-0.018-0.079-0.047-0.145-0.148-0.093
				c-0.05,0.026-0.08-0.002-0.094-0.044c-0.015-0.047,0.029-0.048,0.06-0.057c0.15-0.045,0.244,0.014,0.272,0.169
				c0.01,0.057,0.016,0.112,0.03,0.167c0.022,0.08,0.064,0.126,0.151,0.071c0.049-0.031,0.093-0.015,0.111,0.03
				c0.024,0.064-0.042,0.054-0.074,0.066c-0.123,0.048-0.247,0.091-0.367,0.143c-0.112,0.049-0.247,0.03-0.328,0.165
				c-0.02,0.032-0.088-0.012-0.125-0.047c-0.089-0.089-0.223-0.071-0.286,0.037C18.936,21.465,18.87,21.491,18.78,21.473z"/>
			<path fill-rule="evenodd" clip-rule="evenodd" fill="#C09403" d="M16.556,21.531c0.013-0.036,0.036-0.027,0.054-0.031
				c0.136-0.025,0.182-0.104,0.115-0.225c-0.035-0.063-0.017-0.108,0.032-0.13c0.059-0.026,0.052,0.044,0.072,0.073
				c0.021,0.031,0.02,0.094,0.073,0.08c0.058-0.016,0.039-0.075,0.032-0.115c-0.01-0.047-0.024-0.09,0.028-0.115
				c0.067-0.034,0.066,0.028,0.086,0.064c0.019,0.034,0.056,0.029,0.087,0.032c0.065,0.006,0.13,0.011,0.195,0.012
				c0.104,0.001,0.213-0.012,0.195,0.185c0.067-0.104,0.107-0.177,0.199-0.198c0.061-0.013,0.095-0.009,0.094,0.063
				c0,0.028,0.007,0.057,0.012,0.085c0.02,0.083-0.006,0.12-0.098,0.117c-0.095-0.004-0.195-0.028-0.258,0.095
				c-0.035,0.067-0.128,0.064-0.168-0.016c-0.036-0.073-0.088-0.084-0.157-0.084c-0.061,0-0.122-0.011-0.183-0.018
				c-0.064-0.008-0.114,0-0.155,0.064C16.75,21.567,16.656,21.564,16.556,21.531z"/>
			<path fill-rule="evenodd" clip-rule="evenodd" fill="#C09403" d="M16.481,20.757c-0.024,0.225-0.038,0.419-0.082,0.609
				c-0.016,0.063-0.055,0.103-0.117,0.106c-0.068,0.005-0.097-0.038-0.11-0.104c-0.012-0.063-0.14-0.111-0.204-0.095
				c-0.038,0.009-0.081-0.001-0.121-0.004c-0.049-0.003-0.097-0.01-0.134,0.035c-0.06,0.07-0.134,0.06-0.239,0.032
				c0.068-0.029,0.122-0.038,0.156-0.068c0.043-0.038,0.06-0.096,0.036-0.156c-0.021-0.051-0.015-0.114,0.035-0.124
				c0.059-0.013,0.055,0.057,0.059,0.098c0.005,0.063,0.03,0.099,0.096,0.101c0.038,0.002,0.081,0.004,0.094-0.037
				c0.012-0.037-0.03-0.042-0.055-0.053c-0.057-0.025-0.051-0.067-0.008-0.091c0.062-0.032,0.117-0.068,0.164-0.119
				c0.017-0.017,0.05-0.033,0.066-0.011c0.054,0.077,0.105,0.158,0.151,0.24c0.012,0.018-0.014,0.035-0.035,0.038
				c-0.152,0.02-0.089,0.053-0.007,0.089c0.007,0.004,0.012,0.01,0.019,0.016c0.023,0.028-0.011,0.104,0.049,0.093
				c0.057-0.011,0.04-0.084,0.045-0.126c0.008-0.123,0.06-0.243,0.024-0.373C16.35,20.799,16.423,20.805,16.481,20.757z"/>
			<path fill-rule="evenodd" clip-rule="evenodd" fill="#C09404" d="M15.329,20.805c0.009,0.065-0.018,0.108-0.026,0.155
				c-0.005,0.033-0.033,0.074,0.008,0.1c0.038,0.023,0.085,0.039,0.128,0.019c0.04-0.019,0.034-0.061,0.026-0.097
				c-0.022-0.105,0.08-0.063,0.119-0.125c0.01,0.121-0.033,0.207-0.054,0.296c-0.01,0.044-0.05,0.042-0.09,0.034
				c-0.189-0.037-0.372-0.091-0.556-0.145c-0.034-0.01-0.066-0.022-0.056-0.064c0.013-0.059,0.042-0.117,0.103-0.124
				c0.102-0.014,0.128-0.078,0.147-0.164c0.015-0.064,0.034-0.116-0.063-0.066c-0.029,0.015-0.054,0.02-0.077-0.006
				c-0.006-0.008-0.012-0.025-0.009-0.033c0.017-0.028,0.044-0.032,0.074-0.024c0.02,0.005,0.041,0.008,0.061,0.005
				c0.141-0.02,0.14-0.021,0.092,0.127c-0.026,0.076-0.046,0.156-0.073,0.232c-0.018,0.052-0.012,0.09,0.049,0.099
				c0.06,0.009,0.094-0.035,0.083-0.079C15.192,20.846,15.251,20.831,15.329,20.805z"/>
			<path fill-rule="evenodd" clip-rule="evenodd" fill="#C19505" d="M18.439,21.326c0.013,0.043-0.028,0.067-0.098,0.071
				c-0.082,0.005-0.163,0.013-0.244,0.018c-0.046,0.004-0.108,0.04-0.131-0.015c-0.024-0.054-0.022-0.137,0.033-0.169
				c0.14-0.082,0.107-0.187,0.058-0.297c-0.027-0.059,0.021-0.076,0.052-0.09c0.05-0.021,0.048,0.025,0.051,0.057
				c0.01,0.101,0.019,0.202,0.028,0.304c0.004,0.04-0.001,0.087,0.047,0.104c0.031,0.012,0.071,0.007,0.09-0.018
				c0.024-0.034,0.019-0.078-0.01-0.114c-0.015-0.019-0.037-0.036-0.006-0.059c0.023-0.016,0.043-0.041,0.075-0.033
				c0.033,0.008,0.023,0.038,0.027,0.061C18.418,21.194,18.425,21.242,18.439,21.326z"/>
			<path fill-rule="evenodd" clip-rule="evenodd" fill="#C19609" d="M16.563,20.79c0.078,0.049,0.106,0.083,0.066,0.176
				c-0.042,0.092-0.027,0.207-0.041,0.312c-0.005,0.037,0,0.096-0.054,0.094c-0.061-0.003-0.043-0.059-0.038-0.096
				C16.518,21.116,16.54,20.956,16.563,20.79z"/>
			<path fill-rule="evenodd" clip-rule="evenodd" fill="#C19608" d="M18.459,21.515c0.006-0.048,0.048-0.048,0.069-0.07
				c0.063-0.064,0.084-0.138,0.01-0.199c-0.063-0.052-0.027-0.089-0.004-0.134c0.009-0.019,0.031-0.038,0.047-0.019
				c0.064,0.08,0.111,0.169,0.1,0.277c-0.01,0.092-0.077,0.127-0.154,0.148C18.507,21.525,18.481,21.517,18.459,21.515z"/>
			<path fill-rule="evenodd" clip-rule="evenodd" fill="#C69F1D" d="M18.131,21.46c0.037,0.022,0.068,0.011,0.104-0.003
				c0.037-0.016,0.064,0.008,0.063,0.047c0,0.032-0.027,0.056-0.058,0.042c-0.04-0.019-0.072-0.016-0.112,0.001
				c-0.032,0.015-0.068,0.001-0.065-0.043C18.066,21.465,18.094,21.453,18.131,21.46z"/>
			<path fill-rule="evenodd" clip-rule="evenodd" fill="#C69F1D" d="M20.041,21.209c-0.005,0.034-0.027,0.047-0.059,0.047
				c-0.03,0-0.06-0.006-0.057-0.045c0.004-0.032,0.032-0.047,0.059-0.052C20.019,21.154,20.033,21.179,20.041,21.209z"/>
			<path fill-rule="evenodd" clip-rule="evenodd" fill="#CAA42A" d="M18.002,20.938c-0.004,0.026-0.018,0.045-0.045,0.047
				c-0.033,0.003-0.055-0.012-0.056-0.045c0-0.025,0.017-0.047,0.043-0.049C17.976,20.888,17.994,20.908,18.002,20.938z"/>
			<path fill-rule="evenodd" clip-rule="evenodd" fill="#C3980E" d="M18.013,21.073c-0.004,0.029-0.024,0.042-0.051,0.043
				c-0.035,0.001-0.052-0.02-0.047-0.054c0.005-0.029,0.026-0.04,0.052-0.036S18.014,21.042,18.013,21.073z"/>
			<path fill-rule="evenodd" clip-rule="evenodd" fill="#C49A12" d="M15,20.714c-0.004,0.036-0.023,0.048-0.049,0.051
				c-0.028,0.002-0.049-0.009-0.049-0.039c0.001-0.032,0.014-0.057,0.051-0.053C14.979,20.677,14.994,20.697,15,20.714z"/>
			<path fill-rule="evenodd" clip-rule="evenodd" fill="#C8A122" d="M14.961,21.206c-0.027-0.001-0.048-0.014-0.05-0.041
				c-0.001-0.026,0.02-0.046,0.045-0.049c0.028-0.004,0.045,0.016,0.049,0.042C15.009,21.187,14.989,21.201,14.961,21.206z"/>
			<path fill-rule="evenodd" clip-rule="evenodd" fill="#C7A021" d="M15.148,21.195c0,0.03-0.02,0.043-0.046,0.043
				c-0.026-0.002-0.047-0.016-0.046-0.045c0.002-0.022,0.019-0.035,0.041-0.036C15.124,21.155,15.144,21.165,15.148,21.195z"/>
			<path fill-rule="evenodd" clip-rule="evenodd" fill="#C2970C" d="M15.38,21.272c-0.008,0.027-0.028,0.038-0.054,0.035
				c-0.027-0.003-0.046-0.018-0.042-0.046c0.004-0.027,0.026-0.038,0.052-0.035C15.363,21.23,15.378,21.245,15.38,21.272z"/>
			<path fill-rule="evenodd" clip-rule="evenodd" fill="#BF9200" d="M18.975,15.166c-0.09,1.129-0.548,2.072-1.418,2.809
				c-0.061,0.052-0.098,0.059-0.163,0.003c-0.903-0.77-1.371-1.748-1.423-2.931c-0.003-0.065,0-0.093,0.086-0.099
				c0.483-0.036,0.947-0.15,1.37-0.396c0.038-0.022,0.064-0.033,0.107-0.004c0.377,0.251,0.804,0.344,1.245,0.394
				C18.981,14.963,18.982,14.958,18.975,15.166z"/>
			<path fill-rule="evenodd" clip-rule="evenodd" fill="#C9A327" d="M16.553,20.401c-0.115,0.025-0.211,0.013-0.308,0.013
				c-0.013,0-0.032-0.01-0.038-0.021c-0.009-0.016,0.008-0.027,0.021-0.037C16.305,20.302,16.464,20.32,16.553,20.401z"/>
			<path fill-rule="evenodd" clip-rule="evenodd" fill="#C59C17" d="M14.995,20.086c0.114-0.035,0.206,0.006,0.289,0.08
				C15.174,20.192,15.089,20.124,14.995,20.086z"/>
			<path fill-rule="evenodd" clip-rule="evenodd" fill="#C79F1D" d="M15.426,20.214c0.123-0.02,0.231,0.015,0.33,0.093
				C15.639,20.304,15.53,20.275,15.426,20.214z"/>
			<path fill-rule="evenodd" clip-rule="evenodd" fill="#C69F1D" d="M17.005,20.386c-0.106,0.038-0.213,0.064-0.327,0.044
				C16.774,20.343,16.893,20.376,17.005,20.386z"/>
			<path fill-rule="evenodd" clip-rule="evenodd" fill="#C9A327" d="M18.748,20.391c-0.101,0.033-0.204,0.024-0.307,0.021
				c-0.015,0-0.034-0.01-0.028-0.029c0.004-0.013,0.019-0.027,0.032-0.032C18.551,20.306,18.653,20.318,18.748,20.391z"/>
			<path fill-rule="evenodd" clip-rule="evenodd" fill="#C69F1D" d="M18.265,20.452c-0.108-0.014-0.218-0.027-0.349-0.044
				C18.031,20.343,18.189,20.36,18.265,20.452z"/>
			<path fill-rule="evenodd" clip-rule="evenodd" fill="#C69F1D" d="M19.193,20.307c0.096-0.079,0.207-0.109,0.331-0.095
				C19.425,20.279,19.312,20.302,19.193,20.307z"/>
			<path fill-rule="evenodd" clip-rule="evenodd" fill="#C59C18" d="M19.953,20.078c-0.084,0.063-0.18,0.094-0.283,0.098
				C19.745,20.083,19.844,20.063,19.953,20.078z"/>
			<path fill-rule="evenodd" clip-rule="evenodd" fill="#F4ECD4" d="M19.371,21.137c0.002,0.023-0.014,0.036-0.034,0.039
				c-0.027,0.004-0.043-0.016-0.049-0.04c-0.004-0.019-0.005-0.043,0.021-0.045C19.339,21.088,19.358,21.109,19.371,21.137z"/>
			<path fill-rule="evenodd" clip-rule="evenodd" fill="#F0E6C5" d="M19.177,21.113c0.02,0.007,0.033,0.021,0.035,0.042
				c0.001,0.021-0.004,0.041-0.029,0.044c-0.029,0.002-0.043-0.015-0.041-0.043C19.143,21.133,19.158,21.121,19.177,21.113z"/>
			<path fill-rule="evenodd" clip-rule="evenodd" fill="#FAF8EF" d="M17.396,21.47c-0.039-0.185-0.172-0.132-0.279-0.142
				c-0.03-0.003-0.078,0.005-0.076-0.037c0.001-0.037,0.046-0.036,0.081-0.034c0.061,0.002,0.121,0.004,0.182,0.011
				C17.442,21.283,17.448,21.294,17.396,21.47z"/>
			<path fill-rule="evenodd" clip-rule="evenodd" fill="#FAF8EF" d="M16.116,21.067c-0.002,0.026-0.025,0.025-0.042,0.022
				c-0.021-0.002-0.054,0.001-0.048-0.034c0.003-0.022,0.025-0.043,0.05-0.043C16.107,21.012,16.101,21.047,16.116,21.067z"/>
			<path fill-rule="evenodd" clip-rule="evenodd" fill="#FEFEFE" d="M18.018,16.15c-0.001,0.396-0.002,0.792,0.001,1.188
				c0,0.079-0.022,0.138-0.075,0.195c-0.128,0.139-0.265,0.266-0.405,0.392c-0.05,0.046-0.084,0.042-0.133-0.002
				c-0.16-0.14-0.312-0.287-0.451-0.446c-0.044-0.05-0.06-0.103-0.06-0.167c0.001-0.791,0.002-1.583-0.001-2.374
				c0-0.075,0.024-0.104,0.094-0.129c0.154-0.052,0.309-0.108,0.445-0.198c0.034-0.022,0.059-0.027,0.096-0.001
				c0.124,0.088,0.262,0.15,0.406,0.195c0.067,0.022,0.084,0.057,0.084,0.124C18.015,15.333,18.018,15.742,18.018,16.15z"/>
		</g>
	</g>
	<g>
		<defs>
			<circle id="SVGID_93_" cx="52.783" cy="16.595" r="15.917"/>
		</defs>
		<clipPath id="SVGID_6_">
			<use xlink:href="#SVGID_93_"  overflow="visible"/>
		</clipPath>
		<g clip-path="url(#SVGID_6_)">
			<path fill-rule="evenodd" clip-rule="evenodd" fill="#FCDB00" d="M28.325,16.583c0-5.462,0-10.924-0.002-16.387
				c0-0.088,0.012-0.116,0.111-0.116c16.444,0.002,32.889,0.002,49.332,0c0.099,0,0.111,0.028,0.111,0.116
				c-0.002,5.462-0.002,10.924-0.002,16.387c-0.031,0.033-0.072,0.036-0.114,0.036c-0.053,0.001-0.107,0.001-0.161,0.001
				c-6.224,0-12.447,0-18.671,0c-0.033,0-0.066,0.002-0.099-0.001c-0.077-0.008-0.174,0.032-0.21-0.079
				c-0.037-0.113,0.003-0.219,0.089-0.296c0.054-0.047,0.156-0.036,0.166-0.132c0.009-0.094-0.029-0.177-0.07-0.259
				c-0.031-0.063,0.009-0.137-0.027-0.2c-0.012-0.479-0.101-0.954-0.083-1.435c0.004-0.11-0.047-0.217-0.03-0.329
				c0.092-0.121,0.208-0.219,0.322-0.319c0.141-0.009,0.227,0.124,0.183,0.277c-0.011,0.041-0.067,0.086-0.03,0.12
				c0.044,0.039,0.109,0.013,0.164-0.008c0.123-0.046,0.202-0.134,0.246-0.256c0.011-0.054,0.073-0.111-0.008-0.16
				c-0.138,0.051-0.269,0.063-0.37-0.072c-0.014-0.044-0.022-0.088-0.019-0.135c0.054-0.111,0.164-0.117,0.263-0.13
				c0.097-0.013,0.151-0.054,0.182-0.15c0.053-0.16,0.118-0.315,0.205-0.46c0.021-0.039,0.045-0.075,0.069-0.097
				c-0.029,0.032-0.083,0.046-0.122,0.085c-0.138,0.084-0.284,0.152-0.437,0.203c-0.084,0.028-0.128,0.078-0.147,0.164
				c-0.021,0.091-0.033,0.189-0.114,0.254c-0.068,0.039-0.123-0.003-0.181-0.03c-0.047-0.02-0.082-0.066-0.152-0.064
				c0.001,0.097,0.097,0.146,0.111,0.231c0.006,0.04-0.007,0.075-0.023,0.11c-0.025,0.056-0.06,0.1-0.129,0.102
				c-0.058-0.011-0.069-0.064-0.092-0.105c-0.037-0.066-0.089-0.107-0.168-0.095c-0.077,0.012-0.087,0.074-0.094,0.137
				c-0.004,0.033-0.008,0.065-0.024,0.094c-0.099,0.106-0.099,0.114-0.002,0.224c0.021,0.024,0.046,0.044,0.061,0.074
				c0.023,0.057-0.011,0.095-0.046,0.13c-0.13,0.132-0.261,0.264-0.394,0.393c-0.026,0.026-0.055,0.06-0.095,0.048
				c-0.049-0.014-0.026-0.063-0.027-0.096c-0.003-0.09-0.001-0.181,0-0.272c0-0.04-0.005-0.074,0.046-0.1
				c0.057-0.03,0.027-0.097,0.022-0.146c-0.004-0.035-0.014-0.061,0.023-0.084c0.122-0.072,0.136-0.111,0.093-0.244
				c-0.005-0.016-0.016-0.029-0.027-0.042c-0.019-0.026-0.033-0.054-0.039-0.086c0.009-0.065,0.037-0.131-0.003-0.196
				c-0.053-0.099-0.03-0.21-0.047-0.315c-0.019-0.112-0.031-0.229-0.031-0.343c0-0.227-0.013-0.452-0.059-0.674
				c0.005-0.058,0.034-0.096,0.092-0.11c0.139,0.01,0.277,0.058,0.418,0.011c0.008-0.002,0.017-0.006,0.024-0.004
				c0.015,0.005,0.02-0.007,0.004-0.002c-0.048,0.014-0.097,0.011-0.146,0.018c-0.076-0.002-0.138-0.035-0.186-0.093
				c-0.014-0.022-0.023-0.046-0.02-0.074c0.019-0.071,0.081-0.096,0.14-0.104c0.098-0.014,0.14-0.071,0.162-0.159
				c0.016-0.064,0.043-0.125,0.074-0.184c0.021-0.034,0.044-0.067,0.059-0.103c-0.023,0.025-0.056,0.042-0.083,0.067
				c-0.017,0.012-0.033,0.024-0.052,0.031c-0.156,0.054-0.287,0.131-0.31,0.316c-0.002,0.019-0.021,0.034-0.037,0.046
				c-0.017,0.009-0.035,0.012-0.054,0.008c-0.09-0.041-0.102-0.126-0.117-0.209c-0.001-0.019,0.007-0.038-0.003-0.055
				c-0.007,0.037-0.015,0.072-0.027,0.106c-0.022,0.039-0.042,0.076-0.098,0.082c-0.194,0.021-0.194,0.022-0.245,0.203
				c-0.067,0.114,0.036,0.169,0.098,0.2c0.144,0.073,0.169,0.187,0.165,0.327c-0.007,0.335-0.034,0.673,0.063,1.002
				c0.005,0.122-0.022,0.246,0.019,0.367c0.007,0.01,0.012,0.02,0.018,0.03c0.106,0.074,0.167,0.244,0.136,0.374
				c-0.006,0.029-0.018,0.044-0.048,0.045c-0.029,0.001-0.048-0.009-0.05-0.04c-0.002-0.024,0-0.049-0.001-0.074
				c-0.002,0.032,0.015,0.073-0.009,0.094c-0.046,0.041-0.063,0.009-0.064-0.039c-0.001-0.014-0.001-0.014-0.001,0.002
				c0,0.04-0.017,0.071-0.059,0.046c-0.048-0.029-0.021-0.082-0.023-0.11c-0.018,0.071-0.009,0.133,0.103,0.119
				c0.07-0.009,0.08,0.03,0.08,0.089c0.001,0.127-0.012,0.255,0.007,0.382c0.007,0.048-0.02,0.078-0.048,0.108
				c-0.098,0.105-0.206,0.202-0.308,0.304c-0.037,0.037-0.078,0.064-0.129,0.019c-0.035-0.152-0.028-0.309-0.063-0.461
				c-0.035-0.408-0.115-0.808-0.216-1.204c-0.007-0.028-0.01-0.057-0.014-0.085c-0.01-0.153-0.05-0.3-0.1-0.444
				c-0.034-0.104-0.028-0.182,0.066-0.246c0.03-0.021,0.054-0.051,0.079-0.078c-0.153,0.151-0.166,0.225-0.258-0.042
				c0.018,0.037,0.033,0.084,0.048,0.131c0.033,0.104-0.02,0.219-0.123,0.26c-0.081,0.032-0.115-0.026-0.143-0.083
				c-0.072-0.148-0.133-0.301-0.188-0.42c0.054,0.121,0.123,0.271,0.186,0.423c0.03,0.073,0.056,0.147,0.029,0.228
				c-0.008,0.017-0.02,0.031-0.035,0.041c-0.09,0.039-0.116-0.03-0.143-0.09c-0.087-0.19-0.169-0.381-0.272-0.564
				c0.108,0.192,0.199,0.392,0.283,0.594c0.057,0.136,0.018,0.211-0.115,0.252c-0.049-0.014-0.066-0.053-0.081-0.096
				c-0.146-0.308-0.313-0.604-0.438-0.841c0.141,0.254,0.311,0.574,0.456,0.906c0.009,0.023,0.017,0.047,0.018,0.073
				c-0.013,0.063-0.043,0.092-0.107,0.057c-0.066-0.065-0.093-0.154-0.137-0.233c-0.189-0.338-0.402-0.66-0.575-0.896
				c0.208,0.344,0.463,0.769,0.647,1.233c0.003,0.082-0.044,0.135-0.116,0.156c-0.071,0.021-0.111-0.041-0.149-0.089
				c-0.144-0.185-0.26-0.39-0.39-0.565c0.152,0.214,0.306,0.446,0.425,0.7c0.004,0.011,0.007,0.022,0.008,0.034
				c0,0.053-0.028,0.101-0.075,0.111c-0.059,0.014-0.043,0.057-0.056,0.09c-0.055,0.074-0.102,0.162-0.216,0.15
				c-0.109-0.118-0.173-0.267-0.268-0.395c-0.23-0.309-0.512-0.563-0.815-0.796c-0.053-0.041-0.1-0.09-0.169-0.105
				c-0.021-0.008-0.042-0.019-0.06-0.034c-0.047-0.048-0.108-0.071-0.166-0.099c-0.075-0.036-0.139-0.082-0.185-0.152
				c-0.065-0.119-0.213-0.139-0.293-0.241c-0.021-0.046-0.012-0.097-0.027-0.145c-0.021-0.07-0.009-0.132,0.07-0.16
				c0.042-0.015,0.073-0.048,0.085-0.085c0.06-0.185,0.192-0.335,0.239-0.526c0.031-0.126,0.049-0.129,0.155-0.058
				c0.096,0.064,0.121,0.055,0.147-0.059c0.032-0.133,0.046-0.139,0.159-0.061c0.021,0.014,0.04,0.029,0.062,0.041
				c0.056,0.031,0.086,0.024,0.103-0.048c0.033-0.147,0.043-0.149,0.176-0.072c0.124,0.071,0.141,0.066,0.166-0.063
				c0.011-0.054,0.039-0.079,0.092-0.08c0.037,0,0.074,0.001,0.111,0.002c0.073,0,0.104-0.023,0.09-0.105
				c-0.024-0.134-0.006-0.147,0.124-0.116c0.021,0.005,0.04,0.012,0.06,0.015c0.138,0.026,0.159,0.003,0.121-0.129
				c-0.026-0.09-0.002-0.117,0.087-0.1c0.045,0.009,0.087,0.028,0.132,0.035c0.106,0.016,0.121,0.002,0.116-0.108
				c-0.003-0.079,0.029-0.101,0.111-0.067c0.076,0.032,0.144,0.081,0.227,0.097c0.116,0.023,0.137,0.006,0.114-0.104
				c-0.014-0.07,0.019-0.091,0.079-0.09c0.054,0.001,0.105,0.02,0.158,0.031c0.067,0.015,0.134,0.042,0.191-0.032
				c0.028-0.035,0.077-0.021,0.117-0.013c0.065,0.013,0.129,0.026,0.196,0.031c0.081,0.006,0.167,0.018,0.195-0.096
				c0.013-0.051,0.062-0.049,0.104-0.042c0.053,0.007,0.104,0.029,0.155,0.042c0.101,0.026,0.199,0.063,0.268-0.065
				c0.026-0.05,0.089-0.03,0.137-0.02c0.092,0.02,0.183,0.048,0.274,0.05c0.017-0.023,0.001-0.035-0.006-0.048
				c-0.014-0.027-0.05-0.053-0.024-0.087c0.026-0.035,0.068-0.026,0.103-0.015c0.122,0.038,0.241,0.085,0.372,0.102
				c-0.008-0.045-0.09-0.064-0.052-0.109c0.054-0.065,0.131-0.006,0.2-0.011c0.014-0.021-0.01-0.024-0.019-0.035
				c-0.02-0.024-0.059-0.043-0.032-0.082c0.021-0.031,0.059-0.026,0.091-0.02c0.098,0.018,0.19,0.054,0.285,0.081
				c0.016,0.005,0.003,0.007,0.01,0c0.013-0.014-0.015-0.011-0.019-0.021c-0.333-0.235-0.726-0.341-1.086-0.518
				c-0.033-0.016-0.068-0.027-0.099-0.048c-0.061-0.055-0.131-0.091-0.212-0.103c-0.024-0.003-0.045-0.012-0.064-0.026
				c-0.064-0.051-0.133-0.09-0.217-0.097c-0.108-0.041-0.219-0.074-0.328-0.118c-0.072-0.049-0.151-0.078-0.239-0.073
				c-0.042-0.002-0.08-0.015-0.117-0.032c-0.169-0.088-0.357-0.1-0.54-0.118c-0.295-0.03-0.589-0.065-0.885-0.085
				c-0.065-0.004-0.13-0.009-0.196,0.004c-0.075,0.002-0.147-0.01-0.22-0.02c-0.128-0.041-0.254-0.064-0.375,0.019
				c-0.138,0.083-0.19,0.217-0.221,0.365c-0.056,0.195-0.195,0.295-0.384,0.335c-0.138,0.029-0.266,0.086-0.397,0.133
				c-0.061,0.021-0.113,0.024-0.177,0.005c-0.268-0.077-0.54-0.092-0.815-0.044c-0.059,0.01-0.115,0.033-0.155,0.071
				c-0.091,0.085-0.187,0.091-0.294,0.041c-0.039-0.014-0.073-0.037-0.101-0.066c-0.015-0.014-0.024-0.037-0.042-0.043
				c-0.157-0.051-0.228-0.164-0.238-0.323c-0.037-0.099-0.057-0.202-0.072-0.306c0-0.09-0.028-0.163-0.126-0.188
				c-0.012-0.003-0.024-0.007-0.036-0.011c-0.172-0.066-0.352-0.048-0.526-0.03c-0.109,0.012-0.215,0.022-0.317-0.014
				c-0.311-0.111-0.617-0.07-0.922,0.019c-0.146,0.043-0.291,0.09-0.433,0.146C49.2,8.631,49.13,8.644,49.078,8.692
				c-0.257,0.126-0.528,0.218-0.794,0.323c-0.211,0.059-0.4,0.164-0.582,0.285c-0.017,0.017-0.038,0.029-0.062,0.034
				c-0.062,0.016-0.119,0.042-0.167,0.085c-0.009,0.007-0.019,0.014-0.029,0.02c-0.199,0.099-0.372,0.245-0.579,0.331
				c0.1-0.052,0.205-0.078,0.318-0.061c0.106,0.016,0.21,0.047,0.319,0.033c0.012-0.002,0.028-0.002,0.036,0.005
				c0.125,0.13,0.269,0.051,0.405,0.031c0.1-0.014,0.19-0.035,0.266,0.066c0.039,0.051,0.117,0.026,0.178,0.024
				c0.066-0.001,0.13-0.021,0.194-0.035c0.088-0.019,0.177-0.062,0.211,0.082c0.013,0.053,0.087,0.051,0.142,0.045
				c0.09-0.01,0.178-0.032,0.266-0.056c0.042-0.011,0.106-0.028,0.112,0.034c0.008,0.092,0.059,0.068,0.11,0.06
				c0.053-0.008,0.104-0.026,0.157-0.031c0.103-0.01,0.125,0.017,0.105,0.119c-0.018,0.091,0,0.112,0.091,0.096
				c0.089-0.016,0.172-0.055,0.255-0.091c0.034-0.015,0.072-0.031,0.106-0.007c0.04,0.028,0.018,0.068,0.004,0.101
				c-0.039,0.093,0.012,0.096,0.081,0.087c0.053-0.006,0.105-0.019,0.159-0.025c0.094-0.011,0.112,0.013,0.087,0.104
				c-0.038,0.131-0.018,0.152,0.116,0.127c0.016-0.003,0.032-0.007,0.048-0.011c0.154-0.034,0.165-0.027,0.134,0.132
				c-0.013,0.071,0.023,0.087,0.075,0.101c0.042,0.011,0.082-0.004,0.124-0.007c0.066-0.005,0.096,0.021,0.104,0.09
				c0.012,0.118,0.022,0.121,0.137,0.077c0.126-0.049,0.128-0.05,0.185,0.077c0.029,0.067,0.064,0.064,0.112,0.022
				c0.034-0.03,0.064-0.065,0.099-0.093c0.073-0.057,0.106-0.044,0.125,0.048c0.008,0.041,0.005,0.082,0.008,0.123
				c0.005,0.081,0.045,0.09,0.106,0.051c0.021-0.013,0.04-0.03,0.062-0.042c0.062-0.038,0.1-0.02,0.119,0.049
				c0.041,0.147,0.055,0.278-0.039,0.428c-0.147,0.237-0.292,0.48-0.402,0.737c-0.087,0.203-0.166,0.413-0.234,0.624
				c-0.035,0.109-0.128,0.17-0.173,0.267c-0.19,0.184-0.349,0.392-0.483,0.62c-0.027,0.046-0.054,0.094-0.113,0.105
				c-0.133-0.035-0.197-0.148-0.279-0.242c-0.031-0.036,0.002-0.077,0.017-0.114c-0.042-0.042-0.106-0.002-0.147-0.043
				c-0.02-0.016-0.03-0.036-0.031-0.061c0.015-0.077,0.084-0.105,0.138-0.146c0.042-0.032,0.079-0.068,0.112-0.113
				c-0.038,0.004-0.071,0.021-0.107,0.017c-0.097-0.034-0.102-0.05-0.038-0.112c0.075-0.073,0.175-0.08,0.268-0.102
				c0.191-0.011,0.385-0.005,0.56-0.102c-0.125-0.053-0.126-0.053-0.243,0.016c-0.035,0.021-0.068,0.026-0.104,0.007
				c-0.087-0.123-0.013-0.258,0.158-0.279c0.098-0.012,0.198-0.006,0.297-0.026c0,0.001-0.005,0.002-0.017,0.003
				c-0.072,0.003-0.169,0.039-0.208-0.033c-0.048-0.089,0.066-0.136,0.095-0.201c-0.093-0.001-0.16,0.158-0.291,0.064
				c-0.004,0.007-0.01,0.029-0.012,0.048c-0.028,0.246-0.183,0.396-0.382,0.512c-0.018,0.01-0.029,0.029-0.047,0.04
				c-0.049,0.03-0.092,0.065-0.127,0.114c-0.039,0.054-0.067,0.026-0.082-0.024c0.055-0.178,0.134-0.336,0.325-0.413
				c-0.188,0.009-0.358,0.045-0.478,0.201c-0.01,0.012-0.025,0.024-0.019,0.042c0.007,0.02,0.027,0.031,0.034,0.051
				c0.019,0.065-0.03,0.19-0.079,0.187c-0.081-0.005-0.122-0.063-0.134-0.138c-0.022-0.13,0.096-0.366,0.215-0.424
				c0.049-0.024,0.091-0.056,0.13-0.093c0.19-0.166,0.281-0.325,0.315-0.555c-0.218,0.137-0.406,0.296-0.488,0.55
				c-0.02,0.023-0.038,0.05-0.075,0.037c-0.068-0.074-0.039-0.172-0.067-0.254c-0.026,0.046-0.045,0.1-0.075,0.149
				c-0.021,0.04-0.025,0.087-0.048,0.126c-0.12,0.204-0.1,0.417-0.047,0.633c0.004,0.073,0.006,0.146,0,0.22
				c-0.004,0.02-0.012,0.037-0.025,0.052c-0.049,0.037-0.071,0.097-0.12,0.134c-0.11,0.036-0.187,0.122-0.281,0.181
				c-0.128-0.021-0.178-0.131-0.103-0.256c0.049-0.082,0.084-0.181,0.187-0.22c0.008-0.003,0.018,0.001,0.017-0.006
				c-0.036-0.23,0.092-0.452,0.042-0.684c-0.004-0.02-0.005-0.041-0.011-0.061c-0.048,0.064-0.058,0.181-0.146,0.181
				c-0.092,0-0.101-0.117-0.145-0.183c-0.01-0.014-0.015-0.03-0.039-0.034c-0.055,0.126-0.02,0.242,0.046,0.35
				c0.045,0.075,0.063,0.149,0.048,0.235c-0.022,0.137-0.053,0.158-0.199,0.117c0.04,0.083,0.067,0.166,0.111,0.239
				c0.082,0.138,0.081,0.29,0.08,0.442c-0.001,0.037-0.001,0.084-0.042,0.096c-0.052,0.015-0.063-0.04-0.084-0.072
				c-0.046-0.127-0.086-0.257-0.141-0.392c-0.06,0.274-0.07,0.541-0.008,0.809c0.011,0.048,0.028,0.095-0.001,0.143
				c-0.054,0.037-0.076-0.011-0.096-0.042c-0.053-0.083-0.106-0.167-0.122-0.285c0.002,0.049,0,0.082-0.007,0.115
				c-0.02,0.068-0.024,0.137-0.024,0.207c0,0.037-0.001,0.078-0.045,0.092c-0.041,0.013-0.067-0.019-0.095-0.043
				c-0.002-0.002-0.004-0.006-0.008-0.009c-0.041-0.045-0.054-0.453-0.017-0.5c0.011-0.013-0.004,0.001,0.009-0.008
				c0.047-0.034,0.125-0.028,0.13-0.112c0.005-0.088-0.012-0.17-0.053-0.249c-0.006-0.013-0.01-0.027-0.012-0.041
				c0.025-0.157,0.017-0.314,0.016-0.471c0.005-0.099,0.038-0.193,0.047-0.291c0.044-0.161,0.042-0.323-0.002-0.483
				c-0.014-0.118-0.009-0.235,0.018-0.352c0.009-0.041,0.018-0.08,0.055-0.104c0.037-0.015,0.059,0.002,0.083,0.029
				c0.129,0.143,0.271,0.274,0.378,0.384c-0.091-0.09-0.209-0.208-0.327-0.327c-0.032-0.032-0.07-0.062-0.039-0.115
				c0.023-0.039,0.056-0.069,0.086-0.101c0.049-0.051,0.058-0.103,0.012-0.16c-0.034-0.175-0.052-0.189-0.234-0.177
				c-0.03,0.002-0.058,0.001-0.08-0.021c-0.046-0.058-0.033-0.133-0.057-0.196c-0.03,0.05-0.004,0.106-0.016,0.157
				c-0.014,0.051-0.034,0.098-0.082,0.126c-0.046,0.014-0.075-0.011-0.099-0.044c-0.021-0.031-0.032-0.067-0.037-0.103
				c-0.01-0.074-0.052-0.114-0.118-0.141c-0.072-0.029-0.141-0.065-0.207-0.107c-0.027-0.024-0.057-0.045-0.087-0.073
				c0.009,0.032,0.023,0.056,0.039,0.081c0.025,0.033,0.044,0.071,0.052,0.11c0.03,0.156,0.109,0.264,0.273,0.294
				c0.035,0.033,0.065,0.068,0.05,0.122c-0.036,0.073-0.105,0.09-0.175,0.109c-0.049,0.002-0.099,0.004-0.147-0.009
				c-0.008-0.002-0.017-0.002-0.025-0.003c-0.015,0-0.019-0.003-0.012-0.002c0.014,0.003,0.028,0.004,0.043,0.007
				c0.141,0.046,0.279,0.007,0.417-0.011c0.092,0.013,0.114,0.077,0.098,0.153c-0.071,0.335-0.042,0.679-0.09,1.016
				c-0.02,0.137-0.075,0.27-0.051,0.411c0.004,0.098-0.072,0.172-0.079,0.269c-0.006,0.076-0.017,0.142,0.084,0.158
				c0.04,0.006,0.068,0.033,0.073,0.074c0.021,0.17,0.061,0.339,0.043,0.513c-0.007,0.069-0.042,0.097-0.095,0.051
				c-0.151-0.133-0.296-0.274-0.426-0.429c-0.017-0.02-0.015-0.047-0.006-0.071c0.014-0.034,0.042-0.058,0.066-0.085
				C48,13.697,48,13.693,47.902,13.588c-0.019-0.033-0.023-0.069-0.025-0.106c-0.003-0.06-0.015-0.117-0.084-0.131
				c-0.072-0.014-0.126,0.021-0.167,0.078c-0.032,0.045-0.038,0.111-0.104,0.129c-0.071,0.003-0.11-0.038-0.134-0.098
				c-0.01-0.037-0.025-0.074-0.019-0.113c0.007-0.046,0.037-0.08,0.062-0.117c0.022-0.033,0.052-0.063,0.047-0.117
				c-0.062-0.01-0.099,0.041-0.148,0.062c-0.057,0.026-0.11,0.07-0.18,0.032c-0.081-0.063-0.092-0.16-0.113-0.25
				c-0.021-0.088-0.065-0.141-0.153-0.17c-0.151-0.05-0.296-0.116-0.432-0.201c-0.049-0.048-0.123-0.066-0.15-0.122
				c0.013,0.024,0.045,0.048,0.068,0.082c0.104,0.169,0.18,0.352,0.245,0.538c0.025,0.072,0.065,0.103,0.139,0.116
				c0.107,0.018,0.225,0.023,0.292,0.134c0.008,0.047-0.003,0.091-0.016,0.136c-0.102,0.14-0.235,0.123-0.374,0.076
				c-0.069,0.05-0.018,0.104-0.006,0.156c0.06,0.161,0.172,0.259,0.345,0.279c0.063,0.008,0.1-0.009,0.06-0.082
				c-0.045-0.081-0.048-0.165-0.003-0.248c0.038-0.068,0.087-0.111,0.171-0.07c0.11,0.094,0.214,0.193,0.309,0.301
				c0.021,0.161-0.034,0.316-0.03,0.478c0.009,0.374-0.029,0.746-0.088,1.115c-0.011,0.07-0.007,0.139-0.002,0.209
				c0.012,0.116-0.044,0.216-0.075,0.322c-0.028,0.096-0.012,0.16,0.09,0.208c0.154,0.073,0.179,0.137,0.16,0.294
				c-0.008,0.068-0.04,0.105-0.11,0.109c-0.042,0.002-0.083,0.002-0.124,0.002c-6.276,0-12.551,0-18.827-0.001
				C28.458,16.619,28.384,16.638,28.325,16.583z"/>
			<path fill-rule="evenodd" clip-rule="evenodd" fill="#EB1C24" d="M77.875,24.858c0,2.716,0,5.433,0.003,8.149
				c0,0.082-0.012,0.103-0.1,0.103c-16.452-0.002-32.903-0.002-49.355,0c-0.087,0-0.1-0.021-0.099-0.103
				c0.002-2.717,0.002-5.433,0.002-8.149c0.035-0.037,0.081-0.037,0.127-0.037c0.058-0.001,0.116,0,0.173,0
				c7.993,0,15.985,0.014,23.978-0.004c8.326-0.019,16.651-0.002,24.977-0.01C77.679,24.807,77.789,24.773,77.875,24.858z"/>
			<path fill-rule="evenodd" clip-rule="evenodd" fill="#034EA1" d="M77.875,24.858c-0.057-0.001-0.115-0.004-0.173-0.004
				c-7.988,0-15.976,0-23.964,0c-8.414,0-16.827,0-25.24,0c-0.058,0-0.115,0.002-0.173,0.004c0-0.008,0-0.017,0-0.025
				c0.036-0.041,0.082-0.051,0.134-0.051c0.074-0.001,0.149-0.001,0.223-0.001c7.799,0,15.599,0,23.398,0
				c0.082,0,0.165,0.009,0.246-0.01c0.012-0.004,0.024-0.013,0.035-0.009c0.205,0.059,0.377-0.029,0.55-0.119
				c0.018-0.01,0.038-0.015,0.059-0.018c0.025-0.001,0.051-0.001,0.077-0.001c0.113,0.014,0.197,0.095,0.302,0.13
				c0.108,0.036,0.214,0.06,0.3-0.047c0.063-0.103,0.019-0.209,0.012-0.313c-0.004-0.045-0.015-0.089-0.011-0.135
				c0.01-0.102,0.055-0.138,0.156-0.117c0.109,0.022,0.219,0.035,0.328,0.047c0.109,0.013,0.159-0.039,0.149-0.148
				c-0.007-0.087-0.024-0.17-0.066-0.248c-0.033-0.139-0.095-0.272-0.063-0.421c0.044-0.045,0.098-0.033,0.151-0.028
				c0.168,0.014,0.333,0.052,0.503,0.056c0.223,0.004,0.286-0.074,0.231-0.329c-0.015-0.072-0.059-0.136-0.096-0.2
				c-0.107-0.186-0.224-0.366-0.347-0.542c-0.033-0.048-0.067-0.095-0.062-0.158c0.017-0.075,0.078-0.076,0.134-0.075
				c0.069,0,0.137,0.001,0.203-0.018c0.013-0.001,0.027-0.003,0.04-0.004c0.127,0.013,0.222-0.092,0.344-0.096
				c0.273,0.088,0.548,0.172,0.818,0.27c0.055,0.089,0.135,0.155,0.212,0.222c0.287,0.248,0.543,0.528,0.813,0.793
				c0.083,0.081,0.174,0.15,0.259,0.229c0.02,0.019,0.047,0.049,0.073,0.024c0.034-0.031,0-0.06-0.019-0.084
				c-0.03-0.039-0.065-0.074-0.104-0.106c-0.242-0.2-0.451-0.434-0.674-0.652c-0.109-0.107-0.219-0.211-0.346-0.297
				c-0.028-0.019-0.073-0.035-0.036-0.084c0.117-0.057,0.242-0.029,0.364-0.03c0.322-0.002,0.617-0.095,0.883-0.273
				c0.161-0.108,0.303-0.24,0.418-0.399c0.031-0.042,0.06-0.09,0.115-0.107c0.138,0.068,0.229,0.193,0.345,0.289
				c0.085,0.07,0.156,0.158,0.238,0.232c0.042,0.038,0.089,0.126,0.142,0.076c0.045-0.044-0.042-0.092-0.077-0.131
				c-0.152-0.167-0.325-0.314-0.491-0.467c-0.039-0.035-0.085-0.067-0.088-0.129c0.001-0.073,0.041-0.133,0.07-0.196
				c0.238-0.506,0.366-1.039,0.374-1.598c0.001-0.124,0.002-0.248,0-0.371c-0.015-0.643,0.04-1.284,0.026-1.927
				c0-0.033,0-0.066,0.007-0.099c0.041-0.137,0.029-0.278,0.032-0.418c0.002-0.138,0.009-0.146,0.148-0.146c1.878,0,3.756,0,5.633,0
				c4.441,0,8.882,0,13.322,0c0.053,0,0.107-0.013,0.158,0.012C77.875,19.358,77.875,22.108,77.875,24.858z"/>
			<path fill-rule="evenodd" clip-rule="evenodd" fill="#034EA1" d="M52.364,24.782c0.001,0.027-0.002,0.05-0.038,0.05
				c-0.042,0-0.082,0-0.124,0c-7.959,0-15.918,0-23.878,0c0-2.742,0-5.483,0-8.226c0.043-0.023,0.089-0.012,0.134-0.012
				c6.317,0,12.635,0,18.953,0c0.175,0,0.175,0,0.176,0.181c0.001,0.136-0.009,0.273,0.032,0.406
				c0.006,0.028,0.007,0.057,0.006,0.086c-0.009,0.749,0.037,1.497,0.028,2.247c-0.007,0.581,0.125,1.134,0.379,1.656
				c0.027,0.055,0.06,0.108,0.062,0.173c0,0.036-0.021,0.061-0.05,0.08c-0.229,0.156-0.391,0.388-0.607,0.558
				c-0.028,0.021-0.068,0.056-0.039,0.092c0.037,0.046,0.076,0,0.103-0.024c0.181-0.163,0.346-0.34,0.519-0.51
				c0.034-0.034,0.06-0.081,0.116-0.086c0.068,0.014,0.097,0.072,0.133,0.121c0.28,0.373,0.646,0.604,1.108,0.674
				c0.127,0.019,0.255,0.006,0.382,0.01c0.061,0.002,0.124-0.007,0.18,0.027c0.039,0.035,0.012,0.059-0.016,0.078
				c-0.276,0.186-0.485,0.445-0.724,0.672c-0.092,0.088-0.181,0.181-0.281,0.26c-0.051,0.042-0.098,0.089-0.139,0.14
				c-0.017,0.022-0.043,0.049-0.016,0.076s0.054-0.002,0.074-0.02c0.082-0.076,0.171-0.142,0.25-0.221
				c0.315-0.314,0.624-0.635,0.96-0.928c0.032-0.028,0.045-0.068,0.076-0.097c0.253-0.091,0.508-0.173,0.767-0.248
				c0.103,0.031,0.198,0.092,0.312,0.075c0.014,0,0.026,0.001,0.04,0.003c0.081,0.045,0.192-0.021,0.261,0.069
				c0.015,0.074-0.033,0.125-0.068,0.18c-0.138,0.214-0.289,0.422-0.401,0.653c-0.028,0.06-0.054,0.121-0.063,0.187
				c-0.019,0.154,0.044,0.221,0.196,0.232c0.188,0.015,0.368-0.042,0.553-0.055c0.054-0.003,0.107-0.017,0.151,0.027
				c0.038,0.159-0.03,0.304-0.061,0.454c-0.044,0.097-0.082,0.194-0.045,0.302c0.105,0.098,0.224,0.035,0.337,0.026
				c0.265-0.033,0.261-0.033,0.267,0.233c0.003,0.104-0.041,0.209,0.004,0.313C52.381,24.728,52.382,24.756,52.364,24.782z"/>
			<path fill-rule="evenodd" clip-rule="evenodd" fill="#695505" d="M47.575,17.221c-0.035-0.167-0.014-0.337-0.017-0.505
				c0-0.084-0.023-0.124-0.112-0.112c-0.028,0.004-0.058,0-0.086,0c-6.292,0-12.583,0-18.875,0c-0.054,0-0.107,0.002-0.161,0.003
				c0-0.008,0-0.016,0-0.024c0.053,0.001,0.107,0.004,0.161,0.004c6.291,0,12.583,0,18.873,0c0.19,0,0.242-0.058,0.185-0.237
				c-0.021-0.068-0.106-0.107-0.179-0.107c-0.084-0.001-0.098-0.036-0.089-0.104c0.003-0.021-0.001-0.042,0.002-0.062
				c0.022-0.137,0.095-0.263,0.09-0.406c0.044-0.047,0.101-0.069,0.161-0.084c0.049,0.055,0.058,0.134,0.11,0.187
				c0.002,0.011,0.002,0.022-0.001,0.034c-0.061,0.046-0.032,0.096-0.008,0.147c-0.018,0.069-0.156,0.031-0.129,0.133
				c0.016-0.095,0.097-0.008,0.139-0.038c0.031,0.088,0.036-0.004,0.05-0.01c0.018-0.007,0.03-0.006,0.045,0.003
				c0.069,0.134,0.059,0.223-0.05,0.313c-0.053,0.044-0.055,0.097-0.056,0.154c-0.002,0.185,0,0.37-0.001,0.555
				C47.625,17.122,47.63,17.182,47.575,17.221z"/>
		</g>
	</g>
</g>
<g id="Imagenes">
</g>
<g id="Cintillos">
</g>
<g id="Botones">
</g>
<g id="TXT">
</g>
<g id="Logo">
</g>
<g id="Guia">
</g>
</svg>
