<?xml version="1.0" encoding="utf-8"?>
<!-- Generator: Adobe Illustrator 16.0.0, SVG Export Plug-In . SVG Version: 6.00 Build 0)  -->
<!DOCTYPE svg PUBLIC "-//W3C//DTD SVG 1.1//EN" "http://www.w3.org/Graphics/SVG/1.1/DTD/svg11.dtd">
<svg version="1.1" xmlns="http://www.w3.org/2000/svg" xmlns:xlink="http://www.w3.org/1999/xlink" x="0px" y="0px"
	 width="34.417px" height="34.25px" viewBox="0 0 34.417 34.25" enable-background="new 0 0 34.417 34.25" xml:space="preserve">
<g id="Soporte">
</g>
<g id="Publicidad">
</g>
<g id="Iconos">
	<g>
		<defs>
			<circle id="SVGID_65_" cx="16.783" cy="16.595" r="15.917"/>
		</defs>
		<clipPath id="SVGID_2_">
			<use xlink:href="#SVGID_65_"  overflow="visible"/>
		</clipPath>
		<g clip-path="url(#SVGID_2_)">
			<path fill-rule="evenodd" clip-rule="evenodd" fill="#FEFEFE" d="M-7.694,22.412c0-3.673,0-7.345,0-11.018
				c0.045,0.002,0.09,0.006,0.136,0.006c16.414,0,32.827,0,49.24,0.003c0.119,0,0.147-0.027,0.147-0.146
				C41.825,7.637,41.826,4.019,41.826,0.4c0.007,0.006,0.026-0.012,0.025,0.012c-0.001,0.033,0,0.066,0,0.099
				c0,10.928,0,21.855-0.002,32.783c0,0.036,0.029,0.084-0.023,0.111c0-3.61,0-7.22,0-10.83c0-0.169,0-0.169-0.169-0.169
				c-16.401,0-32.802,0-49.203,0C-7.596,22.406-7.645,22.41-7.694,22.412z"/>
			<path fill-rule="evenodd" clip-rule="evenodd" fill="#AD1C28" d="M41.826,0.4c0,3.619,0,7.237,0.003,10.856
				c0,0.119-0.029,0.146-0.147,0.146C25.269,11.4,8.855,11.4-7.559,11.399c-0.046,0-0.09-0.004-0.136-0.006
				c0-3.623,0-7.245-0.002-10.868c0-0.099,0.013-0.129,0.124-0.129C8.894,0.4,25.359,0.4,41.826,0.4z"/>
			<path fill-rule="evenodd" clip-rule="evenodd" fill="#21468A" d="M-7.694,22.412c0.049-0.001,0.099-0.006,0.148-0.006
				c16.401,0,32.802,0,49.203,0c0.169,0,0.169,0,0.169,0.169c0,3.61,0,7.22,0,10.83c-16.466,0-32.932,0-49.399,0.004
				c-0.11,0-0.124-0.031-0.124-0.129C-7.694,29.657-7.694,26.034-7.694,22.412z"/>
		</g>
	</g>
	<g>
		<defs>
			<circle id="SVGID_97_" cx="-20.217" cy="16.595" r="15.917"/>
		</defs>
		<clipPath id="SVGID_4_">
			<use xlink:href="#SVGID_97_"  overflow="visible"/>
		</clipPath>
		<g clip-path="url(#SVGID_4_)">
			<path fill-rule="evenodd" clip-rule="evenodd" fill="#DF761C" d="M-43.748,11.504c0-3.748,0-7.495,0-11.244
				c15.58,0,31.159,0,46.739,0c0,3.749,0,7.497,0,11.244c-0.035,0.047-0.087,0.057-0.142,0.06c-0.08,0.003-0.16,0.003-0.24,0.003
				c-15.325,0-30.65,0-45.977,0c-0.08,0-0.16,0.001-0.24-0.003C-43.661,11.561-43.712,11.551-43.748,11.504z"/>
			<path fill-rule="evenodd" clip-rule="evenodd" fill="#4F8723" d="M2.991,22.057c0,3.749,0,7.497,0,11.245
				c-0.046,0.025-0.096,0.013-0.144,0.013c-15.483,0-30.967,0-46.451,0c-0.048,0-0.098,0.012-0.144-0.013c0-3.749,0-7.497,0-11.245
				c0.036-0.047,0.087-0.058,0.142-0.06c0.08-0.003,0.16-0.003,0.239-0.003c15.326,0,30.65,0,45.976,0c0.081,0,0.16,0,0.24,0.003
				C2.904,21.999,2.956,22.009,2.991,22.057z"/>
			<path fill-rule="evenodd" clip-rule="evenodd" fill="#FFFFFF" d="M2.991,22.057c-0.054,0-0.106,0.001-0.16,0.001
				c-15.473,0-30.946,0-46.419,0c-0.053,0-0.106,0-0.16-0.001c0-3.518,0-7.035,0-10.552c15.58,0,31.159,0,46.739,0
				C2.991,15.021,2.991,18.539,2.991,22.057z"/>
			<path fill-rule="evenodd" clip-rule="evenodd" fill="#C4D7B5" d="M-43.748,33.302c15.58,0,31.159,0,46.739,0
				c-0.005,0.008,0.014,0.028-0.013,0.026c-0.036-0.001-0.071,0-0.106,0c-15.5,0-31,0-46.5-0.001
				C-43.667,33.327-43.718,33.358-43.748,33.302z"/>
		</g>
	</g>
</g>
<g id="Imagenes">
</g>
<g id="Cintillos">
</g>
<g id="Botones">
</g>
<g id="TXT">
</g>
<g id="Logo">
</g>
<g id="Guia">
</g>
</svg>
