<?xml version="1.0" encoding="utf-8"?>
<!-- Generator: Adobe Illustrator 16.0.0, SVG Export Plug-In . SVG Version: 6.00 Build 0)  -->
<!DOCTYPE svg PUBLIC "-//W3C//DTD SVG 1.1//EN" "http://www.w3.org/Graphics/SVG/1.1/DTD/svg11.dtd">
<svg version="1.1" xmlns="http://www.w3.org/2000/svg" xmlns:xlink="http://www.w3.org/1999/xlink" x="0px" y="0px"
	 width="34.417px" height="34.25px" viewBox="0 0 34.417 34.25" enable-background="new 0 0 34.417 34.25" xml:space="preserve">
<g id="Soporte">
</g>
<g id="Publicidad">
</g>
<g id="Iconos">
	<g>
		<defs>
			<circle id="SVGID_63_" cx="-19.217" cy="17.028" r="15.917"/>
		</defs>
		<clipPath id="SVGID_2_">
			<use xlink:href="#SVGID_63_"  overflow="visible"/>
		</clipPath>
		<g clip-path="url(#SVGID_2_)">
			<path fill-rule="evenodd" clip-rule="evenodd" fill="#CD1124" d="M-15.862,33.207c-2.245,0-4.489,0-6.734,0
				c0.002-0.073,0.005-0.146,0.005-0.219c0-4.319-0.001-8.64,0.006-12.96c0-0.215-0.056-0.257-0.263-0.257
				c-8.049,0.006-16.1,0.005-24.149,0.006c-0.073,0-0.146,0.003-0.218,0.004c0-2.244,0-4.489,0-6.733
				c0.051,0.002,0.102,0.005,0.153,0.005c8.086,0,16.173-0.001,24.259,0.005c0.196,0,0.217-0.067,0.217-0.235
				c-0.005-4.166-0.003-8.333-0.004-12.5c0-0.233-0.003-0.467-0.005-0.699c2.245,0,4.489,0,6.734,0
				c-0.002,0.072-0.005,0.146-0.005,0.218c0,4.32,0.002,8.641-0.005,12.96c0,0.215,0.056,0.257,0.262,0.257
				c8.05-0.006,16.1-0.005,24.15-0.005c0.073,0,0.146-0.003,0.218-0.005c0,2.244,0,4.489,0,6.733
				c-0.051-0.001-0.102-0.004-0.152-0.004c-8.087-0.001-16.173,0-24.259-0.006c-0.197,0-0.217,0.067-0.217,0.235
				c0.004,4.167,0.003,8.334,0.003,12.501C-15.868,32.74-15.864,32.973-15.862,33.207z"/>
			<path fill-rule="evenodd" clip-rule="evenodd" fill="#FEFEFE" d="M8.757,13.047c-0.072,0.002-0.145,0.005-0.218,0.005
				c-8.05,0-16.1-0.001-24.15,0.005c-0.206,0-0.262-0.042-0.262-0.257c0.007-4.319,0.005-8.64,0.005-12.96
				c0-0.072,0.003-0.146,0.005-0.218c8.144,0,16.287,0,24.431-0.004c0.148,0,0.194,0.02,0.194,0.187
				C8.756,4.219,8.757,8.633,8.757,13.047z"/>
			<path fill-rule="evenodd" clip-rule="evenodd" fill="#FEFEFE" d="M-15.862,33.207c-0.002-0.233-0.005-0.467-0.005-0.699
				c0-4.167,0.001-8.334-0.003-12.501c0-0.168,0.02-0.235,0.217-0.235c8.086,0.006,16.172,0.005,24.259,0.006
				c0.051,0,0.102,0.003,0.152,0.004c0,4.417-0.001,8.834,0.004,13.251c0,0.149-0.029,0.179-0.179,0.179
				C0.434,33.206-7.714,33.207-15.862,33.207z"/>
		</g>
	</g>
	<g>
		<defs>
			<circle id="SVGID_65_" cx="53.783" cy="16.595" r="15.917"/>
		</defs>
		<clipPath id="SVGID_4_">
			<use xlink:href="#SVGID_65_"  overflow="visible"/>
		</clipPath>
		<g clip-path="url(#SVGID_4_)">
			<path fill-rule="evenodd" clip-rule="evenodd" fill="#FEFEFE" d="M29.306,22.412c0-3.673,0-7.345,0-11.018
				c0.045,0.002,0.09,0.006,0.136,0.006c16.414,0,32.827,0,49.24,0.003c0.119,0,0.147-0.027,0.147-0.146
				C78.825,7.637,78.826,4.019,78.826,0.4c0.007,0.006,0.026-0.012,0.025,0.012c-0.001,0.033,0,0.066,0,0.099
				c0,10.928,0,21.855-0.002,32.783c0,0.036,0.029,0.084-0.023,0.111c0-3.61,0-7.22,0-10.83c0-0.169,0-0.169-0.169-0.169
				c-16.401,0-32.802,0-49.203,0C29.404,22.406,29.355,22.41,29.306,22.412z"/>
			<path fill-rule="evenodd" clip-rule="evenodd" fill="#AD1C28" d="M78.826,0.4c0,3.619,0,7.237,0.003,10.856
				c0,0.119-0.029,0.146-0.147,0.146C62.269,11.4,45.855,11.4,29.441,11.399c-0.046,0-0.09-0.004-0.136-0.006
				c0-3.623,0-7.245-0.002-10.868c0-0.099,0.013-0.129,0.124-0.129C45.894,0.4,62.359,0.4,78.826,0.4z"/>
			<path fill-rule="evenodd" clip-rule="evenodd" fill="#21468A" d="M29.306,22.412c0.049-0.001,0.099-0.006,0.148-0.006
				c16.401,0,32.802,0,49.203,0c0.169,0,0.169,0,0.169,0.169c0,3.61,0,7.22,0,10.83c-16.466,0-32.932,0-49.399,0.004
				c-0.11,0-0.124-0.031-0.124-0.129C29.306,29.657,29.306,26.034,29.306,22.412z"/>
		</g>
	</g>
	<g>
		<defs>
			<circle id="SVGID_97_" cx="16.783" cy="16.595" r="15.917"/>
		</defs>
		<clipPath id="SVGID_6_">
			<use xlink:href="#SVGID_97_"  overflow="visible"/>
		</clipPath>
		<g clip-path="url(#SVGID_6_)">
			<path fill-rule="evenodd" clip-rule="evenodd" fill="#DF761C" d="M-6.748,11.504c0-3.748,0-7.495,0-11.244
				c15.58,0,31.159,0,46.739,0c0,3.749,0,7.497,0,11.244c-0.035,0.047-0.087,0.057-0.142,0.06c-0.08,0.003-0.16,0.003-0.24,0.003
				c-15.325,0-30.65,0-45.977,0c-0.08,0-0.16,0.001-0.24-0.003C-6.661,11.561-6.712,11.551-6.748,11.504z"/>
			<path fill-rule="evenodd" clip-rule="evenodd" fill="#4F8723" d="M39.991,22.057c0,3.749,0,7.497,0,11.245
				c-0.046,0.025-0.096,0.013-0.144,0.013c-15.483,0-30.967,0-46.451,0c-0.048,0-0.098,0.012-0.144-0.013c0-3.749,0-7.497,0-11.245
				c0.036-0.047,0.087-0.058,0.142-0.06c0.08-0.003,0.16-0.003,0.239-0.003c15.326,0,30.65,0,45.976,0c0.081,0,0.16,0,0.24,0.003
				C39.904,21.999,39.956,22.009,39.991,22.057z"/>
			<path fill-rule="evenodd" clip-rule="evenodd" fill="#FFFFFF" d="M39.991,22.057c-0.054,0-0.106,0.001-0.16,0.001
				c-15.473,0-30.946,0-46.419,0c-0.053,0-0.106,0-0.16-0.001c0-3.518,0-7.035,0-10.552c15.58,0,31.159,0,46.739,0
				C39.991,15.021,39.991,18.539,39.991,22.057z"/>
			<path fill-rule="evenodd" clip-rule="evenodd" fill="#C4D7B5" d="M-6.748,33.302c15.58,0,31.159,0,46.739,0
				c-0.005,0.008,0.014,0.028-0.013,0.026c-0.036-0.001-0.071,0-0.106,0c-15.5,0-31,0-46.5-0.001
				C-6.667,33.327-6.718,33.358-6.748,33.302z"/>
			<path fill-rule="evenodd" clip-rule="evenodd" fill="#394490" d="M16.649,11.81c2.832,0.007,4.962,2.302,4.981,4.938
				c0.02,2.7-2.15,5.011-4.97,5.014c-2.774,0.002-4.975-2.23-4.982-4.963C11.671,14.071,13.858,11.822,16.649,11.81z"/>
			<path fill-rule="evenodd" clip-rule="evenodd" fill="#FFFFFF" d="M20.768,15.372c0.072-0.026,0.102,0.013,0.117,0.08
				c0.029,0.121,0.059,0.242,0.096,0.36c0.022,0.071,0.012,0.113-0.062,0.144c-0.093,0.039-0.145,0.116-0.159,0.215
				c-0.021,0.161,0.068,0.285,0.236,0.313c0.07,0.011,0.091,0.038,0.089,0.102c-0.002,0.133-0.003,0.266-0.001,0.399
				c0.001,0.066-0.026,0.089-0.091,0.103c-0.168,0.039-0.246,0.147-0.234,0.304c0.009,0.114,0.072,0.192,0.173,0.232
				c0.061,0.024,0.072,0.056,0.057,0.111c-0.038,0.137-0.074,0.274-0.112,0.41c-0.014,0.051-0.042,0.065-0.099,0.059
				c-0.146-0.016-0.252,0.049-0.301,0.167c-0.048,0.116-0.018,0.228,0.099,0.329c0.041,0.036,0.052,0.066,0.024,0.113
				c-0.073,0.122-0.144,0.244-0.215,0.367c-0.029,0.05-0.063,0.065-0.12,0.037c-0.062-0.031-0.131-0.026-0.195-0.005
				c-0.177,0.058-0.249,0.267-0.135,0.423c0.051,0.07,0.037,0.104-0.016,0.153c-0.088,0.082-0.169,0.17-0.256,0.253
				c-0.073,0.07-0.075,0.07-0.164,0.015c-0.08-0.05-0.165-0.063-0.253-0.027c-0.148,0.06-0.218,0.201-0.16,0.359
				c0.028,0.075,0.007,0.106-0.05,0.138c-0.111,0.063-0.224,0.127-0.334,0.192c-0.052,0.03-0.088,0.037-0.135-0.021
				c-0.089-0.108-0.208-0.135-0.322-0.091c-0.123,0.047-0.187,0.145-0.177,0.294c0.005,0.068-0.017,0.098-0.078,0.114
				c-0.129,0.033-0.257,0.068-0.385,0.102c-0.055,0.015-0.094,0.002-0.115-0.057c-0.047-0.129-0.181-0.186-0.3-0.17
				c-0.123,0.016-0.208,0.096-0.234,0.237c-0.011,0.062-0.034,0.077-0.092,0.086c-0.147,0.023-0.292,0-0.438-0.005
				c-0.052-0.002-0.065-0.031-0.07-0.077c-0.01-0.102-0.069-0.173-0.157-0.216c-0.146-0.072-0.307-0.014-0.375,0.142
				c-0.028,0.066-0.064,0.077-0.122,0.061c-0.129-0.035-0.256-0.073-0.385-0.106c-0.064-0.016-0.085-0.051-0.078-0.115
				c0.007-0.066,0-0.131-0.044-0.189c-0.107-0.143-0.303-0.161-0.43-0.037c-0.089,0.087-0.09,0.088-0.195,0.029
				c-0.104-0.06-0.205-0.124-0.308-0.185c-0.05-0.029-0.061-0.06-0.039-0.119c0.05-0.133,0.011-0.255-0.092-0.332
				c-0.102-0.075-0.218-0.081-0.332,0.006c-0.059,0.045-0.092,0.032-0.135-0.011c-0.096-0.099-0.192-0.197-0.289-0.294
				c-0.039-0.038-0.046-0.072-0.007-0.114c0.034-0.037,0.051-0.083,0.058-0.132c0.029-0.213-0.153-0.368-0.363-0.311
				c-0.101,0.028-0.104,0.03-0.155-0.055c-0.066-0.11-0.128-0.223-0.191-0.335c-0.029-0.05-0.021-0.083,0.027-0.123
				c0.113-0.096,0.139-0.215,0.087-0.333c-0.05-0.115-0.15-0.176-0.291-0.16c-0.056,0.006-0.089-0.002-0.103-0.053
				c-0.041-0.15-0.079-0.3-0.118-0.45c-0.013-0.049,0.023-0.058,0.057-0.073c0.094-0.043,0.159-0.114,0.173-0.22
				c0.022-0.164-0.058-0.284-0.228-0.319c-0.07-0.014-0.1-0.041-0.1-0.109c0.003-0.133,0.005-0.266,0.005-0.399
				c0-0.058,0.02-0.083,0.083-0.095c0.145-0.026,0.223-0.109,0.239-0.23c0.019-0.137-0.028-0.236-0.163-0.302
				c-0.068-0.033-0.078-0.068-0.058-0.133c0.037-0.123,0.067-0.248,0.102-0.372c0.016-0.057,0.047-0.091,0.116-0.081
				c0.066,0.01,0.132-0.002,0.19-0.043c0.151-0.105,0.163-0.308,0.026-0.437c-0.079-0.074-0.081-0.075-0.031-0.162
				c0.066-0.115,0.137-0.228,0.203-0.343c0.028-0.048,0.055-0.053,0.107-0.033c0.137,0.05,0.259,0.015,0.336-0.083
				c0.074-0.096,0.075-0.222-0.01-0.345c-0.038-0.054-0.024-0.086,0.015-0.125c0.092-0.09,0.185-0.179,0.273-0.272
				c0.052-0.055,0.09-0.06,0.156-0.014c0.163,0.109,0.375,0.028,0.429-0.155c0.019-0.062,0.015-0.124-0.016-0.181
				c-0.026-0.049-0.02-0.083,0.025-0.113c0.127-0.082,0.26-0.153,0.394-0.224c0.048-0.026,0.071,0.001,0.098,0.036
				c0.058,0.075,0.138,0.109,0.232,0.107c0.157-0.003,0.269-0.111,0.267-0.269c-0.002-0.157-0.005-0.123,0.129-0.168
				c0.109-0.036,0.224-0.057,0.335-0.087c0.062-0.017,0.094-0.001,0.122,0.062c0.055,0.123,0.167,0.179,0.291,0.165
				c0.126-0.015,0.218-0.095,0.237-0.231c0.011-0.079,0.046-0.095,0.113-0.094c0.129,0.002,0.258,0.002,0.387,0.002
				c0.061,0,0.093,0.016,0.105,0.087c0.024,0.143,0.119,0.224,0.248,0.238c0.123,0.013,0.221-0.042,0.283-0.174
				c0.03-0.064,0.068-0.071,0.127-0.055c0.119,0.035,0.238,0.07,0.359,0.099c0.072,0.018,0.097,0.048,0.093,0.129
				c-0.01,0.196,0.15,0.33,0.336,0.294c0.068-0.013,0.128-0.044,0.165-0.103c0.033-0.052,0.068-0.062,0.121-0.03
				c0.121,0.074,0.244,0.144,0.366,0.216c0.044,0.026,0.058,0.057,0.034,0.11c-0.031,0.071-0.029,0.149-0.001,0.221
				c0.062,0.155,0.258,0.216,0.402,0.129c0.1-0.061,0.101-0.062,0.185,0.02c0.083,0.081,0.16,0.167,0.244,0.246
				c0.055,0.051,0.06,0.087,0.013,0.155c-0.122,0.174-0.013,0.404,0.194,0.435c0.051,0.007,0.1,0,0.143-0.023
				c0.049-0.028,0.083-0.021,0.11,0.026c0.075,0.13,0.15,0.262,0.226,0.392c0.026,0.045,0.01,0.073-0.03,0.099
				c-0.054,0.035-0.088,0.086-0.105,0.148C20.416,15.214,20.556,15.38,20.768,15.372z"/>
			<path fill-rule="evenodd" clip-rule="evenodd" fill="#38428F" d="M16.453,16.453c-0.071-0.063-0.105-0.145-0.15-0.216
				c-0.209-0.336-0.416-0.672-0.688-0.961c-0.022-0.023-0.036-0.05-0.048-0.079c-0.276-0.62-0.598-1.217-0.912-1.818
				c-0.035-0.066-0.066-0.133-0.109-0.221c0.05,0.025,0.064,0.055,0.082,0.082c0.242,0.376,0.484,0.754,0.727,1.13
				c0.14,0.216,0.282,0.431,0.436,0.638c0.048,0.065,0.081,0.135,0.104,0.212c0.104,0.328,0.268,0.627,0.428,0.929
				c0.039,0.075,0.079,0.149,0.119,0.223C16.453,16.394,16.467,16.416,16.453,16.453z"/>
			<path fill-rule="evenodd" clip-rule="evenodd" fill="#38428F" d="M16.882,16.54c0.072-0.082,0.145-0.163,0.22-0.244
				c0.265-0.281,0.528-0.562,0.734-0.891c0.054-0.084,0.14-0.135,0.214-0.197c0.45-0.375,0.875-0.775,1.308-1.169
				c0.075-0.068,0.15-0.136,0.235-0.213c0.011,0.061-0.032,0.081-0.055,0.105c-0.365,0.405-0.73,0.809-1.097,1.213
				c-0.021,0.023-0.042,0.047-0.061,0.071c-0.174,0.213-0.356,0.411-0.592,0.565c-0.252,0.164-0.461,0.387-0.682,0.592
				c-0.067,0.063-0.138,0.125-0.206,0.188C16.896,16.553,16.889,16.546,16.882,16.54z"/>
			<path fill-rule="evenodd" clip-rule="evenodd" fill="#38438F" d="M13.735,13.843c0.157,0.143,0.313,0.286,0.47,0.43
				c0.382,0.351,0.765,0.701,1.166,1.03c0.041,0.034,0.081,0.068,0.109,0.115c0.197,0.314,0.448,0.582,0.7,0.852
				c0.078,0.083,0.153,0.167,0.223,0.26c-0.067-0.024-0.114-0.073-0.162-0.119c-0.207-0.195-0.413-0.391-0.634-0.568
				c-0.028-0.022-0.054-0.049-0.084-0.065c-0.243-0.134-0.412-0.345-0.587-0.551c-0.355-0.418-0.731-0.82-1.104-1.224
				C13.79,13.958,13.744,13.916,13.735,13.843z"/>
			<path fill-rule="evenodd" clip-rule="evenodd" fill="#38428F" d="M16.93,17.044c0.121,0.09,0.223,0.2,0.333,0.302
				c0.241,0.223,0.485,0.441,0.764,0.618c0.039,0.024,0.07,0.055,0.098,0.09c0.444,0.543,0.926,1.051,1.398,1.569
				c0.028,0.031,0.053,0.063,0.073,0.102c-0.051-0.012-0.083-0.047-0.117-0.08c-0.514-0.47-1.021-0.947-1.56-1.39
				c-0.031-0.025-0.062-0.051-0.083-0.085c-0.217-0.349-0.5-0.643-0.779-0.941c-0.051-0.054-0.1-0.109-0.149-0.164
				C16.916,17.058,16.923,17.051,16.93,17.044z"/>
			<path fill-rule="evenodd" clip-rule="evenodd" fill="#38438F" d="M16.842,16.462c-0.002-0.061,0.029-0.095,0.048-0.132
				c0.151-0.291,0.332-0.571,0.435-0.882c0.097-0.293,0.267-0.536,0.434-0.787c0.311-0.469,0.612-0.945,0.917-1.418
				c0.017-0.026,0.036-0.05,0.057-0.077c0.029,0.039-0.003,0.061-0.015,0.083c-0.28,0.544-0.575,1.08-0.831,1.636
				c-0.11,0.24-0.248,0.456-0.417,0.657c-0.208,0.249-0.363,0.535-0.538,0.808C16.91,16.388,16.894,16.432,16.842,16.462z"/>
			<path fill-rule="evenodd" clip-rule="evenodd" fill="#38428F" d="M16.351,16.603c-0.035,0.023-0.054-0.002-0.077-0.013
				c-0.296-0.151-0.583-0.319-0.89-0.451c-0.021-0.009-0.039-0.021-0.061-0.026c-0.278-0.077-0.513-0.233-0.746-0.397
				c-0.461-0.323-0.943-0.616-1.417-0.919c-0.036-0.023-0.079-0.039-0.103-0.083c0.047-0.016,0.077,0.017,0.11,0.034
				c0.625,0.326,1.246,0.659,1.889,0.95c0.036,0.017,0.072,0.033,0.103,0.062c0.297,0.284,0.65,0.491,0.996,0.708
				C16.223,16.509,16.292,16.546,16.351,16.603z"/>
			<path fill-rule="evenodd" clip-rule="evenodd" fill="#38438F" d="M13.697,19.72c0.112-0.123,0.224-0.245,0.336-0.368
				c0.388-0.426,0.782-0.846,1.146-1.294c0.027-0.035,0.058-0.067,0.095-0.091c0.322-0.201,0.597-0.458,0.872-0.716
				c0.08-0.076,0.163-0.15,0.246-0.227c0.029,0.046-0.011,0.06-0.027,0.078c-0.225,0.251-0.465,0.488-0.672,0.754
				c-0.047,0.059-0.098,0.117-0.134,0.182c-0.072,0.126-0.173,0.222-0.283,0.313c-0.502,0.416-0.974,0.865-1.456,1.303
				C13.786,19.683,13.759,19.719,13.697,19.72z"/>
			<path fill-rule="evenodd" clip-rule="evenodd" fill="#38438F" d="M16.526,16.38c-0.047-0.148-0.093-0.289-0.135-0.431
				c-0.09-0.302-0.192-0.6-0.343-0.877c-0.047-0.086-0.04-0.181-0.056-0.271c-0.118-0.645-0.264-1.283-0.408-1.922
				c-0.007-0.031-0.035-0.064,0.009-0.107c0.039,0.118,0.076,0.228,0.111,0.34c0.183,0.587,0.365,1.175,0.581,1.752
				c0.016,0.041,0.032,0.084,0.033,0.127c0.016,0.419,0.116,0.823,0.213,1.228c0.011,0.043,0.015,0.087,0.02,0.131
				C16.551,16.356,16.541,16.363,16.526,16.38z"/>
			<path fill-rule="evenodd" clip-rule="evenodd" fill="#38428F" d="M16.977,16.618c0.088-0.108,0.21-0.17,0.325-0.243
				c0.293-0.185,0.587-0.368,0.839-0.608c0.033-0.031,0.072-0.052,0.112-0.07c0.639-0.288,1.256-0.621,1.877-0.944
				c0.035-0.018,0.066-0.043,0.108-0.045c0.007,0.046-0.034,0.054-0.058,0.069c-0.606,0.385-1.219,0.762-1.801,1.183
				c-0.021,0.016-0.046,0.029-0.071,0.037c-0.398,0.12-0.759,0.32-1.122,0.515C17.117,16.548,17.046,16.583,16.977,16.618z"/>
			<path fill-rule="evenodd" clip-rule="evenodd" fill="#38428F" d="M16.847,17.104c0.071,0.07,0.11,0.155,0.159,0.233
				c0.207,0.331,0.41,0.664,0.68,0.951c0.024,0.027,0.041,0.057,0.056,0.09c0.275,0.611,0.591,1.202,0.9,1.795
				c0.037,0.07,0.072,0.141,0.11,0.217c-0.058,0.004-0.063-0.043-0.081-0.07c-0.305-0.468-0.607-0.938-0.911-1.408
				c-0.01-0.015-0.02-0.03-0.029-0.044c-0.161-0.224-0.309-0.449-0.396-0.717c-0.104-0.321-0.289-0.608-0.444-0.907
				C16.87,17.202,16.829,17.165,16.847,17.104z"/>
			<path fill-rule="evenodd" clip-rule="evenodd" fill="#37428F" d="M14.581,20.403c0.031-0.144,0.104-0.264,0.168-0.388
				c0.281-0.542,0.57-1.081,0.818-1.64c0.015-0.033,0.034-0.062,0.058-0.088c0.262-0.28,0.463-0.604,0.664-0.928
				c0.049-0.078,0.089-0.163,0.161-0.236c0.017,0.063-0.021,0.1-0.042,0.14c-0.158,0.302-0.343,0.594-0.447,0.919
				c-0.088,0.273-0.254,0.493-0.409,0.724c-0.293,0.438-0.576,0.883-0.856,1.33C14.658,20.291,14.619,20.347,14.581,20.403z"/>
			<path fill-rule="evenodd" clip-rule="evenodd" fill="#38438F" d="M17.71,12.79c0.032,0.052,0.018,0.082,0.011,0.111
				c-0.123,0.521-0.236,1.045-0.343,1.571c-0.01,0.047-0.016,0.096-0.023,0.144c-0.039,0.254-0.106,0.498-0.223,0.731
				c-0.136,0.274-0.206,0.575-0.297,0.867c-0.018,0.058-0.037,0.116-0.059,0.182c-0.039-0.047-0.021-0.088-0.011-0.126
				c0.09-0.366,0.188-0.731,0.211-1.108c0.013-0.208,0.084-0.396,0.152-0.587c0.19-0.534,0.354-1.077,0.525-1.617
				C17.67,12.907,17.688,12.858,17.71,12.79z"/>
			<path fill-rule="evenodd" clip-rule="evenodd" fill="#38438F" d="M20.243,18.857c-0.058,0.004-0.092-0.026-0.13-0.046
				c-0.604-0.316-1.206-0.637-1.827-0.919c-0.069-0.033-0.129-0.074-0.187-0.125c-0.287-0.26-0.619-0.457-0.946-0.661
				c-0.068-0.043-0.142-0.083-0.189-0.159c0.1,0.052,0.201,0.104,0.3,0.156c0.34,0.18,0.68,0.364,1.051,0.475
				c0.024,0.008,0.048,0.022,0.069,0.038c0.567,0.412,1.166,0.775,1.754,1.154C20.174,18.793,20.214,18.81,20.243,18.857z"/>
			<path fill-rule="evenodd" clip-rule="evenodd" fill="#38438F" d="M15.564,20.782c0.037-0.167,0.074-0.335,0.112-0.502
				c0.125-0.558,0.252-1.114,0.34-1.68c0.005-0.031,0.011-0.061,0.026-0.088c0.197-0.361,0.31-0.753,0.426-1.144
				c0.017-0.058,0.039-0.114,0.068-0.169c0.021,0.061,0.003,0.116-0.011,0.174c-0.067,0.29-0.154,0.576-0.174,0.872
				c-0.019,0.283-0.091,0.548-0.189,0.811c-0.167,0.453-0.306,0.916-0.449,1.377c-0.037,0.12-0.078,0.24-0.117,0.359
				C15.586,20.788,15.575,20.785,15.564,20.782z"/>
			<path fill-rule="evenodd" clip-rule="evenodd" fill="#394390" d="M16.77,17.152c0.051,0.159,0.096,0.292,0.135,0.426
				c0.093,0.316,0.198,0.626,0.354,0.917c0.019,0.037,0.025,0.074,0.032,0.114c0.092,0.542,0.208,1.079,0.329,1.616
				c0.035,0.151,0.07,0.302,0.104,0.454c0.007,0.029,0.022,0.059-0.019,0.093c-0.035-0.108-0.069-0.21-0.102-0.313
				c-0.177-0.568-0.347-1.138-0.563-1.691c-0.051-0.129-0.047-0.261-0.062-0.392c-0.041-0.354-0.126-0.698-0.205-1.044
				C16.762,17.282,16.745,17.233,16.77,17.152z"/>
			<path fill-rule="evenodd" clip-rule="evenodd" fill="#38428F" d="M16.352,16.979c-0.156,0.099-0.312,0.199-0.47,0.297
				c-0.252,0.159-0.499,0.324-0.716,0.53c-0.043,0.042-0.096,0.063-0.148,0.086c-0.617,0.283-1.217,0.602-1.818,0.916
				c-0.035,0.019-0.071,0.034-0.107,0.049c-0.006,0.002-0.016-0.004-0.028-0.007c0.048-0.055,0.113-0.085,0.172-0.122
				c0.568-0.363,1.143-0.716,1.689-1.113c0.024-0.018,0.053-0.032,0.083-0.041c0.389-0.119,0.742-0.315,1.099-0.504
				c0.077-0.041,0.155-0.08,0.232-0.119C16.342,16.961,16.347,16.97,16.352,16.979z"/>
			<path fill-rule="evenodd" clip-rule="evenodd" fill="#38438F" d="M16.637,20.897c-0.005-0.099-0.01-0.185-0.013-0.271
				c-0.019-0.549-0.051-1.099-0.084-1.647c-0.001-0.027-0.005-0.053-0.01-0.079c-0.021-0.137-0.025-0.269,0.006-0.408
				c0.058-0.251,0.068-0.51,0.083-0.766c0.008-0.146,0.007-0.293,0.012-0.439c0-0.029-0.005-0.06,0.027-0.099
				c0.021,0.07,0.015,0.125,0.019,0.18c0.014,0.257,0.026,0.514,0.044,0.771c0.01,0.132,0.024,0.265,0.062,0.394
				c0.04,0.137,0.01,0.274-0.005,0.41c-0.032,0.291-0.04,0.583-0.056,0.876c-0.019,0.327-0.031,0.656-0.047,0.984
				C16.672,20.83,16.679,20.862,16.637,20.897z"/>
			<path fill-rule="evenodd" clip-rule="evenodd" fill="#38438F" d="M16.656,12.68c0.021,0.032,0.017,0.067,0.019,0.1
				c0.027,0.559,0.054,1.117,0.083,1.675c0.006,0.124,0.023,0.247,0.037,0.371c0.007,0.058,0.008,0.114-0.006,0.172
				c-0.067,0.282-0.085,0.569-0.095,0.857c-0.006,0.137-0.013,0.274-0.02,0.412c-0.003,0.037,0.001,0.077-0.024,0.125
				c-0.028-0.055-0.02-0.103-0.021-0.149c-0.01-0.364-0.01-0.729-0.082-1.086c-0.039-0.191-0.025-0.376-0.01-0.566
				c0.031-0.398,0.041-0.797,0.067-1.196c0.014-0.208,0.015-0.417,0.026-0.625C16.632,12.742,16.616,12.708,16.656,12.68z"/>
			<path fill-rule="evenodd" clip-rule="evenodd" fill="#38428F" d="M16.325,16.684c-0.065,0.021-0.099,0.009-0.133,0.001
				c-0.338-0.075-0.673-0.162-1.016-0.21c-0.031-0.004-0.062-0.014-0.092-0.012c-0.205,0.014-0.391-0.059-0.579-0.127
				c-0.537-0.196-1.084-0.362-1.631-0.532c-0.054-0.017-0.108-0.03-0.159-0.06c0.031-0.039,0.063-0.021,0.094-0.014
				c0.398,0.089,0.795,0.182,1.194,0.266c0.26,0.054,0.52,0.112,0.784,0.145c0.062,0.008,0.121,0.025,0.177,0.055
				c0.292,0.154,0.604,0.255,0.918,0.35C16.021,16.585,16.159,16.631,16.325,16.684z"/>
			<path fill-rule="evenodd" clip-rule="evenodd" fill="#38438F" d="M20.591,15.721c-0.123,0.082-0.256,0.113-0.386,0.153
				c-0.545,0.171-1.091,0.339-1.625,0.543c-0.042,0.016-0.082,0.031-0.128,0.032c-0.456,0.012-0.892,0.14-1.333,0.234
				c-0.035,0.008-0.067,0.021-0.113,0.005c0.109-0.063,0.225-0.085,0.335-0.119c0.348-0.106,0.693-0.215,1.019-0.383
				c0.14-0.072,0.302-0.063,0.452-0.095c0.36-0.078,0.721-0.148,1.08-0.225c0.212-0.045,0.423-0.098,0.634-0.145
				C20.546,15.717,20.569,15.721,20.591,15.721z"/>
			<path fill-rule="evenodd" clip-rule="evenodd" fill="#38438F" d="M12.711,17.833c0.144-0.072,0.278-0.1,0.408-0.14
				c0.541-0.17,1.083-0.335,1.611-0.541c0.092-0.036,0.184-0.028,0.275-0.036c0.346-0.029,0.681-0.116,1.018-0.19
				c0.094-0.021,0.188-0.041,0.285-0.053c-0.094,0.062-0.203,0.087-0.308,0.119c-0.361,0.109-0.722,0.218-1.056,0.396
				c-0.108,0.058-0.232,0.054-0.35,0.074c-0.437,0.078-0.868,0.175-1.3,0.271c-0.147,0.033-0.294,0.066-0.441,0.1
				C12.814,17.843,12.776,17.852,12.711,17.833z"/>
			<path fill-rule="evenodd" clip-rule="evenodd" fill="#38428F" d="M17.015,16.865c0.21,0.048,0.421,0.098,0.632,0.144
				c0.26,0.056,0.521,0.109,0.788,0.111c0.051,0,0.095,0.015,0.141,0.033c0.405,0.158,0.819,0.288,1.232,0.42
				c0.219,0.07,0.44,0.136,0.659,0.206c0.037,0.012,0.078,0.017,0.113,0.053c-0.042,0.023-0.081,0.013-0.12,0.004
				c-0.35-0.079-0.7-0.158-1.051-0.234c-0.303-0.066-0.606-0.131-0.914-0.172c-0.054-0.007-0.103-0.025-0.15-0.05
				c-0.303-0.161-0.628-0.264-0.955-0.363c-0.13-0.039-0.259-0.083-0.387-0.124C17.008,16.884,17.012,16.875,17.015,16.865z"/>
			<path fill-rule="evenodd" clip-rule="evenodd" fill="#38428F" d="M17.098,16.806c0.063-0.062,0.114-0.045,0.161-0.047
				c0.296-0.011,0.594-0.007,0.889-0.054c0.057-0.009,0.115-0.015,0.17-0.031c0.208-0.06,0.415-0.014,0.621,0.001
				c0.549,0.042,1.098,0.067,1.647,0.084c0.042,0.001,0.088-0.01,0.141,0.043c-0.076,0.005-0.133,0.013-0.192,0.014
				c-0.604,0.013-1.206,0.048-1.808,0.099c-0.143,0.012-0.279,0.009-0.42-0.019c-0.279-0.057-0.562-0.073-0.847-0.077
				C17.347,16.817,17.231,16.811,17.098,16.806z"/>
			<path fill-rule="evenodd" clip-rule="evenodd" fill="#38428F" d="M12.591,16.804c0.042-0.059,0.09-0.043,0.132-0.045
				c0.283-0.012,0.567-0.019,0.851-0.035c0.354-0.02,0.707-0.046,1.061-0.073c0.106-0.008,0.211-0.005,0.316,0.017
				c0.366,0.08,0.739,0.081,1.111,0.091c0.069,0.001,0.069,0.001,0.136,0.039c-0.086,0.02-0.169,0.019-0.252,0.02
				c-0.378,0.003-0.753,0.027-1.123,0.112c-0.097,0.022-0.193-0.015-0.29-0.021c-0.566-0.041-1.133-0.077-1.7-0.091
				C12.755,16.816,12.679,16.809,12.591,16.804z"/>
		</g>
	</g>
</g>
<g id="Imagenes">
</g>
<g id="Cintillos">
</g>
<g id="Botones">
</g>
<g id="TXT">
</g>
<g id="Logo">
</g>
<g id="Guia">
</g>
</svg>
