<?xml version="1.0" encoding="utf-8"?>
<!-- Generator: Adobe Illustrator 16.0.0, SVG Export Plug-In . SVG Version: 6.00 Build 0)  -->
<!DOCTYPE svg PUBLIC "-//W3C//DTD SVG 1.1//EN" "http://www.w3.org/Graphics/SVG/1.1/DTD/svg11.dtd">
<svg version="1.1" xmlns="http://www.w3.org/2000/svg" xmlns:xlink="http://www.w3.org/1999/xlink" x="0px" y="0px"
	 width="34.417px" height="34.25px" viewBox="0 0 34.417 34.25" enable-background="new 0 0 34.417 34.25" xml:space="preserve">
<g id="Soporte">
</g>
<g id="Publicidad">
</g>
<g id="Iconos">
	<g>
		<defs>
			<circle id="SVGID_61_" cx="-19.217" cy="17.028" r="15.917"/>
		</defs>
		<clipPath id="SVGID_2_">
			<use xlink:href="#SVGID_61_"  overflow="visible"/>
		</clipPath>
		<g clip-path="url(#SVGID_2_)">
			<path fill-rule="evenodd" clip-rule="evenodd" fill="#FEFEFE" d="M-48.952,22.153c0-3.81,0-7.619,0-11.429
				c0.214,0,0.43-0.006,0.645,0.002c0.118,0.005,0.183-0.017,0.158-0.151c-0.019-0.101,0.028-0.124,0.125-0.123
				c0.72,0.004,1.439,0.004,2.159,0c0.092-0.001,0.125,0.024,0.118,0.117c-0.003,0.049-0.033,0.116,0.029,0.15
				c0.11,0.061,0.238-0.015,0.232-0.142c-0.004-0.098,0.025-0.126,0.125-0.125c0.715,0.004,1.429,0.004,2.145,0
				c0.104-0.001,0.15,0.026,0.132,0.132c-0.019,0.11,0.021,0.146,0.136,0.144c0.109-0.002,0.144-0.036,0.127-0.137
				c-0.021-0.115,0.032-0.14,0.142-0.139c0.705,0.006,1.409,0.005,2.115,0.001c0.102-0.001,0.167,0.012,0.144,0.135
				c-0.022,0.113,0.028,0.141,0.139,0.141c0.109-0.001,0.145-0.036,0.126-0.136c-0.02-0.115,0.03-0.141,0.141-0.14
				c0.709,0.006,1.419,0.006,2.129,0c0.104,0,0.148,0.027,0.13,0.133c-0.02,0.11,0.022,0.141,0.136,0.145
				c0.125,0.003,0.145-0.048,0.131-0.148c-0.014-0.095,0.017-0.129,0.12-0.129c0.72,0.006,1.439,0.006,2.16,0
				c0.102,0,0.134,0.033,0.121,0.127c-0.016,0.1,0.006,0.148,0.13,0.15c0.132,0.002,0.153-0.053,0.137-0.156
				c-0.017-0.105,0.036-0.12,0.127-0.12c0.715,0.004,1.431,0.005,2.145-0.001c0.106,0,0.146,0.03,0.128,0.134
				c-0.019,0.11,0.022,0.142,0.135,0.144c0.12,0.001,0.151-0.04,0.133-0.146c-0.018-0.106,0.025-0.132,0.13-0.132
				c0.71,0.006,1.42,0.006,2.129,0.001c0.107-0.001,0.165,0.017,0.142,0.136c-0.022,0.112,0.025,0.142,0.137,0.14
				c0.102-0.002,0.151-0.024,0.131-0.132c-0.023-0.125,0.038-0.145,0.148-0.144c0.7,0.005,1.399,0.005,2.1-0.001
				c0.124-0.001,0.175,0.031,0.151,0.156c-0.02,0.107,0.037,0.121,0.127,0.119c0.088-0.001,0.165,0.001,0.141-0.122
				c-0.024-0.128,0.033-0.154,0.155-0.153c0.699,0.006,1.399,0.006,2.099,0c0.118-0.001,0.167,0.03,0.145,0.148
				c-0.02,0.113,0.039,0.126,0.136,0.127c0.102,0.001,0.151-0.024,0.133-0.132c-0.02-0.107,0.016-0.145,0.134-0.144
				c0.71,0.006,1.419,0.006,2.129,0c0.117-0.001,0.153,0.037,0.136,0.144c-0.02,0.108,0.028,0.134,0.131,0.132
				c0.098-0.001,0.155-0.019,0.134-0.13c-0.022-0.122,0.036-0.146,0.148-0.146c0.701,0.006,1.4,0.005,2.101,0.001
				c0.108-0.001,0.175,0.016,0.151,0.143c-0.019,0.107,0.029,0.132,0.131,0.132c0.103,0,0.151-0.024,0.132-0.132
				c-0.023-0.127,0.044-0.144,0.152-0.143c0.7,0.004,1.399,0.005,2.099-0.001c0.114,0,0.171,0.023,0.149,0.146
				c-0.021,0.111,0.035,0.128,0.134,0.13c0.102,0.002,0.15-0.023,0.131-0.132c-0.018-0.107,0.018-0.145,0.135-0.144
				c0.71,0.006,1.42,0.005,2.129,0.001c0.099-0.001,0.154,0.016,0.135,0.127c-0.017,0.103,0.01,0.15,0.132,0.149
				c0.115-0.002,0.154-0.036,0.135-0.145c-0.019-0.105,0.026-0.133,0.131-0.133c0.71,0.006,1.419,0.006,2.129,0
				c0.108,0,0.163,0.021,0.14,0.137c-0.024,0.119,0.035,0.137,0.141,0.139c0.109,0.001,0.145-0.035,0.126-0.136
				c-0.02-0.112,0.025-0.141,0.138-0.14c0.71,0.006,1.42,0.005,2.13,0.001c0.1-0.001,0.152,0.018,0.133,0.128
				c-0.018,0.102,0.008,0.151,0.131,0.147c0.11-0.002,0.159-0.026,0.137-0.14c-0.023-0.119,0.035-0.137,0.141-0.136
				c0.709,0.005,1.42,0.005,2.13-0.001c0.104,0,0.148,0.025,0.13,0.132c-0.018,0.104,0.013,0.146,0.132,0.146
				c0.114-0.002,0.155-0.034,0.136-0.144c-0.018-0.104,0.021-0.134,0.128-0.134c0.714,0.006,1.43,0.006,2.145,0
				c0.109-0.001,0.137,0.035,0.129,0.137c-0.003,0.042-0.031,0.103,0.03,0.132c0.116,0.057,0.239-0.015,0.232-0.142
				c-0.004-0.095,0.02-0.127,0.123-0.127c0.72,0.006,1.439,0.006,2.159,0.001c0.103-0.001,0.133,0.034,0.12,0.127
				c-0.015,0.1,0.005,0.152,0.131,0.149c0.113-0.003,0.155-0.035,0.136-0.145c-0.018-0.104,0.025-0.133,0.13-0.133
				c0.71,0.006,1.42,0.006,2.13,0c0.11-0.001,0.161,0.025,0.141,0.14c-0.019,0.1,0.018,0.136,0.126,0.136
				c0.111,0,0.159-0.026,0.14-0.141c-0.018-0.102,0.021-0.136,0.129-0.136c0.714,0.006,1.43,0.005,2.144,0.001
				c0.097-0.001,0.14,0.022,0.127,0.124c-0.012,0.092-0.004,0.156,0.126,0.153c0.114-0.003,0.154-0.035,0.136-0.145
				C5.154,10.48,5.2,10.453,5.304,10.454c0.716,0.004,1.43,0.004,2.145,0c0.099-0.001,0.137,0.027,0.123,0.125
				c-0.015,0.099,0.005,0.153,0.13,0.151c0.115-0.003,0.155-0.034,0.137-0.144c-0.02-0.105,0.025-0.134,0.131-0.133
				c0.704,0.005,1.409,0.005,2.113-0.001c0.123-0.001,0.179,0.026,0.155,0.154c-0.019,0.106,0.038,0.122,0.128,0.12
				c0.224-0.006,0.45-0.002,0.674-0.002c0,3.81,0,7.619,0,11.429c-0.224,0-0.45,0.005-0.674-0.002
				c-0.109-0.005-0.146,0.032-0.127,0.134c0.021,0.115-0.03,0.139-0.14,0.138c-0.71-0.005-1.419-0.004-2.129,0
				c-0.104,0-0.15-0.027-0.131-0.133c0.02-0.11-0.02-0.146-0.136-0.142c-0.103,0.002-0.149,0.027-0.13,0.133
				c0.019,0.111-0.022,0.143-0.137,0.142c-0.705-0.005-1.41-0.005-2.115,0c-0.114,0.001-0.17-0.024-0.148-0.146
				c0.021-0.112-0.035-0.126-0.133-0.128c-0.102-0.001-0.149,0.023-0.13,0.131c0.018,0.107-0.019,0.146-0.136,0.144
				c-0.71-0.005-1.42-0.004-2.129-0.001c-0.1,0.001-0.153-0.018-0.134-0.128c0.018-0.105-0.015-0.146-0.134-0.146
				c-0.122-0.002-0.149,0.043-0.132,0.146c0.019,0.11-0.034,0.13-0.134,0.129c-0.715-0.003-1.43-0.003-2.145,0.001
				c-0.101,0-0.136-0.03-0.122-0.126c0.016-0.101-0.005-0.152-0.13-0.149c-0.11,0.003-0.157,0.027-0.136,0.141
				c0.018,0.102-0.021,0.136-0.128,0.135c-0.715-0.005-1.43-0.005-2.145,0c-0.109,0.001-0.145-0.035-0.126-0.135
				c0.021-0.115-0.029-0.141-0.139-0.14c-0.104,0.001-0.148,0.024-0.129,0.132c0.02,0.106-0.015,0.145-0.133,0.143
				c-0.709-0.005-1.42-0.005-2.13,0c-0.113,0.001-0.157-0.029-0.135-0.14c0.025-0.125-0.042-0.131-0.143-0.134
				c-0.109-0.004-0.145,0.033-0.125,0.134c0.02,0.111-0.021,0.141-0.136,0.14c-0.709-0.005-1.419-0.005-2.129,0
				c-0.117,0.002-0.154-0.033-0.135-0.142c0.02-0.104-0.021-0.135-0.127-0.133c-0.104,0.002-0.165,0.015-0.141,0.135
				c0.022,0.114-0.026,0.14-0.138,0.139c-0.709-0.005-1.42-0.004-2.13,0c-0.101,0-0.151-0.02-0.133-0.129
				c0.018-0.102-0.006-0.151-0.13-0.146c-0.112,0.003-0.158,0.029-0.137,0.142c0.018,0.103-0.021,0.135-0.128,0.134
				c-0.715-0.005-1.429-0.005-2.145,0c-0.11,0.001-0.143-0.036-0.127-0.136c0.016-0.096-0.008-0.143-0.123-0.138
				c-0.099,0.004-0.168,0.01-0.144,0.134c0.022,0.113-0.024,0.141-0.137,0.14c-0.706-0.005-1.411-0.005-2.115,0
				c-0.114,0.001-0.171-0.024-0.148-0.146c0.023-0.113-0.036-0.127-0.133-0.127c-0.102-0.001-0.152,0.021-0.132,0.131
				c0.018,0.107-0.019,0.145-0.136,0.143c-0.71-0.005-1.42-0.005-2.129,0c-0.119,0.002-0.153-0.04-0.135-0.145
				c0.019-0.11-0.033-0.13-0.132-0.13c-0.1,0.001-0.152,0.019-0.133,0.13c0.019,0.104-0.015,0.146-0.134,0.145
				c-0.709-0.005-1.419-0.005-2.129,0c-0.117,0.002-0.153-0.036-0.135-0.143c0.019-0.108-0.031-0.132-0.133-0.131
				c-0.097,0.001-0.155,0.014-0.133,0.127c0.023,0.122-0.032,0.147-0.147,0.146c-0.704-0.005-1.41-0.005-2.114,0
				c-0.113,0.001-0.158-0.027-0.138-0.14c0.019-0.104-0.022-0.134-0.129-0.134c-0.108-0.001-0.16,0.022-0.139,0.138
				c0.019,0.1-0.017,0.137-0.126,0.136c-0.715-0.005-1.43-0.005-2.145,0c-0.106,0.001-0.146-0.031-0.128-0.134
				c0.021-0.112-0.025-0.138-0.136-0.142c-0.125-0.004-0.148,0.044-0.131,0.146c0.018,0.11-0.032,0.13-0.133,0.13
				c-0.715-0.004-1.43-0.004-2.145-0.001c-0.097,0.001-0.136-0.022-0.125-0.123c0.004-0.046,0.028-0.121-0.021-0.137
				c-0.068-0.021-0.151-0.02-0.222-0.003c-0.048,0.012-0.026,0.082-0.022,0.122c0.014,0.109-0.019,0.144-0.136,0.142
				c-0.715-0.005-1.43-0.004-2.145,0c-0.099,0-0.132-0.027-0.123-0.125c0.005-0.045,0.029-0.121-0.021-0.136
				c-0.068-0.021-0.151-0.018-0.221,0c-0.049,0.012-0.027,0.081-0.022,0.121c0.015,0.112-0.024,0.142-0.138,0.141
				c-0.715-0.005-1.43-0.004-2.145,0c-0.104,0.001-0.133-0.035-0.119-0.128c0.014-0.098-0.002-0.149-0.129-0.148
				c-0.129,0.001-0.154,0.049-0.138,0.156c0.013,0.087-0.015,0.12-0.111,0.12c-0.726-0.004-1.451-0.004-2.175-0.001
				c-0.096,0.001-0.121-0.029-0.116-0.119c0.002-0.048,0.034-0.114-0.029-0.147c-0.114-0.059-0.239,0.015-0.232,0.141
				c0.004,0.097-0.022,0.126-0.124,0.126c-0.714-0.004-1.43-0.004-2.145-0.001c-0.099,0.001-0.153-0.019-0.134-0.129
				c0.017-0.103-0.01-0.147-0.132-0.146c-0.119,0.001-0.15,0.04-0.134,0.146c0.014,0.091-0.012,0.131-0.118,0.13
				c-0.72-0.005-1.44-0.005-2.16,0c-0.104,0.001-0.134-0.036-0.121-0.128c0.014-0.1-0.007-0.149-0.13-0.147
				c-0.117,0.001-0.152,0.037-0.133,0.144c0.018,0.107-0.031,0.132-0.133,0.132c-0.715-0.004-1.431-0.004-2.145,0
				c-0.101,0-0.138-0.03-0.123-0.126c0.016-0.1-0.006-0.151-0.131-0.149c-0.113,0.002-0.154,0.033-0.135,0.143
				c0.02,0.105-0.026,0.133-0.131,0.133c-0.705-0.004-1.409-0.005-2.114,0c-0.123,0.002-0.178-0.025-0.154-0.154
				c0.02-0.107-0.039-0.121-0.128-0.118C-48.502,22.156-48.728,22.153-48.952,22.153z M-16.276,19.205
				c0.103,0.04,0.155-0.05,0.218-0.094c1.744-1.237,1.86-3.772,0.237-5.164c-0.374-0.32-0.798-0.546-1.31-0.677
				c0.061,0.052,0.094,0.082,0.129,0.11c1.4,1.17,1.916,3.019,1.313,4.741C-15.826,18.512-16.001,18.885-16.276,19.205
				c0.007,0.007,0.013,0.015,0.019,0.022c0.001-0.002,0.004-0.007,0.003-0.008C-16.262,19.213-16.269,19.209-16.276,19.205z
				 M-21.637,19.205c-0.008,0.004-0.014,0.01-0.021,0.015c-0.001,0.001,0.001,0.005,0.002,0.007
				C-21.648,19.22-21.644,19.211-21.637,19.205c-0.04-0.01-0.052-0.046-0.072-0.074c-1.091-1.53-1-3.726,0.215-5.17
				c0.206-0.246,0.438-0.465,0.716-0.693c-0.401,0.104-0.731,0.261-1.04,0.469c-1.906,1.283-1.887,4.171,0.038,5.424
				C-21.739,19.189-21.702,19.249-21.637,19.205z M-18.57,19.18c-0.001-0.029-0.004-0.052-0.003-0.074
				c0.027-0.699,0.048-1.399,0.084-2.098c0.06-1.144,0.034-2.288,0.041-3.433c0-0.054-0.007-0.093-0.063-0.12
				c-0.154-0.076-0.283-0.188-0.39-0.322c-0.044-0.054-0.07-0.052-0.113,0.001c-0.097,0.121-0.211,0.228-0.351,0.299
				c-0.078,0.039-0.101,0.087-0.102,0.173c-0.019,1.67,0.023,3.339,0.11,5.006c0.01,0.187,0,0.375,0,0.582
				c-0.89-0.678-1.454-1.55-1.664-2.638c-0.21-1.082-0.012-2.104,0.538-3.063c-0.591,0.372-1.193,1.619-1.231,2.535
				c-0.071,1.659,0.646,2.89,2.061,3.746c-0.512,0.189-1.033,0.267-1.572,0.261c0.039,0.022,0.079,0.037,0.12,0.048
				c0.554,0.148,1.113,0.168,1.679,0.074c0.043-0.007,0.119-0.049,0.128,0.018c0.03,0.204,0.2,0.315,0.289,0.479
				c0.035,0.062,0.064,0.062,0.104,0.001c0.067-0.099,0.175-0.184,0.205-0.292c0.077-0.283,0.267-0.191,0.449-0.172
				c0.53,0.055,1.053,0.021,1.561-0.154c-0.537,0.005-1.059-0.073-1.586-0.267c0.769-0.425,1.342-1.013,1.71-1.79
				c0.368-0.78,0.468-1.597,0.299-2.44c-0.166-0.825-0.558-1.527-1.191-2.085C-16.219,15.44-16.856,18.001-18.57,19.18z
				 M-20.043,12.323c-0.082,0.315,0.018,0.579,0.263,0.728c0.229,0.139,0.531,0.113,0.734-0.079
				c0.074-0.072,0.108-0.066,0.181,0.001c0.207,0.195,0.518,0.216,0.747,0.067c0.238-0.154,0.332-0.416,0.245-0.715
				c-0.023,0.049-0.042,0.087-0.062,0.125c-0.136,0.257-0.424,0.373-0.7,0.286c-0.134-0.043-0.23-0.134-0.316-0.239
				c-0.103,0.089-0.189,0.197-0.33,0.24C-19.597,12.833-19.862,12.697-20.043,12.323z"/>
			<path fill-rule="evenodd" clip-rule="evenodd" fill="#249F40" d="M11.039,10.725c-0.224,0-0.45-0.004-0.674,0.002
				c-0.091,0.001-0.147-0.014-0.128-0.12c0.024-0.127-0.032-0.155-0.155-0.154c-0.704,0.006-1.409,0.006-2.113,0.001
				c-0.105-0.001-0.15,0.027-0.131,0.133c0.019,0.11-0.022,0.141-0.137,0.144c-0.125,0.002-0.145-0.052-0.13-0.151
				c0.015-0.098-0.023-0.126-0.123-0.125c-0.715,0.004-1.429,0.004-2.145,0C5.2,10.453,5.154,10.48,5.172,10.585
				c0.019,0.11-0.021,0.141-0.136,0.145c-0.131,0.003-0.139-0.061-0.126-0.153c0.013-0.102-0.031-0.125-0.127-0.124
				c-0.714,0.004-1.43,0.005-2.144-0.001c-0.108,0-0.146,0.034-0.129,0.136c0.02,0.114-0.028,0.141-0.14,0.141
				c-0.108,0-0.145-0.036-0.126-0.136c0.02-0.115-0.03-0.141-0.141-0.14c-0.71,0.006-1.42,0.006-2.13,0
				c-0.104,0-0.147,0.028-0.13,0.133c0.02,0.11-0.022,0.141-0.136,0.145c-0.126,0.003-0.146-0.049-0.131-0.149
				c0.013-0.094-0.018-0.128-0.12-0.127c-0.72,0.005-1.439,0.005-2.159-0.001c-0.103,0-0.127,0.033-0.123,0.127
				c0.006,0.127-0.116,0.199-0.232,0.142c-0.061-0.03-0.034-0.09-0.03-0.132c0.008-0.102-0.02-0.138-0.129-0.137
				c-0.715,0.006-1.431,0.006-2.145,0c-0.107,0-0.146,0.03-0.128,0.134c0.019,0.11-0.022,0.142-0.136,0.144
				c-0.119,0.001-0.15-0.041-0.132-0.146c0.019-0.106-0.025-0.132-0.13-0.132c-0.71,0.006-1.42,0.006-2.13,0.001
				c-0.105-0.001-0.164,0.017-0.141,0.136c0.022,0.113-0.027,0.137-0.137,0.14c-0.123,0.004-0.148-0.045-0.131-0.147
				c0.019-0.111-0.033-0.129-0.133-0.128c-0.71,0.004-1.419,0.005-2.13-0.001c-0.112-0.001-0.157,0.028-0.138,0.14
				c0.019,0.102-0.017,0.137-0.126,0.136c-0.106-0.002-0.165-0.02-0.141-0.139c0.023-0.116-0.032-0.137-0.14-0.137
				c-0.709,0.006-1.419,0.006-2.129,0c-0.104,0-0.149,0.027-0.131,0.133c0.02,0.109-0.02,0.143-0.135,0.145
				c-0.122,0.001-0.149-0.046-0.132-0.149c0.019-0.112-0.036-0.128-0.135-0.127c-0.709,0.004-1.419,0.005-2.129-0.001
				c-0.117-0.001-0.153,0.037-0.135,0.144c0.019,0.108-0.029,0.134-0.131,0.132c-0.099-0.001-0.155-0.019-0.134-0.13
				c0.021-0.123-0.036-0.146-0.149-0.146c-0.7,0.006-1.399,0.005-2.099,0.001c-0.108-0.001-0.175,0.016-0.152,0.143
				c0.019,0.107-0.029,0.132-0.132,0.132c-0.102,0-0.15-0.024-0.131-0.132c0.023-0.127-0.043-0.144-0.151-0.143
				c-0.7,0.004-1.4,0.005-2.101-0.001c-0.112,0-0.17,0.024-0.148,0.146c0.021,0.111-0.037,0.128-0.134,0.13
				c-0.103,0.002-0.15-0.023-0.131-0.132c0.018-0.107-0.019-0.145-0.136-0.144c-0.71,0.006-1.419,0.006-2.129,0
				c-0.118-0.001-0.154,0.037-0.134,0.144c0.018,0.107-0.031,0.133-0.133,0.132c-0.097-0.001-0.155-0.014-0.136-0.127
				c0.022-0.118-0.027-0.149-0.145-0.148c-0.7,0.006-1.4,0.006-2.099,0c-0.122-0.001-0.179,0.025-0.155,0.153
				c0.024,0.123-0.053,0.12-0.141,0.122c-0.09,0.002-0.147-0.012-0.127-0.119c0.023-0.125-0.027-0.157-0.151-0.156
				c-0.7,0.006-1.4,0.006-2.1,0.001c-0.111-0.001-0.172,0.019-0.148,0.144c0.021,0.107-0.029,0.129-0.131,0.132
				c-0.111,0.002-0.159-0.027-0.137-0.14c0.023-0.119-0.035-0.137-0.142-0.136c-0.709,0.005-1.419,0.005-2.129-0.001
				c-0.104,0-0.148,0.025-0.13,0.132c0.019,0.105-0.013,0.146-0.133,0.146c-0.113-0.002-0.154-0.034-0.135-0.144
				c0.018-0.104-0.022-0.134-0.128-0.134c-0.714,0.006-1.429,0.005-2.145,0.001c-0.091,0-0.144,0.015-0.127,0.12
				c0.016,0.104-0.005,0.158-0.137,0.156c-0.124-0.002-0.146-0.05-0.13-0.15c0.014-0.095-0.019-0.127-0.121-0.127
				c-0.72,0.006-1.44,0.006-2.16,0c-0.103,0-0.133,0.035-0.12,0.129c0.014,0.1-0.005,0.151-0.131,0.148
				c-0.114-0.003-0.156-0.035-0.136-0.145c0.018-0.105-0.025-0.133-0.13-0.133c-0.71,0.006-1.42,0.006-2.129,0
				c-0.111-0.001-0.161,0.025-0.141,0.14c0.019,0.1-0.017,0.135-0.126,0.136c-0.111,0-0.161-0.027-0.139-0.141
				c0.023-0.123-0.042-0.136-0.144-0.135c-0.706,0.004-1.41,0.005-2.115-0.001c-0.109-0.001-0.162,0.024-0.142,0.139
				c0.017,0.101-0.018,0.135-0.127,0.137c-0.115,0.002-0.154-0.034-0.136-0.144c0.018-0.105-0.028-0.133-0.132-0.132
				c-0.715,0.004-1.43,0.004-2.145,0c-0.1-0.001-0.129,0.027-0.125,0.125c0.006,0.126-0.123,0.203-0.232,0.142
				c-0.063-0.034-0.032-0.101-0.029-0.15c0.007-0.093-0.026-0.118-0.118-0.117c-0.72,0.004-1.439,0.004-2.159,0
				c-0.096-0.001-0.144,0.022-0.125,0.123c0.025,0.134-0.04,0.156-0.158,0.151c-0.215-0.009-0.43-0.002-0.645-0.002
				c0-3.764,0-7.527-0.003-11.292c0-0.109,0.019-0.14,0.136-0.14c19.908,0.003,39.817,0.003,59.726,0
				c0.117,0,0.135,0.032,0.135,0.14C11.039,3.197,11.039,6.96,11.039,10.725z M-17.096,10.188c0.186,0,0.371-0.005,0.555,0.001
				c0.091,0.004,0.121-0.021,0.119-0.116c-0.005-0.365-0.005-0.729,0.001-1.095c0.001-0.105-0.039-0.123-0.13-0.122
				c-0.092,0-0.146,0.007-0.143,0.125c0.009,0.275-0.002,0.551,0.006,0.825c0.003,0.115-0.055,0.114-0.137,0.115
				c-0.088,0.002-0.135-0.009-0.133-0.118c0.009-0.28-0.002-0.561,0.006-0.839c0.003-0.126-0.074-0.101-0.146-0.105
				c-0.079-0.005-0.129,0.002-0.125,0.107c0.007,0.28-0.005,0.56,0.005,0.84c0.004,0.116-0.053,0.117-0.136,0.116
				c-0.078-0.002-0.143,0.012-0.139-0.111c0.011-0.269-0.002-0.54,0.006-0.81c0.002-0.106-0.018-0.146-0.137-0.146
				c-0.117,0-0.146,0.038-0.135,0.146c0.009,0.089-0.005,0.18,0.003,0.269c0.01,0.103-0.031,0.125-0.127,0.124
				c-0.274-0.005-0.55,0.001-0.824-0.003c-0.09-0.002-0.125,0.022-0.121,0.117c0.007,0.19,0.007,0.38,0,0.57
				c-0.004,0.098,0.035,0.117,0.122,0.114c0.186-0.006,0.371-0.009,0.555,0.001c0.112,0.005,0.128-0.038,0.128-0.136
				c0-0.099-0.019-0.148-0.13-0.136c-0.089,0.009-0.18-0.004-0.27,0.003c-0.095,0.007-0.143-0.011-0.142-0.126
				c0-0.114,0.035-0.152,0.146-0.141c0.084,0.008,0.17,0.001,0.254,0.002c0.13,0.002,0.299-0.042,0.379,0.022
				c0.083,0.068,0.018,0.244,0.027,0.373c0,0.015,0.001,0.031,0,0.045c-0.01,0.071,0.018,0.095,0.091,0.094
				C-17.476,10.186-17.286,10.188-17.096,10.188z M-11.766,10.188c0.18,0,0.36-0.005,0.54,0.001
				c0.101,0.005,0.137-0.019,0.135-0.129c-0.007-0.354-0.005-0.709,0-1.064c0-0.093-0.005-0.146-0.125-0.142
				c-0.101,0.005-0.153,0.015-0.147,0.137c0.01,0.259,0.001,0.52,0.005,0.779c0.001,0.095,0.001,0.154-0.129,0.155
				c-0.136,0.001-0.14-0.061-0.139-0.162c0.005-0.26-0.003-0.52,0.005-0.779c0.003-0.113-0.043-0.127-0.139-0.129
				c-0.106-0.002-0.135,0.03-0.133,0.135c0.007,0.27-0.004,0.54,0.005,0.81c0.004,0.122-0.058,0.118-0.146,0.123
				c-0.102,0.005-0.125-0.032-0.123-0.127c0.005-0.28-0.003-0.56,0.003-0.84c0.002-0.117-0.07-0.095-0.137-0.096
				c-0.069-0.001-0.144-0.018-0.134,0.099c0.009,0.099-0.004,0.2,0.004,0.299c0.009,0.106-0.03,0.137-0.134,0.134
				c-0.275-0.006-0.55-0.001-0.825-0.002c-0.062,0-0.118-0.005-0.115,0.089c0.005,0.21,0.003,0.42,0.001,0.63
				c-0.001,0.056,0.018,0.081,0.077,0.08c0.219-0.002,0.439,0,0.659-0.001c0.03,0,0.055-0.002,0.067-0.041
				c0.047-0.141-0.009-0.226-0.155-0.226c-0.09,0-0.18-0.007-0.27,0.001c-0.098,0.009-0.12-0.034-0.112-0.122
				c0.006-0.071-0.022-0.152,0.104-0.146c0.199,0.008,0.399,0.005,0.599,0.001c0.079-0.002,0.105,0.028,0.103,0.105
				c-0.005,0.109,0.003,0.22-0.003,0.329c-0.004,0.081,0.025,0.103,0.103,0.101C-12.136,10.185-11.95,10.188-11.766,10.188z
				 M-43.76,10.188c0.18,0,0.36-0.005,0.539,0.001c0.1,0.004,0.141-0.018,0.138-0.129c-0.006-0.36-0.007-0.72,0.001-1.079
				c0.001-0.119-0.052-0.125-0.144-0.125c-0.094-0.002-0.131,0.02-0.128,0.123c0.008,0.27-0.002,0.54,0.006,0.809
				c0.002,0.105-0.03,0.136-0.135,0.134c-0.096-0.001-0.142-0.014-0.138-0.127c0.009-0.274-0.004-0.55,0.006-0.824
				c0.004-0.12-0.059-0.113-0.138-0.114c-0.081-0.001-0.14-0.004-0.137,0.114c0.01,0.279-0.003,0.56,0.007,0.838
				c0.004,0.123-0.063,0.109-0.14,0.111c-0.081,0.001-0.14,0.004-0.135-0.113c0.01-0.274-0.002-0.55,0.006-0.824
				c0.004-0.113-0.04-0.128-0.137-0.128c-0.099,0-0.149,0.019-0.135,0.13c0.009,0.074-0.008,0.152,0.004,0.225
				c0.027,0.161-0.046,0.189-0.189,0.183c-0.254-0.011-0.51-0.001-0.764-0.004c-0.079-0.001-0.119,0.015-0.116,0.106
				c0.006,0.199,0.004,0.399,0,0.599c-0.001,0.07,0.021,0.097,0.094,0.096c0.205-0.004,0.41-0.006,0.614,0
				c0.108,0.004,0.095-0.063,0.09-0.125c-0.004-0.061,0.039-0.151-0.086-0.146c-0.11,0.004-0.22-0.003-0.33,0.002
				c-0.079,0.003-0.112-0.016-0.116-0.105c-0.005-0.119,0.023-0.177,0.155-0.162c0.084,0.01,0.17,0.001,0.255,0.002
				c0.124,0.002,0.291-0.042,0.362,0.021c0.084,0.075,0.02,0.245,0.029,0.374c0.001,0.015,0.002,0.03-0.001,0.044
				c-0.009,0.072,0.021,0.096,0.093,0.095C-44.14,10.186-43.949,10.188-43.76,10.188z M4.909,9.518c0-0.185-0.005-0.37,0.002-0.554
				c0.006-0.125-0.073-0.1-0.146-0.104C4.683,8.853,4.638,8.866,4.641,8.968c0.007,0.28-0.004,0.56,0.005,0.84
				C4.649,9.926,4.588,9.92,4.508,9.921c-0.083,0.001-0.139,0-0.135-0.115c0.01-0.265,0-0.53,0.005-0.794
				c0.003-0.105-0.009-0.159-0.141-0.159c-0.126,0-0.132,0.053-0.13,0.151c0.004,0.265-0.006,0.53,0.004,0.794
				C4.116,9.92,4.06,9.922,3.969,9.922c-0.086,0-0.134-0.007-0.131-0.117c0.008-0.28-0.002-0.56,0.006-0.839
				c0.002-0.106-0.047-0.113-0.126-0.106C3.649,8.865,3.56,8.83,3.571,8.959c0.008,0.104-0.005,0.21,0.003,0.314
				c0.007,0.093-0.025,0.12-0.118,0.118C3.178,9.387,2.897,9.391,2.618,9.39C2.55,9.389,2.504,9.395,2.506,9.483
				c0.004,0.205,0.003,0.41,0.001,0.615c-0.001,0.059,0.012,0.092,0.082,0.092c0.214-0.004,0.43-0.002,0.644-0.001
				c0.049,0.001,0.067-0.016,0.074-0.067C3.327,9.942,3.312,9.92,3.139,9.92c-0.085,0-0.17-0.007-0.255,0.001
				C2.782,9.932,2.77,9.879,2.773,9.797c0.002-0.079-0.005-0.148,0.112-0.144c0.194,0.007,0.39,0.006,0.584,0
				C3.561,9.651,3.577,9.691,3.574,9.77c-0.004,0.104,0.002,0.21-0.002,0.314c-0.003,0.073,0.013,0.107,0.097,0.106
				c0.38-0.004,0.76-0.003,1.14,0c0.077,0,0.104-0.023,0.103-0.102C4.906,9.897,4.909,9.708,4.909,9.518z M-5.758,9.536
				c0-0.18-0.008-0.36,0.003-0.54c0.005-0.113-0.028-0.139-0.14-0.142C-6.02,8.852-6.03,8.902-6.028,9.003
				c0.006,0.265-0.002,0.531,0.004,0.795c0.002,0.099-0.027,0.13-0.125,0.124C-6.233,9.917-6.301,9.93-6.297,9.803
				c0.009-0.274-0.002-0.55,0.006-0.825c0.002-0.104-0.037-0.123-0.129-0.121c-0.091,0.001-0.147,0.005-0.145,0.125
				c0.01,0.274-0.002,0.55,0.006,0.824c0.005,0.114-0.051,0.116-0.134,0.116c-0.086,0-0.137-0.007-0.134-0.118
				c0.008-0.274,0-0.55,0.004-0.824c0-0.086-0.016-0.121-0.114-0.125c-0.123-0.003-0.173,0.029-0.157,0.156
				c0.01,0.079-0.004,0.161,0.004,0.24c0.013,0.114-0.035,0.144-0.144,0.141c-0.27-0.007-0.54,0.002-0.81-0.004
				c-0.093-0.002-0.12,0.027-0.116,0.119c0.006,0.19,0.007,0.38-0.001,0.57c-0.003,0.097,0.032,0.116,0.12,0.113
				c0.18-0.006,0.36-0.006,0.54,0c0.1,0.004,0.153-0.008,0.151-0.133c-0.003-0.115-0.037-0.149-0.146-0.138
				c-0.095,0.009-0.191-0.004-0.285,0.003c-0.084,0.006-0.105-0.022-0.112-0.107c-0.012-0.135,0.035-0.179,0.166-0.162
				c0.074,0.01,0.15-0.003,0.225,0.002c0.132,0.009,0.302-0.06,0.388,0.032c0.078,0.083,0.016,0.248,0.024,0.377
				c0,0.004,0,0.01-0.001,0.015c-0.011,0.083,0.02,0.112,0.107,0.111c0.375-0.004,0.75-0.004,1.125,0
				c0.093,0.001,0.104-0.036,0.103-0.114C-5.762,9.896-5.758,9.716-5.758,9.536z M-32.423,9.526c0-0.186-0.008-0.371,0.003-0.554
				c0.008-0.119-0.055-0.114-0.136-0.114c-0.08,0.001-0.142-0.005-0.138,0.114c0.009,0.27-0.003,0.54,0.006,0.81
				c0.003,0.109-0.024,0.143-0.139,0.144c-0.124,0.002-0.135-0.051-0.133-0.152c0.005-0.264-0.002-0.529,0.004-0.794
				c0.003-0.104-0.035-0.124-0.128-0.122c-0.094,0.001-0.146,0.008-0.143,0.125c0.008,0.274-0.004,0.55,0.005,0.824
				c0.003,0.115-0.054,0.114-0.136,0.115c-0.089,0.002-0.135-0.012-0.132-0.12c0.007-0.274,0.003-0.55,0.002-0.824
				c-0.001-0.04,0.02-0.091-0.039-0.116c-0.127-0.054-0.226,0.01-0.227,0.151c0,0.07-0.008,0.142,0.002,0.21
				c0.021,0.146-0.045,0.175-0.177,0.17c-0.264-0.009-0.528-0.002-0.794-0.003c-0.06,0-0.105,0.002-0.104,0.085
				c0.004,0.209,0.003,0.419,0.001,0.629c-0.002,0.067,0.023,0.086,0.087,0.085c0.21-0.003,0.42-0.006,0.629,0
				c0.11,0.003,0.089-0.069,0.088-0.13c-0.002-0.063,0.028-0.148-0.092-0.142c-0.115,0.006-0.231-0.006-0.344,0.003
				c-0.118,0.01-0.1-0.064-0.1-0.132c0-0.067-0.02-0.14,0.098-0.136c0.194,0.007,0.39,0.007,0.584,0
				c0.104-0.004,0.128,0.04,0.123,0.133c-0.007,0.099,0.003,0.2-0.003,0.299c-0.004,0.077,0.019,0.105,0.099,0.104
				c0.38-0.004,0.76-0.003,1.14,0c0.073,0,0.094-0.024,0.093-0.094C-32.425,9.906-32.423,9.716-32.423,9.526z M-38.431,10.188
				c0.18,0,0.36-0.005,0.54,0.001c0.1,0.005,0.139-0.018,0.137-0.129c-0.008-0.359-0.006-0.719,0-1.079
				c0-0.097-0.026-0.13-0.126-0.125c-0.087,0.004-0.149-0.001-0.146,0.122c0.01,0.274-0.002,0.55,0.005,0.824
				c0.004,0.109-0.044,0.12-0.133,0.119c-0.083,0-0.138-0.003-0.134-0.116c0.008-0.274-0.003-0.55,0.005-0.824
				c0.004-0.119-0.053-0.123-0.144-0.125c-0.095-0.003-0.131,0.021-0.128,0.123c0.007,0.27-0.002,0.54,0.005,0.81
				c0.003,0.106-0.03,0.135-0.134,0.133c-0.097-0.001-0.142-0.015-0.138-0.128c0.008-0.279-0.002-0.56,0.006-0.839
				c0.002-0.118-0.071-0.095-0.139-0.096c-0.068-0.001-0.144-0.02-0.133,0.097c0.008,0.099-0.004,0.2,0.003,0.299
				c0.008,0.103-0.023,0.139-0.131,0.136c-0.275-0.007-0.55,0.001-0.824-0.003c-0.092-0.002-0.123,0.025-0.119,0.119
				c0.007,0.194,0.004,0.389,0,0.584c-0.001,0.068,0.018,0.099,0.093,0.098c0.209-0.004,0.419-0.001,0.629-0.002
				c0.032,0,0.066,0.011,0.083-0.04c0.044-0.143-0.01-0.227-0.154-0.227c-0.09,0-0.181-0.006-0.27,0.001
				c-0.097,0.008-0.122-0.033-0.113-0.122c0.006-0.074-0.018-0.151,0.106-0.146c0.2,0.007,0.399,0.005,0.6,0.001
				c0.081-0.002,0.104,0.03,0.1,0.105c-0.004,0.11,0.004,0.22-0.002,0.33c-0.004,0.081,0.025,0.102,0.103,0.1
				C-38.8,10.185-38.615,10.188-38.431,10.188z M-27.76,10.188c0.186,0,0.37-0.005,0.556,0.001c0.088,0.003,0.121-0.019,0.119-0.114
				c-0.006-0.365-0.007-0.73,0.001-1.094c0.002-0.12-0.051-0.121-0.142-0.125c-0.105-0.004-0.135,0.028-0.131,0.133
				c0.007,0.26-0.001,0.52,0.004,0.78c0.002,0.104-0.008,0.156-0.139,0.157c-0.144,0.002-0.134-0.07-0.133-0.166
				c0.004-0.26-0.003-0.52,0.004-0.779c0.002-0.099-0.027-0.131-0.126-0.125c-0.083,0.005-0.151-0.008-0.147,0.119
				c0.01,0.274-0.001,0.55,0.005,0.824c0.003,0.104-0.034,0.125-0.128,0.123c-0.09-0.002-0.148-0.003-0.145-0.125
				c0.009-0.269-0.002-0.54,0.005-0.809c0.003-0.106-0.028-0.136-0.133-0.134c-0.1,0.002-0.147,0.02-0.137,0.131
				c0.009,0.089-0.004,0.181,0.004,0.27c0.009,0.104-0.026,0.138-0.134,0.135c-0.274-0.007-0.549-0.001-0.824-0.002
				c-0.069-0.001-0.112,0.006-0.109,0.094c0.005,0.205,0.004,0.41,0,0.614c-0.001,0.076,0.027,0.092,0.096,0.091
				c0.204-0.004,0.41-0.006,0.614,0c0.107,0.003,0.094-0.064,0.091-0.128c-0.003-0.063,0.031-0.149-0.09-0.144
				c-0.115,0.005-0.23-0.005-0.345,0.003c-0.117,0.008-0.095-0.067-0.097-0.135c-0.002-0.072-0.01-0.137,0.102-0.133
				c0.199,0.007,0.4,0.004,0.6,0.001c0.071-0.001,0.098,0.025,0.096,0.097c-0.004,0.11,0.004,0.22-0.003,0.33
				c-0.005,0.087,0.028,0.111,0.112,0.109C-28.129,10.185-27.944,10.188-27.76,10.188z M9.561,10.188c0.19,0,0.38-0.005,0.57,0.001
				c0.086,0.003,0.108-0.028,0.108-0.111c-0.003-0.37-0.007-0.74,0.001-1.109c0.002-0.119-0.06-0.109-0.138-0.112
				c-0.088-0.003-0.138,0.008-0.134,0.119c0.008,0.259,0.002,0.519,0.003,0.779c0,0.089,0.022,0.172-0.128,0.17
				C9.707,9.924,9.705,9.864,9.707,9.764c0.005-0.255-0.005-0.51,0.004-0.766c0.003-0.111-0.026-0.145-0.14-0.144
				C9.462,8.856,9.438,8.891,9.44,8.992c0.007,0.27-0.004,0.54,0.005,0.809C9.45,9.927,9.384,9.917,9.298,9.922
				C9.2,9.928,9.171,9.896,9.174,9.797c0.006-0.264-0.002-0.53,0.004-0.794C9.18,8.9,9.164,8.854,9.043,8.854
				C8.927,8.855,8.896,8.891,8.906,8.999C8.916,9.088,8.901,9.18,8.91,9.269c0.01,0.104-0.035,0.125-0.128,0.124
				c-0.275-0.005-0.55,0.001-0.825-0.003C7.869,9.387,7.832,9.408,7.835,9.505c0.007,0.194,0.005,0.389,0.002,0.584
				c-0.001,0.065,0.012,0.102,0.089,0.1c0.21-0.004,0.42-0.006,0.629,0c0.114,0.004,0.084-0.072,0.084-0.131
				c0-0.062,0.034-0.148-0.089-0.141c-0.12,0.007-0.24-0.003-0.36,0.003C8.078,9.926,8.105,9.848,8.104,9.789
				C8.104,9.727,8.084,9.653,8.192,9.655c0.21,0.004,0.42,0.003,0.629,0c0.064,0,0.089,0.023,0.087,0.087
				c-0.004,0.115,0.004,0.231-0.003,0.345c-0.003,0.077,0.02,0.104,0.1,0.103C9.191,10.185,9.376,10.188,9.561,10.188z
				 M-22.433,10.188c0.19,0,0.38-0.004,0.57,0.001c0.083,0.002,0.113-0.021,0.112-0.109c-0.004-0.369-0.007-0.739,0.001-1.109
				c0.002-0.117-0.056-0.113-0.137-0.114c-0.082,0-0.14-0.003-0.136,0.114c0.009,0.274-0.002,0.55,0.006,0.824
				c0.003,0.115-0.046,0.125-0.14,0.127c-0.104,0.004-0.135-0.025-0.132-0.132c0.007-0.27-0.004-0.54,0.005-0.809
				c0.004-0.117-0.047-0.124-0.141-0.126c-0.103-0.003-0.136,0.024-0.133,0.132c0.007,0.274-0.004,0.55,0.006,0.823
				c0.005,0.124-0.062,0.108-0.139,0.11c-0.082,0.001-0.14,0.003-0.136-0.114c0.01-0.28-0.004-0.56,0.006-0.839
				c0.005-0.123-0.061-0.108-0.138-0.111c-0.083-0.002-0.147,0-0.135,0.115c0.01,0.095-0.005,0.191,0.004,0.285
				c0.009,0.104-0.025,0.137-0.132,0.134c-0.274-0.007-0.549-0.001-0.824-0.002c-0.07-0.001-0.111,0.01-0.108,0.096
				c0.005,0.205,0.005,0.41,0,0.614c-0.002,0.077,0.032,0.09,0.098,0.089c0.2-0.003,0.4-0.007,0.6,0
				c0.115,0.006,0.098-0.065,0.097-0.134c-0.001-0.067,0.021-0.145-0.096-0.137c-0.115,0.007-0.23-0.001-0.345,0.003
				c-0.063,0.001-0.085-0.02-0.089-0.085c-0.007-0.12,0.004-0.209,0.162-0.182c0.063,0.011,0.13-0.001,0.194,0.003
				c0.143,0.008,0.324-0.062,0.417,0.029c0.081,0.078,0.025,0.257,0.021,0.391c-0.003,0.098,0.036,0.116,0.123,0.113
				C-22.793,10.185-22.613,10.188-22.433,10.188z M-0.423,9.53c0-0.185-0.009-0.37,0.002-0.554c0.008-0.128-0.064-0.114-0.148-0.119
				c-0.099-0.006-0.127,0.025-0.125,0.125c0.007,0.265-0.001,0.53,0.005,0.794c0.002,0.102-0.01,0.152-0.134,0.149
				c-0.111-0.002-0.144-0.029-0.139-0.142c0.008-0.254,0.001-0.51,0.003-0.765c0.001-0.094,0.014-0.168-0.131-0.165
				c-0.131,0.002-0.143,0.053-0.14,0.158c0.006,0.26-0.003,0.52,0.004,0.78c0.003,0.106-0.028,0.136-0.133,0.132
				C-1.452,9.92-1.501,9.91-1.497,9.796c0.009-0.28-0.002-0.56,0.005-0.84c0.003-0.117-0.069-0.095-0.136-0.096
				c-0.069-0.001-0.144-0.016-0.135,0.099c0.007,0.099-0.005,0.2,0.003,0.3c0.009,0.104-0.027,0.136-0.133,0.133
				c-0.274-0.007-0.55-0.001-0.824-0.003c-0.073,0-0.11,0.014-0.107,0.098c0.005,0.205,0.004,0.41,0.001,0.614
				c-0.001,0.063,0.017,0.089,0.083,0.088c0.21-0.004,0.42-0.001,0.63-0.002c0.033,0,0.066,0.007,0.083-0.04
				c0.048-0.136-0.011-0.227-0.155-0.227c-0.095,0-0.19-0.006-0.284,0.001c-0.109,0.008-0.091-0.065-0.089-0.127
				c0.001-0.064-0.026-0.145,0.093-0.142c0.205,0.006,0.41,0.003,0.614,0c0.065,0,0.089,0.025,0.087,0.088
				c-0.003,0.115,0.003,0.23-0.002,0.345c-0.004,0.077,0.022,0.104,0.102,0.103c0.38-0.003,0.76-0.003,1.14,0
				c0.081,0,0.102-0.028,0.1-0.104C-0.426,9.9-0.423,9.716-0.423,9.53z M-19.768,10.188c0.195,0,0.39-0.003,0.584,0.001
				c0.071,0,0.099-0.02,0.097-0.094c-0.004-0.205-0.004-0.41,0-0.614c0.002-0.076-0.033-0.093-0.1-0.092
				c-0.205,0.001-0.41,0.004-0.615-0.001c-0.125-0.003-0.08,0.085-0.086,0.146c-0.006,0.066-0.012,0.131,0.093,0.124
				c0.114-0.008,0.23,0.002,0.345-0.003c0.115-0.005,0.095,0.073,0.097,0.141c0.001,0.066,0.011,0.129-0.093,0.126
				c-0.206-0.006-0.411-0.006-0.616,0c-0.085,0.002-0.099-0.034-0.095-0.106c0.004-0.105-0.004-0.211,0.002-0.315
				c0.004-0.082-0.019-0.113-0.107-0.112c-0.369,0.004-0.739,0.003-1.109,0c-0.089-0.001-0.125,0.021-0.121,0.116
				c0.007,0.185,0.008,0.37,0,0.554c-0.006,0.108,0.032,0.133,0.134,0.133c0.1-0.001,0.147-0.02,0.136-0.131
				c-0.009-0.099,0.001-0.2-0.003-0.3c-0.002-0.075,0.023-0.108,0.103-0.106c0.2,0.004,0.4,0.005,0.6-0.001
				c0.083-0.001,0.102,0.033,0.098,0.106c-0.003,0.104,0.006,0.211-0.003,0.314c-0.008,0.096,0.03,0.118,0.119,0.115
				C-20.127,10.184-19.947,10.188-19.768,10.188z M5.849,9.391c-0.185,0-0.37,0.004-0.555-0.003
				c-0.102-0.003-0.128,0.034-0.125,0.13c0.007,0.175,0.006,0.349,0.001,0.524c-0.003,0.099,0.006,0.153,0.132,0.151
				c0.116-0.001,0.143-0.036,0.138-0.145C5.436,9.926,5.385,9.766,5.462,9.687c0.084-0.086,0.247-0.025,0.374-0.029
				c0.129-0.005,0.299-0.044,0.378,0.02c0.083,0.068,0.018,0.244,0.026,0.374c0.001,0.014,0.002,0.03,0,0.044
				c-0.009,0.071,0.019,0.094,0.092,0.094c0.384-0.003,0.769-0.002,1.153,0c0.062,0,0.09-0.017,0.089-0.084
				c-0.003-0.21-0.003-0.419,0-0.629C7.575,9.411,7.551,9.389,7.486,9.39C7.277,9.391,7.067,9.391,6.857,9.391
				c-0.034,0-0.066-0.003-0.081,0.044C6.73,9.578,6.785,9.656,6.936,9.656c0.076,0,0.15,0.005,0.225-0.001
				c0.105-0.01,0.148,0.019,0.151,0.137c0.004,0.13-0.06,0.135-0.154,0.129c-0.079-0.005-0.16,0.002-0.239-0.002
				C6.785,9.912,6.609,9.978,6.532,9.891C6.466,9.817,6.505,9.644,6.511,9.516c0.005-0.096-0.022-0.131-0.124-0.128
				C6.208,9.396,6.028,9.391,5.849,9.391z M-41.101,10.188c0.194,0,0.39-0.003,0.584,0.001c0.068,0,0.098-0.018,0.097-0.092
				c-0.004-0.205-0.003-0.409,0-0.615c0.001-0.072-0.025-0.095-0.096-0.093c-0.205,0.002-0.41,0.004-0.614-0.001
				c-0.123-0.003-0.083,0.083-0.087,0.145c-0.005,0.066-0.013,0.131,0.092,0.125c0.114-0.007,0.23,0.002,0.345-0.003
				c0.117-0.003,0.089,0.08,0.093,0.145c0.005,0.07,0.003,0.125-0.097,0.123c-0.2-0.006-0.4-0.004-0.599,0
				c-0.076,0.001-0.109-0.017-0.104-0.099c0.006-0.109-0.003-0.22,0.002-0.329c0.003-0.077-0.02-0.105-0.1-0.104
				c-0.38,0.003-0.759,0.003-1.139,0c-0.081,0-0.102,0.031-0.101,0.106c0.003,0.194,0.009,0.39-0.002,0.584
				c-0.006,0.124,0.065,0.108,0.142,0.11c0.073,0,0.139,0.008,0.129-0.104c-0.009-0.104,0.002-0.21-0.002-0.314
				c-0.003-0.079,0.016-0.119,0.107-0.117c0.199,0.006,0.399,0.006,0.599,0c0.082-0.001,0.102,0.03,0.099,0.104
				c-0.006,0.11,0.003,0.22-0.003,0.33c-0.004,0.078,0.021,0.104,0.1,0.102C-41.47,10.185-41.285,10.188-41.101,10.188z
				 M-46.431,10.188c0.195,0,0.39-0.003,0.585,0.001c0.07,0,0.097-0.02,0.096-0.094c-0.004-0.205-0.004-0.41,0-0.614
				c0.001-0.077-0.033-0.093-0.1-0.092c-0.205,0.001-0.41,0.005-0.614-0.001c-0.124-0.004-0.086,0.081-0.089,0.142
				c-0.002,0.063-0.021,0.134,0.088,0.127c0.114-0.007,0.23,0.003,0.345-0.004c0.11-0.006,0.102,0.063,0.102,0.136
				c0,0.073,0.011,0.137-0.102,0.132c-0.199-0.008-0.4-0.006-0.599,0c-0.092,0.003-0.109-0.035-0.104-0.114
				c0.006-0.104-0.003-0.21,0.003-0.315c0.004-0.076-0.02-0.104-0.1-0.104c-0.375,0.003-0.75,0.003-1.125,0
				c-0.089-0.001-0.109,0.033-0.107,0.114c0.004,0.19,0.006,0.38,0,0.569c-0.004,0.091,0.022,0.116,0.115,0.12
				c0.128,0.006,0.157-0.036,0.155-0.16c-0.007-0.376-0.002-0.379,0.365-0.375c0.138,0.001,0.314-0.061,0.402,0.027
				c0.081,0.081,0.026,0.257,0.022,0.391c-0.003,0.097,0.033,0.117,0.121,0.114C-46.79,10.184-46.61,10.188-46.431,10.188z
				 M1.57,10.188c0.185,0,0.371-0.005,0.555,0.001c0.089,0.003,0.125-0.019,0.121-0.115c-0.008-0.19-0.008-0.381,0-0.57
				C2.25,9.409,2.211,9.386,2.124,9.389c-0.18,0.005-0.36,0.006-0.54,0C1.482,9.384,1.436,9.399,1.436,9.522
				c0,0.121,0.041,0.144,0.146,0.136c0.099-0.008,0.2,0.002,0.3-0.003c0.116-0.006,0.093,0.074,0.095,0.141
				C1.979,9.861,1.99,9.925,1.884,9.922c-0.205-0.006-0.41-0.005-0.615,0C1.187,9.924,1.168,9.89,1.172,9.816
				c0.004-0.11-0.002-0.22,0.002-0.33c0.002-0.068-0.017-0.097-0.091-0.097c-0.38,0.002-0.76,0.003-1.14,0
				C-0.138,9.388-0.16,9.417-0.158,9.494c0.004,0.194,0.01,0.39-0.001,0.584c-0.007,0.122,0.061,0.108,0.138,0.111
				c0.088,0.004,0.137-0.009,0.134-0.119C0.109,9.938,0.052,9.765,0.14,9.682c0.085-0.082,0.256-0.022,0.39-0.025
				c0.119-0.002,0.278-0.039,0.348,0.021c0.082,0.073,0.019,0.236,0.028,0.359c0.001,0.02,0.002,0.041-0.001,0.06
				c-0.009,0.074,0.026,0.093,0.097,0.093C1.19,10.186,1.38,10.188,1.57,10.188z M-9.092,10.188c0.189,0,0.38-0.003,0.569,0.001
				c0.067,0,0.1-0.012,0.099-0.089C-8.43,9.896-8.429,9.69-8.425,9.486c0.001-0.07-0.019-0.098-0.092-0.097
				c-0.205,0.004-0.41,0.005-0.614,0c-0.118-0.004-0.094,0.075-0.096,0.141C-9.228,9.595-9.24,9.663-9.134,9.658
				C-9.02,9.651-8.904,9.662-8.79,9.654c0.118-0.007,0.096,0.072,0.095,0.138c0,0.06,0.025,0.133-0.086,0.13
				c-0.206-0.006-0.41-0.004-0.615,0c-0.071,0-0.098-0.023-0.095-0.095c0.005-0.115-0.001-0.23,0.002-0.344
				C-9.487,9.421-9.504,9.39-9.572,9.39c-0.39,0.001-0.779,0.001-1.169,0c-0.065,0-0.087,0.022-0.086,0.087
				c0.004,0.206,0.008,0.41-0.001,0.615c-0.004,0.118,0.069,0.098,0.136,0.096c0.064-0.001,0.146,0.027,0.136-0.094
				c-0.008-0.113,0.002-0.23-0.002-0.344c-0.003-0.071,0.02-0.097,0.093-0.095c0.205,0.004,0.409,0.003,0.615,0
				c0.069-0.001,0.099,0.025,0.096,0.097c-0.002,0.114,0.003,0.229-0.001,0.344c-0.002,0.073,0.024,0.095,0.094,0.094
				C-9.472,10.186-9.282,10.188-9.092,10.188z M-15.483,9.391c-0.176,0-0.35,0.005-0.525-0.003
				c-0.111-0.004-0.163,0.018-0.153,0.146c0.012,0.174,0.009,0.35,0,0.524c-0.005,0.106,0.03,0.135,0.134,0.134
				c0.096-0.002,0.144-0.015,0.138-0.128c-0.007-0.128-0.058-0.295,0.021-0.377c0.086-0.089,0.256-0.024,0.388-0.029
				c0.125-0.005,0.29-0.042,0.363,0.021c0.085,0.074,0.02,0.245,0.029,0.373c0.001,0.009,0.001,0.02,0,0.029
				c-0.014,0.086,0.023,0.11,0.108,0.109c0.37-0.004,0.739-0.003,1.109,0c0.079,0,0.117-0.013,0.114-0.104
				c-0.006-0.195-0.005-0.39,0-0.584c0.002-0.084-0.023-0.115-0.11-0.112c-0.185,0.005-0.37,0.007-0.554-0.001
				c-0.104-0.004-0.138,0.027-0.136,0.134c0.002,0.098,0.02,0.147,0.13,0.136c0.099-0.009,0.2,0.002,0.3-0.003
				c0.079-0.004,0.101,0.028,0.104,0.104c0.007,0.114-0.01,0.184-0.148,0.164c-0.079-0.011-0.16,0.002-0.24-0.002
				c-0.133-0.007-0.309,0.058-0.386-0.028c-0.065-0.074-0.02-0.247-0.024-0.376c0-0.005-0.001-0.01,0-0.015
				c0.013-0.084-0.022-0.115-0.108-0.112C-15.114,9.394-15.299,9.391-15.483,9.391z M-25.091,10.188c0.19,0,0.38-0.003,0.57,0.001
				c0.076,0.001,0.105-0.021,0.103-0.101c-0.004-0.194-0.006-0.39,0.001-0.584c0.004-0.096-0.033-0.118-0.121-0.115
				c-0.189,0.004-0.379,0.008-0.568-0.001c-0.11-0.005-0.12,0.045-0.118,0.133c0.002,0.083-0.001,0.146,0.114,0.135
				c0.104-0.009,0.21,0.006,0.314-0.003c0.122-0.012,0.109,0.063,0.11,0.141c0,0.074,0.007,0.135-0.104,0.129
				c-0.199-0.008-0.399-0.004-0.599,0c-0.076,0.001-0.108-0.021-0.104-0.101c0.006-0.11-0.002-0.22,0.003-0.33
				c0.005-0.079-0.025-0.102-0.103-0.102c-0.375,0.003-0.749,0.002-1.123,0c-0.075,0-0.107,0.017-0.105,0.1
				c0.005,0.199,0.009,0.4-0.001,0.599c-0.006,0.115,0.061,0.101,0.132,0.101c0.075,0,0.152,0.015,0.14-0.109
				c-0.011-0.109,0.001-0.22-0.003-0.329c-0.002-0.069,0.021-0.099,0.094-0.098c0.199,0.004,0.399,0.004,0.599,0
				c0.078-0.001,0.108,0.023,0.104,0.102c-0.004,0.1,0.005,0.2-0.002,0.3c-0.009,0.101,0.021,0.141,0.13,0.135
				C-25.45,10.182-25.271,10.188-25.091,10.188z M-35.77,10.188c0.195,0,0.39-0.003,0.584,0.001
				c0.069,0.001,0.098-0.017,0.096-0.091c-0.004-0.205-0.004-0.41,0-0.614c0.001-0.072-0.023-0.096-0.095-0.095
				c-0.2,0.003-0.399,0.007-0.6-0.001c-0.107-0.003-0.106,0.054-0.106,0.131c0.001,0.08-0.004,0.149,0.114,0.137
				c0.109-0.01,0.22,0.002,0.33-0.003c0.122-0.004,0.083,0.084,0.089,0.146c0.005,0.067,0.01,0.127-0.094,0.124
				c-0.205-0.007-0.41-0.003-0.614,0c-0.065,0-0.089-0.021-0.087-0.086c0.004-0.11-0.003-0.22,0.002-0.329
				c0.004-0.079-0.014-0.118-0.105-0.117c-0.379,0.003-0.759,0.002-1.139,0.001c-0.067,0-0.098,0.018-0.097,0.093
				c0.004,0.205,0.006,0.409,0,0.614c-0.003,0.124,0.079,0.089,0.142,0.09c0.059,0.002,0.136,0.028,0.129-0.084
				c-0.007-0.11,0.004-0.22-0.003-0.33c-0.007-0.09,0.023-0.124,0.116-0.12c0.189,0.006,0.38,0.007,0.569,0
				c0.104-0.005,0.127,0.039,0.122,0.131c-0.007,0.099,0.003,0.2-0.003,0.299c-0.007,0.089,0.029,0.109,0.111,0.107
				C-36.129,10.185-35.949,10.188-35.77,10.188z M-3.769,10.188c0.194,0,0.39-0.003,0.584,0.001c0.07,0.001,0.096-0.019,0.095-0.093
				c-0.004-0.205-0.004-0.409,0-0.614c0.001-0.074-0.026-0.095-0.095-0.093c-0.205,0.002-0.41,0.004-0.614-0.001
				c-0.101-0.003-0.101,0.055-0.095,0.124c0.004,0.063-0.03,0.148,0.091,0.143c0.114-0.005,0.229,0.005,0.344-0.002
				c0.114-0.008,0.103,0.062,0.1,0.132c-0.003,0.064,0.027,0.142-0.094,0.137c-0.205-0.008-0.41-0.004-0.614,0
				c-0.07,0-0.099-0.021-0.096-0.095c0.005-0.115-0.001-0.229,0.002-0.344C-4.159,9.423-4.172,9.39-4.242,9.39
				c-0.389,0.001-0.778,0.001-1.168,0c-0.055,0-0.081,0.016-0.08,0.077c0.001,0.214,0,0.429,0,0.645
				c0,0.033-0.004,0.064,0.045,0.077c0.152,0.041,0.222-0.006,0.222-0.16c0.001-0.375,0.001-0.377,0.367-0.373
				c0.138,0.002,0.316-0.062,0.403,0.028c0.081,0.082,0.026,0.257,0.022,0.391c-0.002,0.097,0.033,0.118,0.122,0.115
				C-4.128,10.184-3.948,10.188-3.769,10.188z M-30.428,10.188c0.179,0,0.36-0.008,0.539,0.002c0.118,0.007,0.141-0.036,0.136-0.143
				c-0.009-0.174-0.008-0.35-0.001-0.524c0.004-0.1-0.018-0.143-0.128-0.136c-0.18,0.009-0.36,0.007-0.54,0.001
				c-0.097-0.004-0.14,0.016-0.141,0.129c-0.002,0.116,0.038,0.147,0.146,0.138c0.1-0.008,0.2,0.004,0.299-0.003
				c0.121-0.009,0.093,0.076,0.093,0.139c0,0.06,0.026,0.133-0.085,0.13c-0.205-0.006-0.41-0.005-0.614,0
				c-0.081,0.001-0.104-0.028-0.101-0.104c0.004-0.11-0.002-0.22,0.001-0.329c0.003-0.07-0.02-0.099-0.092-0.098
				c-0.384,0.001-0.769,0.001-1.153,0c-0.064-0.001-0.088,0.02-0.087,0.085c0.004,0.21,0.004,0.42,0,0.629
				c-0.001,0.065,0.023,0.081,0.085,0.086c0.131,0.013,0.195-0.008,0.188-0.168c-0.014-0.368-0.003-0.372,0.369-0.366
				c0.137,0.002,0.313-0.063,0.402,0.029c0.081,0.084,0.025,0.258,0.022,0.391c-0.002,0.097,0.034,0.117,0.121,0.114
				C-30.788,10.184-30.607,10.188-30.428,10.188z M-41.092,9.125c0.534,0,1.068-0.003,1.601,0.003
				c0.115,0.001,0.142-0.03,0.142-0.142c-0.001-0.108-0.035-0.129-0.136-0.129c-1.063,0.004-2.126,0.004-3.189,0.001
				c-0.098,0-0.155,0.004-0.153,0.131c0.002,0.117,0.04,0.14,0.147,0.139C-42.151,9.123-41.622,9.125-41.092,9.125z M-35.756,9.125
				c0.534,0,1.068-0.002,1.603,0.002c0.101,0.001,0.141-0.021,0.137-0.13c-0.003-0.096-0.014-0.141-0.127-0.14
				c-1.073,0.004-2.147,0.004-3.221,0c-0.11-0.001-0.129,0.038-0.13,0.137c-0.001,0.105,0.03,0.135,0.135,0.134
				C-36.824,9.123-36.29,9.125-35.756,9.125z M-30.431,9.125c0.539,0,1.078-0.002,1.617,0.003c0.111,0.001,0.129-0.04,0.132-0.138
				c0.002-0.106-0.033-0.133-0.137-0.133c-1.067,0.004-2.136,0.004-3.203,0c-0.101,0-0.137,0.02-0.137,0.129
				c0,0.11,0.026,0.144,0.141,0.142C-31.489,9.122-30.96,9.125-30.431,9.125z M-14.412,8.86c-0.539,0-1.078,0.002-1.618-0.003
				c-0.105-0.001-0.134,0.031-0.133,0.135c0.001,0.102,0.026,0.136,0.133,0.136c1.069-0.005,2.136-0.005,3.206,0
				c0.116,0.001,0.138-0.036,0.14-0.144c0.001-0.114-0.043-0.127-0.14-0.126C-13.354,8.861-13.883,8.86-14.412,8.86z M-9.104,9.125
				c0.534,0,1.068-0.002,1.603,0.002c0.1,0.001,0.152-0.009,0.152-0.134c-0.001-0.12-0.044-0.136-0.148-0.136
				c-1.063,0.004-2.126,0.004-3.19,0.001c-0.094,0-0.145,0.008-0.141,0.125c0.002,0.104,0.017,0.147,0.138,0.146
				C-10.163,9.122-9.634,9.125-9.104,9.125z M6.915,9.125c0.529,0,1.058-0.003,1.587,0.003c0.112,0.001,0.144-0.027,0.143-0.141
				c-0.002-0.106-0.032-0.13-0.135-0.13c-1.068,0.004-2.136,0.004-3.204,0c-0.101,0-0.136,0.023-0.138,0.131
				c-0.002,0.116,0.036,0.141,0.145,0.14C5.848,9.123,6.381,9.125,6.915,9.125z M-25.091,9.125c0.535,0,1.069-0.002,1.603,0.003
				c0.104,0.001,0.137-0.028,0.135-0.134c-0.002-0.097-0.017-0.138-0.129-0.137c-1.069,0.004-2.138,0.004-3.206,0
				c-0.103,0-0.134,0.024-0.136,0.131c-0.002,0.115,0.034,0.141,0.145,0.14C-26.15,9.123-25.621,9.125-25.091,9.125z M-46.418,8.86
				c-0.534,0-1.068,0.002-1.603-0.003c-0.104-0.001-0.138,0.025-0.134,0.132c0.003,0.096,0.015,0.14,0.128,0.139
				c1.069-0.005,2.138-0.004,3.206,0c0.105,0,0.136-0.03,0.135-0.135c-0.001-0.097-0.018-0.138-0.129-0.136
				C-45.349,8.862-45.883,8.86-46.418,8.86z M1.56,8.86c-0.529,0-1.059,0.002-1.588-0.003c-0.106-0.001-0.133,0.03-0.132,0.134
				C-0.16,9.09-0.142,9.128-0.03,9.128c1.068-0.005,2.137-0.005,3.206,0c0.108,0,0.133-0.035,0.133-0.136
				c0-0.101-0.022-0.136-0.131-0.135C2.639,8.862,2.099,8.86,1.56,8.86z M-3.765,9.125c0.534,0,1.068-0.003,1.603,0.003
				c0.118,0.001,0.138-0.038,0.141-0.146c0.001-0.116-0.049-0.125-0.143-0.125c-1.064,0.003-2.128,0.003-3.192-0.001
				c-0.098,0-0.139,0.017-0.138,0.128c0.001,0.108,0.024,0.145,0.14,0.143C-4.824,9.122-4.295,9.125-3.765,9.125z M-19.767,9.125
				c0.534,0,1.068-0.003,1.603,0.003c0.113,0.001,0.145-0.027,0.142-0.141c0-0.108-0.033-0.13-0.135-0.13
				c-1.064,0.004-2.128,0.004-3.192,0c-0.109,0-0.144,0.023-0.146,0.138c-0.002,0.127,0.056,0.133,0.153,0.132
				C-20.816,9.123-20.291,9.125-19.767,9.125z M-4.823,10.185c0.105,0.025,0.136-0.017,0.137-0.124
				c0.001-0.107-0.022-0.145-0.139-0.146c-0.123-0.001-0.133,0.048-0.135,0.148C-4.962,10.17-4.928,10.211-4.823,10.185z
				 M0.637,10.053c0.029-0.122-0.035-0.134-0.139-0.137c-0.112-0.002-0.124,0.045-0.13,0.14c-0.007,0.122,0.046,0.134,0.147,0.136
				C0.626,10.194,0.659,10.154,0.637,10.053z M-47.357,10.059c0.025-0.116-0.023-0.144-0.135-0.143
				c-0.105,0.001-0.131,0.034-0.133,0.137c-0.003,0.114,0.034,0.142,0.144,0.14C-47.379,10.19-47.33,10.167-47.357,10.059z
				 M-26.157,9.923c-0.129-0.034-0.13,0.044-0.135,0.141c-0.006,0.112,0.041,0.126,0.138,0.128c0.101,0.001,0.139-0.022,0.135-0.131
				C-26.021,9.959-26.033,9.891-26.157,9.923z M-10.024,10.065c0.021-0.108-0.012-0.153-0.131-0.149
				c-0.098,0.004-0.146,0.019-0.137,0.131c0.007,0.084-0.008,0.159,0.119,0.144C-10.088,10.18-9.989,10.207-10.024,10.065z
				 M-36.689,10.052c0.031-0.123-0.037-0.13-0.137-0.137c-0.127-0.008-0.126,0.054-0.131,0.149
				c-0.007,0.111,0.038,0.125,0.135,0.127C-36.714,10.194-36.661,10.168-36.689,10.052z M5.969,10.051
				c0.026-0.108-0.022-0.133-0.125-0.136c-0.112-0.001-0.141,0.03-0.145,0.142c-0.003,0.126,0.053,0.13,0.151,0.134
				C5.964,10.196,5.991,10.15,5.969,10.051z M-15.623,10.038c-0.013,0.093-0.011,0.17,0.121,0.152
				c0.074-0.011,0.166,0.022,0.146-0.112C-15.366,10-15.326,9.9-15.471,9.918C-15.551,9.928-15.656,9.893-15.623,10.038z
				 M-31.487,10.185c0.123,0.031,0.136-0.033,0.139-0.137c0.001-0.109-0.039-0.126-0.138-0.132
				c-0.121-0.005-0.136,0.043-0.136,0.146C-31.623,10.167-31.594,10.211-31.487,10.185z M-42.288,10.033
				c-0.004,0.086-0.021,0.172,0.111,0.157c0.081-0.009,0.178,0.023,0.157-0.12c-0.011-0.075,0.025-0.169-0.112-0.152
				C-42.213,9.928-42.319,9.892-42.288,10.033z M-20.694,10.051c0.025-0.108-0.024-0.133-0.126-0.135
				c-0.113-0.003-0.14,0.031-0.143,0.142c-0.003,0.125,0.052,0.129,0.15,0.133C-20.7,10.196-20.675,10.148-20.694,10.051z"/>
			<path fill-rule="evenodd" clip-rule="evenodd" fill="#D90101" d="M-48.952,22.153c0.225,0,0.45,0.003,0.674-0.002
				c0.09-0.002,0.148,0.011,0.128,0.118c-0.024,0.128,0.031,0.156,0.154,0.154c0.705-0.005,1.409-0.004,2.114,0
				c0.104,0,0.15-0.027,0.131-0.133c-0.02-0.11,0.021-0.141,0.135-0.143c0.125-0.002,0.146,0.049,0.131,0.149
				c-0.015,0.097,0.022,0.126,0.123,0.126c0.714-0.004,1.429-0.004,2.145,0c0.102,0,0.151-0.024,0.133-0.132
				c-0.019-0.106,0.016-0.143,0.133-0.144c0.124-0.002,0.145,0.047,0.13,0.147c-0.013,0.092,0.017,0.129,0.121,0.128
				c0.72-0.005,1.44-0.005,2.16,0c0.106,0.001,0.132-0.039,0.118-0.13c-0.016-0.105,0.015-0.145,0.134-0.146
				c0.122-0.002,0.148,0.043,0.132,0.146c-0.019,0.11,0.035,0.13,0.134,0.129c0.715-0.003,1.431-0.003,2.145,0.001
				c0.102,0,0.128-0.03,0.124-0.126c-0.007-0.125,0.119-0.2,0.232-0.141c0.063,0.033,0.032,0.099,0.029,0.147
				c-0.005,0.09,0.021,0.12,0.116,0.119c0.724-0.003,1.449-0.003,2.175,0.001c0.097,0,0.124-0.033,0.111-0.12
				c-0.016-0.107,0.009-0.155,0.138-0.156c0.127-0.001,0.143,0.051,0.129,0.148c-0.014,0.093,0.015,0.129,0.119,0.128
				c0.715-0.004,1.429-0.005,2.145,0c0.113,0.001,0.152-0.029,0.138-0.141c-0.005-0.04-0.026-0.109,0.022-0.121
				c0.069-0.018,0.152-0.021,0.221,0c0.05,0.016,0.025,0.091,0.021,0.136c-0.009,0.098,0.024,0.125,0.123,0.125
				c0.715-0.004,1.43-0.005,2.145,0c0.117,0.002,0.15-0.033,0.136-0.142c-0.004-0.04-0.026-0.11,0.022-0.122
				c0.071-0.017,0.153-0.018,0.222,0.003c0.049,0.016,0.025,0.091,0.021,0.137c-0.011,0.101,0.028,0.124,0.125,0.123
				c0.715-0.003,1.43-0.003,2.145,0.001c0.101,0,0.151-0.02,0.133-0.13c-0.018-0.101,0.006-0.15,0.131-0.146
				c0.111,0.003,0.157,0.029,0.136,0.142c-0.018,0.103,0.022,0.135,0.128,0.134c0.715-0.005,1.429-0.005,2.145,0
				c0.109,0.001,0.145-0.036,0.126-0.136c-0.021-0.116,0.03-0.139,0.139-0.138c0.106,0,0.148,0.031,0.129,0.134
				c-0.02,0.113,0.025,0.141,0.138,0.14c0.704-0.005,1.41-0.005,2.114,0c0.115,0.001,0.171-0.024,0.147-0.146
				c-0.022-0.113,0.036-0.126,0.133-0.127c0.102-0.001,0.152,0.022,0.133,0.131c-0.018,0.107,0.018,0.145,0.135,0.143
				c0.71-0.005,1.42-0.005,2.129,0c0.12,0.002,0.153-0.04,0.134-0.145c-0.019-0.111,0.033-0.129,0.133-0.13
				c0.099,0,0.151,0.02,0.132,0.13c-0.019,0.104,0.016,0.146,0.135,0.145c0.709-0.005,1.419-0.005,2.129,0
				c0.117,0.002,0.153-0.036,0.136-0.143c-0.02-0.109,0.03-0.132,0.132-0.131c0.097,0,0.156,0.014,0.133,0.127
				c-0.023,0.122,0.034,0.147,0.148,0.146c0.704-0.005,1.41-0.005,2.115,0c0.112,0.001,0.159-0.027,0.137-0.14
				c-0.024-0.125,0.045-0.13,0.144-0.134c0.115-0.004,0.139,0.042,0.123,0.138c-0.016,0.1,0.017,0.137,0.127,0.136
				c0.715-0.005,1.43-0.005,2.145,0c0.107,0.001,0.146-0.031,0.128-0.134c-0.021-0.112,0.025-0.138,0.137-0.142
				c0.124-0.004,0.147,0.044,0.13,0.146c-0.018,0.109,0.032,0.129,0.133,0.129c0.71-0.004,1.42-0.005,2.13,0
				c0.111,0.001,0.16-0.025,0.138-0.139c-0.024-0.121,0.037-0.133,0.141-0.135c0.106-0.002,0.146,0.029,0.127,0.133
				c-0.02,0.109,0.018,0.144,0.135,0.142c0.71-0.005,1.42-0.005,2.129,0c0.115,0.001,0.156-0.029,0.136-0.14
				c-0.019-0.102,0.017-0.138,0.125-0.134c0.1,0.003,0.167,0.01,0.143,0.134c-0.022,0.111,0.022,0.141,0.135,0.14
				c0.71-0.005,1.421-0.005,2.13,0c0.118,0.002,0.153-0.036,0.133-0.143c-0.019-0.107,0.026-0.131,0.129-0.132
				c0.11-0.001,0.16,0.024,0.139,0.14c-0.019,0.1,0.017,0.136,0.126,0.135c0.715-0.005,1.43-0.005,2.145,0
				c0.108,0.001,0.146-0.033,0.128-0.135c-0.021-0.113,0.025-0.138,0.136-0.141c0.125-0.003,0.146,0.048,0.13,0.149
				c-0.014,0.097,0.021,0.126,0.122,0.126c0.714-0.004,1.43-0.004,2.145-0.001c0.1,0.001,0.152-0.019,0.134-0.129
				c-0.018-0.103,0.01-0.147,0.132-0.146c0.119,0.001,0.151,0.041,0.134,0.146c-0.019,0.11,0.034,0.129,0.134,0.128
				c0.709-0.003,1.419-0.004,2.129,0.001c0.117,0.002,0.154-0.036,0.136-0.144c-0.019-0.107,0.028-0.132,0.13-0.131
				c0.098,0.002,0.155,0.016,0.133,0.128c-0.021,0.122,0.034,0.147,0.148,0.146c0.705-0.005,1.41-0.005,2.115,0
				c0.115,0.001,0.156-0.031,0.137-0.142c-0.019-0.105,0.027-0.13,0.13-0.133c0.116-0.004,0.155,0.032,0.136,0.142
				c-0.02,0.105,0.026,0.133,0.131,0.133c0.709-0.004,1.419-0.005,2.129,0c0.11,0.001,0.161-0.023,0.14-0.138
				c-0.019-0.103,0.018-0.139,0.127-0.134c0.224,0.008,0.45,0.002,0.674,0.002c0,3.763,0,7.527,0.003,11.291
				c0,0.109-0.018,0.141-0.135,0.141c-19.909-0.003-39.818-0.003-59.726,0c-0.117,0-0.136-0.032-0.136-0.141
				C-48.952,29.681-48.952,25.917-48.952,22.153z M-37.756,23.364c0-0.185-0.006-0.37,0.002-0.554c0.004-0.1-0.026-0.13-0.125-0.125
				c-0.085,0.004-0.15-0.004-0.146,0.121c0.01,0.274-0.001,0.549,0.006,0.823c0.003,0.102-0.032,0.126-0.127,0.124
				c-0.09-0.002-0.146-0.004-0.142-0.124c0.009-0.279-0.002-0.56,0.005-0.839c0.004-0.127-0.075-0.098-0.146-0.104
				c-0.08-0.006-0.128,0.002-0.125,0.107c0.008,0.28-0.004,0.56,0.006,0.839c0.004,0.126-0.063,0.115-0.147,0.12
				c-0.098,0.006-0.127-0.025-0.125-0.125c0.006-0.279,0.003-0.559,0.001-0.839c0-0.041,0.018-0.087-0.052-0.103
				c-0.161-0.036-0.215,0.001-0.215,0.164c0,0.085-0.006,0.171,0.002,0.255c0.009,0.095-0.03,0.117-0.119,0.115
				c-0.279-0.005-0.56,0-0.839-0.003c-0.078,0-0.119,0.011-0.116,0.105c0.007,0.199,0.005,0.399,0,0.599
				c-0.001,0.071,0.021,0.097,0.094,0.096c0.21-0.004,0.419-0.001,0.629-0.002c0.032,0,0.066,0.013,0.082-0.039
				c0.043-0.145-0.009-0.227-0.155-0.227c-0.094,0-0.19-0.006-0.285,0.002c-0.116,0.009-0.096-0.067-0.097-0.135
				c-0.001-0.072-0.012-0.143,0.101-0.135c0.114,0.007,0.229,0.001,0.345,0.001c0.358,0,0.358,0,0.358,0.352
				c0,0.03,0.003,0.06,0,0.09c-0.008,0.071,0.019,0.093,0.092,0.093c0.379-0.003,0.759-0.003,1.139,0
				c0.078,0.001,0.104-0.021,0.102-0.1C-37.76,23.733-37.756,23.548-37.756,23.364z M10.238,23.354c0-0.185-0.008-0.37,0.002-0.554
				c0.008-0.117-0.053-0.115-0.134-0.114c-0.08,0.001-0.142-0.005-0.137,0.113c0.01,0.28-0.004,0.56,0.005,0.839
				c0.004,0.117-0.055,0.112-0.136,0.114c-0.085,0.002-0.136-0.005-0.133-0.116c0.008-0.265-0.001-0.53,0.005-0.794
				c0.002-0.104-0.007-0.159-0.14-0.16c-0.131-0.001-0.131,0.057-0.129,0.151c0.004,0.26-0.005,0.52,0.005,0.779
				c0.004,0.116-0.032,0.142-0.142,0.143c-0.107,0-0.134-0.032-0.131-0.136c0.008-0.274-0.005-0.549,0.006-0.823
				c0.005-0.125-0.066-0.106-0.141-0.109c-0.083-0.004-0.147-0.002-0.132,0.113c0.01,0.084-0.008,0.171,0.004,0.254
				c0.021,0.145-0.044,0.172-0.174,0.168c-0.265-0.009-0.529-0.001-0.794-0.004c-0.073,0-0.109,0.015-0.106,0.099
				c0.005,0.204,0.004,0.41,0.001,0.614c-0.001,0.065,0.022,0.087,0.086,0.086c0.21-0.002,0.42-0.006,0.63,0.001
				c0.112,0.005,0.089-0.066,0.086-0.126c-0.003-0.06,0.039-0.15-0.087-0.143c-0.114,0.006-0.229-0.004-0.344,0.003
				c-0.092,0.005-0.115-0.036-0.104-0.115c0.01-0.065-0.038-0.159,0.095-0.155c0.206,0.005,0.41,0.005,0.614-0.001
				c0.086-0.001,0.1,0.037,0.097,0.108c-0.005,0.114,0.003,0.23-0.003,0.344c-0.003,0.067,0.023,0.084,0.086,0.083
				c0.384-0.001,0.77-0.002,1.154,0.001c0.074,0,0.093-0.023,0.092-0.094C10.235,23.734,10.238,23.544,10.238,23.354z
				 M-33.087,24.017c0.18,0,0.36-0.005,0.539,0.001c0.093,0.004,0.13-0.015,0.128-0.12c-0.007-0.365-0.007-0.729,0-1.093
				c0.002-0.105-0.037-0.123-0.128-0.12c-0.086,0.003-0.15-0.004-0.146,0.121c0.01,0.274-0.002,0.549,0.006,0.823
				c0.002,0.101-0.029,0.128-0.126,0.124c-0.085-0.004-0.15,0.003-0.146-0.121c0.009-0.273-0.002-0.549,0.005-0.823
				c0.002-0.101-0.029-0.128-0.126-0.124c-0.087,0.004-0.15-0.003-0.146,0.121c0.01,0.274-0.002,0.55,0.005,0.824
				c0.002,0.103-0.034,0.125-0.127,0.123c-0.092-0.001-0.146-0.004-0.142-0.124c0.009-0.274,0.004-0.55,0.002-0.824
				c-0.001-0.04,0.021-0.091-0.038-0.116c-0.129-0.053-0.227,0.011-0.227,0.15c-0.001,0.084-0.006,0.17,0.001,0.255
				c0.009,0.1-0.03,0.129-0.126,0.127c-0.28-0.005-0.56,0-0.838-0.003c-0.07,0-0.111,0.007-0.108,0.095
				c0.006,0.205,0.005,0.41,0,0.614c-0.002,0.077,0.029,0.092,0.096,0.09c0.206-0.002,0.41-0.006,0.614,0.001
				c0.12,0.005,0.091-0.072,0.095-0.137c0.003-0.072,0.012-0.141-0.101-0.132c-0.109,0.008-0.22-0.006-0.329,0.004
				c-0.107,0.01-0.112-0.047-0.105-0.125c0.007-0.066-0.033-0.153,0.099-0.146c0.194,0.009,0.39,0.006,0.584,0.001
				c0.089-0.002,0.129,0.022,0.121,0.117c-0.007,0.09,0.005,0.181-0.003,0.27c-0.011,0.111,0.018,0.159,0.143,0.15
				C-33.438,24.007-33.262,24.017-33.087,24.017z M-17.101,24.017c0.19,0,0.38-0.005,0.57,0.001c0.087,0.003,0.109-0.027,0.108-0.11
				c-0.004-0.37-0.007-0.74,0.001-1.109c0.002-0.119-0.057-0.111-0.137-0.113c-0.084-0.002-0.138,0.001-0.134,0.116
				c0.009,0.264,0,0.529,0.005,0.793c0.002,0.103-0.006,0.161-0.139,0.161c-0.129-0.001-0.131-0.057-0.129-0.152
				c0.005-0.265-0.004-0.53,0.005-0.794c0.004-0.119-0.051-0.125-0.143-0.125c-0.088,0-0.134,0.01-0.13,0.118
				c0.009,0.27-0.003,0.54,0.005,0.81c0.004,0.114-0.03,0.138-0.141,0.143c-0.125,0.005-0.133-0.05-0.131-0.149
				c0.006-0.269,0.003-0.539,0.001-0.809c-0.001-0.037,0.019-0.081-0.028-0.106c-0.111-0.059-0.239,0.013-0.239,0.134
				c0,0.085-0.007,0.17,0.001,0.255c0.011,0.107-0.018,0.146-0.136,0.142c-0.274-0.01-0.55,0-0.824-0.004
				c-0.085-0.001-0.114,0.023-0.111,0.11c0.006,0.194,0.006,0.39-0.001,0.584c-0.003,0.091,0.035,0.108,0.115,0.106
				c0.194-0.004,0.39-0.006,0.584,0c0.089,0.004,0.102-0.031,0.106-0.111c0.007-0.118-0.019-0.177-0.151-0.159
				c-0.083,0.011-0.171-0.005-0.254,0.003c-0.105,0.01-0.139-0.026-0.136-0.132c0.003-0.098,0.02-0.15,0.132-0.139
				c0.084,0.009,0.17,0.001,0.254,0.002c0.134,0.002,0.312-0.045,0.393,0.021c0.084,0.07,0.019,0.253,0.027,0.387
				c0,0.01,0,0.02,0,0.03c-0.015,0.083,0.028,0.099,0.102,0.097C-17.47,24.014-17.285,24.017-17.101,24.017z M-11.772,24.017
				c0.185,0,0.37-0.005,0.555,0.001c0.093,0.004,0.129-0.017,0.127-0.12c-0.007-0.365-0.007-0.73,0-1.094
				c0.002-0.106-0.039-0.12-0.129-0.119s-0.147,0.003-0.144,0.124c0.009,0.279-0.003,0.559,0.006,0.839
				c0.003,0.111-0.055,0.104-0.128,0.104c-0.076-0.002-0.146,0.016-0.142-0.108c0.01-0.265,0.002-0.53,0.003-0.794
				c0.001-0.091,0.021-0.171-0.129-0.167c-0.136,0.002-0.139,0.059-0.137,0.16c0.004,0.266-0.004,0.53,0.003,0.794
				c0.004,0.113-0.05,0.118-0.135,0.116c-0.08-0.002-0.14,0.005-0.135-0.113c0.009-0.274-0.003-0.55,0.005-0.824
				c0.002-0.11-0.037-0.131-0.136-0.131s-0.147,0.017-0.136,0.128c0.01,0.094-0.004,0.19,0.004,0.284
				c0.01,0.104-0.033,0.126-0.127,0.125c-0.28-0.005-0.56,0-0.839-0.003c-0.07,0-0.11,0.008-0.108,0.096
				c0.006,0.205,0.005,0.41,0.001,0.614c-0.002,0.078,0.033,0.09,0.098,0.089c0.205-0.002,0.41-0.006,0.615,0.001
				c0.122,0.006,0.089-0.073,0.092-0.137c0.004-0.072,0.013-0.142-0.101-0.132c-0.113,0.009-0.229-0.004-0.344,0.003
				c-0.106,0.007-0.095-0.061-0.09-0.125c0.006-0.06-0.038-0.148,0.087-0.146c0.209,0.005,0.419,0.003,0.629,0
				c0.063,0,0.093,0.021,0.088,0.087c-0.003,0.029-0.002,0.06-0.001,0.09c0.004,0.114-0.036,0.266,0.021,0.331
				c0.069,0.078,0.226,0.02,0.344,0.025C-11.962,24.02-11.867,24.017-11.772,24.017z M-5.758,23.361c0-0.186-0.006-0.37,0.002-0.555
				c0.005-0.103-0.031-0.129-0.125-0.121c-0.08,0.006-0.154-0.017-0.148,0.115c0.011,0.279-0.004,0.56,0.006,0.839
				c0.005,0.121-0.057,0.111-0.136,0.111s-0.142,0.008-0.138-0.112c0.009-0.28-0.003-0.56,0.007-0.839
				c0.003-0.115-0.052-0.116-0.135-0.114c-0.077,0.002-0.144-0.01-0.14,0.112c0.011,0.274-0.001,0.55,0.006,0.824
				c0.004,0.107-0.03,0.133-0.133,0.132c-0.1-0.001-0.14-0.02-0.137-0.131c0.008-0.279-0.002-0.559,0.005-0.839
				c0.002-0.118-0.069-0.096-0.136-0.096c-0.069-0.001-0.144-0.017-0.133,0.099c0.008,0.099-0.006,0.2,0.003,0.299
				c0.009,0.104-0.027,0.138-0.134,0.135c-0.274-0.006-0.549-0.003-0.823-0.001c-0.05,0-0.115-0.022-0.113,0.072
				c0.003,0.219,0.002,0.439,0,0.659c0,0.054,0.024,0.066,0.073,0.066c0.22-0.001,0.439,0,0.66,0
				c0.029-0.001,0.055-0.002,0.07-0.039c0.051-0.133-0.012-0.227-0.154-0.228c-0.096,0-0.191-0.006-0.284,0.002
				c-0.121,0.011-0.094-0.071-0.095-0.135c0-0.066-0.023-0.141,0.095-0.136c0.2,0.008,0.4,0.005,0.6,0.001
				c0.076-0.001,0.108,0.024,0.105,0.103c-0.005,0.11,0.002,0.22-0.003,0.329c-0.004,0.076,0.017,0.105,0.099,0.104
				c0.379-0.003,0.759-0.004,1.138,0c0.083,0.001,0.1-0.029,0.098-0.103C-5.762,23.73-5.758,23.546-5.758,23.361z M-43.765,24.017
				c0.189,0,0.38-0.004,0.569,0.001c0.082,0.002,0.113-0.019,0.112-0.108c-0.005-0.369-0.008-0.739,0-1.108
				c0.002-0.115-0.052-0.117-0.135-0.116c-0.079,0.002-0.14-0.007-0.137,0.112c0.01,0.28-0.002,0.56,0.007,0.839
				c0.003,0.117-0.055,0.115-0.137,0.114c-0.079,0-0.141,0.009-0.137-0.111c0.011-0.274-0.002-0.55,0.006-0.824
				c0.003-0.107-0.031-0.134-0.134-0.132c-0.093,0.003-0.143,0.008-0.139,0.125c0.01,0.279-0.003,0.559,0.007,0.839
				c0.003,0.127-0.076,0.099-0.146,0.102c-0.072,0.004-0.133,0.012-0.129-0.102c0.009-0.274-0.001-0.549,0.006-0.823
				c0.003-0.11-0.023-0.142-0.138-0.143c-0.118,0-0.145,0.039-0.135,0.146c0.008,0.094-0.004,0.19,0.003,0.285
				c0.006,0.085-0.024,0.11-0.108,0.108c-0.285-0.004-0.57,0-0.854-0.003c-0.075-0.001-0.107,0.018-0.104,0.1
				c0.005,0.205,0.004,0.41,0.001,0.615c-0.001,0.065,0.021,0.086,0.086,0.085c0.209-0.002,0.419,0,0.628-0.001
				c0.032,0,0.067,0.011,0.082-0.039c0.046-0.143-0.009-0.227-0.155-0.227c-0.09,0-0.18-0.005-0.269,0.002
				c-0.088,0.006-0.105-0.029-0.11-0.111c-0.007-0.123,0.028-0.175,0.156-0.16c0.079,0.01,0.16,0.001,0.24,0.002
				c0.129,0.002,0.303-0.044,0.377,0.02c0.086,0.076,0.019,0.253,0.029,0.387c0,0.004,0.001,0.01,0,0.015
				c-0.019,0.097,0.029,0.116,0.117,0.113C-44.125,24.012-43.945,24.017-43.765,24.017z M4.229,24.017c0.19,0,0.38-0.004,0.57,0.001
				c0.083,0.002,0.112-0.02,0.111-0.108c-0.004-0.369-0.007-0.739,0.001-1.109c0.003-0.115-0.053-0.116-0.135-0.115
				c-0.08,0.001-0.14-0.006-0.136,0.113c0.01,0.279-0.003,0.559,0.006,0.838c0.004,0.118-0.055,0.115-0.137,0.114
				c-0.079,0-0.14,0.008-0.136-0.111c0.01-0.274-0.002-0.55,0.006-0.824c0.003-0.108-0.033-0.134-0.135-0.132
				c-0.094,0.002-0.143,0.008-0.139,0.125c0.01,0.279-0.003,0.56,0.006,0.839c0.004,0.128-0.075,0.099-0.145,0.102
				c-0.073,0.004-0.133,0.011-0.128-0.102c0.008-0.279-0.004-0.56,0.006-0.839c0.004-0.116-0.045-0.124-0.139-0.125
				c-0.1-0.002-0.146,0.018-0.135,0.129c0.01,0.099-0.003,0.2,0.003,0.3c0.006,0.086-0.025,0.11-0.109,0.108
				c-0.285-0.004-0.569,0-0.854-0.003c-0.076-0.001-0.107,0.019-0.104,0.101c0.005,0.199,0.004,0.399,0,0.599
				c-0.002,0.079,0.022,0.104,0.102,0.101c0.186-0.005,0.37-0.007,0.555,0c0.103,0.005,0.148-0.01,0.147-0.132
				c-0.001-0.117-0.037-0.147-0.146-0.137c-0.094,0.009-0.19-0.004-0.285,0.003c-0.087,0.006-0.104-0.03-0.109-0.112
				c-0.008-0.123,0.029-0.174,0.156-0.159c0.079,0.01,0.16,0.001,0.24,0.002c0.13,0.002,0.303-0.044,0.377,0.02
				c0.086,0.076,0.019,0.254,0.029,0.387c0,0.005,0.001,0.01,0,0.016c-0.018,0.097,0.03,0.115,0.117,0.112
				C3.87,24.013,4.05,24.017,4.229,24.017z M-27.088,23.364c0-0.19-0.008-0.38,0.004-0.569c0.008-0.126-0.065-0.105-0.14-0.108
				c-0.08-0.003-0.139-0.007-0.134,0.112c0.01,0.273-0.002,0.549,0.005,0.823c0.004,0.105-0.027,0.132-0.131,0.133
				c-0.108,0-0.146-0.023-0.143-0.14c0.01-0.269-0.002-0.539,0.006-0.809c0.003-0.103-0.033-0.125-0.126-0.121
				c-0.083,0.004-0.152-0.007-0.146,0.119c0.01,0.26,0.001,0.52,0.003,0.779c0.002,0.099,0.014,0.175-0.137,0.173
				c-0.145-0.001-0.132-0.073-0.131-0.167c0.002-0.27-0.004-0.54,0.002-0.809c0.003-0.105-0.058-0.098-0.124-0.092
				c-0.06,0.006-0.15-0.038-0.145,0.086c0.005,0.109-0.005,0.22,0.002,0.329c0.006,0.095-0.03,0.119-0.119,0.117
				c-0.28-0.004-0.56,0.001-0.839-0.003c-0.085-0.002-0.112,0.024-0.109,0.11c0.005,0.194,0.003,0.389,0,0.583
				c-0.001,0.07,0.006,0.11,0.094,0.107c0.205-0.006,0.41-0.007,0.614,0c0.105,0.004,0.098-0.058,0.092-0.125
				c-0.004-0.062,0.035-0.15-0.088-0.145c-0.114,0.006-0.23-0.007-0.345,0.004c-0.118,0.01-0.101-0.064-0.098-0.133
				c0.002-0.063-0.029-0.144,0.093-0.139c0.199,0.007,0.398,0.005,0.599,0.001c0.075-0.001,0.109,0.021,0.105,0.101
				c-0.006,0.104,0.004,0.21-0.003,0.314c-0.005,0.087,0.016,0.123,0.114,0.122c0.375-0.006,0.749-0.004,1.124-0.001
				c0.076,0,0.104-0.019,0.103-0.1C-27.092,23.734-27.088,23.548-27.088,23.364z M-0.423,23.357c0-0.185-0.01-0.371,0.002-0.554
				c0.009-0.131-0.066-0.112-0.148-0.118c-0.098-0.007-0.127,0.023-0.125,0.124c0.008,0.279-0.003,0.56,0.006,0.839
				c0.003,0.128-0.075,0.1-0.146,0.103c-0.072,0.003-0.132,0.012-0.129-0.102c0.009-0.285-0.005-0.57,0.006-0.854
				c0.006-0.127-0.065-0.104-0.139-0.107c-0.081-0.003-0.14-0.005-0.136,0.112c0.01,0.275-0.002,0.55,0.007,0.825
				c0.002,0.11-0.035,0.131-0.135,0.13c-0.097-0.002-0.143-0.016-0.139-0.129c0.009-0.274,0.004-0.55,0.001-0.824
				c0-0.038,0.027-0.09-0.039-0.112c-0.141-0.047-0.226,0.009-0.226,0.155c0,0.084-0.007,0.171,0.001,0.254
				c0.01,0.102-0.031,0.125-0.126,0.124c-0.275-0.005-0.55,0-0.825-0.003c-0.079-0.001-0.117,0.014-0.114,0.105
				c0.007,0.2,0.005,0.399,0.001,0.6c-0.001,0.069,0.017,0.097,0.091,0.095c0.206-0.004,0.411-0.007,0.615,0
				c0.106,0.005,0.097-0.06,0.091-0.125c-0.004-0.06,0.037-0.15-0.087-0.145c-0.115,0.006-0.231-0.005-0.345,0.003
				c-0.118,0.009-0.097-0.067-0.097-0.134c0-0.068-0.019-0.141,0.097-0.137c0.2,0.007,0.4,0.006,0.6,0
				c0.084-0.001,0.102,0.033,0.1,0.106c-0.005,0.11,0.003,0.22-0.003,0.33c-0.005,0.081,0.027,0.101,0.104,0.101
				c0.375-0.003,0.75-0.005,1.125,0.001c0.099,0.001,0.115-0.035,0.113-0.122C-0.428,23.717-0.423,23.538-0.423,23.357z
				 M-22.432,24.017c0.19,0,0.38-0.004,0.57,0.001c0.084,0.003,0.112-0.022,0.111-0.109c-0.004-0.37-0.007-0.74,0.001-1.11
				c0.002-0.119-0.057-0.112-0.137-0.113c-0.081,0-0.14-0.005-0.136,0.113c0.01,0.28-0.003,0.56,0.007,0.839
				c0.003,0.119-0.058,0.114-0.138,0.113c-0.078,0-0.142,0.012-0.137-0.11c0.011-0.274-0.005-0.551,0.007-0.825
				c0.006-0.128-0.054-0.125-0.149-0.132c-0.116-0.008-0.127,0.042-0.125,0.138c0.006,0.27-0.004,0.54,0.005,0.81
				c0.002,0.103-0.034,0.126-0.127,0.12c-0.082-0.004-0.152,0.012-0.147-0.117c0.011-0.279-0.005-0.56,0.006-0.84
				c0.006-0.125-0.063-0.106-0.138-0.108c-0.082-0.003-0.149-0.004-0.135,0.113c0.011,0.089-0.007,0.181,0.005,0.27
				c0.017,0.132-0.039,0.155-0.159,0.152c-0.265-0.009-0.53,0-0.794-0.004c-0.082-0.001-0.116,0.018-0.113,0.107
				c0.006,0.2,0.005,0.4,0.001,0.6c-0.002,0.073,0.021,0.094,0.093,0.093c0.205-0.004,0.411-0.007,0.615,0
				c0.112,0.005,0.089-0.067,0.087-0.127c-0.002-0.063,0.031-0.149-0.091-0.142c-0.114,0.006-0.229,0.002-0.344,0
				c-0.037,0-0.077,0.014-0.093-0.046c-0.041-0.15,0.008-0.219,0.164-0.22c0.075,0,0.149-0.001,0.225,0
				c0.13,0.002,0.303-0.044,0.378,0.021c0.087,0.076,0.031,0.254,0.026,0.387c-0.004,0.112,0.039,0.132,0.137,0.127
				C-22.782,24.011-22.607,24.017-22.432,24.017z M-19.759,24.017c0.19,0,0.38-0.003,0.57,0.001
				c0.078,0.002,0.104-0.023,0.102-0.103c-0.005-0.199-0.005-0.399,0-0.599c0.003-0.084-0.034-0.1-0.106-0.099
				c-0.2,0.003-0.399,0.007-0.599-0.001c-0.119-0.005-0.096,0.07-0.096,0.136c-0.001,0.068-0.02,0.143,0.098,0.133
				c0.114-0.01,0.229,0.001,0.344-0.004c0.12-0.004,0.088,0.08,0.091,0.144c0.004,0.066,0.013,0.13-0.092,0.126
				c-0.205-0.006-0.409-0.005-0.614,0c-0.083,0.003-0.101-0.03-0.097-0.104c0.004-0.115-0.002-0.23,0.002-0.345
				c0.002-0.065-0.021-0.086-0.085-0.085c-0.384,0.002-0.769,0.002-1.153,0c-0.069,0-0.098,0.019-0.096,0.092
				c0.003,0.206,0.006,0.41-0.001,0.615c-0.003,0.106,0.06,0.096,0.125,0.091c0.06-0.005,0.15,0.039,0.144-0.086
				c-0.005-0.115,0.002-0.23-0.002-0.344c-0.003-0.079,0.027-0.104,0.104-0.103c0.2,0.004,0.4,0.005,0.599-0.001
				c0.083-0.001,0.102,0.03,0.099,0.104c-0.005,0.104,0.005,0.21-0.004,0.314c-0.006,0.09,0.019,0.123,0.114,0.119
				C-20.127,24.011-19.943,24.017-19.759,24.017z M-41.095,24.017c0.189,0,0.38-0.003,0.569,0.001
				c0.074,0.001,0.108-0.013,0.105-0.098c-0.005-0.204-0.003-0.41,0-0.614c0.001-0.064-0.021-0.088-0.086-0.087
				c-0.21,0.003-0.42,0.004-0.63,0c-0.115-0.002-0.08,0.079-0.08,0.135c-0.001,0.057-0.033,0.138,0.082,0.132
				c0.109-0.006,0.221,0.005,0.33-0.004c0.109-0.008,0.122,0.047,0.119,0.135c-0.002,0.081,0.004,0.145-0.114,0.137
				c-0.189-0.01-0.38-0.009-0.569,0c-0.106,0.005-0.125-0.038-0.118-0.129c0.006-0.104-0.002-0.21,0.001-0.314
				c0.002-0.06-0.011-0.092-0.081-0.091c-0.39,0.002-0.78,0.002-1.17,0c-0.064,0-0.088,0.023-0.087,0.087
				c0.002,0.21,0.002,0.42,0.001,0.63c-0.002,0.127,0.093,0.072,0.15,0.079c0.057,0.007,0.123,0.019,0.116-0.081
				c-0.007-0.11,0.003-0.221-0.002-0.33c-0.005-0.089,0.02-0.129,0.116-0.123c0.104,0.007,0.21,0.001,0.314,0.003
				c0.12,0.001,0.276-0.04,0.349,0.019c0.076,0.063,0.017,0.226,0.023,0.345c0.002,0.02,0.003,0.04,0,0.06
				c-0.012,0.082,0.017,0.114,0.104,0.11C-41.465,24.012-41.279,24.017-41.095,24.017z M6.898,24.017
				c0.185,0,0.37-0.004,0.554,0.001c0.086,0.003,0.127-0.011,0.123-0.112c-0.008-0.194-0.006-0.39-0.001-0.584
				c0.002-0.077-0.02-0.106-0.1-0.104c-0.2,0.005-0.401,0.008-0.6-0.001c-0.117-0.005-0.098,0.067-0.098,0.134
				c0,0.068-0.02,0.145,0.097,0.134c0.1-0.009,0.201,0.004,0.3-0.004c0.104-0.008,0.139,0.027,0.138,0.134
				c-0.002,0.098-0.019,0.149-0.13,0.137c-0.095-0.009-0.19,0-0.285-0.002c-0.125-0.001-0.285,0.04-0.363-0.021
				c-0.082-0.066-0.016-0.235-0.025-0.358c-0.001-0.019-0.002-0.04,0-0.059c0.01-0.075-0.024-0.093-0.094-0.093
				c-0.38,0.003-0.76,0.004-1.14,0c-0.093-0.001-0.105,0.04-0.104,0.117c0.003,0.185,0.008,0.37-0.002,0.554
				C5.164,24,5.207,24.019,5.306,24.02c0.102,0.001,0.14-0.021,0.136-0.131c-0.007-0.128-0.059-0.296,0.021-0.376
				c0.086-0.087,0.257-0.024,0.389-0.028c0.125-0.004,0.293-0.044,0.363,0.018c0.082,0.075,0.031,0.246,0.022,0.374
				c-0.008,0.127,0.043,0.147,0.152,0.142C6.557,24.01,6.728,24.017,6.898,24.017z M-46.423,24.017c0.189,0,0.38-0.003,0.569,0.001
				c0.075,0.001,0.106-0.017,0.104-0.1c-0.005-0.199-0.005-0.399,0-0.599c0.002-0.081-0.027-0.103-0.104-0.101
				c-0.2,0.004-0.399,0.004-0.6,0c-0.075-0.001-0.098,0.019-0.104,0.099c-0.012,0.137,0.033,0.186,0.17,0.169
				c0.083-0.012,0.171,0.004,0.254-0.005c0.114-0.012,0.117,0.051,0.117,0.136c-0.001,0.083,0.001,0.147-0.115,0.135
				c-0.093-0.009-0.189-0.001-0.284-0.002c-0.13-0.001-0.302,0.044-0.377-0.021c-0.088-0.075-0.02-0.252-0.03-0.386
				c0-0.01-0.001-0.02,0-0.03c0.01-0.069-0.017-0.095-0.09-0.095c-0.38,0.003-0.76,0.003-1.139,0
				c-0.079-0.001-0.104,0.023-0.102,0.103c0.004,0.19,0.008,0.38-0.001,0.57c-0.006,0.109,0.032,0.131,0.133,0.13
				c0.1-0.001,0.147-0.02,0.136-0.131c-0.01-0.099,0.001-0.2-0.003-0.299c-0.002-0.073,0.013-0.111,0.098-0.108
				c0.205,0.005,0.41,0.003,0.614,0c0.064-0.001,0.089,0.022,0.086,0.086c-0.004,0.09,0.008,0.181-0.002,0.269
				c-0.018,0.139,0.021,0.197,0.172,0.183C-46.754,24.004-46.588,24.017-46.423,24.017z M1.567,24.017
				c0.189,0,0.38-0.004,0.568,0.001c0.086,0.003,0.112-0.026,0.109-0.111c-0.006-0.194-0.005-0.389,0-0.584
				c0.002-0.076-0.02-0.106-0.101-0.105c-0.204,0.004-0.409,0.007-0.614,0c-0.108-0.005-0.094,0.063-0.089,0.125
				c0.006,0.059-0.04,0.149,0.087,0.142c0.12-0.007,0.239,0.002,0.359-0.003c0.123-0.004,0.083,0.083,0.088,0.146
				c0.005,0.066,0.012,0.128-0.093,0.125c-0.205-0.006-0.41-0.005-0.614,0c-0.083,0.003-0.101-0.03-0.097-0.104
				c0.004-0.11-0.004-0.22,0.003-0.33c0.004-0.082-0.027-0.1-0.103-0.1c-0.375,0.003-0.75,0.004-1.125,0
				c-0.09-0.001-0.107,0.034-0.105,0.113c0.004,0.186,0.007,0.37-0.001,0.555c-0.004,0.104,0.023,0.134,0.13,0.135
				c0.113,0.001,0.146-0.03,0.141-0.143c-0.004-0.127-0.061-0.302,0.027-0.371c0.082-0.064,0.248-0.023,0.377-0.023
				c0.125,0,0.286-0.04,0.362,0.022c0.081,0.066,0.018,0.234,0.026,0.358c0.001,0.02,0.002,0.04-0.001,0.06
				c-0.009,0.072,0.021,0.095,0.093,0.094C1.188,24.014,1.377,24.017,1.567,24.017z M-25.097,24.017c0.194,0,0.39-0.003,0.584,0.001
				c0.072,0.001,0.096-0.022,0.094-0.094c-0.003-0.205-0.004-0.41,0-0.614c0.002-0.078-0.031-0.092-0.098-0.091
				c-0.205,0.003-0.41,0.007-0.615,0c-0.121-0.005-0.088,0.075-0.092,0.139c-0.005,0.073-0.009,0.138,0.103,0.129
				c0.119-0.01,0.239-0.002,0.359-0.003c0.116,0,0.069,0.088,0.072,0.142c0.004,0.051,0.034,0.127-0.071,0.126
				c-0.214-0.002-0.43-0.002-0.644,0c-0.064,0.001-0.089-0.021-0.086-0.086c0.004-0.114-0.003-0.23,0.002-0.344
				c0.005-0.079-0.022-0.104-0.101-0.103c-0.375,0.003-0.75,0.004-1.125,0c-0.09-0.001-0.108,0.032-0.106,0.112
				c0.005,0.185,0.007,0.37,0,0.555c-0.005,0.101,0.018,0.137,0.128,0.136c0.107-0.002,0.15-0.022,0.144-0.14
				c-0.006-0.127-0.058-0.296,0.023-0.375c0.081-0.076,0.247-0.021,0.376-0.022c0.125-0.002,0.29-0.042,0.363,0.021
				c0.085,0.074,0.02,0.244,0.029,0.373c0.001,0.01,0.001,0.02,0,0.03c-0.012,0.083,0.02,0.114,0.107,0.111
				C-25.467,24.013-25.282,24.017-25.097,24.017z M-9.102,24.017c0.194,0,0.39-0.003,0.584,0.001
				c0.071,0.001,0.094-0.019,0.094-0.093c-0.005-0.204-0.005-0.409,0-0.614c0-0.072-0.023-0.094-0.095-0.093
				c-0.205,0.004-0.409,0.006-0.613,0c-0.121-0.004-0.091,0.076-0.094,0.141c-0.003,0.065-0.015,0.133,0.092,0.126
				c0.114-0.007,0.23,0.005,0.344-0.004c0.119-0.008,0.095,0.07,0.095,0.137c0,0.066,0.025,0.141-0.095,0.135
				c-0.199-0.009-0.4-0.005-0.599-0.001c-0.077,0.002-0.107-0.021-0.103-0.101c0.007-0.109-0.002-0.22,0.003-0.329
				c0.004-0.078-0.022-0.104-0.102-0.104c-0.38,0.003-0.759,0.002-1.139,0c-0.065,0-0.101,0.011-0.099,0.089
				c0.005,0.21,0.001,0.42,0.002,0.629c0,0.028-0.006,0.059,0.028,0.077c0.111,0.057,0.239-0.014,0.239-0.134
				c0-0.1,0.003-0.2-0.001-0.3c-0.003-0.066,0.009-0.1,0.088-0.098c0.205,0.006,0.41,0.005,0.614,0.001
				c0.08-0.001,0.105,0.028,0.103,0.104c-0.004,0.11,0.003,0.22-0.002,0.33c-0.004,0.078,0.02,0.104,0.1,0.102
				C-9.472,24.013-9.287,24.017-9.102,24.017z M-3.763,24.017c0.189,0,0.38-0.003,0.569,0.001c0.073,0.001,0.107-0.013,0.104-0.097
				c-0.005-0.205-0.003-0.41-0.001-0.615c0.001-0.063-0.019-0.088-0.084-0.087c-0.21,0.003-0.42,0.006-0.63,0
				c-0.122-0.003-0.086,0.08-0.09,0.143c-0.004,0.064-0.015,0.132,0.092,0.125c0.114-0.007,0.229,0.006,0.344-0.004
				c0.115-0.01,0.102,0.063,0.098,0.131c-0.004,0.061,0.036,0.145-0.088,0.14c-0.206-0.007-0.41-0.004-0.616,0
				c-0.081,0.002-0.103-0.03-0.099-0.105c0.005-0.105-0.002-0.21,0.003-0.315c0.004-0.08-0.017-0.114-0.106-0.113
				c-0.374,0.004-0.75,0.003-1.124,0c-0.077,0-0.104,0.021-0.102,0.101c0.005,0.19,0.008,0.381-0.001,0.57
				c-0.006,0.106,0.028,0.131,0.132,0.133c0.11,0.001,0.147-0.026,0.142-0.142c-0.006-0.127-0.06-0.304,0.022-0.373
				c0.078-0.064,0.248-0.022,0.377-0.022c0.124,0,0.288-0.04,0.362,0.022c0.087,0.075,0.021,0.245,0.031,0.373
				c0,0.014,0.001,0.03,0,0.044c-0.01,0.073,0.022,0.095,0.093,0.094C-4.143,24.014-3.953,24.017-3.763,24.017z M-35.763,24.017
				c0.185,0,0.37-0.004,0.554,0.001c0.086,0.003,0.126-0.011,0.121-0.112c-0.008-0.194-0.005-0.39-0.001-0.584
				c0.002-0.077-0.017-0.107-0.099-0.104c-0.2,0.005-0.4,0.007-0.6-0.001c-0.116-0.005-0.1,0.064-0.099,0.134
				c0.001,0.068-0.018,0.143,0.098,0.134c0.115-0.008,0.23,0.002,0.344-0.003c0.125-0.004,0.081,0.086,0.087,0.146
				c0.006,0.064,0.014,0.128-0.092,0.124c-0.195-0.007-0.39-0.008-0.585,0.001c-0.106,0.004-0.125-0.038-0.119-0.129
				c0.007-0.104-0.001-0.21,0.002-0.315c0.003-0.062-0.017-0.09-0.083-0.09c-0.39,0.002-0.78,0.002-1.169,0
				c-0.063,0-0.087,0.021-0.086,0.086c0.002,0.21,0.001,0.42,0.001,0.63c0,0.034-0.005,0.066,0.043,0.082
				c0.142,0.044,0.224-0.008,0.224-0.154c0.001-0.094,0.004-0.19-0.001-0.284c-0.003-0.07,0.019-0.098,0.092-0.097
				c0.206,0.004,0.41,0.005,0.615,0c0.082-0.001,0.102,0.033,0.099,0.106c-0.004,0.11,0.003,0.221-0.002,0.33
				c-0.005,0.081,0.024,0.102,0.102,0.1C-36.134,24.013-35.948,24.017-35.763,24.017z M-15.484,23.219
				c-0.19,0-0.38,0.002-0.569-0.001c-0.071,0-0.109,0.013-0.108,0.098c0.006,0.205,0.005,0.41,0.001,0.614
				c-0.002,0.125,0.086,0.08,0.146,0.085c0.063,0.005,0.131,0.018,0.124-0.09c-0.008-0.114,0.001-0.229-0.003-0.344
				c-0.003-0.067,0.017-0.1,0.091-0.099c0.21,0.004,0.42,0.003,0.63,0c0.065-0.001,0.086,0.024,0.085,0.088
				c-0.004,0.114,0.003,0.23-0.002,0.344c-0.004,0.075,0.014,0.104,0.097,0.104c0.379-0.004,0.759-0.002,1.139-0.001
				c0.068,0.001,0.098-0.014,0.097-0.09c-0.005-0.205-0.005-0.41,0-0.614c0.003-0.087-0.04-0.095-0.109-0.095
				c-0.185,0.003-0.37,0.007-0.554,0c-0.103-0.005-0.136,0.021-0.139,0.13c-0.001,0.116,0.036,0.148,0.145,0.137
				c0.1-0.009,0.2-0.002,0.3-0.001c0.033,0,0.067-0.006,0.087,0.038c0.054,0.126-0.01,0.228-0.148,0.228
				c-0.084,0-0.17,0.001-0.254,0c-0.125-0.001-0.29,0.041-0.362-0.021c-0.084-0.074-0.02-0.244-0.028-0.371
				c-0.001-0.015-0.002-0.031,0-0.045c0.01-0.074-0.024-0.094-0.093-0.094C-15.104,23.221-15.294,23.219-15.484,23.219z
				 M-30.428,24.017c0.19,0,0.38-0.003,0.57,0.001c0.073,0.001,0.107-0.011,0.104-0.096c-0.006-0.205-0.003-0.41,0-0.614
				c0-0.061-0.013-0.091-0.082-0.089c-0.215,0.004-0.43,0.001-0.645,0.001c-0.035,0.001-0.064,0.002-0.077,0.05
				c-0.04,0.145,0.006,0.212,0.154,0.213c0.085,0,0.171,0.007,0.255-0.002c0.112-0.013,0.128,0.039,0.129,0.137
				c0.001,0.1-0.019,0.145-0.129,0.135c-0.109-0.011-0.22-0.003-0.33-0.003c-0.344,0-0.344,0-0.344-0.337
				c0-0.035-0.002-0.07,0-0.104c0.005-0.061-0.014-0.091-0.083-0.09c-0.39,0.002-0.779,0.002-1.168,0
				c-0.054,0-0.084,0.01-0.083,0.074c0.004,0.22,0.002,0.44,0.001,0.66c0,0.041,0.012,0.059,0.058,0.066
				c0.175,0.029,0.21,0.003,0.21-0.169c0-0.09,0.003-0.18,0-0.27c-0.003-0.067,0.013-0.1,0.091-0.098
				c0.204,0.005,0.409,0.004,0.614,0.001c0.07-0.001,0.099,0.024,0.096,0.096c-0.003,0.104,0.004,0.21-0.002,0.314
				c-0.007,0.094,0.018,0.132,0.122,0.127C-30.788,24.01-30.607,24.017-30.428,24.017z M-35.739,22.688
				c-0.535,0-1.07,0.001-1.604-0.002c-0.098-0.001-0.155,0.003-0.15,0.131c0.002,0.112,0.031,0.142,0.143,0.141
				c1.065-0.003,2.129-0.003,3.194,0c0.112,0.001,0.14-0.028,0.144-0.141c0.004-0.127-0.054-0.132-0.151-0.131
				C-34.69,22.689-35.214,22.688-35.739,22.688z M-30.424,22.955c0.534,0,1.068-0.002,1.604,0.002
				c0.103,0.001,0.136-0.024,0.138-0.132c0.001-0.112-0.03-0.142-0.143-0.141c-1.069,0.004-2.139,0.004-3.207-0.001
				c-0.117,0-0.124,0.044-0.126,0.139c-0.001,0.1,0.021,0.136,0.13,0.134C-31.494,22.952-30.958,22.955-30.424,22.955z
				 M-14.428,22.688c-0.534,0-1.069,0.002-1.604-0.003c-0.109-0.001-0.132,0.035-0.131,0.136c0,0.1,0.021,0.137,0.131,0.136
				c1.07-0.003,2.139-0.004,3.208,0.001c0.121,0.001,0.134-0.042,0.137-0.146c0.003-0.112-0.039-0.127-0.137-0.127
				C-13.358,22.689-13.893,22.688-14.428,22.688z M-9.088,22.688c-0.54,0-1.079,0.002-1.619-0.003
				c-0.104-0.001-0.125,0.035-0.121,0.128c0.003,0.086-0.004,0.146,0.12,0.146c1.075-0.005,2.149-0.004,3.225-0.001
				c0.109,0.001,0.131-0.036,0.132-0.136c0.001-0.102-0.022-0.137-0.132-0.136C-8.018,22.69-8.552,22.688-9.088,22.688z M6.9,22.688
				c-0.53,0-1.06,0.001-1.589-0.002c-0.094-0.001-0.146,0.008-0.142,0.125c0.003,0.103,0.015,0.149,0.137,0.148
				c1.069-0.005,2.139-0.004,3.207-0.001c0.109,0.001,0.133-0.034,0.131-0.134c-0.002-0.094-0.009-0.14-0.125-0.139
				C7.979,22.691,7.438,22.688,6.9,22.688z M-41.094,22.955c0.534,0,1.069-0.004,1.604,0.003c0.114,0.001,0.142-0.03,0.14-0.142
				c-0.001-0.103-0.024-0.133-0.132-0.132c-1.069,0.004-2.138,0.003-3.208,0c-0.102,0-0.136,0.023-0.136,0.131
				c-0.001,0.113,0.029,0.144,0.143,0.143C-42.153,22.952-41.624,22.955-41.094,22.955z M-19.752,22.688
				c-0.54,0-1.079,0.002-1.618-0.003c-0.106-0.002-0.122,0.038-0.121,0.129c0.002,0.088,0,0.145,0.122,0.145
				c1.073-0.005,2.146-0.005,3.22,0c0.114,0,0.126-0.043,0.127-0.139c0.001-0.1-0.019-0.136-0.128-0.134
				C-18.685,22.691-19.219,22.688-19.752,22.688z M-46.42,22.955c0.534,0,1.068-0.003,1.601,0.002
				c0.105,0.001,0.138-0.029,0.134-0.132c-0.004-0.092-0.005-0.141-0.124-0.141c-1.073,0.005-2.147,0.005-3.219,0.001
				c-0.116-0.001-0.123,0.045-0.125,0.139c-0.003,0.102,0.022,0.135,0.131,0.133C-47.488,22.952-46.955,22.955-46.42,22.955z
				 M-3.764,22.955c0.534,0,1.068-0.004,1.602,0.003c0.119,0.002,0.138-0.038,0.14-0.145c0.001-0.111-0.038-0.129-0.139-0.129
				c-1.067,0.003-2.136,0.004-3.204,0c-0.11-0.001-0.131,0.035-0.129,0.134c0.002,0.096,0.014,0.14,0.127,0.139
				C-4.832,22.952-4.297,22.955-3.764,22.955z M1.578,22.688c-0.539,0-1.078,0.002-1.617-0.003c-0.107-0.002-0.122,0.038-0.12,0.128
				c0.002,0.086-0.005,0.146,0.12,0.146c1.073-0.005,2.146-0.004,3.218-0.001c0.113,0.001,0.128-0.041,0.129-0.137
				c0.001-0.1-0.019-0.137-0.128-0.135C2.646,22.69,2.111,22.688,1.578,22.688z M-25.091,22.955c0.539,0,1.078-0.004,1.617,0.003
				c0.127,0.002,0.114-0.063,0.118-0.146c0.005-0.093-0.017-0.128-0.121-0.127c-1.072,0.004-2.146,0.004-3.218,0
				c-0.112-0.001-0.128,0.039-0.128,0.136c0.001,0.099,0.02,0.138,0.13,0.137C-26.159,22.952-25.625,22.955-25.091,22.955z
				 M-47.488,23.754c-0.127-0.033-0.131,0.041-0.136,0.14c-0.005,0.115,0.044,0.125,0.139,0.126c0.102,0.002,0.137-0.023,0.134-0.13
				C-47.354,23.788-47.364,23.721-47.488,23.754z M-4.827,24.014c0.101,0.022,0.143-0.008,0.141-0.12
				c-0.002-0.103-0.015-0.148-0.136-0.148c-0.118-0.001-0.139,0.039-0.138,0.145C-4.959,23.992-4.937,24.043-4.827,24.014z
				 M0.508,24.013c0.107,0.028,0.134-0.017,0.133-0.122c0-0.104-0.015-0.151-0.135-0.145c-0.1,0.004-0.14,0.022-0.138,0.131
				C0.371,23.983,0.387,24.044,0.508,24.013z M-26.025,23.906c0.01-0.092,0.017-0.171-0.119-0.159
				c-0.083,0.008-0.158-0.007-0.146,0.118c0.007,0.085-0.014,0.171,0.124,0.152C-26.09,24.008-25.995,24.038-26.025,23.906z
				 M-42.288,23.862c-0.003,0.085-0.022,0.173,0.111,0.156c0.079-0.01,0.179,0.028,0.157-0.118
				c-0.011-0.073,0.026-0.169-0.111-0.151C-42.211,23.759-42.318,23.72-42.288,23.862z M-36.82,24.011
				c0.108,0.036,0.137-0.012,0.139-0.125c0.001-0.111-0.03-0.143-0.141-0.14c-0.099,0.002-0.14,0.02-0.134,0.129
				C-36.953,23.97-36.956,24.048-36.82,24.011z M-31.355,23.883c0.032-0.127-0.041-0.132-0.141-0.136
				c-0.116-0.005-0.123,0.046-0.126,0.14c-0.003,0.103,0.023,0.137,0.13,0.134C-31.389,24.017-31.325,24.005-31.355,23.883z
				 M-20.696,23.876c0.033-0.105-0.02-0.127-0.123-0.13c-0.108-0.003-0.142,0.025-0.145,0.14c-0.002,0.125,0.05,0.131,0.149,0.134
				C-20.705,24.024-20.671,23.984-20.696,23.876z M-15.5,24.014c0.102,0.02,0.158-0.001,0.146-0.125
				c-0.008-0.086,0.001-0.153-0.121-0.142c-0.086,0.009-0.166-0.009-0.153,0.125C-15.62,23.964-15.632,24.049-15.5,24.014z
				 M-10.025,23.888c0.03-0.12-0.028-0.141-0.136-0.142c-0.107-0.002-0.134,0.033-0.131,0.135c0.001,0.094,0.008,0.147,0.125,0.138
				C-10.075,24.012-9.989,24.023-10.025,23.888z M5.967,23.873c0.036-0.109-0.026-0.122-0.125-0.126
				c-0.112-0.004-0.139,0.031-0.144,0.142c-0.004,0.13,0.058,0.126,0.152,0.132C5.966,24.026,5.991,23.978,5.967,23.873z"/>
			<path fill-rule="evenodd" clip-rule="evenodd" fill="#FEFEFE" d="M4.909,9.518c0,0.19-0.002,0.38,0.001,0.57
				c0.002,0.079-0.025,0.103-0.103,0.102c-0.38-0.003-0.76-0.004-1.14,0c-0.084,0.001-0.1-0.033-0.097-0.106
				c0.005-0.104-0.002-0.21,0.002-0.314c0.003-0.078-0.013-0.118-0.104-0.116c-0.195,0.006-0.39,0.007-0.584,0
				C2.768,9.649,2.775,9.718,2.773,9.797C2.77,9.879,2.782,9.932,2.884,9.922C2.969,9.913,3.054,9.92,3.139,9.92
				c0.172,0,0.188,0.021,0.167,0.201c-0.007,0.052-0.024,0.068-0.074,0.067c-0.214-0.001-0.43-0.003-0.644,0.001
				c-0.07,0-0.083-0.033-0.082-0.092c0.002-0.205,0.003-0.41-0.001-0.615C2.504,9.395,2.55,9.389,2.618,9.39
				c0.28,0.001,0.56-0.003,0.838,0.002c0.093,0.002,0.125-0.025,0.118-0.118c-0.008-0.104,0.005-0.21-0.003-0.314
				C3.56,8.83,3.649,8.865,3.717,8.859c0.079-0.006,0.129,0,0.126,0.106c-0.008,0.28,0.002,0.56-0.006,0.839
				c-0.003,0.11,0.045,0.117,0.131,0.117c0.091,0,0.147-0.001,0.143-0.123c-0.01-0.264,0-0.53-0.004-0.794
				c-0.002-0.098,0.003-0.151,0.13-0.151c0.132,0,0.144,0.053,0.141,0.159c-0.005,0.265,0.005,0.53-0.005,0.794
				C4.369,9.922,4.425,9.923,4.508,9.921c0.08-0.001,0.142,0.004,0.138-0.114c-0.009-0.28,0.002-0.56-0.005-0.84
				C4.638,8.866,4.683,8.853,4.765,8.859c0.073,0.004,0.152-0.021,0.146,0.104C4.903,9.148,4.909,9.333,4.909,9.518z"/>
			<path fill-rule="evenodd" clip-rule="evenodd" fill="#FEFEFE" d="M9.561,10.188c-0.185,0-0.37-0.004-0.554,0.001
				c-0.081,0.002-0.104-0.025-0.1-0.103c0.007-0.114-0.001-0.23,0.003-0.345c0.002-0.064-0.023-0.087-0.087-0.087
				c-0.209,0.003-0.419,0.004-0.629,0C8.084,9.653,8.104,9.727,8.104,9.789c0.001,0.059-0.027,0.137,0.085,0.133
				c0.12-0.006,0.24,0.004,0.36-0.003c0.124-0.007,0.089,0.079,0.089,0.141c0,0.059,0.03,0.135-0.084,0.131
				c-0.209-0.006-0.419-0.004-0.629,0c-0.077,0.001-0.09-0.035-0.089-0.1c0.003-0.195,0.005-0.39-0.002-0.584
				C7.832,9.408,7.869,9.387,7.957,9.389c0.275,0.004,0.55-0.002,0.825,0.003C8.875,9.394,8.92,9.372,8.91,9.269
				C8.901,9.18,8.916,9.088,8.906,8.999C8.896,8.891,8.927,8.855,9.043,8.854c0.121,0,0.137,0.046,0.135,0.149
				C9.172,9.268,9.18,9.533,9.174,9.797C9.171,9.896,9.2,9.928,9.298,9.922C9.384,9.917,9.45,9.927,9.445,9.801
				C9.437,9.532,9.447,9.262,9.44,8.992c-0.003-0.102,0.021-0.136,0.13-0.137c0.114-0.001,0.144,0.033,0.14,0.144
				c-0.009,0.255,0.001,0.51-0.004,0.766c-0.002,0.1,0,0.16,0.136,0.162c0.151,0.002,0.128-0.081,0.128-0.17
				c-0.001-0.26,0.005-0.52-0.003-0.779c-0.004-0.111,0.045-0.122,0.134-0.119c0.078,0.003,0.14-0.007,0.138,0.112
				c-0.009,0.37-0.005,0.74-0.001,1.109c0,0.083-0.022,0.114-0.108,0.111C9.94,10.184,9.751,10.188,9.561,10.188z"/>
			<path fill-rule="evenodd" clip-rule="evenodd" fill="#FEFEFE" d="M5.849,9.391c0.18,0,0.359,0.005,0.539-0.003
				c0.101-0.003,0.128,0.032,0.124,0.128C6.505,9.644,6.466,9.817,6.532,9.891c0.077,0.086,0.253,0.021,0.386,0.028
				c0.079,0.004,0.16-0.003,0.239,0.002c0.094,0.005,0.158,0,0.154-0.129C7.309,9.674,7.266,9.645,7.161,9.655
				C7.086,9.661,7.012,9.656,6.936,9.656c-0.15,0-0.205-0.078-0.159-0.221c0.015-0.047,0.047-0.044,0.081-0.044
				c0.21,0,0.419,0,0.629-0.001c0.064-0.001,0.089,0.021,0.088,0.086c-0.003,0.21-0.003,0.419,0,0.629
				c0.001,0.067-0.027,0.084-0.089,0.084c-0.385-0.002-0.769-0.003-1.153,0c-0.073,0-0.101-0.023-0.092-0.094
				c0.002-0.015,0.001-0.03,0-0.044C6.232,9.922,6.296,9.746,6.214,9.678c-0.079-0.064-0.249-0.025-0.378-0.02
				c-0.127,0.003-0.29-0.057-0.374,0.029C5.385,9.766,5.436,9.926,5.44,10.048c0.004,0.109-0.022,0.144-0.138,0.145
				c-0.125,0.002-0.135-0.052-0.132-0.151c0.005-0.175,0.006-0.35-0.001-0.524c-0.003-0.096,0.023-0.133,0.125-0.13
				C5.479,9.395,5.664,9.391,5.849,9.391z"/>
			<path fill-rule="evenodd" clip-rule="evenodd" fill="#FEFEFE" d="M1.57,10.188c-0.19,0-0.38-0.003-0.569,0.001
				c-0.07,0-0.105-0.019-0.097-0.093c0.003-0.019,0.002-0.04,0.001-0.06C0.896,9.914,0.959,9.75,0.877,9.678
				c-0.069-0.06-0.229-0.023-0.348-0.021C0.396,9.66,0.225,9.601,0.14,9.682c-0.088,0.083-0.03,0.256-0.026,0.389
				c0.003,0.11-0.046,0.123-0.134,0.119c-0.077-0.003-0.146,0.01-0.138-0.111c0.011-0.195,0.005-0.39,0.001-0.584
				c-0.002-0.077,0.02-0.106,0.101-0.105c0.38,0.003,0.76,0.002,1.14,0c0.074,0,0.093,0.029,0.091,0.097
				c-0.004,0.11,0.002,0.22-0.002,0.33C1.168,9.89,1.187,9.924,1.27,9.922c0.205-0.005,0.41-0.006,0.615,0
				C1.99,9.925,1.979,9.861,1.977,9.796C1.975,9.729,1.998,9.648,1.882,9.655c-0.101,0.005-0.201-0.005-0.3,0.003
				C1.476,9.666,1.436,9.643,1.436,9.522c0-0.123,0.047-0.138,0.148-0.133c0.18,0.006,0.36,0.005,0.54,0
				c0.087-0.003,0.125,0.02,0.122,0.116c-0.008,0.189-0.008,0.38,0,0.57c0.003,0.096-0.032,0.118-0.121,0.115
				C1.94,10.184,1.755,10.188,1.57,10.188z"/>
			<path fill-rule="evenodd" clip-rule="evenodd" fill="#FEFEFE" d="M6.915,9.125c-0.534,0-1.067-0.002-1.603,0.003
				c-0.108,0.001-0.146-0.024-0.145-0.14C5.169,8.88,5.205,8.857,5.306,8.857c1.068,0.004,2.136,0.004,3.204,0
				c0.103,0,0.133,0.023,0.135,0.13c0.001,0.114-0.031,0.143-0.143,0.141C7.973,9.122,7.444,9.125,6.915,9.125z"/>
			<path fill-rule="evenodd" clip-rule="evenodd" fill="#FEFEFE" d="M1.56,8.86c0.539,0,1.079,0.002,1.618-0.003
				c0.108-0.001,0.131,0.034,0.131,0.135c0,0.102-0.025,0.136-0.133,0.136c-1.069-0.005-2.138-0.005-3.206,0
				c-0.111,0-0.129-0.038-0.131-0.137c-0.001-0.104,0.026-0.135,0.132-0.134C0.501,8.862,1.03,8.86,1.56,8.86z"/>
			<path fill-rule="evenodd" clip-rule="evenodd" fill="#FEFEFE" d="M0.637,10.053c0.022,0.101-0.01,0.141-0.121,0.139
				c-0.102-0.002-0.154-0.015-0.147-0.136c0.006-0.095,0.018-0.143,0.13-0.14C0.602,9.918,0.666,9.931,0.637,10.053z"/>
			<path fill-rule="evenodd" clip-rule="evenodd" fill="#FEFEFE" d="M5.969,10.051c0.022,0.099-0.005,0.145-0.119,0.141
				c-0.098-0.004-0.154-0.008-0.151-0.134c0.004-0.112,0.033-0.144,0.145-0.142C5.947,9.918,5.996,9.943,5.969,10.051z"/>
			<path fill-rule="evenodd" clip-rule="evenodd" fill="#FEFEFE" d="M10.238,23.354c0,0.19-0.002,0.38,0.001,0.57
				c0.001,0.071-0.018,0.094-0.092,0.094c-0.384-0.003-0.77-0.002-1.154-0.001c-0.063,0.001-0.089-0.016-0.086-0.083
				c0.006-0.114-0.002-0.23,0.003-0.344c0.003-0.072-0.011-0.11-0.097-0.108c-0.204,0.006-0.409,0.006-0.614,0.001
				c-0.133-0.003-0.085,0.09-0.095,0.155c-0.011,0.079,0.012,0.12,0.104,0.115c0.115-0.007,0.23,0.003,0.344-0.003
				c0.126-0.007,0.084,0.083,0.087,0.143c0.003,0.06,0.026,0.131-0.086,0.126c-0.21-0.007-0.42-0.003-0.63-0.001
				c-0.063,0.001-0.087-0.021-0.086-0.086c0.003-0.205,0.004-0.41-0.001-0.614c-0.003-0.084,0.033-0.099,0.106-0.099
				c0.265,0.003,0.529-0.005,0.794,0.004c0.13,0.004,0.194-0.023,0.174-0.168c-0.012-0.083,0.006-0.17-0.004-0.254
				c-0.016-0.115,0.049-0.117,0.132-0.113c0.075,0.002,0.146-0.017,0.141,0.109c-0.011,0.274,0.002,0.549-0.006,0.823
				c-0.003,0.104,0.023,0.136,0.131,0.136c0.11-0.001,0.146-0.027,0.142-0.143c-0.01-0.259-0.001-0.519-0.005-0.779
				c-0.001-0.094-0.001-0.152,0.129-0.151c0.133,0,0.142,0.055,0.14,0.16c-0.006,0.265,0.003,0.53-0.005,0.794
				c-0.003,0.111,0.047,0.118,0.133,0.116c0.081-0.002,0.141,0.003,0.136-0.114c-0.009-0.279,0.004-0.559-0.005-0.839
				c-0.005-0.119,0.058-0.112,0.137-0.113c0.082-0.001,0.142-0.003,0.134,0.114C10.229,22.984,10.238,23.169,10.238,23.354z"/>
			<path fill-rule="evenodd" clip-rule="evenodd" fill="#FEFEFE" d="M4.229,24.017c-0.179,0-0.358-0.004-0.539,0.001
				c-0.087,0.003-0.135-0.015-0.117-0.112c0.001-0.006,0-0.01,0-0.016c-0.01-0.133,0.057-0.311-0.029-0.387
				c-0.074-0.064-0.248-0.018-0.377-0.02c-0.08-0.001-0.161,0.008-0.24-0.002c-0.127-0.015-0.165,0.037-0.156,0.159
				c0.004,0.082,0.021,0.118,0.109,0.112c0.094-0.007,0.191,0.005,0.285-0.003c0.109-0.01,0.145,0.021,0.146,0.137
				c0.001,0.123-0.044,0.137-0.147,0.132c-0.185-0.007-0.369-0.005-0.555,0c-0.079,0.003-0.104-0.021-0.102-0.101
				c0.004-0.2,0.005-0.4,0-0.599c-0.003-0.082,0.028-0.102,0.104-0.101c0.284,0.003,0.569-0.001,0.854,0.003
				c0.084,0.002,0.115-0.022,0.109-0.108c-0.006-0.1,0.006-0.201-0.003-0.3c-0.011-0.111,0.035-0.131,0.135-0.129
				c0.094,0.002,0.143,0.009,0.139,0.125c-0.01,0.279,0.002,0.56-0.006,0.839c-0.004,0.113,0.056,0.105,0.128,0.102
				c0.07-0.002,0.149,0.026,0.145-0.102c-0.009-0.279,0.004-0.56-0.006-0.839c-0.004-0.117,0.045-0.124,0.139-0.125
				c0.102-0.002,0.138,0.023,0.135,0.132c-0.008,0.274,0.004,0.55-0.006,0.824c-0.004,0.119,0.057,0.111,0.136,0.111
				c0.082,0.001,0.141,0.004,0.137-0.114c-0.009-0.28,0.004-0.56-0.006-0.838c-0.004-0.119,0.057-0.112,0.136-0.113
				c0.083-0.001,0.138,0,0.135,0.115c-0.008,0.37-0.005,0.74-0.001,1.109c0.001,0.088-0.029,0.11-0.111,0.108
				C4.608,24.013,4.419,24.017,4.229,24.017z"/>
			<path fill-rule="evenodd" clip-rule="evenodd" fill="#FEFEFE" d="M6.898,24.017c-0.17,0-0.341-0.006-0.51,0.001
				c-0.109,0.006-0.16-0.014-0.152-0.142c0.009-0.127,0.059-0.299-0.022-0.374c-0.069-0.063-0.238-0.022-0.363-0.018
				c-0.132,0.004-0.303-0.059-0.389,0.028c-0.079,0.08-0.027,0.248-0.021,0.376c0.004,0.11-0.034,0.132-0.136,0.131
				C5.207,24.019,5.164,24,5.169,23.889c0.01-0.185,0.005-0.37,0.002-0.554c-0.002-0.077,0.01-0.118,0.104-0.117
				c0.38,0.004,0.76,0.003,1.14,0c0.07,0,0.104,0.018,0.094,0.093c-0.002,0.019-0.001,0.04,0,0.059
				c0.009,0.124-0.056,0.292,0.025,0.358c0.078,0.062,0.238,0.02,0.363,0.021c0.095,0.002,0.19-0.007,0.285,0.002
				c0.111,0.012,0.128-0.039,0.13-0.137c0.001-0.106-0.035-0.142-0.138-0.134c-0.099,0.008-0.2-0.005-0.3,0.004
				c-0.117,0.011-0.097-0.065-0.097-0.134c0-0.067-0.02-0.139,0.098-0.134c0.199,0.009,0.4,0.006,0.6,0.001
				c0.081-0.002,0.102,0.028,0.1,0.104c-0.005,0.194-0.007,0.39,0.001,0.584c0.004,0.101-0.037,0.115-0.123,0.112
				C7.268,24.013,7.083,24.017,6.898,24.017z"/>
			<path fill-rule="evenodd" clip-rule="evenodd" fill="#FEFEFE" d="M1.567,24.017c-0.19,0-0.38-0.003-0.57,0.001
				c-0.071,0.001-0.102-0.022-0.093-0.094c0.003-0.02,0.002-0.04,0.001-0.06c-0.009-0.124,0.055-0.292-0.026-0.358
				c-0.076-0.062-0.238-0.022-0.362-0.022c-0.129,0-0.295-0.041-0.377,0.023c-0.088,0.069-0.031,0.244-0.027,0.371
				c0.004,0.112-0.028,0.144-0.141,0.143c-0.107-0.001-0.134-0.032-0.13-0.135c0.008-0.185,0.005-0.369,0.001-0.555
				c-0.002-0.08,0.015-0.114,0.105-0.113c0.375,0.004,0.75,0.003,1.125,0c0.076,0,0.107,0.018,0.103,0.1
				c-0.007,0.11,0.001,0.22-0.003,0.33c-0.004,0.075,0.015,0.107,0.097,0.104c0.205-0.005,0.41-0.006,0.614,0
				c0.104,0.003,0.098-0.058,0.093-0.125c-0.005-0.062,0.035-0.15-0.088-0.146c-0.12,0.005-0.24-0.004-0.359,0.003
				c-0.127,0.007-0.081-0.083-0.087-0.142c-0.004-0.063-0.019-0.13,0.089-0.125c0.205,0.007,0.41,0.004,0.614,0
				c0.081-0.001,0.103,0.03,0.101,0.105c-0.005,0.195-0.006,0.39,0,0.584c0.003,0.084-0.023,0.114-0.109,0.111
				C1.947,24.013,1.757,24.017,1.567,24.017z"/>
			<path fill-rule="evenodd" clip-rule="evenodd" fill="#FEFEFE" d="M6.9,22.688c0.539,0,1.079,0.003,1.619-0.004
				c0.116-0.001,0.123,0.045,0.125,0.139c0.002,0.101-0.021,0.135-0.131,0.134c-1.068-0.003-2.138-0.004-3.207,0.001
				c-0.123,0.001-0.134-0.045-0.137-0.148c-0.004-0.116,0.048-0.125,0.142-0.125C5.84,22.689,6.37,22.688,6.9,22.688z"/>
			<path fill-rule="evenodd" clip-rule="evenodd" fill="#FEFEFE" d="M1.578,22.688c0.533,0,1.067,0.002,1.602-0.003
				c0.11-0.002,0.13,0.036,0.128,0.135c-0.001,0.097-0.017,0.138-0.129,0.137c-1.072-0.003-2.146-0.004-3.218,0.001
				c-0.125,0.001-0.117-0.059-0.12-0.146c-0.002-0.09,0.012-0.13,0.12-0.128C0.5,22.69,1.039,22.688,1.578,22.688z"/>
			<path fill-rule="evenodd" clip-rule="evenodd" fill="#FEFEFE" d="M0.508,24.013c-0.122,0.032-0.137-0.03-0.139-0.135
				c-0.002-0.108,0.038-0.126,0.138-0.131c0.12-0.006,0.135,0.041,0.135,0.145C0.643,23.996,0.615,24.041,0.508,24.013z"/>
			<path fill-rule="evenodd" clip-rule="evenodd" fill="#FEFEFE" d="M5.967,23.873c0.024,0.105-0.001,0.153-0.116,0.147
				c-0.094-0.005-0.156-0.002-0.152-0.132c0.005-0.111,0.031-0.146,0.144-0.142C5.941,23.751,6.003,23.764,5.967,23.873z"/>
		</g>
	</g>
	<g>
		<defs>
			<circle id="SVGID_63_" cx="17.783" cy="17.028" r="15.917"/>
		</defs>
		<clipPath id="SVGID_4_">
			<use xlink:href="#SVGID_63_"  overflow="visible"/>
		</clipPath>
		<g clip-path="url(#SVGID_4_)">
			<path fill-rule="evenodd" clip-rule="evenodd" fill="#CD1124" d="M21.138,33.207c-2.245,0-4.489,0-6.734,0
				c0.002-0.073,0.005-0.146,0.005-0.219c0-4.319-0.001-8.64,0.006-12.96c0-0.215-0.056-0.257-0.263-0.257
				c-8.049,0.006-16.1,0.005-24.149,0.006c-0.073,0-0.146,0.003-0.218,0.004c0-2.244,0-4.489,0-6.733
				c0.051,0.002,0.102,0.005,0.153,0.005c8.086,0,16.173-0.001,24.259,0.005c0.196,0,0.217-0.067,0.217-0.235
				c-0.005-4.166-0.003-8.333-0.004-12.5c0-0.233-0.003-0.467-0.005-0.699c2.245,0,4.489,0,6.734,0
				c-0.002,0.072-0.005,0.146-0.005,0.218c0,4.32,0.002,8.641-0.005,12.96c0,0.215,0.056,0.257,0.262,0.257
				c8.05-0.006,16.1-0.005,24.15-0.005c0.073,0,0.146-0.003,0.218-0.005c0,2.244,0,4.489,0,6.733
				c-0.051-0.001-0.102-0.004-0.152-0.004c-8.087-0.001-16.173,0-24.259-0.006c-0.197,0-0.217,0.067-0.217,0.235
				c0.004,4.167,0.003,8.334,0.003,12.501C21.132,32.74,21.136,32.973,21.138,33.207z"/>
			<path fill-rule="evenodd" clip-rule="evenodd" fill="#FEFEFE" d="M14.403-0.377c0.002,0.232,0.005,0.466,0.005,0.699
				c0,4.167-0.001,8.334,0.004,12.5c0,0.168-0.021,0.235-0.217,0.235c-8.086-0.006-16.173-0.005-24.259-0.005
				c-0.051,0-0.102-0.003-0.153-0.005c0-4.417,0.001-8.833-0.004-13.25c0-0.149,0.029-0.18,0.179-0.18
				C-1.893-0.377,6.255-0.377,14.403-0.377z"/>
			<path fill-rule="evenodd" clip-rule="evenodd" fill="#FEFEFE" d="M45.757,13.047c-0.072,0.002-0.145,0.005-0.218,0.005
				c-8.05,0-16.1-0.001-24.15,0.005c-0.206,0-0.262-0.042-0.262-0.257c0.007-4.319,0.005-8.64,0.005-12.96
				c0-0.072,0.003-0.146,0.005-0.218c8.144,0,16.287,0,24.431-0.004c0.148,0,0.194,0.02,0.194,0.187
				C45.756,4.219,45.757,8.633,45.757,13.047z"/>
			<path fill-rule="evenodd" clip-rule="evenodd" fill="#FEFEFE" d="M-10.216,19.781c0.073-0.001,0.146-0.004,0.218-0.004
				c8.05-0.001,16.1,0,24.149-0.006c0.207,0,0.263,0.042,0.263,0.257c-0.007,4.32-0.005,8.641-0.006,12.96
				c0,0.073-0.003,0.146-0.005,0.219c-8.141,0-16.282-0.001-24.422,0.004c-0.165,0-0.201-0.037-0.201-0.201
				C-10.215,28.6-10.216,24.191-10.216,19.781z"/>
			<path fill-rule="evenodd" clip-rule="evenodd" fill="#FEFEFE" d="M21.138,33.207c-0.002-0.233-0.005-0.467-0.005-0.699
				c0-4.167,0.001-8.334-0.003-12.501c0-0.168,0.02-0.235,0.217-0.235c8.086,0.006,16.172,0.005,24.259,0.006
				c0.051,0,0.102,0.003,0.152,0.004c0,4.417-0.001,8.834,0.004,13.251c0,0.149-0.029,0.179-0.179,0.179
				C37.434,33.206,29.286,33.207,21.138,33.207z"/>
		</g>
	</g>
	<g>
		<defs>
			<circle id="SVGID_97_" cx="53.783" cy="16.595" r="15.917"/>
		</defs>
		<clipPath id="SVGID_6_">
			<use xlink:href="#SVGID_97_"  overflow="visible"/>
		</clipPath>
		<g clip-path="url(#SVGID_6_)">
			<path fill-rule="evenodd" clip-rule="evenodd" fill="#DF761C" d="M30.252,11.504c0-3.748,0-7.495,0-11.244
				c15.58,0,31.159,0,46.739,0c0,3.749,0,7.497,0,11.244c-0.035,0.047-0.087,0.057-0.142,0.06c-0.08,0.003-0.16,0.003-0.24,0.003
				c-15.325,0-30.65,0-45.977,0c-0.08,0-0.16,0.001-0.24-0.003C30.339,11.561,30.288,11.551,30.252,11.504z"/>
			<path fill-rule="evenodd" clip-rule="evenodd" fill="#4F8723" d="M76.991,22.057c0,3.749,0,7.497,0,11.245
				c-0.046,0.025-0.096,0.013-0.144,0.013c-15.483,0-30.967,0-46.451,0c-0.048,0-0.098,0.012-0.144-0.013c0-3.749,0-7.497,0-11.245
				c0.036-0.047,0.087-0.058,0.142-0.06c0.08-0.003,0.16-0.003,0.239-0.003c15.326,0,30.65,0,45.976,0c0.081,0,0.16,0,0.24,0.003
				C76.904,21.999,76.956,22.009,76.991,22.057z"/>
			<path fill-rule="evenodd" clip-rule="evenodd" fill="#FFFFFF" d="M76.991,22.057c-0.054,0-0.106,0.001-0.16,0.001
				c-15.473,0-30.946,0-46.419,0c-0.053,0-0.106,0-0.16-0.001c0-3.518,0-7.035,0-10.552c15.58,0,31.159,0,46.739,0
				C76.991,15.021,76.991,18.539,76.991,22.057z"/>
			<path fill-rule="evenodd" clip-rule="evenodd" fill="#C4D7B5" d="M30.252,33.302c15.58,0,31.159,0,46.739,0
				c-0.005,0.008,0.014,0.028-0.013,0.026c-0.036-0.001-0.071,0-0.106,0c-15.5,0-31,0-46.5-0.001
				C30.333,33.327,30.282,33.358,30.252,33.302z"/>
		</g>
	</g>
</g>
<g id="Imagenes">
</g>
<g id="Cintillos">
</g>
<g id="Botones">
</g>
<g id="TXT">
</g>
<g id="Logo">
</g>
<g id="Guia">
</g>
</svg>
