<?xml version="1.0" encoding="utf-8"?>
<!-- Generator: Adobe Illustrator 16.0.0, SVG Export Plug-In . SVG Version: 6.00 Build 0)  -->
<!DOCTYPE svg PUBLIC "-//W3C//DTD SVG 1.1//EN" "http://www.w3.org/Graphics/SVG/1.1/DTD/svg11.dtd">
<svg version="1.1" xmlns="http://www.w3.org/2000/svg" xmlns:xlink="http://www.w3.org/1999/xlink" x="0px" y="0px"
	 width="34.417px" height="34.25px" viewBox="0 0 34.417 34.25" enable-background="new 0 0 34.417 34.25" xml:space="preserve">
<g id="Soporte">
</g>
<g id="Publicidad">
</g>
<g id="Iconos">
	<g>
		<defs>
			<circle id="SVGID_55_" cx="-19.217" cy="17.028" r="15.917"/>
		</defs>
		<clipPath id="SVGID_2_">
			<use xlink:href="#SVGID_55_"  overflow="visible"/>
		</clipPath>
		<g clip-path="url(#SVGID_2_)">
			<path fill-rule="evenodd" clip-rule="evenodd" fill="#FEFEFE" d="M-19.48,32.994c-8.123,0-16.246,0-24.369,0.003
				c-0.142,0-0.178-0.028-0.178-0.175c0.004-10.797,0.004-21.594-0.001-32.391c0-0.165,0.045-0.181,0.191-0.181
				C-27.584,0.254-11.332,0.254,4.921,0.25c0.153,0,0.188,0.028,0.188,0.186c-0.005,10.79-0.005,21.58,0.001,32.371
				c0,0.175-0.052,0.19-0.201,0.19C-3.222,32.993-11.352,32.994-19.48,32.994z M-19.472,26.44c5.437,0,9.837-4.39,9.837-9.815
				c0.001-5.398-4.389-9.79-9.756-9.824c-5.384-0.035-9.896,4.327-9.895,9.82C-29.285,22.042-24.89,26.439-19.472,26.44z"/>
		</g>
	</g>
	<g>
		<defs>
			<circle id="SVGID_57_" cx="17.1" cy="16.595" r="15.917"/>
		</defs>
		<clipPath id="SVGID_4_">
			<use xlink:href="#SVGID_57_"  overflow="visible"/>
		</clipPath>
		<g clip-path="url(#SVGID_4_)">
			<rect x="-7.313" y="0.137" fill="#009246" width="16.276" height="32.551"/>
			<rect x="8.963" y="0.137" fill="#FFFFFF" width="16.274" height="32.551"/>
			<rect x="25.237" y="0.137" fill="#CE2B37" width="16.275" height="32.551"/>
		</g>
	</g>
	<g>
		<defs>
			<circle id="SVGID_59_" cx="53.783" cy="16.595" r="15.917"/>
		</defs>
		<clipPath id="SVGID_6_">
			<use xlink:href="#SVGID_59_"  overflow="visible"/>
		</clipPath>
		<g clip-path="url(#SVGID_6_)">
			<path fill-rule="evenodd" clip-rule="evenodd" fill="#FEFEFE" d="M30.642,24.858c0-5.685,0-11.369,0-17.053
				c0.047-0.001,0.094-0.004,0.141-0.004c15.545,0,31.09,0,46.635,0c0.046,0,0.094,0.002,0.14,0.004c0,5.685,0,11.369,0,17.053
				c-0.046,0.001-0.094,0.004-0.14,0.004c-15.545,0-31.09,0-46.635,0C30.735,24.862,30.688,24.859,30.642,24.858z M47.705,12.636
				c0.034,0.061,0.056,0.102,0.079,0.141c0.664,1.149,1.326,2.299,1.992,3.446c0.047,0.082,0.044,0.139-0.003,0.219
				c-0.668,1.151-1.333,2.304-1.997,3.457c-0.022,0.038-0.058,0.072-0.052,0.127c0.047,0,0.09,0,0.133,0
				c1.328,0,2.658,0.001,3.987-0.002c0.096,0,0.144,0.033,0.19,0.112c0.664,1.157,1.333,2.313,1.999,3.469
				c0.02,0.032,0.04,0.064,0.062,0.098c0.044-0.028,0.056-0.071,0.077-0.107c0.668-1.155,1.335-2.311,2-3.468
				c0.046-0.079,0.094-0.103,0.184-0.103c1.332,0.003,2.666,0.002,3.999,0.002c0.041,0,0.082,0,0.14,0
				c-0.028-0.052-0.047-0.089-0.067-0.125c-0.669-1.159-1.338-2.319-2.009-3.477c-0.041-0.07-0.038-0.12,0.002-0.188
				c0.668-1.155,1.335-2.311,2.001-3.467c0.023-0.039,0.058-0.073,0.058-0.132c-0.044,0-0.086,0-0.128,0
				c-1.325,0-2.65-0.001-3.975,0.002c-0.101,0-0.158-0.025-0.211-0.118c-0.659-1.151-1.323-2.299-1.987-3.448
				c-0.022-0.038-0.046-0.076-0.076-0.125c-0.03,0.051-0.052,0.086-0.074,0.123c-0.666,1.153-1.331,2.305-1.993,3.458
				c-0.047,0.082-0.098,0.109-0.192,0.109c-1.329-0.003-2.658-0.002-3.987-0.002C47.811,12.636,47.768,12.636,47.705,12.636z"/>
			<path fill-rule="evenodd" clip-rule="evenodd" fill="#0138B7" d="M77.557,7.805c-0.046-0.001-0.094-0.004-0.14-0.004
				c-15.545,0-31.09,0-46.635,0c-0.047,0-0.094,0.002-0.141,0.004c0-1.783,0-3.566,0-5.349c0.043,0.002,0.085,0.007,0.128,0.007
				c15.553,0,31.107,0,46.66,0c0.042,0,0.085-0.004,0.127-0.007C77.557,4.239,77.557,6.021,77.557,7.805z"/>
			<path fill-rule="evenodd" clip-rule="evenodd" fill="#0138B7" d="M30.642,24.858c0.047,0.001,0.094,0.004,0.141,0.004
				c15.545,0,31.09,0,46.635,0c0.046,0,0.094-0.002,0.14-0.004c0,1.783,0,3.566,0,5.349c-0.042-0.002-0.085-0.007-0.127-0.007
				c-15.553,0-31.107,0-46.66,0c-0.043,0-0.085,0.004-0.128,0.007C30.642,28.424,30.642,26.641,30.642,24.858z"/>
			<path fill-rule="evenodd" clip-rule="evenodd" fill="#FEFEFE" d="M77.557,2.456c-0.042,0.002-0.085,0.007-0.127,0.007
				c-15.553,0-31.107,0-46.66,0c-0.043,0-0.085-0.004-0.128-0.007c0-1.032,0.001-2.064-0.002-3.097
				c-0.001-0.081,0.016-0.096,0.096-0.096c4.637,0.002,9.273,0.002,13.91,0.002c10.936,0,21.871,0,32.806-0.002
				c0.088,0,0.109,0.02,0.108,0.108C77.556,0.399,77.557,1.428,77.557,2.456z"/>
			<path fill-rule="evenodd" clip-rule="evenodd" fill="#FEFEFE" d="M30.642,30.207c0.043-0.002,0.085-0.007,0.128-0.007
				c15.553,0,31.107,0,46.66,0c0.042,0,0.085,0.004,0.127,0.007c0,1.032,0,2.064,0.002,3.097c0.001,0.081-0.016,0.096-0.096,0.096
				c-4.645-0.002-9.289-0.002-13.934-0.002c-10.927,0-21.854,0-32.782,0.002c-0.088,0-0.108-0.02-0.107-0.107
				C30.644,32.263,30.642,31.235,30.642,30.207z"/>
		</g>
	</g>
</g>
<g id="Imagenes">
</g>
<g id="Cintillos">
</g>
<g id="Botones">
</g>
<g id="TXT">
</g>
<g id="Logo">
</g>
<g id="Guia">
</g>
</svg>
