<?xml version="1.0" encoding="utf-8"?>
<!-- Generator: Adobe Illustrator 16.0.0, SVG Export Plug-In . SVG Version: 6.00 Build 0)  -->
<!DOCTYPE svg PUBLIC "-//W3C//DTD SVG 1.1//EN" "http://www.w3.org/Graphics/SVG/1.1/DTD/svg11.dtd">
<svg version="1.1" xmlns="http://www.w3.org/2000/svg" xmlns:xlink="http://www.w3.org/1999/xlink" x="0px" y="0px"
	 width="34.417px" height="34.25px" viewBox="0 0 34.417 34.25" enable-background="new 0 0 34.417 34.25" xml:space="preserve">
<g id="Soporte">
</g>
<g id="Publicidad">
</g>
<g id="Iconos">
	<g>
		<defs>
			<circle id="SVGID_43_" cx="-18.217" cy="16.595" r="15.917"/>
		</defs>
		<clipPath id="SVGID_2_">
			<use xlink:href="#SVGID_43_"  overflow="visible"/>
		</clipPath>
		<g clip-path="url(#SVGID_2_)">
			<path fill-rule="evenodd" clip-rule="evenodd" fill="#D42B1E" d="M-47.953,11.199c0-3.584,0.001-7.167-0.004-10.75
				c0-0.159,0.031-0.19,0.19-0.19c19.73,0.005,39.461,0.005,59.191,0c0.159,0,0.191,0.031,0.19,0.19
				c-0.006,3.583-0.004,7.166-0.004,10.75c-0.068,0.063-0.152,0.071-0.239,0.074c-0.093,0.004-0.186,0.002-0.279,0.002
				c-19.51,0-39.019,0-58.528-0.002C-47.609,11.273-47.795,11.319-47.953,11.199z"/>
			<path fill-rule="evenodd" clip-rule="evenodd" fill="#0038A7" d="M11.61,22.087c0,3.583-0.001,7.166,0.004,10.749
				c0,0.159-0.031,0.19-0.19,0.19c-19.73-0.004-39.461-0.004-59.191,0c-0.159,0-0.191-0.031-0.19-0.19
				c0.006-3.583,0.004-7.166,0.004-10.749c0.068-0.063,0.152-0.071,0.239-0.074c0.093-0.004,0.186-0.003,0.279-0.003
				c19.51,0,39.019,0,58.528,0.002C11.267,22.012,11.452,21.967,11.61,22.087z"/>
			<path fill-rule="evenodd" clip-rule="evenodd" fill="#FEFEFE" d="M11.61,22.087c-0.093,0.004-0.186,0.011-0.278,0.011
				c-19.669,0.001-39.338,0.001-59.007,0c-0.093,0-0.186-0.007-0.278-0.011c0-3.63,0-7.26,0-10.889
				c0.093-0.004,0.186-0.011,0.278-0.011c19.669-0.001,39.338-0.001,59.007,0c0.093,0,0.186,0.007,0.278,0.011
				C11.61,14.828,11.61,18.458,11.61,22.087z"/>
		</g>
	</g>
	<g>
		<defs>
			<circle id="SVGID_45_" cx="16.783" cy="16.595" r="15.917"/>
		</defs>
		<clipPath id="SVGID_4_">
			<use xlink:href="#SVGID_45_"  overflow="visible"/>
		</clipPath>
		<g clip-path="url(#SVGID_4_)">
			<path fill-rule="evenodd" clip-rule="evenodd" fill="#D11034" d="M16.896-0.348c6.853,0,13.705,0,20.558-0.002
				c0.081,0,0.102,0.017,0.102,0.124c-0.003,5.7-0.003,11.401-0.003,17.102c-0.046-0.024-0.095-0.012-0.143-0.012
				c-6.787,0-13.573,0-20.36-0.001c-0.052,0-0.103-0.001-0.155-0.002l0.002,0.004c0-0.052-0.001-0.104-0.001-0.155
				C16.896,11.023,16.896,5.338,16.896-0.348z"/>
			<path fill-rule="evenodd" clip-rule="evenodd" fill="#FEFEFE" d="M16.896,16.854c6.853,0,13.705,0,20.558-0.002
				c0.081,0,0.102,0.017,0.102,0.124c-0.003,5.7-0.003,11.401-0.003,17.102c-0.046-0.024-0.095-0.012-0.143-0.012
				c-6.787,0-13.573,0-20.36-0.001c-0.052,0-0.103-0.001-0.155-0.002l0.002,0.004c0-0.052-0.001-0.104-0.001-0.155
				C16.896,28.226,16.896,22.54,16.896,16.854z"/>
			<path fill-rule="evenodd" clip-rule="evenodd" fill="#FEFEFE" d="M-3.779-0.348c6.853,0,13.705,0,20.558-0.002
				c0.081,0,0.102,0.017,0.102,0.124c-0.003,5.7-0.003,11.401-0.003,17.102c-0.046-0.024-0.095-0.012-0.143-0.012
				c-6.787,0-13.573,0-20.36-0.001c-0.052,0-0.103-0.001-0.155-0.002l0.002,0.004c0-0.052-0.001-0.104-0.001-0.155
				C-3.779,11.023-3.779,5.338-3.779-0.348z"/>
			<path fill-rule="evenodd" clip-rule="evenodd" fill="#005292" d="M16.896,16.87l-0.002-0.004c0,0.056,0.001,0.111,0.001,0.167
				c0,5.658,0,11.316,0,16.974c-6.853,0-13.705,0-20.557,0.002c-0.082,0-0.102-0.017-0.102-0.124
				c0.002-5.677,0.002-11.354,0.002-17.031c0.047,0.024,0.095,0.012,0.143,0.012c6.787,0,13.573,0,20.36,0.001
				C16.793,16.868,16.845,16.869,16.896,16.87z"/>
			<path fill-rule="evenodd" clip-rule="evenodd" fill="#005292" d="M4.572,12.76c-0.028-0.038-0.001-0.072,0.01-0.106
				c0.235-0.725,0.469-1.45,0.708-2.174c0.023-0.072,0.011-0.107-0.05-0.151C4.62,9.882,4.003,9.433,3.385,8.984
				C3.364,8.969,3.343,8.953,3.299,8.919c0.062,0,0.098,0,0.134,0c0.75,0,1.5-0.001,2.251,0.002c0.089,0,0.121-0.029,0.147-0.111
				c0.236-0.735,0.476-1.469,0.715-2.204C6.55,6.595,6.554,6.583,6.567,6.546c0.032,0.093,0.057,0.165,0.081,0.237
				c0.221,0.679,0.443,1.357,0.66,2.038c0.023,0.075,0.054,0.101,0.134,0.101c0.754-0.004,1.508-0.002,2.262-0.002
				c0.036,0,0.072,0,0.137,0C9.586,9.104,9.356,9.271,9.127,9.438c-0.409,0.297-0.817,0.596-1.229,0.889
				c-0.066,0.047-0.074,0.087-0.05,0.16c0.237,0.721,0.47,1.443,0.704,2.165c0.011,0.034,0.04,0.067,0.009,0.105l0.002,0.001
				c-0.138-0.13-0.3-0.228-0.451-0.339c-0.488-0.358-0.979-0.711-1.468-1.069c-0.053-0.039-0.088-0.049-0.148-0.004
				c-0.618,0.454-1.239,0.903-1.859,1.354C4.613,12.717,4.581,12.728,4.572,12.76L4.572,12.76z"/>
			<path fill-rule="evenodd" clip-rule="evenodd" fill="#005292" d="M4.571,12.761c-0.002-0.003-0.004-0.008-0.005-0.008
				c-0.011,0.002-0.013,0-0.005-0.007C4.565,12.75,4.568,12.755,4.571,12.761L4.571,12.761z"/>
			<polygon fill-rule="evenodd" clip-rule="evenodd" fill="#005292" points="8.562,12.757 8.567,12.754 8.563,12.758 			"/>
			<path fill-rule="evenodd" clip-rule="evenodd" fill="#D11034" d="M29.229,26.5c-0.045,0.011-0.066-0.029-0.094-0.049
				c-0.612-0.443-1.224-0.886-1.833-1.333c-0.063-0.046-0.101-0.041-0.159,0.002c-0.609,0.446-1.221,0.89-1.833,1.333
				c-0.027,0.02-0.047,0.062-0.093,0.047l0.003,0.002c0.066-0.277,0.169-0.543,0.255-0.814c0.151-0.478,0.308-0.954,0.467-1.429
				c0.026-0.078,0.014-0.12-0.054-0.168c-0.62-0.446-1.237-0.895-1.854-1.344c-0.021-0.015-0.052-0.021-0.057-0.062
				c0.035,0,0.068,0,0.101,0c0.757,0,1.515-0.001,2.271,0.002c0.078,0,0.11-0.021,0.135-0.098c0.237-0.742,0.479-1.483,0.72-2.224
				c0.003-0.009,0.009-0.018,0.013-0.026c0.037,0.005,0.027,0.037,0.033,0.057c0.239,0.731,0.479,1.462,0.713,2.194
				c0.024,0.077,0.056,0.098,0.135,0.098c0.771-0.003,1.542-0.002,2.313-0.002c0.019,0,0.04-0.01,0.059,0.009
				c-0.006,0.036-0.041,0.043-0.063,0.06c-0.617,0.449-1.234,0.899-1.854,1.345c-0.061,0.043-0.074,0.079-0.05,0.151
				c0.238,0.724,0.472,1.449,0.708,2.174c0.008,0.026,0.024,0.05,0.017,0.08L29.229,26.5z"/>
			<path fill-rule="evenodd" clip-rule="evenodd" fill="#D11034" d="M25.218,26.5c0.01,0.004,0.01,0.01,0.001,0.015
				c-0.002,0.001-0.007,0-0.01-0.001c0.004-0.004,0.008-0.008,0.012-0.012L25.218,26.5z"/>
			<path fill-rule="evenodd" clip-rule="evenodd" fill="#D11034" d="M29.227,26.502c0.004,0.003,0.008,0.007,0.012,0.011
				c-0.003,0-0.006,0.002-0.009,0.001c-0.008-0.004-0.008-0.009,0-0.014L29.227,26.502z"/>
		</g>
	</g>
	<g>
		<defs>
			<circle id="SVGID_47_" cx="53.095" cy="16.595" r="15.917"/>
		</defs>
		<clipPath id="SVGID_6_">
			<use xlink:href="#SVGID_47_"  overflow="visible"/>
		</clipPath>
		<g clip-path="url(#SVGID_6_)">
			<path fill-rule="evenodd" clip-rule="evenodd" fill="#006746" d="M43.449,32.849c-6.376,0-12.752-0.001-19.128,0.003
				c-0.158,0-0.215-0.018-0.215-0.201c0.006-10.903,0.006-21.807,0-32.71c0-0.183,0.057-0.201,0.215-0.201
				c6.376,0.004,12.752,0.003,19.128,0.003c0.072,0.067,0.093,0.151,0.094,0.246c0,0.09,0.001,0.181,0.001,0.271
				c0,10.69,0,21.38-0.002,32.07C43.542,32.506,43.598,32.698,43.449,32.849z"/>
		</g>
	</g>
</g>
<g id="Imagenes">
</g>
<g id="Cintillos">
</g>
<g id="Botones">
</g>
<g id="TXT">
</g>
<g id="Logo">
</g>
<g id="Guia">
</g>
</svg>
