<?xml version="1.0" encoding="utf-8"?>
<!-- Generator: Adobe Illustrator 16.0.0, SVG Export Plug-In . SVG Version: 6.00 Build 0)  -->
<!DOCTYPE svg PUBLIC "-//W3C//DTD SVG 1.1//EN" "http://www.w3.org/Graphics/SVG/1.1/DTD/svg11.dtd">
<svg version="1.1" xmlns="http://www.w3.org/2000/svg" xmlns:xlink="http://www.w3.org/1999/xlink" x="0px" y="0px"
	 width="34.417px" height="34.25px" viewBox="0 0 34.417 34.25" enable-background="new 0 0 34.417 34.25" xml:space="preserve">
<g id="Soporte">
</g>
<g id="Publicidad">
</g>
<g id="Iconos">
	<g>
		<defs>
			<circle id="SVGID_41_" cx="-17.217" cy="16.595" r="15.917"/>
		</defs>
		<clipPath id="SVGID_2_">
			<use xlink:href="#SVGID_41_"  overflow="visible"/>
		</clipPath>
		<g clip-path="url(#SVGID_2_)">
			<path fill-rule="evenodd" clip-rule="evenodd" fill="#D81023" d="M-9.589,0.612c5.278,0,10.556,0.001,15.833-0.003
				c0.141,0,0.172,0.032,0.172,0.172c-0.004,10.543-0.004,21.086,0,31.629c0,0.141-0.032,0.172-0.172,0.172
				c-5.278-0.004-10.555-0.004-15.833-0.004c-0.064-0.051-0.079-0.123-0.081-0.2c-0.003-0.093-0.003-0.187-0.003-0.281
				c0-10.334,0-20.669,0-31.004c0-0.093,0-0.187,0.003-0.281C-9.668,0.735-9.653,0.664-9.589,0.612z"/>
		</g>
	</g>
	<g>
		<defs>
			<circle id="SVGID_43_" cx="16.783" cy="16.595" r="15.917"/>
		</defs>
		<clipPath id="SVGID_4_">
			<use xlink:href="#SVGID_43_"  overflow="visible"/>
		</clipPath>
		<g clip-path="url(#SVGID_4_)">
			<path fill-rule="evenodd" clip-rule="evenodd" fill="#D42B1E" d="M-12.953,11.199c0-3.584,0.001-7.167-0.004-10.75
				c0-0.159,0.031-0.19,0.19-0.19c19.73,0.005,39.461,0.005,59.191,0c0.159,0,0.191,0.031,0.19,0.19
				c-0.006,3.583-0.004,7.166-0.004,10.75c-0.068,0.063-0.152,0.071-0.239,0.074c-0.093,0.004-0.186,0.002-0.279,0.002
				c-19.51,0-39.019,0-58.528-0.002C-12.609,11.273-12.795,11.319-12.953,11.199z"/>
			<path fill-rule="evenodd" clip-rule="evenodd" fill="#0038A7" d="M46.61,22.087c0,3.583-0.001,7.166,0.004,10.749
				c0,0.159-0.031,0.19-0.19,0.19c-19.73-0.004-39.461-0.004-59.191,0c-0.159,0-0.191-0.031-0.19-0.19
				c0.006-3.583,0.004-7.166,0.004-10.749c0.068-0.063,0.152-0.071,0.239-0.074c0.093-0.004,0.186-0.003,0.279-0.003
				c19.51,0,39.019,0,58.528,0.002C46.267,22.012,46.452,21.967,46.61,22.087z"/>
			<path fill-rule="evenodd" clip-rule="evenodd" fill="#FEFEFE" d="M46.61,22.087c-0.093,0.004-0.186,0.011-0.278,0.011
				c-19.669,0.001-39.338,0.001-59.007,0c-0.093,0-0.186-0.007-0.278-0.011c0-3.63,0-7.26,0-10.889
				c0.093-0.004,0.186-0.011,0.278-0.011c19.669-0.001,39.338-0.001,59.007,0c0.093,0,0.186,0.007,0.278,0.011
				C46.61,14.828,46.61,18.458,46.61,22.087z"/>
			<path fill-rule="evenodd" clip-rule="evenodd" fill="#020202" d="M16.817,12.405c2.35-0.004,4.245,1.881,4.251,4.227
				c0.005,2.348-1.884,4.246-4.229,4.25c-2.35,0.004-4.246-1.883-4.25-4.228C12.585,14.302,14.469,12.409,16.817,12.405z"/>
			<path fill-rule="evenodd" clip-rule="evenodd" fill="#FEFEFE" d="M16.833,12.505c2.279,0.002,4.137,1.863,4.133,4.142
				c-0.003,2.279-1.863,4.136-4.142,4.134c-2.278-0.003-4.134-1.863-4.132-4.143C12.693,14.359,14.552,12.503,16.833,12.505z"/>
			<path fill-rule="evenodd" clip-rule="evenodd" fill="#FEFEFE" d="M19.507,14.458c0.006,0.006,0.013,0.013,0.02,0.019
				c0.01,0.031,0.026,0.061,0.024,0.096c-0.13,0.102-0.302,0.146-0.419,0.298c0.054,0.051,0.155-0.054,0.188,0.049
				c0.026,0.078-0.034,0.148-0.017,0.214c0.238-0.03,0.26-0.253,0.362-0.406c0.434,0.421,0.498,0.983,0.58,1.535
				c0.037,0.242,0.024,0.488,0.007,0.734c-0.01,0.145-0.078,0.119-0.165,0.095c-0.075-0.011-0.153-0.012-0.227-0.033
				c-0.078-0.022-0.15-0.067-0.149-0.154c0.001-0.095,0.086-0.114,0.165-0.128c0.052-0.01,0.107,0.003,0.173-0.036
				c-0.065-0.05-0.131-0.034-0.191-0.028c-0.116,0.011-0.186,0.086-0.194,0.194c-0.009,0.102,0.058,0.166,0.156,0.2
				c0.109,0.038,0.23,0.02,0.337,0.07c0.08,0.069,0.045,0.155,0.026,0.234c-0.049,0.199-0.116,0.394-0.191,0.585l0.003-0.005
				c-0.037,0.039-0.025,0.111-0.089,0.132c-0.021,0.008-0.042,0.013-0.064,0.017c-0.172,0.007-0.345,0.014-0.522-0.021
				c0.126,0.14,0.189,0.313,0.313,0.444c0.029,0.136-0.117,0.172-0.154,0.271l0.004-0.004c-0.138,0.175-0.295,0.331-0.469,0.47
				l0.004-0.004c-0.147,0.124-0.306,0.23-0.47,0.329l0.004-0.003c-1.13,0.62-2.267,0.612-3.408,0.03
				c-0.175-0.109-0.346-0.225-0.505-0.356l0.004,0.004c-0.174-0.139-0.331-0.295-0.469-0.47l0.004,0.004
				c-0.124-0.146-0.23-0.306-0.33-0.469l0.003,0.004c-0.66-1.235-0.633-2.448,0.119-3.637c0.054-0.085,0.124-0.158,0.16-0.254
				c0.007-0.006,0.013-0.013,0.02-0.019c0.186-0.166,0.339-0.365,0.539-0.516l-0.004,0.004c0.149-0.109,0.303-0.21,0.458-0.31
				c1.091-0.567,2.189-0.582,3.293-0.039c0.049,0.024,0.099,0.045,0.152,0.056c0.005,0.022,0.01,0.046,0.015,0.069
				c0.15,0.037,0.249,0.161,0.384,0.225c0.009,0.005,0.018,0.012,0.026,0.019C19.177,14.13,19.34,14.295,19.507,14.458z"/>
			<path fill-rule="evenodd" clip-rule="evenodd" fill="#555756" d="M14.131,14.476c0.035,0.074-0.026,0.116-0.059,0.164
				c-0.787,1.15-0.854,2.352-0.256,3.6c0.019,0.041,0.06,0.074,0.036,0.127c-0.24-0.254-0.319-0.582-0.396-0.903
				c-0.252-1.059-0.044-2.028,0.592-2.907C14.071,14.526,14.104,14.502,14.131,14.476z"/>
			<path fill-rule="evenodd" clip-rule="evenodd" fill="#595A5A" d="M19.542,14.606c-0.014-0.042-0.042-0.083-0.016-0.13
				c0.114,0.101,0.199,0.225,0.278,0.353c0.203,0.244,0.352,0.513,0.375,0.837c0.167,0.723,0.185,1.439-0.082,2.145
				c-0.025,0.066-0.014,0.156-0.106,0.185c0.014-0.213,0.132-0.398,0.161-0.606c0.009-0.066,0.074-0.144-0.024-0.197
				c-0.043-0.05-0.071-0.103-0.044-0.17c0.028-0.067,0.128,0.146,0.139-0.044c0.044-0.742-0.083-1.442-0.471-2.084
				c-0.039-0.063-0.064-0.143-0.143-0.175C19.556,14.699,19.536,14.661,19.542,14.606z"/>
			<path fill-rule="evenodd" clip-rule="evenodd" fill="#595A59" d="M15.134,19.616c0.54,0.265,1.1,0.437,1.71,0.429
				c0.536-0.007,1.04-0.124,1.52-0.357c0.059-0.029,0.109-0.093,0.188-0.067c-0.252,0.241-0.582,0.318-0.903,0.396
				c-0.914,0.22-1.783,0.1-2.593-0.393C15.081,19.603,15.107,19.601,15.134,19.616z"/>
			<path fill-rule="evenodd" clip-rule="evenodd" fill="#5A5B5A" d="M18.589,13.653c-0.063,0.05-0.113,0.005-0.168-0.022
				c-1.077-0.536-2.151-0.53-3.222,0.019c-0.02,0.011-0.043,0.014-0.065,0.02c-0.026,0.016-0.052,0.014-0.076-0.005
				C16.232,12.989,17.41,12.997,18.589,13.653z"/>
			<path fill-rule="evenodd" clip-rule="evenodd" fill="#FEFEFE" d="M20.18,15.666c-0.111-0.285-0.227-0.568-0.375-0.837
				c0.062-0.001,0.146-0.006,0.16,0.059c0.054,0.229,0.221,0.403,0.281,0.628C20.267,15.591,20.285,15.652,20.18,15.666z"/>
			<path fill-rule="evenodd" clip-rule="evenodd" fill="#4D4E4D" d="M14.689,13.942c-0.158,0.193-0.321,0.384-0.539,0.516
				C14.294,14.248,14.455,14.056,14.689,13.942z"/>
			<path fill-rule="evenodd" clip-rule="evenodd" fill="#4B4C4B" d="M19.507,14.458c-0.207-0.122-0.367-0.291-0.493-0.492
				C19.213,14.093,19.38,14.256,19.507,14.458z"/>
			<path fill-rule="evenodd" clip-rule="evenodd" fill="#4C4D4D" d="M14.174,18.828c0.178,0.135,0.333,0.294,0.469,0.47
				C14.431,19.197,14.273,19.042,14.174,18.828z"/>
			<path fill-rule="evenodd" clip-rule="evenodd" fill="#4D4D4D" d="M19.014,19.297c0.136-0.177,0.292-0.334,0.469-0.47
				C19.383,19.041,19.226,19.196,19.014,19.297z"/>
			<path fill-rule="evenodd" clip-rule="evenodd" fill="#4D4E4D" d="M13.849,18.363c0.141,0.134,0.248,0.293,0.33,0.469
				C14.005,18.72,13.901,18.559,13.849,18.363z"/>
			<path fill-rule="evenodd" clip-rule="evenodd" fill="#4E4F4E" d="M19.479,18.832c-0.006-0.122,0.153-0.163,0.143-0.286
				c0.001-0.011,0.003-0.021,0.005-0.032c0.031-0.068,0.067-0.134,0.144-0.162c0.022-0.002,0.04,0.007,0.05,0.027
				C19.731,18.547,19.658,18.73,19.479,18.832z"/>
			<path fill-rule="evenodd" clip-rule="evenodd" fill="#4E4F4E" d="M15.134,19.616c-0.025,0.002-0.051,0.004-0.077,0.007
				c-0.151-0.094-0.327-0.157-0.417-0.329C14.823,19.373,14.97,19.507,15.134,19.616z"/>
			<path fill-rule="evenodd" clip-rule="evenodd" fill="#4E4F4E" d="M18.548,19.623c0.136-0.139,0.293-0.248,0.47-0.329
				C18.903,19.463,18.746,19.572,18.548,19.623z"/>
			<path fill-rule="evenodd" clip-rule="evenodd" fill="#4C4D4C" d="M15.058,13.664c0.025,0.002,0.051,0.003,0.076,0.005
				c-0.148,0.094-0.271,0.229-0.448,0.277C14.768,13.796,14.926,13.747,15.058,13.664z"/>
			<path fill-rule="evenodd" clip-rule="evenodd" fill="#4A4B4A" d="M18.988,13.947c-0.161-0.02-0.256-0.149-0.384-0.225
				C18.785,13.705,18.876,13.844,18.988,13.947z"/>
			<path fill-rule="evenodd" clip-rule="evenodd" fill="#494A4A" d="M19.902,18.086c0.052-0.012,0.018-0.106,0.093-0.097
				c-0.005,0.153-0.086,0.272-0.175,0.389c-0.009-0.009-0.018-0.017-0.027-0.024C19.752,18.234,19.828,18.161,19.902,18.086z"/>
			<path fill-rule="evenodd" clip-rule="evenodd" fill="#FEFEFE" d="M18.25,14.411c0.236,0.191,0.474,0.379,0.668,0.617
				c0.055,0.068,0.095,0.136,0.118,0.217c0.134,0.131,0.179,0.311,0.26,0.47l-0.003-0.005c0.258,0.726,0.227,1.435-0.119,2.127
				c-0.038,0.076-0.083,0.148-0.113,0.229c-0.141,0.151-0.231,0.349-0.415,0.462c-0.086,0.103-0.2,0.177-0.283,0.282
				c-0.042,0.021-0.085,0.044-0.128,0.065c-0.345,0.209-0.718,0.336-1.116,0.396c-0.417,0.014-0.83-0.003-1.224-0.164l0.006,0.004
				c-0.167-0.069-0.327-0.153-0.487-0.237c-0.304-0.24-0.624-0.465-0.793-0.833c-0.265-0.33-0.369-0.726-0.413-1.13
				c-0.044-0.406-0.001-0.814,0.157-1.201l-0.003,0.005c0.068-0.169,0.16-0.327,0.236-0.493c0.235-0.294,0.469-0.589,0.807-0.776
				c0.265-0.204,0.572-0.313,0.894-0.38c0.081-0.017,0.163-0.036,0.246-0.05c0.193-0.001,0.387-0.002,0.58,0
				C17.524,14.076,17.896,14.216,18.25,14.411z"/>
			<path fill-rule="evenodd" clip-rule="evenodd" fill="#080808" d="M14.275,15.607c-0.059,0.1-0.023,0.327-0.167,0.312
				c-0.151-0.017-0.405-0.012-0.44-0.219c-0.019-0.11,0.031-0.383,0.215-0.334C13.999,15.396,14.287,15.291,14.275,15.607z"/>
			<path fill-rule="evenodd" clip-rule="evenodd" fill="#0A0A0A" d="M14.302,17.812c0.205,0.124,0.013,0.242,0.006,0.355
				c0.049,0.069,0.086,0.008,0.113-0.011c0.072-0.047,0.107-0.023,0.145,0.044c0.046,0.082-0.029,0.088-0.065,0.115
				c-0.043,0.031-0.092,0.056-0.139,0.083c-0.256,0.149-0.351,0.106-0.438-0.183c-0.032-0.105,0.023-0.209,0.094-0.193
				C14.213,18.068,14.216,17.886,14.302,17.812z"/>
			<path fill-rule="evenodd" clip-rule="evenodd" fill="#070707" d="M19.542,14.606c0.022,0.038,0.044,0.075,0.067,0.112
				c0.04,0.161,0.201,0.37-0.161,0.368c-0.041,0-0.083,0.135-0.127,0.211c-0.229-0.105-0.011-0.257-0.03-0.381
				c-0.071-0.014-0.101,0.043-0.147,0.063c-0.041,0.018-0.068,0.023-0.092-0.023c-0.017-0.034-0.047-0.062-0.027-0.104
				C19.065,14.76,19.441,14.582,19.542,14.606z"/>
			<path fill-rule="evenodd" clip-rule="evenodd" fill="#080808" d="M16.603,13.626c0.003,0.206-0.115,0.332-0.363,0.305
				c-0.261-0.029-0.144-0.295-0.175-0.445c-0.036-0.177,0.174-0.12,0.268-0.133C16.531,13.327,16.59,13.477,16.603,13.626z"/>
			<path fill-rule="evenodd" clip-rule="evenodd" fill="#0A0A0A" d="M20.138,16.202c0,0.019,0,0.041,0,0.064
				c0.001,0.062,0.006,0.145-0.078,0.134c-0.069-0.009-0.072-0.082-0.051-0.149c0.058-0.19-0.066-0.184-0.191-0.169
				c-0.06,0.007-0.104,0.038-0.105,0.103c-0.001,0.037,0.002,0.093,0.025,0.107c0.1,0.064,0.042-0.066,0.087-0.076
				c0.02-0.004,0.05-0.016,0.059-0.007c0.051,0.054,0.052,0.126,0.059,0.195c0.005,0.056-0.04,0.053-0.075,0.064
				c-0.111,0.037-0.198,0.02-0.246-0.098c-0.059-0.143-0.092-0.286,0.043-0.405c0.096-0.084,0.214-0.096,0.328-0.052
				C20.116,15.962,20.161,16.065,20.138,16.202z"/>
			<path fill-rule="evenodd" clip-rule="evenodd" fill="#0C0C0C" d="M15.813,14.036c-0.052,0.055-0.104,0.095-0.15,0.077
				c-0.129-0.049-0.203-0.021-0.232,0.119c-0.011,0.049-0.062,0.075-0.105,0.077c-0.065,0.002-0.056-0.063-0.063-0.103
				c-0.02-0.122-0.031-0.245-0.051-0.367c-0.012-0.072,0.014-0.112,0.076-0.149c0.067-0.04,0.112-0.021,0.164,0.025
				C15.568,13.824,15.69,13.928,15.813,14.036z"/>
			<path fill-rule="evenodd" clip-rule="evenodd" fill="#101111" d="M19.402,17.802c-0.004-0.086,0.005-0.154,0.068-0.178
				c0.117-0.044,0.13-0.124,0.083-0.215c-0.032-0.061-0.026-0.107,0.013-0.146c0.062-0.062,0.094,0.018,0.13,0.044
				c0.094,0.067,0.18,0.146,0.272,0.216c0.054,0.042,0.083,0.083,0.053,0.156c-0.027,0.068-0.067,0.093-0.138,0.095
				C19.729,17.78,19.575,17.792,19.402,17.802z"/>
			<path fill-rule="evenodd" clip-rule="evenodd" fill="#090909" d="M20.083,17.021c0.051,0.047,0.04,0.11,0.044,0.17
				c-0.092-0.005-0.184-0.009-0.275-0.016c-0.174-0.012-0.271-0.099-0.257-0.281c0.014-0.185,0.109-0.291,0.302-0.252
				c0.097,0.02,0.28-0.075,0.276,0.099c-0.004,0.193-0.177,0.05-0.271,0.071c-0.064,0.016-0.156-0.014-0.166,0.078
				c-0.01,0.106,0.085,0.11,0.163,0.117C19.961,17.012,20.022,17.017,20.083,17.021z"/>
			<path fill-rule="evenodd" clip-rule="evenodd" fill="#0C0C0C" d="M13.696,16.027c0.361,0.012,0.491,0.148,0.396,0.408
				c-0.037,0.101-0.109,0.156-0.208,0.15c-0.121-0.007-0.241-0.034-0.359-0.061c-0.006-0.001-0.004-0.073,0.007-0.108
				c0.015-0.048,0.059-0.036,0.096-0.032c0.076,0.009,0.153,0.017,0.229,0.024c0.062,0.006,0.11-0.019,0.118-0.081
				c0.007-0.063-0.034-0.097-0.097-0.104c-0.068-0.007-0.138-0.016-0.206-0.025c-0.061-0.009-0.124-0.009-0.111-0.104
				C13.574,15.995,13.637,16.02,13.696,16.027z"/>
			<path fill-rule="evenodd" clip-rule="evenodd" fill="#0D0D0D" d="M13.832,17.683c0.068-0.025,0.059-0.053,0.052-0.085
				c-0.015-0.067-0.103-0.159,0-0.196c0.093-0.033,0.069,0.094,0.102,0.146c0.021,0.031,0.021,0.079,0.073,0.066
				c0.074-0.019,0.033-0.071,0.025-0.111c-0.008-0.037-0.025-0.072-0.036-0.109c-0.01-0.036-0.023-0.079,0.027-0.096
				c0.053-0.018,0.09,0.003,0.101,0.061c0.024,0.125,0.164,0.277,0.075,0.36c-0.106,0.101-0.289,0.135-0.445,0.163
				c-0.095,0.017-0.084-0.107-0.106-0.172c-0.028-0.083-0.103-0.166-0.048-0.254c0.027-0.044,0.081-0.02,0.102,0.036
				C13.779,17.558,13.807,17.623,13.832,17.683z"/>
			<path fill-rule="evenodd" clip-rule="evenodd" fill="#070707" d="M18.965,14.808c-0.046-0.034-0.08-0.047-0.081-0.061
				c-0.005-0.221-0.215-0.228-0.333-0.331c-0.024-0.021,0.022-0.048,0.049-0.062c0.13-0.064,0.257-0.139,0.393-0.19
				c0.113-0.043,0.191,0.046,0.171,0.136c-0.035,0.155-0.115,0.3-0.175,0.448C18.979,14.769,18.972,14.79,18.965,14.808z"/>
			<path fill-rule="evenodd" clip-rule="evenodd" fill="#0F0F0F" d="M13.709,17.228c-0.169,0.046-0.146-0.068-0.158-0.144
				c-0.02-0.126-0.071-0.27,0.107-0.328c0.105-0.035,0.188,0.012,0.216,0.114c0.025,0.097,0.042,0.175,0.171,0.146
				c0.057-0.013,0.075,0.035,0.081,0.087c0.007,0.075-0.037,0.09-0.098,0.095C13.913,17.208,13.798,17.219,13.709,17.228z"/>
			<path fill-rule="evenodd" clip-rule="evenodd" fill="#010101" d="M16.927,13.464c0.026,0.066,0.071,0.048,0.104,0.061
				c0.055,0.021,0.166-0.055,0.161,0.064c-0.004,0.093-0.097,0.038-0.151,0.045c-0.042,0.006-0.103-0.019-0.112,0.047
				c-0.012,0.092,0.066,0.058,0.111,0.071c0.059,0.019,0.169-0.04,0.167,0.061c-0.003,0.122-0.119,0.066-0.183,0.06
				c-0.094-0.01-0.248,0.043-0.269-0.058c-0.031-0.153,0.002-0.322,0.025-0.482c0.008-0.052,0.401-0.038,0.435,0.016
				c0.04,0.063-0.003,0.079-0.056,0.085C17.084,13.442,17.005,13.409,16.927,13.464z"/>
			<path fill-rule="evenodd" clip-rule="evenodd" fill="#070707" d="M18.697,13.92c0,0.092-0.019,0.148-0.066,0.175
				c-0.143,0.076-0.337-0.066-0.464,0.102c-0.003,0.004-0.056-0.017-0.057-0.029c-0.021-0.184,0.137-0.289,0.197-0.438
				c0.048-0.119,0.118-0.038,0.163-0.007C18.559,13.785,18.691,13.81,18.697,13.92z"/>
			<path fill-rule="evenodd" clip-rule="evenodd" fill="#060606" d="M19.547,15.886c-0.031-0.062-0.089-0.103-0.051-0.175
				c0.058-0.11,0.029-0.189-0.091-0.229c-0.055-0.018-0.07-0.063-0.065-0.107c0.009-0.068,0.07-0.041,0.109-0.044
				c0.115-0.007,0.231-0.008,0.347-0.012c0.064-0.002,0.121,0.003,0.151,0.076c0.033,0.079,0.003,0.131-0.054,0.181
				C19.777,15.677,19.664,15.781,19.547,15.886z"/>
			<path fill-rule="evenodd" clip-rule="evenodd" fill="#060606" d="M14.874,14.612c-0.168-0.026-0.274-0.123-0.29-0.285
				c-0.016-0.161,0.088-0.255,0.234-0.299c0.05-0.015,0.122-0.021,0.143,0.032s-0.024,0.104-0.085,0.11
				c-0.078,0.008-0.147,0.026-0.131,0.118c0.013,0.075,0.063,0.147,0.145,0.163c0.109,0.021,0.122-0.054,0.125-0.143
				c0.001-0.053,0.06-0.074,0.103-0.071c0.061,0.005,0.054,0.07,0.05,0.107C15.145,14.517,15.034,14.594,14.874,14.612z"/>
			<path fill-rule="evenodd" clip-rule="evenodd" fill="#111111" d="M19.622,18.545c-0.042,0.007-0.081,0.062-0.118-0.022
				c-0.061-0.137-0.104-0.29-0.271-0.354c-0.054-0.021-0.034-0.072-0.007-0.116c0.028-0.046,0.058-0.071,0.108-0.03
				c0.157,0.129,0.34,0.05,0.512,0.065c0.027,0.077-0.016,0.146-0.066,0.176c-0.117,0.066-0.098,0.198-0.163,0.285L19.622,18.545z"
				/>
			<path fill-rule="evenodd" clip-rule="evenodd" fill="#0A0A0A" d="M14.368,15.379c-0.163-0.103-0.308-0.188-0.445-0.283
				C13.88,15.067,13.934,15.03,13.948,15c0.02-0.043,0.06-0.043,0.097-0.022c0.054,0.029,0.108,0.06,0.157,0.095
				c0.09,0.064,0.169,0.106,0.224-0.041c0.016-0.043,0.046-0.105,0.12-0.067c0.098,0.053,0.015,0.107-0.007,0.15
				C14.49,15.204,14.428,15.287,14.368,15.379z"/>
			<path fill-rule="evenodd" clip-rule="evenodd" fill="#565857" d="M14.364,15.709c-0.023,0.259-0.124,0.504-0.137,0.767
				c-0.028,0.563,0.117,1.079,0.393,1.564c-0.087,0.018-0.099-0.062-0.124-0.109c-0.367-0.686-0.435-1.398-0.192-2.14
				C14.315,15.758,14.309,15.711,14.364,15.709z"/>
			<path fill-rule="evenodd" clip-rule="evenodd" fill="#0C0C0C" d="M17.653,13.987c-0.093-0.059-0.292,0.002-0.314-0.117
				c-0.026-0.139,0.052-0.299,0.093-0.447c0.016-0.058,0.077-0.04,0.119-0.038c0.074,0.005,0.048,0.052,0.042,0.099
				c-0.021,0.15-0.182,0.356,0.14,0.386c0.011,0.001,0.026,0.053,0.023,0.079C17.75,14,17.708,13.997,17.653,13.987z"/>
			<path fill-rule="evenodd" clip-rule="evenodd" fill="#545555" d="M19.061,18.065c0.042-0.244,0.205-0.438,0.268-0.675
				c0.133-0.502,0.14-1.003-0.006-1.503c-0.018-0.06-0.046-0.114-0.03-0.178c0.205,0.337,0.211,0.713,0.192,1.086
				C19.462,17.255,19.346,17.69,19.061,18.065z"/>
			<path fill-rule="evenodd" clip-rule="evenodd" fill="#0D0D0D" d="M14.766,14.817c-0.048,0.031-0.058,0.146-0.155,0.067
				c-0.107-0.087-0.212-0.178-0.321-0.264c-0.05-0.039-0.04-0.074-0.004-0.113c0.026-0.027,0.055-0.071,0.093-0.041
				c0.127,0.1,0.248,0.207,0.37,0.313C14.759,14.786,14.76,14.802,14.766,14.817z"/>
			<path fill-rule="evenodd" clip-rule="evenodd" fill="#656766" d="M16.503,14.037c-0.381,0.098-0.756,0.211-1.1,0.408
				c0.016-0.126,0.134-0.136,0.215-0.178c0.278-0.145,0.573-0.243,0.889-0.267c0.013,0.009,0.017,0.018,0.012,0.025
				S16.508,14.037,16.503,14.037z"/>
			<path fill-rule="evenodd" clip-rule="evenodd" fill="#606160" d="M18.25,14.411c-0.284-0.063-0.522-0.249-0.813-0.302
				c-0.093-0.017-0.206,0.014-0.283-0.072c-0.015-0.007-0.021-0.015-0.017-0.022C17.142,14.005,17.146,14,17.151,14
				C17.551,14.048,17.928,14.157,18.25,14.411z"/>
			<path fill-rule="evenodd" clip-rule="evenodd" fill="#5C5D5C" d="M17.152,19.243c0.379-0.067,0.729-0.224,1.082-0.368
				c-0.31,0.269-0.691,0.353-1.08,0.414c-0.016-0.01-0.021-0.021-0.017-0.03C17.142,19.248,17.147,19.243,17.152,19.243z"/>
			<path fill-rule="evenodd" clip-rule="evenodd" fill="#505151" d="M17.152,19.243c0,0.015,0.001,0.03,0.001,0.046
				c-0.432,0.024-0.863,0.047-1.259-0.182C16.309,19.197,16.725,19.278,17.152,19.243z"/>
			<path fill-rule="evenodd" clip-rule="evenodd" fill="#EAEBEA" d="M19.616,18.549c0.005-0.037,0.028-0.083,0.014-0.109
				c-0.07-0.129-0.071-0.197,0.109-0.194c0.063,0.001,0.095-0.088,0.107-0.157c0.019-0.001,0.037-0.001,0.056-0.002
				c-0.036,0.089-0.072,0.179-0.109,0.268C19.716,18.403,19.72,18.525,19.616,18.549z"/>
			<path fill-rule="evenodd" clip-rule="evenodd" fill="#565857" d="M14.597,15.221c-0.033,0.187-0.125,0.344-0.236,0.493
				C14.375,15.519,14.473,15.364,14.597,15.221z"/>
			<path fill-rule="evenodd" clip-rule="evenodd" fill="#232423" d="M17.151,14c-0.005,0.013-0.004,0.024,0.003,0.036
				c-0.217,0-0.434,0-0.651,0c0.007-0.012,0.008-0.023,0.004-0.036C16.721,14,16.936,14,17.151,14z"/>
			<path fill-rule="evenodd" clip-rule="evenodd" fill="#505151" d="M15.414,18.874c0.181,0.041,0.34,0.126,0.487,0.237
				C15.709,19.091,15.552,19.003,15.414,18.874z"/>
			<path fill-rule="evenodd" clip-rule="evenodd" fill="#555655" d="M19.296,15.714c-0.124-0.136-0.165-0.317-0.26-0.47
				C19.22,15.348,19.262,15.53,19.296,15.714z"/>
			<path fill-rule="evenodd" clip-rule="evenodd" fill="#595A5A" d="M18.362,18.809c0.04-0.148,0.177-0.199,0.283-0.282
				C18.612,18.682,18.476,18.734,18.362,18.809z"/>
			<path fill-rule="evenodd" clip-rule="evenodd" fill="#049138" d="M16.23,18.03c0.187,0.123,0.377,0.239,0.557,0.371
				c0.141,0.104,0.273,0.067,0.336-0.055c0.134-0.259,0.32-0.469,0.538-0.67c0.145,0.232,0.201,0.082,0.289-0.066
				c0.062-0.104,0.084-0.354,0.322-0.148c0-0.123-0.001-0.23,0-0.337c0.001-0.079-0.001-0.187,0.068-0.212
				c0.235-0.088,0.123-0.247,0.102-0.392c-0.012-0.082-0.079-0.183,0.073-0.22c0.089-0.021,0.021-0.063-0.003-0.093
				c-0.049-0.06-0.096-0.121-0.148-0.178c-0.084-0.091-0.02-0.135,0.06-0.171c-0.051-0.102-0.136,0.03-0.19-0.06
				c-0.011-0.072,0.083-0.07,0.128-0.117c-0.125-0.1-0.299-0.17-0.334-0.315c-0.038-0.155-0.304-0.15-0.22-0.359
				c0.064-0.131,0.2-0.136,0.314-0.178c0.094,0.007-0.013,0.274,0.188,0.146c0.007-0.004,0.037,0.012,0.036,0.014
				c-0.02,0.069-0.075,0.151,0.032,0.189c0.059,0.021-0.017-0.121,0.115-0.106c0.107,0.013,0.154,0.015,0.162,0.123
				c0.003,0.054,0.014,0.106,0.02,0.16c0.004,0.045,0.006,0.089,0.009,0.141c0.072-0.033,0.132-0.062,0.192-0.089
				c0.003-0.001,0.011,0.009,0.022,0.017c0,0.168-0.254,0.144-0.25,0.334c0.103-0.021,0.24-0.154,0.291,0.017
				c0.036,0.117-0.005,0.257-0.013,0.389c0.076,0.003,0.129-0.082,0.223-0.058c-0.026,0.147-0.159,0.135-0.239,0.189
				c-0.037,0.025-0.099,0.053-0.079,0.102c0.034,0.086,0.073-0.039,0.092-0.012c0.049,0.069,0.217,0.075,0.123,0.225
				c-0.057,0.092-0.105,0.188-0.16,0.287c0.061,0.055,0.16-0.053,0.226,0.054c-0.081,0.102-0.196,0.045-0.293,0.059
				c-0.038,0.006-0.087,0.009-0.082,0.059c0.006,0.068,0.051,0.016,0.08,0.021c0.11,0.017,0.181,0.186,0.109,0.266
				c-0.092,0.104-0.182,0.212-0.31,0.274c-0.041,0.027-0.068,0.071-0.118,0.087c-0.048,0.008-0.103,0.079-0.063,0.071
				c0.203-0.041,0.12,0.145,0.183,0.207c0.069,0.068-0.035,0.095-0.081,0.114c-0.163,0.07-0.34,0.089-0.535,0.12
				c0.113,0.069,0.225,0.113,0.247,0.246c-0.1,0.08-0.142-0.041-0.21-0.064c-0.042-0.028-0.086-0.055-0.123-0.102
				c0.025,0.041,0.063,0.063,0.074,0.104c-0.2,0.218-0.456,0.127-0.694,0.123c-0.045-0.001-0.088-0.029-0.133-0.037
				c-0.039-0.006-0.08,0.006-0.094,0.048c-0.019,0.053,0.033,0.062,0.063,0.079c0.172,0.104,0.341,0.018,0.515-0.02
				c-0.103,0.245-0.304,0.314-0.528,0.167c-0.143-0.095-0.248-0.115-0.406-0.011c-0.255,0.17-0.408,0.126-0.572-0.131
				c-0.068-0.105-0.141-0.133-0.257-0.1c0.051-0.037,0.102-0.073,0.153-0.109c-0.012-0.149,0.111-0.098,0.142-0.121
				c0.071-0.003,0.032-0.049,0.044-0.021c0.002,0.007-0.004,0.014-0.018,0.011c-0.031-0.006-0.06,0-0.09,0.006
				c-0.084,0.017-0.127-0.007-0.125-0.104c0.001-0.093,0.059-0.104,0.12-0.091C16.181,18.119,16.23,18.124,16.23,18.03z"/>
			<path fill-rule="evenodd" clip-rule="evenodd" fill="#066D2C" d="M16.23,18.03c0.033,0.057,0.066,0.113,0.11,0.187
				c-0.073-0.021-0.13-0.035-0.187-0.051c-0.04-0.012-0.081-0.056-0.12-0.011c-0.012,0.013,0.006,0.049,0.006,0.076
				c0.002,0.076,0.059,0.019,0.092,0.022c0.06,0.007,0.119,0.017,0.218,0.031c-0.126,0.057-0.259,0.021-0.313,0.138
				c-0.125-0.016-0.273,0.079-0.345-0.139c-0.027-0.084-0.213-0.015-0.343-0.025c0.042-0.02,0.067-0.032,0.094-0.044
				c-0.05-0.087-0.14-0.015-0.211-0.059c0.048-0.013,0.091-0.025,0.164-0.045c-0.103-0.038-0.213-0.013-0.236-0.128
				c0.028-0.072-0.004-0.126-0.053-0.175c-0.063-0.035-0.179,0.02-0.15-0.152c0.025-0.147-0.174-0.186-0.271-0.271
				c0.032-0.057,0.137,0.074,0.108-0.044c-0.013-0.054,0.123-0.066,0.015-0.116c-0.229-0.104-0.159-0.338-0.197-0.519
				c-0.004-0.018-0.012-0.079-0.016-0.119c-0.005-0.049-0.165-0.125,0.037-0.138c0.051-0.003-0.062-0.104-0.041-0.175
				c-0.082-0.157,0.153-0.227,0.105-0.375c-0.006-0.031-0.013-0.063-0.019-0.093c0.113-0.389,0.425-0.627,0.712-0.863
				c0.134-0.11,0.33-0.183,0.504-0.258c0.002-0.013,0.006-0.024,0.011-0.035c0.168,0.035,0.346-0.042,0.511,0.041
				c0.054,0.174,0.207,0.016,0.298,0.088c-0.037,0.1-0.297-0.006-0.203,0.215c0.002,0.006-0.07,0.057-0.112,0.065
				c-0.267,0.054-0.449,0.231-0.657,0.388c-0.185,0.14-0.292,0.313-0.41,0.492c-0.042,0.076-0.048,0.158-0.033,0.243
				c-0.105,0.507,0.063,0.945,0.331,1.363c0.102,0.159,0.274,0.213,0.414,0.315C16.112,17.911,16.169,17.973,16.23,18.03z"/>
			<path fill-rule="evenodd" clip-rule="evenodd" fill="#FADB01" d="M17.13,17.153c-0.201-0.198-0.403-0.197-0.604,0
				c-0.178,0.045-0.145-0.061-0.117-0.163c0.146-0.306-0.113-0.407-0.28-0.555c-0.04-0.044-0.011-0.07,0.026-0.084
				c0.051-0.02,0.107-0.009,0.161-0.01c0.313-0.004,0.313-0.004,0.427-0.296c0.023-0.06,0.021-0.149,0.129-0.111
				c0.009,0.013,0.017,0.026,0.021,0.041c0.117,0.351,0.117,0.351,0.491,0.366c0.097,0.004,0.097,0.004,0.143,0.094
				c-0.033,0.031-0.061,0.074-0.1,0.093c-0.203,0.101-0.292,0.24-0.181,0.462C17.275,17.092,17.309,17.198,17.13,17.153z"/>
			<path fill-rule="evenodd" clip-rule="evenodd" fill="#799985" d="M15.896,14.685c-0.048,0.146-0.199,0.147-0.304,0.212
				c-0.275,0.169-0.515,0.372-0.716,0.626c-0.072,0.092,0.009,0.29-0.197,0.283c-0.063-0.117-0.09-0.215,0.072-0.285
				c0.072-0.032-0.006-0.146,0.072-0.215c0.166-0.146,0.31-0.314,0.462-0.473c0.006,0.04,0.014,0.09,0.021,0.141
				c0.015-0.137,0.15-0.233,0.215-0.225c0.145,0.02,0.203-0.145,0.331-0.112C15.869,14.642,15.881,14.668,15.896,14.685z"/>
			<path fill-rule="evenodd" clip-rule="evenodd" fill="#0E8C3C" d="M18.123,14.831c-0.084,0.096-0.209,0.118-0.314,0.178
				c-0.15-0.102-0.352-0.029-0.52-0.161c0.202,0.042-0.011-0.203,0.158-0.185c-0.021-0.17,0.075-0.061,0.113-0.041
				c0.054,0.028,0.103,0.069,0.143,0.115c0.102,0.115,0.199,0.225,0.353,0.066C18.076,14.784,18.114,14.788,18.123,14.831z"/>
			<path fill-rule="evenodd" clip-rule="evenodd" fill="#799985" d="M16.417,14.691c-0.17-0.021-0.352,0.115-0.511-0.041
				c0.025-0.084,0.041-0.155,0.167-0.099c0.113,0.052,0.261-0.013,0.373,0.084C16.525,14.703,16.459,14.689,16.417,14.691z"/>
			<path fill-rule="evenodd" clip-rule="evenodd" fill="#87825C" d="M16.875,15.947c-0.144,0.011-0.118,0.14-0.139,0.221
				c-0.04,0.16-0.12,0.221-0.289,0.209c-0.103-0.008-0.23-0.06-0.317,0.059c-0.025-0.017-0.063-0.028-0.072-0.051
				c-0.022-0.057,0.029-0.066,0.063-0.059c0.413,0.092,0.607-0.103,0.66-0.492c0.004-0.035,0.028-0.058,0.063-0.044
				c0.046,0.019,0.033,0.063,0.036,0.101C16.895,15.911,16.892,15.929,16.875,15.947z"/>
			<path fill-rule="evenodd" clip-rule="evenodd" fill="#8B876A" d="M16.875,15.947c0.001-0.019,0.003-0.037,0.005-0.057
				c0.009,0.013,0.025,0.024,0.026,0.037c0.039,0.345,0.236,0.459,0.563,0.397c0.043-0.008,0.118-0.034,0.136,0.04
				c0.01,0.043-0.041,0.058-0.077,0.07c-0.062-0.104-0.167-0.072-0.248-0.061c-0.224,0.032-0.34-0.056-0.371-0.274
				C16.902,16.048,16.887,15.999,16.875,15.947z"/>
			<path fill-rule="evenodd" clip-rule="evenodd" fill="#749781" d="M14.697,15.899c0.032,0.078,0.174,0.169-0.036,0.217
				c-0.033,0.008-0.046,0.104-0.069,0.158c-0.137-0.125-0.003-0.256,0.001-0.382C14.596,15.821,14.659,15.921,14.697,15.899z"/>
			<path fill-rule="evenodd" clip-rule="evenodd" fill="#469B65" d="M18.5,17.715c0.025-0.049,0.059-0.085,0.118-0.087
				c0.069,0.079,0.286,0.006,0.244,0.135c-0.044,0.135-0.195,0.001-0.299-0.018C18.541,17.742,18.521,17.725,18.5,17.715z"/>
			<path fill-rule="evenodd" clip-rule="evenodd" fill="#5B8E6E" d="M15.106,17.808c0.072-0.015,0.12,0.032,0.143,0.083
				c0.035,0.079-0.082,0.038-0.089,0.092c-0.09,0.009-0.153-0.044-0.222-0.086C14.976,17.81,15.079,17.888,15.106,17.808z"/>
			<path fill-rule="evenodd" clip-rule="evenodd" fill="#548065" d="M15.3,16.182c-0.132-0.101-0.064-0.174,0.033-0.243
				C15.341,16.022,15.372,16.109,15.3,16.182z"/>
			<path fill-rule="evenodd" clip-rule="evenodd" fill="#796F2A" d="M16.41,16.99c0.005,0.078-0.019,0.177,0.117,0.163
				c-0.064,0.05-0.128,0.099-0.22,0.171C16.317,17.174,16.341,17.076,16.41,16.99z"/>
			<path fill-rule="evenodd" clip-rule="evenodd" fill="#766D29" d="M17.13,17.153c0.136,0.015,0.111-0.085,0.117-0.163
				c0.068,0.086,0.093,0.185,0.101,0.303C17.25,17.266,17.187,17.215,17.13,17.153z"/>
			<path fill-rule="evenodd" clip-rule="evenodd" fill="#F3F3F3" d="M17.991,18.413c-0.062-0.061-0.144-0.076-0.223-0.103
				c0.132-0.103,0.132-0.103,0.271,0.1C18.024,18.411,18.008,18.412,17.991,18.413z"/>
			<path fill-rule="evenodd" clip-rule="evenodd" fill="#DFDFDF" d="M16.243,13.57c-0.014-0.057,0.006-0.092,0.067-0.088
				c0.104,0.007,0.107,0.095,0.12,0.167c0.013,0.082-0.026,0.134-0.11,0.14C16.284,13.791,16.242,13.666,16.243,13.57z"/>
			<path fill-rule="evenodd" clip-rule="evenodd" fill="#F6F7F6" d="M16.764,18.57c-0.202,0.187-0.395,0.139-0.587,0.004
				C16.447,18.367,16.492,18.366,16.764,18.57z"/>
			<path fill-rule="evenodd" clip-rule="evenodd" fill="#9BB6A5" d="M17.596,18.1c0.006-0.092,0.027-0.154,0.101-0.17
				c0.013-0.004,0.059,0.057,0.056,0.085C17.745,18.123,17.659,18.073,17.596,18.1z"/>
		</g>
	</g>
	<g>
		<defs>
			<circle id="SVGID_45_" cx="51.783" cy="16.595" r="15.917"/>
		</defs>
		<clipPath id="SVGID_6_">
			<use xlink:href="#SVGID_45_"  overflow="visible"/>
		</clipPath>
		<g clip-path="url(#SVGID_6_)">
			<path fill-rule="evenodd" clip-rule="evenodd" fill="#FEFEFE" d="M31.221-0.348c6.853,0,13.705,0,20.558-0.002
				c0.081,0,0.102,0.017,0.102,0.124c-0.003,5.7-0.003,11.401-0.003,17.102c-0.046-0.024-0.095-0.012-0.143-0.012
				c-6.787,0-13.573,0-20.36-0.001c-0.052,0-0.103-0.001-0.155-0.002l0.002,0.004c0-0.052-0.001-0.104-0.001-0.155
				C31.221,11.023,31.221,5.338,31.221-0.348z"/>
			<path fill-rule="evenodd" clip-rule="evenodd" fill="#005292" d="M51.896,16.87l-0.002-0.004c0,0.056,0.001,0.111,0.001,0.167
				c0,5.658,0,11.316,0,16.974c-6.853,0-13.705,0-20.557,0.002c-0.082,0-0.102-0.017-0.102-0.124
				c0.002-5.677,0.002-11.354,0.002-17.031c0.047,0.024,0.095,0.012,0.143,0.012c6.787,0,13.573,0,20.36,0.001
				C51.793,16.868,51.845,16.869,51.896,16.87z"/>
		</g>
	</g>
</g>
<g id="Imagenes">
</g>
<g id="Cintillos">
</g>
<g id="Botones">
</g>
<g id="TXT">
</g>
<g id="Logo">
</g>
<g id="Guia">
</g>
</svg>
