<?xml version="1.0" encoding="utf-8"?>
<!-- Generator: Adobe Illustrator 16.0.0, SVG Export Plug-In . SVG Version: 6.00 Build 0)  -->
<!DOCTYPE svg PUBLIC "-//W3C//DTD SVG 1.1//EN" "http://www.w3.org/Graphics/SVG/1.1/DTD/svg11.dtd">
<svg version="1.1" xmlns="http://www.w3.org/2000/svg" xmlns:xlink="http://www.w3.org/1999/xlink" x="0px" y="0px"
	 width="34.417px" height="34.25px" viewBox="0 0 34.417 34.25" enable-background="new 0 0 34.417 34.25" xml:space="preserve">
<g id="Soporte">
</g>
<g id="Publicidad">
</g>
<g id="Iconos">
	<g>
		<defs>
			<circle id="SVGID_37_" cx="-18.525" cy="16.595" r="15.917"/>
		</defs>
		<clipPath id="SVGID_2_">
			<use xlink:href="#SVGID_37_"  overflow="visible"/>
		</clipPath>
		<g clip-path="url(#SVGID_2_)">
			<path fill-rule="evenodd" clip-rule="evenodd" fill="#FC0000" d="M-21.094,0.176c9.774,0,19.547,0,29.32-0.003
				c0.105,0,0.117,0.027,0.117,0.122c-0.003,10.82-0.003,21.64,0,32.46c0,0.094-0.012,0.122-0.117,0.122
				c-9.773-0.003-19.547-0.003-29.32-0.003c-0.053-0.063-0.041-0.14-0.041-0.212c-0.001-0.793-0.001-1.585-0.001-2.378
				c0-1.782,0-3.564,0.001-5.346c0-0.073-0.006-0.147,0.012-0.219c0.069-0.084,0.186-0.097,0.277-0.028
				c0.11,0.082,0.132,0.08,0.197-0.034c0.03-0.052,0.077-0.052,0.126-0.057c0.336-0.034,0.673-0.069,1.005-0.137
				c1.049-0.215,2.021-0.615,2.909-1.215c0.353-0.238,0.681-0.504,0.998-0.789c0.235-0.211,0.445-0.443,0.652-0.679
				c0.041-0.047,0.086-0.096,0.151-0.094c0.173,0.008,0.243-0.128,0.262-0.244c0.029-0.188,0.145-0.317,0.229-0.468
				c0.051-0.093,0.115-0.178,0.176-0.266c0.028-0.041,0.061-0.075,0.105-0.1c0.191-0.101,0.251-0.226,0.208-0.436
				c-0.012-0.06,0.002-0.113,0.027-0.166c0.284-0.596,0.496-1.217,0.628-1.864c0.053-0.26,0.099-0.521,0.117-0.786
				c0.007-0.098,0.023-0.191,0.098-0.27c0.075-0.078,0.062-0.174,0.011-0.261c-0.088-0.151-0.092-0.295,0.003-0.446
				c0.053-0.084,0.058-0.179-0.017-0.26c-0.047-0.051-0.068-0.107-0.074-0.176c-0.036-0.556-0.138-1.1-0.29-1.636
				c-0.11-0.39-0.259-0.766-0.424-1.134c-0.016-0.034-0.042-0.071-0.024-0.104c0.093-0.172-0.029-0.264-0.133-0.359
				c-0.062-0.056-0.109-0.121-0.146-0.194c-0.012-0.022-0.022-0.045-0.021-0.069c0.01-0.234-0.121-0.376-0.311-0.479
				c-0.063-0.034-0.111-0.082-0.152-0.139c-0.656-0.928-1.483-1.668-2.454-2.253c-0.781-0.47-1.624-0.783-2.515-0.97
				c-0.331-0.069-0.666-0.119-1.005-0.131c-0.066-0.002-0.115-0.023-0.149-0.086c-0.042-0.077-0.104-0.081-0.178-0.021
				c-0.103,0.083-0.205,0.081-0.286-0.007c-0.017-0.056-0.014-0.114-0.014-0.17c-0.001-2.601-0.001-5.201,0-7.802
				C-21.135,0.315-21.147,0.239-21.094,0.176z"/>
		</g>
	</g>
	<g>
		<defs>
			<circle id="SVGID_39_" cx="17.1" cy="16.595" r="15.917"/>
		</defs>
		<clipPath id="SVGID_4_">
			<use xlink:href="#SVGID_39_"  overflow="visible"/>
		</clipPath>
		<g clip-path="url(#SVGID_4_)">
			<rect x="-15.218" y="-3.117" fill="#FFFFFF" width="64.635" height="40.396"/>
			<rect x="-15.218" y="17.081" fill="#DC143C" width="64.635" height="20.198"/>
		</g>
	</g>
	<g>
		<defs>
			<circle id="SVGID_41_" cx="51.783" cy="16.595" r="15.917"/>
		</defs>
		<clipPath id="SVGID_6_">
			<use xlink:href="#SVGID_41_"  overflow="visible"/>
		</clipPath>
		<g clip-path="url(#SVGID_6_)">
			<path fill-rule="evenodd" clip-rule="evenodd" fill="#D81023" d="M43.447,32.578c-5.276,0-10.553,0-15.829,0.003
				c-0.132,0-0.178-0.016-0.177-0.167c0.004-10.546,0.004-21.092,0-31.639c0-0.151,0.045-0.167,0.177-0.167
				c5.276,0.003,10.552,0.003,15.829,0.003c0.065,0.052,0.08,0.123,0.082,0.201C43.532,0.906,43.532,1,43.532,1.093
				c0,10.334,0,20.669,0,31.004c0,0.094,0,0.188-0.003,0.281C43.527,32.456,43.512,32.527,43.447,32.578z"/>
		</g>
	</g>
</g>
<g id="Imagenes">
</g>
<g id="Cintillos">
</g>
<g id="Botones">
</g>
<g id="TXT">
</g>
<g id="Logo">
</g>
<g id="Guia">
</g>
</svg>
