<?xml version="1.0" encoding="utf-8"?>
<!-- Generator: Adobe Illustrator 16.0.0, SVG Export Plug-In . SVG Version: 6.00 Build 0)  -->
<!DOCTYPE svg PUBLIC "-//W3C//DTD SVG 1.1//EN" "http://www.w3.org/Graphics/SVG/1.1/DTD/svg11.dtd">
<svg version="1.1" xmlns="http://www.w3.org/2000/svg" xmlns:xlink="http://www.w3.org/1999/xlink" x="0px" y="0px"
	 width="34.417px" height="34.25px" viewBox="0 0 34.417 34.25" enable-background="new 0 0 34.417 34.25" xml:space="preserve">
<g id="Soporte">
</g>
<g id="Publicidad">
</g>
<g id="Iconos">
	<g>
		<defs>
			<circle id="SVGID_35_" cx="-19.217" cy="16.595" r="15.917"/>
		</defs>
		<clipPath id="SVGID_2_">
			<use xlink:href="#SVGID_35_"  overflow="visible"/>
		</clipPath>
		<g clip-path="url(#SVGID_2_)">
			<path fill-rule="evenodd" clip-rule="evenodd" fill="#EC0000" d="M-36.218,32.704c0.046-0.06,0.117-0.082,0.179-0.116
				c3.618-2.09,7.236-4.178,10.854-6.267c0.053-0.029,0.106-0.056,0.16-0.085c0.052,0.002,0.104,0.006,0.157,0.006
				c12.316,0,24.631,0,36.947,0c0.048,0,0.096-0.005,0.144-0.009c0,2.121,0,4.24,0.002,6.36c0,0.087-0.016,0.113-0.11,0.113
				C-3.995,32.704-20.106,32.704-36.218,32.704z"/>
			<path fill-rule="evenodd" clip-rule="evenodd" fill="#EC0000" d="M-25.012,6.872c-0.146-0.06-0.276-0.149-0.412-0.227
				c-3.567-2.058-7.133-4.116-10.699-6.176c-0.033-0.019-0.076-0.027-0.095-0.067c16.107,0,32.214,0,48.321-0.003
				c0.106,0,0.122,0.026,0.122,0.125c-0.003,2.116-0.002,4.232-0.002,6.348c-0.048-0.003-0.096-0.008-0.144-0.008
				c-12.312,0-24.623,0-36.935,0C-24.907,6.864-24.959,6.869-25.012,6.872z"/>
			<path fill-rule="evenodd" clip-rule="evenodd" fill="#FEFEFE" d="M12.223,26.233c-0.048,0.003-0.096,0.009-0.144,0.009
				c-12.315,0-24.631,0-36.947,0c-0.052,0-0.104-0.004-0.157-0.006c0.49-0.286,0.98-0.573,1.472-0.857
				c3.2-1.848,6.4-3.695,9.6-5.542c0.035-0.02,0.071-0.037,0.107-0.055c0.056,0,0.113,0.002,0.169,0.002c8.581,0,17.161,0,25.742,0
				c0.052,0,0.105,0.001,0.157,0.003C12.223,21.937,12.223,24.085,12.223,26.233z"/>
			<path fill-rule="evenodd" clip-rule="evenodd" fill="#FEFEFE" d="M-25.012,6.872c0.052-0.003,0.104-0.008,0.156-0.008
				c12.312,0,24.623,0,36.935,0c0.048,0,0.096,0.005,0.144,0.008c0,2.148,0,4.297,0,6.445c-0.048,0.001-0.097,0.003-0.145,0.003
				c-8.583,0-17.166,0-25.748,0c-0.057,0-0.113,0.001-0.17,0.003c-0.489-0.28-0.98-0.558-1.469-0.84
				c-3.202-1.848-6.404-3.696-9.605-5.544C-24.948,6.92-24.979,6.895-25.012,6.872z"/>
			<path fill-rule="evenodd" clip-rule="evenodd" fill="#EC0000" d="M-13.84,13.324c0.057-0.001,0.113-0.003,0.17-0.003
				c8.583,0,17.165,0,25.748,0c0.048,0,0.097-0.001,0.145-0.003c0,2.157,0,4.313,0,6.47c-0.052-0.001-0.105-0.003-0.157-0.003
				c-8.581,0-17.161,0-25.742,0c-0.056,0-0.113-0.002-0.169-0.002c0.623-0.362,1.246-0.725,1.87-1.085
				c1.207-0.698,2.414-1.394,3.622-2.091c0.024-0.014,0.048-0.03,0.085-0.053c-0.045-0.028-0.083-0.053-0.122-0.076
				c-1.787-1.031-3.573-2.061-5.36-3.093C-13.78,13.366-13.81,13.344-13.84,13.324z"/>
		</g>
	</g>
	<g>
		<defs>
			<circle id="SVGID_37_" cx="17.475" cy="16.595" r="15.917"/>
		</defs>
		<clipPath id="SVGID_4_">
			<use xlink:href="#SVGID_37_"  overflow="visible"/>
		</clipPath>
		<g clip-path="url(#SVGID_4_)">
			<path fill-rule="evenodd" clip-rule="evenodd" fill="#FC0000" d="M14.906,0.176c9.774,0,19.547,0,29.32-0.003
				c0.105,0,0.117,0.027,0.117,0.122c-0.003,10.82-0.003,21.64,0,32.46c0,0.094-0.012,0.122-0.117,0.122
				c-9.773-0.003-19.547-0.003-29.32-0.003c-0.053-0.063-0.041-0.14-0.041-0.212c-0.001-0.793-0.001-1.585-0.001-2.378
				c0-1.782,0-3.564,0.001-5.346c0-0.073-0.006-0.147,0.012-0.219c0.069-0.084,0.186-0.097,0.277-0.028
				c0.11,0.082,0.132,0.08,0.197-0.034c0.03-0.052,0.077-0.052,0.126-0.057c0.336-0.034,0.673-0.069,1.005-0.137
				c1.049-0.215,2.021-0.615,2.909-1.215c0.353-0.238,0.681-0.504,0.998-0.789c0.235-0.211,0.445-0.443,0.652-0.679
				c0.041-0.047,0.086-0.096,0.151-0.094c0.173,0.008,0.243-0.128,0.262-0.244c0.029-0.188,0.145-0.317,0.229-0.468
				c0.051-0.093,0.115-0.178,0.176-0.266c0.028-0.041,0.061-0.075,0.105-0.1c0.191-0.101,0.251-0.226,0.208-0.436
				c-0.012-0.06,0.002-0.113,0.027-0.166c0.284-0.596,0.496-1.217,0.628-1.864c0.053-0.26,0.099-0.521,0.117-0.786
				c0.007-0.098,0.023-0.191,0.098-0.27c0.075-0.078,0.062-0.174,0.011-0.261c-0.088-0.151-0.092-0.295,0.003-0.446
				c0.053-0.084,0.058-0.179-0.017-0.26c-0.047-0.051-0.068-0.107-0.074-0.176c-0.036-0.556-0.138-1.1-0.29-1.636
				c-0.11-0.39-0.259-0.766-0.424-1.134c-0.016-0.034-0.042-0.071-0.024-0.104c0.093-0.172-0.029-0.264-0.133-0.359
				c-0.062-0.056-0.109-0.121-0.146-0.194c-0.012-0.022-0.022-0.045-0.021-0.069c0.01-0.234-0.121-0.376-0.311-0.479
				c-0.063-0.034-0.111-0.082-0.152-0.139c-0.656-0.928-1.483-1.668-2.454-2.253c-0.781-0.47-1.624-0.783-2.515-0.97
				c-0.331-0.069-0.666-0.119-1.005-0.131c-0.066-0.002-0.115-0.023-0.149-0.086c-0.042-0.077-0.104-0.081-0.178-0.021
				c-0.103,0.083-0.205,0.081-0.286-0.007c-0.017-0.056-0.014-0.114-0.014-0.17c-0.001-2.601-0.001-5.201,0-7.802
				C14.865,0.315,14.853,0.239,14.906,0.176z"/>
			<path fill-rule="evenodd" clip-rule="evenodd" fill="#006500" d="M14.909,24.69c-0.001,0.045-0.003,0.09-0.003,0.135
				c0,2.683,0,5.366,0,8.049c-6.503,0-13.006,0-19.509,0.003c-0.105,0-0.116-0.029-0.116-0.123c0.003-10.82,0.003-21.639,0-32.458
				c0-0.093,0.011-0.123,0.116-0.123C1.899,0.177,8.402,0.176,14.906,0.176c0,2.691,0,5.382,0,8.074c0,0.045,0.002,0.09,0.003,0.134
				c-0.079,0.077-0.156,0.042-0.229-0.008c-0.104-0.073-0.152-0.068-0.226,0.032c-0.038,0.052-0.092,0.064-0.15,0.067
				C13.627,8.511,12.97,8.65,12.33,8.867c-0.98,0.334-1.866,0.836-2.661,1.504c-0.487,0.41-0.911,0.876-1.295,1.38
				c-0.055,0.072-0.113,0.121-0.205,0.141c-0.126,0.027-0.255,0.188-0.241,0.317c0.015,0.129-0.031,0.232-0.092,0.334
				c-0.075,0.126-0.137,0.259-0.212,0.386c-0.044,0.074-0.095,0.136-0.163,0.193c-0.094,0.08-0.153,0.193-0.119,0.328
				c0.021,0.083,0.007,0.159-0.024,0.238c-0.239,0.616-0.383,1.255-0.469,1.909c-0.011,0.084-0.017,0.17-0.023,0.255
				c-0.009,0.101-0.029,0.188-0.094,0.271c-0.058,0.075-0.049,0.169-0.007,0.256c0.071,0.145,0.063,0.292,0.003,0.437
				c-0.044,0.105-0.054,0.204,0.036,0.292c0.064,0.063,0.068,0.147,0.076,0.227c0.088,0.945,0.348,1.842,0.76,2.695
				c0.036,0.075,0.066,0.145,0.041,0.234c-0.022,0.078,0.029,0.139,0.09,0.187c0.146,0.115,0.244,0.255,0.258,0.449
				c0.007,0.096,0.069,0.166,0.158,0.203c0.091,0.038,0.151,0.104,0.208,0.183c0.21,0.292,0.446,0.561,0.693,0.823
				c0.419,0.445,0.886,0.832,1.394,1.168c0.952,0.631,1.993,1.042,3.121,1.23c0.258,0.043,0.517,0.071,0.776,0.094
				c0.05,0.004,0.095,0.009,0.123,0.063c0.052,0.1,0.116,0.111,0.207,0.044C14.746,24.651,14.824,24.615,14.909,24.69z"/>
			<path fill-rule="evenodd" clip-rule="evenodd" fill="#030400" d="M14.909,24.69c-0.09-0.003-0.179-0.031-0.248,0.075
				c-0.043,0.066-0.203,0.007-0.219-0.075c-0.009-0.049-0.035-0.056-0.076-0.058c-0.403-0.024-0.8-0.083-1.194-0.168
				c-0.54-0.116-1.06-0.29-1.565-0.511c-0.639-0.28-1.229-0.643-1.772-1.077c-0.58-0.462-1.09-0.993-1.525-1.595
				c-0.043-0.061-0.087-0.113-0.161-0.142c-0.141-0.054-0.168-0.141-0.192-0.296c-0.02-0.133-0.096-0.259-0.213-0.34
				c-0.114-0.079-0.156-0.156-0.12-0.293c0.013-0.048-0.012-0.079-0.028-0.114c-0.273-0.55-0.476-1.124-0.618-1.721
				c-0.09-0.381-0.145-0.766-0.189-1.154c-0.003-0.033-0.006-0.062-0.034-0.087c-0.103-0.095-0.111-0.205-0.056-0.333
				c0.059-0.134,0.078-0.27-0.01-0.412c-0.05-0.079-0.055-0.201,0.008-0.267c0.111-0.116,0.098-0.256,0.11-0.387
				c0.044-0.488,0.143-0.964,0.274-1.436c0.063-0.228,0.139-0.451,0.228-0.67c0.018-0.044,0.027-0.086,0.014-0.131
				c-0.055-0.195,0.009-0.335,0.18-0.441c0.077-0.048,0.093-0.15,0.141-0.227c0.066-0.107,0.122-0.222,0.182-0.333
				c0.049-0.088,0.086-0.172,0.071-0.285c-0.021-0.153,0.134-0.335,0.288-0.356c0.071-0.01,0.109-0.045,0.146-0.095
				c0.982-1.328,2.247-2.279,3.796-2.854c0.583-0.217,1.184-0.353,1.799-0.436c0.109-0.015,0.219-0.019,0.329-0.027
				c0.085-0.007,0.188,0.022,0.197-0.119c0.002-0.033,0.192-0.052,0.212-0.015c0.061,0.112,0.156,0.08,0.246,0.076
				c0.054,0,0.106,0,0.16,0c0.024,0,0.047,0,0.065-0.023c0.092-0.111,0.177-0.1,0.232,0.032c0.024,0.058,0.074,0.041,0.115,0.044
				c0.63,0.042,1.246,0.158,1.847,0.351c1.715,0.552,3.101,1.562,4.163,3.016c0.031,0.043,0.055,0.096,0.107,0.115
				c0.185,0.067,0.273,0.224,0.365,0.378c0.021,0.034,0.019,0.057,0.003,0.103c-0.039,0.111,0.051,0.201,0.125,0.262
				c0.083,0.067,0.141,0.144,0.191,0.233c0.029,0.053,0.073,0.105-0.017,0.147c-0.047,0.022-0.011,0.058,0.001,0.083
				c0.29,0.622,0.498,1.271,0.622,1.947c0.054,0.292,0.096,0.586,0.11,0.884c0.002,0.052,0.015,0.091,0.052,0.13
				c0.103,0.106,0.102,0.237,0.003,0.351c-0.048,0.056-0.041,0.292,0.012,0.356c0.088,0.109,0.082,0.256-0.022,0.341
				c-0.042,0.034-0.046,0.073-0.051,0.116c-0.059,0.568-0.163,1.127-0.334,1.673c-0.118,0.373-0.26,0.736-0.429,1.089
				c-0.029,0.061-0.042,0.113-0.019,0.184c0.056,0.171-0.058,0.375-0.233,0.429c-0.041,0.013-0.059,0.041-0.078,0.071
				c-0.123,0.188-0.243,0.377-0.365,0.566c-0.061,0.093-0.023,0.212-0.099,0.307c-0.067,0.084-0.121,0.165-0.243,0.148
				c-0.059-0.008-0.087,0.035-0.118,0.072c-0.863,1.008-1.909,1.765-3.137,2.267c-0.796,0.326-1.624,0.514-2.481,0.574
				c-0.045,0.003-0.088-0.006-0.093,0.064c-0.006,0.076-0.163,0.139-0.194,0.078C15.104,24.643,14.999,24.707,14.909,24.69z"/>
			<path fill-rule="evenodd" clip-rule="evenodd" fill="#FEFEFE" d="M14.902,10.983c1.565,0,3.131,0.001,4.697-0.002
				c0.108,0,0.135,0.025,0.135,0.134c-0.004,2.085,0.012,4.17-0.007,6.255c-0.017,1.876-0.854,3.306-2.471,4.254
				c-1.632,0.956-3.746,0.798-5.242-0.357c-0.946-0.73-1.568-1.67-1.83-2.84c-0.077-0.344-0.108-0.694-0.108-1.046
				c0-2.098,0-4.195-0.003-6.292c0-0.096,0.024-0.12,0.12-0.12c1.57,0.003,3.14,0.002,4.709,0.002
				C14.902,10.975,14.902,10.979,14.902,10.983z"/>
			<path fill-rule="evenodd" clip-rule="evenodd" fill="#006600" d="M9.911,21.685c0.225,0.047,0.437,0.095,0.651,0.136
				c0.479,0.092,0.958,0.175,1.442,0.237c0.649,0.083,1.3,0.148,1.955,0.176c0.132,0.006,0.268,0.005,0.4,0.037
				c0.059,0.015,0.084,0.028,0.083,0.091c-0.002,0.425-0.002,0.85,0,1.274c0,0.074-0.029,0.089-0.096,0.083
				c-0.912-0.076-1.773-0.329-2.592-0.73c-0.568-0.28-1.105-0.611-1.578-1.038c-0.081-0.074-0.163-0.148-0.243-0.222
				C9.926,21.723,9.923,21.71,9.911,21.685z"/>
			<path fill-rule="evenodd" clip-rule="evenodd" fill="#FE0000" d="M19.87,21.724c-0.279,0.283-0.59,0.527-0.918,0.748
				c-0.9,0.604-1.887,0.991-2.955,1.172c-0.185,0.031-0.372,0.044-0.558,0.069c-0.055,0.008-0.074-0.005-0.074-0.061
				c0-0.437,0.001-0.874,0-1.311c0-0.059,0.032-0.061,0.076-0.068c0.206-0.036,0.415-0.027,0.622-0.038
				C17.346,22.17,18.614,22.008,19.87,21.724z"/>
			<path fill-rule="evenodd" clip-rule="evenodd" fill="#FE0000" d="M19.425,10.925c-0.335,0-0.637,0-0.938,0
				c-0.997-0.001-1.993-0.004-2.989-0.001c-0.105,0-0.138-0.022-0.136-0.133c0.007-0.453,0.004-0.906,0.001-1.359
				c-0.001-0.078,0.016-0.107,0.103-0.1c1.148,0.097,2.212,0.451,3.193,1.052C18.916,10.541,19.164,10.711,19.425,10.925z"/>
			<path fill-rule="evenodd" clip-rule="evenodd" fill="#006600" d="M10.386,10.92c0.505-0.413,1.035-0.724,1.598-0.975
				c0.519-0.23,1.058-0.399,1.616-0.507c0.252-0.049,0.506-0.076,0.76-0.109c0.057-0.007,0.082,0.014,0.082,0.074
				c-0.001,0.478-0.002,0.956,0,1.435c0,0.066-0.028,0.086-0.089,0.083c-0.032-0.002-0.065,0-0.098,0c-1.234,0-2.469,0-3.704,0
				C10.507,10.92,10.463,10.92,10.386,10.92z"/>
			<path fill-rule="evenodd" clip-rule="evenodd" fill="#006600" d="M7.809,17.522c0.135,0.036,0.261,0.067,0.386,0.103
				c0.569,0.159,1.147,0.272,1.731,0.36c0.096,0.014,0.14,0.048,0.153,0.16c0.04,0.319,0.116,0.633,0.238,0.932
				c0.037,0.092,0.001,0.115-0.073,0.13c-0.572,0.114-1.133,0.267-1.679,0.473c-0.08,0.03-0.116,0.013-0.151-0.061
				c-0.306-0.644-0.523-1.316-0.64-2.02C7.769,17.562,7.759,17.523,7.809,17.522z"/>
			<path fill-rule="evenodd" clip-rule="evenodd" fill="#FEFE00" d="M21.471,21.277c-0.241-0.381-0.571-0.656-0.898-0.934
				c-0.361-0.306-0.736-0.596-1.121-0.872c-0.078-0.055-0.079-0.096-0.044-0.176c0.148-0.349,0.251-0.712,0.316-1.106
				c0.139,0.103,0.266,0.195,0.391,0.291c0.503,0.384,1.003,0.773,1.451,1.223c0.167,0.168,0.326,0.343,0.44,0.554
				c0.041,0.076,0.041,0.137-0.01,0.213C21.817,20.733,21.648,21.002,21.471,21.277z"/>
			<path fill-rule="evenodd" clip-rule="evenodd" fill="#FEFE00" d="M14.448,24.176c0,0.239,0,0.242-0.246,0.216
				c-2.471-0.256-4.403-1.426-5.836-3.442c-0.054-0.076-0.059-0.121,0.034-0.162c0.1-0.045,0.2-0.142,0.295-0.134
				c0.098,0.008,0.137,0.154,0.201,0.24c1.179,1.574,2.727,2.562,4.657,2.945c0.248,0.049,0.5,0.083,0.752,0.097
				c0.134,0.007,0.157,0.057,0.143,0.167C14.445,24.127,14.448,24.152,14.448,24.176z"/>
			<path fill-rule="evenodd" clip-rule="evenodd" fill="#FE0000" d="M22.011,15.521c-0.425-0.148-0.856-0.271-1.294-0.367
				c-0.271-0.06-0.542-0.115-0.815-0.167c-0.083-0.016-0.121-0.041-0.119-0.138c0.007-0.335,0.005-0.67,0.001-1.005
				c-0.001-0.086,0.015-0.128,0.11-0.146c0.47-0.085,0.936-0.19,1.394-0.326c0.083-0.025,0.106,0.014,0.135,0.074
				c0.286,0.592,0.455,1.22,0.57,1.864C22.005,15.377,22.036,15.444,22.011,15.521z"/>
			<path fill-rule="evenodd" clip-rule="evenodd" fill="#FEFE00" d="M15.365,24.185c0-0.229,0-0.233,0.255-0.258
				c1.167-0.112,2.243-0.486,3.233-1.11c0.754-0.475,1.403-1.066,1.944-1.776c0.063-0.083,0.097-0.101,0.177-0.014
				c0.23,0.246,0.236,0.243,0.015,0.506c-1.243,1.481-2.812,2.412-4.714,2.772c-0.257,0.049-0.518,0.072-0.777,0.101
				c-0.105,0.012-0.155-0.009-0.134-0.124C15.37,24.251,15.365,24.218,15.365,24.185z"/>
			<path fill-rule="evenodd" clip-rule="evenodd" fill="#FEFE00" d="M8.649,11.732c0.37-0.479,0.766-0.89,1.207-1.255
				c1.101-0.913,2.355-1.493,3.766-1.732c0.245-0.041,0.492-0.073,0.742-0.084c0.063-0.003,0.091,0.011,0.084,0.079
				c-0.012,0.12,0.052,0.278-0.027,0.35c-0.07,0.063-0.226,0.031-0.343,0.044c-1.464,0.175-2.765,0.732-3.903,1.667
				c-0.231,0.189-0.447,0.395-0.653,0.611c-0.04,0.042-0.081,0.077-0.14,0.091C9.145,11.562,8.912,11.637,8.649,11.732z"/>
			<path fill-rule="evenodd" clip-rule="evenodd" fill="#FEFE00" d="M21.124,11.71c-0.263-0.08-0.503-0.152-0.744-0.225
				c-0.042-0.013-0.065-0.048-0.093-0.077c-1.078-1.118-2.374-1.846-3.895-2.169c-0.308-0.065-0.619-0.109-0.933-0.129
				c-0.085-0.005-0.103-0.036-0.097-0.109c0.005-0.053,0.001-0.106,0.001-0.159c0-0.188,0.001-0.194,0.189-0.175
				c2.259,0.223,4.099,1.225,5.531,2.983C21.094,11.662,21.102,11.676,21.124,11.71z"/>
			<path fill-rule="evenodd" clip-rule="evenodd" fill="#FEFE00" d="M10.021,13.853c-0.406-0.171-0.795-0.346-1.195-0.491
				c-0.398-0.144-0.796-0.29-1.241-0.315c0.06-0.112,0.116-0.219,0.173-0.324c0.096-0.18,0.201-0.355,0.286-0.54
				c0.052-0.111,0.132-0.128,0.235-0.124c0.247,0.01,0.484,0.071,0.717,0.143c0.319,0.097,0.632,0.216,0.94,0.342
				c0.038,0.016,0.087,0.02,0.087,0.084C10.021,13.03,10.021,13.433,10.021,13.853z"/>
			<path fill-rule="evenodd" clip-rule="evenodd" fill="#FE0000" d="M19.878,17.998c0.743-0.122,1.451-0.265,2.152-0.458
				c-0.026,0.4-0.332,1.453-0.517,1.777C21.001,18.847,20.456,18.423,19.878,17.998z"/>
			<path fill-rule="evenodd" clip-rule="evenodd" fill="#FEFE00" d="M10.022,14.539c0,0.106-0.004,0.213,0.001,0.318
				c0.003,0.069-0.014,0.104-0.09,0.112c-0.101,0.01-0.206,0.019-0.3,0.053c-0.159,0.058-0.273,0.001-0.398-0.093
				c-0.346-0.26-0.691-0.52-1.022-0.8c-0.068-0.057-0.071-0.101-0.039-0.172c0.064-0.145,0.124-0.292,0.181-0.438
				c0.022-0.057,0.05-0.068,0.108-0.047c0.499,0.177,0.987,0.382,1.471,0.598c0.069,0.031,0.095,0.074,0.09,0.15
				C10.017,14.326,10.022,14.433,10.022,14.539z"/>
			<path fill-rule="evenodd" clip-rule="evenodd" fill="#FE0000" d="M19.786,16.489c0-0.172,0.003-0.343-0.001-0.515
				c-0.002-0.072,0.027-0.082,0.087-0.07c0.732,0.146,1.459,0.309,2.162,0.57c0.03,0.012,0.081,0.011,0.081,0.061
				c0,0.05-0.048,0.046-0.082,0.056c-0.709,0.212-1.43,0.366-2.159,0.484c-0.074,0.012-0.091-0.014-0.089-0.083
				C19.788,16.824,19.785,16.657,19.786,16.489z"/>
			<path fill-rule="evenodd" clip-rule="evenodd" fill="#006600" d="M10.024,16.489c0,0.167,0,0.334,0,0.502
				c0,0.046,0.004,0.089-0.072,0.075c-0.731-0.138-1.462-0.273-2.173-0.496c-0.031-0.009-0.081,0.001-0.083-0.054
				c-0.002-0.061,0.053-0.058,0.086-0.069c0.653-0.231,1.324-0.396,2.004-0.522c0.236-0.043,0.237-0.041,0.237,0.197
				C10.024,16.244,10.024,16.366,10.024,16.489z"/>
			<path fill-rule="evenodd" clip-rule="evenodd" fill="#FEFE00" d="M7.014,16.917C6.986,16.83,7.029,16.777,7.11,16.74
				c0.085-0.039,0.169-0.081,0.251-0.125c0.076-0.042,0.109-0.042,0.11,0.064c0.014,0.996,0.232,1.947,0.637,2.856
				c0.04,0.089,0.127,0.192,0.105,0.263c-0.02,0.065-0.156,0.094-0.24,0.14C7.821,20.02,7.821,20.02,7.75,19.868
				C7.313,18.934,7.066,17.952,7.014,16.917z"/>
			<path fill-rule="evenodd" clip-rule="evenodd" fill="#FEFE00" d="M10.022,15.189c0,0.137-0.003,0.267,0.001,0.397
				c0.002,0.068-0.042,0.065-0.086,0.073c-0.505,0.091-1.007,0.198-1.502,0.339c-0.451,0.128-0.898,0.268-1.316,0.485
				c-0.107,0.056-0.208,0.121-0.324,0.189c0-0.122-0.002-0.235,0-0.348c0.001-0.083,0.069-0.117,0.125-0.156
				c0.251-0.18,0.534-0.295,0.821-0.4C8.478,15.499,9.239,15.325,10.022,15.189z"/>
			<path fill-rule="evenodd" clip-rule="evenodd" fill="#FEFE00" d="M22.752,15.851c-0.146-0.069-0.28-0.136-0.417-0.198
				c-0.075-0.034-0.057-0.104-0.064-0.159c-0.081-0.584-0.234-1.149-0.451-1.697c-0.165-0.417-0.369-0.816-0.619-1.215
				c0.219,0.062,0.415,0.122,0.606,0.198c0.04,0.016,0.052,0.05,0.068,0.082c0.456,0.858,0.744,1.769,0.858,2.736
				C22.744,15.679,22.763,15.758,22.752,15.851z"/>
			<path fill-rule="evenodd" clip-rule="evenodd" fill="#FEFE00" d="M22.976,16.696c-0.826-0.542-1.761-0.733-2.69-0.942
				c-0.135-0.03-0.271-0.055-0.408-0.078c-0.066-0.011-0.105-0.033-0.093-0.109c0.007-0.039,0.001-0.081,0.001-0.122
				c0-0.248,0.001-0.254,0.244-0.205c0.787,0.161,1.569,0.341,2.309,0.663c0.195,0.084,0.38,0.188,0.553,0.312
				c0.062,0.044,0.093,0.092,0.086,0.172C22.97,16.488,22.976,16.589,22.976,16.696z"/>
			<path fill-rule="evenodd" clip-rule="evenodd" fill="#FEFE00" d="M20.615,20.921c-0.137,0.161-0.252,0.296-0.367,0.433
				c-0.035,0.042-0.085,0.048-0.131,0.06c-0.948,0.231-1.906,0.401-2.877,0.499c-0.153,0.015-0.308,0.031-0.462,0.046
				c-0.011,0.001-0.022-0.003-0.057-0.007c0.362-0.156,0.685-0.34,0.999-0.542c0.129-0.083,0.302-0.061,0.454-0.081
				c0.788-0.107,1.574-0.225,2.351-0.398C20.543,20.926,20.563,20.926,20.615,20.921z"/>
			<path fill-rule="evenodd" clip-rule="evenodd" fill="#FEFE00" d="M22.04,19.874c-0.098-0.108-0.186-0.212-0.279-0.308
				c-0.043-0.044-0.038-0.079-0.016-0.13c0.242-0.564,0.414-1.149,0.508-1.755c0.055-0.351,0.089-0.704,0.088-1.072
				c0.151,0.048,0.276,0.13,0.405,0.204c0.056,0.032,0.036,0.087,0.033,0.133c-0.037,0.746-0.181,1.47-0.428,2.175
				C22.263,19.374,22.164,19.624,22.04,19.874z"/>
			<path fill-rule="evenodd" clip-rule="evenodd" fill="#FEFE00" d="M13.011,21.943c-0.385-0.045-0.771-0.083-1.154-0.137
				c-0.719-0.1-1.433-0.233-2.139-0.406c-0.106-0.026-0.186-0.071-0.25-0.156c-0.083-0.11-0.171-0.217-0.279-0.354
				c0.219,0.044,0.403,0.08,0.588,0.118c0.712,0.145,1.43,0.259,2.151,0.34c0.083,0.009,0.154,0.036,0.224,0.085
				C12.421,21.625,12.711,21.781,13.011,21.943z"/>
			<path fill-rule="evenodd" clip-rule="evenodd" fill="#FEFE00" d="M10.653,19.81c0,0.045-0.042,0.033-0.069,0.039
				c-0.403,0.08-0.803,0.179-1.198,0.296c-0.422,0.125-0.836,0.272-1.211,0.513c-0.058,0.038-0.105,0.133-0.173,0.105
				c-0.052-0.021-0.077-0.11-0.113-0.169c-0.146-0.236-0.149-0.242,0.1-0.389c0.452-0.269,0.949-0.428,1.452-0.57
				c0.294-0.083,0.593-0.146,0.89-0.221c0.086-0.021,0.131-0.001,0.165,0.086C10.536,19.605,10.598,19.703,10.653,19.81z"/>
			<path fill-rule="evenodd" clip-rule="evenodd" fill="#006600" d="M11.646,21.083c-0.2-0.028-0.4-0.051-0.599-0.084
				c-0.636-0.106-1.272-0.22-1.901-0.366c-0.063-0.015-0.171-0.001-0.176-0.077c-0.004-0.075,0.105-0.068,0.165-0.088
				c0.519-0.181,1.052-0.307,1.592-0.41c0.038-0.007,0.071-0.018,0.097,0.021c0.231,0.363,0.521,0.676,0.833,0.971
				C11.654,21.061,11.65,21.071,11.646,21.083z"/>
			<path fill-rule="evenodd" clip-rule="evenodd" fill="#FEFE00" d="M20.563,20.681c-0.354,0.069-0.712,0.139-1.069,0.209
				c-0.035,0.007-0.065-0.005-0.094-0.018c-0.223-0.1-0.444-0.203-0.667-0.301c-0.06-0.027-0.072-0.046-0.027-0.101
				c0.202-0.246,0.376-0.511,0.522-0.795c0.017-0.032,0.028-0.067,0.079-0.03c0.43,0.324,0.86,0.646,1.258,1.01
				C20.567,20.657,20.565,20.663,20.563,20.681z"/>
			<path fill-rule="evenodd" clip-rule="evenodd" fill="#FEFE00" d="M8.171,13.378c-0.279,0.599-0.473,1.202-0.587,1.83
				c-0.009,0.048-0.026,0.097-0.023,0.145c0.014,0.206-0.099,0.304-0.281,0.358c-0.081,0.024-0.153,0.073-0.241,0.114
				c0.035-0.432,0.11-0.846,0.215-1.255c0.106-0.411,0.248-0.809,0.416-1.199c0.032-0.074,0.066-0.098,0.145-0.076
				C7.928,13.328,8.044,13.349,8.171,13.378z"/>
			<path fill-rule="evenodd" clip-rule="evenodd" fill="#FEFE00" d="M14.676,9.668c0-0.375,0.004-0.751-0.002-1.126
				c-0.001-0.094,0.027-0.123,0.117-0.114c0.109,0.011,0.251-0.044,0.32,0.021c0.076,0.07,0.024,0.215,0.024,0.328
				c0.003,0.677,0,1.354,0.004,2.031c0,0.087-0.014,0.127-0.111,0.117c-0.112-0.013-0.26,0.045-0.33-0.022
				c-0.07-0.067-0.02-0.216-0.021-0.329C14.674,10.271,14.676,9.97,14.676,9.668z"/>
			<path fill-rule="evenodd" clip-rule="evenodd" fill="#FEFE00" d="M14.677,23.471c0-0.36,0.002-0.719-0.002-1.078
				c0-0.074,0.017-0.107,0.095-0.095c0.036,0.006,0.073,0.002,0.11,0.003c0.26,0.001,0.26,0.001,0.26,0.257
				c0,0.657-0.001,1.315,0.003,1.972c0,0.09-0.02,0.127-0.115,0.117c-0.085-0.008-0.172-0.006-0.257,0
				c-0.078,0.006-0.096-0.024-0.096-0.098C14.678,24.189,14.677,23.83,14.677,23.471z"/>
			<path fill-rule="evenodd" clip-rule="evenodd" fill="#FEFE00" d="M19.78,17.554c0.008-0.236,0.008-0.237,0.244-0.275
				c0.664-0.108,1.322-0.244,1.969-0.427c0.123-0.035,0.125,0.004,0.113,0.104c-0.038,0.323-0.035,0.325-0.343,0.408
				c-0.618,0.168-1.242,0.304-1.875,0.403c-0.097,0.015-0.137,0.003-0.111-0.103C19.787,17.629,19.78,17.59,19.78,17.554z"/>
			<path fill-rule="evenodd" clip-rule="evenodd" fill="#FEFE00" d="M7.694,16.79c0.503,0.152,0.993,0.275,1.488,0.372
				c0.252,0.049,0.505,0.092,0.759,0.132c0.061,0.009,0.085,0.027,0.083,0.09c-0.004,0.102-0.005,0.205,0.004,0.306
				c0.007,0.077-0.026,0.078-0.085,0.068c-0.702-0.128-1.4-0.27-2.087-0.462c-0.106-0.03-0.146-0.079-0.141-0.187
				C7.721,17.009,7.703,16.907,7.694,16.79z"/>
			<path fill-rule="evenodd" clip-rule="evenodd" fill="#FDFD00" d="M14.326,24.584c-1.15-0.084-2.228-0.395-3.235-0.939
				c-1.16-0.626-2.112-1.486-2.859-2.572c-0.019-0.026-0.039-0.053-0.053-0.082c-0.029-0.057,0.029-0.069,0.056-0.088
				c0.053-0.039,0.059,0.022,0.076,0.047c0.539,0.791,1.193,1.469,1.971,2.027c1.049,0.753,2.211,1.229,3.49,1.413
				c0.186,0.026,0.373,0.042,0.56,0.066c0.047,0.006,0.125-0.029,0.117,0.073C14.44,24.637,14.36,24.561,14.326,24.584z"/>
			<path fill-rule="evenodd" clip-rule="evenodd" fill="#FDFD00" d="M8.339,11.844c0.181-0.265,0.37-0.494,0.57-0.713
				c1.188-1.297,2.639-2.138,4.363-2.503c0.359-0.076,0.724-0.126,1.091-0.147c0.041-0.002,0.081-0.018,0.086,0.049
				c0.004,0.068-0.028,0.08-0.087,0.083c-0.988,0.064-1.929,0.31-2.823,0.733c-1.149,0.544-2.116,1.319-2.898,2.321
				C8.565,11.764,8.478,11.816,8.339,11.844z"/>
			<path fill-rule="evenodd" clip-rule="evenodd" fill="#FDFD00" d="M21.456,11.836c-0.15-0.038-0.241-0.094-0.32-0.193
				c-1.237-1.544-2.82-2.523-4.766-2.909c-0.305-0.061-0.612-0.102-0.922-0.119c-0.06-0.003-0.091-0.017-0.086-0.084
				c0.006-0.08,0.062-0.049,0.1-0.046c1.745,0.125,3.285,0.76,4.628,1.877c0.47,0.391,0.886,0.835,1.254,1.323
				C21.376,11.727,21.406,11.769,21.456,11.836z"/>
			<path fill-rule="evenodd" clip-rule="evenodd" fill="#FDFD00" d="M21.217,21.329c0.085,0.078,0.062,0.143-0.002,0.221
				c-1.181,1.454-2.675,2.409-4.498,2.845c-0.41,0.098-0.825,0.16-1.246,0.186c-0.038,0.002-0.101,0.038-0.106-0.052
				c-0.006-0.09,0.056-0.071,0.104-0.075c1.73-0.141,3.257-0.773,4.581-1.896c0.409-0.348,0.776-0.737,1.108-1.158
				C21.177,21.375,21.198,21.351,21.217,21.329z"/>
			<path fill-rule="evenodd" clip-rule="evenodd" fill="#FDFD00" d="M14.33,23.896c-1.427-0.125-2.71-0.609-3.851-1.466
				c-0.639-0.479-1.187-1.047-1.641-1.705c-0.023-0.035-0.116-0.071-0.032-0.133c0.084-0.061,0.108,0.021,0.144,0.07
				c1.005,1.407,2.331,2.366,3.995,2.85c0.456,0.133,0.922,0.21,1.394,0.253c0.052,0.005,0.123-0.014,0.109,0.083
				S14.363,23.874,14.33,23.896z"/>
			<path fill-rule="evenodd" clip-rule="evenodd" fill="#FDFD00" d="M15.476,23.898c-0.035-0.021-0.1,0.039-0.111-0.05
				c-0.011-0.083,0.042-0.078,0.097-0.083c1.038-0.085,2.016-0.375,2.928-0.88c0.901-0.499,1.664-1.16,2.291-1.979
				c0.032-0.041,0.055-0.125,0.132-0.038c0.049,0.056-0.003,0.082-0.025,0.112c-0.318,0.417-0.674,0.798-1.073,1.139
				c-1.086,0.931-2.337,1.504-3.75,1.72C15.802,23.866,15.64,23.879,15.476,23.898z"/>
			<path fill-rule="evenodd" clip-rule="evenodd" fill="#FEFE00" d="M21.966,12.603c-0.682-0.261-1.379-0.426-2.081-0.569
				c-0.071-0.015-0.107-0.032-0.101-0.113c0.009-0.109-0.036-0.263,0.021-0.317c0.059-0.056,0.202,0.025,0.307,0.049
				c0.453,0.104,0.896,0.238,1.331,0.403C21.708,12.158,21.868,12.338,21.966,12.603z"/>
			<path fill-rule="evenodd" clip-rule="evenodd" fill="#006600" d="M9.12,15.129c-0.468,0.103-0.9,0.227-1.34,0.377
				c0.059-0.389,0.14-0.756,0.251-1.117c0.035-0.114,0.085-0.023,0.11-0.003c0.237,0.178,0.471,0.363,0.706,0.544
				C8.931,14.993,9.017,15.053,9.12,15.129z"/>
			<path fill-rule="evenodd" clip-rule="evenodd" fill="#FEFE00" d="M19.785,13.25c0-0.221,0-0.222,0.214-0.263
				c0.315-0.062,0.63-0.127,0.938-0.218c0.077-0.022,0.119-0.007,0.154,0.065c0.05,0.102,0.17,0.218,0.146,0.293
				c-0.025,0.083-0.195,0.075-0.303,0.105c-0.333,0.094-0.673,0.157-1.011,0.229c-0.112,0.024-0.159,0.008-0.14-0.114
				C19.79,13.316,19.785,13.282,19.785,13.25z"/>
			<path fill-rule="evenodd" clip-rule="evenodd" fill="#FDFD00" d="M10.121,10.909c0.32-0.277,0.651-0.512,1.001-0.722
				c0.978-0.587,2.036-0.927,3.171-1.029c0.012-0.001,0.025-0.005,0.037-0.001c0.042,0.012,0.11-0.045,0.119,0.052
				c0.008,0.089-0.056,0.073-0.104,0.078c-0.436,0.038-0.865,0.107-1.288,0.221c-0.967,0.259-1.842,0.698-2.626,1.318
				C10.341,10.896,10.255,10.941,10.121,10.909z"/>
			<path fill-rule="evenodd" clip-rule="evenodd" fill="#FDFD00" d="M19.694,10.915c-0.124,0.027-0.205-0.001-0.29-0.069
				c-1.094-0.868-2.337-1.379-3.724-1.54c-0.077-0.009-0.154-0.018-0.231-0.021c-0.057-0.002-0.093-0.012-0.087-0.083
				c0.007-0.081,0.064-0.049,0.1-0.047c0.502,0.039,0.995,0.126,1.479,0.267c0.996,0.29,1.891,0.771,2.688,1.434
				C19.647,10.873,19.664,10.888,19.694,10.915z"/>
			<path fill-rule="evenodd" clip-rule="evenodd" fill="#FDFD00" d="M20.135,21.461c-0.087,0.129-0.189,0.193-0.325,0.224
				c-1.189,0.268-2.393,0.434-3.61,0.497c-0.078,0.004-0.154,0.011-0.234,0.007c0.133-0.037,0.268-0.068,0.397-0.114
				c0.138-0.049,0.278-0.059,0.421-0.07c0.143-0.011,0.284-0.028,0.426-0.042c0.952-0.096,1.892-0.257,2.821-0.481
				C20.059,21.474,20.087,21.47,20.135,21.461z"/>
			<path fill-rule="evenodd" clip-rule="evenodd" fill="#FDFD00" d="M13.763,22.183c-0.268-0.02-0.522-0.035-0.775-0.059
				c-0.878-0.081-1.75-0.206-2.613-0.387c-0.159-0.033-0.317-0.073-0.478-0.104c-0.11-0.021-0.168-0.104-0.24-0.181
				c0.042-0.025,0.075-0.005,0.108,0.003c0.92,0.223,1.853,0.382,2.795,0.479C12.964,21.976,13.371,22.002,13.763,22.183z"/>
			<path fill-rule="evenodd" clip-rule="evenodd" fill="#FDFD00" d="M22.111,20.442c-0.034-0.211-0.147-0.361-0.269-0.505
				c-0.368-0.436-0.807-0.797-1.253-1.148c-0.256-0.202-0.519-0.397-0.778-0.595c-0.02-0.015-0.045-0.025-0.059-0.044
				c-0.033-0.049-0.021-0.106,0.002-0.151c0.019-0.035,0.049,0.004,0.069,0.019c0.675,0.502,1.35,1.006,1.936,1.615
				c0.152,0.158,0.299,0.324,0.39,0.529C22.191,20.255,22.211,20.347,22.111,20.442z"/>
			<path fill-rule="evenodd" clip-rule="evenodd" fill="#FDFD00" d="M6.74,16.26c-0.037-0.109,0.021-0.171,0.088-0.227
				c0.227-0.187,0.494-0.299,0.764-0.404c0.744-0.289,1.519-0.465,2.302-0.605c0.038-0.007,0.105-0.06,0.128,0.025
				c0.025,0.094-0.045,0.103-0.111,0.114c-0.833,0.146-1.652,0.341-2.438,0.661C7.208,15.931,6.952,16.053,6.74,16.26z"/>
			<path fill-rule="evenodd" clip-rule="evenodd" fill="#FDFD00" d="M6.739,16.954c-0.04-0.116,0.027-0.178,0.097-0.235
				c0.227-0.186,0.496-0.297,0.766-0.399c0.753-0.287,1.535-0.466,2.326-0.61c0.031-0.005,0.083-0.04,0.094,0.033
				c0.011,0.072-0.019,0.098-0.09,0.11c-0.769,0.134-1.525,0.314-2.257,0.586C7.34,16.563,7.01,16.701,6.739,16.954z"/>
			<path fill-rule="evenodd" clip-rule="evenodd" fill="#FDFD00" d="M23.063,16.981c-0.68-0.532-1.494-0.728-2.304-0.932
				c-0.296-0.075-0.597-0.134-0.897-0.191c-0.075-0.015-0.082-0.049-0.076-0.106c0.008-0.081,0.063-0.031,0.091-0.026
				c0.851,0.159,1.694,0.344,2.493,0.689c0.229,0.099,0.447,0.218,0.635,0.386C23.063,16.852,23.087,16.906,23.063,16.981z"/>
			<path fill-rule="evenodd" clip-rule="evenodd" fill="#FDFD00" d="M23.063,16.287c-0.7-0.544-1.535-0.739-2.364-0.948
				c-0.273-0.068-0.549-0.121-0.826-0.172c-0.075-0.014-0.102-0.044-0.086-0.111c0.017-0.078,0.071-0.028,0.106-0.022
				c0.77,0.142,1.532,0.314,2.265,0.597c0.297,0.114,0.585,0.249,0.83,0.46C23.046,16.141,23.094,16.193,23.063,16.287z"/>
			<path fill-rule="evenodd" clip-rule="evenodd" fill="#FDFD00" d="M6.958,16.849c0.027,0.299,0.047,0.594,0.093,0.887
				c0.119,0.771,0.348,1.506,0.686,2.208c0.051,0.105,0.05,0.105-0.058,0.186c-0.203-0.393-0.364-0.801-0.494-1.221
				c-0.188-0.606-0.298-1.227-0.345-1.859C6.833,16.953,6.85,16.884,6.958,16.849z"/>
			<path fill-rule="evenodd" clip-rule="evenodd" fill="#FDFD00" d="M7.644,16.515c0.001,0.672,0.09,1.324,0.271,1.963
				c0.113,0.404,0.264,0.795,0.443,1.175c0.018,0.037,0.068,0.077-0.011,0.114c-0.07,0.032-0.086-0.013-0.107-0.058
				c-0.345-0.727-0.575-1.486-0.67-2.286c-0.031-0.256-0.048-0.512-0.054-0.769C7.513,16.564,7.536,16.514,7.644,16.515z"/>
			<path fill-rule="evenodd" clip-rule="evenodd" fill="#FDFD00" d="M22.947,15.979c-0.099-0.035-0.137-0.093-0.146-0.199
				c-0.093-0.99-0.366-1.928-0.816-2.815c-0.021-0.039-0.041-0.08-0.066-0.131c0.112,0.023,0.189,0.066,0.238,0.169
				c0.445,0.917,0.706,1.885,0.791,2.899C22.949,15.926,22.947,15.951,22.947,15.979z"/>
			<path fill-rule="evenodd" clip-rule="evenodd" fill="#FDFD00" d="M22.238,15.6c-0.12-0.005-0.143-0.073-0.158-0.169
				c-0.16-1.034-0.528-1.988-1.1-2.863c-0.008-0.013-0.013-0.026-0.021-0.043c0.119,0,0.188,0.055,0.247,0.151
				C21.753,13.575,22.1,14.544,22.238,15.6z"/>
			<path fill-rule="evenodd" clip-rule="evenodd" fill="#FDFD00" d="M22.16,20.051c-0.083-0.077-0.085-0.144-0.042-0.235
				c0.432-0.926,0.663-1.903,0.715-2.932c0.073,0.032,0.126,0.063,0.121,0.158C22.888,18.095,22.622,19.095,22.16,20.051z"/>
			<path fill-rule="evenodd" clip-rule="evenodd" fill="#FDFD00" d="M7.706,20.391c-0.096-0.085-0.062-0.156,0.009-0.222
				c0.13-0.121,0.286-0.201,0.446-0.273c0.679-0.306,1.395-0.495,2.119-0.658c0.1-0.022,0.121,0.032,0.134,0.114
				c-0.429,0.093-0.856,0.193-1.275,0.326c-0.357,0.113-0.71,0.24-1.043,0.414C7.95,20.167,7.812,20.252,7.706,20.391z"/>
			<path fill-rule="evenodd" clip-rule="evenodd" fill="#FDFD00" d="M21.364,21.564c-0.023-0.168-0.109-0.292-0.209-0.406
				c-0.293-0.332-0.63-0.618-0.974-0.894c-0.267-0.215-0.541-0.421-0.812-0.631c-0.013-0.01-0.026-0.021-0.04-0.028
				c-0.061-0.036-0.023-0.078-0.005-0.115c0.031-0.064,0.061-0.011,0.084,0.006c0.193,0.143,0.388,0.285,0.578,0.434
				c0.433,0.342,0.869,0.679,1.239,1.092c0.068,0.076,0.132,0.156,0.181,0.246C21.477,21.399,21.474,21.424,21.364,21.564z"/>
			<path fill-rule="evenodd" clip-rule="evenodd" fill="#FDFD00" d="M11.951,21.305c-0.413-0.042-0.8-0.1-1.187-0.163
				c-0.495-0.08-0.987-0.176-1.478-0.28c-0.124-0.026-0.195-0.084-0.245-0.199c0.38,0.076,0.754,0.154,1.129,0.227
				c0.48,0.093,0.964,0.174,1.449,0.234C11.748,21.14,11.852,21.185,11.951,21.305z"/>
			<path fill-rule="evenodd" clip-rule="evenodd" fill="#FDFD00" d="M10.757,19.996C9.82,20.222,8.854,20.37,8.05,20.979
				c-0.074-0.074-0.076-0.083,0.014-0.171c0.134-0.129,0.296-0.216,0.462-0.294c0.578-0.274,1.195-0.423,1.814-0.566
				c0.079-0.019,0.159-0.035,0.239-0.05C10.697,19.875,10.698,19.875,10.757,19.996z"/>
			<path fill-rule="evenodd" clip-rule="evenodd" fill="#FDFD00" d="M17.852,21.327c0.146-0.214,0.361-0.195,0.554-0.22
				c0.716-0.093,1.425-0.229,2.131-0.379c0.069-0.015,0.143-0.029,0.157,0.053c0.015,0.073-0.067,0.081-0.12,0.092
				c-0.657,0.145-1.319,0.261-1.986,0.35C18.346,21.255,18.104,21.291,17.852,21.327z"/>
			<path fill-rule="evenodd" clip-rule="evenodd" fill="#FDFD00" d="M22.168,16.541c0.112,0.004,0.128,0.061,0.126,0.148
				c-0.019,0.928-0.212,1.819-0.571,2.675c-0.013,0.033-0.009,0.107-0.073,0.082c-0.053-0.021-0.076-0.068-0.046-0.138
				c0.171-0.393,0.297-0.801,0.391-1.22C22.108,17.58,22.162,17.065,22.168,16.541z"/>
			<path fill-rule="evenodd" clip-rule="evenodd" fill="#F4F400" d="M14.494,9.622c0-0.384-0.001-0.768,0.002-1.153
				c0-0.049-0.043-0.133,0.069-0.13c0.103,0.002,0.063,0.079,0.063,0.125c0.002,0.777,0.002,1.554,0,2.33
				c0,0.049,0.043,0.132-0.07,0.13c-0.104-0.001-0.063-0.079-0.063-0.124C14.493,10.407,14.494,10.014,14.494,9.622z"/>
			<path fill-rule="evenodd" clip-rule="evenodd" fill="#F3F300" d="M15.183,9.632c0-0.396,0-0.792,0-1.188
				c0-0.051-0.017-0.11,0.073-0.107c0.084,0.004,0.061,0.062,0.061,0.105c0.001,0.793,0.001,1.585,0,2.378
				c0,0.05,0.018,0.109-0.072,0.105c-0.085-0.003-0.062-0.061-0.062-0.104C15.183,10.424,15.183,10.028,15.183,9.632z"/>
			<path fill-rule="evenodd" clip-rule="evenodd" fill="#FDFD00" d="M8.813,11.91c0.115-0.064,0.235-0.088,0.351-0.12
				c0.251-0.067,0.507-0.12,0.757-0.19c0.1-0.028,0.11,0.009,0.102,0.089c-0.009,0.101,0.042,0.23-0.021,0.295
				c-0.055,0.059-0.186,0.038-0.277,0.069c-0.184,0.064-0.356,0.044-0.533-0.028C9.073,11.978,8.946,11.95,8.813,11.91z"/>
			<path fill-rule="evenodd" clip-rule="evenodd" fill="#FDFD00" d="M10.017,14.046c-0.85-0.335-1.657-0.775-2.592-0.84
				c0.004-0.081,0.07-0.099,0.149-0.104c0.19-0.012,0.374,0.032,0.555,0.082c0.63,0.175,1.23,0.432,1.826,0.697
				C10.025,13.912,10.024,13.915,10.017,14.046z"/>
			<path fill-rule="evenodd" clip-rule="evenodd" fill="#FCFC00" d="M7.658,13.285c-0.193,0.436-0.35,0.876-0.463,1.331
				c-0.094,0.376-0.16,0.757-0.199,1.144c-0.011,0.11-0.014,0.109-0.136,0.175c-0.008-0.208,0.027-0.407,0.057-0.604
				c0.103-0.676,0.288-1.328,0.555-1.958C7.508,13.284,7.553,13.248,7.658,13.285z"/>
			<path fill-rule="evenodd" clip-rule="evenodd" fill="#FEFE00" d="M15.186,23.516c0-0.372,0-0.743,0-1.115
				c0-0.057-0.012-0.119,0.079-0.118c0.089,0.002,0.053,0.069,0.053,0.108c0.002,0.748,0.002,1.495,0.001,2.243
				c0,0.043,0.024,0.102-0.06,0.105c-0.09,0.003-0.072-0.057-0.072-0.107C15.185,24.26,15.186,23.888,15.186,23.516z"/>
			<path fill-rule="evenodd" clip-rule="evenodd" fill="#FEFE00" d="M14.495,23.503c0-0.372-0.001-0.743,0.001-1.115
				c0-0.04-0.032-0.105,0.059-0.102c0.08,0.002,0.075,0.052,0.075,0.108c0,0.748,0,1.495-0.001,2.243
				c0,0.045,0.019,0.101-0.063,0.103c-0.091,0.001-0.07-0.06-0.07-0.109C14.494,24.255,14.495,23.879,14.495,23.503z"/>
			<path fill-rule="evenodd" clip-rule="evenodd" fill="#FD0000" d="M20.88,12.529c-0.298,0.097-0.605,0.169-0.915,0.23
				c-0.18,0.036-0.181,0.033-0.181-0.147c0-0.102,0.001-0.204,0-0.306c0-0.036,0.003-0.063,0.053-0.053
				c0.338,0.073,0.677,0.141,1.01,0.234C20.864,12.492,20.879,12.5,20.88,12.529z"/>
			<path fill-rule="evenodd" clip-rule="evenodd" fill="#FCFC00" d="M7.694,16.667C7.683,16.6,7.72,16.604,7.772,16.62
				c0.543,0.165,1.097,0.285,1.653,0.394c0.168,0.033,0.337,0.062,0.505,0.091c0.056,0.01,0.101,0.02,0.093,0.096
				c-0.01,0.094-0.075,0.048-0.109,0.043c-0.722-0.112-1.435-0.267-2.135-0.479C7.694,16.739,7.695,16.737,7.694,16.667z"/>
			<path fill-rule="evenodd" clip-rule="evenodd" fill="#FCFC00" d="M7.751,17.318c0.297,0.076,0.591,0.153,0.887,0.224
				c0.436,0.105,0.877,0.185,1.318,0.264c0.054,0.009,0.091,0.018,0.092,0.085c0.001,0.055-0.01,0.068-0.067,0.059
				c-0.721-0.115-1.435-0.263-2.135-0.47C7.752,17.453,7.729,17.407,7.751,17.318z"/>
			<path fill-rule="evenodd" clip-rule="evenodd" fill="#FCFC00" d="M22.11,16.627c0.015,0.079,0.023,0.144-0.086,0.174
				c-0.709,0.189-1.427,0.34-2.153,0.453c-0.032,0.006-0.086,0.043-0.085-0.036c0-0.043-0.012-0.084,0.059-0.095
				c0.764-0.113,1.514-0.286,2.255-0.5C22.103,16.624,22.105,16.626,22.11,16.627z"/>
			<path fill-rule="evenodd" clip-rule="evenodd" fill="#FCFC00" d="M22.063,17.333c0.012,0.09-0.003,0.151-0.108,0.18
				c-0.683,0.182-1.373,0.32-2.069,0.437c-0.06,0.01-0.108,0.003-0.122-0.064c-0.012-0.06,0.038-0.062,0.078-0.068
				c0.744-0.107,1.474-0.273,2.195-0.483C22.043,17.333,22.051,17.334,22.063,17.333z"/>
			<path fill-rule="evenodd" clip-rule="evenodd" fill="#FDFD00" d="M22.217,12.905c-0.633-0.301-1.295-0.459-1.959-0.61
				c-0.135-0.031-0.271-0.061-0.407-0.083c-0.071-0.012-0.071-0.056-0.065-0.106c0.008-0.065,0.058-0.033,0.085-0.027
				c0.675,0.141,1.347,0.291,1.992,0.539C22.004,12.672,22.162,12.715,22.217,12.905z"/>
			<path fill-rule="evenodd" clip-rule="evenodd" fill="#FCFC00" d="M7.575,15.574c0.097-0.736,0.297-1.429,0.601-2.093
				c0.022-0.049,0.032-0.098,0.11-0.065c0.092,0.038,0.023,0.083,0.009,0.113c-0.275,0.604-0.464,1.233-0.564,1.89
				C7.717,15.516,7.682,15.567,7.575,15.574z"/>
			<path fill-rule="evenodd" clip-rule="evenodd" fill="#FCFC00" d="M10.012,12.513c-0.651-0.214-1.269-0.557-1.989-0.484
				c0.021-0.101,0.105-0.121,0.196-0.13c0.266-0.028,0.519,0.04,0.771,0.112c0.317,0.091,0.625,0.209,0.933,0.331
				C10.005,12.374,10.046,12.414,10.012,12.513z"/>
			<path fill-rule="evenodd" clip-rule="evenodd" fill="#FCFC00" d="M19.797,11.39c0.601,0.144,1.198,0.29,1.755,0.561
				c0.109,0.053,0.232,0.099,0.28,0.257c-0.265-0.155-0.53-0.262-0.803-0.353c-0.371-0.123-0.75-0.222-1.133-0.299
				C19.803,11.538,19.761,11.5,19.797,11.39z"/>
			<path fill-rule="evenodd" clip-rule="evenodd" fill="#FCFC00" d="M19.785,13.597c-0.009-0.052,0.019-0.069,0.074-0.08
				c0.456-0.083,0.909-0.179,1.354-0.312c0.066-0.021,0.098,0.002,0.119,0.061c0.03,0.085-0.05,0.062-0.079,0.07
				c-0.458,0.129-0.922,0.231-1.389,0.324C19.788,13.677,19.786,13.673,19.785,13.597z"/>
			<path fill-rule="evenodd" clip-rule="evenodd" fill="#FCFC00" d="M8.129,14.116c0.384,0.339,0.794,0.644,1.215,0.948
				c-0.106,0.064-0.182,0.041-0.269-0.024c-0.303-0.228-0.607-0.453-0.903-0.689C8.084,14.281,8.054,14.216,8.129,14.116z"/>
			<path fill-rule="evenodd" clip-rule="evenodd" fill="#FBFB00" d="M8.508,11.844c0.373-0.161,0.748-0.264,1.126-0.359
				c0.103-0.026,0.206-0.05,0.31-0.071c0.025-0.005,0.07-0.032,0.076,0.022c0.004,0.04,0.023,0.091-0.047,0.104
				c-0.119,0.025-0.237,0.057-0.356,0.083c-0.277,0.063-0.553,0.139-0.821,0.231C8.7,11.888,8.613,11.882,8.508,11.844z"/>
			<path fill-rule="evenodd" clip-rule="evenodd" fill="#FCFC00" d="M20.999,12.704c-0.372,0.106-0.745,0.189-1.121,0.258
				c-0.03,0.005-0.082,0.055-0.091-0.021c-0.006-0.051-0.012-0.098,0.069-0.112c0.321-0.055,0.639-0.128,0.949-0.228
				C20.912,12.567,20.964,12.593,20.999,12.704z"/>
			<path fill-rule="evenodd" clip-rule="evenodd" fill="#FC0000" d="M19.039,20.972c-0.325,0.046-0.614,0.087-0.931,0.132
				c0.133-0.132,0.248-0.245,0.361-0.359c0.03-0.031,0.057-0.021,0.087-0.006C18.706,20.812,18.855,20.883,19.039,20.972z"/>
			<path fill-rule="evenodd" clip-rule="evenodd" fill="#FAFA00" d="M18.545,20.672c0.042-0.082,0.092-0.104,0.184-0.056
				c0.198,0.101,0.403,0.188,0.614,0.286C19.119,20.978,18.949,20.927,18.545,20.672z"/>
			<path fill-rule="evenodd" clip-rule="evenodd" fill="#F9F900" d="M20.243,11.434c-0.276-0.022-0.471-0.211-0.449-0.43
				C19.954,11.137,20.095,11.279,20.243,11.434z"/>
			<path fill-rule="evenodd" clip-rule="evenodd" fill="#FAFA00" d="M9.622,11.433c0.118-0.131,0.25-0.277,0.389-0.431
				C10.036,11.221,9.836,11.417,9.622,11.433z"/>
			<path fill-rule="evenodd" clip-rule="evenodd" fill="#F5F500" d="M9.568,12.136c0.137-0.029,0.258-0.055,0.379-0.079
				c0.027-0.005,0.071-0.03,0.073,0.027c0.002,0.037,0.022,0.088-0.035,0.104C9.848,12.225,9.71,12.249,9.568,12.136z"/>
			<path fill-rule="evenodd" clip-rule="evenodd" fill="#DEDE00" d="M7.451,13.278c-0.03,0.071-0.052,0.122-0.076,0.179
				C7.327,13.34,7.329,13.334,7.451,13.278z"/>
			<path fill-rule="evenodd" clip-rule="evenodd" fill="#ECEC00" d="M21.186,21.668c0.033-0.057,0.063-0.097,0.108-0.131
				C21.321,21.656,21.318,21.66,21.186,21.668z"/>
			<path fill-rule="evenodd" clip-rule="evenodd" fill="#EB0000" d="M19.793,11.238c0.046,0.044,0.077,0.074,0.112,0.107
				C19.791,11.356,19.791,11.356,19.793,11.238z"/>
			<path fill-rule="evenodd" clip-rule="evenodd" fill="#D4D400" d="M7.951,12.267c-0.032-0.091-0.001-0.135,0.091-0.174
				C8.007,12.159,7.982,12.207,7.951,12.267z"/>
			<path fill-rule="evenodd" clip-rule="evenodd" fill="#ACAC00" d="M22.065,20.467c0,0.066-0.007,0.108-0.082,0.116
				C21.997,20.533,22.015,20.499,22.065,20.467z"/>
			<path fill-rule="evenodd" clip-rule="evenodd" fill="#140606" d="M14.898,11.141c1.512,0,3.024,0.001,4.537-0.002
				c0.103,0,0.134,0.018,0.134,0.13c-0.004,2.036,0.008,4.071-0.007,6.106c-0.013,1.827-0.819,3.229-2.404,4.123
				c-1.428,0.805-2.92,0.82-4.385,0.079c-1.24-0.627-2.041-1.637-2.413-2.979c-0.112-0.404-0.151-0.818-0.15-1.236
				c0.003-2.036,0.005-4.071,0.004-6.106c0-0.103,0.035-0.115,0.123-0.115C11.857,11.141,13.378,11.141,14.898,11.141z"/>
			<path fill-rule="evenodd" clip-rule="evenodd" fill="#FE0000" d="M14.906,11.186c1.496,0,2.992,0,4.488-0.001
				c0.087,0,0.128,0.01,0.128,0.116c-0.004,2.097,0.009,4.194-0.011,6.292c-0.01,1.08-0.406,2.032-1.112,2.849
				c-0.703,0.813-1.584,1.332-2.642,1.525c-1.44,0.264-2.732-0.083-3.854-1.019c-0.885-0.738-1.413-1.689-1.599-2.826
				c-0.04-0.246-0.054-0.496-0.054-0.745c0.002-1.971,0.003-3.941,0.005-5.911c0-0.28,0.001-0.28,0.285-0.28
				C11.996,11.186,13.451,11.186,14.906,11.186z"/>
			<path fill-rule="evenodd" clip-rule="evenodd" fill="#0F0303" d="M14.893,13.02c0.891,0,1.781,0.002,2.673-0.002
				c0.095,0,0.135,0.017,0.134,0.126c-0.004,1.41-0.003,2.819-0.005,4.229c0,0.416-0.064,0.819-0.233,1.204
				c-0.756,1.724-2.974,2.221-4.385,0.981c-0.673-0.592-0.984-1.342-0.982-2.233c0.004-1.398,0.001-2.795-0.001-4.193
				c0-0.087,0.01-0.128,0.117-0.127c0.894,0.005,1.79,0.003,2.684,0.003C14.893,13.012,14.893,13.016,14.893,13.02z"/>
			<path fill-rule="evenodd" clip-rule="evenodd" fill="#090600" d="M11.369,15.351c0-0.008-0.003-0.02,0-0.023
				c0.06-0.049,0.107-0.016,0.152,0.027c0.045-0.07,0.096-0.072,0.15-0.01c0.006,0.008,0.012,0.026,0.021,0.009
				c0.037-0.07,0.112-0.065,0.137-0.025c0.034,0.055,0.037,0.146-0.004,0.198c-0.043,0.055-0.036,0.105-0.036,0.16
				c0,0.053-0.005,0.094,0.069,0.128c0.117,0.055,0.014,0.157-0.006,0.223c-0.056,0.184-0.021,0.351,0.053,0.516
				c0.016,0.034,0.042,0.062,0.024,0.1c-0.02,0.043-0.056,0.055-0.101,0.055c-0.082-0.001-0.164,0-0.246,0c-0.343,0-0.687,0-1.03,0
				c-0.052,0-0.112,0.013-0.136-0.052c-0.021-0.054,0.014-0.084,0.049-0.124c0.052-0.06,0.021-0.148,0.042-0.223
				c0.037-0.133-0.001-0.257-0.054-0.378c-0.018-0.042-0.022-0.079,0.014-0.111c0.103-0.095,0.114-0.169,0.043-0.29
				c-0.035-0.061-0.021-0.128-0.013-0.191c0.006-0.042,0.062-0.036,0.083-0.024c0.05,0.029,0.091,0.035,0.137-0.003
				c0.005-0.004,0.019-0.004,0.023,0c0.076,0.066,0.146-0.014,0.228-0.003c-0.048-0.048-0.043-0.101-0.041-0.152
				c0.002-0.035-0.018-0.083,0.024-0.099c0.038-0.014,0.089-0.026,0.119,0.028c0.014,0.027,0.025,0.026,0.032-0.005
				c0-0.004,0.001-0.009,0.004-0.011c0.066-0.044,0.118-0.029,0.157,0.039c0.025-0.082,0.113-0.082,0.137-0.045
				c0.042,0.064,0.047,0.156-0.014,0.225C11.367,15.303,11.356,15.319,11.369,15.351z"/>
			<path fill-rule="evenodd" clip-rule="evenodd" fill="#090600" d="M18.828,15.3c0.038,0.031,0.107-0.032,0.132,0.05
				c0.008,0.027,0.02-0.004,0.024-0.013c0.015-0.036,0.048-0.037,0.072-0.028c0.06,0.022,0.114,0.014,0.175,0.002
				c0.066-0.012,0.112,0.13,0.051,0.209c-0.057,0.075-0.028,0.147-0.035,0.221c-0.001,0.015,0.002,0.042,0.011,0.045
				c0.188,0.078,0.055,0.186,0.024,0.281c-0.009,0.029-0.017,0.056-0.01,0.082c0.037,0.145-0.018,0.305,0.103,0.438
				c0.052,0.058-0.008,0.115-0.083,0.118c-0.11,0.005-0.22,0.001-0.33,0.001c-0.319,0-0.637,0-0.956,0
				c-0.051,0-0.109,0.013-0.138-0.051c-0.026-0.058,0.034-0.085,0.043-0.124c0.036-0.158,0.088-0.314,0.037-0.484
				c-0.024-0.082-0.142-0.193,0.037-0.27c0.038-0.016,0.052-0.155,0-0.223c-0.042-0.054-0.036-0.105-0.036-0.16
				c0-0.028-0.02-0.075,0.026-0.081c0.039-0.006,0.091-0.032,0.117,0.027c0.007,0.016,0.014,0.05,0.026,0.004
				c0.012-0.049,0.059-0.046,0.075-0.034c0.079,0.062,0.148-0.012,0.226-0.006c-0.064-0.062-0.045-0.137-0.045-0.208
				c0-0.035,0.029-0.038,0.053-0.053c0.061-0.042,0.071,0.083,0.132,0.03c0.051-0.044,0.106-0.056,0.146,0.02
				c0.002,0.005,0.017,0.007,0.017,0.007c0.034-0.083,0.114-0.072,0.137-0.025c0.031,0.063,0.035,0.151-0.026,0.217
				C18.831,15.294,18.829,15.299,18.828,15.3z"/>
			<path fill-rule="evenodd" clip-rule="evenodd" fill="#0D0900" d="M18.009,19.23c0.01-0.08,0.072-0.116,0.118-0.165
				c0.01-0.01,0.03-0.025,0.039-0.021c0.063,0.025,0.093,0.07,0.074,0.14c0.085-0.039,0.115,0.02,0.129,0.083
				c0.004,0.021-0.039,0.055,0.025,0.031c0.051-0.019,0.07,0.032,0.093,0.062c0.027,0.037-0.017,0.056-0.037,0.078
				c-0.038,0.041-0.075,0.084-0.128,0.1c0.002,0.047,0.088,0.056,0.04,0.116c-0.01,0.013-0.003,0.023,0.01,0.021
				c0.092-0.015,0.138,0.011,0.107,0.113c-0.001,0.001,0.011,0.012,0.015,0.01c0.078-0.036,0.122,0.028,0.112,0.074
				c-0.014,0.063-0.075,0.119-0.141,0.14c-0.142,0.046-0.17,0.085-0.177,0.24c-0.004,0.097-0.107,0.113-0.168,0.132
				c-0.062,0.018-0.101,0.045-0.132,0.091c-0.077,0.114-0.195,0.193-0.217,0.352c-0.013,0.095-0.103,0.056-0.159-0.001
				c-0.25-0.252-0.5-0.504-0.751-0.756c-0.058-0.058-0.116-0.115-0.172-0.175c-0.051-0.053-0.043-0.13,0.022-0.134
				c0.134-0.009,0.2-0.115,0.301-0.168c0.116-0.062,0.146-0.178,0.198-0.281c0.023-0.045,0.046-0.074,0.102-0.061
				c0.079,0.02,0.215-0.055,0.218-0.135c0.003-0.091,0.077-0.119,0.12-0.174c0.008-0.01,0.032-0.019,0.041-0.014
				c0.053,0.029,0.086,0.07,0.064,0.135c0.074-0.044,0.127,0.025,0.128,0.061c0.001,0.05-0.015,0.065,0.048,0.05
				C17.949,19.167,17.979,19.207,18.009,19.23z"/>
			<path fill-rule="evenodd" clip-rule="evenodd" fill="#080500" d="M18.625,12.915c-0.217,0-0.433,0-0.649,0
				c-0.04,0-0.084,0.006-0.106-0.042c-0.022-0.049,0.017-0.078,0.031-0.118c0.058-0.161,0.1-0.324,0.043-0.501
				c-0.025-0.08-0.129-0.186,0.04-0.262c0.041-0.019,0.055-0.16-0.003-0.233c-0.053-0.065-0.024-0.133-0.031-0.199
				c-0.004-0.031,0.026-0.031,0.046-0.044c0.054-0.033,0.076,0.056,0.129,0.024c0.05-0.029,0.106-0.061,0.147,0.024
				c0.012,0.023,0.021-0.013,0.021-0.019c-0.003-0.065,0.129,0.023,0.091-0.082c-0.011-0.03-0.011-0.064-0.009-0.097
				c0.002-0.034-0.021-0.085,0.024-0.096c0.039-0.009,0.1-0.042,0.121,0.034c0.068-0.056,0.138-0.053,0.211-0.01
				c0.027-0.058,0.079-0.035,0.115-0.025c0.046,0.013,0.008,0.074,0.028,0.094c0.046,0.046-0.107,0.139,0.048,0.163
				c0.043,0.006,0.069,0,0.106-0.006c0.074-0.009,0.148,0.036,0.229,0.001c0.032-0.014,0.072,0.157,0.025,0.211
				c-0.062,0.072-0.029,0.147-0.037,0.221c-0.002,0.021,0,0.046,0.021,0.054c0.174,0.057,0.053,0.17,0.034,0.245
				c-0.012,0.049-0.038,0.099-0.025,0.147c0.033,0.133-0.009,0.279,0.099,0.404c0.058,0.065-0.021,0.11-0.1,0.11
				C19.058,12.915,18.841,12.915,18.625,12.915z"/>
			<path fill-rule="evenodd" clip-rule="evenodd" fill="#070500" d="M11.172,12.915c-0.213,0-0.425,0-0.638,0
				c-0.043,0-0.095,0.01-0.116-0.044c-0.018-0.046-0.002-0.083,0.038-0.117c0.066-0.058,0.028-0.146,0.051-0.219
				c0.042-0.137-0.001-0.266-0.052-0.392c-0.019-0.046-0.022-0.084,0.023-0.117c0.073-0.052,0.111-0.197,0.057-0.258
				c-0.046-0.051-0.04-0.104-0.041-0.159c0-0.03-0.013-0.07,0.03-0.083c0.034-0.011,0.084-0.022,0.102,0.012
				c0.032,0.06,0.028,0.02,0.048-0.005c0.021-0.028,0.08-0.024,0.089-0.01c0.048,0.075,0.084-0.006,0.124-0.003
				c0.072,0.005,0.05-0.036,0.043-0.075c-0.005-0.032-0.004-0.065-0.001-0.098c0.002-0.029-0.018-0.073,0.031-0.08
				c0.035-0.004,0.083-0.02,0.103,0.016c0.026,0.047,0.032,0.047,0.045-0.003c0.002-0.006,0.012-0.012,0.019-0.013
				c0.056-0.007,0.113-0.014,0.137,0.058c0.017-0.078,0.086-0.078,0.128-0.053c0.064,0.039,0.02,0.118,0.028,0.178
				c0.004,0.022-0.036,0.076,0.007,0.061c0.056-0.02,0.059,0.108,0.113,0.027c0.016-0.023,0.051-0.028,0.067-0.016
				c0.059,0.042,0.111,0.01,0.169,0c0.065-0.011,0.115,0.134,0.055,0.212c-0.057,0.074-0.033,0.146-0.038,0.22
				c-0.001,0.018,0.007,0.052,0.017,0.054c0.191,0.042,0.071,0.176,0.044,0.236c-0.033,0.075-0.033,0.136-0.021,0.207
				c0.021,0.12,0.007,0.243,0.091,0.356c0.054,0.071-0.023,0.111-0.102,0.11C11.604,12.914,11.389,12.915,11.172,12.915z"/>
			<path fill-rule="evenodd" clip-rule="evenodd" fill="#0F0A00" d="M11.485,19.539c-0.096-0.03-0.138-0.105-0.211-0.167
				c0.06-0.01,0.062-0.109,0.146-0.062c0.027,0.016,0.017-0.011,0.014-0.023c-0.003-0.015-0.015-0.039-0.01-0.043
				c0.068-0.058,0.126-0.129,0.191-0.186c0.045-0.039,0.088,0.058,0.136,0.089c0.024,0.016,0.057,0.066,0.056,0.06
				c-0.006-0.079,0.146,0.029,0.098-0.084c-0.001-0.004,0.009-0.013,0.014-0.02c0.033-0.044,0.072-0.071,0.13-0.046
				c-0.048-0.057-0.002-0.087,0.035-0.117c0.034-0.028,0.165,0.057,0.169,0.127c0.005,0.095,0.078,0.127,0.128,0.182
				c0.013,0.014,0.041,0.033,0.048,0.028c0.171-0.105,0.169,0.078,0.208,0.144c0.027,0.048,0.049,0.1,0.096,0.128
				c0.114,0.071,0.189,0.199,0.347,0.208c0.073,0.004,0.075,0.088,0.004,0.16c-0.21,0.212-0.421,0.423-0.631,0.635
				c-0.095,0.096-0.191,0.191-0.285,0.287c-0.03,0.031-0.063,0.055-0.107,0.035c-0.037-0.016-0.041-0.052-0.054-0.088
				c-0.059-0.174-0.16-0.31-0.33-0.4c-0.066-0.035-0.235-0.032-0.147-0.21c0.021-0.042-0.087-0.157-0.146-0.159
				c-0.121-0.004-0.148-0.103-0.235-0.157c0.065-0.01,0.071-0.102,0.152-0.065c0.024,0.011,0.005-0.021,0.001-0.03
				c-0.016-0.038,0.019-0.066,0.034-0.067C11.436,19.69,11.425,19.589,11.485,19.539z"/>
			<path fill-rule="evenodd" clip-rule="evenodd" fill="#070500" d="M14.911,12.915c-0.217,0-0.434,0-0.649,0
				c-0.041,0-0.087,0.005-0.107-0.042c-0.02-0.046-0.012-0.089,0.036-0.115c0.036-0.021,0.03-0.055,0.035-0.086
				c0.032-0.186,0.061-0.371-0.04-0.546c-0.025-0.044-0.006-0.077,0.033-0.103c0.073-0.049,0.108-0.186,0.053-0.257
				c-0.034-0.045-0.036-0.087-0.037-0.135c-0.001-0.125,0.027-0.145,0.132-0.076c0.037,0.024,0.029-0.005,0.036-0.014
				c0.024-0.032,0.074-0.035,0.088-0.021c0.055,0.057,0.098,0.004,0.147-0.002c0.039-0.005,0.042-0.016,0.032-0.054
				c-0.012-0.046-0.007-0.097-0.008-0.146c0-0.02-0.001-0.04,0.022-0.052c0.058-0.03,0.108,0.047,0.147,0.025
				c0.063-0.035,0.106-0.059,0.15,0.017c0.016,0.028,0.021,0.006,0.025-0.007c0.026-0.069,0.086-0.041,0.125-0.031
				c0.042,0.012,0.021,0.064,0.021,0.098c0.001,0.071-0.033,0.155,0.083,0.178c0.018,0.003,0.025,0.041,0.039-0.005
				c0.009-0.03,0.041-0.029,0.062-0.023c0.06,0.016,0.112,0.02,0.177,0.003c0.07-0.019,0.107,0.13,0.053,0.221
				c-0.075,0.125-0.058,0.194,0.042,0.288c0.08,0.076,0.005,0.16-0.025,0.229c-0.017,0.039-0.034,0.068-0.024,0.11
				c0.035,0.142-0.005,0.295,0.099,0.43c0.052,0.067-0.014,0.116-0.098,0.115C15.344,12.914,15.128,12.915,14.911,12.915z"/>
			<path fill-rule="evenodd" clip-rule="evenodd" fill="#FEFEFE" d="M14.896,13.059c0.879,0,1.758,0.001,2.636-0.001
				c0.092,0,0.123,0.017,0.123,0.118c-0.004,1.422,0.001,2.844-0.006,4.267c-0.006,1.255-0.813,2.319-1.999,2.658
				c-1.568,0.447-3.204-0.592-3.47-2.205c-0.028-0.169-0.042-0.341-0.042-0.512c0-1.402,0.001-2.804-0.003-4.205
				c-0.001-0.103,0.024-0.127,0.126-0.127c0.878,0.005,1.757,0.003,2.636,0.003C14.896,13.056,14.896,13.058,14.896,13.059z"/>
			<path fill-rule="evenodd" clip-rule="evenodd" fill="#FCFC00" d="M11.271,16.071c0.142,0,0.253,0.01,0.361-0.002
				c0.121-0.014,0.156,0.041,0.155,0.146c0,0.036,0.004,0.073,0.009,0.109c0.028,0.22-0.002,0.248-0.223,0.211
				c-0.033-0.005-0.05-0.015-0.053-0.05C11.506,16.319,11.426,16.188,11.271,16.071z"/>
			<path fill-rule="evenodd" clip-rule="evenodd" fill="#FCFC00" d="M11.063,16.071c-0.15,0.111-0.224,0.237-0.235,0.395
				c-0.006,0.084-0.063,0.067-0.114,0.068c-0.187,0.002-0.187,0.002-0.172-0.174c0.025-0.29,0.025-0.29,0.317-0.29
				C10.915,16.071,10.972,16.071,11.063,16.071z"/>
			<path fill-rule="evenodd" clip-rule="evenodd" fill="#FCFC00" d="M11.03,15.532c0,0.002-0.001-0.027,0-0.055
				c0.008-0.197-0.025-0.159,0.169-0.167c0.073-0.003,0.114,0.009,0.107,0.095c-0.005,0.061,0.007,0.121,0.01,0.182
				c0.012,0.219-0.029,0.253-0.249,0.212c-0.045-0.009-0.05-0.031-0.048-0.066C11.023,15.676,11.025,15.619,11.03,15.532z"/>
			<path fill-rule="evenodd" clip-rule="evenodd" fill="#FEFE00" d="M11.178,16.662c-0.208,0-0.417,0-0.625,0
				c-0.037,0-0.099,0.019-0.1-0.038c-0.001-0.067,0.065-0.045,0.105-0.045c0.412-0.001,0.824-0.001,1.236,0
				c0.037,0,0.096-0.016,0.094,0.044c-0.002,0.062-0.062,0.039-0.098,0.039C11.586,16.663,11.382,16.662,11.178,16.662z"/>
			<path fill-rule="evenodd" clip-rule="evenodd" fill="#F9F900" d="M11.478,16.481c0.006,0.034,0,0.055-0.041,0.055
				c-0.041,0.001-0.06-0.013-0.063-0.055c-0.007-0.084-0.043-0.157-0.1-0.219c-0.085-0.095-0.132-0.092-0.217,0.006
				c-0.053,0.062-0.08,0.133-0.091,0.211c-0.006,0.048-0.027,0.063-0.072,0.055c-0.054-0.009-0.029-0.049-0.027-0.078
				c0.001-0.024,0.009-0.047,0.015-0.072c0.04-0.155,0.198-0.317,0.298-0.305C11.307,16.096,11.481,16.331,11.478,16.481z"/>
			<path fill-rule="evenodd" clip-rule="evenodd" fill="#EDED00" d="M11.165,16.028c-0.191,0-0.383,0-0.575-0.001
				c-0.028,0-0.075,0.015-0.075-0.035c0.001-0.044,0.044-0.039,0.076-0.039c0.387,0,0.774,0,1.162,0c0.033,0,0.076-0.002,0.075,0.04
				c0,0.047-0.047,0.034-0.076,0.034C11.556,16.028,11.361,16.028,11.165,16.028z"/>
			<path fill-rule="evenodd" clip-rule="evenodd" fill="#F9F900" d="M11.17,16.549c-0.056-0.047-0.149,0.046-0.161-0.068
				C11,16.398,11.11,16.24,11.166,16.238c0.057-0.002,0.168,0.147,0.163,0.236C11.32,16.611,11.205,16.48,11.17,16.549z"/>
			<path fill-rule="evenodd" clip-rule="evenodd" fill="#FEFE00" d="M11.179,15.847c0.199,0,0.398,0,0.598,0
				c0.031,0,0.076-0.017,0.081,0.025c0.006,0.051-0.044,0.034-0.072,0.034c-0.407,0-0.814,0.001-1.222,0
				c-0.026,0-0.077,0.022-0.073-0.031c0.003-0.047,0.049-0.027,0.078-0.027C10.771,15.847,10.976,15.847,11.179,15.847z"/>
			<path fill-rule="evenodd" clip-rule="evenodd" fill="#F5F500" d="M10.729,15.8c-0.064-0.006-0.144,0.035-0.143-0.096
				c0.001-0.125,0.039-0.15,0.158-0.153c0.131-0.002,0.148,0.052,0.14,0.156C10.876,15.796,10.919,15.802,10.729,15.8z"/>
			<path fill-rule="evenodd" clip-rule="evenodd" fill="#FBFB00" d="M11.599,15.804c-0.051-0.025-0.148,0.048-0.142-0.085
				c0.004-0.105,0.006-0.167,0.15-0.169c0.148-0.002,0.134,0.07,0.14,0.166C11.757,15.855,11.651,15.777,11.599,15.804z"/>
			<path fill-rule="evenodd" clip-rule="evenodd" fill="#EFEF00" d="M11.173,15.257c-0.041,0-0.081,0.001-0.122,0
				c-0.075-0.003-0.119-0.074-0.085-0.141c0.017-0.034,0.042-0.039,0.06,0c0.036,0.078,0.072,0.067,0.113,0.004
				c0.031-0.047,0.045-0.046,0.067,0.011c0.021,0.054,0.071,0.04,0.104,0.009c0.017-0.016,0.013-0.065,0.051-0.044
				c0.031,0.017,0.013,0.059,0.015,0.09c0.002,0.033,0.002,0.068-0.045,0.069c-0.053,0.001-0.105,0-0.158,0
				C11.173,15.255,11.173,15.256,11.173,15.257z"/>
			<path fill-rule="evenodd" clip-rule="evenodd" fill="#EFEF00" d="M11.599,15.51c-0.049,0-0.097,0-0.147,0
				c-0.025,0-0.05-0.007-0.05-0.04c0-0.036,0.004-0.072,0.008-0.108c0-0.002,0.006-0.003,0.01-0.005
				c0.05,0.135,0.166-0.053,0.228,0.048c0.015,0.024,0.063,0.021,0.088-0.002c0.017-0.016,0.005-0.068,0.049-0.048
				c0.041,0.02,0.018,0.066,0.021,0.1c0.005,0.043-0.02,0.058-0.06,0.056C11.697,15.51,11.648,15.51,11.599,15.51z"/>
			<path fill-rule="evenodd" clip-rule="evenodd" fill="#F7F700" d="M10.918,15.337c0.032,0.173,0.032,0.173-0.117,0.173
				c-0.044,0-0.089,0-0.134,0c-0.142,0-0.142,0-0.117-0.16c0.057,0.04,0.116,0.138,0.173,0.005c0.007-0.016,0.028-0.004,0.037,0.012
				C10.824,15.49,10.864,15.392,10.918,15.337z"/>
			<path fill-rule="evenodd" clip-rule="evenodd" fill="#FE0000" d="M11.398,15.791c-0.045-0.083-0.042-0.173-0.043-0.277
				C11.468,15.604,11.407,15.701,11.398,15.791z"/>
			<path fill-rule="evenodd" clip-rule="evenodd" fill="#D10000" d="M10.973,15.54c0,0.084,0,0.169,0,0.268
				C10.891,15.7,10.896,15.594,10.973,15.54z"/>
			<path fill-rule="evenodd" clip-rule="evenodd" fill="#FDFD00" d="M18.525,16.071c-0.157,0.113-0.234,0.244-0.252,0.403
				c-0.011,0.09-0.072,0.059-0.117,0.059c-0.181,0.004-0.181,0.002-0.163-0.171c0.031-0.291,0.031-0.291,0.325-0.291
				C18.377,16.071,18.437,16.071,18.525,16.071z"/>
			<path fill-rule="evenodd" clip-rule="evenodd" fill="#FCFC00" d="M18.729,16.071c0.161,0,0.291,0.003,0.421-0.002
				c0.061-0.002,0.074,0.021,0.078,0.077c0.007,0.105,0.021,0.21,0.036,0.315c0.007,0.05,0,0.08-0.059,0.074
				c-0.024-0.002-0.049-0.003-0.074,0c-0.107,0.016-0.17-0.009-0.179-0.137C18.943,16.267,18.86,16.167,18.729,16.071z"/>
			<path fill-rule="evenodd" clip-rule="evenodd" fill="#F9F900" d="M18.768,15.566c0.001,0.016,0.003,0.032,0.004,0.049
				c0.013,0.184,0.013,0.175-0.168,0.186c-0.12,0.007-0.147-0.034-0.129-0.144c0.014-0.084,0.013-0.171,0.012-0.256
				c-0.002-0.064,0.011-0.093,0.085-0.093C18.749,15.308,18.749,15.304,18.768,15.566z"/>
			<path fill-rule="evenodd" clip-rule="evenodd" fill="#FEFE00" d="M18.622,16.662c-0.212,0-0.424,0-0.636,0
				c-0.033,0-0.085,0.013-0.083-0.042c0.001-0.051,0.052-0.041,0.086-0.041c0.423-0.001,0.847-0.001,1.27,0
				c0.034,0,0.085-0.011,0.084,0.043c-0.001,0.056-0.053,0.04-0.085,0.041C19.046,16.662,18.834,16.662,18.622,16.662z"/>
			<path fill-rule="evenodd" clip-rule="evenodd" fill="#FAFA00" d="M18.928,16.469c0.001,0.031,0.013,0.066-0.042,0.068
				c-0.043,0.001-0.054-0.016-0.059-0.056c-0.01-0.087-0.047-0.164-0.106-0.23c-0.067-0.077-0.127-0.071-0.193,0.001
				c-0.061,0.066-0.099,0.142-0.11,0.228c-0.006,0.05-0.028,0.062-0.071,0.055c-0.055-0.008-0.03-0.049-0.029-0.077
				c0.002-0.027,0.012-0.055,0.021-0.082c0.047-0.146,0.207-0.305,0.297-0.295C18.766,16.095,18.923,16.303,18.928,16.469z"/>
			<path fill-rule="evenodd" clip-rule="evenodd" fill="#EDED00" d="M18.622,16.027c-0.192,0-0.384,0.001-0.576,0
				c-0.029,0-0.077,0.015-0.077-0.034c0-0.044,0.044-0.04,0.076-0.04c0.389,0,0.777,0,1.166,0c0.033,0,0.073-0.002,0.069,0.045
				c-0.003,0.041-0.042,0.029-0.068,0.029C19.015,16.028,18.818,16.027,18.622,16.027z"/>
			<path fill-rule="evenodd" clip-rule="evenodd" fill="#FAFA00" d="M18.609,16.534c-0.038-0.032-0.13,0.061-0.146-0.051
				c-0.012-0.078,0.101-0.241,0.159-0.245c0.059-0.004,0.163,0.148,0.162,0.24C18.783,16.534,18.783,16.534,18.609,16.534z"/>
			<path fill-rule="evenodd" clip-rule="evenodd" fill="#FDFD00" d="M18.622,15.906c-0.204,0-0.408,0-0.612,0
				c-0.029,0-0.076,0.018-0.075-0.033c0.001-0.036,0.042-0.029,0.07-0.029c0.412,0.001,0.824,0.001,1.236,0.001
				c0.028,0,0.068-0.009,0.069,0.027c0.001,0.05-0.046,0.033-0.075,0.033C19.03,15.907,18.826,15.906,18.622,15.906z"/>
			<path fill-rule="evenodd" clip-rule="evenodd" fill="#F3F300" d="M18.191,15.801c-0.068-0.009-0.152,0.037-0.15-0.096
				c0.002-0.119,0.03-0.154,0.155-0.155c0.127,0,0.139,0.048,0.145,0.154C18.348,15.852,18.245,15.782,18.191,15.801z"/>
			<path fill-rule="evenodd" clip-rule="evenodd" fill="#F6F600" d="M19.057,15.802c-0.051-0.023-0.151,0.052-0.148-0.089
				c0.003-0.119,0.029-0.162,0.161-0.164c0.137-0.002,0.127,0.065,0.134,0.158C19.214,15.845,19.118,15.787,19.057,15.802z"/>
			<path fill-rule="evenodd" clip-rule="evenodd" fill="#EDED00" d="M18.616,15.257c-0.041,0-0.082,0.001-0.122-0.001
				c-0.067-0.003-0.112-0.089-0.075-0.147c0.022-0.035,0.044-0.022,0.062,0.009c0.039,0.068,0.073,0.072,0.112-0.002
				c0.019-0.037,0.048-0.042,0.064,0.007c0.022,0.066,0.067,0.043,0.102,0.021c0.019-0.011,0.011-0.067,0.051-0.049
				c0.04,0.019,0.015,0.064,0.02,0.098c0.005,0.04-0.013,0.062-0.055,0.063C18.722,15.256,18.669,15.256,18.616,15.257
				C18.616,15.256,18.616,15.256,18.616,15.257z"/>
			<path fill-rule="evenodd" clip-rule="evenodd" fill="#F2F200" d="M19.044,15.51c-0.037,0-0.073,0.002-0.109,0
				c-0.066-0.003-0.109-0.085-0.076-0.144c0.01-0.018,0.024-0.022,0.039-0.012c0.009,0.005,0.014,0.019,0.021,0.028
				c0.071,0.093,0.093-0.015,0.139-0.027c0.038-0.009,0.065,0.107,0.137,0.042c0.016-0.014,0.016-0.055,0.046-0.036
				c0.031,0.02,0.016,0.059,0.017,0.09c0.001,0.03-0.004,0.057-0.044,0.057C19.157,15.509,19.101,15.509,19.044,15.51L19.044,15.51z
				"/>
			<path fill-rule="evenodd" clip-rule="evenodd" fill="#F6F600" d="M18.013,15.338c0.053,0.068,0.096,0.137,0.157,0.026
				c0.008-0.015,0.03-0.026,0.038-0.008c0.056,0.128,0.109,0.038,0.162-0.005c0.043,0.157,0.042,0.158-0.1,0.159
				c-0.048,0-0.097,0-0.146,0C17.973,15.51,17.971,15.508,18.013,15.338z"/>
			<path fill-rule="evenodd" clip-rule="evenodd" fill="#D00000" d="M18.436,15.514c0,0.092,0,0.164,0,0.236
				c0,0.021-0.004,0.044-0.029,0.044c-0.025,0-0.034-0.022-0.032-0.042C18.38,15.675,18.329,15.584,18.436,15.514z"/>
			<path fill-rule="evenodd" clip-rule="evenodd" fill="#FE0000" d="M18.852,15.793c-0.056-0.083-0.036-0.174-0.042-0.281
				C18.923,15.606,18.862,15.703,18.852,15.793z"/>
			<path fill-rule="evenodd" clip-rule="evenodd" fill="#FCFC00" d="M17.52,19.825c-0.17,0.001-0.317,0.035-0.444,0.139
				c-0.058,0.048-0.078-0.008-0.106-0.035c-0.147-0.141-0.146-0.141,0.008-0.262c0.213-0.166,0.213-0.166,0.401,0.023
				C17.425,19.736,17.473,19.781,17.52,19.825z"/>
			<path fill-rule="evenodd" clip-rule="evenodd" fill="#FCFC00" d="M17.685,19.993c0.116,0.119,0.21,0.219,0.309,0.315
				c0.036,0.035,0.026,0.06-0.001,0.092c-0.083,0.1-0.165,0.201-0.25,0.303c-0.021-0.02-0.04-0.035-0.056-0.052
				c-0.046-0.046-0.111-0.086-0.13-0.142c-0.02-0.059,0.059-0.103,0.085-0.159C17.691,20.245,17.715,20.138,17.685,19.993z"/>
			<path fill-rule="evenodd" clip-rule="evenodd" fill="#FBFB00" d="M18.238,19.486c-0.009,0.01-0.018,0.023-0.028,0.034
				c-0.085,0.093-0.172,0.186-0.257,0.28c-0.03,0.034-0.053,0.028-0.078-0.003c-0.005-0.007-0.011-0.012-0.017-0.018
				c-0.162-0.152-0.162-0.152,0.003-0.303c0.027-0.025,0.054-0.051,0.081-0.075c0.11-0.101,0.211-0.08,0.282,0.059
				C18.228,19.467,18.231,19.474,18.238,19.486z"/>
			<path fill-rule="evenodd" clip-rule="evenodd" fill="#FAFA00" d="M17.747,20.787c-0.01,0.041-0.032,0.058-0.063,0.042
				c-0.024-0.013-0.044-0.036-0.064-0.056c-0.287-0.289-0.575-0.578-0.86-0.869c-0.025-0.026-0.096-0.051-0.04-0.103
				c0.046-0.042,0.071,0.016,0.097,0.041c0.291,0.291,0.582,0.583,0.871,0.875C17.709,20.739,17.729,20.765,17.747,20.787z"/>
			<path fill-rule="evenodd" clip-rule="evenodd" fill="#FAFA00" d="M17.655,20.119c0.004,0.116-0.043,0.213-0.111,0.302
				c-0.02,0.025-0.036,0.056-0.076,0.018c-0.03-0.029-0.029-0.048-0.004-0.08c0.06-0.075,0.091-0.161,0.091-0.259
				c0-0.076-0.034-0.11-0.11-0.112c-0.097-0.003-0.187,0.016-0.262,0.079c-0.045,0.037-0.074,0.021-0.099-0.017
				c-0.027-0.043,0.02-0.054,0.04-0.068c0.095-0.068,0.201-0.106,0.32-0.094C17.612,19.903,17.654,19.951,17.655,20.119z"/>
			<path fill-rule="evenodd" clip-rule="evenodd" fill="#F4F400" d="M17.309,19.271c0.011,0.02,0.02,0.044,0.037,0.062
				c0.284,0.287,0.569,0.573,0.854,0.859c0.024,0.024,0.072,0.05,0.031,0.088c-0.035,0.03-0.056-0.019-0.076-0.039
				c-0.286-0.285-0.571-0.572-0.855-0.858c-0.021-0.021-0.058-0.039-0.039-0.08C17.265,19.294,17.279,19.291,17.309,19.271z"/>
			<path fill-rule="evenodd" clip-rule="evenodd" fill="#FAFA00" d="M18.143,20.303c-0.003,0.039-0.024,0.051-0.05,0.037
				c-0.021-0.01-0.038-0.03-0.055-0.047c-0.265-0.266-0.53-0.532-0.794-0.799c-0.022-0.022-0.078-0.045-0.043-0.085
				c0.045-0.051,0.07,0.013,0.094,0.037c0.266,0.265,0.531,0.531,0.795,0.798C18.11,20.263,18.127,20.285,18.143,20.303z"/>
			<path fill-rule="evenodd" clip-rule="evenodd" fill="#FAFA00" d="M17.509,20.15c-0.01,0.069-0.032,0.15-0.107,0.205
				c-0.009,0.007-0.222-0.203-0.223-0.219c-0.003-0.042,0.151-0.113,0.24-0.111C17.499,20.028,17.512,20.044,17.509,20.15z"/>
			<path fill-rule="evenodd" clip-rule="evenodd" fill="#F9F900" d="M18.217,20.128c-0.019,0.002-0.203-0.175-0.194-0.19
				c0.037-0.064,0.099-0.105,0.153-0.152c0.009-0.009,0.186,0.155,0.19,0.175C18.37,19.984,18.243,20.126,18.217,20.128z"/>
			<path fill-rule="evenodd" clip-rule="evenodd" fill="#FBFB00" d="M17.616,19.512c-0.026,0.002-0.216-0.179-0.207-0.189
				c0.05-0.053,0.103-0.104,0.158-0.152c0.012-0.011,0.192,0.166,0.185,0.184C17.723,19.422,17.66,19.463,17.616,19.512z"/>
			<path fill-rule="evenodd" clip-rule="evenodd" fill="#F7F700" d="M18.438,19.37c-0.091,0.134-0.091,0.135-0.197,0.028
				c-0.043-0.042-0.083-0.09-0.13-0.128c-0.06-0.048-0.061-0.089,0.001-0.133c0.019-0.013,0.029-0.047,0.057-0.035
				c0.042,0.017,0.005,0.043,0.004,0.067c-0.002,0.109,0.128,0.05,0.131,0.073c0.007,0.059-0.029,0.127,0.073,0.125
				C18.395,19.366,18.412,19.344,18.438,19.37z"/>
			<path fill-rule="evenodd" clip-rule="evenodd" fill="#F6F600" d="M17.778,19.111c0.045-0.011,0.063-0.008,0.037,0.05
				c-0.023,0.052,0.019,0.078,0.064,0.083c0.021,0.002,0.052-0.046,0.065,0.003c0.009,0.035-0.034,0.051-0.055,0.074
				c-0.018,0.019-0.037,0.05-0.069,0.018c-0.077-0.077-0.155-0.154-0.231-0.233c-0.021-0.022-0.007-0.046,0.013-0.063
				c0.027-0.022,0.043-0.067,0.083-0.064c0.032,0.002,0.018,0.03,0.013,0.055C17.684,19.098,17.709,19.122,17.778,19.111z"/>
			<path fill-rule="evenodd" clip-rule="evenodd" fill="#F7F700" d="M18.312,19.589c0.001,0.074-0.051,0.177,0.092,0.135
				c0.047-0.014,0.035,0.021,0.023,0.051c-0.022,0.057,0.019,0.079,0.063,0.086c0.021,0.004,0.051-0.045,0.066,0
				c0.012,0.036-0.032,0.051-0.053,0.075c-0.018,0.019-0.037,0.052-0.069,0.021c-0.078-0.076-0.171-0.145-0.228-0.235
				C18.163,19.651,18.252,19.626,18.312,19.589z"/>
			<path fill-rule="evenodd" clip-rule="evenodd" fill="#EE0000" d="M18.142,19.672c0.007,0.136-0.108,0.157-0.177,0.213
				C18.002,19.804,18.06,19.738,18.142,19.672z"/>
			<path fill-rule="evenodd" clip-rule="evenodd" fill="#DF0000" d="M17.647,19.562c0.029-0.067,0.089-0.109,0.136-0.162
				c0.016-0.018,0.037-0.014,0.054,0.001c0.025,0.021,0.003,0.036-0.01,0.047c-0.051,0.047-0.104,0.093-0.156,0.14
				C17.663,19.579,17.655,19.571,17.647,19.562z"/>
			<path fill-rule="evenodd" clip-rule="evenodd" fill="#FDFD00" d="M18.523,12.286c-0.143,0.108-0.22,0.216-0.239,0.356
				c-0.012,0.082-0.046,0.103-0.127,0.1c-0.18-0.007-0.18-0.001-0.163-0.175c0.027-0.281,0.027-0.281,0.313-0.281
				C18.367,12.286,18.428,12.286,18.523,12.286z"/>
			<path fill-rule="evenodd" clip-rule="evenodd" fill="#FDFD00" d="M18.731,12.287c0.168,0,0.298,0.001,0.427-0.001
				c0.045-0.001,0.064,0.013,0.068,0.061c0.009,0.109,0.022,0.218,0.038,0.327c0.007,0.047-0.004,0.07-0.055,0.066
				c-0.021-0.002-0.041-0.003-0.061,0c-0.123,0.02-0.189-0.015-0.202-0.155C18.937,12.47,18.858,12.379,18.731,12.287z"/>
			<path fill-rule="evenodd" clip-rule="evenodd" fill="#E9E900" d="M18.609,12.879c-0.204,0-0.408,0-0.612,0
				c-0.038,0-0.095,0.014-0.094-0.046c0.001-0.059,0.058-0.045,0.096-0.045c0.417-0.001,0.833-0.001,1.251,0
				c0.037,0,0.094-0.014,0.093,0.047c-0.001,0.062-0.059,0.044-0.096,0.044C19.035,12.88,18.822,12.879,18.609,12.879z"/>
			<path fill-rule="evenodd" clip-rule="evenodd" fill="#FEFE00" d="M18.485,11.777c0-0.032,0.004-0.065-0.001-0.097
				c-0.02-0.127,0.033-0.167,0.159-0.158c0.084,0.006,0.125,0.015,0.119,0.112c-0.006,0.093,0.003,0.187,0.015,0.28
				c0.01,0.079-0.02,0.095-0.094,0.095C18.472,12.01,18.472,12.013,18.485,11.777z"/>
			<path fill-rule="evenodd" clip-rule="evenodd" fill="#FAFA00" d="M18.929,12.679c-0.001,0.031,0.011,0.067-0.042,0.07
				c-0.042,0.002-0.054-0.017-0.06-0.056c-0.012-0.086-0.047-0.164-0.107-0.229c-0.062-0.068-0.119-0.072-0.185-0.004
				c-0.062,0.064-0.101,0.139-0.116,0.225c-0.007,0.041-0.013,0.072-0.065,0.065c-0.062-0.007-0.039-0.052-0.036-0.084
				c0.002-0.028,0.013-0.056,0.021-0.083c0.052-0.151,0.211-0.3,0.305-0.285C18.771,12.317,18.923,12.521,18.929,12.679z"/>
			<path fill-rule="evenodd" clip-rule="evenodd" fill="#EDED00" d="M18.618,12.124c-0.204,0-0.408,0.001-0.612-0.001
				c-0.029,0-0.076,0.015-0.072-0.038c0.003-0.034,0.04-0.033,0.069-0.033c0.412,0,0.825,0,1.237,0c0.033,0,0.073-0.003,0.071,0.042
				c-0.002,0.04-0.043,0.028-0.069,0.028C19.034,12.124,18.826,12.124,18.618,12.124z"/>
			<path fill-rule="evenodd" clip-rule="evenodd" fill="#F9F900" d="M18.622,12.17c0.195,0,0.391,0,0.586,0
				c0.03,0,0.074-0.009,0.072,0.04c-0.001,0.038-0.038,0.034-0.066,0.034c-0.392,0-0.782,0-1.173,0
				c-0.031,0-0.075,0.009-0.072-0.041c0.004-0.048,0.05-0.032,0.079-0.032C18.239,12.17,18.431,12.17,18.622,12.17z"/>
			<path fill-rule="evenodd" clip-rule="evenodd" fill="#FDFD00" d="M18.631,12.753c-0.048-0.049-0.157,0.065-0.166-0.07
				c-0.006-0.076,0.104-0.229,0.156-0.233c0.056-0.005,0.167,0.15,0.162,0.237C18.773,12.801,18.68,12.717,18.631,12.753z"/>
			<path fill-rule="evenodd" clip-rule="evenodd" fill="#F5F500" d="M18.196,12.011c-0.07-0.009-0.157,0.039-0.156-0.1
				c0.001-0.125,0.049-0.135,0.156-0.141c0.125-0.005,0.142,0.043,0.144,0.151C18.343,12.06,18.247,11.993,18.196,12.011z"/>
			<path fill-rule="evenodd" clip-rule="evenodd" fill="#EEEE00" d="M19.061,11.78c0.123-0.039,0.138,0.023,0.145,0.129
				c0.008,0.14-0.083,0.103-0.15,0.099c-0.055-0.004-0.15,0.051-0.146-0.079C18.913,11.824,18.919,11.735,19.061,11.78z"/>
			<path fill-rule="evenodd" clip-rule="evenodd" fill="#F1F100" d="M19.055,11.728c-0.045,0-0.09,0-0.135,0
				c-0.029,0-0.062-0.001-0.063-0.041c-0.001-0.04-0.001-0.082,0.009-0.12c0.004-0.015,0.035-0.01,0.047,0.012
				c0.056,0.098,0.08,0.056,0.134-0.011c0.029-0.037,0.062,0.125,0.145,0.051c0.018-0.015,0.002-0.072,0.044-0.052
				c0.042,0.02,0.018,0.072,0.02,0.111c0.002,0.036-0.021,0.05-0.055,0.049C19.153,11.728,19.104,11.728,19.055,11.728z"/>
			<path fill-rule="evenodd" clip-rule="evenodd" fill="#F7F700" d="M18.368,11.56c0.047,0.157,0.04,0.167-0.103,0.168
				c-0.057,0-0.115-0.006-0.171,0.001c-0.093,0.012-0.114-0.033-0.103-0.112c0.003-0.019-0.004-0.046,0.018-0.053
				c0.037-0.011,0.028,0.027,0.041,0.042c0.076,0.085,0.104-0.017,0.15-0.043c0.029,0.067,0.067,0.108,0.133,0.039
				C18.346,11.588,18.345,11.564,18.368,11.56z"/>
			<path fill-rule="evenodd" clip-rule="evenodd" fill="#EDED00" d="M18.622,11.466c-0.041,0-0.082,0.001-0.122,0
				c-0.074-0.002-0.118-0.077-0.081-0.139c0.021-0.038,0.043-0.024,0.061,0.006c0.037,0.063,0.073,0.062,0.112,0
				c0.023-0.036,0.045-0.042,0.066,0.005c0.026,0.06,0.069,0.044,0.104,0.013c0.016-0.014,0.018-0.054,0.047-0.039
				c0.041,0.021,0.015,0.065,0.021,0.099c0.005,0.035-0.013,0.054-0.048,0.055c-0.004,0-0.008,0-0.012,0
				C18.72,11.466,18.671,11.466,18.622,11.466C18.622,11.466,18.622,11.466,18.622,11.466z"/>
			<path fill-rule="evenodd" clip-rule="evenodd" fill="#CF0000" d="M18.437,11.733c0,0.079,0,0.144-0.001,0.208
				c0,0.027,0.005,0.067-0.034,0.065c-0.035-0.002-0.033-0.043-0.03-0.07C18.378,11.871,18.333,11.789,18.437,11.733z"/>
			<path fill-rule="evenodd" clip-rule="evenodd" fill="#FDFD00" d="M11.309,12.286c0.133,0,0.266,0.001,0.398,0
				c0.048-0.001,0.064,0.019,0.068,0.063c0.005,0.061,0.013,0.122,0.021,0.182c0.028,0.231,0.028,0.23-0.21,0.209
				c-0.044-0.004-0.062-0.014-0.067-0.062C11.5,12.526,11.426,12.403,11.309,12.286z"/>
			<path fill-rule="evenodd" clip-rule="evenodd" fill="#FDFD00" d="M11.059,12.286c-0.15,0.116-0.218,0.241-0.231,0.394
				c-0.004,0.047-0.028,0.057-0.071,0.061c-0.225,0.019-0.237,0.008-0.209-0.216c0.029-0.239,0.029-0.239,0.266-0.239
				C10.882,12.286,10.951,12.286,11.059,12.286z"/>
			<path fill-rule="evenodd" clip-rule="evenodd" fill="#E8E800" d="M11.169,12.879c-0.208,0-0.417,0-0.625,0
				c-0.038,0-0.095,0.013-0.094-0.046c0.001-0.057,0.057-0.046,0.096-0.046c0.417,0,0.833,0,1.25,0c0.037,0,0.094-0.015,0.093,0.047
				c0,0.063-0.058,0.044-0.094,0.044C11.586,12.88,11.378,12.879,11.169,12.879z"/>
			<path fill-rule="evenodd" clip-rule="evenodd" fill="#FBFB00" d="M11.03,11.77c0-0.029-0.001-0.057,0-0.085
				c0.008-0.183-0.021-0.15,0.168-0.161c0.086-0.004,0.112,0.023,0.11,0.107c-0.003,0.093,0.005,0.187,0.015,0.28
				c0.007,0.07-0.006,0.1-0.088,0.1C11.021,12.009,11.021,12.013,11.03,11.77z"/>
			<path fill-rule="evenodd" clip-rule="evenodd" fill="#FAFA00" d="M10.865,12.676c0.004-0.016,0.008-0.032,0.012-0.048
				c0.039-0.177,0.188-0.342,0.299-0.333c0.119,0.009,0.282,0.212,0.298,0.371c0.004,0.033,0.024,0.078-0.037,0.082
				c-0.05,0.004-0.061-0.025-0.064-0.068c-0.002-0.032-0.012-0.065-0.026-0.094c-0.04-0.081-0.088-0.181-0.183-0.176
				c-0.093,0.004-0.139,0.104-0.173,0.189c-0.012,0.03-0.019,0.063-0.023,0.095c-0.005,0.039-0.022,0.058-0.064,0.054
				C10.851,12.743,10.863,12.708,10.865,12.676z"/>
			<path fill-rule="evenodd" clip-rule="evenodd" fill="#ECEC00" d="M11.165,12.124c-0.2,0-0.399,0.001-0.599-0.001
				c-0.029,0-0.075,0.019-0.08-0.029c-0.004-0.046,0.039-0.041,0.071-0.041c0.412,0,0.823,0,1.235-0.001
				c0.029,0,0.065-0.002,0.068,0.034c0.003,0.054-0.045,0.036-0.072,0.037C11.581,12.125,11.373,12.124,11.165,12.124z"/>
			<path fill-rule="evenodd" clip-rule="evenodd" fill="#F9F900" d="M11.178,12.244c-0.195,0-0.391,0-0.587,0
				c-0.03,0-0.075,0.011-0.076-0.036c0-0.049,0.045-0.037,0.075-0.037c0.387-0.001,0.774,0,1.161,0c0.032,0,0.077-0.008,0.078,0.036
				c0,0.044-0.044,0.038-0.076,0.038C11.561,12.244,11.37,12.244,11.178,12.244z"/>
			<path fill-rule="evenodd" clip-rule="evenodd" fill="#FCFC00" d="M11.163,12.752c-0.049-0.033-0.141,0.046-0.153-0.061
				c-0.009-0.084,0.107-0.244,0.161-0.241c0.058,0.003,0.174,0.165,0.158,0.245C11.309,12.801,11.214,12.714,11.163,12.752z"/>
			<path fill-rule="evenodd" clip-rule="evenodd" fill="#F6F600" d="M10.739,12.012c-0.061-0.017-0.155,0.046-0.153-0.099
				c0.002-0.122,0.043-0.14,0.153-0.144c0.122-0.003,0.144,0.039,0.146,0.15C10.889,12.057,10.796,11.995,10.739,12.012z"/>
			<path fill-rule="evenodd" clip-rule="evenodd" fill="#ECEC00" d="M11.602,11.729c-0.033,0-0.066-0.004-0.098,0.001
				c-0.093,0.013-0.114-0.035-0.104-0.114c0.003-0.018-0.006-0.043,0.02-0.051c0.026-0.009,0.036,0.009,0.041,0.031
				c0.012,0.056,0.057,0.035,0.089,0.034c0.038-0.001,0.001-0.083,0.063-0.065c0.033,0.009,0.008,0.069,0.057,0.067
				c0.034-0.001,0.077,0.013,0.076-0.048c0-0.018,0.016-0.026,0.035-0.022c0.019,0.004,0.025,0.018,0.025,0.035
				c0.002,0.067,0.022,0.148-0.095,0.133C11.675,11.724,11.638,11.729,11.602,11.729z"/>
			<path fill-rule="evenodd" clip-rule="evenodd" fill="#FEFE00" d="M11.605,12.015c-0.062-0.021-0.152,0.04-0.149-0.091
				c0.003-0.113,0.028-0.154,0.155-0.154c0.131,0,0.134,0.057,0.138,0.156C11.754,12.07,11.645,11.979,11.605,12.015z"/>
			<path fill-rule="evenodd" clip-rule="evenodd" fill="#F7F700" d="M10.553,11.553c0.057,0.054,0.096,0.157,0.161,0.023
				c0.014-0.028,0.034-0.014,0.05,0.015c0.036,0.066,0.079,0.065,0.116,0c0.008-0.015,0.011-0.029,0.03-0.028
				c0.024,0.001,0.023,0.02,0.024,0.035c0.007,0.077,0.014,0.152-0.106,0.132c-0.047-0.008-0.097-0.001-0.146-0.001
				C10.521,11.728,10.521,11.728,10.553,11.553z"/>
			<path fill-rule="evenodd" clip-rule="evenodd" fill="#F5F500" d="M10.964,11.388c0.005-0.026-0.012-0.063,0.022-0.076
				c0.045-0.017,0.032,0.034,0.049,0.048c0.075,0.06,0.11-0.062,0.139-0.047c0.046,0.023,0.066,0.099,0.136,0.041
				c0.016-0.013,0.01-0.056,0.043-0.043c0.041,0.014,0.02,0.056,0.021,0.085c0.002,0.025,0.012,0.065-0.03,0.066
				c-0.113,0.003-0.227,0.004-0.341,0.001C10.958,11.462,10.966,11.419,10.964,11.388z"/>
			<path fill-rule="evenodd" clip-rule="evenodd" fill="#CF0000" d="M10.983,11.724c-0.004,0.112,0.018,0.202-0.038,0.283
				C10.931,11.918,10.867,11.825,10.983,11.724z"/>
			<path fill-rule="evenodd" clip-rule="evenodd" fill="#FDFD00" d="M12.272,19.816c0.096-0.09,0.192-0.178,0.285-0.271
				c0.037-0.038,0.061-0.037,0.101-0.004c0.1,0.083,0.204,0.161,0.307,0.243c-0.018,0.02-0.03,0.036-0.045,0.051
				c-0.05,0.049-0.091,0.118-0.151,0.14c-0.056,0.021-0.106-0.054-0.162-0.082c-0.103-0.05-0.21-0.051-0.32-0.045
				C12.283,19.837,12.278,19.827,12.272,19.816z"/>
			<path fill-rule="evenodd" clip-rule="evenodd" fill="#FDFD00" d="M12.109,19.998c-0.033,0.183,0.002,0.319,0.099,0.433
				c0.051,0.06,0.036,0.09-0.014,0.135c-0.049,0.042-0.088,0.095-0.135,0.148c-0.094-0.115-0.175-0.216-0.259-0.315
				c-0.028-0.033-0.034-0.056,0.001-0.089C11.899,20.215,11.991,20.118,12.109,19.998z"/>
			<path fill-rule="evenodd" clip-rule="evenodd" fill="#FCFC00" d="M11.897,19.851c-0.035-0.033-0.048-0.043-0.059-0.056
				c-0.083-0.089-0.165-0.18-0.25-0.268c-0.034-0.035-0.032-0.059,0.002-0.089c0.033-0.03,0.065-0.062,0.095-0.095
				c0.033-0.037,0.06-0.045,0.101-0.006c0.084,0.083,0.171,0.162,0.261,0.239c0.043,0.037,0.035,0.06,0,0.097
				C11.993,19.728,11.947,19.791,11.897,19.851z"/>
			<path fill-rule="evenodd" clip-rule="evenodd" fill="#FAFA00" d="M13.099,19.834c-0.021,0.025-0.039,0.047-0.059,0.067
				c-0.291,0.293-0.582,0.586-0.873,0.878c-0.027,0.027-0.057,0.082-0.098,0.044c-0.051-0.047,0.012-0.078,0.04-0.107
				c0.29-0.294,0.581-0.586,0.873-0.878c0.023-0.023,0.042-0.067,0.088-0.044C13.083,19.801,13.088,19.819,13.099,19.834z"/>
			<path fill-rule="evenodd" clip-rule="evenodd" fill="#F9F900" d="M12.374,19.989c-0.11-0.015-0.143,0.048-0.133,0.146
				c0.008,0.083,0.035,0.16,0.089,0.224c0.028,0.032,0.023,0.053-0.005,0.082c-0.041,0.041-0.055,0.002-0.075-0.02
				c-0.009-0.009-0.016-0.019-0.022-0.029c-0.105-0.149-0.123-0.376-0.037-0.458c0.089-0.085,0.365-0.054,0.493,0.058
				c0.02,0.017,0.057,0.03,0.022,0.064c-0.022,0.022-0.04,0.053-0.08,0.02C12.554,20.017,12.471,19.985,12.374,19.989z"/>
			<path fill-rule="evenodd" clip-rule="evenodd" fill="#F8F800" d="M11.585,20.292c-0.014-0.009-0.027-0.015-0.032-0.023
				c-0.014-0.028,0.009-0.043,0.026-0.061c0.094-0.096,0.188-0.193,0.283-0.289c0.195-0.197,0.392-0.394,0.589-0.589
				c0.021-0.021,0.04-0.066,0.077-0.034c0.041,0.036-0.007,0.057-0.026,0.076c-0.29,0.293-0.58,0.586-0.871,0.879
				C11.616,20.266,11.601,20.278,11.585,20.292z"/>
			<path fill-rule="evenodd" clip-rule="evenodd" fill="#F7F700" d="M12.6,19.418c0.003,0.033-0.021,0.047-0.037,0.064
				c-0.272,0.275-0.545,0.55-0.818,0.824c-0.021,0.021-0.046,0.061-0.081,0.029c-0.037-0.035,0.007-0.058,0.027-0.078
				c0.275-0.278,0.551-0.555,0.827-0.833c0.017-0.016,0.032-0.041,0.061-0.029C12.588,19.399,12.594,19.412,12.6,19.418z"/>
			<path fill-rule="evenodd" clip-rule="evenodd" fill="#FAFA00" d="M12.639,20.144c-0.07,0.063-0.137,0.122-0.205,0.181
				c-0.013,0.011-0.032,0.032-0.037,0.029c-0.083-0.047-0.1-0.131-0.114-0.214c-0.011-0.063,0-0.116,0.083-0.114
				C12.465,20.028,12.55,20.06,12.639,20.144z"/>
			<path fill-rule="evenodd" clip-rule="evenodd" fill="#F6F600" d="M11.583,20.135c-0.188-0.157-0.188-0.157,0.024-0.355
				C11.802,19.931,11.802,19.931,11.583,20.135z"/>
			<path fill-rule="evenodd" clip-rule="evenodd" fill="#F7F700" d="M12.213,19.159c0.018,0.013,0.029,0.019,0.038,0.027
				c0.149,0.131,0.141,0.208-0.034,0.316c-0.009,0.005-0.025,0.016-0.028,0.013c-0.05-0.047-0.105-0.092-0.144-0.148
				c-0.025-0.038,0.032-0.058,0.053-0.083C12.134,19.24,12.175,19.2,12.213,19.159z"/>
			<path fill-rule="evenodd" clip-rule="evenodd" fill="#F3F300" d="M11.424,19.375c0.042-0.013,0.08-0.026,0.068-0.09
				c-0.009-0.049-0.005-0.052,0.047-0.042c0.057,0.011,0.078-0.031,0.085-0.069c0.003-0.022-0.051-0.058,0.002-0.073
				c0.035-0.011,0.054,0.039,0.08,0.061c0.021,0.019,0.043,0.04,0.013,0.07c-0.078,0.077-0.154,0.156-0.232,0.232
				c-0.036,0.036-0.059,0.001-0.079-0.022c-0.019-0.023-0.064-0.034-0.049-0.074C11.371,19.337,11.396,19.347,11.424,19.375z"/>
			<path fill-rule="evenodd" clip-rule="evenodd" fill="#F7F700" d="M11.912,19.248c0.038-0.02,0.097-0.019,0.062-0.097
				c-0.02-0.045,0-0.061,0.043-0.039c0.072,0.037,0.081-0.022,0.089-0.065c0.003-0.019-0.042-0.049,0.002-0.066
				c0.037-0.015,0.05,0.032,0.073,0.05c0.024,0.02,0.056,0.044,0.021,0.08c-0.073,0.076-0.149,0.149-0.223,0.225
				c-0.028,0.029-0.05,0.013-0.069-0.011c-0.022-0.027-0.069-0.042-0.06-0.082C11.856,19.21,11.885,19.22,11.912,19.248z"/>
			<path fill-rule="evenodd" clip-rule="evenodd" fill="#F6F600" d="M11.483,19.644c-0.014-0.021-0.009-0.04,0.015-0.048
				c0.029-0.008,0.042,0.02,0.057,0.036c0.021,0.025,0.076,0.045,0.04,0.086c-0.072,0.083-0.152,0.159-0.231,0.235
				c-0.039,0.038-0.059-0.006-0.077-0.027c-0.02-0.021-0.066-0.035-0.046-0.075c0.017-0.032,0.04,0.006,0.059,0.007
				c0.118,0.006,0.038-0.131,0.074-0.132c0.065-0.001,0.121,0.024,0.118-0.073C11.491,19.65,11.485,19.647,11.483,19.644z"/>
			<path fill-rule="evenodd" clip-rule="evenodd" fill="#D70000" d="M12.159,19.559c-0.104,0.002-0.147-0.075-0.208-0.128
				c-0.004-0.003-0.002-0.023,0.003-0.028c0.016-0.015,0.038-0.022,0.055-0.005C12.06,19.45,12.109,19.505,12.159,19.559z"/>
			<path fill-rule="evenodd" clip-rule="evenodd" fill="#E70000" d="M11.656,19.658c0.067,0.076,0.128,0.144,0.198,0.223
				C11.735,19.867,11.65,19.77,11.656,19.658z"/>
			<path fill-rule="evenodd" clip-rule="evenodd" fill="#FDFD00" d="M15.007,12.286c0.167,0,0.293,0.002,0.419-0.001
				c0.061-0.001,0.089,0.017,0.093,0.081c0.006,0.102,0.017,0.204,0.033,0.304c0.008,0.056-0.006,0.075-0.061,0.07
				c-0.032-0.003-0.065-0.005-0.098,0c-0.092,0.013-0.136-0.014-0.149-0.117C15.227,12.491,15.146,12.387,15.007,12.286z"/>
			<path fill-rule="evenodd" clip-rule="evenodd" fill="#FDFD00" d="M14.795,12.286c-0.149,0.116-0.219,0.244-0.232,0.399
				c-0.003,0.044-0.022,0.05-0.06,0.055c-0.234,0.026-0.241,0.019-0.215-0.216c0.026-0.238,0.026-0.238,0.264-0.238
				C14.62,12.286,14.688,12.286,14.795,12.286z"/>
			<path fill-rule="evenodd" clip-rule="evenodd" fill="#E8E800" d="M14.9,12.879c-0.209,0-0.417,0-0.625,0
				c-0.035,0-0.082,0.011-0.085-0.043c-0.002-0.054,0.044-0.049,0.08-0.049c0.425,0,0.85,0,1.274,0c0.036,0,0.084-0.005,0.084,0.045
				c0,0.062-0.054,0.047-0.092,0.047C15.325,12.879,15.112,12.879,14.9,12.879z"/>
			<path fill-rule="evenodd" clip-rule="evenodd" fill="#FCFC00" d="M15.053,11.778c0,0.008,0,0.016,0,0.024
				c0.004,0.216-0.027,0.242-0.246,0.207c-0.046-0.008-0.052-0.027-0.05-0.064c0.005-0.118,0.011-0.236,0.015-0.354
				c0.001-0.044,0.017-0.061,0.064-0.066C15.047,11.503,15.047,11.501,15.053,11.778z"/>
			<path fill-rule="evenodd" clip-rule="evenodd" fill="#F6F600" d="M14.607,12.657c0.004-0.019,0.009-0.046,0.018-0.074
				c0.047-0.155,0.202-0.303,0.298-0.287c0.127,0.021,0.301,0.257,0.298,0.403c0,0.027-0.003,0.048-0.037,0.05
				c-0.037,0.002-0.065-0.005-0.071-0.048c-0.012-0.091-0.049-0.17-0.114-0.238c-0.064-0.066-0.122-0.071-0.185-0.001
				c-0.057,0.063-0.096,0.132-0.105,0.216c-0.005,0.04-0.011,0.074-0.063,0.071C14.585,12.745,14.607,12.7,14.607,12.657z"/>
			<path fill-rule="evenodd" clip-rule="evenodd" fill="#ECEC00" d="M14.897,12.124c-0.204,0-0.408,0.001-0.611-0.001
				c-0.025,0-0.065,0.012-0.065-0.031c0-0.039,0.034-0.039,0.063-0.039c0.416,0,0.831,0,1.247,0c0.03,0,0.064,0,0.065,0.037
				c0.001,0.043-0.038,0.034-0.063,0.034C15.321,12.124,15.109,12.124,14.897,12.124z"/>
			<path fill-rule="evenodd" clip-rule="evenodd" fill="#F8F800" d="M14.897,12.244c-0.188,0-0.376,0.001-0.563,0
				c-0.033,0-0.086,0.016-0.083-0.041c0.002-0.044,0.05-0.032,0.08-0.032c0.384-0.001,0.768-0.001,1.151,0
				c0.031,0,0.085-0.021,0.082,0.04c-0.003,0.046-0.049,0.033-0.08,0.033C15.289,12.245,15.093,12.244,14.897,12.244z"/>
			<path fill-rule="evenodd" clip-rule="evenodd" fill="#FBFB00" d="M14.902,12.752c-0.047-0.038-0.14,0.053-0.154-0.057
				c-0.011-0.083,0.097-0.241,0.153-0.245c0.057-0.004,0.184,0.163,0.168,0.246C15.05,12.798,14.956,12.717,14.902,12.752z"/>
			<path fill-rule="evenodd" clip-rule="evenodd" fill="#EEEE00" d="M15.346,12.012c-0.072-0.008-0.153,0.035-0.152-0.097
				c0-0.121,0.037-0.143,0.15-0.146c0.128-0.004,0.146,0.047,0.147,0.154C15.495,12.066,15.393,11.989,15.346,12.012z"/>
			<path fill-rule="evenodd" clip-rule="evenodd" fill="#ECEC00" d="M14.468,11.729c-0.04,0-0.082,0.002-0.122,0
				c-0.063-0.004-0.107-0.1-0.068-0.151c0.021-0.029,0.043-0.017,0.052,0.01c0.008,0.025,0.019,0.056,0.045,0.043
				c0.067-0.034,0.129-0.061,0.195,0c0.005,0.004,0.036-0.005,0.041-0.015c0.011-0.022,0-0.068,0.044-0.051s0.02,0.064,0.023,0.097
				c0.003,0.034-0.005,0.067-0.05,0.067C14.574,11.729,14.521,11.728,14.468,11.729C14.468,11.729,14.468,11.729,14.468,11.729z"/>
			<path fill-rule="evenodd" clip-rule="evenodd" fill="#FDFD00" d="M14.472,12.011c-0.048-0.023-0.15,0.053-0.145-0.089
				c0.004-0.103,0.017-0.156,0.144-0.152c0.113,0.003,0.147,0.027,0.149,0.145C14.623,12.047,14.539,12.001,14.472,12.011z"/>
			<path fill-rule="evenodd" clip-rule="evenodd" fill="#F5F500" d="M15.337,11.728c-0.032,0-0.065-0.004-0.097,0.001
				c-0.112,0.017-0.101-0.059-0.097-0.128c0-0.016,0.003-0.033,0.023-0.037c0.02-0.004,0.024,0.01,0.033,0.025
				c0.031,0.063,0.076,0.067,0.109,0.008c0.028-0.049,0.04-0.063,0.063,0c0.023,0.061,0.068,0.038,0.104,0.018
				c0.02-0.011,0.006-0.07,0.047-0.051c0.044,0.021,0.016,0.071,0.021,0.108c0.004,0.033-0.011,0.055-0.048,0.056
				C15.442,11.728,15.391,11.728,15.337,11.728z"/>
			<path fill-rule="evenodd" clip-rule="evenodd" fill="#F2F200" d="M14.908,11.465c-0.037,0-0.074-0.004-0.109,0.001
				c-0.105,0.016-0.097-0.053-0.093-0.119c0.001-0.017,0.004-0.033,0.023-0.037c0.021-0.004,0.023,0.013,0.033,0.026
				c0.063,0.087,0.09,0.021,0.14-0.022c0.02-0.018,0.071,0.112,0.146,0.041c0.016-0.016,0.003-0.067,0.049-0.043
				c0.036,0.018,0.018,0.058,0.02,0.089c0.003,0.035-0.005,0.065-0.05,0.065C15.014,11.465,14.961,11.465,14.908,11.465z"/>
			<path fill-rule="evenodd" clip-rule="evenodd" fill="#FE0000" d="M14.732,11.534c-0.007,0.146-0.014,0.291-0.022,0.437
				c0,0.01-0.009,0.02-0.024,0.049c-0.036-0.093-0.057-0.189-0.008-0.247C14.748,11.691,14.693,11.608,14.732,11.534z"/>
			<path fill-rule="evenodd" clip-rule="evenodd" fill="#FE0000" d="M15.126,12.005c-0.03-0.081-0.031-0.162-0.008-0.245
				C15.179,11.837,15.152,11.921,15.126,12.005z"/>
			<path fill-rule="evenodd" clip-rule="evenodd" fill="#003399" d="M14.925,13.716c0.176,0,0.351,0.001,0.527-0.001
				c0.054,0,0.083,0.009,0.081,0.073c-0.008,0.302,0.016,0.605-0.013,0.906c-0.025,0.261-0.226,0.487-0.463,0.543
				c-0.348,0.082-0.697-0.163-0.741-0.531c-0.037-0.309-0.004-0.621-0.011-0.931c-0.001-0.064,0.038-0.06,0.08-0.06
				C14.566,13.716,14.746,13.716,14.925,13.716z"/>
			<path fill-rule="evenodd" clip-rule="evenodd" fill="#003398" d="M14.922,15.844c0.176,0,0.352,0.001,0.526,0
				c0.051,0,0.086,0.003,0.085,0.07c-0.008,0.305,0.021,0.613-0.015,0.917c-0.046,0.398-0.449,0.652-0.807,0.51
				c-0.229-0.092-0.368-0.271-0.396-0.517c-0.034-0.305-0.003-0.611-0.01-0.917c-0.001-0.072,0.045-0.063,0.089-0.063
				C14.571,15.844,14.747,15.844,14.922,15.844z"/>
			<path fill-rule="evenodd" clip-rule="evenodd" fill="#003398" d="M14.927,17.952c0.171,0,0.342,0,0.514-0.001
				c0.053,0,0.094,0,0.093,0.075c-0.005,0.294,0.007,0.588-0.012,0.88c-0.02,0.318-0.27,0.562-0.562,0.579
				c-0.315,0.018-0.602-0.211-0.642-0.533c-0.039-0.313-0.006-0.627-0.012-0.941c-0.001-0.064,0.04-0.06,0.081-0.059
				C14.567,17.952,14.747,17.952,14.927,17.952z"/>
			<path fill-rule="evenodd" clip-rule="evenodd" fill="#003398" d="M13.223,15.844c0.171,0,0.343,0.005,0.515-0.002
				c0.078-0.003,0.095,0.024,0.094,0.097c-0.005,0.266,0.001,0.531-0.003,0.796c-0.006,0.355-0.267,0.635-0.592,0.644
				c-0.328,0.007-0.611-0.253-0.629-0.606c-0.015-0.285-0.002-0.571-0.005-0.857c0-0.064,0.03-0.073,0.082-0.072
				C12.863,15.846,13.043,15.844,13.223,15.844z"/>
			<path fill-rule="evenodd" clip-rule="evenodd" fill="#003398" d="M16.622,15.844c0.171,0,0.343,0.002,0.514-0.001
				c0.063-0.001,0.096,0.009,0.095,0.085c-0.004,0.27,0.006,0.539-0.004,0.808c-0.018,0.456-0.417,0.755-0.81,0.607
				c-0.251-0.095-0.395-0.292-0.408-0.558c-0.016-0.289-0.003-0.58-0.006-0.869c-0.001-0.064,0.027-0.073,0.081-0.073
				C16.263,15.846,16.443,15.844,16.622,15.844z"/>
			<path fill-rule="evenodd" clip-rule="evenodd" fill="#242400" d="M11.132,15.511c0.002-0.035-0.009-0.083,0.037-0.088
				c0.044-0.004,0.04,0.043,0.037,0.073s0.025,0.08-0.033,0.084C11.123,15.584,11.135,15.541,11.132,15.511z"/>
			<path fill-rule="evenodd" clip-rule="evenodd" fill="#020200" d="M10.766,15.669c-0.003,0.023,0.008,0.055-0.025,0.059
				c-0.044,0.006-0.036-0.032-0.037-0.058c0-0.023-0.002-0.056,0.025-0.06C10.772,15.605,10.761,15.645,10.766,15.669z"/>
			<path fill-rule="evenodd" clip-rule="evenodd" fill="#1D1D00" d="M11.642,15.671c0,0.028,0.004,0.06-0.038,0.061
				c-0.045,0-0.033-0.035-0.034-0.061c-0.001-0.028-0.003-0.064,0.035-0.064C11.641,15.607,11.642,15.643,11.642,15.671z"/>
			<path fill-rule="evenodd" clip-rule="evenodd" fill="#0E0E00" d="M18.659,15.513c-0.005,0.027,0.016,0.073-0.041,0.067
				c-0.053-0.006-0.028-0.05-0.031-0.078c-0.004-0.031-0.007-0.079,0.035-0.078C18.673,15.425,18.655,15.478,18.659,15.513z"/>
			<path fill-rule="evenodd" clip-rule="evenodd" fill="#030300" d="M18.221,15.682c0,0.025-0.002,0.054-0.036,0.046
				c-0.038-0.008-0.025-0.044-0.025-0.069c0-0.023,0.004-0.055,0.036-0.047C18.23,15.619,18.218,15.656,18.221,15.682z"/>
			<path fill-rule="evenodd" clip-rule="evenodd" fill="#1E1E00" d="M19.052,15.606c0.043,0.005,0.044,0.034,0.045,0.062
				c0.001,0.027,0.006,0.058-0.034,0.064c-0.036,0.004-0.037-0.022-0.036-0.046C19.027,15.656,19.017,15.622,19.052,15.606z"/>
			<path fill-rule="evenodd" clip-rule="evenodd" fill="#0F0F00" d="M18.034,19.457c0.035,0.001,0.054,0.017,0.046,0.037
				c-0.019,0.045-0.055,0.079-0.099,0.099c-0.01,0.005-0.04-0.019-0.033-0.04C17.963,19.505,18.01,19.486,18.034,19.457z"/>
			<path fill-rule="evenodd" clip-rule="evenodd" fill="#1C1C00" d="M18.262,19.929c-0.016,0.039-0.044,0.068-0.081,0.083
				c-0.013,0.005-0.04-0.018-0.034-0.039c0.009-0.036,0.038-0.061,0.072-0.073C18.24,19.891,18.257,19.904,18.262,19.929z"/>
			<path fill-rule="evenodd" clip-rule="evenodd" fill="#1F1F00" d="M17.569,19.399c-0.018-0.013-0.043-0.024-0.035-0.045
				c0.015-0.037,0.041-0.069,0.085-0.071c0.016-0.002,0.033,0.012,0.028,0.03C17.635,19.353,17.6,19.375,17.569,19.399z"/>
			<path fill-rule="evenodd" clip-rule="evenodd" fill="#181800" d="M18.66,11.721c-0.007,0.028,0.016,0.074-0.035,0.075
				c-0.061,0.001-0.036-0.051-0.039-0.082c-0.003-0.031-0.009-0.077,0.034-0.078C18.675,11.636,18.654,11.688,18.66,11.721z"/>
			<path fill-rule="evenodd" clip-rule="evenodd" fill="#030300" d="M18.158,11.892c0.003-0.026-0.007-0.063,0.033-0.064
				c0.034-0.001,0.03,0.032,0.03,0.054c-0.001,0.025,0.014,0.063-0.032,0.064C18.153,11.947,18.161,11.915,18.158,11.892z"/>
			<path fill-rule="evenodd" clip-rule="evenodd" fill="#1B1B00" d="M19.096,11.891c0,0.028,0.002,0.061-0.04,0.057
				c-0.044-0.003-0.028-0.041-0.029-0.064c-0.001-0.026-0.008-0.064,0.035-0.06C19.097,11.829,19.097,11.863,19.096,11.891z"/>
			<path fill-rule="evenodd" clip-rule="evenodd" fill="#272700" d="M11.208,11.729c-0.006,0.028,0.01,0.076-0.043,0.066
				c-0.052-0.01-0.03-0.058-0.032-0.091c-0.001-0.031,0-0.076,0.045-0.067C11.226,11.647,11.201,11.697,11.208,11.729z"/>
			<path fill-rule="evenodd" clip-rule="evenodd" fill="#030300" d="M10.729,11.825c0.029-0.001,0.037,0.019,0.036,0.04
				c-0.002,0.029,0.019,0.069-0.025,0.082c-0.025,0.007-0.036-0.015-0.035-0.037C10.705,11.879,10.691,11.844,10.729,11.825z"/>
			<path fill-rule="evenodd" clip-rule="evenodd" fill="#202000" d="M11.642,11.892c0,0.028,0.004,0.059-0.039,0.058
				c-0.045-0.001-0.032-0.037-0.033-0.062c-0.001-0.027-0.007-0.065,0.031-0.067C11.647,11.82,11.641,11.861,11.642,11.892z"/>
			<path fill-rule="evenodd" clip-rule="evenodd" fill="#181800" d="M11.847,19.546c0,0.028-0.017,0.05-0.034,0.045
				c-0.046-0.014-0.078-0.051-0.097-0.095c-0.009-0.02,0.006-0.043,0.029-0.038C11.795,19.47,11.82,19.512,11.847,19.546z"/>
			<path fill-rule="evenodd" clip-rule="evenodd" fill="#111100" d="M11.612,20.011c-0.033-0.015-0.058-0.038-0.071-0.072
				c-0.008-0.021,0-0.042,0.026-0.039c0.038,0.004,0.062,0.035,0.076,0.067C11.654,19.99,11.632,20.001,11.612,20.011z"/>
			<path fill-rule="evenodd" clip-rule="evenodd" fill="#171700" d="M12.226,19.394c-0.033-0.013-0.057-0.038-0.071-0.071
				c-0.009-0.021-0.001-0.042,0.026-0.039c0.039,0.004,0.062,0.034,0.077,0.065C12.268,19.371,12.247,19.385,12.226,19.394z"/>
			<path fill-rule="evenodd" clip-rule="evenodd" fill="#2C2C00" d="M14.951,11.715c-0.005,0.033,0.012,0.084-0.045,0.081
				c-0.047-0.003-0.031-0.049-0.031-0.078c0-0.03-0.015-0.076,0.028-0.081C14.957,11.631,14.945,11.682,14.951,11.715z"/>
			<path fill-rule="evenodd" clip-rule="evenodd" fill="#262600" d="M15.376,11.892c-0.003,0.025,0.007,0.062-0.039,0.056
				c-0.041-0.005-0.031-0.039-0.03-0.065c0-0.028,0.003-0.062,0.041-0.058C15.386,11.829,15.371,11.867,15.376,11.892z"/>
			<path fill-rule="evenodd" clip-rule="evenodd" fill="#1E1E00" d="M14.438,11.88c0.002-0.028-0.002-0.065,0.04-0.058
				c0.042,0.009,0.03,0.049,0.032,0.08c0.001,0.026-0.005,0.049-0.037,0.048C14.419,11.948,14.445,11.904,14.438,11.88z"/>
			<path fill-rule="evenodd" clip-rule="evenodd" fill="#F8F9FB" d="M14.708,14.721c-0.012,0.07-0.05,0.118-0.12,0.119
				c-0.074,0-0.125-0.045-0.122-0.123c0.002-0.077,0.05-0.121,0.128-0.116C14.666,14.604,14.699,14.654,14.708,14.721z"/>
			<path fill-rule="evenodd" clip-rule="evenodd" fill="#F8F9FB" d="M15.263,14.841c-0.075-0.016-0.123-0.054-0.115-0.134
				c0.006-0.072,0.049-0.111,0.121-0.107c0.081,0.003,0.118,0.055,0.114,0.128C15.379,14.8,15.327,14.832,15.263,14.841z"/>
			<path fill-rule="evenodd" clip-rule="evenodd" fill="#F7F9FB" d="M14.708,14.049c-0.012,0.075-0.051,0.124-0.129,0.12
				c-0.069-0.004-0.115-0.045-0.114-0.118c0.002-0.079,0.048-0.12,0.125-0.118C14.664,13.934,14.697,13.981,14.708,14.049z"/>
			<path fill-rule="evenodd" clip-rule="evenodd" fill="#F7F8FB" d="M15.047,14.376c-0.011,0.072-0.049,0.125-0.127,0.121
				c-0.068-0.002-0.114-0.044-0.114-0.118c0-0.08,0.046-0.122,0.123-0.122C15.001,14.258,15.035,14.308,15.047,14.376z"/>
			<path fill-rule="evenodd" clip-rule="evenodd" fill="#F9FAFC" d="M15.386,14.05c-0.008,0.07-0.043,0.116-0.115,0.119
				c-0.074,0.001-0.123-0.039-0.123-0.118c0-0.072,0.04-0.114,0.111-0.118C15.339,13.929,15.375,13.977,15.386,14.05z"/>
			<path fill-rule="evenodd" clip-rule="evenodd" fill="#F6F7FB" d="M14.582,16.296c-0.069-0.007-0.114-0.043-0.117-0.115
				c-0.002-0.079,0.046-0.125,0.121-0.124c0.076,0,0.123,0.05,0.119,0.126C14.701,16.252,14.655,16.292,14.582,16.296z"/>
			<path fill-rule="evenodd" clip-rule="evenodd" fill="#F8F9FC" d="M14.928,16.625c-0.067-0.008-0.118-0.037-0.122-0.11
				c-0.004-0.078,0.034-0.125,0.113-0.128c0.08-0.003,0.124,0.046,0.124,0.12C15.044,16.574,14.999,16.615,14.928,16.625z"/>
			<path fill-rule="evenodd" clip-rule="evenodd" fill="#F8F9FC" d="M15.386,16.179c-0.012,0.073-0.048,0.12-0.129,0.116
				c-0.074-0.004-0.111-0.048-0.11-0.12c0.001-0.079,0.051-0.121,0.125-0.118C15.342,16.061,15.379,16.108,15.386,16.179z"/>
			<path fill-rule="evenodd" clip-rule="evenodd" fill="#F7F9FB" d="M14.708,16.84c-0.01,0.073-0.045,0.121-0.117,0.123
				c-0.076,0.002-0.125-0.038-0.127-0.117c0-0.071,0.041-0.114,0.113-0.118C14.658,16.723,14.694,16.772,14.708,16.84z"/>
			<path fill-rule="evenodd" clip-rule="evenodd" fill="#FCFCFD" d="M15.385,16.841c-0.007,0.067-0.036,0.116-0.11,0.12
				c-0.076,0.003-0.125-0.033-0.127-0.112c-0.003-0.071,0.035-0.115,0.106-0.121C15.333,16.722,15.373,16.766,15.385,16.841z"/>
			<path fill-rule="evenodd" clip-rule="evenodd" fill="#F7F8FB" d="M14.708,18.287c-0.015,0.072-0.052,0.121-0.132,0.115
				c-0.072-0.005-0.111-0.05-0.111-0.121c0.001-0.072,0.048-0.116,0.116-0.117C14.656,18.162,14.698,18.211,14.708,18.287z"/>
			<path fill-rule="evenodd" clip-rule="evenodd" fill="#F8F9FC" d="M15.269,18.404c-0.077-0.004-0.121-0.042-0.122-0.122
				c-0.001-0.074,0.045-0.115,0.113-0.118c0.075-0.003,0.124,0.043,0.123,0.12C15.383,18.354,15.343,18.397,15.269,18.404z"/>
			<path fill-rule="evenodd" clip-rule="evenodd" fill="#F9FAFC" d="M15.048,18.611c-0.017,0.078-0.057,0.125-0.135,0.116
				c-0.071-0.007-0.11-0.05-0.106-0.122c0.004-0.08,0.054-0.116,0.13-0.111C15.011,18.498,15.036,18.551,15.048,18.611z"/>
			<path fill-rule="evenodd" clip-rule="evenodd" fill="#F7F9FB" d="M14.584,18.833c0.075,0.006,0.12,0.047,0.121,0.115
				c0.001,0.076-0.043,0.123-0.123,0.121c-0.071-0.001-0.115-0.042-0.117-0.114C14.464,18.877,14.512,18.84,14.584,18.833z"/>
			<path fill-rule="evenodd" clip-rule="evenodd" fill="#FCFCFD" d="M15.384,18.952c-0.008,0.066-0.038,0.114-0.113,0.117
				c-0.078,0.002-0.123-0.038-0.124-0.116c-0.002-0.079,0.045-0.119,0.122-0.118C15.342,18.836,15.376,18.882,15.384,18.952z"/>
			<path fill-rule="evenodd" clip-rule="evenodd" fill="#F8FAFC" d="M13.004,16.176c-0.007,0.068-0.04,0.119-0.12,0.118
				c-0.073,0-0.114-0.042-0.117-0.113c-0.002-0.079,0.042-0.124,0.118-0.125C12.955,16.057,12.996,16.1,13.004,16.176z"/>
			<path fill-rule="evenodd" clip-rule="evenodd" fill="#F9FAFC" d="M13.683,16.838c-0.003,0.079-0.043,0.122-0.121,0.123
				c-0.074,0.001-0.115-0.045-0.118-0.113c-0.002-0.067,0.036-0.117,0.109-0.122C13.629,16.723,13.674,16.762,13.683,16.838z"/>
			<path fill-rule="evenodd" clip-rule="evenodd" fill="#FCFCFD" d="M13.683,16.174c-0.004,0.072-0.038,0.116-0.111,0.12
				c-0.081,0.004-0.124-0.042-0.126-0.116c-0.003-0.07,0.042-0.117,0.111-0.121C13.631,16.055,13.676,16.098,13.683,16.174z"/>
			<path fill-rule="evenodd" clip-rule="evenodd" fill="#FCFCFD" d="M13.342,16.499c-0.003,0.08-0.046,0.123-0.121,0.123
				c-0.07,0-0.114-0.044-0.115-0.115c-0.001-0.069,0.035-0.116,0.108-0.12C13.292,16.382,13.334,16.423,13.342,16.499z"/>
			<path fill-rule="evenodd" clip-rule="evenodd" fill="#FCFCFD" d="M12.888,16.964c-0.075-0.005-0.121-0.042-0.121-0.121
				c0.001-0.072,0.042-0.114,0.113-0.116c0.078-0.002,0.122,0.043,0.122,0.119C13.002,16.916,12.96,16.957,12.888,16.964z"/>
			<path fill-rule="evenodd" clip-rule="evenodd" fill="#F7F9FB" d="M16.617,16.385c0.078,0.003,0.121,0.045,0.124,0.113
				c0.003,0.076-0.045,0.125-0.12,0.125c-0.068,0-0.117-0.04-0.119-0.113C16.499,16.431,16.543,16.39,16.617,16.385z"/>
			<path fill-rule="evenodd" clip-rule="evenodd" fill="#F6F7FB" d="M17.084,16.178c-0.013,0.071-0.048,0.121-0.129,0.117
				c-0.073-0.004-0.112-0.046-0.112-0.117c0-0.08,0.05-0.122,0.125-0.121C17.037,16.059,17.075,16.107,17.084,16.178z"/>
			<path fill-rule="evenodd" clip-rule="evenodd" fill="#F7F8FB" d="M16.275,16.055c0.069,0.005,0.119,0.038,0.125,0.11
				c0.006,0.076-0.036,0.125-0.114,0.129c-0.078,0.004-0.124-0.042-0.125-0.119C16.159,16.105,16.207,16.067,16.275,16.055z"/>
			<path fill-rule="evenodd" clip-rule="evenodd" fill="#F9FAFC" d="M17.083,16.846c-0.014,0.074-0.052,0.122-0.131,0.116
				c-0.072-0.006-0.112-0.048-0.109-0.12c0.002-0.08,0.051-0.117,0.127-0.114C17.044,16.73,17.072,16.781,17.083,16.846z"/>
			<path fill-rule="evenodd" clip-rule="evenodd" fill="#F9FAFC" d="M16.402,16.839c-0.004,0.072-0.041,0.117-0.111,0.123
				c-0.077,0.006-0.126-0.037-0.13-0.113c-0.004-0.069,0.037-0.116,0.108-0.122C16.348,16.722,16.391,16.765,16.402,16.839z"/>
		</g>
	</g>
	<g>
		<defs>
			<circle id="SVGID_39_" cx="53.1" cy="16.595" r="15.917"/>
		</defs>
		<clipPath id="SVGID_6_">
			<use xlink:href="#SVGID_39_"  overflow="visible"/>
		</clipPath>
		<g clip-path="url(#SVGID_6_)">
			<rect x="20.782" y="-3.117" fill="#FFFFFF" width="64.635" height="40.396"/>
			<rect x="20.782" y="17.081" fill="#DC143C" width="64.635" height="20.198"/>
		</g>
	</g>
</g>
<g id="Imagenes">
</g>
<g id="Cintillos">
</g>
<g id="Botones">
</g>
<g id="TXT">
</g>
<g id="Logo">
</g>
<g id="Guia">
</g>
</svg>
