<?xml version="1.0" encoding="utf-8"?>
<!-- Generator: Adobe Illustrator 16.0.0, SVG Export Plug-In . SVG Version: 6.00 Build 0)  -->
<!DOCTYPE svg PUBLIC "-//W3C//DTD SVG 1.1//EN" "http://www.w3.org/Graphics/SVG/1.1/DTD/svg11.dtd">
<svg version="1.1" xmlns="http://www.w3.org/2000/svg" xmlns:xlink="http://www.w3.org/1999/xlink" x="0px" y="0px"
	 width="34.417px" height="34.25px" viewBox="0 0 34.417 34.25" enable-background="new 0 0 34.417 34.25" xml:space="preserve">
<g id="Soporte">
</g>
<g id="Publicidad">
</g>
<g id="Iconos">
	<g>
		<defs>
			<circle id="SVGID_33_" cx="-16.978" cy="16.595" r="15.917"/>
		</defs>
		<clipPath id="SVGID_2_">
			<use xlink:href="#SVGID_33_"  overflow="visible"/>
		</clipPath>
		<g clip-path="url(#SVGID_2_)">
			<path fill-rule="evenodd" clip-rule="evenodd" fill="#FDFDFD" d="M-20.197,0.118c2.146,0,4.292,0,6.438,0
				c0.036,0.039,0.038,0.087,0.039,0.136c0.002,0.061,0.001,0.121,0.001,0.181c0,4.103,0,8.205,0,12.307
				c0,0.25-0.017,0.237,0.237,0.237c6.817,0,13.634,0,20.451,0.001c0.086,0,0.179-0.022,0.257,0.039c0,2.154,0,4.308,0,6.462
				c-0.039,0.036-0.088,0.038-0.136,0.039c-0.061,0.002-0.121,0.001-0.182,0.001c-6.789,0-13.577,0-20.366,0
				c-0.287,0-0.261-0.022-0.261,0.261c0,4.118,0,8.237-0.001,12.355c0,0.083,0.02,0.171-0.039,0.245c-2.146,0-4.292,0-6.438,0
				c-0.032-0.035-0.037-0.079-0.039-0.124c-0.002-0.057-0.001-0.113-0.001-0.169c0-4.11,0-8.22,0-12.331
				c0-0.25,0.017-0.237-0.237-0.237c-6.816,0-13.633,0-20.45-0.001c-0.086,0-0.179,0.022-0.257-0.039c0-2.154,0-4.308,0-6.462
				c0.039-0.036,0.087-0.038,0.136-0.039c0.057-0.002,0.113-0.001,0.169-0.001c6.792,0,13.585,0,20.377,0
				c0.288,0,0.262,0.022,0.262-0.261c0-4.118,0-8.236,0.001-12.355C-20.236,0.281-20.256,0.192-20.197,0.118z"/>
			<path fill-rule="evenodd" clip-rule="evenodd" fill="#CD1126" d="M7.227,13.019c-0.044,0.001-0.089,0.003-0.133,0.003
				c-6.896,0-13.793,0-20.69,0.002c-0.121,0-0.16-0.023-0.159-0.154c0.004-4.198,0.003-8.397,0.003-12.595
				c0-0.052-0.004-0.104-0.006-0.157c6.959,0,13.917,0,20.876-0.002c0.091,0,0.111,0.021,0.111,0.111
				C7.226,4.491,7.227,8.755,7.227,13.019z"/>
			<path fill-rule="evenodd" clip-rule="evenodd" fill="#002D61" d="M-13.759,32.382c0.002-0.052,0.006-0.104,0.006-0.157
				c0-4.199,0.001-8.397-0.003-12.596c0-0.13,0.038-0.154,0.159-0.154c6.896,0.003,13.793,0.002,20.69,0.003
				c0.044,0,0.088,0.001,0.133,0.002c0,4.264,0,8.528,0.002,12.792c0,0.091-0.021,0.111-0.111,0.111
				C0.159,32.382-6.8,32.382-13.759,32.382z"/>
		</g>
	</g>
	<g>
		<defs>
			<circle id="SVGID_35_" cx="17.783" cy="16.595" r="15.917"/>
		</defs>
		<clipPath id="SVGID_4_">
			<use xlink:href="#SVGID_35_"  overflow="visible"/>
		</clipPath>
		<g clip-path="url(#SVGID_4_)">
			<path fill-rule="evenodd" clip-rule="evenodd" fill="#0050EF" d="M0.782,32.704c-0.007-0.005-0.025,0.012-0.024-0.012
				c0.001-0.033,0-0.065,0-0.097c0-10.695,0-21.39,0.002-32.084c0-0.035-0.028-0.082,0.022-0.109
				C0.801,0.442,0.844,0.45,0.877,0.469c3.566,2.06,7.132,4.118,10.699,6.176c0.136,0.078,0.266,0.167,0.412,0.227
				c0.032,0.022,0.063,0.048,0.098,0.067c3.202,1.849,6.403,3.696,9.605,5.544c0.488,0.282,0.979,0.56,1.469,0.84
				c0.03,0.02,0.06,0.042,0.09,0.06c1.787,1.032,3.574,2.062,5.36,3.093c0.039,0.023,0.076,0.048,0.122,0.076
				c-0.037,0.023-0.061,0.039-0.085,0.053c-1.208,0.697-2.415,1.393-3.622,2.091c-0.624,0.36-1.247,0.723-1.87,1.085
				c-0.036,0.018-0.073,0.035-0.107,0.055c-3.2,1.847-6.4,3.694-9.6,5.542c-0.492,0.284-0.982,0.571-1.472,0.857
				c-0.054,0.029-0.107,0.056-0.16,0.085c-3.618,2.089-7.237,4.177-10.854,6.267C0.899,32.623,0.828,32.644,0.782,32.704z
				 M15.172,14.913c-0.004-0.007-0.007-0.015-0.011-0.022c-0.044,0-0.089,0-0.133,0c-1.199,0-2.398-0.001-3.598,0.002
				c-0.098,0-0.146-0.021-0.18-0.123c-0.375-1.17-0.756-2.338-1.136-3.506c-0.008-0.024-0.002-0.059-0.041-0.062
				c-0.39,1.199-0.781,2.398-1.167,3.598c-0.026,0.081-0.066,0.093-0.139,0.092C7.553,14.89,6.338,14.89,5.122,14.89
				c-0.041,0-0.082,0-0.151,0c0.054,0.04,0.079,0.06,0.104,0.078c0.985,0.716,1.971,1.434,2.959,2.146
				c0.076,0.055,0.09,0.1,0.062,0.187c-0.298,0.903-0.591,1.807-0.886,2.711c-0.093,0.286-0.185,0.572-0.286,0.888
				c0.057-0.039,0.089-0.061,0.12-0.083c0.986-0.715,1.973-1.431,2.957-2.149c0.063-0.046,0.103-0.049,0.167-0.002
				c0.994,0.725,1.99,1.448,2.986,2.171c0.023,0.017,0.042,0.044,0.085,0.041c-0.008-0.025-0.014-0.044-0.02-0.062
				c-0.38-1.169-0.759-2.338-1.142-3.505c-0.029-0.088-0.023-0.139,0.06-0.198c0.878-0.631,1.751-1.269,2.626-1.905
				C14.9,15.109,15.036,15.011,15.172,14.913z"/>
			<path fill-rule="evenodd" clip-rule="evenodd" fill="#EC0000" d="M0.782,32.704c0.046-0.06,0.117-0.082,0.179-0.116
				c3.618-2.09,7.236-4.178,10.854-6.267c0.053-0.029,0.106-0.056,0.16-0.085c0.052,0.002,0.104,0.006,0.157,0.006
				c12.316,0,24.631,0,36.947,0c0.048,0,0.096-0.005,0.144-0.009c0,2.121,0,4.24,0.002,6.36c0,0.087-0.016,0.113-0.11,0.113
				C33.005,32.704,16.894,32.704,0.782,32.704z"/>
			<path fill-rule="evenodd" clip-rule="evenodd" fill="#EC0000" d="M11.988,6.872c-0.146-0.06-0.276-0.149-0.412-0.227
				C8.009,4.587,4.443,2.529,0.877,0.469C0.844,0.45,0.801,0.442,0.782,0.402c16.107,0,32.214,0,48.321-0.003
				c0.106,0,0.122,0.026,0.122,0.125c-0.003,2.116-0.002,4.232-0.002,6.348c-0.048-0.003-0.096-0.008-0.144-0.008
				c-12.312,0-24.623,0-36.935,0C12.093,6.864,12.041,6.869,11.988,6.872z"/>
			<path fill-rule="evenodd" clip-rule="evenodd" fill="#FEFEFE" d="M49.223,26.233c-0.048,0.003-0.096,0.009-0.144,0.009
				c-12.315,0-24.631,0-36.947,0c-0.052,0-0.104-0.004-0.157-0.006c0.49-0.286,0.98-0.573,1.472-0.857
				c3.2-1.848,6.4-3.695,9.6-5.542c0.035-0.02,0.071-0.037,0.107-0.055c0.056,0,0.113,0.002,0.169,0.002c8.581,0,17.161,0,25.742,0
				c0.052,0,0.105,0.001,0.157,0.003C49.223,21.937,49.223,24.085,49.223,26.233z"/>
			<path fill-rule="evenodd" clip-rule="evenodd" fill="#FEFEFE" d="M11.988,6.872c0.052-0.003,0.104-0.008,0.156-0.008
				c12.312,0,24.623,0,36.935,0c0.048,0,0.096,0.005,0.144,0.008c0,2.148,0,4.297,0,6.445c-0.048,0.001-0.097,0.003-0.145,0.003
				c-8.583,0-17.166,0-25.748,0c-0.057,0-0.113,0.001-0.17,0.003c-0.489-0.28-0.98-0.558-1.469-0.84
				c-3.202-1.848-6.404-3.696-9.605-5.544C12.052,6.92,12.021,6.895,11.988,6.872z"/>
			<path fill-rule="evenodd" clip-rule="evenodd" fill="#EC0000" d="M23.16,13.324c0.057-0.001,0.113-0.003,0.17-0.003
				c8.583,0,17.165,0,25.748,0c0.048,0,0.097-0.001,0.145-0.003c0,2.157,0,4.313,0,6.47c-0.052-0.001-0.105-0.003-0.157-0.003
				c-8.581,0-17.161,0-25.742,0c-0.056,0-0.113-0.002-0.169-0.002c0.623-0.362,1.246-0.725,1.87-1.085
				c1.207-0.698,2.414-1.394,3.622-2.091c0.024-0.014,0.048-0.03,0.085-0.053c-0.045-0.028-0.083-0.053-0.122-0.076
				c-1.787-1.031-3.573-2.061-5.36-3.093C23.22,13.366,23.19,13.344,23.16,13.324z"/>
			<path fill-rule="evenodd" clip-rule="evenodd" fill="#FEFEFE" d="M15.172,14.913c-0.136,0.099-0.271,0.197-0.407,0.295
				c-0.875,0.636-1.749,1.273-2.626,1.905c-0.083,0.06-0.089,0.11-0.06,0.198c0.383,1.167,0.762,2.336,1.142,3.505
				c0.006,0.018,0.012,0.036,0.02,0.062c-0.043,0.003-0.062-0.024-0.085-0.041c-0.996-0.723-1.992-1.446-2.986-2.171
				c-0.064-0.047-0.104-0.044-0.167,0.002c-0.984,0.718-1.971,1.434-2.957,2.149c-0.031,0.022-0.063,0.044-0.12,0.083
				c0.102-0.316,0.193-0.603,0.286-0.888c0.294-0.904,0.588-1.808,0.886-2.711c0.028-0.087,0.014-0.131-0.062-0.187
				c-0.988-0.712-1.974-1.43-2.959-2.146C5.05,14.95,5.024,14.93,4.971,14.89c0.069,0,0.11,0,0.151,0c1.216,0,2.431,0,3.646,0.001
				c0.073,0,0.112-0.012,0.139-0.092c0.386-1.2,0.777-2.398,1.167-3.598c0.039,0.003,0.033,0.037,0.041,0.062
				c0.379,1.168,0.761,2.336,1.136,3.506c0.033,0.103,0.082,0.124,0.18,0.123c1.199-0.003,2.398-0.002,3.598-0.002
				c0.044,0,0.089,0,0.133,0C15.165,14.897,15.168,14.905,15.172,14.913z"/>
		</g>
	</g>
	<g>
		<defs>
			<circle id="SVGID_37_" cx="54.475" cy="16.595" r="15.917"/>
		</defs>
		<clipPath id="SVGID_6_">
			<use xlink:href="#SVGID_37_"  overflow="visible"/>
		</clipPath>
		<g clip-path="url(#SVGID_6_)">
			<path fill-rule="evenodd" clip-rule="evenodd" fill="#006500" d="M51.909,24.69c-0.001,0.045-0.003,0.09-0.003,0.135
				c0,2.683,0,5.366,0,8.049c-6.503,0-13.006,0-19.509,0.003c-0.105,0-0.116-0.029-0.116-0.123c0.003-10.82,0.003-21.639,0-32.458
				c0-0.093,0.011-0.123,0.116-0.123c6.503,0.003,13.006,0.003,19.509,0.003c0,2.691,0,5.382,0,8.074
				c0,0.045,0.002,0.09,0.003,0.134c-0.079,0.077-0.156,0.042-0.229-0.008c-0.104-0.073-0.152-0.068-0.226,0.032
				c-0.038,0.052-0.092,0.064-0.15,0.067C50.627,8.511,49.97,8.65,49.33,8.867c-0.98,0.334-1.866,0.836-2.661,1.504
				c-0.487,0.41-0.911,0.876-1.295,1.38c-0.055,0.072-0.113,0.121-0.205,0.141c-0.126,0.027-0.255,0.188-0.241,0.317
				c0.015,0.129-0.031,0.232-0.092,0.334c-0.075,0.126-0.137,0.259-0.212,0.386c-0.044,0.074-0.095,0.136-0.163,0.193
				c-0.094,0.08-0.153,0.193-0.119,0.328c0.021,0.083,0.007,0.159-0.024,0.238c-0.239,0.616-0.383,1.255-0.469,1.909
				c-0.011,0.084-0.017,0.17-0.023,0.255c-0.009,0.101-0.029,0.188-0.094,0.271c-0.058,0.075-0.049,0.169-0.007,0.256
				c0.071,0.145,0.063,0.292,0.003,0.437c-0.044,0.105-0.054,0.204,0.036,0.292c0.064,0.063,0.068,0.147,0.076,0.227
				c0.088,0.945,0.348,1.842,0.76,2.695c0.036,0.075,0.066,0.145,0.041,0.234c-0.022,0.078,0.029,0.139,0.09,0.187
				c0.146,0.115,0.244,0.255,0.258,0.449c0.007,0.096,0.069,0.166,0.158,0.203c0.091,0.038,0.151,0.104,0.208,0.183
				c0.21,0.292,0.446,0.561,0.693,0.823c0.419,0.445,0.886,0.832,1.394,1.168c0.952,0.631,1.993,1.042,3.121,1.23
				c0.258,0.043,0.517,0.071,0.776,0.094c0.05,0.004,0.095,0.009,0.123,0.063c0.052,0.1,0.116,0.111,0.207,0.044
				C51.746,24.651,51.824,24.615,51.909,24.69z"/>
		</g>
	</g>
</g>
<g id="Imagenes">
</g>
<g id="Cintillos">
</g>
<g id="Botones">
</g>
<g id="TXT">
</g>
<g id="Logo">
</g>
<g id="Guia">
</g>
</svg>
