<?xml version="1.0" encoding="utf-8"?>
<!-- Generator: Adobe Illustrator 16.0.0, SVG Export Plug-In . SVG Version: 6.00 Build 0)  -->
<!DOCTYPE svg PUBLIC "-//W3C//DTD SVG 1.1//EN" "http://www.w3.org/Graphics/SVG/1.1/DTD/svg11.dtd">
<svg version="1.1" xmlns="http://www.w3.org/2000/svg" xmlns:xlink="http://www.w3.org/1999/xlink" x="0px" y="0px"
	 width="34.417px" height="34.25px" viewBox="0 0 34.417 34.25" enable-background="new 0 0 34.417 34.25" xml:space="preserve">
<g id="Soporte">
</g>
<g id="Publicidad">
</g>
<g id="Iconos">
	<g>
		<defs>
			<circle id="SVGID_31_" cx="-21.733" cy="17.028" r="15.917"/>
		</defs>
		<clipPath id="SVGID_2_">
			<use xlink:href="#SVGID_31_"  overflow="visible"/>
		</clipPath>
		<g clip-path="url(#SVGID_2_)">
			<rect x="-47.217" y="-0.575" fill="#FFFFFF" width="50.968" height="16.99"/>
			<rect x="-47.217" y="16.415" fill="#FF0000" width="50.968" height="16.989"/>
			<rect x="-47.217" y="10.751" fill="#0000FF" width="50.968" height="11.327"/>
		</g>
	</g>
	<g>
		<defs>
			<circle id="SVGID_33_" cx="17.022" cy="16.595" r="15.917"/>
		</defs>
		<clipPath id="SVGID_4_">
			<use xlink:href="#SVGID_33_"  overflow="visible"/>
		</clipPath>
		<g clip-path="url(#SVGID_4_)">
			<path fill-rule="evenodd" clip-rule="evenodd" fill="#FDFDFD" d="M13.803,0.118c2.146,0,4.292,0,6.438,0
				c0.036,0.039,0.038,0.087,0.039,0.136c0.002,0.061,0.001,0.121,0.001,0.181c0,4.103,0,8.205,0,12.307
				c0,0.25-0.017,0.237,0.237,0.237c6.817,0,13.634,0,20.451,0.001c0.086,0,0.179-0.022,0.257,0.039c0,2.154,0,4.308,0,6.462
				c-0.039,0.036-0.088,0.038-0.136,0.039c-0.061,0.002-0.121,0.001-0.182,0.001c-6.789,0-13.577,0-20.366,0
				c-0.287,0-0.261-0.022-0.261,0.261c0,4.118,0,8.237-0.001,12.355c0,0.083,0.02,0.171-0.039,0.245c-2.146,0-4.292,0-6.438,0
				c-0.032-0.035-0.037-0.079-0.039-0.124c-0.002-0.057-0.001-0.113-0.001-0.169c0-4.11,0-8.22,0-12.331
				c0-0.25,0.017-0.237-0.237-0.237c-6.816,0-13.633,0-20.45-0.001c-0.086,0-0.179,0.022-0.257-0.039c0-2.154,0-4.308,0-6.462
				c0.039-0.036,0.087-0.038,0.136-0.039c0.057-0.002,0.113-0.001,0.169-0.001c6.792,0,13.585,0,20.377,0
				c0.288,0,0.262,0.022,0.262-0.261c0-4.118,0-8.236,0.001-12.355C13.764,0.281,13.744,0.192,13.803,0.118z"/>
			<path fill-rule="evenodd" clip-rule="evenodd" fill="#002D61" d="M13.803,0.118c-0.002,0.052-0.005,0.104-0.005,0.157
				c0,4.198-0.001,8.397,0.003,12.596c0,0.13-0.038,0.154-0.159,0.154c-6.897-0.003-13.793-0.002-20.69-0.002
				c-0.045,0-0.089-0.002-0.133-0.003c0-4.264,0-8.528-0.002-12.792c0-0.091,0.021-0.111,0.111-0.111
				C-0.114,0.118,6.844,0.118,13.803,0.118z"/>
			<path fill-rule="evenodd" clip-rule="evenodd" fill="#CD1126" d="M41.227,13.019c-0.044,0.001-0.089,0.003-0.133,0.003
				c-6.896,0-13.793,0-20.69,0.002c-0.121,0-0.16-0.023-0.159-0.154c0.004-4.198,0.003-8.397,0.003-12.595
				c0-0.052-0.004-0.104-0.006-0.157c6.959,0,13.917,0,20.876-0.002c0.091,0,0.111,0.021,0.111,0.111
				C41.226,4.491,41.227,8.755,41.227,13.019z"/>
			<path fill-rule="evenodd" clip-rule="evenodd" fill="#CD1126" d="M-7.182,19.481c0.044-0.001,0.088-0.002,0.133-0.002
				c6.896,0,13.793,0,20.689-0.003c0.121,0,0.16,0.023,0.16,0.154c-0.004,4.198-0.003,8.396-0.003,12.595
				c0,0.052,0.003,0.104,0.005,0.157c-6.958,0-13.917,0-20.876,0.002c-0.091,0-0.111-0.021-0.111-0.111
				C-7.182,28.009-7.182,23.746-7.182,19.481z"/>
			<path fill-rule="evenodd" clip-rule="evenodd" fill="#002D61" d="M20.241,32.382c0.002-0.052,0.006-0.104,0.006-0.157
				c0-4.199,0.001-8.397-0.003-12.596c0-0.13,0.038-0.154,0.159-0.154c6.896,0.003,13.793,0.002,20.69,0.003
				c0.044,0,0.088,0.001,0.133,0.002c0,4.264,0,8.528,0.002,12.792c0,0.091-0.021,0.111-0.111,0.111
				C34.159,32.382,27.2,32.382,20.241,32.382z"/>
			<path fill-rule="evenodd" clip-rule="evenodd" fill="#037D2D" d="M14.654,17.039c0.056,0.021,0.112,0.041,0.168,0.061
				c-0.079-0.132-0.079-0.132-0.235-0.11c-0.104,0.015-0.27-0.086-0.315-0.188c-0.022-0.052,0.008-0.056,0.043-0.055
				c0.087,0.001,0.179-0.013,0.258,0.038c0.031,0.021,0.057,0.023,0.086-0.003c-0.063-0.065-0.125-0.107-0.229-0.098
				c-0.13,0.012-0.233-0.065-0.319-0.182c0.06,0.003,0.106,0.005,0.168,0.008c-0.064-0.091-0.113-0.176-0.145-0.281
				c0.226-0.002,0.374,0.154,0.556,0.236c0.013-0.051,0.002-0.1-0.017-0.147c-0.012-0.03-0.025-0.063-0.069-0.048
				c-0.159,0.054-0.254-0.052-0.358-0.137c0.025-0.055,0.08-0.031,0.125-0.058c-0.114-0.048-0.182-0.13-0.224-0.233
				c-0.01-0.026-0.023-0.059-0.002-0.08c0.024-0.024,0.044,0.028,0.083,0.012c-0.027-0.062-0.067-0.121-0.063-0.192
				c0.005-0.072,0.014-0.142,0.061-0.215c0.031,0.085,0.097,0.134,0.145,0.196c0.039,0.05,0.074-0.022,0.11,0.017
				c0.013,0.014,0.01-0.042,0.021-0.063c0.05-0.102-0.016-0.203,0.001-0.305c0.008-0.051,0.014-0.102,0.051-0.156
				c0.042,0.059,0.061,0.139,0.147,0.14c0.046,0.053,0.08,0.109,0.053,0.183c0.027-0.075,0.009-0.135-0.056-0.18
				c-0.007-0.009-0.014-0.018-0.021-0.026c0.025-0.027,0.057-0.033,0.091-0.024c0.016,0.016,0.031,0.033,0.047,0.049
				c-0.013-0.109-0.09-0.196-0.058-0.311c0.026-0.094,0.062-0.181,0.119-0.264c0.05,0.046,0.042,0.113,0.075,0.169
				c0.072-0.036,0.126-0.107,0.208-0.13c0.022-0.006,0.066-0.039,0.063,0.007c-0.007,0.117,0.074,0.058,0.12,0.068
				c-0.029,0.161-0.161,0.296-0.315,0.311c-0.102,0.01-0.152,0.054-0.149,0.158c0.078-0.018,0.151-0.042,0.208-0.108
				c0.041,0.068-0.019,0.125,0.004,0.185c0.057-0.044,0.094-0.11,0.159-0.143c0.07,0.125,0.086,0.126,0.215,0.017
				c0.066,0.048-0.091,0.186,0.086,0.191c-0.093,0.138-0.181,0.25-0.376,0.226c-0.123-0.016-0.154,0.114-0.201,0.206
				c0.069-0.047,0.132-0.102,0.219-0.11c0.084-0.008,0.155,0.079,0.248,0.013c-0.006,0.089-0.082,0.105-0.105,0.166
				c0.033,0.004,0.063,0.009,0.093,0.013c0.011,0.056-0.137,0.117-0.292,0.121c0.012,0.102,0.034,0.178,0.165,0.119
				c0.05-0.023,0.065,0.01,0.05,0.056c-0.017,0.049-0.036,0.097-0.054,0.146c0.049,0.022,0.096,0.01,0.152,0.001
				c-0.039,0.143-0.127,0.207-0.267,0.212c0.063,0.075,0.149,0.139,0.177,0.222c0.031,0.091-0.066,0.167-0.109,0.25
				c-0.013,0.02-0.037,0.026-0.053,0.044c0.021-0.012,0.038-0.028,0.059-0.037c0.05-0.005,0.078-0.073,0.138-0.051
				c-0.067,0.235-0.067,0.235,0.105,0.222c-0.025,0.096-0.044,0.192-0.161,0.213c-0.052,0.01-0.081,0.031-0.079,0.086
				c0.002,0.065,0.047,0.074,0.099,0.078c0.013-0.053-0.046-0.056-0.062-0.1c0.174-0.011,0.281,0.137,0.456,0.138
				c0.019-0.021-0.036-0.066-0.017-0.118c0.104,0.021,0.153,0.105,0.211,0.178c0.008-0.002,0.018-0.003,0.023-0.007
				c0.032-0.025,0.04-0.098,0.09-0.076c0.038,0.017,0.022,0.08,0.021,0.122c-0.004,0.067-0.016,0.135-0.025,0.202
				c-0.039,0.057-0.109,0.048-0.161,0.078c-0.062,0.032-0.129,0.032-0.196,0.035c-0.013,0-0.023-0.007-0.029-0.019
				c-0.017-0.083-0.041-0.129-0.11-0.028c-0.045,0.065-0.118,0.063-0.187,0.051c-0.074-0.013-0.15-0.024-0.213-0.063
				c-0.005-0.056,0.1-0.055,0.056-0.116c-0.035-0.049-0.059-0.108-0.156-0.083c-0.129,0.033-0.261-0.093-0.31-0.269
				c0.088,0.037,0.172,0.024,0.261-0.008c-0.196,0.031-0.28-0.154-0.428-0.226c0.021-0.025,0.063-0.061,0.031-0.115
				C14.61,17.082,14.621,17.055,14.654,17.039z"/>
			<path fill-rule="evenodd" clip-rule="evenodd" fill="#012D61" d="M19.681,14.205c-0.109-0.009-0.199-0.017-0.306-0.026
				c0.058,0.094,0.107,0.175,0.156,0.255c-0.256-0.188-0.57-0.208-0.854-0.311c-0.072-0.026-0.137-0.066-0.193-0.12
				c-0.033-0.031-0.053-0.067-0.031-0.107c0.043-0.081-0.01-0.089-0.066-0.111c-0.234-0.087-0.472-0.128-0.723-0.097
				c-0.096,0.012-0.193,0.018-0.289-0.002c-0.099-0.02-0.153-0.073-0.119-0.18c0.027-0.084,0.005-0.116-0.087-0.111
				c-0.132,0.007-0.266,0.005-0.399,0c-0.068-0.002-0.092,0.016-0.083,0.088c0.021,0.161-0.021,0.205-0.184,0.213
				c-0.181,0.008-0.361-0.036-0.543-0.009c-0.12,0.018-0.237,0.042-0.353,0.08c-0.077,0.025-0.159,0.035-0.104,0.153
				c0.021,0.045-0.028,0.08-0.062,0.108c-0.089,0.074-0.196,0.11-0.306,0.138c-0.245,0.062-0.492,0.117-0.712,0.267
				c0.048-0.08,0.096-0.16,0.152-0.253c-0.105,0.008-0.196,0.016-0.301,0.024c0.063-0.095,0.149-0.139,0.236-0.176
				c0.129-0.055,0.261-0.105,0.393-0.153c0.047-0.017,0.066-0.031,0.04-0.083c-0.045-0.089,0.006-0.142,0.077-0.188
				c0.329-0.217,0.693-0.317,1.083-0.325c0.078-0.002,0.111-0.015,0.121-0.102c0.011-0.109,0.103-0.149,0.201-0.156
				c0.358-0.026,0.717-0.039,1.075-0.001c0.152,0.016,0.191,0.05,0.219,0.212c0.011,0.064,0.054,0.05,0.089,0.052
				c0.218,0.014,0.432,0.05,0.644,0.1c0.175,0.041,0.331,0.123,0.479,0.221c0.074,0.049,0.123,0.108,0.071,0.2
				c-0.031,0.056,0.011,0.058,0.043,0.071c0.153,0.061,0.313,0.103,0.458,0.184C19.565,14.095,19.629,14.128,19.681,14.205z"/>
			<path fill-rule="evenodd" clip-rule="evenodd" fill="#CD1126" d="M15.68,17.978c0.06-0.052,0.147,0.006,0.207-0.05
				c0.381-0.08,0.766-0.111,1.155-0.106c0.395,0.004,0.784,0.047,1.171,0.111c0.027,0,0.052,0.005,0.076,0.018
				c0.08,0.048,0.171,0.071,0.257,0.106c0.039,0.015,0.078,0.028,0.111,0.054c0.218,0.167,0.22,0.175,0.078,0.408
				c-0.035,0.058-0.065,0.123-0.146,0.13c-0.012-0.002-0.023-0.007-0.033-0.015c-0.015-0.013-0.024-0.034-0.042-0.043
				c-0.208-0.111-0.415-0.222-0.652-0.258c-0.083-0.021-0.165-0.042-0.248-0.062c-0.157,0.015-0.314-0.004-0.468-0.024
				c-0.2-0.025-0.395,0.007-0.59,0.02c-0.114,0.007-0.234-0.008-0.346,0.03c-0.03,0.017-0.061,0.03-0.096,0.026
				c-0.088,0.018-0.177,0.033-0.254,0.083c0,0.015,0.001,0.03,0.001,0.045c0.006,0.022,0.021,0.057-0.005,0.063
				c-0.109,0.028-0.172,0.124-0.265,0.175c-0.048,0.026-0.097,0.033-0.148,0.028c-0.027-0.02-0.068-0.031-0.049-0.08
				c0.002-0.007,0.01-0.009,0.016-0.013c-0.124,0.039-0.126-0.089-0.187-0.137c-0.022-0.067-0.076-0.122-0.078-0.174
				c0.009,0.057,0.053,0.122,0.089,0.19c0.052,0.082,0.118,0.15,0.197,0.206c0.114,0.037,0.188-0.041,0.267-0.098
				c0.029-0.021,0.049-0.052,0.084-0.066c0.028-0.011,0.059-0.04,0.084-0.001c0.022,0.032,0.001,0.06-0.018,0.086
				c-0.035,0.047-0.091,0.064-0.133,0.101l0.001,0c-0.191,0.084-0.375,0.075-0.547-0.049c-0.054-0.044-0.104-0.091-0.133-0.157
				c-0.044-0.102-0.132-0.178-0.174-0.281c-0.016-0.039-0.041-0.003-0.058-0.014c-0.072-0.048-0.158-0.076-0.204-0.157
				c-0.008-0.01-0.013-0.023-0.007-0.033c0.021-0.038,0.062-0.069,0.04-0.104c-0.004,0.039-0.068,0.084-0.024,0.15
				c0.042,0.076,0.127,0.096,0.189,0.146c0.031,0.025,0.079,0.041,0.047,0.091c-0.033,0.054-0.081,0.028-0.115,0.002
				c-0.136-0.104-0.248-0.229-0.312-0.392c-0.052-0.132-0.105-0.264-0.198-0.391c0.073-0.014,0.115,0.01,0.157,0.03
				c0.058,0.027,0.074,0.005,0.063-0.051c-0.002-0.012-0.007-0.023-0.009-0.035c-0.005-0.03-0.029-0.067,0.01-0.086
				c0.031-0.015,0.047,0.022,0.066,0.04c0.012,0.01,0.019,0.026,0.036,0.031c0.096,0.078,0.153,0.185,0.215,0.289
				c0.099-0.04,0.195-0.014,0.268,0.078c0.032,0.04,0.059,0.084,0.083,0.129c0.046,0.053,0.083,0.114,0.118,0.174
				c0.025,0.044,0.043,0.006,0.065,0.006c0.042-0.06,0.117-0.06,0.172-0.098C15.536,18.027,15.61,18.01,15.68,17.978z"/>
			<path fill-rule="evenodd" clip-rule="evenodd" fill="#012D61" d="M15.695,14.641c-0.106-0.118-0.213-0.235-0.324-0.358
				c0.016-0.007,0.025-0.015,0.035-0.015c0.586,0,1.173,0.001,1.759,0.003c0.016,0,0.031,0.007,0.046,0.01
				c0.002,0.016-0.003,0.028-0.017,0.036c-0.101,0.039-0.206,0.016-0.309,0.021c-0.126,0.006-0.136,0.015-0.141,0.139
				c-0.009,0.244,0.013,0.489-0.011,0.732c-0.033,0.075-0.07,0.038-0.091-0.004c-0.12-0.231-0.28-0.44-0.38-0.683
				c-0.013-0.03-0.029-0.057-0.058-0.086c0.002,0.048,0.022,0.082,0.045,0.116c0.167,0.241,0.293,0.507,0.457,0.75
				c0.018,0.027,0.026,0.059,0.029,0.091c0.002,0.03,0,0.06-0.015,0.086c-0.07,0.037-0.091-0.027-0.12-0.063
				c-0.171-0.213-0.324-0.44-0.496-0.651c-0.063-0.077-0.114-0.163-0.18-0.238c0.103,0.138,0.215,0.27,0.312,0.413
				c0.069,0.102,0.177,0.177,0.205,0.307c0,0.018-0.006,0.034-0.017,0.048c-0.096-0.008-0.133-0.093-0.187-0.151
				c-0.135-0.146-0.289-0.273-0.405-0.437c0.027,0.086,0.097,0.131,0.158,0.187c0.146,0.132,0.267,0.289,0.413,0.42
				c0.029,0.026,0.04,0.059,0.044,0.096c0.003,0.133-0.008,0.269,0.071,0.389c0.012,0.019,0.013,0.045,0.001,0.068
				c-0.061,0.036-0.062-0.037-0.086-0.051c0.028,0.131,0.023,0.268,0.005,0.402c-0.012,0.082-0.069,0.046-0.105,0.014
				c-0.101-0.091-0.196-0.188-0.29-0.291c-0.019,0.053,0.013,0.12-0.045,0.16c-0.015,0-0.025-0.006-0.032-0.019
				c-0.038-0.105-0.016-0.214-0.02-0.322c-0.004-0.146-0.002-0.146-0.151-0.165c-0.024-0.003-0.047-0.008-0.068-0.021
				c-0.039-0.036-0.021-0.083-0.022-0.125C15.698,15.179,15.714,14.91,15.695,14.641z"/>
			<path fill-rule="evenodd" clip-rule="evenodd" fill="#002D61" d="M18.236,16.852c0.005,0.229-0.098,0.389-0.31,0.478
				c-0.207,0.063-0.419,0.023-0.629,0.034c-0.047,0.003-0.082-0.016-0.083-0.063c-0.003-0.143-0.031-0.286,0.018-0.426
				c0.046-0.038,0.086-0.008,0.119,0.018c0.262,0.204,0.551-0.042,0.558-0.309c0.004-0.145,0.001-0.289,0.001-0.433
				c-0.004-0.055,0.012-0.111-0.011-0.174c-0.065,0.023-0.099,0.08-0.144,0.121c-0.042,0.038-0.079,0.08-0.12,0.118
				c-0.026,0.024-0.056,0.059-0.092,0.046c-0.045-0.015-0.04-0.064-0.042-0.104c-0.005-0.096,0.007-0.192-0.014-0.287
				c-0.002-0.019-0.001-0.039,0.001-0.058c0.021-0.133,0.002-0.266,0.012-0.399c0.002-0.045,0.02-0.085,0.051-0.118
				c0.107-0.112,0.216-0.223,0.329-0.328c0.03-0.028,0.072-0.082,0.112-0.004c0.026,0.197,0.009,0.396,0.011,0.593
				c0.009,0.155-0.012,0.311,0.014,0.465c0.055,0.079,0.156,0.007,0.216,0.069C18.255,16.343,18.247,16.598,18.236,16.852z"/>
			<path fill-rule="evenodd" clip-rule="evenodd" fill="#028C46" d="M19.685,17.175c-0.072,0.018-0.144,0.036-0.216,0.054
				c-0.213,0.038-0.41,0.116-0.57,0.241c-0.003-0.001,0.009-0.014,0.024-0.017c0.033-0.007,0.071-0.009,0.082,0.027
				c0.009,0.032-0.029,0.043-0.055,0.054c-0.059,0.023-0.116,0.054-0.181,0.059c0.083-0.008,0.166-0.016,0.248-0.001
				c0.047,0.008,0.109,0.004,0.112,0.08c-0.047,0.039-0.109,0.019-0.16,0.039c-0.137,0.011-0.272-0.023-0.409-0.018
				c-0.028,0.001-0.059-0.009-0.068-0.041c-0.012-0.036,0.008-0.071,0.037-0.081c0.119-0.042,0.172-0.174,0.298-0.212
				c-0.038-0.008-0.076-0.019-0.085-0.057c-0.01-0.043,0.027-0.063,0.056-0.084c0.083-0.062,0.138-0.143,0.179-0.238
				c0.096-0.218,0.196-0.433,0.363-0.636c-0.008,0.017-0.01,0.02-0.019,0.028c-0.054,0.052-0.11,0.145-0.186,0.102
				c-0.081-0.046-0.017-0.136,0.005-0.208c0.048-0.163,0.118-0.317,0.185-0.472c-0.073,0.161-0.144,0.323-0.195,0.5
				c-0.074-0.092-0.042-0.266,0.101-0.583c-0.036,0.06-0.049,0.12-0.087,0.167c-0.021,0.024-0.044,0.058-0.079,0.042
				c-0.038-0.017-0.021-0.056-0.013-0.086c0.026-0.085,0.073-0.161,0.111-0.241c0.043-0.091,0.104-0.172,0.14-0.268
				c0.008-0.023,0.02-0.056,0.059-0.045c0.071,0.007,0.075-0.068,0.117-0.097c0.048-0.033,0.077-0.091,0.158-0.106
				c-0.122,0.188-0.289,0.333-0.342,0.58c0.104-0.163,0.185-0.305,0.324-0.417c0.002,0.059-0.036,0.083-0.054,0.118
				c-0.042,0.117-0.133,0.206-0.171,0.313c0.054-0.094,0.098-0.207,0.193-0.285c0.036-0.04,0.073-0.079,0.109-0.119
				c-0.081,0.2-0.231,0.357-0.273,0.58c0.144-0.148,0.257-0.322,0.499-0.389c-0.204,0.227-0.378,0.434-0.489,0.687
				c0.112-0.128,0.224-0.256,0.346-0.396c-0.006,0.151-0.092,0.247-0.164,0.351c0.104-0.058,0.187-0.15,0.3-0.193
				c-0.138,0.144-0.295,0.267-0.42,0.423c-0.092,0.104-0.17,0.22-0.239,0.342c0.08-0.063,0.173-0.108,0.238-0.189
				c0.028-0.036,0.066-0.06,0.116-0.039c0.089-0.034,0.159-0.105,0.26-0.12c-0.096,0.104-0.217,0.178-0.317,0.295
				c0.11-0.032,0.209-0.061,0.309-0.09c-0.092,0.079-0.206,0.119-0.294,0.201c0.14,0.044,0.209-0.079,0.306-0.134
				c0.04,0.065-0.141,0.129,0.02,0.187c-0.128-0.01-0.209,0.064-0.293,0.134c-0.008,0.003-0.017,0.011-0.015,0.016
				c0.042,0.096,0.043,0.108-0.063,0.124c-0.084,0.012-0.072,0.126-0.148,0.121c0.077-0.035,0.172-0.021,0.262-0.04
				C19.657,17.132,19.682,17.144,19.685,17.175z"/>
			<path fill-rule="evenodd" clip-rule="evenodd" fill="#016403" d="M19.361,15.281c-0.093,0.21-0.237,0.396-0.308,0.646
				c0.109-0.093,0.127-0.217,0.218-0.327c-0.04,0.243-0.146,0.439-0.161,0.66c0.069-0.179,0.128-0.361,0.23-0.526
				c-0.025,0.254-0.227,0.46-0.208,0.734c0.118-0.034,0.187-0.121,0.278-0.184c-0.111,0.112-0.173,0.253-0.249,0.385
				c-0.066,0.115-0.122,0.235-0.171,0.357c-0.034,0.084-0.095,0.146-0.159,0.207c-0.023,0.023-0.083,0.02-0.071,0.066
				c0.011,0.042,0.061,0.026,0.096,0.029c0.01,0.001,0.021,0.005,0.044,0.011c-0.039,0.026-0.066,0.051-0.098,0.064
				c-0.104,0.043-0.15,0.164-0.266,0.191c-0.018,0.004-0.033,0.026-0.028,0.048c0.006,0.025,0.03,0.024,0.05,0.022
				c0.133-0.012,0.263,0.018,0.396,0.021c0.046-0.015,0.075,0.001,0.088,0.048c-0.003,0.032-0.023,0.043-0.052,0.044
				c-0.024-0.002-0.047-0.011-0.07-0.019c-0.16-0.043-0.322-0.055-0.485-0.022c0.047,0.008,0.099-0.044,0.142,0.012
				c-0.024,0.059-0.074,0.066-0.128,0.069c-0.086,0.004-0.171,0.017-0.257,0.027c0.077-0.009,0.155-0.021,0.233-0.021
				c0.033,0,0.069,0.01,0.068,0.049c0,0.035-0.037,0.039-0.064,0.041c-0.111,0.012-0.224-0.005-0.335,0.013
				c-0.077,0-0.148-0.031-0.224-0.04c0-0.114,0.087-0.19,0.116-0.294c0.103,0.085,0.103,0.085,0.085,0.202
				c0.12-0.131,0.182-0.295,0.325-0.391c0.098-0.161,0.189-0.323,0.213-0.518c0.013-0.104-0.013-0.186-0.081-0.289
				c-0.008,0.085-0.015,0.149-0.021,0.212c-0.044-0.093-0.058-0.186-0.015-0.28c0.073-0.044,0.112,0.003,0.144,0.057
				c0.046,0.079,0.086,0.162,0.094,0.254c-0.013,0.009,0.007-0.005,0.004,0.01c-0.002,0.013,0.009,0.014,0.007,0.005
				c-0.013-0.052-0.023-0.106-0.035-0.159c-0.013-0.061-0.037-0.119-0.057-0.177c-0.015-0.04-0.022-0.081,0.045-0.072
				c0.078,0.045,0.1,0.127,0.131,0.204c0.057,0.157,0.033,0.316,0.019,0.475c0.028-0.311,0.02-0.617-0.104-0.912
				c-0.013-0.032-0.034-0.076,0.009-0.096c0.049-0.024,0.07,0.023,0.087,0.059c0.058,0.12,0.055,0.252,0.088,0.386
				c-0.013-0.075-0.03-0.142-0.035-0.209c-0.007-0.131-0.085-0.228-0.156-0.327l0.002-0.006l0.006-0.001
				c0.088-0.032,0.125,0.029,0.158,0.091c0.042,0.079,0.053,0.168,0.081,0.238c-0.008-0.013-0.012-0.04-0.017-0.066
				c-0.005-0.029-0.041-0.068,0-0.086c0.044-0.02,0.055,0.032,0.076,0.06c-0.09-0.14-0.122-0.305-0.201-0.449
				c-0.014-0.025-0.025-0.057,0.003-0.077c0.034-0.023,0.06,0.002,0.083,0.025c0.041,0.041,0.054,0.096,0.074,0.131
				c-0.006-0.192-0.12-0.343-0.252-0.488c-0.066-0.073-0.095-0.173-0.128-0.267c-0.009-0.018-0.018-0.036-0.027-0.055
				c-0.002-0.013,0.011-0.028,0.014-0.024c0.068,0.067,0.15-0.013,0.217,0.032c0.027-0.071-0.068-0.155,0.039-0.203
				c0.018,0.043,0.034,0.086,0.052,0.129c0.025,0.036,0.059,0.072,0.046,0.119c-0.035,0.133,0.003,0.254,0.053,0.374
				c0.014,0.034,0.013,0.068,0.01,0.085c-0.003,0.034,0.018,0.013,0.002,0.019c-0.003,0.001-0.003-0.002-0.003-0.01
				c-0.002-0.167,0.061-0.321,0.104-0.479c0.024-0.087,0.094-0.138,0.152-0.197c0.028-0.029,0.063-0.023,0.049,0.033
				c-0.036,0.1-0.072,0.199-0.108,0.299c0.02,0.165-0.087,0.284-0.139,0.406c0.074-0.118,0.123-0.269,0.218-0.393
				c0.03-0.04,0.032-0.039,0.08-0.016C19.371,15.259,19.366,15.27,19.361,15.281z"/>
			<path fill-rule="evenodd" clip-rule="evenodd" fill="#CD1126" d="M15.984,16.083c0.006,0.005,0.012,0.009,0.019,0.013
				c0.165,0.168,0.396,0.275,0.475,0.523c0.019,0.061,0.061,0.107,0.129,0.111c0.073,0.004,0.094-0.05,0.107-0.108
				c0.001-0.008,0.003-0.016,0.005-0.024c0.014-0.041,0.021-0.098,0.077-0.092c0.061,0.007,0.066,0.067,0.063,0.114
				c-0.006,0.091,0.002,0.187-0.067,0.262c-0.048,0.023-0.05,0.067-0.049,0.112c0,0.083,0.002,0.167-0.001,0.251
				c-0.002,0.043,0.002,0.09-0.045,0.117c-0.227-0.008-0.455,0.027-0.679-0.032c-0.084-0.033-0.165-0.071-0.207-0.16
				c-0.078-0.136-0.103-0.282-0.097-0.438c0.007-0.172,0.001-0.344,0.002-0.516c0-0.043-0.009-0.088,0.018-0.128
				C15.816,16.042,15.899,16.044,15.984,16.083z"/>
			<path fill-rule="evenodd" clip-rule="evenodd" fill="#CD1126" d="M17.969,15.562c-0.002-0.211-0.004-0.422-0.005-0.633
				c-0.003-0.1,0.124-0.107,0.139-0.197c-0.057,0.031-0.083,0.084-0.119,0.131c-0.031,0.039-0.047,0.12-0.13,0.08
				c-0.021-0.046-0.018-0.094-0.011-0.142c0.042-0.106,0.127-0.184,0.185-0.28c-0.226,0.348-0.499,0.661-0.742,0.997
				c-0.078-0.02-0.11-0.071-0.103-0.149c0.187-0.204,0.29-0.461,0.436-0.69c0.042-0.066,0.099-0.127,0.126-0.228
				c-0.145,0.27-0.294,0.512-0.439,0.757c-0.015,0.025-0.022,0.072-0.063,0.058c-0.033-0.011-0.033-0.053-0.033-0.085
				c-0.002-0.265-0.003-0.531,0-0.796c0.001-0.043,0.002-0.093,0.067-0.095c0.382,0.001,0.763-0.001,1.145,0.002
				c0.034,0,0.098-0.034,0.1,0.047c-0.036,0.037-0.072,0.073-0.107,0.11c-0.146,0.103-0.203,0.236-0.187,0.419
				c0.017,0.19,0.004,0.383,0.003,0.575c0,0.043,0.01,0.089-0.021,0.127C18.129,15.606,18.048,15.613,17.969,15.562z"/>
			<path fill-rule="evenodd" clip-rule="evenodd" fill="#CB1126" d="M19.031,18.381c-0.06,0.127-0.148,0.233-0.253,0.325
				c-0.15,0.09-0.308,0.113-0.474,0.05l0.001,0c-0.066-0.023-0.12-0.068-0.183-0.098l-0.009-0.002l-0.002-0.009
				c0-0.04-0.053-0.094,0.03-0.11c0.01-0.002,0.014-0.001,0.003-0.005c-0.06-0.026-0.039-0.065-0.008-0.093
				c0.034-0.031,0.077-0.014,0.112,0.005c0.11,0.061,0.249,0.071,0.324,0.191l-0.001-0.001c0.026,0.097-0.051,0.083-0.112,0.1
				c0.125-0.01,0.178-0.104,0.242-0.179c0.035-0.042,0.059-0.095,0.087-0.144c0.043-0.074,0.058-0.14-0.021-0.2
				c-0.046-0.034-0.033-0.075-0.007-0.117c0.048-0.078,0.108-0.149,0.146-0.234c0.004-0.011,0.01-0.021,0.016-0.031
				c0.018-0.024,0.038-0.047,0.069-0.052c0.169-0.059,0.172-0.059,0.267,0.055c-0.047-0.047-0.018-0.103,0.01-0.156
				c0.047-0.09,0.125-0.156,0.185-0.235c0.019-0.024,0.048-0.056,0.08-0.037c0.037,0.021,0.021,0.062,0.008,0.096l0.001-0.002
				c-0.022,0.065-0.034,0.12,0.065,0.071c0.028-0.014,0.059-0.027,0.089-0.03c0.056-0.004,0.057,0.027,0.035,0.067
				c-0.085,0.104-0.121,0.23-0.169,0.352c-0.025,0.062-0.055,0.124-0.105,0.171c-0.089,0.069-0.146,0.176-0.256,0.219l0.002-0.001
				c-0.031,0.014-0.064,0.024-0.083-0.013c-0.015-0.03,0.009-0.052,0.03-0.072c0.045-0.042,0.098-0.07,0.15-0.098
				C19.199,18.22,19.072,18.247,19.031,18.381z"/>
			<path fill-rule="evenodd" clip-rule="evenodd" fill="#228838" d="M18.619,15.129c0.113,0.164,0.227,0.327,0.339,0.492
				c0.068,0.1,0.059,0.217,0.075,0.348c-0.076-0.08-0.083-0.189-0.203-0.246c0.114,0.203,0.165,0.401,0.236,0.595
				c-0.03-0.039-0.059-0.077-0.105-0.138c0.02,0.092,0.034,0.156,0.048,0.221c-0.006,0.002-0.011,0.004-0.017,0.006
				c-0.036-0.088-0.07-0.176-0.106-0.264c-0.027-0.065-0.058-0.126-0.143-0.126c0.014-0.023,0.083-0.018,0.027-0.078
				c-0.087-0.095-0.188-0.174-0.285-0.266c0.073,0.036,0.146,0.071,0.219,0.107c0.004-0.005,0.008-0.01,0.013-0.015
				c-0.088-0.071-0.176-0.142-0.264-0.212c0.011-0.013,0.023-0.026,0.034-0.039c0.066,0.007,0.112,0.063,0.196,0.094
				c-0.07-0.088-0.126-0.157-0.182-0.227c0.111,0.04,0.166,0.142,0.26,0.2c-0.096-0.192-0.272-0.319-0.414-0.49
				c0.078,0.001,0.113,0.07,0.176,0.082c0-0.056-0.055-0.07-0.076-0.142c0.059,0.05,0.1,0.083,0.139,0.118
				C18.616,15.174,18.614,15.147,18.619,15.129z"/>
			<path fill-rule="evenodd" clip-rule="evenodd" fill="#A2161E" d="M17.462,18.539c-0.043-0.011-0.077,0.001-0.1,0.04
				c-0.092,0.09-0.171-0.007-0.256-0.017c-0.077-0.054-0.165,0.01-0.244-0.021c-0.068,0-0.111,0.059-0.176,0.073
				c-0.057,0.012-0.11,0.028-0.149-0.034c-0.008-0.012-0.016-0.024-0.024-0.037c-0.047-0.064-0.032-0.139-0.026-0.209
				c0.005-0.071,0.045-0.104,0.123-0.094c0.228,0.031,0.456,0.032,0.683-0.001c0.077-0.011,0.114,0.021,0.122,0.095
				c0.004,0.036-0.004,0.073,0.01,0.107C17.425,18.478,17.503,18.485,17.462,18.539z"/>
			<path fill-rule="evenodd" clip-rule="evenodd" fill="#118435" d="M18.861,14.879c-0.065,0.08,0.024,0.159,0.006,0.234
				c-0.055,0.034-0.145-0.098-0.17,0.043c-0.044-0.01-0.032-0.103-0.105-0.082c-0.064-0.11-0.205-0.15-0.259-0.282
				c0.075-0.005,0.116,0.066,0.186,0.066c-0.01-0.107-0.052-0.216,0.027-0.324c0.046,0.068,0.089,0.133,0.145,0.216
				c-0.006-0.126-0.083-0.202-0.103-0.295C18.698,14.495,18.804,14.657,18.861,14.879z"/>
			<path fill-rule="evenodd" clip-rule="evenodd" fill="#15873A" d="M19.326,14.952c-0.009-0.015-0.019-0.049-0.037-0.018
				c-0.058,0.098-0.143,0.175-0.169,0.3c-0.027,0.134-0.056,0.271-0.101,0.427c-0.015-0.072-0.022-0.118-0.042-0.163
				c-0.049-0.114-0.095-0.231-0.046-0.36c0.017-0.044-0.017-0.085-0.018-0.129c0.043,0.011,0.041-0.02,0.047-0.048
				c0.021-0.093,0.047-0.184,0.101-0.265c0.009,0.128-0.043,0.252-0.027,0.41c0.077-0.176,0.13-0.338,0.307-0.404
				c-0.016,0.045-0.034,0.094-0.054,0.15c0.045,0.015,0.056-0.046,0.102-0.03C19.376,14.869,19.358,14.913,19.326,14.952z"/>
			<path fill-rule="evenodd" clip-rule="evenodd" fill="#148434" d="M18.397,17.403c-0.116,0.146-0.201,0.32-0.359,0.429
				c0.017-0.109,0.017-0.109-0.036-0.216c-0.047,0.082-0.069,0.177-0.137,0.246c-0.009,0.006-0.017,0.005-0.024-0.003
				c0.047-0.139,0.143-0.256,0.188-0.399c0.004,0.026,0.008,0.052,0.013,0.085c0.051-0.044,0.043-0.112,0.081-0.156
				c0.03,0.026,0,0.061,0.018,0.093c0.033-0.01,0.014-0.061,0.056-0.064c0.02,0.032-0.02,0.067-0.002,0.119
				c0.041-0.071,0.079-0.131,0.111-0.194c0.036-0.072,0.067-0.146,0.097-0.22c0.028-0.07,0.05-0.142,0.084-0.21
				c0.021,0.137-0.035,0.26-0.071,0.386C18.407,17.331,18.364,17.36,18.397,17.403z"/>
			<path fill-rule="evenodd" clip-rule="evenodd" fill="#0E690B" d="M19.128,17.664c-0.136-0.086-0.291-0.024-0.458-0.057
				c0.118-0.044,0.216-0.081,0.319-0.119c-0.056-0.039-0.104,0.014-0.159,0.002c0.191-0.147,0.382-0.282,0.637-0.26
				c-0.063,0.068-0.167,0.055-0.24,0.116c0.099,0.029,0.193-0.065,0.286,0.006c-0.003,0.005-0.006,0.01-0.009,0.015
				c-0.098,0.07-0.22,0.071-0.327,0.116c-0.048,0.021-0.099,0.033-0.144,0.061c0.081,0.034,0.188,0.02,0.228,0.127
				c-0.001,0.013-0.007,0.024-0.018,0.032C19.194,17.722,19.152,17.72,19.128,17.664z"/>
			<path fill-rule="evenodd" clip-rule="evenodd" fill="#0A883F" d="M18.735,16.024c0.066,0.037,0.108,0.094,0.129,0.166
				c0.042,0.142,0.077,0.284,0.067,0.451c-0.067-0.18-0.021-0.378-0.172-0.514c0.143,0.334,0.155,0.678,0.089,1.028
				c-0.02-0.169,0.013-0.343-0.053-0.507c0-0.112-0.042-0.215-0.071-0.321c-0.002-0.01,0.006-0.037-0.018-0.029
				c-0.008,0.003-0.013,0.027-0.025,0.037c-0.022,0.028-0.048-0.034-0.07,0.003c-0.018,0.033-0.03,0.07-0.075,0.075
				c-0.028-0.014-0.027-0.035-0.014-0.059C18.542,16.212,18.63,16.113,18.735,16.024z"/>
			<path fill-rule="evenodd" clip-rule="evenodd" fill="#192C07" d="M17.405,18.459c-0.02-0.01-0.026-0.022-0.024-0.046
				c0.014-0.166-0.008-0.184-0.169-0.139c-0.077,0.021-0.151,0.079-0.229,0.001c-0.01-0.01-0.043-0.01-0.058,0
				c-0.106,0.068-0.207,0.012-0.308-0.015c-0.074-0.02-0.107,0.007-0.108,0.08c0,0.068,0.002,0.136,0.003,0.204
				c-0.007-0.002-0.014-0.003-0.022-0.003c-0.043-0.051-0.034-0.125-0.08-0.175c-0.04-0.101-0.127-0.063-0.2-0.068
				c0.292-0.087,0.592-0.098,0.893-0.086c0.171,0.006,0.346-0.001,0.511,0.06c-0.035,0.035-0.103,0.016-0.125,0.074
				C17.455,18.377,17.442,18.427,17.405,18.459z"/>
			<path fill-rule="evenodd" clip-rule="evenodd" fill="#67242C" d="M18.206,15.557c0.001-0.265,0.008-0.531,0-0.796
				c-0.005-0.163,0.087-0.244,0.209-0.313c-0.167,0.132-0.172,0.312-0.169,0.507c0.008,0.568,0.003,1.137,0.002,1.705
				c0,0.064,0.01,0.129-0.012,0.192c-0.001-0.213-0.002-0.426-0.004-0.64c-0.001-0.043,0.013-0.089-0.023-0.126
				c-0.012-0.01-0.021-0.023-0.025-0.037C18.175,15.884,18.14,15.718,18.206,15.557z"/>
			<path fill-rule="evenodd" clip-rule="evenodd" fill="#6B1F28" d="M15.741,16.089c0,0.265,0.003,0.53-0.003,0.794
				c-0.002,0.106,0.068,0.187,0.073,0.287c-0.093-0.091-0.117-0.21-0.117-0.331c-0.002-0.733,0.001-1.466,0.002-2.199
				c0.038,0.114,0.01,0.231,0.017,0.346c0.012,0.192-0.02,0.385,0.018,0.576c0.056,0.04,0.042,0.1,0.044,0.155
				C15.779,15.843,15.771,15.967,15.741,16.089z"/>
			<path fill-rule="evenodd" clip-rule="evenodd" fill="#3A1418" d="M14.603,18.077c0.063,0.042,0.125,0.085,0.189,0.126
				c0.071,0.045,0.019-0.031,0.051-0.046c0.058,0.126,0.148,0.235,0.194,0.369c-0.025-0.031-0.05-0.062-0.074-0.093
				c-0.036-0.047-0.05-0.116-0.143-0.071c-0.053,0.025-0.114-0.026-0.159-0.067c-0.122-0.109-0.222-0.235-0.275-0.39
				c-0.053-0.149-0.117-0.29-0.247-0.396c0.092-0.017,0.092-0.017,0.292,0.066c-0.019-0.094-0.037-0.183-0.059-0.292
				c0.08,0.062,0.127,0.124,0.171,0.188c-0.048,0.005-0.059-0.053-0.108-0.06c0.013,0.072,0.027,0.142,0.042,0.224
				c-0.083-0.02-0.14-0.089-0.233-0.082c0.093,0.114,0.137,0.246,0.189,0.375c0.06,0.15,0.165,0.266,0.286,0.369
				c0.028,0.024,0.073,0.064,0.105,0.022c0.04-0.052-0.03-0.061-0.055-0.083c-0.058-0.051-0.151-0.064-0.167-0.159L14.603,18.077z"
				/>
			<path fill-rule="evenodd" clip-rule="evenodd" fill="#126A08" d="M19.609,16.443c-0.123,0.052-0.192,0.172-0.306,0.237
				c-0.029,0.017-0.042,0.06-0.113,0.052c0.082-0.158,0.154-0.308,0.304-0.402c-0.005,0.025-0.039,0.042-0.023,0.083
				c0.143-0.086,0.268-0.197,0.438-0.277C19.813,16.263,19.682,16.326,19.609,16.443z"/>
			<path fill-rule="evenodd" clip-rule="evenodd" fill="#378023" d="M19.685,17.175c-0.096-0.047-0.187,0.013-0.281,0.018
				c-0.043,0.002-0.085,0.017-0.13,0.008c0.002-0.026,0.023-0.03,0.041-0.036c0.046-0.016,0.043-0.016,0.073-0.078
				c0.017-0.034,0.058-0.041,0.093-0.05c0.042-0.011,0.085-0.021,0.144-0.035c-0.04-0.01-0.065-0.016-0.092-0.023
				c0.008-0.039,0.033-0.055,0.066-0.063c0.098,0.024,0.202-0.021,0.304,0.025c-0.131,0.073-0.259,0.136-0.394,0.189
				c0.12-0.015,0.24-0.03,0.36-0.045C19.818,17.146,19.749,17.155,19.685,17.175z"/>
			<path fill-rule="evenodd" clip-rule="evenodd" fill="#3B1A1A" d="M17.841,17.858c0.008,0.001,0.017,0.002,0.024,0.003
				c0.071,0.033,0.147,0.044,0.224,0.048c0.047-0.003,0.093-0.007,0.138,0.012c0.01,0.008,0.014,0.019,0.013,0.032
				c-0.035,0.044-0.077,0.011-0.111,0.003c-0.476-0.112-0.959-0.136-1.446-0.118c-0.228,0.008-0.455,0.037-0.679,0.082
				c-0.04,0.008-0.078,0.019-0.118,0.007c0.052-0.032,0.113-0.035,0.171-0.049c0.553-0.095,1.108-0.104,1.664-0.027
				C17.761,17.857,17.801,17.856,17.841,17.858z"/>
			<path fill-rule="evenodd" clip-rule="evenodd" fill="#253558" d="M17.262,16.866c-0.043,0.145-0.014,0.293-0.017,0.44
				c0,0.059,0.057,0.045,0.094,0.045c0.196,0,0.393,0.009,0.587-0.022c-0.073,0.053-0.158,0.045-0.241,0.049
				c-0.195,0.01-0.392-0.028-0.585,0.027c-0.003-0.005-0.006-0.011-0.01-0.017c0.146-0.132,0.08-0.304,0.088-0.461
				c-0.025-0.102-0.061-0.203-0.033-0.31c0.024-0.051,0.056-0.096,0.09-0.139c0.032-0.011,0.052,0.012,0.073,0.027
				c0.089,0.064,0.086,0.107-0.011,0.163c-0.023,0.014-0.054,0.016-0.064,0.047C17.229,16.768,17.288,16.809,17.262,16.866z"/>
			<path fill-rule="evenodd" clip-rule="evenodd" fill="#208A3D" d="M19.376,15.248c-0.051-0.033-0.052,0.02-0.065,0.041
				c-0.086,0.149-0.171,0.299-0.266,0.444c0.043-0.167,0.135-0.315,0.172-0.483c0.009,0.017,0,0.078,0.041,0.019
				c0.069-0.1,0.148-0.19,0.235-0.275c0.026-0.026,0.048-0.065,0.105-0.058C19.523,15.044,19.45,15.146,19.376,15.248z"/>
			<path fill-rule="evenodd" clip-rule="evenodd" fill="#BC1729" d="M16.411,18.365c0.149,0.002,0.057,0.115,0.08,0.175
				c-0.073,0.042-0.152,0.063-0.25,0.077c0.043-0.085,0.066-0.159-0.085-0.188C16.266,18.401,16.338,18.383,16.411,18.365z"/>
			<path fill-rule="evenodd" clip-rule="evenodd" fill="#BC192B" d="M17.405,18.459c0.002-0.058-0.02-0.133,0.085-0.114
				c0.068,0.018,0.137,0.035,0.224,0.057c-0.096,0.045-0.15,0.097-0.028,0.198c-0.104-0.013-0.167-0.023-0.224-0.061
				C17.463,18.498,17.395,18.506,17.405,18.459z"/>
			<path fill-rule="evenodd" clip-rule="evenodd" fill="#89A04D" d="M18.521,16.355c0.006,0.018-0.002,0.044,0.027,0.049
				c0.009,0.003,0.016,0.026,0.018,0.017c0.009-0.035,0.038-0.065,0.027-0.105c0-0.024,0.008-0.044,0.034-0.062
				c0.03,0.014-0.004,0.07,0.042,0.074c0.022,0.041,0.026,0.084,0.022,0.13c-0.024,0.001-0.048-0.001-0.026,0.038
				c0.037,0.064,0.063,0.134,0.07,0.209c-0.028,0.052,0.033,0.114-0.02,0.164c-0.032-0.087-0.053-0.177-0.096-0.261
				c-0.029-0.056-0.062-0.09-0.127-0.08C18.489,16.468,18.484,16.408,18.521,16.355z"/>
			<path fill-rule="evenodd" clip-rule="evenodd" fill="#086206" d="M16.537,18.58c0.076,0.039,0.146,0.004,0.217-0.017
				c0.035-0.01,0.063-0.056,0.107-0.022c-0.135,0.093-0.281,0.165-0.432,0.229c-0.041-0.025-0.091-0.023-0.13-0.051
				C16.357,18.638,16.473,18.653,16.537,18.58z"/>
			<path fill-rule="evenodd" clip-rule="evenodd" fill="#30181B" d="M19.249,17.684c0.002-0.006,0.002-0.012,0.002-0.018
				c0.054-0.134,0.147-0.235,0.265-0.316l-0.001,0.001c0.028-0.019,0.041-0.059,0.086-0.064c-0.02,0.072-0.024,0.146-0.061,0.211
				c-0.002-0.027-0.003-0.055-0.006-0.104c-0.074,0.085-0.14,0.153-0.197,0.228c-0.063,0.083-0.129,0.171-0.017,0.279
				c-0.093-0.113-0.194-0.177-0.334-0.112c-0.006-0.006-0.009-0.012-0.007-0.018c0.001-0.006,0.003-0.009,0.005-0.009
				c0.02-0.001,0.039-0.005,0.05-0.024c0.03-0.034,0.07-0.03,0.109-0.027C19.182,17.715,19.221,17.722,19.249,17.684z"/>
			<path fill-rule="evenodd" clip-rule="evenodd" fill="#320D12" d="M18.572,18.635c-0.098-0.085-0.219-0.128-0.336-0.177
				c-0.036-0.014-0.078-0.041-0.104,0.013c-0.029,0.063,0.046,0.036,0.06,0.063c0.007,0.013,0.022,0.021,0.057,0.052
				c-0.088-0.028-0.164-0.057-0.138,0.061c-0.045-0.042-0.041-0.101-0.023-0.145c0.037-0.095-0.019-0.113-0.088-0.131
				c-0.046-0.012-0.092-0.025-0.138-0.039c0.043-0.03,0.084-0.003,0.125,0.007c0.166,0.043,0.325,0.105,0.479,0.179
				C18.516,18.543,18.571,18.565,18.572,18.635z"/>
			<path fill-rule="evenodd" clip-rule="evenodd" fill="#11620B" d="M17.105,18.562c0.086,0,0.168,0.052,0.256,0.017
				c0.044,0.058,0.117,0.062,0.175,0.094c0.051,0.028,0.084,0.053,0.028,0.105c-0.027-0.044-0.058-0.029-0.09-0.007
				C17.352,18.701,17.229,18.631,17.105,18.562z"/>
			<path fill-rule="evenodd" clip-rule="evenodd" fill="#520D15" d="M18.522,14.338c-0.021-0.04-0.058-0.037-0.094-0.037
				c-0.397,0.001-0.795,0.002-1.192,0.003c-0.006,0.001-0.011,0.002-0.017,0.003c-0.003-0.005-0.006-0.01-0.009-0.015
				c0.002-0.004,0.003-0.008,0.001-0.012c0.094-0.03,0.19-0.012,0.286-0.013c0.332-0.002,0.664-0.001,0.997,0
				c0.024,0,0.061-0.017,0.07,0.019C18.566,14.3,18.537,14.321,18.522,14.338z"/>
			<path fill-rule="evenodd" clip-rule="evenodd" fill="#39181C" d="M15.433,18.702c0.067,0.013,0.129-0.002,0.178-0.048
				c0.078-0.075,0.192-0.104,0.25-0.202c0.071,0.144,0.031,0.221-0.146,0.282c0.025-0.059,0.099-0.064,0.129-0.118
				c0.012-0.021,0.024-0.046,0.002-0.065c-0.018-0.015-0.039,0.001-0.054,0.012c-0.059,0.042-0.115,0.087-0.173,0.128
				c-0.062,0.043-0.127,0.067-0.201,0.025C15.415,18.703,15.42,18.698,15.433,18.702z"/>
			<path fill-rule="evenodd" clip-rule="evenodd" fill="#44171C" d="M19.031,18.381c0.009-0.086,0.061-0.152,0.102-0.225
				c0.036,0.024-0.007,0.044,0.008,0.076c0.039-0.024,0.077-0.047,0.115-0.072c0.035-0.023,0.069-0.048,0.121-0.084
				c-0.042,0.11-0.135,0.13-0.199,0.182c-0.02,0.017-0.053,0.032-0.039,0.066c0.011,0.027,0.04,0.02,0.063,0.02
				c-0.03,0.031-0.064,0.026-0.096,0.007C19.065,18.325,19.053,18.364,19.031,18.381z"/>
			<path fill-rule="evenodd" clip-rule="evenodd" fill="#292223" d="M16.018,17.331c0.228,0.028,0.457,0.022,0.686,0.016
				c0.059-0.034,0.11-0.021,0.152,0.03c0.006,0.013,0.003,0.025-0.006,0.035c-0.157-0.066-0.322-0.022-0.484-0.034
				C16.248,17.369,16.127,17.396,16.018,17.331z"/>
			<path fill-rule="evenodd" clip-rule="evenodd" fill="#30181B" d="M19.73,17.604c0.003-0.039-0.005-0.063-0.052-0.042
				c-0.057,0.025-0.114,0.049-0.182,0.079c0.011-0.055,0.004-0.106,0.044-0.145c0.01,0.029-0.028,0.106,0.061,0.053
				c0.065-0.038,0.137-0.069,0.221-0.052C19.808,17.548,19.761,17.568,19.73,17.604z"/>
			<path fill-rule="evenodd" clip-rule="evenodd" fill="#493235" d="M15.169,18.684c0.069-0.005,0.113,0.051,0.172,0.073
				c0.131,0.046,0.25-0.016,0.375-0.023C15.542,18.846,15.322,18.826,15.169,18.684z"/>
			<path fill-rule="evenodd" clip-rule="evenodd" fill="#AAB674" d="M19.586,15.386c-0.067,0.108-0.133,0.216-0.201,0.325
				c0.026-0.135,0.093-0.248,0.179-0.352C19.572,15.368,19.579,15.377,19.586,15.386z"/>
			<path fill-rule="evenodd" clip-rule="evenodd" fill="#452327" d="M15.108,17.981c-0.03-0.042-0.059-0.085-0.091-0.125
				c-0.067-0.081-0.15-0.126-0.259-0.096c0.053-0.075,0.118-0.049,0.178-0.016c0.081,0.044,0.141,0.113,0.178,0.199
				C15.121,17.958,15.12,17.97,15.108,17.981z"/>
			<path fill-rule="evenodd" clip-rule="evenodd" fill="#563C3F" d="M18.304,18.757c0.164,0.04,0.321,0.016,0.474-0.05
				C18.63,18.821,18.472,18.84,18.304,18.757z"/>
			<path fill-rule="evenodd" clip-rule="evenodd" fill="#3E191D" d="M15.108,17.981c0.002-0.013,0.003-0.025,0.005-0.038
				c0.072,0.057,0.08,0.171,0.179,0.205c-0.028,0.025-0.057,0.05-0.105,0.094C15.242,18.109,15.13,18.063,15.108,17.981z"/>
			<path fill-rule="evenodd" clip-rule="evenodd" fill="#595959" d="M17.1,17.405c-0.002,0.003-0.002,0.008-0.005,0.01
				c-0.124,0.115-0.124,0.115-0.246-0.004v-0.01l0.009-0.004c0.077,0.014,0.153,0.022,0.229-0.004
				C17.094,17.395,17.098,17.399,17.1,17.405z"/>
			<path fill-rule="evenodd" clip-rule="evenodd" fill="#44171C" d="M19.2,18.346c0.096-0.06,0.15-0.17,0.256-0.219
				C19.384,18.214,19.328,18.323,19.2,18.346z"/>
			<path fill-rule="evenodd" clip-rule="evenodd" fill="#AF2709" d="M14.654,17.039c0.006,0.035-0.018,0.055-0.038,0.078
				c-0.06,0.003-0.084-0.033-0.061-0.08C14.581,16.987,14.622,16.991,14.654,17.039z"/>
			<path fill-rule="evenodd" clip-rule="evenodd" fill="#A4C715" d="M16.299,18.719c0.064-0.037,0.104-0.011,0.131,0.05
				C16.375,18.78,16.308,18.825,16.299,18.719z"/>
			<path fill-rule="evenodd" clip-rule="evenodd" fill="#BA270D" d="M14.771,15.146c-0.024,0.029-0.053,0.044-0.091,0.024
				c-0.022-0.039-0.011-0.072,0.027-0.085C14.759,15.067,14.749,15.125,14.771,15.146z"/>
			<path fill-rule="evenodd" clip-rule="evenodd" fill="#192C07" d="M15.86,18.406c0.07-0.072,0.16-0.082,0.254-0.083
				C16.03,18.351,15.945,18.378,15.86,18.406z"/>
			<path fill-rule="evenodd" clip-rule="evenodd" fill="#B8D30C" d="M17.475,18.771c0-0.033,0-0.069,0.047-0.064
				c0.041,0.004,0.066,0.025,0.043,0.072C17.533,18.792,17.503,18.789,17.475,18.771z"/>
			<path fill-rule="evenodd" clip-rule="evenodd" fill="#3B1A1A" d="M15.68,17.978c-0.063,0.051-0.135,0.075-0.216,0.073
				c0.063-0.042,0.136-0.059,0.208-0.078L15.68,17.978z"/>
			<path fill-rule="evenodd" clip-rule="evenodd" fill="#563C3F" d="M18.122,18.659c0.073,0.01,0.128,0.054,0.183,0.098
				C18.229,18.752,18.17,18.716,18.122,18.659z"/>
			<path fill-rule="evenodd" clip-rule="evenodd" fill="#F8FAF8" d="M14.867,16.194c-0.093-0.02-0.034-0.079-0.018-0.106
				c0.033-0.056,0.063-0.111,0.084-0.172c0.01-0.029,0.001-0.072,0.041-0.082c0.044-0.01,0.058,0.033,0.08,0.061
				c0.017,0.021,0.033,0.044,0.048,0.065c-0.072,0.06-0.148,0.114-0.17,0.212C14.923,16.217,14.907,16.24,14.867,16.194z"/>
			<path fill-rule="evenodd" clip-rule="evenodd" fill="#E4EEE4" d="M15.037,16.984c-0.055,0.198-0.059,0.359,0.117,0.472
				c0.023,0.016,0.052,0.052,0.013,0.08c-0.034,0.024-0.062-0.004-0.078-0.033c-0.057-0.105-0.128-0.203-0.158-0.322
				C14.909,17.093,14.937,17.035,15.037,16.984z"/>
			<path fill-rule="evenodd" clip-rule="evenodd" fill="#EFF5EF" d="M14.612,16.078c-0.078-0.101,0.022-0.2-0.017-0.3
				C14.724,15.83,14.724,15.833,14.612,16.078z"/>
			<path fill-rule="evenodd" clip-rule="evenodd" fill="#9E6540" d="M14.867,16.194c0.032,0.025,0.053,0.013,0.065-0.022
				c0,0.021,0.001,0.043,0.001,0.064c-0.01,0.023,0.001,0.061-0.043,0.058c-0.082,0.017-0.024,0.099-0.063,0.135
				c-0.029,0.021-0.051,0.016-0.064-0.019C14.747,16.314,14.788,16.245,14.867,16.194z"/>
			<path fill-rule="evenodd" clip-rule="evenodd" fill="#E3EEE3" d="M14.763,16.411c0.016,0.026,0.038,0.029,0.064,0.019
				c0.05,0.002,0.044,0.031,0.031,0.064c-0.014,0.035-0.027,0.071-0.041,0.106l0.001,0c-0.013,0.007-0.031,0.024-0.039,0.021
				C14.737,16.598,14.727,16.459,14.763,16.411z"/>
			<path fill-rule="evenodd" clip-rule="evenodd" fill="#E5EFE5" d="M14.943,15.722c-0.016,0.124-0.124,0.122-0.179,0.176
				c-0.013,0.013-0.03-0.029-0.036-0.05c-0.006-0.026-0.008-0.063,0.032-0.062C14.824,15.788,14.88,15.764,14.943,15.722z"/>
			<path fill-rule="evenodd" clip-rule="evenodd" fill="#E8F0E8" d="M14.909,15.854c-0.012,0.079-0.034,0.137-0.074,0.189
				C14.759,15.946,14.764,15.931,14.909,15.854z"/>
			<path fill-rule="evenodd" clip-rule="evenodd" fill="#FDFDFD" d="M14.7,15.196c0.075-0.013,0.098,0.024,0.096,0.094
				c-0.002,0.052-0.038,0.096-0.038,0.151c0.006-0.09-0.036-0.167-0.055-0.249L14.7,15.196z"/>
			<path fill-rule="evenodd" clip-rule="evenodd" fill="#D0E2D0" d="M14.579,15.481c0.17,0.037,0.17,0.037,0.133,0.196
				C14.689,15.589,14.655,15.522,14.579,15.481z"/>
			<path fill-rule="evenodd" clip-rule="evenodd" fill="#C5DBC5" d="M15.047,15.358c0.021,0.085,0.026,0.169-0.024,0.245
				C15.017,15.52,15.013,15.436,15.047,15.358z"/>
			<path fill-rule="evenodd" clip-rule="evenodd" fill="#9EC49E" d="M14.818,16.869c0.039,0.064,0.124,0.115,0.066,0.233
				c-0.036-0.09-0.067-0.157-0.065-0.234L14.818,16.869z"/>
			<path fill-rule="evenodd" clip-rule="evenodd" fill="#DCE9DC" d="M14.89,16.294c0.014-0.02,0.029-0.039,0.043-0.058
				c0.025,0.073,0.001,0.147,0.006,0.22l0.002-0.002C14.88,16.416,14.892,16.353,14.89,16.294z"/>
			<path fill-rule="evenodd" clip-rule="evenodd" fill="#9EC49E" d="M14.794,16.867c0.001,0.031,0.003,0.062,0.005,0.104
				c-0.07-0.042-0.096-0.088-0.075-0.157c0.043-0.004,0.043,0.043,0.072,0.055L14.794,16.867z"/>
			<path fill-rule="evenodd" clip-rule="evenodd" fill="#D8E7D8" d="M14.846,16.601c0.05-0.061,0.076,0,0.084,0.027
				c0.01,0.038,0.069,0.053,0.046,0.099c-0.013,0.025-0.027,0.012-0.042-0.007C14.904,16.68,14.905,16.617,14.846,16.601
				L14.846,16.601z"/>
			<path fill-rule="evenodd" clip-rule="evenodd" fill="#9EC49E" d="M14.82,16.867c-0.008,0-0.017,0-0.025,0l0.002,0.001
				c-0.006-0.091-0.017-0.182,0.022-0.27l-0.001,0c0.01,0,0.019,0,0.028,0.001l0-0.001c-0.019,0.089-0.031,0.178-0.027,0.269
				L14.82,16.867z"/>
			<path fill-rule="evenodd" clip-rule="evenodd" fill="#CBDFCB" d="M14.96,15.466c-0.081,0.031-0.134,0.043-0.178,0.084
				C14.796,15.466,14.796,15.466,14.96,15.466z"/>
			<path fill-rule="evenodd" clip-rule="evenodd" fill="#FDFDFD" d="M15.258,16.991c-0.039,0.044-0.061,0.154-0.148,0.035
				c0.049-0.014,0.096-0.028,0.142-0.042L15.258,16.991z"/>
			<path fill-rule="evenodd" clip-rule="evenodd" fill="#BDD6BD" d="M14.939,16.457c0.047-0.009,0.093-0.017,0.125,0.04
				c-0.038-0.028-0.108,0.071-0.123-0.042L14.939,16.457z"/>
			<path fill-rule="evenodd" clip-rule="evenodd" fill="#B39E18" d="M18.001,13.48c0.032-0.037-0.035-0.12,0.06-0.119
				c0.125,0.001,0.054,0.107,0.073,0.162c0.019,0.055-0.035,0.055-0.078,0.057C17.96,13.584,18.024,13.513,18.001,13.48z"/>
			<path fill-rule="evenodd" clip-rule="evenodd" fill="#B49E18" d="M18.41,13.656c-0.04,0.018-0.026-0.082-0.081-0.022
				c-0.021,0.023-0.03-0.011-0.027-0.029c0.004-0.035,0.01-0.071,0.021-0.105c0.007-0.024-0.01-0.062,0.03-0.068
				c0.035-0.006,0.063,0.014,0.083,0.038c0.024,0.027,0.028,0.061-0.001,0.085C18.4,13.583,18.407,13.623,18.41,13.656z"/>
			<path fill-rule="evenodd" clip-rule="evenodd" fill="#CDAF0E" d="M17.16,13.293c-0.038-0.005-0.059-0.111-0.119-0.011
				c0-0.046,0.001-0.092,0-0.138c-0.002-0.053,0.02-0.075,0.072-0.062c0.049,0.012,0.093,0.04,0.055,0.089
				C17.134,13.216,17.164,13.254,17.16,13.293z"/>
			<path fill-rule="evenodd" clip-rule="evenodd" fill="#A6961E" d="M15.797,13.383c0.065,0.017,0.088,0.07,0.089,0.134
				c0,0.051-0.028,0.089-0.082,0.081c-0.068-0.01-0.084-0.067-0.088-0.126C15.712,13.421,15.734,13.387,15.797,13.383z"/>
			<path fill-rule="evenodd" clip-rule="evenodd" fill="#B09C19" d="M16.54,13.323c-0.004-0.052-0.005-0.105-0.013-0.157
				c-0.006-0.04,0.005-0.06,0.044-0.066c0.034-0.006,0.065,0,0.084,0.029c0.019,0.029,0.02,0.067-0.015,0.082
				c-0.053,0.021-0.063,0.064-0.057,0.12C16.568,13.328,16.554,13.326,16.54,13.323z"/>
			<path fill-rule="evenodd" clip-rule="evenodd" fill="#9C8F22" d="M16.762,13.071c0.02,0.06,0.036,0.096,0.042,0.134
				c0.006,0.03,0.033,0.058,0.015,0.092c-0.04,0.035-0.084-0.129-0.125,0.031C16.714,13.231,16.697,13.153,16.762,13.071z"/>
			<path fill-rule="evenodd" clip-rule="evenodd" fill="#9B8F22" d="M17.458,13.352c-0.071-0.083-0.071-0.083-0.126-0.049
				c-0.002-0.003-0.007-0.008-0.006-0.01c0.022-0.061,0.042-0.181,0.074-0.167C17.468,13.154,17.446,13.252,17.458,13.352z"/>
			<path fill-rule="evenodd" clip-rule="evenodd" fill="#AF9B1A" d="M16,13.384c-0.014,0-0.035-0.006-0.04,0
				c-0.026,0.032,0.01,0.036,0.026,0.046c0.056,0.036,0.105,0.072,0.03,0.136c-0.007,0.006-0.028,0.009-0.034,0.004
				c-0.029-0.028,0.017-0.016,0.02-0.031c0.008-0.047-0.031-0.049-0.055-0.066c-0.028-0.02-0.05-0.045-0.038-0.081
				C15.926,13.345,15.964,13.363,16,13.384z"/>
			<path fill-rule="evenodd" clip-rule="evenodd" fill="#AE9B1A" d="M18.18,13.634c-0.035-0.107-0.012-0.179,0.018-0.243
				c0.011-0.024,0.062,0.012,0.1,0.023C18.221,13.459,18.227,13.542,18.18,13.634z"/>
			<path fill-rule="evenodd" clip-rule="evenodd" fill="#8E8628" d="M16.922,13.292c-0.066-0.049,0.027-0.162-0.097-0.182
				c0.057-0.038,0.106-0.026,0.188-0.027C16.909,13.139,16.979,13.232,16.922,13.292z"/>
			<path fill-rule="evenodd" clip-rule="evenodd" fill="#AE9B1A" d="M18.691,13.793c-0.077-0.048-0.084-0.134-0.012-0.232
				c0.033,0.082,0.001,0.159,0.01,0.234L18.691,13.793z"/>
			<path fill-rule="evenodd" clip-rule="evenodd" fill="#B8A116" d="M15.569,13.647c-0.036,0.052-0.072,0.067-0.093-0.008
				c-0.014-0.05-0.052-0.097-0.037-0.166c0.083,0.038,0.03,0.167,0.132,0.176L15.569,13.647z"/>
			<path fill-rule="evenodd" clip-rule="evenodd" fill="#B8A116" d="M17.943,13.366c0.038,0.068,0.021,0.137,0.008,0.207
				C17.904,13.506,17.928,13.436,17.943,13.366z"/>
			<path fill-rule="evenodd" clip-rule="evenodd" fill="#A2931F" d="M17.259,13.096c0.041,0.07,0.006,0.139-0.006,0.208
				C17.212,13.236,17.232,13.166,17.259,13.096z"/>
			<path fill-rule="evenodd" clip-rule="evenodd" fill="#B39E18" d="M18.515,13.721c-0.017-0.015-0.028-0.021-0.028-0.024
				c0.012-0.067,0.009-0.139,0.06-0.194c0.003-0.003,0.031,0.009,0.031,0.009C18.558,13.58,18.537,13.647,18.515,13.721z"/>
			<path fill-rule="evenodd" clip-rule="evenodd" fill="#AA991C" d="M18.838,13.697c0.067,0.102,0.053,0.147-0.081,0.197
				c0.048-0.07,0.101-0.124,0.083-0.198L18.838,13.697z"/>
			<path fill-rule="evenodd" clip-rule="evenodd" fill="#C0A613" d="M15.697,13.62c-0.056-0.048-0.056-0.118-0.064-0.185
				C15.684,13.484,15.694,13.551,15.697,13.62z"/>
			<path fill-rule="evenodd" clip-rule="evenodd" fill="#C9AC0F" d="M18.689,13.795c0.044-0.026,0.055-0.076,0.08-0.114
				c0.039-0.058,0.053-0.02,0.068,0.016l0.001-0.001c-0.06,0.016-0.063,0.077-0.093,0.118c-0.044,0.061-0.041-0.004-0.055-0.02
				L18.689,13.795z"/>
			<path fill-rule="evenodd" clip-rule="evenodd" fill="#B8A116" d="M15.571,13.649c0.005-0.06-0.026-0.111-0.049-0.171
				c0.105,0.059,0.114,0.097,0.047,0.169L15.571,13.649z"/>
			<path fill-rule="evenodd" clip-rule="evenodd" fill="#D8B509" d="M17.796,13.378c0.059,0.053-0.023,0.157,0.08,0.194
				C17.707,13.566,17.833,13.438,17.796,13.378z"/>
			<path fill-rule="evenodd" clip-rule="evenodd" fill="#FBFBFA" d="M18.24,17.953c0-0.005-0.001-0.009-0.003-0.014
				c0.107-0.063,0.223-0.024,0.335-0.026c0.026,0,0.055,0.007,0.083,0.012c-0.033-0.01-0.071-0.014-0.087-0.068
				c0.109-0.04,0.221-0.051,0.335-0.043c0.012,0.004,0.022,0.012,0.03,0.023c-0.001,0.005-0.002,0.01-0.001,0.015
				c-0.048,0.083-0.11,0.158-0.158,0.242c-0.036,0.063-0.079,0.073-0.137,0.035c-0.023-0.027-0.058-0.028-0.089-0.038
				c-0.075-0.071-0.185-0.068-0.268-0.123C18.274,17.942,18.257,17.949,18.24,17.953z"/>
			<path fill-rule="evenodd" clip-rule="evenodd" fill="#330E12" d="M18.638,18.128c0.066,0.016,0.104-0.016,0.14-0.069
				c0.048-0.071,0.082-0.154,0.155-0.208c-0.017,0.099-0.093,0.165-0.143,0.245c-0.031,0.051-0.045,0.089,0.01,0.13
				c0.043,0.033,0.055,0.081,0.032,0.129c-0.063,0.13-0.128,0.259-0.248,0.348c-0.052,0.039-0.107,0.073-0.177,0.008
				c0.065-0.015,0.152,0.023,0.164-0.079c0.078-0.032,0.243-0.263,0.238-0.333c-0.003-0.045-0.04-0.066-0.069-0.092
				C18.707,18.18,18.672,18.155,18.638,18.128z"/>
			<path fill-rule="evenodd" clip-rule="evenodd" fill="#DF7E10" d="M18.066,18.053c0.046,0.067,0.004,0.135,0.053,0.196
				c0.017-0.059,0.031-0.106,0.053-0.185c0.035,0.097,0.116,0.148,0.054,0.258c-0.022-0.049-0.038-0.086-0.061-0.137
				c-0.011,0.093-0.028,0.172-0.113,0.057C18.03,18.21,18,18.259,17.977,18.228C18.004,18.174,18.032,18.12,18.066,18.053z"/>
			<path fill-rule="evenodd" clip-rule="evenodd" fill="#DE7811" d="M17.02,18.009c0.011-0.038-0.022-0.1,0.051-0.1
				c0.069,0,0.099,0.046,0.099,0.109c0,0.06-0.032,0.104-0.093,0.104C16.987,18.125,17.034,18.05,17.02,18.009z"/>
			<path fill-rule="evenodd" clip-rule="evenodd" fill="#E5A508" d="M16.285,18.094c-0.041,0.017,0.01,0.073-0.045,0.09
				c-0.035-0.033-0.013-0.086-0.032-0.127c-0.011-0.022-0.019-0.059,0.019-0.07c0.029-0.009,0.076-0.019,0.089,0.007
				c0.023,0.044,0.03,0.098,0.038,0.148c0.001,0.006-0.032,0.063-0.041-0.002C16.31,18.118,16.309,18.102,16.285,18.094z"/>
			<path fill-rule="evenodd" clip-rule="evenodd" fill="#DF810F" d="M17.663,18.075c-0.025,0.028,0.005,0.069-0.041,0.094
				c0.004-0.07,0.008-0.133,0.011-0.19c0.054-0.042,0.062,0.132,0.132-0.021c-0.011,0.094-0.018,0.15-0.025,0.211
				C17.682,18.158,17.691,18.105,17.663,18.075z"/>
			<path fill-rule="evenodd" clip-rule="evenodd" fill="#DE7811" d="M17.478,17.926c0.057,0.068,0.01,0.136,0.051,0.188
				c0.047-0.042-0.004-0.111,0.054-0.156c0.039,0.069,0.019,0.134-0.008,0.19c-0.014,0.03-0.057-0.005-0.087,0
				C17.479,18.081,17.436,18.014,17.478,17.926z"/>
			<path fill-rule="evenodd" clip-rule="evenodd" fill="#E0870E" d="M16.158,18.018c0.01,0.064,0.041,0.131-0.011,0.189
				c-0.018,0.02-0.049,0.019-0.065,0c-0.045-0.053-0.057-0.115-0.04-0.2c0.064,0.05,0.021,0.134,0.093,0.163
				C16.171,18.123,16.142,18.067,16.158,18.018z"/>
			<path fill-rule="evenodd" clip-rule="evenodd" fill="#E5A607" d="M15.545,18.15c0.067,0.024,0.032,0.078,0.074,0.085
				c0.02-0.005,0.022-0.02,0.022-0.036s-0.023-0.043,0.011-0.046c0.032-0.003,0.045,0.026,0.034,0.048
				c-0.02,0.042-0.01,0.075,0.047,0.128c-0.073-0.027-0.124-0.057-0.112,0.048C15.562,18.299,15.563,18.232,15.545,18.15z"/>
			<path fill-rule="evenodd" clip-rule="evenodd" fill="#DE7811" d="M17.348,18.129c0.004-0.035,0.008-0.07,0.014-0.105
				c0.005-0.032-0.016-0.084,0.037-0.086c0.055-0.002,0.032,0.063,0.056,0.094c0.021,0.026,0,0.069-0.025,0.098
				C17.402,18.087,17.376,18.066,17.348,18.129z"/>
			<path fill-rule="evenodd" clip-rule="evenodd" fill="#E18E0C" d="M15.825,18.092c-0.03,0.027-0.109,0.055,0.002,0.079
				c-0.052,0.031-0.008,0.094-0.036,0.123c-0.021,0.02-0.053-0.011-0.052-0.044c0.002-0.054-0.075-0.125,0.03-0.159
				C15.788,18.083,15.807,18.073,15.825,18.092z"/>
			<path fill-rule="evenodd" clip-rule="evenodd" fill="#E0860E" d="M16.824,17.911c0.045,0.028,0.047,0.065,0.056,0.1
				c0.021,0.08-0.015,0.121-0.089,0.104c-0.028-0.006-0.019-0.03-0.013-0.034C16.845,18.041,16.785,17.967,16.824,17.911z"/>
			<path fill-rule="evenodd" clip-rule="evenodd" fill="#DF7E10" d="M18.377,18.395c-0.105-0.112-0.105-0.112-0.009-0.223
				C18.395,18.248,18.377,18.313,18.377,18.395z"/>
			<path fill-rule="evenodd" clip-rule="evenodd" fill="#320409" d="M15.419,18.716c-0.086-0.045-0.15-0.113-0.189-0.203
				c-0.011-0.013-0.009-0.023,0.003-0.034c0.035,0.044,0.074,0.126,0.104,0.124c0.09-0.007,0.067,0.064,0.095,0.099
				C15.428,18.706,15.423,18.71,15.419,18.716z"/>
			<path fill-rule="evenodd" clip-rule="evenodd" fill="#37050A" d="M14.601,18.079c-0.062-0.112,0.029-0.166,0.097-0.263
				c-0.002,0.085-0.144,0.16,0.026,0.199c-0.064-0.007-0.12-0.016-0.122,0.062L14.601,18.079z"/>
			<path fill-rule="evenodd" clip-rule="evenodd" fill="#E3970A" d="M16.393,17.958c0.073,0.045-0.002,0.167,0.12,0.17
				C16.384,18.167,16.383,18.166,16.393,17.958z"/>
			<path fill-rule="evenodd" clip-rule="evenodd" fill="#E2900C" d="M17.292,18.105c-0.035,0.031-0.07,0.026-0.089-0.012
				c-0.026-0.05-0.029-0.104,0.017-0.152c0.053,0.044-0.034,0.137,0.065,0.157L17.292,18.105z"/>
			<path fill-rule="evenodd" clip-rule="evenodd" fill="#330E12" d="M18.281,17.967c0.091,0.037,0.203,0.029,0.268,0.123
				C18.461,18.047,18.354,18.044,18.281,17.967z"/>
			<path fill-rule="evenodd" clip-rule="evenodd" fill="#3E191D" d="M15.234,18.479c-0.001,0.011-0.002,0.022-0.003,0.034
				c-0.049-0.075-0.112-0.144-0.086-0.248C15.153,18.347,15.215,18.404,15.234,18.479z"/>
			<path fill-rule="evenodd" clip-rule="evenodd" fill="#E2900C" d="M17.285,18.099c0-0.05,0-0.101,0-0.151
				c0.064,0.055,0.072,0.107,0.008,0.158L17.285,18.099z"/>
			<path fill-rule="evenodd" clip-rule="evenodd" fill="#FCFCFC" d="M17.183,15.365c0.025,0.056,0.058,0.107,0.1,0.153
				c0.031,0.009,0.043,0.036,0.059,0.061c0.033,0.073,0.104,0.132,0.088,0.224c-0.054,0.108-0.185,0.121-0.255,0.208
				c-0.095,0.05-0.192,0.096-0.269,0.176c-0.045,0.047-0.098,0.07-0.155,0.008c-0.024-0.026-0.073-0.006-0.094-0.043
				c0.01-0.115-0.023-0.207-0.131-0.262c-0.003-0.004-0.007-0.009-0.01-0.014c0.013-0.026-0.001-0.044-0.015-0.064
				c-0.093-0.128-0.088-0.273-0.066-0.42c0.049,0.002,0.078,0.039,0.105,0.072c0.048,0.057,0.095,0.095,0.167,0.038
				c0-0.041,0.001-0.083,0.001-0.124c0.063,0,0.059,0.069,0.101,0.098c0.007,0.008,0.015-0.024,0.005-0.011
				c-0.002,0.004-0.006,0.003-0.009-0.001c-0.042-0.069-0.111-0.125-0.104-0.217c0-0.281,0.005-0.562-0.002-0.842
				c-0.002-0.094,0.027-0.114,0.114-0.11c0.132,0.006,0.265,0,0.396-0.002c0.007,0.005,0.014,0.01,0.021,0.016
				c-0.006,0.316-0.005,0.632,0,0.948C17.232,15.306,17.23,15.343,17.183,15.365z"/>
			<path fill-rule="evenodd" clip-rule="evenodd" fill="#FDFDFD" d="M16.733,16.662c0.003,0.066-0.041,0.09-0.095,0.102
				c-0.061,0.014-0.134-0.002-0.146-0.054c-0.067-0.284-0.347-0.394-0.489-0.615c0-0.067,0-0.134,0-0.228
				c0.144,0.137,0.27,0.257,0.411,0.391c0-0.167,0-0.317,0-0.469c0.07-0.001,0.049,0.083,0.102,0.086l-0.003-0.002
				c0.087,0.104,0.139,0.222,0.129,0.36c-0.006,0.082,0.025,0.122,0.11,0.109c0.082,0.045,0.031,0.1,0.007,0.15
				c-0.02,0.041-0.067,0.054-0.096,0.085C16.658,16.633,16.736,16.612,16.733,16.662z"/>
			<path fill-rule="evenodd" clip-rule="evenodd" fill="#C3A20B" d="M16.707,15.502c-0.054,0.074-0.105,0.084-0.164,0.001
				c-0.03-0.042-0.072-0.074-0.108-0.111c-0.191-0.251-0.457-0.438-0.664-0.708c0.134,0.011,0.165,0.098,0.222,0.164
				c0.132,0.151,0.278,0.291,0.417,0.436c0.027,0.007,0.048,0.024,0.074,0.064c-0.028-0.048-0.061-0.072-0.058-0.114
				c-0.167-0.271-0.402-0.493-0.559-0.771c0.066,0.025,0.133,0.04,0.145,0.129c0.006,0.046,0.053,0.087,0.085,0.128
				C16.301,14.981,16.504,15.242,16.707,15.502z"/>
			<path fill-rule="evenodd" clip-rule="evenodd" fill="#FEFDFD" d="M15.741,16.089c-0.03-0.175-0.007-0.351-0.01-0.526
				c0.25-0.014,0.25-0.014,0.252,0.229c0.001,0.097,0.001,0.193,0.001,0.291C15.903,16.085,15.822,16.087,15.741,16.089z"/>
			<path fill-rule="evenodd" clip-rule="evenodd" fill="#C1A411" d="M16.701,15.247c0.052,0.089,0.104,0.177,0.162,0.277
				c-0.092-0.026-0.112-0.097-0.155-0.146c-0.164-0.339-0.385-0.646-0.551-0.983c0.118,0.027,0.122,0.128,0.165,0.207
				C16.442,14.82,16.574,15.032,16.701,15.247z"/>
			<path fill-rule="evenodd" clip-rule="evenodd" fill="#E7E3D3" d="M16.427,15.235c0.041,0.05,0.089,0.095,0.096,0.171
				c-0.037-0.041-0.075-0.082-0.112-0.122C16.416,15.268,16.421,15.251,16.427,15.235z"/>
			<path fill-rule="evenodd" clip-rule="evenodd" fill="#CD1126" d="M17.262,16.866c-0.022-0.049-0.044-0.098-0.066-0.147
				c0.01-0.007,0.021-0.012,0.033-0.01c0.198,0.03,0.202,0.028,0.275-0.167c0.006-0.015,0.008-0.032,0.019-0.044
				c0.124-0.142,0.259-0.271,0.418-0.372c0.001,0.141,0.006,0.282,0.004,0.422c-0.002,0.186-0.069,0.339-0.247,0.422
				C17.527,17.051,17.388,16.983,17.262,16.866z"/>
			<path fill-rule="evenodd" clip-rule="evenodd" fill="#FBFAFA" d="M17.941,16.126c-0.113,0.114-0.225,0.229-0.351,0.33
				c-0.032,0.026-0.05,0.057-0.06,0.099c-0.053,0.217-0.124,0.251-0.335,0.164c0.004-0.025-0.029-0.073,0.031-0.064
				c0.06,0.009,0.109-0.006,0.125-0.061c0.021-0.068-0.069-0.028-0.083-0.07c-0.005-0.014-0.015-0.027-0.023-0.04
				c-0.035-0.029-0.038-0.072-0.01-0.095c0.085-0.072,0.067-0.166,0.068-0.257c0-0.062,0.008-0.121,0.034-0.176
				c0.03-0.082,0.093-0.101,0.171-0.088c0.052,0.121,0.001,0.25,0.033,0.389c0.132-0.125,0.257-0.244,0.4-0.379
				C17.941,15.978,17.941,16.052,17.941,16.126z"/>
			<path fill-rule="evenodd" clip-rule="evenodd" fill="#FEFEFE" d="M18.206,15.557c0.013,0.171,0.019,0.341-0.002,0.512
				c-0.077,0.019-0.155,0.019-0.231,0c-0.02-0.169-0.001-0.338-0.003-0.507C18.048,15.561,18.127,15.559,18.206,15.557z"/>
			<path fill-rule="evenodd" clip-rule="evenodd" fill="#D0A406" d="M17.321,15.599c-0.013-0.027-0.026-0.054-0.039-0.081
				c-0.002-0.047,0.023-0.082,0.051-0.118c0.18-0.232,0.356-0.466,0.538-0.697c0.04-0.051,0.059-0.112,0.09-0.166
				c0.022-0.038,0.061-0.072,0.117-0.077c0.002,0.16-0.17,0.202-0.212,0.328c-0.036,0.118-0.129,0.197-0.198,0.293
				c-0.036,0.052-0.078,0.1-0.113,0.153c-0.024,0.032-0.051,0.061-0.059,0.07c0.002-0.003,0.026-0.025,0.048-0.049
				c0.11-0.103,0.198-0.229,0.331-0.308c0.059-0.044,0.097-0.1,0.127-0.168c0.024-0.054,0.086-0.076,0.143-0.1
				c0.015,0.144-0.13,0.161-0.181,0.25c-0.153,0.148-0.309,0.293-0.442,0.46c-0.001,0.011-0.004,0.021-0.009,0.032
				c-0.042,0.066-0.098,0.118-0.162,0.164C17.342,15.591,17.332,15.596,17.321,15.599z"/>
			<path fill-rule="evenodd" clip-rule="evenodd" fill="#0C0C0C" d="M17.508,15.868c-0.04,0.038-0.124,0.016-0.132,0.097
				c-0.051,0.015-0.088,0.058-0.138,0.075c-0.029,0.012-0.06,0.032-0.088,0.005c-0.021-0.02,0-0.035,0.016-0.047
				c0.02-0.064,0.075-0.09,0.13-0.115c0.043-0.019,0.095-0.024,0.114-0.078c0.025-0.022-0.007-0.073,0.043-0.082
				c0.024,0.006,0.039,0.023,0.049,0.045c0.003,0.022,0.018,0.043,0.005,0.066C17.508,15.845,17.508,15.856,17.508,15.868z"/>
			<path fill-rule="evenodd" clip-rule="evenodd" fill="#FAFAFB" d="M17.508,15.834c-0.008-0.019-0.016-0.038-0.024-0.057
				c-0.005-0.122-0.042-0.245,0.021-0.363c0.006-0.008,0.012-0.017,0.018-0.025C17.525,15.538,17.554,15.688,17.508,15.834z"/>
			<path fill-rule="evenodd" clip-rule="evenodd" fill="#FDFDFD" d="M17.972,16.069c0.077,0,0.154,0,0.231,0
				c0.002,0.005,0.003,0.011,0.004,0.017C18.129,16.079,18.048,16.107,17.972,16.069z"/>
			<path fill-rule="evenodd" clip-rule="evenodd" fill="#E7E8E2" d="M19.249,17.684c-0.009,0.039-0.015,0.075-0.075,0.06
				c-0.044-0.011-0.093-0.004-0.14-0.005c-0.018-0.031-0.042-0.051-0.079-0.053c0.053-0.042,0.115-0.011,0.173-0.022
				C19.165,17.688,19.209,17.676,19.249,17.684z"/>
			<path fill-rule="evenodd" clip-rule="evenodd" fill="#248A3F" d="M18.909,17.834c-0.104,0.009-0.208,0.019-0.316,0.028
				c0.046,0.044,0.119,0.028,0.165,0.095c-0.182-0.013-0.351-0.03-0.521-0.018c-0.05-0.009-0.103,0.002-0.147-0.03
				c0.08-0.056,0.17-0.016,0.255-0.026c0.043-0.005,0.087-0.001,0.146-0.001c-0.114-0.101-0.229,0.024-0.331-0.033
				c0.046-0.041,0.104-0.035,0.161-0.039c0.087-0.006,0.176-0.006,0.247-0.071c0.073-0.045,0.151-0.023,0.228-0.017
				c0.004,0.05,0.004,0.05-0.058,0.051C18.798,17.788,18.88,17.735,18.909,17.834z"/>
			<path fill-rule="evenodd" clip-rule="evenodd" fill="#F8F9F4" d="M18.692,16.458c-0.067-0.033-0.024-0.085-0.022-0.13
				c0.012-0.024,0.023-0.066,0.038-0.067c0.04-0.005,0.045,0.041,0.051,0.067c0.022,0.105,0.083,0.207,0.036,0.32
				C18.777,16.576,18.728,16.521,18.692,16.458z"/>
			<path fill-rule="evenodd" clip-rule="evenodd" fill="#028C46" d="M18.82,17.742c-0.084-0.001-0.168-0.002-0.252-0.002
				c-0.081-0.005-0.161,0.044-0.243,0.001c0.202-0.037,0.403-0.092,0.607-0.003C18.896,17.771,18.859,17.772,18.82,17.742z"/>
			<path fill-rule="evenodd" clip-rule="evenodd" fill="#F9F9F4" d="M18.82,17.742c0.038-0.001,0.075-0.003,0.112-0.004
				c0.018,0.008,0.035,0.017,0.052,0.025c0,0.009,0.001,0.018,0.001,0.027c-0.017,0.015-0.035,0.03-0.052,0.046
				c-0.008-0.001-0.017-0.001-0.024-0.002c-0.054-0.049-0.124-0.041-0.191-0.056C18.746,17.742,18.792,17.768,18.82,17.742z"/>
			<path fill-rule="evenodd" clip-rule="evenodd" fill="#F5F5ED" d="M18.717,16.869c0.011-0.054-0.029-0.114,0.02-0.164
				c0.01,0.076,0.07,0.147,0.021,0.229C18.724,16.924,18.732,16.889,18.717,16.869z"/>
			<path fill-rule="evenodd" clip-rule="evenodd" fill="#132B51" d="M17.166,15.998c-0.001,0.039-0.001,0.039,0.075,0.014
				c0.038,0.009,0.031,0.034,0.015,0.053c-0.033,0.041-0.07,0.078-0.117,0.104c-0.031,0.015-0.059,0.036-0.088,0.055
				c-0.084,0.068-0.152,0.373-0.108,0.468c0.029,0.064,0.097,0.023,0.137,0.056c0.037,0.071,0.015,0.16,0.07,0.225
				c-0.053,0.042-0.108,0.079-0.155,0.131c-0.072,0.08-0.199,0.03-0.218-0.076c-0.009-0.051-0.017-0.103,0.002-0.154
				c0.052-0.089,0.042-0.188,0.051-0.285c0.003-0.029-0.003-0.065-0.034-0.067c-0.036-0.003-0.035,0.036-0.039,0.063
				c-0.004,0.027,0,0.057-0.023,0.079c-0.027-0.005-0.058-0.003-0.081-0.017c-0.022-0.013-0.047-0.037-0.053-0.061
				c-0.011-0.046,0.037-0.029,0.058-0.038c0.082-0.037,0.124-0.093,0.104-0.186c-0.071-0.064-0.152-0.124-0.096-0.238
				c0.029,0.041,0.086,0.029,0.122,0.076c0.034,0.045,0.089-0.008,0.118-0.044C16.973,16.068,17.067,16.03,17.166,15.998z"/>
			<path fill-rule="evenodd" clip-rule="evenodd" fill="#FCFCFC" d="M16.777,16.874c0.049,0.036,0.022,0.088,0.025,0.133
				c0.003,0.044,0,0.092,0.057,0.102c0.047,0.008,0.116,0.019,0.129-0.028c0.024-0.085,0.089-0.095,0.153-0.115
				c0.011-0.035,0.029-0.059,0.071-0.048c0.028,0.125,0.009,0.252,0.012,0.378c0.002,0.093-0.104,0.046-0.137,0.098
				c-0.075,0.074-0.151,0.084-0.229,0.004c-0.043-0.042-0.1-0.043-0.155-0.049c0-0.139,0.001-0.279-0.002-0.418
				C16.699,16.866,16.724,16.854,16.777,16.874z"/>
			<path fill-rule="evenodd" clip-rule="evenodd" fill="#D5A407" d="M17.183,15.365c0.044-0.048,0.042-0.107,0.042-0.167
				c0.001-0.297,0.003-0.593,0.005-0.89l0.005-0.004c0,0.307,0,0.613,0.001,0.919c0,0.007,0.004,0.014,0.013,0.039
				c0.183-0.297,0.349-0.591,0.52-0.915c0.043,0.163-0.062,0.221-0.111,0.305c-0.131,0.222-0.261,0.445-0.392,0.667
				C17.248,15.352,17.239,15.405,17.183,15.365z"/>
			<path fill-rule="evenodd" clip-rule="evenodd" fill="#0B3058" d="M17.523,15.238c0.103-0.159,0.224-0.303,0.343-0.45
				c0.003,0.053,0.006,0.106,0.009,0.159c-0.107,0.109-0.215,0.218-0.323,0.328C17.536,15.268,17.544,15.242,17.523,15.238z"/>
			<path fill-rule="evenodd" clip-rule="evenodd" fill="#FCFCFA" d="M19.516,17.351c-0.088,0.105-0.176,0.21-0.265,0.316
				c-0.078-0.079-0.189-0.067-0.3-0.109C19.125,17.431,19.33,17.416,19.516,17.351z"/>
			<path fill-rule="evenodd" clip-rule="evenodd" fill="#F2F3E8" d="M18.594,16.316c0.014,0.09,0.005,0.123-0.049,0.185
				c-0.036-0.034,0.015-0.064,0.004-0.096C18.563,16.375,18.579,16.345,18.594,16.316z"/>
			<path fill-rule="evenodd" clip-rule="evenodd" fill="#C81227" d="M17.117,16.148c0.051-0.036,0.112-0.063,0.124-0.137
				c0.048-0.008,0.074-0.078,0.135-0.047c-0.066,0.087-0.017,0.187-0.031,0.279c-0.009,0.059,0.037,0.142-0.083,0.148
				c-0.048,0.002-0.013,0.061-0.018,0.093c0.002,0.057-0.02,0.098-0.077,0.114C17.081,16.456,17.068,16.305,17.117,16.148z"/>
			<path fill-rule="evenodd" clip-rule="evenodd" fill="#FBFBFB" d="M17.117,16.148c0.017,0.15,0.034,0.3,0.051,0.45
				c-0.009,0.109,0.019,0.214,0.045,0.318c-0.023,0.016-0.047,0.032-0.071,0.048c-0.055,0.01-0.069-0.021-0.069-0.068
				c0-0.052-0.005-0.104-0.008-0.155c-0.056-0.179-0.081-0.359-0.026-0.542C17.064,16.183,17.091,16.165,17.117,16.148z"/>
			<path fill-rule="evenodd" clip-rule="evenodd" fill="#07315F" d="M15.777,13.396c0.054,0.058,0.069,0.109,0.046,0.188
				C15.768,13.527,15.755,13.475,15.777,13.396z"/>
			<path fill-rule="evenodd" clip-rule="evenodd" fill="#E8BF02" d="M17.014,15.318c-0.02,0.009-0.039,0.018-0.058,0.026
				c-0.063,0.003-0.041-0.046-0.042-0.074c-0.002-0.116-0.003-0.231,0-0.346c0.001-0.054-0.012-0.083-0.073-0.079
				c-0.092,0.006-0.081-0.05-0.062-0.109l-0.001,0.001c0.057-0.022,0.152,0.011,0.143-0.108c-0.002-0.033,0.106-0.033,0.104,0
				c-0.008,0.119,0.086,0.086,0.143,0.108l-0.001-0.001c0.021,0.061,0.028,0.116-0.063,0.109c-0.064-0.004-0.071,0.032-0.07,0.083
				c0.002,0.105,0,0.209,0.001,0.314C17.034,15.269,17.046,15.299,17.014,15.318z"/>
			<path fill-rule="evenodd" clip-rule="evenodd" fill="#AF1627" d="M16.666,16.123c-0.012,0.097,0.076,0.154,0.096,0.238
				c-0.144,0.051-0.155,0.045-0.152-0.1c0.002-0.104,0.008-0.209-0.072-0.292c-0.029-0.03,0.027-0.075-0.025-0.095
				c0.128,0.001,0.142,0.116,0.19,0.195C16.719,16.096,16.681,16.106,16.666,16.123z"/>
			<path fill-rule="evenodd" clip-rule="evenodd" fill="#756B3C" d="M16.78,14.736c0.002,0.051-0.01,0.111,0.075,0.103
				c0.063-0.006,0.073,0.031,0.071,0.083c-0.002,0.105-0.002,0.21,0,0.314c0.001,0.037-0.021,0.083,0.028,0.108
				c-0.055,0.05-0.055,0.007-0.055-0.034c0-0.12-0.001-0.241,0-0.361c0-0.048-0.001-0.081-0.067-0.085
				C16.74,14.858,16.737,14.844,16.78,14.736z"/>
			<path fill-rule="evenodd" clip-rule="evenodd" fill="#756B3C" d="M17.014,15.318c0.002-0.132,0.007-0.265,0.007-0.397
				c0-0.053,0.012-0.088,0.072-0.082c0.085,0.009,0.072-0.052,0.074-0.103c0.022,0.059,0.078,0.133-0.05,0.129
				c-0.063-0.002-0.073,0.029-0.071,0.081c0.003,0.1,0.001,0.2,0.006,0.3C17.054,15.281,17.059,15.311,17.014,15.318z"/>
			<path fill-rule="evenodd" clip-rule="evenodd" fill="#756B3C" d="M17.168,14.737c-0.068-0.002-0.16,0.036-0.151-0.093
				c0.001-0.023-0.022-0.03-0.043-0.03c-0.021,0-0.045,0.007-0.043,0.03c0.009,0.13-0.084,0.09-0.152,0.094
				c0.063-0.019,0.146-0.008,0.126-0.121c-0.008-0.043,0.046-0.03,0.074-0.031c0.026-0.001,0.071-0.008,0.064,0.031
				C17.021,14.729,17.105,14.72,17.168,14.737z"/>
			<path fill-rule="evenodd" clip-rule="evenodd" fill="#FAFAFB" d="M17.456,15.735c-0.042,0.006-0.005,0.063-0.046,0.07
				c0.009-0.085-0.064-0.136-0.089-0.207c0.015,0.001,0.029,0.001,0.044,0.002C17.433,15.62,17.467,15.662,17.456,15.735z"/>
			<path fill-rule="evenodd" clip-rule="evenodd" fill="#FBFAFA" d="M17.456,15.735c-0.03-0.045-0.061-0.089-0.091-0.134
				c-0.007-0.102,0.087-0.128,0.139-0.186c-0.008,0.121,0.029,0.245-0.021,0.363C17.475,15.764,17.465,15.749,17.456,15.735z"/>
			<path fill-rule="evenodd" clip-rule="evenodd" fill="#D3D3CB" d="M17.523,15.238c0.039-0.011,0.021,0.023,0.029,0.037
				c-0.042,0.046-0.083,0.093-0.146,0.163C17.427,15.335,17.48,15.29,17.523,15.238z"/>
			<path fill-rule="evenodd" clip-rule="evenodd" fill="#C71327" d="M17.038,16.2c0.009,0.181,0.018,0.362,0.026,0.542
				c-0.127,0.062-0.159,0.045-0.157-0.088c0.001-0.108,0.013-0.216,0.012-0.324C16.918,16.244,16.984,16.229,17.038,16.2z"/>
		</g>
	</g>
</g>
<g id="Imagenes">
</g>
<g id="Cintillos">
</g>
<g id="Botones">
</g>
<g id="TXT">
</g>
<g id="Logo">
</g>
<g id="Guia">
</g>
</svg>
