<?xml version="1.0" encoding="utf-8"?>
<!-- Generator: Adobe Illustrator 16.0.0, SVG Export Plug-In . SVG Version: 6.00 Build 0)  -->
<!DOCTYPE svg PUBLIC "-//W3C//DTD SVG 1.1//EN" "http://www.w3.org/Graphics/SVG/1.1/DTD/svg11.dtd">
<svg version="1.1" xmlns="http://www.w3.org/2000/svg" xmlns:xlink="http://www.w3.org/1999/xlink" x="0px" y="0px"
	 width="34.417px" height="34.25px" viewBox="0 0 34.417 34.25" enable-background="new 0 0 34.417 34.25" xml:space="preserve">
<g id="Soporte">
</g>
<g id="Publicidad">
</g>
<g id="Iconos">
	<g>
		<defs>
			<circle id="SVGID_29_" cx="-18.217" cy="16.595" r="15.917"/>
		</defs>
		<clipPath id="SVGID_2_">
			<use xlink:href="#SVGID_29_"  overflow="visible"/>
		</clipPath>
		<g clip-path="url(#SVGID_2_)">
			<path fill-rule="evenodd" clip-rule="evenodd" d="M-18.178,33.208c-8.183,0-16.366,0-24.549,0.003
				c-0.154,0.001-0.194-0.03-0.194-0.19c0.005-10.888,0.005-21.775-0.001-32.662c0-0.181,0.049-0.199,0.209-0.199
				c16.373,0.004,32.746,0.004,49.119,0c0.167,0,0.206,0.029,0.206,0.202c-0.005,10.88-0.005,21.761,0.001,32.642
				c0,0.19-0.056,0.209-0.22,0.208C-1.798,33.208-9.987,33.208-18.178,33.208z"/>
			<path fill-rule="evenodd" clip-rule="evenodd" fill="#0D18AD" d="M-42.853,11.19c-0.004-0.083-0.012-0.167-0.012-0.25
				c0-3.48,0-6.961,0-10.441c0-0.281,0-0.282,0.286-0.282c16.283,0,32.567,0,48.851,0c0.286,0,0.286,0,0.286,0.282
				c0,3.494,0,6.989,0,10.483c0,0.07-0.005,0.14-0.008,0.209c-0.05,0.07-0.125,0.084-0.204,0.086
				C6.249,11.281,6.15,11.28,6.053,11.28c-16.136,0-32.272,0-48.408-0.003C-42.522,11.277-42.709,11.342-42.853,11.19z"/>
			<path fill-rule="evenodd" clip-rule="evenodd" fill="#0D18AD" d="M6.551,22.187c0.003,0.07,0.007,0.139,0.007,0.209
				c0,3.495,0,6.989,0,10.483c0,0.28,0,0.281-0.289,0.281c-16.283,0-32.567,0-48.851,0c-0.283,0-0.283,0-0.283-0.285
				c0-3.501,0-7.003,0-10.504c0-0.063,0.004-0.125,0.007-0.188c0.05-0.071,0.124-0.085,0.203-0.087
				c0.098-0.003,0.196-0.003,0.293-0.003c16.139,0,32.278,0,48.417,0.003C6.223,22.095,6.41,22.03,6.551,22.187z"/>
			<path fill-rule="evenodd" clip-rule="evenodd" fill="#FEFEFE" d="M6.551,22.187c-0.098,0.001-0.195,0.003-0.293,0.003
				c-16.274,0-32.548,0-48.822,0c-0.098,0-0.195-0.005-0.293-0.008c-0.001-2.826-0.003-5.653-0.003-8.479
				c0-0.837,0.005-1.675,0.008-2.512c0.126,0,0.252-0.002,0.377-0.002c16.265,0,32.53,0,48.795,0c0.077,0,0.154,0.002,0.23,0.003
				c0.002,0.049,0.006,0.097,0.006,0.146c0,3.568,0,7.135,0,10.703C6.557,22.089,6.553,22.138,6.551,22.187z"/>
		</g>
	</g>
	<g>
		<defs>
			<circle id="SVGID_31_" cx="17.267" cy="17.028" r="15.917"/>
		</defs>
		<clipPath id="SVGID_4_">
			<use xlink:href="#SVGID_31_"  overflow="visible"/>
		</clipPath>
		<g clip-path="url(#SVGID_4_)">
			<rect x="-8.217" y="-0.575" fill="#FFFFFF" width="50.968" height="16.99"/>
			<rect x="-8.217" y="16.415" fill="#FF0000" width="50.968" height="16.989"/>
			<rect x="-8.217" y="10.751" fill="#0000FF" width="50.968" height="11.327"/>
		</g>
	</g>
	<g>
		<defs>
			<circle id="SVGID_33_" cx="56.022" cy="16.595" r="15.917"/>
		</defs>
		<clipPath id="SVGID_6_">
			<use xlink:href="#SVGID_33_"  overflow="visible"/>
		</clipPath>
		<g clip-path="url(#SVGID_6_)">
			<path fill-rule="evenodd" clip-rule="evenodd" fill="#FDFDFD" d="M52.803,0.118c2.146,0,4.292,0,6.438,0
				c0.036,0.039,0.038,0.087,0.039,0.136c0.002,0.061,0.001,0.121,0.001,0.181c0,4.103,0,8.205,0,12.307
				c0,0.25-0.017,0.237,0.237,0.237c6.817,0,13.634,0,20.451,0.001c0.086,0,0.179-0.022,0.257,0.039c0,2.154,0,4.308,0,6.462
				c-0.039,0.036-0.088,0.038-0.136,0.039c-0.061,0.002-0.121,0.001-0.182,0.001c-6.789,0-13.577,0-20.366,0
				c-0.287,0-0.261-0.022-0.261,0.261c0,4.118,0,8.237-0.001,12.355c0,0.083,0.02,0.171-0.039,0.245c-2.146,0-4.292,0-6.438,0
				c-0.032-0.035-0.037-0.079-0.039-0.124c-0.002-0.057-0.001-0.113-0.001-0.169c0-4.11,0-8.22,0-12.331
				c0-0.25,0.017-0.237-0.237-0.237c-6.816,0-13.633,0-20.45-0.001c-0.086,0-0.179,0.022-0.257-0.039c0-2.154,0-4.308,0-6.462
				c0.039-0.036,0.087-0.038,0.136-0.039c0.057-0.002,0.113-0.001,0.169-0.001c6.792,0,13.585,0,20.377,0
				c0.288,0,0.262,0.022,0.262-0.261c0-4.118,0-8.236,0.001-12.355C52.764,0.281,52.744,0.192,52.803,0.118z"/>
			<path fill-rule="evenodd" clip-rule="evenodd" fill="#002D61" d="M52.803,0.118c-0.002,0.052-0.005,0.104-0.005,0.157
				c0,4.198-0.001,8.397,0.003,12.596c0,0.13-0.038,0.154-0.159,0.154c-6.897-0.003-13.793-0.002-20.69-0.002
				c-0.045,0-0.089-0.002-0.133-0.003c0-4.264,0-8.528-0.002-12.792c0-0.091,0.021-0.111,0.111-0.111
				C38.886,0.118,45.844,0.118,52.803,0.118z"/>
			<path fill-rule="evenodd" clip-rule="evenodd" fill="#CD1126" d="M31.818,19.481c0.044-0.001,0.088-0.002,0.133-0.002
				c6.896,0,13.793,0,20.689-0.003c0.121,0,0.16,0.023,0.16,0.154c-0.004,4.198-0.003,8.396-0.003,12.595
				c0,0.052,0.003,0.104,0.005,0.157c-6.958,0-13.917,0-20.876,0.002c-0.091,0-0.111-0.021-0.111-0.111
				C31.818,28.009,31.818,23.746,31.818,19.481z"/>
		</g>
	</g>
</g>
<g id="Imagenes">
</g>
<g id="Cintillos">
</g>
<g id="Botones">
</g>
<g id="TXT">
</g>
<g id="Logo">
</g>
<g id="Guia">
</g>
</svg>
