<?xml version="1.0" encoding="utf-8"?>
<!-- Generator: Adobe Illustrator 16.0.0, SVG Export Plug-In . SVG Version: 6.00 Build 0)  -->
<!DOCTYPE svg PUBLIC "-//W3C//DTD SVG 1.1//EN" "http://www.w3.org/Graphics/SVG/1.1/DTD/svg11.dtd">
<svg version="1.1" xmlns="http://www.w3.org/2000/svg" xmlns:xlink="http://www.w3.org/1999/xlink" x="0px" y="0px"
	 width="34.417px" height="34.25px" viewBox="0 0 34.417 34.25" enable-background="new 0 0 34.417 34.25" xml:space="preserve">
<g id="Soporte">
</g>
<g id="Publicidad">
</g>
<g id="Iconos">
	<g>
		<defs>
			<circle id="SVGID_29_" cx="16.783" cy="16.595" r="15.917"/>
		</defs>
		<clipPath id="SVGID_2_">
			<use xlink:href="#SVGID_29_"  overflow="visible"/>
		</clipPath>
		<g clip-path="url(#SVGID_2_)">
			<path fill-rule="evenodd" clip-rule="evenodd" d="M16.822,33.208c-8.183,0-16.366,0-24.549,0.003
				c-0.154,0.001-0.194-0.03-0.194-0.19c0.005-10.888,0.005-21.775-0.001-32.662c0-0.181,0.049-0.199,0.209-0.199
				c16.373,0.004,32.746,0.004,49.119,0c0.167,0,0.206,0.029,0.206,0.202c-0.005,10.88-0.005,21.761,0.001,32.642
				c0,0.19-0.056,0.209-0.22,0.208C33.202,33.208,25.013,33.208,16.822,33.208z"/>
			<path fill-rule="evenodd" clip-rule="evenodd" fill="#0D18AD" d="M-7.853,11.19c-0.004-0.083-0.012-0.167-0.012-0.25
				c0-3.48,0-6.961,0-10.441c0-0.281,0-0.282,0.286-0.282c16.283,0,32.567,0,48.851,0c0.286,0,0.286,0,0.286,0.282
				c0,3.494,0,6.989,0,10.483c0,0.07-0.005,0.14-0.008,0.209c-0.05,0.07-0.125,0.084-0.204,0.086
				c-0.098,0.003-0.196,0.002-0.294,0.002c-16.136,0-32.272,0-48.408-0.003C-7.522,11.277-7.709,11.342-7.853,11.19z"/>
			<path fill-rule="evenodd" clip-rule="evenodd" fill="#0D18AD" d="M41.551,22.187c0.003,0.07,0.007,0.139,0.007,0.209
				c0,3.495,0,6.989,0,10.483c0,0.28,0,0.281-0.289,0.281c-16.283,0-32.567,0-48.851,0c-0.283,0-0.283,0-0.283-0.285
				c0-3.501,0-7.003,0-10.504c0-0.063,0.004-0.125,0.007-0.188c0.05-0.071,0.124-0.085,0.203-0.087
				c0.098-0.003,0.196-0.003,0.293-0.003c16.139,0,32.278,0,48.417,0.003C41.223,22.095,41.41,22.03,41.551,22.187z"/>
			<path fill-rule="evenodd" clip-rule="evenodd" fill="#FEFEFE" d="M41.551,22.187c-0.098,0.001-0.195,0.003-0.293,0.003
				c-16.274,0-32.548,0-48.822,0c-0.098,0-0.195-0.005-0.293-0.008c-0.001-2.826-0.003-5.653-0.003-8.479
				c0-0.837,0.005-1.675,0.008-2.512c0.126,0,0.252-0.002,0.377-0.002c16.265,0,32.53,0,48.795,0c0.077,0,0.154,0.002,0.23,0.003
				c0.002,0.049,0.006,0.097,0.006,0.146c0,3.568,0,7.135,0,10.703C41.557,22.089,41.553,22.138,41.551,22.187z"/>
			<path fill-rule="evenodd" clip-rule="evenodd" fill="#0F8102" d="M20.793,15.048c0.092-0.076,0.045-0.212,0.125-0.296
				c0.196,0.297,0.246,0.601,0.054,0.917c-0.069,0.113-0.045,0.222-0.015,0.362c0.088-0.067,0.052-0.199,0.161-0.209l-0.003-0.003
				c-0.043,0.124-0.087,0.247-0.097,0.418c0.12-0.185,0.139-0.384,0.29-0.56c0.019,0.134,0.031,0.226,0.044,0.32
				c0.089,0.012,0.12-0.098,0.214-0.078c-0.044,0.194-0.079,0.392-0.136,0.583c-0.051,0.173-0.177,0.303-0.331,0.39
				c-0.126,0.072-0.177,0.168-0.169,0.307c0.02,0.012,0.046,0.015,0.062,0.034c0.067,0.021,0.075-0.061,0.122-0.073
				c0.009-0.002,0.019-0.004,0.028-0.007c0.091,0.043,0.152,0.147,0.292,0.075c0.059-0.031,0.054,0.093,0.045,0.147
				c-0.056,0.337-0.244,0.599-0.536,0.757c-0.217,0.117-0.463,0.172-0.462,0.488c0,0.031-0.05,0.063-0.096,0.116
				c0.197-0.051,0.355-0.123,0.503-0.231c0.035,0.123-0.055,0.206-0.071,0.314c0.063,0.005,0.125,0.011,0.18,0.016
				c-0.165,0.498-0.568,0.637-1.041,0.695c0.07,0.021,0.139,0.041,0.208,0.062c0.016,0.004,0.021,0.009,0.016,0.013
				c-0.005,0.003-0.01,0.005-0.016,0.005c-0.042-0.002-0.084-0.007-0.125-0.005c-0.092,0.001-0.223-0.079-0.219,0.121
				c0.001,0.049-0.083,0.099-0.147,0.169c0.131-0.01,0.232-0.017,0.393-0.028c-0.163,0.189-0.362,0.233-0.541,0.341
				c0.187,0.061,0.361-0.075,0.544,0.025c-0.412,0.208-0.793,0.479-1.282,0.171c0.119,0.111,0.06,0.158-0.031,0.191
				c0.039,0.084,0.147,0.052,0.189,0.146c-0.125,0.077-0.278,0.004-0.421,0.064c0.093,0.06,0.171,0.109,0.251,0.16
				c-0.198,0.174-0.399,0.093-0.6,0.036c-0.165,0.039-0.311-0.005-0.438-0.11c-0.114-0.093-0.267-0.114-0.378-0.211
				c-0.018-0.197,0.072-0.376,0.1-0.566c0.109-0.301,0.377-0.475,0.581-0.699c0.087-0.094,0.231-0.142,0.354-0.012
				c0.01,0.011,0.022,0.017,0.036,0.02c0.082,0.021,0.203-0.063,0.245,0.049c0.043,0.116,0.022,0.247,0.004,0.372
				c-0.017,0.113-0.069,0.211-0.119,0.309c0.103-0.124,0.124-0.279,0.132-0.431c0.01-0.169,0.072-0.307,0.191-0.426
				c0.095-0.094,0.147-0.219,0.225-0.327c0.071-0.098,0.142-0.17,0.23-0.017c0.013,0.023,0.024,0.061,0.051,0.063
				c0.086,0.006,0.186-0.03,0.217,0.101c0.022,0.094-0.018,0.179-0.026,0.267c0.002,0.027,0.008,0.053,0.009,0.078
				c0.139-0.061,0.166-0.129,0.079-0.255c-0.201-0.289-0.301-0.601-0.258-0.954c0.009-0.059,0.013-0.12,0.046-0.171
				c0.181-0.104,0.248-0.048,0.294,0.257c0.012-0.082,0.02-0.15,0.042-0.216c0.028-0.081,0.058-0.164,0.161-0.167
				c0.102-0.002,0.143,0.074,0.169,0.157c0.027,0.086,0.045,0.174,0.082,0.257c0.011,0.024,0.013,0.052,0.022,0.077
				c-0.002-0.028,0.005-0.055,0.022-0.078c0.016-0.013,0.034-0.018,0.054-0.015c0.019,0.012,0.025,0.033,0.04,0.046
				c0.025,0.025,0.016-0.013,0.017-0.017c0.021-0.079,0.002-0.157-0.045-0.218c-0.146-0.188-0.182-0.42-0.262-0.635
				c-0.029-0.079-0.032-0.164-0.013-0.248c0.011-0.049,0.039-0.12,0.083-0.106c0.142,0.044,0.193-0.035,0.265-0.133
				c0.064-0.089,0.155-0.045,0.204,0.037c0.056,0.093,0.094,0.195,0.105,0.274c0.009-0.05-0.047-0.118-0.051-0.196
				c-0.002-0.036,0.008-0.075,0.044-0.088c0.05-0.018,0.075,0.02,0.097,0.063c0.013-0.09-0.062-0.115-0.108-0.159
				c-0.208-0.196-0.369-0.417-0.405-0.712c-0.027-0.224-0.006-0.263,0.235-0.374c0.142-0.065,0.177,0.063,0.245,0.132
				c0.013,0.013,0.027,0.035,0.048,0.007c0.027-0.095-0.041-0.154-0.082-0.223c-0.075-0.114-0.207-0.167-0.288-0.274
				c-0.028-0.045-0.041-0.092-0.015-0.142C20.57,15.308,20.713,15.213,20.793,15.048z"/>
			<path fill-rule="evenodd" clip-rule="evenodd" fill="#0F7F02" d="M12.837,15.966c0.015-0.104,0.026-0.203-0.034-0.303
				c-0.187-0.314-0.134-0.619,0.055-0.915c0.086,0.083,0.034,0.221,0.125,0.299c0.072,0.16,0.217,0.255,0.335,0.374
				c0.025,0.05,0.014,0.098-0.014,0.144c-0.07,0.092-0.185,0.137-0.248,0.237c-0.046,0.073-0.111,0.14-0.078,0.237
				c0.07-0.013,0.081-0.082,0.122-0.121c0.057-0.053,0.107-0.068,0.184-0.018c0.269,0.177,0.284,0.215,0.177,0.545
				c-0.063,0.191-0.178,0.345-0.327,0.477c-0.062,0.055-0.117,0.114-0.141,0.194c-0.012,0.039-0.008,0.067,0.044,0.062
				c0.027,0.011,0.042,0.032,0.052,0.058c0.007,0.063,0.001,0.125-0.013,0.169c0.019-0.138,0.052-0.288,0.167-0.403
				c0.055-0.028,0.125-0.033,0.151,0.018c0.063,0.121,0.133,0.177,0.285,0.175c0.087-0.001,0.108,0.14,0.079,0.229
				c-0.08,0.241-0.123,0.499-0.28,0.71c-0.053,0.07-0.086,0.147-0.065,0.231c0.015,0.058,0.032-0.014,0.053-0.012
				c0.019-0.005,0.037-0.003,0.054,0.006c0.021,0.003,0.017,0.063,0.04,0.034c0.064-0.078,0.068-0.18,0.092-0.274
				c0.021-0.085,0.061-0.163,0.162-0.166c0.104-0.003,0.137,0.081,0.165,0.162c0.022,0.065,0.034,0.134,0.04,0.211
				c0.015-0.079,0.029-0.151,0.065-0.216c0.061-0.107,0.137-0.137,0.23-0.036c0.035,0.052,0.037,0.113,0.047,0.172
				c0.051,0.354-0.047,0.67-0.252,0.954c-0.09,0.125-0.045,0.198,0.047,0.278c0,0,0.01-0.008,0.013-0.013
				c0.003-0.006,0.003-0.014,0.004-0.021c-0.001-0.019,0-0.035,0.003-0.052c0.024-0.064-0.003-0.124-0.008-0.186
				c-0.009-0.112,0.002-0.222,0.163-0.19c0.067,0.013,0.082-0.031,0.106-0.074c0.074-0.129,0.153-0.099,0.222,0.002
				c0.11,0.16,0.195,0.336,0.338,0.473c0.059,0.056,0.074,0.143,0.078,0.231c0.006,0.179,0.037,0.355,0.142,0.509
				c-0.107-0.182-0.153-0.378-0.137-0.588c0.003-0.048-0.009-0.125,0.039-0.129c0.151-0.01,0.284-0.092,0.426-0.104
				c0.116-0.011,0.229,0.07,0.296,0.172c0.13,0.198,0.361,0.313,0.449,0.544c0.028,0.206,0.119,0.4,0.118,0.612
				c-0.086-0.001-0.176,0.011-0.238,0.064c-0.193,0.164-0.426,0.214-0.658,0.292c-0.194,0.064-0.344,0.038-0.513-0.037
				c0.057-0.093,0.164-0.104,0.241-0.178c-0.13-0.072-0.28,0.012-0.403-0.064c0.016-0.105,0.133-0.062,0.18-0.138
				c-0.046-0.045-0.185-0.084-0.018-0.202c-0.493,0.308-0.876,0.038-1.299-0.17c0.19-0.096,0.357,0.021,0.542-0.014
				c-0.158-0.128-0.371-0.156-0.52-0.35c0.143,0.009,0.247,0.016,0.358,0.023c-0.102-0.208-0.207-0.387-0.474-0.283
				c-0.017-0.004-0.022-0.008-0.017-0.013c0.005-0.004,0.011-0.007,0.016-0.007c0.07-0.02,0.14-0.039,0.209-0.06
				c-0.458-0.065-0.866-0.184-1.034-0.692c0.036-0.042,0.118,0.016,0.172-0.03c-0.009-0.1-0.102-0.181-0.068-0.306
				c0.141,0.118,0.304,0.169,0.478,0.234c-0.02-0.11-0.129-0.13-0.16-0.21l0.002-0.016c0.031,0.003,0.11,0.08,0.069-0.033
				c-0.055-0.152-0.171-0.239-0.328-0.294c-0.341-0.122-0.532-0.394-0.639-0.724c-0.063-0.192-0.025-0.224,0.169-0.194
				c0.132,0.02,0.03-0.112,0.091-0.139c0.028,0.002,0.058,0,0.084,0.015c0.053,0.027,0.062,0.121,0.147,0.095
				c0.022-0.017,0.042-0.034,0.052-0.061c-0.016-0.123-0.062-0.214-0.178-0.285c-0.231-0.141-0.365-0.354-0.391-0.63
				c-0.011-0.116-0.033-0.23-0.086-0.34c0.101-0.018,0.133,0.069,0.205,0.082c0.085-0.075,0.016-0.194,0.071-0.296
				c0.141,0.127,0.155,0.301,0.232,0.442c0.006,0.01-0.01,0.096,0.045,0.028c0.01-0.013,0.001-0.041,0.001-0.062
				C12.716,16.026,12.814,16.018,12.837,15.966z"/>
			<path fill-rule="evenodd" clip-rule="evenodd" fill="#F9CB01" d="M13.269,15.539c0.022-0.033,0.066-0.059,0.038-0.109
				c0.026-0.058,0.072-0.082,0.135-0.077c0.031,0.01,0.062,0.024,0.093,0.035c0.251,0.146,0.502,0.293,0.753,0.439
				c0.089,0.052,0.179,0.103,0.269,0.154c0.139-0.01,0.225,0.097,0.336,0.15c0.117,0.057,0.214,0.157,0.354,0.166
				c0.125-0.163,0.195-0.36,0.32-0.523c0.029-0.029,0.051-0.063,0.071-0.099c0.136-0.247,0.136-0.246-0.059-0.457
				c-0.042-0.044-0.086-0.087-0.134-0.126c-0.185-0.198-0.395-0.374-0.562-0.589c-0.073-0.09-0.164-0.166-0.235-0.255
				c-0.097-0.123-0.21-0.159-0.355-0.107c-0.124-0.015-0.146-0.071-0.068-0.167c0.049-0.056-0.021-0.12,0.012-0.175
				c0.04-0.069,0.078-0.179,0.158-0.026c0.21,0.121,0.342,0.323,0.507,0.491c0.304,0.307,0.6,0.623,0.893,0.94
				c0.087,0.094,0.13,0.091,0.19-0.021c0.146-0.27,0.301-0.535,0.453-0.801c0.069-0.186,0.126-0.378,0.25-0.538
				c0.061-0.08,0.097-0.206,0.228-0.178c0.118,0.025,0.11,0.145,0.131,0.237c0.087,0.154,0.175,0.309,0.263,0.463
				c0.148,0.06,0.167,0.209,0.229,0.33c0.035,0.068,0.05,0.144,0.086,0.212c0.092,0.117,0.117,0.346,0.241,0.358
				c0.128,0.012,0.218-0.19,0.325-0.298c0.379-0.388,0.752-0.782,1.128-1.173c0.083-0.07,0.183-0.2,0.161,0.054
				c-0.003,0.043,0.049,0.08,0.065,0.126c0.033,0.08,0.038,0.147-0.07,0.167c-0.164-0.056-0.279,0.009-0.379,0.139
				c-0.062,0.08-0.141,0.147-0.211,0.221c-0.173,0.235-0.397,0.422-0.595,0.633c-0.02,0.019,0.005-0.006-0.016,0.013
				c-0.299,0.281-0.302,0.31-0.06,0.641c0.112,0.182,0.218,0.368,0.302,0.565c0.005,0.059,0.036,0.103,0.074,0.144
				c0.066,0.078,0.092,0.184,0.172,0.252c0.107,0.175,0.214,0.35,0.302,0.535c0.124,0.198,0.225,0.412,0.363,0.602
				c0.041,0.072,0.077,0.145,0.041,0.231c0.015,0.042,0.056,0.086-0.012,0.12c-0.147,0.143-0.332,0.069-0.5,0.086
				c-0.305-0.025-0.61,0.021-0.916-0.001c-0.317-0.003-0.635,0-0.952-0.006c-0.133,0.013-0.265,0.011-0.397,0.002
				c-0.318,0-0.635,0.005-0.953,0.002c-0.305,0.025-0.61-0.024-0.916,0.001c-0.169-0.017-0.354,0.06-0.501-0.084
				c-0.079-0.033-0.034-0.085-0.019-0.132c-0.05-0.088,0.006-0.155,0.045-0.225c0.131-0.194,0.23-0.405,0.356-0.602
				c0.087-0.187,0.19-0.365,0.306-0.536c0.127-0.209,0.123-0.222-0.099-0.335c-0.231-0.112-0.448-0.247-0.663-0.388
				c-0.119-0.08-0.24-0.157-0.362-0.233c-0.094-0.058-0.176-0.107-0.256,0.022c-0.027,0.045-0.085,0.068-0.143,0.07
				C13.368,15.795,13.165,15.766,13.269,15.539z"/>
			<path fill-rule="evenodd" clip-rule="evenodd" fill="#0D18AD" d="M15.291,16.373c-0.018,0.014-0.016,0.062-0.055,0.038
				c-0.228-0.143-0.474-0.255-0.68-0.431c-0.084-0.37-0.192-0.734-0.218-1.114c-0.016-0.242-0.031-0.483-0.047-0.726
				c0.122-0.145,0.233-0.183,0.36,0.006c0.083,0.124,0.218,0.208,0.292,0.343c0.036,0.58,0.1,1.155,0.329,1.698
				C15.298,16.248,15.275,16.312,15.291,16.373z"/>
			<path fill-rule="evenodd" clip-rule="evenodd" fill="#0D18AD" d="M18.824,14.479c0.133-0.149,0.255-0.31,0.404-0.442
				c0.114-0.101,0.168,0.056,0.247,0.102c-0.023,0.625-0.078,1.246-0.282,1.844c0.004,0.061-0.024,0.109-0.072,0.14
				c-0.161,0.105-0.319,0.214-0.493,0.296c-0.061,0.029-0.135,0.071-0.146-0.052c-0.021-0.138,0.046-0.256,0.088-0.38
				C18.738,15.499,18.794,14.992,18.824,14.479z"/>
			<path fill-rule="evenodd" clip-rule="evenodd" fill="#0D18AA" d="M16.412,20.667c-0.135-0.167-0.155-0.366-0.164-0.569
				c0.07-0.182,0.237-0.179,0.382-0.176c0.143,0.003,0.175,0.139,0.206,0.255c0.022,0.081,0.002,0.167,0.039,0.3
				c0.05-0.134,0.034-0.235,0.059-0.326c0.033-0.12,0.08-0.244,0.224-0.233c0.143,0.012,0.32-0.003,0.366,0.2
				c-0.024,0.194-0.029,0.393-0.172,0.549c-0.011,0.063-0.056,0.094-0.109,0.119c-0.071,0.025-0.146,0.018-0.219,0.016
				c-0.359,0.104-0.359,0.104-0.42,0.652c-0.12-0.24-0.207-0.041-0.318,0.003c0.012-0.201,0.125-0.353,0.209-0.516
				c-0.008-0.054,0.02-0.097,0.063-0.115c0.097-0.041,0.011-0.06-0.005-0.088C16.505,20.713,16.459,20.69,16.412,20.667z"/>
			<path fill-rule="evenodd" clip-rule="evenodd" fill="#137C07" d="M19.963,14.085c0.06-0.013,0.065,0.064,0.114,0.069
				c0.043-0.062-0.025-0.13,0.01-0.206c0.213,0.177,0.316,0.402,0.341,0.667c0.009,0.094,0.001,0.197,0.132,0.216
				c0.011-0.014,0.021-0.014,0.03,0.001c0.197-0.052,0.156,0.125,0.205,0.215c-0.006,0.077-0.065,0.107-0.125,0.12
				c-0.13,0.028-0.218,0.111-0.299,0.208c-0.04,0.023-0.08,0.042-0.121,0.004c0.057-0.091-0.004-0.145-0.055-0.212
				c-0.045-0.061-0.074-0.14-0.047-0.224c0.023,0.008,0.047,0.017,0.07,0.025c0.049,0.032,0.104,0.011,0.155,0.013
				c0.061,0.002,0.028-0.039,0.014-0.066c-0.014-0.026-0.019-0.052-0.004-0.079c-0.064-0.086-0.166-0.044-0.248-0.065
				c-0.237-0.062-0.384-0.204-0.448-0.44c0.079-0.044,0.118,0.037,0.183,0.03c0.021-0.066-0.05-0.117-0.053-0.184
				c0.012-0.093,0.207,0.11,0.15-0.093L19.963,14.085z"/>
			<path fill-rule="evenodd" clip-rule="evenodd" fill="#127D07" d="M13.534,15.387c-0.037,0-0.074,0-0.11,0
				c-0.104-0.101-0.205-0.202-0.355-0.235c-0.047-0.01-0.085-0.046-0.087-0.104c0.012-0.039,0.032-0.078,0.035-0.118
				c0.008-0.12,0.055-0.149,0.157-0.054c0.006-0.081,0.01-0.142,0.015-0.204l0.014-0.005c0.009,0.06,0.018,0.12,0.028,0.181
				c0.174-0.286,0.123-0.684,0.475-0.89c-0.007,0.069-0.013,0.128-0.021,0.201c0.049-0.03,0.087-0.054,0.124-0.077l-0.002-0.001
				c-0.032,0.184,0.113,0.031,0.157,0.086c-0.021,0.06-0.042,0.124-0.07,0.204c0.069-0.026,0.123-0.046,0.182-0.067
				c-0.033,0.247-0.175,0.394-0.414,0.462c-0.091,0.026-0.197-0.011-0.274,0.067c-0.079,0.219,0.085,0.13,0.174,0.136
				c0.027-0.004,0.073-0.08,0.077,0.008c0.004,0.079-0.02,0.155-0.081,0.221C13.51,15.248,13.444,15.313,13.534,15.387z"/>
			<path fill-rule="evenodd" clip-rule="evenodd" fill="#E1BB0C" d="M20.25,15.378c0.031-0.013,0.063-0.025,0.095-0.038
				c0.038,0.002,0.074,0.007,0.092,0.048c-0.027,0.048,0.016,0.079,0.029,0.117c0.117,0.198-0.039,0.274-0.161,0.365
				c-0.077,0.021-0.148-0.007-0.182-0.068c-0.063-0.111-0.122-0.093-0.21-0.033c-0.127,0.085-0.259,0.163-0.386,0.249
				c-0.222,0.128-0.429,0.28-0.663,0.388c-0.113,0.022-0.193,0.143-0.324,0.114c-0.056-0.034-0.09-0.078-0.072-0.147h0.009
				c0.016,0.022,0.033,0.047,0.064,0.027c0.217-0.14,0.46-0.238,0.651-0.417c0.3-0.176,0.596-0.357,0.902-0.52
				C20.145,15.436,20.12,15.25,20.25,15.378z"/>
			<path fill-rule="evenodd" clip-rule="evenodd" fill="#131DA9" d="M17.046,13.9c-0.052-0.072-0.103-0.144-0.161-0.225
				c-0.181,0.217-0.263,0.495-0.449,0.704c0.011-0.242,0.027-0.479,0.168-0.692c0.077-0.117,0.054-0.268,0.088-0.401
				c0.12-0.054,0.249-0.03,0.374-0.041C17.259,13.471,17.099,13.684,17.046,13.9z"/>
			<path fill-rule="evenodd" clip-rule="evenodd" fill="#F5C710" d="M14.164,13.67c-0.137,0.021-0.22-0.017-0.245-0.172
				c-0.014-0.085-0.081-0.161-0.115-0.244c-0.043-0.104-0.15-0.123-0.223-0.118c-0.144,0.01-0.102,0.163-0.138,0.289
				c-0.135-0.17-0.19-0.349-0.271-0.511c-0.017-0.034-0.006-0.067,0.023-0.094c0.051-0.049,0.092-0.006,0.129,0.019
				c0.229,0.147,0.445,0.316,0.685,0.44c0.141,0.073,0.246,0.135,0.238,0.306c0.032,0.019,0.044,0.045,0.019,0.075
				C14.237,13.694,14.2,13.69,14.164,13.67z"/>
			<path fill-rule="evenodd" clip-rule="evenodd" fill="#138008" d="M16.552,20.737c0.052-0.002,0.106-0.01,0.159,0.032
				c-0.074,0.059-0.146,0.115-0.217,0.171c-0.164,0.094-0.339,0.154-0.524,0.192c-0.14,0.029-0.282,0.05-0.398,0.16
				c-0.072,0.067-0.2,0.097-0.252-0.014c-0.054-0.114,0.077-0.144,0.154-0.174C15.827,20.968,16.207,20.904,16.552,20.737z"/>
			<path fill-rule="evenodd" clip-rule="evenodd" fill="#128007" d="M17.023,20.802c0.052-0.07,0.121-0.08,0.199-0.061
				c0.127-0.02,0.249,0.004,0.36,0.06c0.178,0.089,0.364,0.159,0.546,0.237c0.078,0.03,0.156,0.057,0.231,0.091
				c0.063,0.028,0.143,0.062,0.105,0.149c-0.032,0.073-0.126,0.093-0.181,0.051c-0.307-0.236-0.724-0.185-1.033-0.407
				c-0.109,0.021-0.143-0.096-0.226-0.122L17.023,20.802z"/>
			<path fill-rule="evenodd" clip-rule="evenodd" fill="#FECD0F" d="M21.367,14.354c-0.102-0.023-0.189,0.144-0.243,0.032
				c-0.036-0.075,0.116-0.105,0.189-0.147c0.072-0.042,0.149-0.076,0.222-0.117c0.049-0.027,0.086-0.036,0.119,0.023
				c0.029,0.051,0.027,0.087-0.022,0.125c-0.077,0.059-0.15,0.123-0.273,0.224c0.143-0.037,0.229-0.055,0.313-0.083
				c0.059-0.019,0.104-0.026,0.14,0.04c0.039,0.075-0.012,0.101-0.062,0.127c-0.111,0.059-0.221,0.117-0.334,0.171
				c-0.033,0.016-0.075,0.062-0.109,0.011c-0.043-0.065,0.023-0.08,0.062-0.104c0.041-0.024,0.083-0.048,0.129-0.075
				c-0.013-0.012-0.02-0.023-0.026-0.023c-0.09-0.006-0.202,0.122-0.259,0.012C21.157,14.463,21.338,14.447,21.367,14.354z"/>
			<path fill-rule="evenodd" clip-rule="evenodd" fill="#C1A83A" d="M17.067,13.245c-0.107,0.174-0.242,0.095-0.374,0.041
				c-0.003-0.079,0.054-0.135,0.081-0.207c-0.044-0.075-0.188,0-0.197-0.132c-0.007-0.104,0.129-0.082,0.135-0.168
				c0.117,0.004,0.233,0.005,0.35,0c-0.018,0.034,0.001,0.048,0.031,0.056c0.068,0.019,0.116,0.058,0.099,0.131
				c-0.018,0.076-0.084,0.078-0.149,0.074c-0.025-0.001-0.051,0.003-0.079,0.005C16.962,13.137,17.046,13.175,17.067,13.245z"/>
			<path fill-rule="evenodd" clip-rule="evenodd" fill="#FECD0E" d="M18.878,12.083c-0.023,0.029-0.034,0.046-0.048,0.059
				c-0.06,0.054-0.031,0.229-0.149,0.171c-0.082-0.041,0.03-0.153,0.054-0.233c0.02-0.066,0.052-0.129,0.083-0.191
				c0.023-0.044,0.023-0.123,0.106-0.101c0.067,0.018,0.072,0.076,0.074,0.135c0.003,0.065,0.009,0.131,0.02,0.265
				c0.036-0.07,0.042-0.092,0.056-0.105c0.051-0.052,0.024-0.21,0.139-0.157c0.08,0.037-0.009,0.139-0.04,0.199
				c-0.058,0.113-0.054,0.285-0.193,0.321c-0.086,0.023-0.053-0.104-0.067-0.165C18.899,12.22,18.891,12.159,18.878,12.083z"/>
			<path fill-rule="evenodd" clip-rule="evenodd" fill="#FECD0F" d="M14.735,21.26c-0.006,0.013-0.012,0.033-0.022,0.051
				c-0.039,0.067-0.026,0.118,0.047,0.15c0.076,0.034,0.096-0.024,0.121-0.073c0.021-0.041,0.034-0.106,0.099-0.075
				s0.021,0.082,0.001,0.124c-0.034,0.076-0.079,0.148-0.103,0.227c-0.056,0.188-0.149,0.215-0.315,0.114
				c-0.173-0.105-0.116-0.195-0.023-0.316c0.052-0.067,0.067-0.163,0.1-0.245c0.011-0.028,0.033-0.044,0.065-0.031
				C14.735,21.198,14.744,21.223,14.735,21.26z"/>
			<path fill-rule="evenodd" clip-rule="evenodd" fill="#FECC0B" d="M21.187,19.734c-0.006-0.016-0.01-0.029-0.017-0.041
				c-0.044-0.082-0.246-0.087-0.164-0.204c0.055-0.078,0.156,0.067,0.229,0.117c0.087,0.06,0.259,0.11,0.226,0.21
				c-0.046,0.137-0.206,0.033-0.316,0.039c-0.013,0.001-0.026,0.004-0.038,0.006c0,0.007-0.002,0.016,0,0.021
				c0.032,0.091,0.243,0.087,0.157,0.208c-0.049,0.068-0.157-0.067-0.229-0.119c-0.086-0.062-0.261-0.113-0.225-0.209
				c0.053-0.136,0.208-0.009,0.317-0.021C21.146,19.737,21.166,19.736,21.187,19.734z"/>
			<path fill-rule="evenodd" clip-rule="evenodd" fill="#FECD10" d="M20.228,21.115c-0.022-0.012-0.073-0.021-0.092-0.05
				c-0.07-0.109-0.144-0.213-0.241-0.301c-0.026-0.024-0.042-0.059-0.012-0.091c0.044-0.047,0.069-0.007,0.098,0.024
				c0.045,0.05,0.083,0.118,0.168,0.05c0.093-0.074,0.012-0.117-0.023-0.167c-0.027-0.038-0.047-0.073,0-0.104
				c0.04-0.026,0.063,0.007,0.083,0.034c0.094,0.111,0.189,0.221,0.276,0.338C20.533,20.91,20.35,21.109,20.228,21.115z"/>
			<path fill-rule="evenodd" clip-rule="evenodd" fill="#FECD0E" d="M21.755,15.742c-0.048,0.012-0.103,0.032-0.11-0.044
				c-0.006-0.06,0.048-0.058,0.087-0.066c0.089-0.018,0.178-0.034,0.267-0.052c0.204-0.041,0.304,0.058,0.271,0.265
				c-0.012,0.072-0.059,0.125-0.122,0.124c-0.121-0.004-0.229,0.031-0.341,0.064c-0.041,0.013-0.087,0.025-0.104-0.03
				c-0.018-0.062,0.037-0.063,0.076-0.072c0.075-0.018,0.133-0.047,0.109-0.142C21.866,15.706,21.81,15.727,21.755,15.742z"/>
			<path fill-rule="evenodd" clip-rule="evenodd" fill="#FECC0A" d="M13.018,19.833c-0.024,0.023-0.046,0.047-0.073,0.066
				c-0.073,0.054-0.147,0.106-0.223,0.157c-0.091,0.063-0.175,0.175-0.274-0.006c-0.08-0.146-0.125-0.255,0.082-0.32
				c0.033-0.011,0.056-0.057,0.083-0.087c0.063-0.072,0.144-0.1,0.224-0.05C12.921,19.645,12.967,19.735,13.018,19.833z"/>
			<path fill-rule="evenodd" clip-rule="evenodd" fill="#FECD12" d="M15.603,11.662c-0.001-0.056-0.021-0.115,0.048-0.127
				c0.094-0.018,0.189-0.058,0.282,0.004c0.125,0.084,0.165,0.375,0.067,0.494c-0.065,0.078-0.159,0.084-0.247,0.084
				c-0.104,0-0.077-0.1-0.093-0.157C15.63,11.86,15.619,11.755,15.603,11.662z"/>
			<path fill-rule="evenodd" clip-rule="evenodd" fill="#FECD0E" d="M21.679,15.105c-0.127,0.015-0.095,0.09-0.071,0.167
				c0.013,0.042,0.065,0.098-0.005,0.125c-0.065,0.025-0.067-0.048-0.085-0.089c-0.101-0.237-0.101-0.237,0.147-0.324
				c0.033-0.011,0.065-0.023,0.099-0.034c0.241-0.083,0.301-0.046,0.335,0.203c0.005,0.037,0.013,0.072-0.03,0.086
				c-0.047,0.015-0.058-0.028-0.071-0.057c-0.016-0.03-0.021-0.066-0.035-0.098c-0.013-0.031-0.024-0.071-0.071-0.056
				c-0.043,0.014-0.061,0.04-0.049,0.095c0.011,0.054,0.086,0.133,0.005,0.164c-0.104,0.039-0.08-0.084-0.114-0.133
				C21.718,15.129,21.708,15.106,21.679,15.105z"/>
			<path fill-rule="evenodd" clip-rule="evenodd" fill="#FECD0E" d="M17.118,11.731c0.003-0.042,0.012-0.083,0.008-0.124
				c-0.021-0.209,0.102-0.215,0.257-0.189c0.178,0.029,0.194,0.136,0.132,0.271c-0.039,0.084,0.013,0.164-0.01,0.244
				c-0.011,0.037-0.001,0.094-0.062,0.085c-0.041-0.005-0.042-0.049-0.041-0.084c0.003-0.072,0.005-0.141-0.096-0.149
				c-0.099-0.008-0.085,0.067-0.096,0.125c-0.006,0.034-0.006,0.077-0.05,0.077c-0.059,0-0.056-0.049-0.054-0.091
				C17.11,11.842,17.114,11.787,17.118,11.731z"/>
			<path fill-rule="evenodd" clip-rule="evenodd" fill="#FECD11" d="M12.171,14.8c-0.026,0.07-0.037,0.104-0.052,0.134
				c-0.021,0.045-0.019,0.081,0.029,0.104c0.057,0.027,0.093,0.007,0.112-0.051c0.009-0.026,0.023-0.05,0.033-0.077
				c0.016-0.042,0.035-0.085,0.088-0.056c0.04,0.021,0.015,0.06,0.006,0.093c-0.069,0.26-0.102,0.275-0.35,0.171
				c-0.038-0.016-0.076-0.034-0.115-0.051c-0.183-0.076-0.214-0.246-0.071-0.389c0.013-0.012,0.035-0.025,0.051-0.022
				c0.031,0.005,0.044,0.032,0.036,0.063c-0.007,0.027-0.018,0.053-0.024,0.08c-0.012,0.048-0.076,0.103,0.008,0.141
				c0.089,0.041,0.078-0.051,0.104-0.089c0.025-0.038,0.027-0.104,0.098-0.08C12.151,14.78,12.169,14.804,12.171,14.8z"/>
			<path fill-rule="evenodd" clip-rule="evenodd" fill="#FECE14" d="M11.741,16.787c-0.071-0.005-0.113-0.008-0.155-0.011
				c-0.184-0.015-0.247-0.142-0.151-0.306c0.068-0.117,0.274-0.145,0.438-0.066c0.158,0.075,0.161,0.214,0.116,0.339
				C11.937,16.886,11.802,16.748,11.741,16.787z"/>
			<path fill-rule="evenodd" clip-rule="evenodd" fill="#FECD0F" d="M18.302,11.582c0.028,0.008,0.056,0.014,0.082,0.025
				c0.058,0.025,0.171,0.01,0.153,0.098c-0.017,0.081-0.103,0.015-0.157,0.007c-0.042-0.006-0.085-0.023-0.106,0.029
				c-0.029,0.072,0.033,0.072,0.074,0.094c0.042,0.022,0.132,0.01,0.108,0.094c-0.026,0.088-0.094,0.028-0.139,0.017
				c-0.063-0.016-0.105-0.019-0.124,0.058c-0.019,0.079,0.049,0.066,0.085,0.089c0.045,0.03,0.157,0.005,0.126,0.093
				c-0.027,0.076-0.109,0.006-0.166,0.001c-0.178-0.015-0.21-0.109-0.143-0.264c0.036-0.083,0.054-0.173,0.077-0.26
				C18.19,11.591,18.224,11.551,18.302,11.582z"/>
			<path fill-rule="evenodd" clip-rule="evenodd" fill="#FECD0F" d="M21.835,19.202c-0.06,0.102-0.106,0.195-0.168,0.278
				c-0.023,0.032-0.068,0.004-0.066-0.039c0.001-0.032,0.027-0.063,0.036-0.096c0.012-0.045,0.087-0.096,0.002-0.14
				c-0.065-0.034-0.08,0.03-0.108,0.066c-0.028,0.034-0.031,0.112-0.096,0.085c-0.081-0.035-0.025-0.093-0.004-0.139
				c0.024-0.051,0.062-0.099-0.019-0.136c-0.082-0.038-0.09,0.035-0.121,0.076c-0.03,0.038-0.037,0.13-0.108,0.091
				c-0.074-0.041,0.006-0.096,0.021-0.142c0.055-0.176,0.154-0.223,0.313-0.103c0.066,0.05,0.148,0.078,0.22,0.12
				C21.771,19.142,21.798,19.171,21.835,19.202z"/>
			<path fill-rule="evenodd" clip-rule="evenodd" fill="#FECE12" d="M11.997,17.347c-0.099,0.267-0.129,0.226,0.093,0.416
				c-0.206,0.045-0.39-0.013-0.57-0.047c-0.088-0.017-0.092-0.102-0.003-0.146C11.674,17.49,11.836,17.42,11.997,17.347z"/>
			<path fill-rule="evenodd" clip-rule="evenodd" fill="#FECE13" d="M11.845,15.825c-0.006,0.06-0.037,0.132,0.063,0.143
				c0.083,0.01,0.076-0.06,0.092-0.111c0.015-0.046-0.01-0.134,0.076-0.116c0.063,0.014,0.024,0.081,0.023,0.126
				c-0.003,0.2-0.084,0.281-0.284,0.2c-0.038-0.015-0.082-0.014-0.123-0.022c-0.244-0.051-0.268-0.097-0.174-0.335
				c0.012-0.031,0.017-0.074,0.063-0.069c0.064,0.006,0.041,0.059,0.04,0.097c0,0.021-0.005,0.041-0.012,0.062
				c-0.014,0.049-0.026,0.101,0.042,0.116c0.075,0.018,0.063-0.054,0.082-0.093c0.019-0.039-0.003-0.112,0.069-0.108
				C11.876,15.719,11.855,15.778,11.845,15.825z"/>
			<path fill-rule="evenodd" clip-rule="evenodd" fill="#FECE14" d="M21.797,17.765c-0.034,0.003-0.075,0.016-0.095-0.019
				c-0.021-0.038,0.007-0.061,0.042-0.079c0.12-0.062,0.151-0.137,0.035-0.234c-0.028-0.023-0.05-0.053-0.017-0.087
				c0.024-0.026,0.051-0.006,0.075,0.006c0.14,0.064,0.278,0.128,0.417,0.193c0.04,0.019,0.068,0.048,0.055,0.099
				c-0.011,0.042-0.043,0.052-0.078,0.058C22.086,17.723,21.941,17.743,21.797,17.765z"/>
			<path fill-rule="evenodd" clip-rule="evenodd" fill="#FECD11" d="M16.359,11.67c0.002-0.116,0.045-0.242,0.221-0.26
				c0.14-0.015,0.245,0.116,0.247,0.296c0.002,0.152-0.041,0.278-0.22,0.292C16.458,12.011,16.363,11.893,16.359,11.67z"/>
			<path fill-rule="evenodd" clip-rule="evenodd" fill="#FECE17" d="M12.914,13.361c-0.019,0.014-0.033,0.034-0.052,0.037
				c-0.067,0.014-0.173,0.021-0.136,0.108c0.042,0.098,0.115,0.006,0.167-0.026c0.08-0.051,0.154-0.062,0.226,0.01
				c0.055,0.054,0.074,0.119,0.045,0.191c-0.034,0.082-0.092,0.14-0.188,0.142c-0.036,0-0.074-0.007-0.087-0.043
				c-0.017-0.045,0.019-0.06,0.055-0.063c0.076-0.008,0.159-0.036,0.117-0.123c-0.05-0.106-0.116-0.009-0.167,0.021
				c-0.088,0.052-0.167,0.073-0.239-0.019c-0.062-0.078-0.051-0.155,0.01-0.228C12.735,13.284,12.783,13.281,12.914,13.361z"/>
			<path fill-rule="evenodd" clip-rule="evenodd" fill="#FECE12" d="M13.004,20.7c-0.001-0.001-0.012-0.019-0.021-0.037
				c-0.017-0.033,0.009-0.053,0.027-0.071c0.06-0.059,0.121-0.115,0.181-0.173c0.049-0.048,0.119-0.1,0.057-0.174
				c-0.068-0.08-0.125-0.006-0.175,0.037c-0.063,0.054-0.123,0.114-0.185,0.169c-0.025,0.022-0.052,0.054-0.087,0.021
				c-0.044-0.041-0.013-0.076,0.019-0.104c0.082-0.076,0.159-0.157,0.248-0.223c0.114-0.086,0.255-0.041,0.305,0.088
				C13.412,20.334,13.137,20.709,13.004,20.7z"/>
			<path fill-rule="evenodd" clip-rule="evenodd" fill="#FECD0D" d="M14.277,21.082c-0.007-0.063-0.086-0.064-0.13-0.103
				c-0.027-0.024-0.061-0.048-0.041-0.083c0.021-0.038,0.057-0.021,0.091-0.007c0.23,0.091,0.252,0.156,0.116,0.37
				c-0.019,0.029-0.034,0.061-0.052,0.091c-0.136,0.218-0.175,0.223-0.368,0.055c-0.03-0.026-0.08-0.046-0.043-0.096
				c0.027-0.037,0.062-0.009,0.092,0.007c0.018,0.011,0.035,0.022,0.053,0.033c0.043,0.027,0.09,0.058,0.126-0.001
				c0.038-0.063-0.025-0.081-0.06-0.111c-0.035-0.032-0.125-0.046-0.064-0.121c0.047-0.058,0.085,0.009,0.125,0.026
				C14.213,21.182,14.274,21.165,14.277,21.082z"/>
			<path fill-rule="evenodd" clip-rule="evenodd" fill="#E9BF10" d="M20.013,13.122c-0.039,0.176-0.171,0.312-0.209,0.492
				c-0.023,0.113-0.131,0.02-0.191,0.053c-0.105,0.036-0.14,0.002-0.104-0.104c-0.021-0.122,0.006-0.196,0.145-0.239
				c0.128-0.04,0.24-0.134,0.358-0.204L20.013,13.122z"/>
			<path fill-rule="evenodd" clip-rule="evenodd" fill="#0D18AA" d="M17.026,20.8c0.099-0.003,0.163,0.059,0.226,0.122
				c0.054,0.096,0.113,0.189,0.16,0.288c0.035,0.073,0.055,0.152,0.088,0.249c-0.125-0.024-0.209-0.271-0.329,0.004
				C17.124,21.213,17.143,20.991,17.026,20.8z"/>
			<path fill-rule="evenodd" clip-rule="evenodd" fill="#FECD11" d="M20.972,14.149c-0.035-0.153,0.035-0.329-0.215-0.294
				c-0.009,0.001-0.036-0.034-0.032-0.042c0.011-0.021,0.029-0.047,0.05-0.056c0.143-0.056,0.286-0.106,0.429-0.16
				c0.035-0.013,0.067-0.014,0.094,0.017c0.033,0.038,0.03,0.077,0.002,0.114C21.19,13.869,21.081,14.009,20.972,14.149z"/>
			<path fill-rule="evenodd" clip-rule="evenodd" fill="#FECD0F" d="M19.278,21.06c0.201,0.077,0.313,0.021,0.327-0.242
				c0.124,0.221,0.156,0.409,0.191,0.592c0.012,0.063-0.059,0.109-0.111,0.065C19.54,21.355,19.391,21.235,19.278,21.06z"/>
			<path fill-rule="evenodd" clip-rule="evenodd" fill="#FECD0F" d="M13.541,20.702c0.095,0.037,0.208,0.143,0.296-0.026
				c0.003-0.006,0.041-0.002,0.054,0.009c0.027,0.021,0.016,0.052-0.001,0.073c-0.101,0.124-0.199,0.25-0.307,0.368
				c-0.059,0.065-0.097-0.012-0.136-0.04c-0.083-0.058-0.15-0.128-0.107-0.243C13.373,20.756,13.436,20.709,13.541,20.702z"/>
			<path fill-rule="evenodd" clip-rule="evenodd" fill="#FECC0B" d="M20.012,13.12c0.097-0.193,0.304-0.243,0.468-0.341
				c0.073-0.043,0.112,0.054,0.075,0.132c-0.072,0.155-0.149,0.308-0.247,0.473c-0.012-0.204-0.086-0.316-0.295-0.262L20.012,13.12z
				"/>
			<path fill-rule="evenodd" clip-rule="evenodd" fill="#FECD0D" d="M15.468,12.237c-0.202-0.124-0.333-0.112-0.385,0.118
				c-0.023-0.009-0.045-0.018-0.068-0.027c0-0.188-0.007-0.376,0.004-0.563c0.004-0.07,0.078-0.092,0.12-0.033
				C15.246,11.879,15.372,12.016,15.468,12.237z"/>
			<path fill-rule="evenodd" clip-rule="evenodd" fill="#E9C015" d="M17.062,12.779c-0.116,0.108-0.232,0.113-0.349,0
				c0.054-0.179,0.107-0.358,0.161-0.536C16.922,12.432,17.038,12.59,17.062,12.779z"/>
			<path fill-rule="evenodd" clip-rule="evenodd" fill="#FECE16" d="M11.879,18.529c-0.117,0.003-0.201-0.03-0.243-0.12
				c-0.034-0.071-0.031-0.148,0.025-0.215c0.023-0.028,0.051-0.054,0.087-0.037c0.042,0.02,0.028,0.054,0.006,0.085
				c-0.048,0.07-0.047,0.14,0.037,0.169c0.106,0.038,0.211,0.002,0.278-0.087c0.054-0.071,0.012-0.13-0.066-0.161
				c-0.036-0.014-0.063-0.04-0.039-0.076c0.021-0.033,0.063-0.023,0.096-0.014c0.137,0.041,0.188,0.208,0.095,0.319
				C12.08,18.484,11.974,18.516,11.879,18.529z"/>
			<path fill-rule="evenodd" clip-rule="evenodd" fill="#FECF17" d="M21.781,18.812c0.029-0.096,0.196-0.074,0.15-0.202
				c-0.028-0.078-0.102-0.113-0.179-0.124c-0.12-0.016-0.221-0.002-0.156,0.163c0.013,0.034,0.031,0.069-0.009,0.089
				c-0.035,0.017-0.068-0.014-0.085-0.042c-0.052-0.084-0.061-0.177,0.01-0.25c0.136-0.142,0.282-0.072,0.416,0.006
				c0.098,0.058,0.15,0.15,0.101,0.265C21.983,18.824,21.902,18.864,21.781,18.812z"/>
			<path fill-rule="evenodd" clip-rule="evenodd" fill="#FECF19" d="M14.529,12.385c-0.031-0.157-0.05-0.253-0.069-0.348
				c-0.007-0.036-0.013-0.073,0.03-0.087c0.047-0.016,0.061,0.018,0.068,0.055c0.029,0.151,0.058,0.302,0.086,0.452
				c0.006,0.036,0.004,0.071-0.034,0.09c-0.04,0.02-0.067-0.006-0.091-0.03c-0.106-0.111-0.212-0.223-0.317-0.334
				c-0.024-0.025-0.053-0.053-0.012-0.086c0.033-0.026,0.062-0.014,0.089,0.017C14.349,12.191,14.42,12.266,14.529,12.385z"/>
			<path fill-rule="evenodd" clip-rule="evenodd" fill="#FECE13" d="M22.179,17.092c-0.024-0.045-0.018-0.071,0.006-0.089
				c0.072-0.054,0.108-0.123,0.027-0.188c-0.09-0.072-0.198-0.068-0.29,0c-0.073,0.055-0.05,0.12,0.018,0.171
				c0.029,0.022,0.052,0.051,0.022,0.086c-0.03,0.036-0.063,0.005-0.093-0.01c-0.018-0.009-0.034-0.024-0.047-0.04
				c-0.067-0.079-0.078-0.169-0.014-0.248c0.101-0.125,0.244-0.122,0.384-0.087c0.1,0.025,0.175,0.09,0.171,0.207
				C22.357,17.015,22.291,17.077,22.179,17.092z"/>
			<path fill-rule="evenodd" clip-rule="evenodd" fill="#F4C601" d="M12.981,15.048c0.039,0.047,0.097,0.06,0.15,0.058
				c0.197-0.005,0.273,0.106,0.292,0.281c-0.039,0.014-0.078,0.028-0.117,0.042c-0.24,0.005-0.262-0.242-0.4-0.356
				c-0.015-0.012,0.045-0.025,0.076-0.025H12.981z"/>
			<path fill-rule="evenodd" clip-rule="evenodd" fill="#BCA545" d="M19.509,13.563c0.003,0.066,0.037,0.101,0.104,0.104
				c-0.002,0.025,0.004,0.07-0.005,0.074c-0.048,0.017-0.125,0.007-0.061,0.096c0.066,0.09,0.112,0.029,0.158-0.041
				c0.046,0.172-0.082,0.148-0.159,0.177c-0.069-0.041-0.179-0.054-0.107-0.184c0.02-0.034,0.001-0.044-0.119,0.004
				c0.024-0.049,0.018-0.085-0.029-0.122c-0.056-0.043-0.104-0.098-0.037-0.169c0.078-0.083,0.129-0.016,0.185,0.036
				C19.455,13.551,19.484,13.554,19.509,13.563z"/>
			<path fill-rule="evenodd" clip-rule="evenodd" fill="#F7C801" d="M20.437,15.389c-0.031-0.016-0.061-0.032-0.092-0.048
				c0.03-0.152,0.11-0.239,0.278-0.233c0.06,0.003,0.126-0.01,0.173-0.061l-0.003,0.001c0.035,0,0.108-0.017,0.058,0.049
				c-0.076,0.098-0.165,0.185-0.23,0.292C20.565,15.48,20.498,15.386,20.437,15.389z"/>
			<path fill-rule="evenodd" clip-rule="evenodd" fill="#E2E4E3" d="M18.128,21.038c-0.307-0.084-0.615-0.162-0.906-0.297
				c0.043-0.025,0.086-0.05,0.129-0.074c0.107-0.007,0.213,0.013,0.291,0.083c0.154,0.139,0.339,0.203,0.533,0.25
				C18.16,21.013,18.144,21.026,18.128,21.038z"/>
			<path fill-rule="evenodd" clip-rule="evenodd" fill="#FECF17" d="M12.08,14.266c0.082,0.046,0.164,0.084,0.238,0.133
				c0.098,0.064,0.183,0.109,0.241-0.043c0.011-0.028,0.033-0.068,0.077-0.046c0.047,0.023,0.038,0.061,0.021,0.105
				c-0.075,0.208-0.134,0.233-0.322,0.126c-0.09-0.051-0.179-0.105-0.27-0.156c-0.036-0.02-0.053-0.045-0.032-0.082
				C12.042,14.288,12.063,14.279,12.08,14.266z"/>
			<path fill-rule="evenodd" clip-rule="evenodd" fill="#FECF14" d="M19.87,12.282c0.048,0.018,0.064,0.047,0.032,0.094
				c-0.047,0.069-0.09,0.142-0.143,0.206c-0.072,0.087-0.106,0.162,0.025,0.226c0.038,0.019,0.074,0.049,0.04,0.097
				c-0.035,0.048-0.071,0.014-0.107-0.005c-0.217-0.114-0.222-0.134-0.083-0.335c0.052-0.074,0.104-0.148,0.155-0.222
				C19.81,12.313,19.828,12.283,19.87,12.282z"/>
			<path fill-rule="evenodd" clip-rule="evenodd" fill="#FECF17" d="M19.27,21.683c0.006,0.044-0.002,0.067-0.034,0.077
				c-0.032,0.009-0.054-0.002-0.067-0.03c-0.027-0.056-0.051-0.113-0.079-0.169c-0.054-0.106-0.068-0.279-0.263-0.151
				c-0.045,0.029-0.09-0.013-0.072-0.058c0.034-0.086,0.138-0.077,0.206-0.122c0.036-0.023,0.086-0.031,0.109,0.015
				C19.141,21.392,19.207,21.544,19.27,21.683z"/>
			<path fill-rule="evenodd" clip-rule="evenodd" fill="#FECE12" d="M12.165,19.546c-0.02-0.01-0.041-0.016-0.053-0.029
				c-0.021-0.025-0.015-0.054,0.013-0.07c0.06-0.036,0.12-0.07,0.181-0.102c0.107-0.057,0.252-0.093,0.121-0.263
				c-0.022-0.027-0.012-0.066,0.029-0.082c0.034-0.013,0.049,0.015,0.067,0.034c0.147,0.155,0.129,0.255-0.062,0.356
				C12.363,19.442,12.266,19.494,12.165,19.546z"/>
			<path fill-rule="evenodd" clip-rule="evenodd" fill="#FECE11" d="M13.667,12.436c0.076,0.001,0.081,0.072,0.118,0.107
				c0.1,0.094,0.118,0.355,0.354,0.165c0.032-0.026,0.078,0.027,0.067,0.05c-0.037,0.087-0.132,0.115-0.202,0.169
				c-0.071,0.055-0.096-0.01-0.126-0.053c-0.076-0.107-0.149-0.216-0.225-0.324C13.621,12.505,13.61,12.466,13.667,12.436z"/>
			<path fill-rule="evenodd" clip-rule="evenodd" fill="#FECD11" d="M20.718,20.664c0.082-0.142,0.022-0.226-0.079-0.303
				c-0.055-0.042-0.101-0.096-0.151-0.145c-0.021-0.022-0.034-0.05-0.015-0.075c0.029-0.037,0.062-0.017,0.089,0.008
				c0.062,0.056,0.121,0.115,0.183,0.171c0.057,0.053,0.106,0.147,0.198,0.038c0.019-0.022,0.051-0.021,0.069,0.009
				c0.018,0.028,0.01,0.055-0.013,0.074C20.915,20.518,20.859,20.63,20.718,20.664z"/>
			<path fill-rule="evenodd" clip-rule="evenodd" fill="#222A96" d="M17.625,14.905c-0.132-0.165-0.23-0.35-0.315-0.542
				c0.086-0.045,0.034-0.143,0.088-0.217C17.49,14.401,17.62,14.633,17.625,14.905z"/>
			<path fill-rule="evenodd" clip-rule="evenodd" fill="#BCA64E" d="M14.164,13.67c0.049-0.008,0.094-0.02,0.083-0.086
				c0.039-0.017,0.079-0.034,0.118-0.051c-0.008,0.065-0.005,0.124,0.081,0.131c-0.017,0.036-0.035,0.071-0.052,0.107
				c-0.098-0.069-0.109,0.01-0.107,0.072c0.002,0.06,0.009,0.11-0.063,0.13C13.992,13.927,13.983,13.886,14.164,13.67z"/>
			<path fill-rule="evenodd" clip-rule="evenodd" fill="#FED01E" d="M21.917,16.391c-0.056-0.01-0.15,0.039-0.161-0.036
				c-0.015-0.104,0.091-0.076,0.152-0.082c0.117-0.013,0.234-0.019,0.351-0.028c0.041-0.003,0.069,0.009,0.075,0.051
				c0.005,0.048-0.031,0.055-0.066,0.06C22.151,16.367,22.034,16.378,21.917,16.391z"/>
			<path fill-rule="evenodd" clip-rule="evenodd" fill="#FECF17" d="M12.38,18.746c-0.009,0.012-0.018,0.035-0.033,0.042
				c-0.153,0.066-0.306,0.131-0.46,0.193c-0.012,0.005-0.04-0.009-0.049-0.022c-0.017-0.023-0.021-0.061,0.008-0.073
				c0.159-0.068,0.318-0.134,0.479-0.196C12.354,18.679,12.373,18.709,12.38,18.746z"/>
			<path fill-rule="evenodd" clip-rule="evenodd" fill="#BEB0AF" d="M13.561,14.969c-0.014,0.014-0.025,0.035-0.042,0.041
				c-0.092,0.035-0.21,0.118-0.274,0.013c-0.046-0.076,0.077-0.136,0.142-0.19C13.433,14.893,13.477,14.956,13.561,14.969z"/>
			<path fill-rule="evenodd" clip-rule="evenodd" fill="#C05648" d="M12.613,17.145c-0.015-0.007-0.029-0.014-0.043-0.021
				c0.127-0.176,0.206-0.069,0.283,0.049c0.05,0.054-0.021,0.058-0.035,0.084C12.714,17.286,12.678,17.189,12.613,17.145z"/>
			<path fill-rule="evenodd" clip-rule="evenodd" fill="#BDADAA" d="M20.409,14.88c0.081,0.016,0.158,0.065,0.128,0.146
				c-0.025,0.069-0.118,0.043-0.182,0.021c-0.05-0.017-0.109-0.024-0.138-0.081c0.024,0,0.049,0,0.073,0
				C20.31,14.91,20.364,14.902,20.409,14.88z"/>
			<path fill-rule="evenodd" clip-rule="evenodd" fill="#748472" d="M12.837,15.966c0.022,0.077-0.061,0.094-0.083,0.146
				c-0.062-0.134-0.101-0.274-0.123-0.436C12.74,15.764,12.693,15.93,12.837,15.966z"/>
			<path fill-rule="evenodd" clip-rule="evenodd" fill="#BE5848" d="M20.968,17.225c-0.017-0.001-0.033-0.002-0.049-0.004
				c0.004-0.008,0.008-0.016,0.012-0.023c0.039-0.013,0.047-0.042,0.048-0.079c0-0.054,0.026-0.095,0.081-0.094
				c0.083,0,0.093,0.06,0.083,0.127l0.003-0.004C21.097,17.195,21.063,17.282,20.968,17.225z"/>
			<path fill-rule="evenodd" clip-rule="evenodd" fill="#AD4B41" d="M20.591,14.833l-0.015,0.003l-0.015-0.004
				c-0.008-0.075-0.012-0.151-0.025-0.225c-0.009-0.048,0.002-0.084,0.045-0.101c0.021-0.009,0.058-0.003,0.076,0.011
				c0.042,0.03,0.039,0.081,0.002,0.106C20.578,14.678,20.617,14.764,20.591,14.833z"/>
			<path fill-rule="evenodd" clip-rule="evenodd" fill="#F6F6F3" d="M14.446,13.663c-0.134,0.022-0.111-0.051-0.081-0.131
				c0.046-0.024,0.093-0.041,0.126,0.013C14.526,13.6,14.489,13.634,14.446,13.663z"/>
			<path fill-rule="evenodd" clip-rule="evenodd" fill="#DA3E36" d="M13.206,18.525c-0.026,0.002-0.054,0.004-0.08,0.007
				c-0.055,0.005-0.093-0.017-0.106-0.071c-0.01-0.039,0.016-0.067,0.047-0.081c0.058-0.024,0.086,0.014,0.106,0.062
				c0.01,0.024,0.024,0.046,0.036,0.069c0-0.001,0.009,0.008,0.009,0.008L13.206,18.525z"/>
			<path fill-rule="evenodd" clip-rule="evenodd" fill="#D93C32" d="M20.564,18.524c0.042-0.067,0.041-0.159,0.136-0.146
				c0.04,0.006,0.074,0.051,0.058,0.095C20.724,18.559,20.646,18.527,20.564,18.524z"/>
			<path fill-rule="evenodd" clip-rule="evenodd" fill="#E83931" d="M13.609,19.59l0.001,0.02c-0.03,0.055-0.059,0.116-0.136,0.07
				c-0.037-0.022-0.055-0.063-0.02-0.102C13.51,19.516,13.561,19.541,13.609,19.59z"/>
			<path fill-rule="evenodd" clip-rule="evenodd" fill="#E63529" d="M20.165,19.609l0-0.019c0.048-0.046,0.099-0.08,0.157-0.017
				c0.037,0.04,0.017,0.08-0.019,0.103C20.226,19.726,20.196,19.662,20.165,19.609z"/>
			<path fill-rule="evenodd" clip-rule="evenodd" fill="#E9322C" d="M21.118,15.821c0.021-0.076-0.104-0.166-0.004-0.218
				c0.092-0.048,0.148,0.012,0.083,0.107c-0.023,0.035-0.073,0.056-0.083,0.107C21.115,15.818,21.118,15.821,21.118,15.821z"/>
			<path fill-rule="evenodd" clip-rule="evenodd" fill="#EA3B35" d="M13.203,14.667l-0.014,0.005
				c-0.049-0.034-0.124-0.057-0.087-0.138c0.019-0.042,0.07-0.051,0.107-0.026C13.286,14.56,13.23,14.615,13.203,14.667z"/>
			<path fill-rule="evenodd" clip-rule="evenodd" fill="#E41C12" d="M19.966,14.083c-0.05-0.028-0.135-0.017-0.128-0.109
				c0.003-0.042,0.036-0.06,0.073-0.057c0.05,0.004,0.071,0.038,0.065,0.087c-0.003,0.027-0.009,0.055-0.013,0.082L19.966,14.083z"
				/>
			<path fill-rule="evenodd" clip-rule="evenodd" fill="#DA2317" d="M13.809,14.083c0.002-0.058-0.042-0.129,0.042-0.163
				c0.035-0.014,0.07,0,0.083,0.039c0.015,0.046,0.002,0.082-0.048,0.097c-0.026,0.009-0.053,0.017-0.079,0.026L13.809,14.083z"/>
			<path fill-rule="evenodd" clip-rule="evenodd" fill="#E7221C" d="M20.409,14.88c0.003,0.087-0.056,0.091-0.119,0.086
				c-0.066-0.112,0-0.131,0.092-0.132C20.392,14.851,20.4,14.866,20.409,14.88z"/>
			<path fill-rule="evenodd" clip-rule="evenodd" fill="#FDFDFD" d="M17.523,20.118c-0.095-0.141-0.263-0.093-0.393-0.146
				c-0.068-0.028-0.107,0.078-0.115,0.146c-0.012,0.117-0.009,0.235-0.015,0.353c-0.003,0.067-0.019,0.113-0.11,0.114
				c-0.093,0.001-0.129-0.033-0.129-0.116c0-0.125,0.023-0.25-0.017-0.373c-0.032-0.099-0.081-0.174-0.193-0.104
				c-0.096,0.06-0.229,0-0.305,0.106c-0.116-0.252-0.379-0.379-0.52-0.615c-0.047-0.08-0.169-0.121-0.26-0.102
				c-0.083,0.017-0.008,0.122-0.042,0.193c-0.104-0.006-0.169-0.129-0.269-0.123c-0.076,0.32,0.033,0.582,0.263,0.814
				c-0.288,0.011-0.345-0.031-0.347-0.276c-0.003-0.276-0.068-0.519-0.278-0.716c-0.116-0.109-0.18-0.259-0.249-0.419
				c-0.08,0.104-0.063,0.215-0.08,0.339c-0.075-0.055-0.142-0.104-0.215-0.158c-0.08,0.136,0.08,0.277-0.033,0.396
				c-0.009-0.008-0.015-0.018-0.021-0.028c0.004,0.011,0.01,0.02,0.019,0.028c0.028,0.06,0.057,0.121,0.094,0.2
				c-0.141-0.041-0.224-0.118-0.288-0.216c-0.044-0.067-0.07-0.143-0.003-0.21c0.269-0.271,0.279-0.621,0.301-0.969
				c0.16,0.003,0.319,0.006,0.479,0.01c0.194,0.033,0.365,0.13,0.545,0.204c0.403,0.165,0.806,0.279,1.217,0.015
				c0.08-0.052,0.194-0.047,0.163,0.081c-0.049,0.2-0.039,0.378,0.06,0.558c0.026,0.047,0.007,0.109-0.032,0.156
				c-0.117,0.085-0.239,0.042-0.356,0.007c-0.192-0.057-0.378-0.135-0.558-0.22c-0.153-0.073-0.298-0.1-0.447,0
				c-0.12,0.023-0.254-0.024-0.386,0.095c0.114-0.007,0.204-0.053,0.292-0.021c0.294,0.14,0.581,0.294,0.894,0.398
				c0.439,0.145,0.871,0.174,1.306,0.009c0.188-0.072,0.386-0.118,0.569-0.205c0.105-0.06,0.217-0.109,0.325-0.164
				c0.035-0.02,0.073-0.033,0.112-0.039c0.08-0.015,0.154,0.037,0.235,0.021c-0.022-0.048-0.075-0.021-0.109-0.039
				c-0.075-0.014-0.16,0.014-0.224-0.032c-0.177-0.129-0.349-0.079-0.527-0.004c-0.185,0.077-0.365,0.167-0.561,0.215
				c-0.102,0.024-0.203,0.051-0.297-0.024c-0.064-0.101-0.014-0.179,0.052-0.254c0.074-0.053,0.13-0.119,0.157-0.211
				c0.041-0.139,0.132-0.203,0.283-0.182c0.367,0.051,0.704-0.054,1.027-0.212c0.139-0.067,0.282-0.118,0.432-0.151
				c0.161-0.004,0.321-0.007,0.482-0.011c0.023,0.349,0.042,0.697,0.303,0.975c0.097,0.103,0.007,0.192-0.058,0.274
				c-0.053,0.068-0.128,0.105-0.207,0.146c-0.031-0.077,0.051-0.123,0.047-0.188c0.011-0.009,0.016-0.02,0.017-0.032
				c-0.007,0.011-0.017,0.019-0.03,0.021c-0.051-0.126,0.068-0.253,0.005-0.382c-0.099,0.003-0.124,0.112-0.227,0.139
				c-0.012-0.107,0.005-0.22-0.074-0.341c-0.088,0.25-0.259,0.425-0.404,0.619c-0.113,0.15-0.114,0.338-0.124,0.521
				c-0.012,0.252-0.059,0.29-0.34,0.279c0.185-0.24,0.382-0.47,0.231-0.819c-0.067-0.016-0.131,0.115-0.237,0.129
				c-0.058-0.059,0.044-0.176-0.048-0.196c-0.093-0.021-0.216,0.025-0.261,0.103C17.907,19.724,17.63,19.85,17.523,20.118z"/>
			<path fill-rule="evenodd" clip-rule="evenodd" fill="#FDFDFD" d="M20.259,15.852c0.06-0.121,0.258-0.158,0.207-0.345
				c0.103,0.078,0.229,0.125,0.294,0.247c-0.061,0.121,0.106,0.18,0.078,0.291c0.018,0.06,0.034,0.118,0.059,0.203
				c-0.119-0.071-0.169-0.168-0.234-0.251c-0.031-0.04-0.036-0.125-0.112-0.096c-0.056,0.021-0.026,0.085-0.033,0.131
				c-0.003,0.021-0.006,0.041-0.009,0.062c-0.073,0.008-0.095-0.076-0.167-0.085c-0.008,0.018-0.022,0.035-0.021,0.051
				c0.011,0.321,0.119,0.598,0.37,0.812c0.123,0.105,0.214,0.227,0.1,0.412c-0.028-0.071-0.053-0.134-0.078-0.198
				c-0.018,0.152,0.052,0.296,0.007,0.446c-0.058-0.193-0.121-0.376-0.264-0.527c-0.106,0.109-0.088,0.242-0.114,0.361
				c-0.014-0.002-0.03-0.001-0.038-0.009c-0.061-0.05-0.097-0.18-0.185-0.134c-0.086,0.044-0.056,0.176-0.019,0.247
				c0.108,0.21,0.117,0.458,0.269,0.652c0.118,0.151,0.045,0.302-0.051,0.467c-0.007-0.087-0.013-0.153-0.018-0.217
				c-0.01-0.03-0.02-0.031-0.03,0c-0.005,0.076-0.011,0.152-0.018,0.251c-0.062-0.21-0.217-0.36-0.213-0.572
				c0-0.032-0.025-0.067-0.065-0.072c-0.051-0.007-0.073,0.031-0.087,0.071c-0.056,0.148-0.067,0.306-0.092,0.473
				c-0.105-0.105-0.126-0.231-0.146-0.351c-0.026-0.163-0.085-0.156-0.182-0.056c-0.033-0.069-0.067-0.138-0.1-0.207
				c-0.028-0.088,0-0.165,0.052-0.235c0.344-0.479,0.534-1.024,0.694-1.584C20.14,15.999,20.147,15.893,20.259,15.852z"/>
			<path fill-rule="evenodd" clip-rule="evenodd" fill="#B5574C" d="M20.838,16.044c-0.042-0.031-0.05-0.088-0.106-0.116
				c-0.158-0.079-0.084-0.133,0.028-0.175C20.821,15.841,20.923,15.918,20.838,16.044z"/>
			<path fill-rule="evenodd" clip-rule="evenodd" fill="#DFDEDF" d="M20.968,17.225c0.06-0.025,0.119-0.051,0.179-0.077
				c-0.077,0.156-0.077,0.156-0.25,0.26C20.875,17.326,20.962,17.29,20.968,17.225z"/>
			<path fill-rule="evenodd" clip-rule="evenodd" fill="#E83C33" d="M19.528,19.432c0.007-0.026,0.014-0.052,0.022-0.077
				c0.017-0.05,0.048-0.084,0.104-0.063c0.021,0.009,0.045,0.034,0.05,0.056c0.014,0.065-0.035,0.078-0.084,0.085
				c-0.026,0.004-0.053,0.007-0.08,0.01l-0.013,0V19.432z"/>
			<path fill-rule="evenodd" clip-rule="evenodd" fill="#E1221A" d="M20.27,18.372c-0.035-0.046-0.098-0.085-0.034-0.153
				c0.026-0.028,0.062-0.032,0.088-0.004c0.059,0.061,0.014,0.109-0.024,0.157l-0.015,0L20.27,18.372z"/>
			<path fill-rule="evenodd" clip-rule="evenodd" fill="#FDFDFD" d="M14.401,17.902c-0.033,0.068-0.065,0.135-0.099,0.203
				c-0.079-0.08-0.142-0.112-0.168,0.04c-0.021,0.129-0.051,0.256-0.142,0.385c-0.033-0.164-0.061-0.307-0.091-0.45
				c-0.01-0.048-0.028-0.101-0.085-0.104c-0.062-0.002-0.087,0.056-0.084,0.101c0.009,0.195-0.135,0.327-0.205,0.507
				c-0.01-0.081-0.018-0.146-0.026-0.21c0.005-0.014,0.002-0.022-0.009-0.023c-0.01,0-0.014,0.006-0.011,0.021
				c-0.007,0.06-0.014,0.122-0.022,0.196c-0.133-0.184-0.118-0.335-0.008-0.523c0.115-0.198,0.17-0.433,0.244-0.654
				c0.019-0.056,0.033-0.144-0.026-0.173c-0.075-0.036-0.114,0.046-0.157,0.097c-0.017,0.02-0.035,0.039-0.064,0.071
				c-0.023-0.107-0.043-0.198-0.063-0.289c-0.015-0.066-0.048-0.099-0.117-0.064c-0.018-0.002-0.034-0.008-0.05-0.018
				c-0.03-0.033-0.07-0.055-0.106-0.08c-0.012-0.014-0.021-0.029-0.026-0.047c0.245-0.24,0.388-0.523,0.371-0.874
				c-0.087-0.027-0.104,0.086-0.194,0.084c0-0.04,0.001-0.078-0.001-0.117c-0.002-0.033,0.008-0.074-0.035-0.088
				c-0.044-0.014-0.063,0.024-0.08,0.052c-0.066,0.107-0.137,0.209-0.241,0.294c-0.027-0.077,0.031-0.131,0.038-0.195
				c-0.04-0.114,0.136-0.174,0.073-0.293c0.057-0.104,0.164-0.148,0.253-0.214c-0.006,0.17,0.182,0.19,0.238,0.311
				c0.101,0.04,0.115,0.136,0.139,0.221c0.165,0.579,0.368,1.141,0.723,1.637C14.41,17.765,14.437,17.829,14.401,17.902z"/>
			<path fill-rule="evenodd" clip-rule="evenodd" fill="#F1F0F2" d="M13.258,16.983c0.003,0.016,0.006,0.033,0.01,0.051
				c-0.061,0.167-0.179,0.31-0.198,0.498c-0.048-0.107-0.018-0.211-0.007-0.314C13.045,17.07,13.09,16.976,13.258,16.983z"/>
			<path fill-rule="evenodd" clip-rule="evenodd" fill="#B55747" d="M13.016,15.752c0.103,0.042,0.207,0.09,0.032,0.175
				c-0.059,0.028-0.065,0.085-0.105,0.119C12.855,15.92,12.956,15.842,13.016,15.752z"/>
			<path fill-rule="evenodd" clip-rule="evenodd" fill="#FDFDFD" d="M13.026,17.177c-0.012,0.032-0.023,0.064-0.038,0.103
				c-0.1-0.167-0.05-0.291,0.097-0.39l0.005,0.005C13.193,17.017,13.087,17.092,13.026,17.177z"/>
			<path fill-rule="evenodd" clip-rule="evenodd" fill="#B6574B" d="M13.026,17.177c0.023-0.094,0.081-0.18,0.064-0.282
				c0.07,0.002,0.149-0.014,0.167,0.089c-0.082,0.064-0.166,0.126-0.195,0.234C13.051,17.204,13.038,17.19,13.026,17.177z"/>
			<path fill-rule="evenodd" clip-rule="evenodd" fill="#DDDEDC" d="M12.613,17.145c0.073,0.029,0.153,0.045,0.205,0.113
				c0.024,0.043,0.05,0.086,0.097,0.167C12.749,17.353,12.674,17.256,12.613,17.145z"/>
			<path fill-rule="evenodd" clip-rule="evenodd" fill="#E52319" d="M13.481,18.373c-0.027-0.049-0.096-0.093-0.023-0.156
				c0.028-0.023,0.063-0.032,0.088,0.003c0.045,0.067,0.013,0.115-0.044,0.154C13.501,18.375,13.481,18.373,13.481,18.373z"/>
			<path fill-rule="evenodd" clip-rule="evenodd" fill="#E32418" d="M14.218,19.431c-0.062-0.002-0.135,0.009-0.142-0.081
				c-0.002-0.035,0.031-0.065,0.069-0.061c0.09,0.01,0.082,0.077,0.074,0.141L14.218,19.431z"/>
			<path fill-rule="evenodd" clip-rule="evenodd" fill="#309900" d="M14.614,17.895c0.082-0.14,0.164-0.28,0.245-0.42
				c0.234-0.123,0.397-0.327,0.581-0.508c0.104-0.158,0.218-0.308,0.386-0.406c0.172-0.102,0.354-0.103,0.479,0.04
				c0.101,0.115,0.206,0.137,0.34,0.114c0.221,0.086,0.323,0.291,0.45,0.448c-0.008-0.116-0.229-0.158-0.139-0.333
				C17,16.796,17.05,16.793,17.103,16.8c0.171,0.022,0.156,0.211,0.266,0.298c0.126,0.099,0.281,0.186,0.301,0.294
				c-0.03-0.093-0.169-0.184-0.289-0.29c-0.088-0.079-0.116-0.151-0.041-0.249c0.255-0.136,0.466-0.052,0.658,0.131
				c0.014,0.015,0.025,0.032,0.034,0.051c0.065,0.281,0.313,0.361,0.526,0.475c0.07,0.037,0.17,0.033,0.162,0.151
				c-0.1,0.114-0.214,0.113-0.336,0.042c-0.165-0.14-0.413-0.184-0.461-0.388c0.052,0.114,0.167,0.222,0.326,0.294
				c0.042,0.019,0.167,0.04,0.105,0.155c-0.149,0.097-0.323,0.076-0.487,0.103c-0.443,0.069-0.888,0.088-1.336,0.081
				c-0.551-0.009-1.101,0.006-1.65,0.034C14.782,17.986,14.682,17.989,14.614,17.895z"/>
			<path fill-rule="evenodd" clip-rule="evenodd" fill="#FEFEFD" d="M17.988,17.039c-0.06-0.001-0.101-0.036-0.141-0.074
				c-0.133-0.125-0.347-0.146-0.509-0.049c-0.09,0.017-0.126-0.051-0.168-0.109c-0.025-0.071,0.016-0.137,0.025-0.205
				c0.021-0.149,0.119-0.196,0.268-0.155c0.108,0.029,0.206,0.087,0.288,0.101c-0.125-0.043-0.276-0.101-0.431-0.156
				c0.042-0.103,0.116-0.038,0.155-0.061c-0.039-0.019-0.125,0.033-0.146-0.04c-0.016-0.052,0.052-0.071,0.1-0.084
				c0.127-0.006,0.084-0.074,0.049-0.138c-0.019-0.072-0.046-0.142-0.07-0.212c-0.015-0.043-0.046-0.073-0.083-0.098
				c-0.087-0.08-0.191-0.085-0.301-0.074c-0.044-0.018-0.015-0.094-0.078-0.095c-0.043,0.062-0.072,0.139-0.174,0.092
				c-0.091-0.041-0.102,0.028-0.109,0.093c-0.01,0.04-0.028,0.073-0.068,0.089c-0.116-0.035-0.216-0.017-0.29,0.087
				c-0.02,0.038-0.006,0.078-0.005,0.119c-0.018,0.079,0.001,0.135,0.092,0.147c0.046,0.033,0.106,0.094,0.011,0.104
				c-0.104,0.011-0.201,0.052-0.28,0.051c0.111-0.015,0.26-0.115,0.367,0.07c0.071,0.124,0.267,0.114,0.315,0.271
				c-0.024,0.053-0.07,0.051-0.117,0.045c-0.068,0.026-0.153-0.018-0.211,0.055c-0.042,0.053-0.063,0.008-0.09-0.025
				c-0.253-0.299-0.42-0.306-0.688-0.025c-0.081,0.083-0.152,0.176-0.228,0.264c-0.111,0.055-0.223,0.112-0.322-0.02
				c0.258-0.456,0.517-0.913,0.776-1.369c0.404-0.405,1.29-0.41,1.747-0.135c0.067,0.04,0.126,0.087,0.162,0.158
				c0.286,0.438,0.535,0.897,0.79,1.354C18.416,17.178,18.202,17.117,17.988,17.039z"/>
			<path fill-rule="evenodd" clip-rule="evenodd" fill="#0D17AC" d="M17.988,17.039c0.21-0.022,0.424,0.023,0.634-0.023
				c0.241,0.316,0.398,0.681,0.629,1.036c-1.587,0-3.142,0-4.704,0c-0.019-0.062,0.041-0.104,0.066-0.157
				c0.836-0.018,1.673-0.028,2.51-0.042c0.414-0.007,0.839-0.036,1.245-0.161l0.003-0.004c0.119-0.021,0.244,0.012,0.358-0.043
				c-0.124-0.145-0.304-0.202-0.461-0.295c-0.126-0.075-0.235-0.158-0.286-0.301L17.988,17.039z"/>
			<path fill-rule="evenodd" clip-rule="evenodd" fill="#0C17AC" d="M16.743,19.242c-0.003-0.041,0.01-0.097-0.013-0.121
				c-0.195-0.208-0.183-0.424-0.024-0.665c-0.419,0.383-0.857,0.271-1.297,0.104c-0.214-0.081-0.421-0.178-0.608-0.313
				c0.312-0.032,0.624-0.029,0.936-0.001c0.31,0.207,0.622,0.166,0.932,0.001c0.141-0.029,0.281-0.03,0.422,0
				c0.122,0.049,0.249,0.083,0.371,0.131c0.217,0.087,0.381-0.075,0.567-0.131c0.315-0.032,0.63-0.032,0.944,0
				c-0.313,0.21-0.654,0.356-1.021,0.439c-0.094,0.021-0.193,0.027-0.289,0.025c-0.251-0.004-0.252-0.008-0.377,0.209
				c-0.039,0.067-0.115,0.072-0.167,0.117c-0.1-0.002-0.068-0.084-0.077-0.136c-0.015-0.081-0.012-0.166-0.101-0.23
				c-0.104,0.125-0.084,0.267-0.075,0.407c0.005,0.078,0.066,0.16-0.019,0.23C16.794,19.317,16.737,19.327,16.743,19.242z"/>
			<path fill-rule="evenodd" clip-rule="evenodd" fill="#0D18AD" d="M20.259,15.852c-0.16,0.594-0.337,1.181-0.667,1.709
				c-0.073,0.117-0.181,0.212-0.225,0.349c-0.148-0.19-0.271-0.396-0.355-0.624c0.02-0.106,0.09-0.187,0.143-0.275
				c0.147-0.241,0.213-0.51,0.261-0.786c0.015-0.088,0.022-0.179,0.081-0.254c0.187-0.18,0.433-0.267,0.667-0.421
				C20.022,15.724,20.179,15.772,20.259,15.852z"/>
			<path fill-rule="evenodd" clip-rule="evenodd" fill="#0D18AD" d="M14.401,17.902c-0.445-0.62-0.714-1.317-0.895-2.053
				c0.016-0.087,0.253-0.082,0.056-0.283c0.301,0.104,0.515,0.244,0.714,0.407c0.038,0.052,0.06,0.109,0.065,0.174
				c0.03,0.354,0.125,0.685,0.343,0.973c0.039,0.052,0.045,0.117,0.072,0.173C14.663,17.511,14.55,17.716,14.401,17.902z"/>
			<path fill-rule="evenodd" clip-rule="evenodd" fill="#FDFDFD" d="M18.477,16.373c0,0-0.009,0-0.009,0
				c-0.103-0.188-0.206-0.375-0.309-0.563c-0.076-0.261-0.009-0.503,0.099-0.74c0.189-0.198,0.378-0.395,0.567-0.592
				c0.1,0.22,0.048,0.448,0.02,0.67C18.789,15.576,18.694,15.994,18.477,16.373z"/>
			<path fill-rule="evenodd" clip-rule="evenodd" fill="#FDFDFD" d="M15.291,16.373c-0.306-0.579-0.423-1.197-0.387-1.847
				c0-0.013,0.026-0.024,0.041-0.036c0.184,0.19,0.367,0.382,0.55,0.573c0.143,0.231,0.171,0.481,0.115,0.744
				C15.504,15.995,15.397,16.184,15.291,16.373z"/>
			<path fill-rule="evenodd" clip-rule="evenodd" fill="#FDFDFD" d="M14.756,17.292c-0.38-0.36-0.496-0.816-0.479-1.32
				c0.22,0.129,0.44,0.259,0.661,0.388c0.103,0.12,0.165,0.251,0.12,0.414C14.957,16.947,14.856,17.119,14.756,17.292z"/>
			<path fill-rule="evenodd" clip-rule="evenodd" fill="#FDFDFD" d="M19.497,15.972c0.001,0.499-0.097,0.96-0.485,1.314
				c-0.1-0.168-0.2-0.336-0.299-0.505c-0.051-0.164,0.014-0.296,0.115-0.419C19.051,16.232,19.273,16.102,19.497,15.972z"/>
			<path fill-rule="evenodd" clip-rule="evenodd" fill="#FDFDFD" d="M16.288,15.031c0.192-0.338,0.384-0.675,0.593-1.042
				c0.211,0.365,0.407,0.704,0.604,1.042c-0.03,0.018-0.064,0.032-0.099,0.021c-0.333-0.093-0.666-0.092-0.999,0
				C16.352,15.063,16.319,15.05,16.288,15.031z"/>
			<path fill-rule="evenodd" clip-rule="evenodd" fill="#F9F014" d="M16.107,15.429c-0.037-0.096,0.061-0.135,0.087-0.203
				c0.01-0.026,0.021-0.052,0.04-0.072c0.284-0.283,1.091-0.238,1.345,0.074c0.019,0.071,0.108,0.114,0.083,0.203
				c-0.042,0.039-0.089,0.03-0.136,0.012c-0.426-0.169-0.852-0.171-1.278-0.003C16.202,15.457,16.152,15.459,16.107,15.429z"/>
			<path fill-rule="evenodd" clip-rule="evenodd" fill="#101AAA" d="M16.107,15.429c0.519-0.244,1.036-0.244,1.554,0.001
				c0.068,0.07,0.185,0.103,0.17,0.232c-0.57-0.361-1.156-0.39-1.759-0.086c-0.047,0.025-0.088,0.071-0.15,0.063
				C15.94,15.531,16.041,15.495,16.107,15.429z"/>
			<path fill-rule="evenodd" clip-rule="evenodd" fill="#F3F4F6" d="M16.669,18.247c-0.316,0.311-0.652,0.31-0.932-0.001
				C16.047,18.246,16.358,18.247,16.669,18.247z"/>
			<path fill-rule="evenodd" clip-rule="evenodd" fill="#F5F6F8" d="M18.029,18.247c-0.286,0.309-0.603,0.309-0.938,0
				C17.404,18.247,17.717,18.247,18.029,18.247z"/>
			<path fill-rule="evenodd" clip-rule="evenodd" fill="#DE1C11" d="M17.579,15.228c-0.461-0.281-0.923-0.285-1.385-0.002
				c-0.033-0.097,0.041-0.14,0.094-0.194c0.399-0.162,0.797-0.16,1.196,0C17.534,15.088,17.605,15.135,17.579,15.228z"/>
			<path fill-rule="evenodd" clip-rule="evenodd" fill="#121CA6" d="M15.61,15.806c-0.071-0.243-0.093-0.493-0.115-0.744
				c0.125,0.077,0.203,0.203,0.312,0.297c0.045,0.04,0.049,0.077,0.016,0.124C15.749,15.589,15.717,15.722,15.61,15.806z"/>
			<path fill-rule="evenodd" clip-rule="evenodd" fill="#101AA7" d="M18.257,15.071c0.018,0.253-0.052,0.495-0.099,0.74
				c-0.106-0.086-0.14-0.22-0.215-0.326c-0.038-0.051-0.022-0.085,0.019-0.124C18.062,15.266,18.159,15.167,18.257,15.071z"/>
			<path fill-rule="evenodd" clip-rule="evenodd" fill="#101BA5" d="M15.147,17.008c0.107,0.007,0.214,0.013,0.322,0.02
				c-0.126,0.131-0.247,0.267-0.379,0.392c-0.06,0.057-0.146,0.073-0.231,0.055C14.951,17.317,15.018,17.143,15.147,17.008z"/>
			<path fill-rule="evenodd" clip-rule="evenodd" fill="#242C9D" d="M18.828,16.362c-0.002,0.15-0.059,0.284-0.115,0.419
				c-0.087-0.067-0.117-0.173-0.174-0.26C18.632,16.461,18.717,16.388,18.828,16.362z"/>
			<path fill-rule="evenodd" clip-rule="evenodd" fill="#1D259D" d="M15.057,16.774c-0.067-0.13-0.109-0.267-0.12-0.414
				c0.014,0.001,0.029,0,0.041,0.006C15.261,16.504,15.263,16.515,15.057,16.774z"/>
			<path fill-rule="evenodd" clip-rule="evenodd" fill="#FEFBEB" d="M14.564,21.613c0.007-0.051,0.038-0.079,0.086-0.069
				c0.051,0.009,0.12,0.014,0.111,0.093c-0.004,0.038-0.024,0.088-0.079,0.075C14.631,21.699,14.574,21.681,14.564,21.613z"/>
			<path fill-rule="evenodd" clip-rule="evenodd" fill="#FEF7D8" d="M20.37,20.879c-0.024,0.073-0.071,0.111-0.134,0.118
				c-0.048,0.005-0.074-0.037-0.073-0.081c0.002-0.063,0.053-0.097,0.104-0.113C20.33,20.785,20.338,20.851,20.37,20.879z"/>
			<path fill-rule="evenodd" clip-rule="evenodd" fill="#FEF8DD" d="M22.083,15.677c0.078,0.007,0.071,0.069,0.072,0.123
				c0,0.045-0.024,0.083-0.074,0.077c-0.08-0.01-0.09-0.077-0.09-0.14C21.991,15.682,22.039,15.68,22.083,15.677z"/>
			<path fill-rule="evenodd" clip-rule="evenodd" fill="#FEF8DC" d="M12.751,19.676c0.06,0.011,0.095,0.059,0.107,0.11
				c0.015,0.06-0.046,0.087-0.088,0.086c-0.063-0.002-0.09-0.059-0.096-0.115C12.669,19.708,12.706,19.687,12.751,19.676z"/>
			<path fill-rule="evenodd" clip-rule="evenodd" fill="#FEF7D6" d="M12.652,19.934c0,0.041-0.021,0.069-0.057,0.075
				c-0.072,0.011-0.09-0.048-0.106-0.098c-0.012-0.039,0.011-0.071,0.049-0.075C12.605,19.83,12.624,19.892,12.652,19.934z"/>
			<path fill-rule="evenodd" clip-rule="evenodd" fill="#FEFCF3" d="M15.727,11.741c-0.025-0.091-0.003-0.133,0.074-0.127
				c0.121,0.01,0.135,0.106,0.144,0.197c0.009,0.08-0.004,0.184-0.099,0.175C15.682,11.971,15.771,11.806,15.727,11.741z"/>
			<path fill-rule="evenodd" clip-rule="evenodd" fill="#FEF8DB" d="M17.331,11.683c-0.053-0.005-0.092-0.022-0.09-0.086
				c0.002-0.065,0.038-0.081,0.095-0.076c0.061,0.006,0.115,0.021,0.104,0.095C17.432,11.672,17.386,11.69,17.331,11.683z"/>
			<path fill-rule="evenodd" clip-rule="evenodd" fill="#FEFBEE" d="M11.711,16.687c-0.064-0.038-0.204,0.051-0.197-0.105
				c0.005-0.107,0.104-0.114,0.19-0.11c0.088,0.005,0.177,0.027,0.181,0.131C11.89,16.737,11.777,16.664,11.711,16.687z"/>
			<path fill-rule="evenodd" clip-rule="evenodd" fill="#FEFBEC" d="M16.733,11.7c-0.013,0.098-0.029,0.196-0.13,0.197
				c-0.125,0.001-0.145-0.11-0.144-0.208c0.001-0.085,0.024-0.18,0.132-0.174C16.706,11.521,16.716,11.624,16.733,11.7z"/>
			<path fill-rule="evenodd" clip-rule="evenodd" fill="#FEF4C6" d="M21.145,13.731c-0.022,0.065-0.031,0.147-0.123,0.132
				c-0.014-0.002-0.036-0.035-0.033-0.048C21.009,13.74,21.088,13.759,21.145,13.731z"/>
			<path fill-rule="evenodd" clip-rule="evenodd" fill="#FEF2BF" d="M19.688,21.333c-0.092-0.052-0.149-0.08-0.145-0.151
				c0.001-0.014,0.048-0.043,0.061-0.038C19.669,21.175,19.661,21.24,19.688,21.333z"/>
			<path fill-rule="evenodd" clip-rule="evenodd" fill="#FEFAE8" d="M13.632,20.887c-0.015,0.057-0.049,0.108-0.106,0.111
				c-0.05,0.002-0.09-0.043-0.094-0.096c-0.004-0.056,0.034-0.094,0.088-0.096C13.572,20.805,13.612,20.833,13.632,20.887z"/>
			<path fill-rule="evenodd" clip-rule="evenodd" fill="#FEF1B8" d="M20.424,12.92c-0.013,0.087-0.018,0.155-0.103,0.173
				c-0.012,0.002-0.042-0.023-0.043-0.038C20.268,12.957,20.352,12.961,20.424,12.92z"/>
			<path fill-rule="evenodd" clip-rule="evenodd" fill="#FEF4C4" d="M15.072,11.866c0.109,0.065,0.155,0.102,0.14,0.18
				c-0.002,0.011-0.037,0.027-0.051,0.023C15.068,12.042,15.127,11.966,15.072,11.866z"/>
			<path fill-rule="evenodd" clip-rule="evenodd" fill="#F9CA02" d="M16.743,19.242c0.039,0.036,0.086,0.029,0.133,0.027
				c0.049-0.065,0.109-0.045,0.169-0.022c0.304-0.004,0.563-0.15,0.829-0.269c0.188-0.085,0.362-0.099,0.533,0.023
				c0.079,0.057,0.162,0.022,0.242,0.033c0.061,0.05,0.005,0.07-0.026,0.092c-0.036,0.026-0.096-0.004-0.121,0.049
				c-0.021,0.009-0.041,0.017-0.061,0.026c-0.012,0.006-0.028,0.017-0.038,0.011c-0.185-0.11-0.26-0.013-0.298,0.155
				c-0.735,0.397-1.486,0.455-2.254,0.098c-0.195-0.09-0.385-0.191-0.578-0.287c-0.034-0.071-0.15-0.026-0.173-0.141
				c0.083-0.055,0.193,0.003,0.277-0.047c0.166-0.118,0.331-0.093,0.507-0.018C16.161,19.093,16.426,19.252,16.743,19.242z"/>
			<path fill-rule="evenodd" clip-rule="evenodd" fill="#F3F3F2" d="M17.045,19.246c-0.055,0.023-0.11,0.041-0.169,0.022
				c-0.16-0.256-0.137-0.506,0.068-0.753c0.164,0.139,0.19,0.323,0.175,0.522C17.081,19.103,17.017,19.158,17.045,19.246z"/>
			<path fill-rule="evenodd" clip-rule="evenodd" fill="#88710B" d="M18.104,19.367c-0.103-0.16-0.052-0.305,0.12-0.342
				c0.055-0.012,0.09,0.016,0.117,0.061c0.026,0.043,0.023,0.112,0.098,0.115C18.337,19.274,18.226,19.33,18.104,19.367z"/>
			<path fill-rule="evenodd" clip-rule="evenodd" fill="#B69A25" d="M15.377,18.991c-0.063,0.063-0.153,0.027-0.228,0.062
				c0.022,0.063,0.112,0.057,0.124,0.126c-0.088-0.023-0.159,0.024-0.234,0.056c-0.061,0.026-0.13,0.031-0.163-0.038
				c-0.042-0.087,0.034-0.128,0.094-0.152C15.1,18.995,15.239,18.992,15.377,18.991z"/>
			<path fill-rule="evenodd" clip-rule="evenodd" fill="#B69B28" d="M18.501,19.175c0.017-0.081,0.128-0.063,0.147-0.142
				c0.04,0,0.085-0.011,0.121,0.003c0.068,0.025,0.161,0.058,0.123,0.152c-0.035,0.088-0.12,0.072-0.194,0.035
				C18.635,19.191,18.573,19.162,18.501,19.175z"/>
			<path fill-rule="evenodd" clip-rule="evenodd" fill="#C6CA34" d="M17.198,16.804c0.047,0.038,0.093,0.075,0.14,0.112
				c-0.012,0.136,0.094,0.19,0.182,0.25c0.168,0.112,0.237,0.295,0.344,0.454c-0.293-0.211-0.514-0.491-0.741-0.764
				c-0.013-0.009-0.019-0.021-0.017-0.032c0.002-0.013,0.004-0.019,0.008-0.019C17.142,16.786,17.17,16.784,17.198,16.804z"/>
			<path fill-rule="evenodd" clip-rule="evenodd" fill="#C9CC33" d="M17.983,17.048c0.215,0.247,0.546,0.331,0.777,0.555
				c0.004,0.004,0.01,0.011,0.01,0.017c0.003,0.033-0.023,0.022-0.04,0.024c-0.183-0.053-0.354-0.129-0.507-0.245
				C18.104,17.309,17.991,17.215,17.983,17.048z"/>
			<path fill-rule="evenodd" clip-rule="evenodd" fill="#C6CA34" d="M16.686,16.759c0.033-0.011,0.067-0.021,0.101-0.031
				c0.014-0.014,0.031-0.019,0.051-0.017c0.068,0.027,0.113,0.071,0.116,0.148c0.049,0.151,0.225,0.222,0.253,0.442
				C16.963,17.152,16.852,16.927,16.686,16.759z"/>
			<path fill-rule="evenodd" clip-rule="evenodd" fill="#BABF2E" d="M18.369,17.692c-0.171-0.09-0.389-0.117-0.46-0.343
				c-0.027-0.088-0.171-0.1-0.155-0.28c0.208,0.246,0.392,0.456,0.618,0.618L18.369,17.692z"/>
			<path fill-rule="evenodd" clip-rule="evenodd" fill="#8B8137" d="M16.953,16.859c-0.047-0.038-0.093-0.076-0.139-0.113
				c0.012-0.053,0.004-0.105-0.009-0.157c-0.015-0.086-0.058-0.175,0.024-0.252c0.07-0.021,0.107,0.018,0.132,0.077
				c0.015,0.052,0.025,0.104,0.014,0.158c-0.026,0.128,0.104,0.159,0.152,0.242c-0.002,0.014-0.003,0.028-0.005,0.042
				C17.065,16.857,17.009,16.858,16.953,16.859z"/>
			<path fill-rule="evenodd" clip-rule="evenodd" fill="#A3AB29" d="M17.301,17.344c0.115,0.011,0.153,0.092,0.205,0.204
				C17.354,17.528,17.351,17.415,17.301,17.344z"/>
			<path fill-rule="evenodd" clip-rule="evenodd" fill="#FDF9D2" d="M17.127,16.813c-0.174,0.033-0.248-0.031-0.202-0.21
				c0.037-0.061,0.095-0.101,0.145-0.149c0.128-0.125,0.128-0.305,0.004-0.427c-0.11-0.107-0.259-0.108-0.375-0.001
				c-0.116,0.106-0.124,0.29-0.017,0.416c0.05,0.058,0.127,0.088,0.158,0.164c0.019,0.051,0.023,0.101-0.025,0.141
				c-0.01-0.004-0.02-0.01-0.028-0.018c-0.138-0.125-0.357-0.148-0.43-0.356c-0.015-0.042-0.074-0.01-0.112-0.002
				c-0.112,0.022-0.225,0.044-0.336,0.066c-0.003-0.019-0.008-0.038-0.011-0.057c0.159-0.025,0.319-0.049,0.478-0.074
				c0.005-0.001,0.011-0.006,0.016-0.008c-0.013-0.011-0.026-0.023-0.039-0.036c-0.056-0.058-0.071-0.13-0.072-0.207
				c-0.04-0.036-0.081-0.072-0.031-0.129c0.117,0.014,0.2-0.098,0.317-0.084c0.032-0.014,0.043-0.04,0.045-0.073
				c0.029-0.037,0.063-0.095,0.108-0.081c0.17,0.058,0.186-0.076,0.234-0.173c0.03-0.016,0.071-0.096,0.082,0.011
				c0.005,0.053,0.003,0.106,0.003,0.16c0.111,0.005,0.219,0.036,0.331,0.044c0.067,0.003,0.127,0.013,0.083,0.105
				c-0.044,0.114-0.034,0.214,0.072,0.292c0.059,0.09-0.006,0.116-0.074,0.142c-0.014,0.001-0.028,0-0.042,0.003
				c-0.019,0.005-0.043,0.026-0.01,0.031c0.09,0.01,0.179,0.014,0.266,0.065c-0.101,0.071-0.19-0.041-0.294,0.004
				c0.192,0.105,0.416,0.117,0.575,0.28c-0.141-0.053-0.28-0.106-0.422-0.156c-0.071-0.025-0.127-0.051-0.212,0.021
				c-0.096,0.081-0.047,0.106-0.01,0.177c0.047,0.089-0.157-0.009-0.102,0.112C17.175,16.807,17.15,16.81,17.127,16.813z"/>
			<path fill-rule="evenodd" clip-rule="evenodd" fill="#868373" d="M16.952,15.514c0.101,0.124-0.026,0.154-0.091,0.187
				c-0.076,0.038-0.167,0.046-0.251,0.067c0.006-0.057-0.144-0.137,0.036-0.173c0.158-0.032,0.155-0.045,0.188,0.067
				C16.874,15.605,16.839,15.489,16.952,15.514z"/>
			<path fill-rule="evenodd" clip-rule="evenodd" fill="#868574" d="M17.368,15.729c-0.136,0.183-0.229,0.04-0.331-0.043
				C17.179,15.457,17.265,15.66,17.368,15.729z"/>
			<path fill-rule="evenodd" clip-rule="evenodd" fill="#777663" d="M16.565,15.84c-0.035,0.021-0.089,0.036-0.099,0.064
				c-0.062,0.184-0.141,0.075-0.218,0.02c0.016-0.082,0.1-0.113,0.144-0.175C16.459,15.652,16.498,15.817,16.565,15.84z"/>
			<path fill-rule="evenodd" clip-rule="evenodd" fill="#7B7A72" d="M17.492,16.154c-0.126-0.092-0.221-0.188-0.041-0.319
				c0.006,0.076,0.172,0.119,0.044,0.222C17.522,16.089,17.52,16.122,17.492,16.154z"/>
			<path fill-rule="evenodd" clip-rule="evenodd" fill="#83857B" d="M16.279,16.054c0.134,0.031,0.067,0.131,0.072,0.207
				c-0.052-0.022-0.151,0.073-0.154-0.046C16.197,16.169,16.134,16.043,16.279,16.054z"/>
			<path fill-rule="evenodd" clip-rule="evenodd" fill="#8B8B7B" d="M17.492,16.154c0.001-0.032,0.002-0.065,0.003-0.098
				c0.138-0.019,0.106,0.081,0.102,0.152c-0.007,0.115-0.097,0.042-0.147,0.059C17.424,16.214,17.583,16.231,17.492,16.154z"/>
			<path fill-rule="evenodd" clip-rule="evenodd" fill="#796508" d="M16.896,19.624c-0.189-0.028-0.393-0.003-0.574-0.115
				c-0.035-0.021-0.096-0.008-0.087-0.07s0.074-0.101,0.121-0.086c0.197,0.058,0.397,0.083,0.603,0.092
				c0.073,0.003,0.042,0.083,0.044,0.129C17.006,19.659,16.942,19.624,16.896,19.624z"/>
			<path fill-rule="evenodd" clip-rule="evenodd" fill="#776608" d="M15.943,19.285c-0.039,0.045-0.075,0.133-0.14,0.083
				c-0.056-0.042-0.19-0.036-0.151-0.168l-0.004,0.004c0.094-0.088,0.23-0.048,0.292,0.085L15.943,19.285z"/>
			<path fill-rule="evenodd" clip-rule="evenodd" fill="#615008" d="M17.244,19.54c-0.022-0.131,0.058-0.186,0.166-0.183
				c0.057,0.001,0.095,0.073,0.089,0.14c-0.004,0.057-0.062,0.102-0.095,0.075c-0.056-0.044-0.123,0.026-0.164-0.035L17.244,19.54z"
				/>
			<path fill-rule="evenodd" clip-rule="evenodd" fill="#6C5B06" d="M15.652,19.2c-0.049,0.04-0.102,0.085-0.159,0.024
				c-0.041-0.043,0.001-0.089,0.021-0.131c0.018-0.04,0.042-0.075,0.092-0.05c0.073,0.036,0.056,0.1,0.042,0.161L15.652,19.2z"/>
			<path fill-rule="evenodd" clip-rule="evenodd" fill="#685607" d="M15.94,19.289c0.041-0.016,0.069-0.075,0.125-0.04
				c0.034,0.021,0.035,0.049,0.021,0.086c-0.018,0.047-0.005,0.123-0.085,0.113c-0.11-0.015-0.008-0.119-0.058-0.163L15.94,19.289z"
				/>
			<path fill-rule="evenodd" clip-rule="evenodd" fill="#725E07" d="M17.241,19.537c0,0.043-0.002,0.099-0.059,0.086
				c-0.105-0.025-0.072-0.114-0.074-0.19c0.086-0.009,0.034,0.146,0.136,0.107L17.241,19.537z"/>
			<path fill-rule="evenodd" clip-rule="evenodd" fill="#69580A" d="M17.957,19.357c-0.042-0.051-0.109-0.082-0.103-0.155
				c0.001-0.012,0.06-0.036,0.068-0.028C17.978,19.223,17.947,19.292,17.957,19.357z"/>
			<path fill-rule="evenodd" clip-rule="evenodd" fill="#FBF215" d="M16.84,16.605c-0.191-0.042-0.313-0.153-0.322-0.356
				c-0.008-0.172,0.075-0.295,0.233-0.359c0.191-0.078,0.415,0.026,0.479,0.216c0.077,0.226-0.034,0.408-0.306,0.498
				c-0.003-0.054-0.006-0.107-0.009-0.161c0.04-0.081,0.063-0.165,0.061-0.293c-0.072,0.088-0.133,0.139-0.164,0.215
				C16.852,16.441,16.873,16.52,16.84,16.605z"/>
			<path fill-rule="evenodd" clip-rule="evenodd" fill="#C22C0F" d="M16.813,16.364c-0.108-0.116,0.119-0.18,0.044-0.291
				c0.097-0.05,0.164-0.014,0.193,0.081c0.04,0.131-0.013,0.228-0.134,0.288C16.902,16.389,16.873,16.355,16.813,16.364z"/>
		</g>
	</g>
	<g>
		<defs>
			<circle id="SVGID_31_" cx="52.267" cy="17.028" r="15.917"/>
		</defs>
		<clipPath id="SVGID_4_">
			<use xlink:href="#SVGID_31_"  overflow="visible"/>
		</clipPath>
		<g clip-path="url(#SVGID_4_)">
			<rect x="26.783" y="-0.575" fill="#FFFFFF" width="50.968" height="16.99"/>
			<rect x="26.783" y="16.415" fill="#FF0000" width="50.968" height="16.989"/>
			<rect x="26.783" y="10.751" fill="#0000FF" width="50.968" height="11.327"/>
		</g>
	</g>
</g>
<g id="Imagenes">
</g>
<g id="Cintillos">
</g>
<g id="Botones">
</g>
<g id="TXT">
</g>
<g id="Logo">
</g>
<g id="Guia">
</g>
</svg>
