<?xml version="1.0" encoding="utf-8"?>
<!-- Generator: Adobe Illustrator 16.0.0, SVG Export Plug-In . SVG Version: 6.00 Build 0)  -->
<!DOCTYPE svg PUBLIC "-//W3C//DTD SVG 1.1//EN" "http://www.w3.org/Graphics/SVG/1.1/DTD/svg11.dtd">
<svg version="1.1" xmlns="http://www.w3.org/2000/svg" xmlns:xlink="http://www.w3.org/1999/xlink" x="0px" y="0px"
	 width="32.787px" height="33.025px" viewBox="0 0 32.787 33.025" enable-background="new 0 0 32.787 33.025" xml:space="preserve">
<g id="Soporte">
</g>
<g id="Vectores">
</g>
<g id="Publicidad">
</g>
<g id="Imagenes">
</g>
<g id="Cintillos">
</g>
<g id="Botones">
</g>
<g id="Logo">
	<g>
		<defs>
			<circle id="SVGID_55_" cx="16.365" cy="16.625" r="15.917"/>
		</defs>
		<clipPath id="SVGID_2_">
			<use xlink:href="#SVGID_55_"  overflow="visible"/>
		</clipPath>
		<g clip-path="url(#SVGID_2_)">
			<path fill-rule="evenodd" clip-rule="evenodd" fill="#DE002A" d="M-0.022,32.65c0-3.658,0-7.317,0-10.976
				c0.138-0.161,0.316-0.222,0.524-0.228c0.251-0.006,0.502-0.01,0.753-0.01c20.689,0,41.379-0.001,62.068,0.005
				c0.419,0,0.867-0.114,1.247,0.186c0.118,0.179,0.079,0.382,0.079,0.576c0.003,3.28,0.003,6.56,0.001,9.839
				c0,0.659-0.003,0.661-0.644,0.661c-21.167,0-42.334,0-63.501-0.002C0.329,32.702,0.145,32.747-0.022,32.65z"/>
			<path fill-rule="evenodd" clip-rule="evenodd" fill="#1D1DB0" d="M64.525,21.689c-21.265,0-42.53,0-63.795-0.001
				c-0.25,0-0.501-0.009-0.752-0.013c0-3.695,0-7.39,0-11.084c0.138-0.16,0.313-0.225,0.522-0.226
				c2.964-0.01,5.927-0.035,8.891,0.015c0.035,0,0.069,0.016,0.102,0.024c0.4,0.12,0.475,0.441,0.495,0.801
				c0.138,2.455,1.133,4.526,2.844,6.261c0.71,0.719,1.578,1.229,2.456,1.722c0.496,0.279,0.923,0.232,1.407-0.043
				c1.947-1.109,3.283-2.737,4.15-4.778c0.417-0.98,0.657-2.003,0.775-3.061c0.039-0.349-0.011-0.786,0.475-0.925
				c0.251-0.031,0.502-0.028,0.753-0.028c13.458,0.001,26.916,0,40.374,0c0.269,0,0.538-0.007,0.806,0.012
				c0.515,0.036,0.62,0.139,0.622,0.661c0.005,2.079,0.002,4.158,0.002,6.237c0,1.29,0.003,2.58-0.003,3.871
				C64.646,21.325,64.703,21.535,64.525,21.689z"/>
			<path fill-rule="evenodd" clip-rule="evenodd" fill="#FEFEFE" d="M9.649,10.555c-3.027,0.002-6.056,0.003-9.083,0.008
				c-0.196,0-0.392,0.018-0.588,0.028c0-3.282,0.006-6.564-0.009-9.846c-0.001-0.321,0.064-0.386,0.386-0.385
				c21.342,0.01,42.685,0.01,64.027,0c0.32,0,0.385,0.064,0.385,0.385c-0.011,10.545-0.011,21.091,0,31.637
				c0,0.321-0.065,0.386-0.385,0.386c-21.343-0.01-42.685-0.008-64.027-0.02c-0.11,0-0.317,0.172-0.377-0.097
				c21.3,0,42.601-0.002,63.901,0.015c0.581,0.001,0.682-0.169,0.677-0.704c-0.031-3.424-0.025-6.848-0.031-10.272
				c0.006-3.601,0.009-7.202,0.023-10.803c0.001-0.266-0.09-0.352-0.341-0.327c-0.142,0.014-0.286,0.002-0.43,0.002
				c-13.708,0-27.415,0-41.122-0.001c-0.232,0-0.465-0.017-0.697-0.026c-0.345-0.418-0.137-0.895-0.106-1.333
				c0.08-1.141,0.241-2.274,0.303-3.418c0.017-0.316-0.077-0.52-0.378-0.621c-1.158-0.481-2.343-0.899-3.58-1.102
				c-2.76-0.453-5.446-0.174-8.026,0.947c-0.049,0.021-0.101,0.037-0.152,0.051C9.683,5.189,9.604,5.432,9.622,5.783
				C9.67,6.69,9.78,7.594,9.785,8.503C9.788,8.86,9.812,9.213,9.856,9.569C9.898,9.903,10.013,10.291,9.649,10.555z"/>
			<path fill-rule="evenodd" clip-rule="evenodd" fill="#BD0027" d="M9.649,10.555C9.567,8.969,9.514,7.381,9.385,5.799
				C9.343,5.272,9.484,5,9.978,4.887c0.335,0.27,0.321,0.672,0.327,1.028c0.031,1.691,0.221,3.374,0.248,5.065
				c0.011,0.654,0.129,1.306,0.286,1.945c0.155,0.306,0.209,0.645,0.312,0.967c0.006,0.325,0.28,0.531,0.37,0.819
				c0.029,0.229,0.203,0.377,0.318,0.558c0.099,0.334,0.37,0.553,0.558,0.829c0.795,1.021,1.811,1.763,2.94,2.378
				c0.503,0.275,0.908,0.247,1.387-0.064c1.005-0.652,1.855-1.455,2.569-2.409c0.123-0.232,0.375-0.383,0.423-0.664
				c0.095-0.223,0.267-0.408,0.318-0.653c0.106-0.307,0.385-0.537,0.384-0.89c0.044-0.222,0.102-0.439,0.198-0.645
				c0.323-1.161,0.451-2.352,0.546-3.547c0.104-1.301,0.244-2.598,0.355-3.897c0.021-0.25,0.037-0.55,0.315-0.706
				c0.499,0.066,0.638,0.296,0.571,0.831c-0.194,1.562-0.304,3.134-0.446,4.702c-0.218,2.24-0.794,4.351-2.184,6.177
				c-0.901,1.185-2.003,2.127-3.323,2.822c-0.312,0.165-0.574,0.173-0.897,0.021c-3.567-1.686-5.465-4.516-5.826-8.417
				C9.71,10.941,9.676,10.749,9.649,10.555z"/>
			<path fill-rule="evenodd" clip-rule="evenodd" fill="#1D1DB0" d="M21.833,5.001c-0.217,2.214-0.425,4.429-0.66,6.641
				c-0.06,0.56-0.147,1.125-0.397,1.645c-0.342,0.011-0.496-0.251-0.67-0.473c-0.595-0.761-1.188-1.523-1.786-2.282
				c-0.238-0.303-0.399-0.315-0.56,0.045c-0.036,0.082-0.083,0.159-0.136,0.231c-0.292,0.396-0.592,0.392-0.821-0.043
				c-0.266-0.506-0.459-1.048-0.694-1.57c-0.05-0.111-0.075-0.24-0.229-0.354c-0.349,0.513-0.627,1.061-0.909,1.606
				c-0.144,0.279-0.227,0.674-0.596,0.7c-0.412,0.029-0.494-0.404-0.686-0.669c-0.104-0.144-0.151-0.325-0.289-0.453
				c-0.184-0.013-0.224,0.154-0.303,0.257c-0.598,0.781-1.179,1.575-1.777,2.356c-0.161,0.21-0.303,0.457-0.627,0.438
				c-0.281-0.688-0.328-1.417-0.37-2.146c-0.118-2.014-0.23-4.029-0.345-6.044c0.844-0.574,1.831-0.766,2.796-0.96
				c3.019-0.607,5.957-0.294,8.795,0.907C21.664,4.873,21.746,4.945,21.833,5.001z"/>
			<path fill-rule="evenodd" clip-rule="evenodd" fill="#FEFEFE" d="M10.693,13.077c0.891-1.159,1.781-2.317,2.697-3.508
				c0.298,0.507,0.597,1.015,0.953,1.619c0.536-1,1.032-1.925,1.576-2.94c0.385,0.892,0.726,1.687,1.075,2.478
				c0.046,0.105,0.043,0.268,0.206,0.283c0.172,0.016,0.175-0.154,0.231-0.251c0.175-0.303,0.337-0.612,0.53-0.967
				c0.963,1.196,1.889,2.346,2.814,3.496c-0.07,0.215-0.139,0.43-0.208,0.645c-0.552,0.772-1.3,0.923-2.132,0.586
				c-0.677-0.275-1.288-0.332-1.932,0.086c-0.348,0.225-0.774,0.197-1.128-0.027c-0.62-0.392-1.244-0.379-1.896-0.119
				c-0.564,0.226-1.131,0.294-1.724,0.077c-0.298-0.109-0.525-0.296-0.756-0.492C10.897,13.72,10.795,13.399,10.693,13.077z"/>
			<path fill-rule="evenodd" clip-rule="evenodd" fill="#FEFEFE" d="M19.431,16.124c-0.79,1.158-1.805,2.063-3.046,2.714
				c-0.207,0.108-0.393,0.192-0.65,0.071c-1.379-0.645-2.597-1.489-3.503-2.735c1.028-0.482,2.04-1.085,3.213-0.385
				c0.369,0.22,0.746,0.211,1.113-0.032c0.537-0.356,1.096-0.386,1.682-0.119c0.244,0.111,0.502,0.188,0.771,0.221
				C19.188,15.882,19.369,15.912,19.431,16.124z"/>
			<path fill-rule="evenodd" clip-rule="evenodd" fill="#1E1EB0" d="M10.999,14.042c1.043,0.51,2.068,0.404,3.125-0.004
				c0.393-0.151,0.843-0.039,1.209,0.256c0.439,0.354,0.893,0.294,1.32-0.029c0.431-0.326,0.909-0.361,1.365-0.14
				c0.844,0.409,1.634,0.453,2.395-0.164c0.036-0.029,0.102-0.021,0.154-0.031c-0.055,0.319-0.191,0.604-0.37,0.871
				c-0.572,0.61-1.271,0.521-1.929,0.254c-0.597-0.242-1.116-0.275-1.667,0.086c-0.385,0.253-0.827,0.276-1.218,0.021
				c-0.637-0.417-1.269-0.355-1.936-0.1c-0.412,0.158-0.825,0.323-1.297,0.191c-0.326-0.09-0.572-0.277-0.819-0.482
				C11.175,14.55,11.066,14.306,10.999,14.042z"/>
			<path fill-rule="evenodd" clip-rule="evenodd" fill="#1E1EB0" d="M19.431,16.124c-0.527,0.021-1.022-0.101-1.496-0.331
				c-0.406-0.198-0.789-0.145-1.156,0.125c-0.517,0.382-1.055,0.414-1.582,0.019c-0.512-0.383-1.034-0.279-1.572-0.08
				c-0.45,0.166-0.892,0.377-1.394,0.316c-0.25-0.219-0.44-0.478-0.536-0.8c0.079-0.169,0.244-0.172,0.367-0.125
				c0.441,0.164,0.836,0.031,1.24-0.129c0.746-0.296,1.476-0.356,2.197,0.113c0.341,0.222,0.731,0.159,1.063-0.058
				c0.545-0.356,1.091-0.357,1.678-0.114c0.377,0.156,0.771,0.284,1.194,0.229c0.168-0.022,0.32,0.013,0.433,0.153
				C19.774,15.704,19.622,15.926,19.431,16.124z"/>
			<path fill-rule="evenodd" clip-rule="evenodd" fill="#F9F9FC" d="M19.868,15.443c-0.595,0.162-1.155,0.065-1.708-0.193
				c-0.556-0.259-1.096-0.242-1.607,0.156c-0.36,0.28-0.762,0.305-1.135,0.017c-0.595-0.459-1.238-0.434-1.871-0.157
				c-0.617,0.27-1.217,0.363-1.852,0.108c-0.121-0.201-0.242-0.401-0.364-0.601c0.826,0.386,1.628,0.359,2.455-0.046
				c0.509-0.25,1.027-0.166,1.509,0.188c0.452,0.332,0.967,0.291,1.398-0.024c0.464-0.34,0.9-0.357,1.395-0.118
				c0.695,0.337,1.401,0.357,2.108,0.028C20.087,15.016,19.978,15.229,19.868,15.443z"/>
			<path fill-rule="evenodd" clip-rule="evenodd" fill="#F0ED0E" d="M16.542,6.876c-0.259,0.047-0.594-0.131-0.577,0.4
				c-0.18-0.316-0.345-0.496-0.769-0.278c0.213-0.328,0.404-0.558,0.086-0.812c0.327,0.251,0.426-0.361,0.914-0.089
				C16.692,6.375,16.054,6.798,16.542,6.876z"/>
			<path fill-rule="evenodd" clip-rule="evenodd" fill="#F1EF0D" d="M18.137,4.266c-0.067,0.409,0.51,0.244,0.515,0.758
				c0.005,0.539-0.689,0.216-0.519,0.697c-0.09-0.324-0.29-0.421-0.564-0.413c0.055-0.214,0.307-0.434-0.111-0.659
				C17.862,4.732,18.036,4.58,18.137,4.266z"/>
			<path fill-rule="evenodd" clip-rule="evenodd" fill="#F2F00C" d="M13.69,5.659c-0.665-0.433-0.736-0.905,0.006-1.337
				C14.407,4.75,14.4,5.223,13.69,5.659z"/>
		</g>
	</g>
</g>
<g id="TXT">
</g>
<g id="Guias">
</g>
</svg>
