<?xml version="1.0" encoding="utf-8"?>
<!-- Generator: Adobe Illustrator 16.0.0, SVG Export Plug-In . SVG Version: 6.00 Build 0)  -->
<!DOCTYPE svg PUBLIC "-//W3C//DTD SVG 1.1//EN" "http://www.w3.org/Graphics/SVG/1.1/DTD/svg11.dtd">
<svg version="1.1" xmlns="http://www.w3.org/2000/svg" xmlns:xlink="http://www.w3.org/1999/xlink" x="0px" y="0px"
	 width="34.417px" height="34.25px" viewBox="0 0 34.417 34.25" enable-background="new 0 0 34.417 34.25" xml:space="preserve">
<g id="Soporte">
</g>
<g id="Publicidad">
</g>
<g id="Iconos">
	<g>
		<defs>
			<circle id="SVGID_25_" cx="-18.217" cy="16.595" r="15.917"/>
		</defs>
		<clipPath id="SVGID_2_">
			<use xlink:href="#SVGID_25_"  overflow="visible"/>
		</clipPath>
		<g clip-path="url(#SVGID_2_)">
			<path fill-rule="evenodd" clip-rule="evenodd" fill="#CD1126" d="M-36.871,12.11c0-3.929,0-7.859-0.002-11.789
				c0-0.1,0.016-0.123,0.087-0.123c12.565,0.003,25.131,0.003,37.697,0c0.07,0,0.087,0.023,0.087,0.123
				C0.996,4.251,0.996,8.181,0.996,12.11c-0.035,0.002-0.069,0.006-0.104,0.006c-12.554,0-25.107,0-37.66,0
				C-36.802,12.117-36.837,12.113-36.871,12.11z"/>
			<path fill-rule="evenodd" clip-rule="evenodd" d="M0.996,20.541c0,4.313,0,8.627,0.001,12.941c0,0.106-0.011,0.138-0.085,0.138
				c-12.566-0.003-25.133-0.003-37.7,0c-0.074,0-0.085-0.031-0.085-0.138c0.002-4.314,0.002-8.628,0.002-12.941
				c0.034-0.002,0.069-0.007,0.104-0.007c12.553-0.001,25.106-0.001,37.66,0C0.927,20.534,0.961,20.539,0.996,20.541z"/>
			<path fill-rule="evenodd" clip-rule="evenodd" fill="#FEFEFE" d="M0.996,20.538c-0.035-0.001-0.069-0.004-0.104-0.004
				c-12.554,0-25.107,0-37.66,0c-0.035,0-0.069,0.003-0.104,0.004c0-2.809,0-5.617,0-8.426c0.034,0.001,0.069,0.004,0.104,0.004
				c12.553,0,25.106,0,37.66,0c0.034,0,0.069-0.003,0.104-0.004C0.996,14.921,0.996,17.729,0.996,20.538z M-23.924,18.521
				c0.015-0.04-0.008-0.074-0.019-0.108c-0.182-0.56-0.363-1.12-0.548-1.678c-0.023-0.071-0.008-0.105,0.05-0.146
				c0.346-0.247,0.69-0.499,1.034-0.749c0.159-0.115,0.317-0.231,0.495-0.36c-0.055,0-0.085,0-0.116,0
				c-0.596,0-1.192-0.001-1.789,0.002c-0.061,0-0.087-0.019-0.106-0.076c-0.181-0.563-0.364-1.125-0.547-1.688
				c-0.012-0.036-0.023-0.072-0.042-0.129c-0.201,0.619-0.395,1.213-0.585,1.809c-0.021,0.066-0.051,0.084-0.118,0.084
				c-0.594-0.003-1.187-0.002-1.779-0.002c-0.032,0-0.064,0-0.116,0c0.491,0.356,0.96,0.697,1.429,1.038
				c0.176,0.128,0.177,0.128,0.11,0.333c-0.179,0.552-0.359,1.104-0.54,1.658c0.039,0.007,0.061-0.024,0.087-0.043
				c0.484-0.352,0.97-0.703,1.452-1.058c0.048-0.035,0.079-0.03,0.123,0.002c0.325,0.239,0.652,0.476,0.979,0.713
				C-24.29,18.255-24.109,18.387-23.924,18.521z M-12.963,15.481c0.036,0.027,0.05,0.039,0.065,0.049
				c0.49,0.355,0.98,0.711,1.47,1.066c0.035,0.025,0.075,0.042,0.055,0.103c-0.198,0.602-0.394,1.205-0.591,1.808
				c0.033,0.013,0.051-0.014,0.072-0.03c0.485-0.352,0.97-0.703,1.452-1.058c0.061-0.045,0.097-0.039,0.154,0.003
				c0.501,0.368,1.005,0.732,1.509,1.098c0.014-0.041-0.008-0.075-0.019-0.11c-0.182-0.56-0.363-1.12-0.548-1.678
				c-0.021-0.065-0.012-0.099,0.044-0.14c0.397-0.285,0.792-0.573,1.187-0.86c0.11-0.08,0.22-0.16,0.347-0.253
				c-0.333,0-0.643,0-0.952,0c-0.318,0-0.637,0-0.956,0.001c-0.057,0-0.1-0.006-0.105-0.075c-0.002-0.027-0.013-0.055-0.022-0.082
				c-0.161-0.496-0.323-0.992-0.485-1.487c-0.024-0.075-0.048-0.151-0.074-0.231c-0.013,0.013-0.019,0.016-0.021,0.021
				c-0.191,0.59-0.382,1.179-0.571,1.77c-0.021,0.064-0.048,0.087-0.117,0.086c-0.378-0.004-0.757-0.002-1.136-0.002
				C-12.448,15.481-12.694,15.481-12.963,15.481z"/>
		</g>
	</g>
	<g>
		<defs>
			<circle id="SVGID_27_" cx="17.311" cy="16.595" r="15.917"/>
		</defs>
		<clipPath id="SVGID_4_">
			<use xlink:href="#SVGID_27_"  overflow="visible"/>
		</clipPath>
		<g clip-path="url(#SVGID_4_)">
			<rect x="0.871" y="0.154" fill="#FF0000" width="32.882" height="32.882"/>
			<rect x="9.115" y="14.136" fill="#FFFFFF" width="16.393" height="4.918"/>
			<rect x="14.853" y="8.399" fill="#FFFFFF" width="4.918" height="16.393"/>
		</g>
	</g>
	<g>
		<defs>
			<circle id="SVGID_29_" cx="53.783" cy="16.595" r="15.917"/>
		</defs>
		<clipPath id="SVGID_6_">
			<use xlink:href="#SVGID_29_"  overflow="visible"/>
		</clipPath>
		<g clip-path="url(#SVGID_6_)">
			<path fill-rule="evenodd" clip-rule="evenodd" d="M53.822,33.208c-8.183,0-16.366,0-24.549,0.003
				c-0.154,0.001-0.194-0.03-0.194-0.19c0.005-10.888,0.005-21.775-0.001-32.662c0-0.181,0.049-0.199,0.209-0.199
				c16.373,0.004,32.746,0.004,49.119,0c0.167,0,0.206,0.029,0.206,0.202c-0.005,10.88-0.005,21.761,0.001,32.642
				c0,0.19-0.056,0.209-0.22,0.208C70.202,33.208,62.013,33.208,53.822,33.208z"/>
			<path fill-rule="evenodd" clip-rule="evenodd" fill="#0D18AD" d="M29.147,11.19c-0.004-0.083-0.012-0.167-0.012-0.25
				c0-3.48,0-6.961,0-10.441c0-0.281,0-0.282,0.286-0.282c16.283,0,32.567,0,48.851,0c0.286,0,0.286,0,0.286,0.282
				c0,3.494,0,6.989,0,10.483c0,0.07-0.005,0.14-0.008,0.209c-0.05,0.07-0.125,0.084-0.204,0.086
				c-0.098,0.003-0.196,0.002-0.294,0.002c-16.136,0-32.272,0-48.408-0.003C29.478,11.277,29.291,11.342,29.147,11.19z"/>
			<path fill-rule="evenodd" clip-rule="evenodd" fill="#0D18AD" d="M78.551,22.187c0.003,0.07,0.007,0.139,0.007,0.209
				c0,3.495,0,6.989,0,10.483c0,0.28,0,0.281-0.289,0.281c-16.283,0-32.567,0-48.851,0c-0.283,0-0.283,0-0.283-0.285
				c0-3.501,0-7.003,0-10.504c0-0.063,0.004-0.125,0.007-0.188c0.05-0.071,0.124-0.085,0.203-0.087
				c0.098-0.003,0.196-0.003,0.293-0.003c16.139,0,32.278,0,48.417,0.003C78.223,22.095,78.41,22.03,78.551,22.187z"/>
			<path fill-rule="evenodd" clip-rule="evenodd" fill="#FEFEFE" d="M78.551,22.187c-0.098,0.001-0.195,0.003-0.293,0.003
				c-16.274,0-32.548,0-48.822,0c-0.098,0-0.195-0.005-0.293-0.008c-0.001-2.826-0.003-5.653-0.003-8.479
				c0-0.837,0.005-1.675,0.008-2.512c0.126,0,0.252-0.002,0.377-0.002c16.265,0,32.53,0,48.795,0c0.077,0,0.154,0.002,0.23,0.003
				c0.002,0.049,0.006,0.097,0.006,0.146c0,3.568,0,7.135,0,10.703C78.557,22.089,78.553,22.138,78.551,22.187z"/>
		</g>
	</g>
</g>
<g id="Imagenes">
</g>
<g id="Cintillos">
</g>
<g id="Botones">
</g>
<g id="TXT">
</g>
<g id="Logo">
</g>
<g id="Guia">
</g>
</svg>
