<?xml version="1.0" encoding="utf-8"?>
<!-- Generator: Adobe Illustrator 16.0.0, SVG Export Plug-In . SVG Version: 6.00 Build 0)  -->
<!DOCTYPE svg PUBLIC "-//W3C//DTD SVG 1.1//EN" "http://www.w3.org/Graphics/SVG/1.1/DTD/svg11.dtd">
<svg version="1.1" xmlns="http://www.w3.org/2000/svg" xmlns:xlink="http://www.w3.org/1999/xlink" x="0px" y="0px"
	 width="34.417px" height="34.25px" viewBox="0 0 34.417 34.25" enable-background="new 0 0 34.417 34.25" xml:space="preserve">
<g id="Soporte">
</g>
<g id="Publicidad">
</g>
<g id="Iconos">
	<g>
		<defs>
			<circle id="SVGID_23_" cx="-18.217" cy="16.595" r="15.917"/>
		</defs>
		<clipPath id="SVGID_2_">
			<use xlink:href="#SVGID_23_"  overflow="visible"/>
		</clipPath>
		<g clip-path="url(#SVGID_2_)">
			<path fill-rule="evenodd" clip-rule="evenodd" fill="#00247D" d="M-43.614,22.229c0-3.693,0-7.387,0-11.08
				c0.071-0.002,0.143-0.006,0.214-0.006c16.503,0,33.007,0,49.511,0c0.071,0,0.143,0.004,0.214,0.006c0,3.693,0,7.387,0,11.08
				c-0.071,0.002-0.143,0.006-0.214,0.006c-16.504,0-33.008,0-49.511,0C-43.472,22.236-43.543,22.232-43.614,22.229z"/>
			<path fill-rule="evenodd" clip-rule="evenodd" fill="#DE1018" d="M-43.614,5.609c0-1.859,0-3.718,0-5.578
				c16.646,0,33.292,0,49.938,0c0,1.86,0,3.719,0,5.578c-0.081-0.035-0.167-0.018-0.25-0.018C-1.323,5.59-8.722,5.59-16.12,5.59
				c-9.075,0-18.151,0-27.226,0.001C-43.435,5.591-43.527,5.572-43.614,5.609z"/>
			<path fill-rule="evenodd" clip-rule="evenodd" fill="#FFFFFF" d="M-43.614,5.609c0.087-0.037,0.18-0.018,0.269-0.018
				C-34.271,5.59-25.194,5.59-16.12,5.59c7.398,0,14.796,0,22.194,0.001c0.083,0,0.169-0.017,0.25,0.018c0,1.847,0,3.693,0,5.54
				c-0.071-0.002-0.143-0.006-0.214-0.006c-16.504,0-33.008,0-49.511,0c-0.071,0-0.143,0.004-0.214,0.006
				C-43.614,9.303-43.614,7.456-43.614,5.609z"/>
			<path fill-rule="evenodd" clip-rule="evenodd" fill="#FFFFFF" d="M-43.614,22.229c0.071,0.002,0.143,0.006,0.214,0.006
				c16.503,0,33.007,0,49.511,0c0.071,0,0.143-0.004,0.214-0.006c0,1.847,0,3.693,0,5.54c-0.081,0.036-0.167,0.019-0.25,0.019
				c-8.002,0.001-16.005,0-24.007,0c-8.477,0-16.955,0-25.431,0c-0.084,0-0.169,0.017-0.25-0.019
				C-43.614,25.923-43.614,24.077-43.614,22.229z"/>
			<path fill-rule="evenodd" clip-rule="evenodd" fill="#DE1018" d="M-43.614,27.77c0.081,0.036,0.166,0.019,0.25,0.019
				c8.477,0.001,16.954,0,25.431,0c8.002,0,16.005,0,24.007,0c0.083,0,0.169,0.017,0.25-0.019c0,1.847,0,3.694,0,5.541
				c-16.646,0-33.292,0-49.938,0C-43.614,31.463-43.614,29.616-43.614,27.77z"/>
			<path fill-rule="evenodd" clip-rule="evenodd" fill="#E64B51" d="M-43.614,33.31c16.646,0,33.292,0,49.938,0
				c-0.009,0.012,0.02,0.041-0.02,0.039c-0.052-0.001-0.104,0-0.156,0c-16.529,0-33.059,0-49.588-0.002
				C-43.496,33.347-43.571,33.391-43.614,33.31z"/>
		</g>
	</g>
	<g>
		<defs>
			<circle id="SVGID_25_" cx="17.783" cy="16.595" r="15.917"/>
		</defs>
		<clipPath id="SVGID_4_">
			<use xlink:href="#SVGID_25_"  overflow="visible"/>
		</clipPath>
		<g clip-path="url(#SVGID_4_)">
			<path fill-rule="evenodd" clip-rule="evenodd" fill="#CD1126" d="M-0.871,12.11c0-3.929,0-7.859-0.002-11.789
				c0-0.1,0.016-0.123,0.087-0.123c12.565,0.003,25.131,0.003,37.697,0c0.07,0,0.087,0.023,0.087,0.123
				c-0.002,3.93-0.002,7.859-0.002,11.789c-0.035,0.002-0.069,0.006-0.104,0.006c-12.554,0-25.107,0-37.66,0
				C-0.802,12.117-0.837,12.113-0.871,12.11z"/>
			<path fill-rule="evenodd" clip-rule="evenodd" d="M36.996,20.541c0,4.313,0,8.627,0.001,12.941c0,0.106-0.011,0.138-0.085,0.138
				c-12.566-0.003-25.133-0.003-37.7,0c-0.074,0-0.085-0.031-0.085-0.138c0.002-4.314,0.002-8.628,0.002-12.941
				c0.034-0.002,0.069-0.007,0.104-0.007c12.553-0.001,25.106-0.001,37.66,0C36.927,20.534,36.961,20.539,36.996,20.541z"/>
			<path fill-rule="evenodd" clip-rule="evenodd" fill="#FEFEFE" d="M36.996,20.538c-0.035-0.001-0.069-0.004-0.104-0.004
				c-12.554,0-25.107,0-37.66,0c-0.035,0-0.069,0.003-0.104,0.004c0-2.809,0-5.617,0-8.426c0.034,0.001,0.069,0.004,0.104,0.004
				c12.553,0,25.106,0,37.66,0c0.034,0,0.069-0.003,0.104-0.004C36.996,14.921,36.996,17.729,36.996,20.538z M12.076,18.521
				c0.015-0.04-0.008-0.074-0.019-0.108c-0.182-0.56-0.363-1.12-0.548-1.678c-0.023-0.071-0.008-0.105,0.05-0.146
				c0.346-0.247,0.69-0.499,1.034-0.749c0.159-0.115,0.317-0.231,0.495-0.36c-0.055,0-0.085,0-0.116,0
				c-0.596,0-1.192-0.001-1.789,0.002c-0.061,0-0.087-0.019-0.106-0.076c-0.181-0.563-0.364-1.125-0.547-1.688
				c-0.012-0.036-0.023-0.072-0.042-0.129c-0.201,0.619-0.395,1.213-0.585,1.809c-0.021,0.066-0.051,0.084-0.118,0.084
				c-0.594-0.003-1.187-0.002-1.779-0.002c-0.032,0-0.064,0-0.116,0c0.491,0.356,0.96,0.697,1.429,1.038
				c0.176,0.128,0.177,0.128,0.11,0.333c-0.179,0.552-0.359,1.104-0.54,1.658c0.039,0.007,0.061-0.024,0.087-0.043
				c0.484-0.352,0.97-0.703,1.452-1.058c0.048-0.035,0.079-0.03,0.123,0.002c0.325,0.239,0.652,0.476,0.979,0.713
				C11.71,18.255,11.891,18.387,12.076,18.521z M23.037,15.481c0.036,0.027,0.05,0.039,0.065,0.049
				c0.49,0.355,0.98,0.711,1.47,1.066c0.035,0.025,0.075,0.042,0.055,0.103c-0.198,0.602-0.394,1.205-0.591,1.808
				c0.033,0.013,0.051-0.014,0.072-0.03c0.485-0.352,0.97-0.703,1.452-1.058c0.061-0.045,0.097-0.039,0.154,0.003
				c0.501,0.368,1.005,0.732,1.509,1.098c0.014-0.041-0.008-0.075-0.019-0.11c-0.182-0.56-0.363-1.12-0.548-1.678
				c-0.021-0.065-0.012-0.099,0.044-0.14c0.397-0.285,0.792-0.573,1.187-0.86c0.11-0.08,0.22-0.16,0.347-0.253
				c-0.333,0-0.643,0-0.952,0c-0.318,0-0.637,0-0.956,0.001c-0.057,0-0.1-0.006-0.105-0.075c-0.002-0.027-0.013-0.055-0.022-0.082
				c-0.161-0.496-0.323-0.992-0.485-1.487c-0.024-0.075-0.048-0.151-0.074-0.231c-0.013,0.013-0.019,0.016-0.021,0.021
				c-0.191,0.59-0.382,1.179-0.571,1.77c-0.021,0.064-0.048,0.087-0.117,0.086c-0.378-0.004-0.757-0.002-1.136-0.002
				C23.552,15.481,23.306,15.481,23.037,15.481z"/>
			<path fill-rule="evenodd" clip-rule="evenodd" fill="#017A3D" d="M12.076,18.521c-0.186-0.135-0.366-0.266-0.546-0.397
				c-0.327-0.237-0.653-0.474-0.979-0.713c-0.044-0.032-0.074-0.038-0.123-0.002c-0.482,0.354-0.968,0.706-1.452,1.058
				c-0.026,0.019-0.048,0.05-0.087,0.043c0.181-0.555,0.36-1.106,0.54-1.658c0.066-0.205,0.065-0.205-0.11-0.333
				C8.85,16.178,8.38,15.837,7.89,15.481c0.052,0,0.084,0,0.116,0c0.593,0,1.186-0.001,1.779,0.002c0.067,0,0.097-0.019,0.118-0.084
				c0.19-0.595,0.385-1.189,0.585-1.809c0.018,0.057,0.03,0.093,0.042,0.129c0.183,0.563,0.366,1.125,0.547,1.688
				c0.019,0.057,0.045,0.076,0.106,0.076c0.596-0.003,1.192-0.002,1.789-0.002c0.031,0,0.062,0,0.116,0
				c-0.177,0.129-0.336,0.245-0.495,0.36c-0.344,0.25-0.688,0.501-1.034,0.749c-0.058,0.041-0.073,0.075-0.05,0.146
				c0.186,0.558,0.367,1.118,0.548,1.678C12.068,18.448,12.091,18.482,12.076,18.521z"/>
			<path fill-rule="evenodd" clip-rule="evenodd" fill="#017A3D" d="M23.037,15.481c0.269,0,0.515,0,0.76,0
				c0.379,0,0.757-0.002,1.136,0.002c0.069,0.001,0.097-0.021,0.117-0.086c0.188-0.59,0.38-1.18,0.571-1.77
				c0.001-0.005,0.008-0.008,0.021-0.021c0.026,0.081,0.05,0.156,0.074,0.231c0.162,0.496,0.324,0.992,0.485,1.487
				c0.009,0.027,0.02,0.054,0.022,0.082c0.005,0.069,0.048,0.075,0.105,0.075c0.318-0.001,0.637-0.001,0.956-0.001
				c0.309,0,0.619,0,0.952,0c-0.127,0.093-0.237,0.173-0.347,0.253c-0.395,0.287-0.79,0.575-1.187,0.86
				c-0.057,0.041-0.066,0.074-0.044,0.14c0.185,0.559,0.367,1.118,0.548,1.678c0.011,0.035,0.033,0.069,0.019,0.11
				c-0.503-0.366-1.007-0.73-1.509-1.098c-0.057-0.042-0.093-0.048-0.154-0.003c-0.482,0.355-0.967,0.706-1.452,1.058
				c-0.021,0.016-0.04,0.043-0.072,0.03c0.197-0.603,0.393-1.206,0.591-1.808c0.02-0.061-0.02-0.078-0.055-0.103
				c-0.49-0.355-0.979-0.711-1.47-1.066C23.087,15.52,23.073,15.508,23.037,15.481z"/>
		</g>
	</g>
</g>
<g id="Imagenes">
</g>
<g id="Cintillos">
</g>
<g id="Botones">
</g>
<g id="TXT">
</g>
<g id="Logo">
</g>
<g id="Guia">
</g>
</svg>
