<?xml version="1.0" encoding="utf-8"?>
<!-- Generator: Adobe Illustrator 16.0.0, SVG Export Plug-In . SVG Version: 6.00 Build 0)  -->
<!DOCTYPE svg PUBLIC "-//W3C//DTD SVG 1.1//EN" "http://www.w3.org/Graphics/SVG/1.1/DTD/svg11.dtd">
<svg version="1.1" xmlns="http://www.w3.org/2000/svg" xmlns:xlink="http://www.w3.org/1999/xlink" x="0px" y="0px"
	 width="34.417px" height="34.25px" viewBox="0 0 34.417 34.25" enable-background="new 0 0 34.417 34.25" xml:space="preserve">
<g id="Soporte">
</g>
<g id="Publicidad">
</g>
<g id="Iconos">
	<g>
		<defs>
			<circle id="SVGID_21_" cx="-18.606" cy="16.595" r="15.917"/>
		</defs>
		<clipPath id="SVGID_2_">
			<use xlink:href="#SVGID_21_"  overflow="visible"/>
		</clipPath>
		<g clip-path="url(#SVGID_2_)">
			<path fill-rule="evenodd" clip-rule="evenodd" fill="#E20A17" d="M-18.605,33.603c-7.158,0-14.316,0-21.475,0.002
				c-0.081,0-0.099-0.021-0.099-0.117c0.002-11.262,0.002-22.524,0-33.787c0-0.095,0.018-0.117,0.099-0.117
				c14.316,0.002,28.633,0.002,42.949,0c0.081,0,0.099,0.021,0.099,0.117c-0.002,11.262-0.002,22.525,0,33.787
				c0,0.096-0.019,0.117-0.099,0.117C-4.289,33.603-11.447,33.603-18.605,33.603z M-18.955,12.597
				c0.011,0.02,0.023,0.039,0.039,0.064c0.016-0.04,0-0.061-0.02-0.081c-0.018-0.027-0.034-0.055-0.052-0.082
				c-1.368-1.89-3.208-2.935-5.542-3.079c-1.34-0.082-2.607,0.207-3.785,0.849c-2.841,1.547-4.304,4.706-3.595,7.874
				c0.537,2.398,1.982,4.091,4.229,5.075c1.345,0.589,2.758,0.717,4.199,0.421c1.907-0.392,3.409-1.405,4.526-2.995
				c0.013-0.018,0.04-0.036,0.015-0.07c-0.078,0.074-0.154,0.149-0.234,0.221c-1.425,1.289-3.091,1.776-4.98,1.45
				c-1.128-0.194-2.117-0.703-2.93-1.513c-1.511-1.505-2.063-3.321-1.62-5.403c0.524-2.464,2.666-4.291,5.168-4.468
				c1.261-0.089,2.429,0.197,3.503,0.865C-19.639,11.974-19.289,12.275-18.955,12.597z M-12.703,18.706
				c-0.038-0.052-0.058-0.082-0.079-0.111c-0.465-0.639-0.929-1.279-1.395-1.917c-0.044-0.061-0.051-0.1-0.003-0.165
				c0.299-0.404,0.593-0.812,0.889-1.219c0.191-0.264,0.382-0.527,0.574-0.792c-0.031-0.015-0.05,0.001-0.069,0.007
				c-0.768,0.249-1.535,0.495-2.301,0.749c-0.083,0.027-0.117,0.007-0.163-0.057c-0.462-0.641-0.928-1.28-1.393-1.918
				c-0.02-0.026-0.033-0.062-0.08-0.079c0,0.045,0,0.081,0,0.115c0,0.791-0.001,1.582,0.002,2.373c0,0.075-0.022,0.104-0.093,0.126
				c-0.598,0.19-1.194,0.385-1.791,0.579c-0.191,0.062-0.383,0.126-0.595,0.196c0.056,0.019,0.089,0.03,0.123,0.042
				c0.747,0.242,1.493,0.486,2.241,0.726c0.084,0.027,0.116,0.063,0.115,0.156c-0.004,0.784-0.003,1.567-0.001,2.351
				c0,0.037-0.016,0.077,0.018,0.117c0.024-0.031,0.045-0.059,0.066-0.087c0.465-0.639,0.93-1.278,1.393-1.918
				c0.045-0.063,0.083-0.076,0.157-0.051c0.288,0.099,0.578,0.191,0.868,0.285C-13.723,18.375-13.226,18.536-12.703,18.706z"/>
		</g>
	</g>
	<g>
		<defs>
			<circle id="SVGID_23_" cx="17.783" cy="16.595" r="15.917"/>
		</defs>
		<clipPath id="SVGID_4_">
			<use xlink:href="#SVGID_23_"  overflow="visible"/>
		</clipPath>
		<g clip-path="url(#SVGID_4_)">
			<path fill-rule="evenodd" clip-rule="evenodd" fill="#00247D" d="M-7.614,22.229c0-3.693,0-7.387,0-11.08
				c0.071-0.002,0.143-0.006,0.214-0.006c16.503,0,33.007,0,49.511,0c0.071,0,0.143,0.004,0.214,0.006c0,3.693,0,7.387,0,11.08
				c-0.071,0.002-0.143,0.006-0.214,0.006c-16.504,0-33.008,0-49.511,0C-7.472,22.236-7.543,22.232-7.614,22.229z"/>
			<path fill-rule="evenodd" clip-rule="evenodd" fill="#DE1018" d="M-7.614,5.609c0-1.859,0-3.718,0-5.578
				c16.646,0,33.292,0,49.938,0c0,1.86,0,3.719,0,5.578c-0.081-0.035-0.167-0.018-0.25-0.018C34.677,5.59,27.278,5.59,19.88,5.59
				c-9.075,0-18.151,0-27.226,0.001C-7.435,5.591-7.527,5.572-7.614,5.609z"/>
			<path fill-rule="evenodd" clip-rule="evenodd" fill="#FFFFFF" d="M-7.614,5.609c0.087-0.037,0.18-0.018,0.269-0.018
				C1.729,5.59,10.806,5.59,19.88,5.59c7.398,0,14.796,0,22.194,0.001c0.083,0,0.169-0.017,0.25,0.018c0,1.847,0,3.693,0,5.54
				c-0.071-0.002-0.143-0.006-0.214-0.006c-16.504,0-33.008,0-49.511,0c-0.071,0-0.143,0.004-0.214,0.006
				C-7.614,9.303-7.614,7.456-7.614,5.609z"/>
			<path fill-rule="evenodd" clip-rule="evenodd" fill="#FFFFFF" d="M-7.614,22.229c0.071,0.002,0.143,0.006,0.214,0.006
				c16.503,0,33.007,0,49.511,0c0.071,0,0.143-0.004,0.214-0.006c0,1.847,0,3.693,0,5.54c-0.081,0.036-0.167,0.019-0.25,0.019
				c-8.002,0.001-16.005,0-24.007,0c-8.477,0-16.955,0-25.431,0c-0.084,0-0.169,0.017-0.25-0.019
				C-7.614,25.923-7.614,24.077-7.614,22.229z"/>
			<path fill-rule="evenodd" clip-rule="evenodd" fill="#DE1018" d="M-7.614,27.77c0.081,0.036,0.166,0.019,0.25,0.019
				c8.477,0.001,16.954,0,25.431,0c8.002,0,16.005,0,24.007,0c0.083,0,0.169,0.017,0.25-0.019c0,1.847,0,3.694,0,5.541
				c-16.646,0-33.292,0-49.938,0C-7.614,31.463-7.614,29.616-7.614,27.77z"/>
			<path fill-rule="evenodd" clip-rule="evenodd" fill="#E64B51" d="M-7.614,33.31c16.646,0,33.292,0,49.938,0
				c-0.009,0.012,0.02,0.041-0.02,0.039c-0.052-0.001-0.104,0-0.156,0c-16.529,0-33.059,0-49.588-0.002
				C-7.496,33.347-7.571,33.391-7.614,33.31z"/>
		</g>
	</g>
</g>
<g id="Imagenes">
</g>
<g id="Cintillos">
</g>
<g id="Botones">
</g>
<g id="TXT">
</g>
<g id="Logo">
</g>
<g id="Guia">
</g>
</svg>
