<?xml version="1.0" encoding="utf-8"?>
<!-- Generator: Adobe Illustrator 16.0.0, SVG Export Plug-In . SVG Version: 6.00 Build 0)  -->
<!DOCTYPE svg PUBLIC "-//W3C//DTD SVG 1.1//EN" "http://www.w3.org/Graphics/SVG/1.1/DTD/svg11.dtd">
<svg version="1.1" xmlns="http://www.w3.org/2000/svg" xmlns:xlink="http://www.w3.org/1999/xlink" x="0px" y="0px"
	 width="34.417px" height="34.25px" viewBox="0 0 34.417 34.25" enable-background="new 0 0 34.417 34.25" xml:space="preserve">
<g id="Soporte">
</g>
<g id="Publicidad">
</g>
<g id="Iconos">
	<g>
		<defs>
			<circle id="SVGID_19_" cx="-18.217" cy="16.595" r="15.917"/>
		</defs>
		<clipPath id="SVGID_2_">
			<use xlink:href="#SVGID_19_"  overflow="visible"/>
		</clipPath>
		<g clip-path="url(#SVGID_2_)">
			<path fill-rule="evenodd" clip-rule="evenodd" fill="#FDFDFE" d="M-34.86,18.375c0-5.13,0-10.261-0.003-15.391
				c0-0.099,0.022-0.12,0.12-0.12c13.879,0.002,27.757,0.002,41.636,0c0.098,0,0.121,0.021,0.12,0.12
				c-0.002,9.223-0.002,18.447,0,27.67c0,0.098-0.022,0.12-0.12,0.12c-13.878-0.003-27.757-0.003-41.636,0
				c-0.098,0-0.121-0.022-0.12-0.12c0.004-0.998,0.003-1.996,0.003-2.994c0.042,0.003,0.086,0.009,0.129,0.009
				c13.86,0.001,27.72,0.001,41.58,0.004c0.124,0,0.139-0.04,0.138-0.146c-0.004-0.929-0.002-1.856-0.002-2.785
				c0-0.169,0-0.169-0.173-0.169c-13.843,0-27.686,0-41.528,0c-0.048,0-0.096,0.001-0.144,0.001c0-1.037,0-2.074,0-3.112
				c0.038,0.002,0.078,0.006,0.117,0.006c13.864,0.001,27.728,0,41.592,0.004c0.123,0,0.139-0.038,0.138-0.146
				c-0.004-0.929-0.002-1.856-0.002-2.785c0-0.168,0-0.168-0.174-0.168c-13.838,0-27.676,0-41.514,0
				C-34.756,18.373-34.809,18.375-34.86,18.375z M-22.914,6.458c-0.02-0.017-0.039-0.022-0.059-0.002
				c-0.822,0.566-1.643,1.133-2.479,1.708c0.004-0.034,0.002-0.047,0.006-0.059c0.201-0.522,0.288-1.061,0.178-1.613
				c-0.083-0.423,0.051-0.761,0.339-1.057c0.044-0.046,0.082-0.1,0.123-0.148c-0.181,0.044-0.344,0.098-0.498,0.179
				c-0.278,0.146-0.454,0.371-0.538,0.672c-0.042,0.15-0.084,0.301-0.129,0.451c-0.115,0.385-0.309,0.723-0.6,1.03
				c-0.179-0.986-0.355-1.952-0.531-2.918c-0.007,0-0.015,0-0.022,0c-0.182,1-0.364,1.999-0.546,2.998
				c-0.268-0.589-0.666-1.048-1.187-1.411c-0.189-0.132-0.292-0.326-0.336-0.555c-0.035-0.175-0.033-0.354-0.063-0.565
				c-0.073,0.164-0.138,0.292-0.188,0.426c-0.093,0.25-0.123,0.507-0.027,0.766c0.051,0.135,0.125,0.258,0.197,0.383
				c0.154,0.268,0.296,0.542,0.359,0.848c0.034,0.166,0.073,0.333,0.062,0.522c-0.817-0.565-1.616-1.118-2.414-1.672
				c-0.007,0.008-0.014,0.015-0.021,0.021c0.573,0.828,1.145,1.655,1.73,2.502c-0.042-0.007-0.055-0.007-0.066-0.012
				c-0.525-0.205-1.065-0.281-1.625-0.18c-0.25,0.045-0.495,0.044-0.721-0.096c-0.174-0.106-0.33-0.239-0.473-0.385
				c-0.005,0.002-0.011,0.004-0.016,0.006c0.006-0.002,0.011-0.004,0.017-0.005c-0.021,0.127,0.057,0.229,0.097,0.338
				c0.141,0.379,0.4,0.629,0.802,0.731c0.349,0.088,0.699,0.183,1.006,0.383c0.146,0.096,0.296,0.188,0.417,0.332
				c-0.983,0.18-1.95,0.355-2.917,0.531c0.001,0.007,0.001,0.013,0.002,0.02c1.001,0.183,2.003,0.364,3.022,0.551
				c-0.183,0.1-0.343,0.186-0.501,0.275c-0.379,0.218-0.654,0.543-0.909,0.887c-0.15,0.203-0.349,0.325-0.598,0.36
				c-0.17,0.023-0.34,0.04-0.539,0.063c0.154,0.067,0.282,0.128,0.413,0.181c0.341,0.136,0.671,0.118,0.99-0.068
				c0.127-0.074,0.256-0.146,0.386-0.216c0.354-0.19,0.729-0.295,1.134-0.304c-0.003,0.057-0.039,0.085-0.063,0.119
				c-0.509,0.737-1.02,1.474-1.527,2.212c-0.023,0.034-0.093,0.063-0.044,0.127c-0.006-0.009-0.012-0.019-0.018-0.027
				c-0.003,0.003-0.006,0.006-0.009,0.009c0.009,0.006,0.018,0.012,0.026,0.018c0.007-0.011,0.013-0.023,0.022-0.029
				c0.813-0.563,1.626-1.124,2.439-1.686c0.008,0.01,0.017,0.02,0.025,0.029c-0.208,0.559-0.275,1.131-0.164,1.719
				c0.063,0.333-0.053,0.605-0.263,0.852c-0.073,0.086-0.145,0.172-0.22,0.262c0.018,0.004,0.027,0.009,0.034,0.007
				c0.054-0.018,0.106-0.039,0.16-0.056c0.493-0.157,0.806-0.474,0.908-0.993c0.045-0.225,0.119-0.444,0.221-0.651
				c0.115-0.233,0.257-0.447,0.455-0.648c0.18,0.991,0.356,1.958,0.533,2.925c0.006-0.001,0.013-0.002,0.019-0.003
				c0.182-0.999,0.363-1.999,0.546-3.003c0.019,0.01,0.03,0.012,0.032,0.018c0.247,0.581,0.644,1.036,1.16,1.396
				c0.194,0.136,0.3,0.337,0.335,0.569c0.026,0.171,0.039,0.344,0.062,0.545c0.063-0.142,0.118-0.258,0.167-0.375
				c0.147-0.351,0.14-0.692-0.053-1.026c-0.104-0.181-0.208-0.362-0.297-0.551c-0.143-0.304-0.219-0.626-0.222-0.989
				c0.81,0.561,1.6,1.107,2.391,1.653c0.009-0.011,0.017-0.021,0.025-0.032c-0.565-0.816-1.129-1.633-1.708-2.47
				c0.044,0.008,0.062,0.008,0.076,0.014c0.514,0.197,1.043,0.282,1.587,0.175c0.414-0.081,0.753,0.036,1.05,0.321
				c0.049,0.047,0.107,0.086,0.162,0.129c0.003,0.011,0.008,0.025,0.022,0.015c0.004-0.003-0.002-0.021-0.004-0.032
				c-0.045-0.117-0.085-0.237-0.134-0.353c-0.143-0.335-0.382-0.564-0.741-0.658c-0.127-0.032-0.252-0.069-0.377-0.105
				c-0.407-0.116-0.769-0.313-1.093-0.62c0.988-0.18,1.957-0.356,2.926-0.533c0-0.006,0-0.012,0-0.019
				c-1.003-0.183-2.007-0.365-3.012-0.549c0.587-0.26,1.044-0.656,1.404-1.17c0.139-0.197,0.335-0.309,0.573-0.354
				c0.172-0.032,0.349-0.034,0.523-0.066c-0.124-0.066-0.248-0.127-0.375-0.177c-0.34-0.136-0.67-0.121-0.99,0.064
				c-0.185,0.107-0.371,0.212-0.563,0.303c-0.304,0.144-0.626,0.212-0.983,0.221c0.25-0.361,0.488-0.703,0.725-1.047
				c0.31-0.451,0.619-0.903,0.929-1.354C-22.943,6.472-22.929,6.465-22.914,6.458c-0.005-0.008-0.01-0.014-0.014-0.021
				c-0.002,0.003-0.005,0.007-0.007,0.009C-22.929,6.45-22.921,6.455-22.914,6.458z M-6.184,5.969
				c-4.342,0-8.683,0.001-13.024-0.003c-0.126,0-0.157,0.031-0.156,0.157c0.006,0.937,0.005,1.874,0,2.811
				c-0.001,0.11,0.028,0.135,0.136,0.135c8.695-0.002,17.392-0.002,26.087,0c0.103,0,0.128-0.026,0.127-0.128
				C6.982,8.003,6.981,7.067,6.988,6.129c0-0.129-0.027-0.163-0.161-0.163C2.49,5.97-1.847,5.969-6.184,5.969z M-6.183,12.171
				c-4.345,0-8.691,0.001-13.037-0.002c-0.112,0-0.145,0.022-0.144,0.141c0.005,0.941,0.005,1.883,0,2.824
				c0,0.109,0.027,0.136,0.136,0.136c8.695-0.003,17.391-0.003,26.086-0.001c0.101,0,0.129-0.022,0.128-0.127
				c-0.004-0.937-0.005-1.874,0.001-2.812c0.001-0.129-0.028-0.162-0.161-0.162C2.49,12.172-1.847,12.171-6.183,12.171z"/>
			<path fill-rule="evenodd" clip-rule="evenodd" fill="#0038A7" d="M-34.86,24.574c0.048,0,0.096-0.001,0.144-0.001
				c13.843,0,27.685,0,41.528,0c0.173,0,0.173,0,0.173,0.169c0,0.929-0.002,1.856,0.002,2.785c0.001,0.106-0.014,0.146-0.138,0.146
				c-13.86-0.003-27.72-0.003-41.58-0.004c-0.043,0-0.086-0.006-0.129-0.009C-34.86,26.631-34.86,25.603-34.86,24.574z"/>
			<path fill-rule="evenodd" clip-rule="evenodd" fill="#0038A7" d="M-34.86,18.375c0.052-0.001,0.104-0.003,0.156-0.003
				c13.838,0,27.676,0,41.514,0c0.174,0,0.174,0,0.174,0.168c0,0.929-0.002,1.856,0.002,2.785c0.001,0.107-0.015,0.146-0.138,0.146
				c-13.864-0.004-27.729-0.003-41.592-0.004c-0.039,0-0.079-0.004-0.117-0.006C-34.86,20.433-34.86,19.405-34.86,18.375z"/>
			<path fill-rule="evenodd" clip-rule="evenodd" fill="#0038A7" d="M-6.184,5.969c4.337,0,8.673,0.001,13.011-0.003
				c0.134,0,0.161,0.034,0.161,0.163C6.981,7.067,6.982,8.003,6.986,8.941c0.001,0.102-0.024,0.128-0.127,0.128
				c-8.695-0.002-17.392-0.002-26.087,0c-0.108,0-0.137-0.024-0.136-0.135c0.005-0.937,0.005-1.874,0-2.811
				c0-0.126,0.03-0.157,0.156-0.157C-14.866,5.97-10.525,5.969-6.184,5.969z"/>
			<path fill-rule="evenodd" clip-rule="evenodd" fill="#0038A7" d="M-6.183,12.171c4.336,0,8.673,0.001,13.01-0.003
				c0.133,0,0.162,0.033,0.161,0.162c-0.006,0.938-0.005,1.875-0.001,2.812c0,0.104-0.028,0.127-0.128,0.127
				c-8.695-0.002-17.391-0.002-26.086,0.001c-0.108,0-0.136-0.026-0.136-0.136c0.005-0.941,0.005-1.883,0-2.824
				c-0.001-0.118,0.032-0.141,0.144-0.141C-14.874,12.172-10.528,12.171-6.183,12.171z"/>
		</g>
	</g>
	<g>
		<defs>
			<circle id="SVGID_21_" cx="17.394" cy="16.595" r="15.917"/>
		</defs>
		<clipPath id="SVGID_4_">
			<use xlink:href="#SVGID_21_"  overflow="visible"/>
		</clipPath>
		<g clip-path="url(#SVGID_4_)">
			<path fill-rule="evenodd" clip-rule="evenodd" fill="#E20A17" d="M17.395,33.603c-7.158,0-14.316,0-21.475,0.002
				c-0.081,0-0.099-0.021-0.099-0.117c0.002-11.262,0.002-22.524,0-33.787c0-0.095,0.018-0.117,0.099-0.117
				c14.316,0.002,28.633,0.002,42.949,0c0.081,0,0.099,0.021,0.099,0.117c-0.002,11.262-0.002,22.525,0,33.787
				c0,0.096-0.019,0.117-0.099,0.117C31.711,33.603,24.553,33.603,17.395,33.603z M17.045,12.597
				c0.011,0.02,0.023,0.039,0.039,0.064c0.016-0.04,0-0.061-0.02-0.081c-0.018-0.027-0.034-0.055-0.052-0.082
				c-1.368-1.89-3.208-2.935-5.542-3.079c-1.34-0.082-2.607,0.207-3.785,0.849c-2.841,1.547-4.304,4.706-3.595,7.874
				c0.537,2.398,1.982,4.091,4.229,5.075c1.345,0.589,2.758,0.717,4.199,0.421c1.907-0.392,3.409-1.405,4.526-2.995
				c0.013-0.018,0.04-0.036,0.015-0.07c-0.078,0.074-0.154,0.149-0.234,0.221c-1.425,1.289-3.091,1.776-4.98,1.45
				c-1.128-0.194-2.117-0.703-2.93-1.513c-1.511-1.505-2.063-3.321-1.62-5.403c0.524-2.464,2.666-4.291,5.168-4.468
				c1.261-0.089,2.429,0.197,3.503,0.865C16.361,11.974,16.711,12.275,17.045,12.597z M23.297,18.706
				c-0.038-0.052-0.058-0.082-0.079-0.111c-0.465-0.639-0.929-1.279-1.395-1.917c-0.044-0.061-0.051-0.1-0.003-0.165
				c0.299-0.404,0.593-0.812,0.889-1.219c0.191-0.264,0.382-0.527,0.574-0.792c-0.031-0.015-0.05,0.001-0.069,0.007
				c-0.768,0.249-1.535,0.495-2.301,0.749c-0.083,0.027-0.117,0.007-0.163-0.057c-0.462-0.641-0.928-1.28-1.393-1.918
				c-0.02-0.026-0.033-0.062-0.08-0.079c0,0.045,0,0.081,0,0.115c0,0.791-0.001,1.582,0.002,2.373c0,0.075-0.022,0.104-0.093,0.126
				c-0.598,0.19-1.194,0.385-1.791,0.579c-0.191,0.062-0.383,0.126-0.595,0.196c0.056,0.019,0.089,0.03,0.123,0.042
				c0.747,0.242,1.493,0.486,2.241,0.726c0.084,0.027,0.116,0.063,0.115,0.156c-0.004,0.784-0.003,1.567-0.001,2.351
				c0,0.037-0.016,0.077,0.018,0.117c0.024-0.031,0.045-0.059,0.066-0.087c0.465-0.639,0.93-1.278,1.393-1.918
				c0.045-0.063,0.083-0.076,0.157-0.051c0.288,0.099,0.578,0.191,0.868,0.285C22.277,18.375,22.774,18.536,23.297,18.706z"/>
			<path fill-rule="evenodd" clip-rule="evenodd" fill="#FEFDFD" d="M17.045,12.597c-0.334-0.322-0.684-0.624-1.08-0.87
				c-1.075-0.668-2.242-0.954-3.503-0.865c-2.502,0.177-4.644,2.003-5.168,4.468c-0.443,2.082,0.109,3.898,1.62,5.403
				c0.813,0.81,1.802,1.318,2.93,1.513c1.889,0.326,3.555-0.161,4.98-1.45c0.08-0.072,0.156-0.146,0.234-0.221
				c0.025,0.034-0.002,0.052-0.015,0.07c-1.117,1.59-2.619,2.604-4.526,2.995c-1.441,0.296-2.854,0.168-4.199-0.421
				c-2.246-0.983-3.692-2.676-4.229-5.075c-0.708-3.168,0.754-6.327,3.595-7.874c1.178-0.642,2.445-0.931,3.785-0.849
				c2.334,0.144,4.175,1.188,5.542,3.079c0.019,0.026,0.035,0.054,0.052,0.082C17.058,12.586,17.052,12.592,17.045,12.597z"/>
			<path fill-rule="evenodd" clip-rule="evenodd" fill="#FEFCFC" d="M23.297,18.706c-0.522-0.169-1.02-0.331-1.517-0.492
				c-0.29-0.094-0.581-0.186-0.868-0.285c-0.074-0.025-0.111-0.012-0.157,0.051c-0.462,0.641-0.928,1.279-1.393,1.918
				c-0.021,0.028-0.042,0.056-0.066,0.087c-0.033-0.04-0.018-0.08-0.018-0.117c-0.001-0.784-0.002-1.567,0.001-2.351
				c0-0.094-0.031-0.129-0.115-0.156c-0.748-0.239-1.494-0.483-2.241-0.726c-0.034-0.011-0.067-0.022-0.123-0.042
				c0.211-0.07,0.403-0.134,0.595-0.196c0.597-0.194,1.193-0.389,1.791-0.579c0.071-0.022,0.093-0.052,0.093-0.126
				c-0.003-0.791-0.002-1.582-0.002-2.373c0-0.035,0-0.07,0-0.115c0.047,0.018,0.06,0.053,0.08,0.079
				c0.465,0.639,0.931,1.277,1.393,1.918c0.046,0.063,0.08,0.084,0.163,0.057c0.766-0.253,1.533-0.5,2.301-0.749
				c0.02-0.006,0.038-0.022,0.069-0.007c-0.192,0.265-0.383,0.528-0.574,0.792c-0.296,0.407-0.59,0.814-0.889,1.219
				c-0.048,0.065-0.042,0.104,0.003,0.165c0.466,0.638,0.93,1.277,1.395,1.917C23.239,18.624,23.259,18.653,23.297,18.706z"/>
			<path fill-rule="evenodd" clip-rule="evenodd" fill="#FEFDFD" d="M17.064,12.581c0.02,0.02,0.035,0.042,0.02,0.081
				c-0.016-0.025-0.027-0.045-0.039-0.064C17.052,12.592,17.058,12.586,17.064,12.581z"/>
		</g>
	</g>
	<g>
		<defs>
			<circle id="SVGID_23_" cx="53.783" cy="16.595" r="15.917"/>
		</defs>
		<clipPath id="SVGID_6_">
			<use xlink:href="#SVGID_23_"  overflow="visible"/>
		</clipPath>
		<g clip-path="url(#SVGID_6_)">
			<path fill-rule="evenodd" clip-rule="evenodd" fill="#00247D" d="M28.386,22.229c0-3.693,0-7.387,0-11.08
				c0.071-0.002,0.143-0.006,0.214-0.006c16.503,0,33.007,0,49.511,0c0.071,0,0.143,0.004,0.214,0.006c0,3.693,0,7.387,0,11.08
				c-0.071,0.002-0.143,0.006-0.214,0.006c-16.504,0-33.008,0-49.511,0C28.528,22.236,28.457,22.232,28.386,22.229z"/>
			<path fill-rule="evenodd" clip-rule="evenodd" fill="#DE1018" d="M28.386,5.609c0-1.859,0-3.718,0-5.578
				c16.646,0,33.292,0,49.938,0c0,1.86,0,3.719,0,5.578c-0.081-0.035-0.167-0.018-0.25-0.018C70.677,5.59,63.278,5.59,55.88,5.59
				c-9.075,0-18.151,0-27.226,0.001C28.565,5.591,28.473,5.572,28.386,5.609z"/>
			<path fill-rule="evenodd" clip-rule="evenodd" fill="#FFFFFF" d="M28.386,5.609c0.087-0.037,0.18-0.018,0.269-0.018
				C37.729,5.59,46.806,5.59,55.88,5.59c7.398,0,14.796,0,22.194,0.001c0.083,0,0.169-0.017,0.25,0.018c0,1.847,0,3.693,0,5.54
				c-0.071-0.002-0.143-0.006-0.214-0.006c-16.504,0-33.008,0-49.511,0c-0.071,0-0.143,0.004-0.214,0.006
				C28.386,9.303,28.386,7.456,28.386,5.609z"/>
			<path fill-rule="evenodd" clip-rule="evenodd" fill="#FFFFFF" d="M28.386,22.229c0.071,0.002,0.143,0.006,0.214,0.006
				c16.503,0,33.007,0,49.511,0c0.071,0,0.143-0.004,0.214-0.006c0,1.847,0,3.693,0,5.54c-0.081,0.036-0.167,0.019-0.25,0.019
				c-8.002,0.001-16.005,0-24.007,0c-8.477,0-16.955,0-25.431,0c-0.084,0-0.169,0.017-0.25-0.019
				C28.386,25.923,28.386,24.077,28.386,22.229z"/>
			<path fill-rule="evenodd" clip-rule="evenodd" fill="#DE1018" d="M28.386,27.77c0.081,0.036,0.166,0.019,0.25,0.019
				c8.477,0.001,16.954,0,25.431,0c8.002,0,16.005,0,24.007,0c0.083,0,0.169,0.017,0.25-0.019c0,1.847,0,3.694,0,5.541
				c-16.646,0-33.292,0-49.938,0C28.386,31.463,28.386,29.616,28.386,27.77z"/>
			<path fill-rule="evenodd" clip-rule="evenodd" fill="#E64B51" d="M28.386,33.31c16.646,0,33.292,0,49.938,0
				c-0.009,0.012,0.02,0.041-0.02,0.039c-0.052-0.001-0.104,0-0.156,0c-16.529,0-33.059,0-49.588-0.002
				C28.504,33.347,28.429,33.391,28.386,33.31z"/>
		</g>
	</g>
</g>
<g id="Imagenes">
</g>
<g id="Cintillos">
</g>
<g id="Botones">
</g>
<g id="TXT">
</g>
<g id="Logo">
</g>
<g id="Guia">
</g>
</svg>
