<?xml version="1.0" encoding="utf-8"?>
<!-- Generator: Adobe Illustrator 16.0.0, SVG Export Plug-In . SVG Version: 6.00 Build 0)  -->
<!DOCTYPE svg PUBLIC "-//W3C//DTD SVG 1.1//EN" "http://www.w3.org/Graphics/SVG/1.1/DTD/svg11.dtd">
<svg version="1.1" xmlns="http://www.w3.org/2000/svg" xmlns:xlink="http://www.w3.org/1999/xlink" x="0px" y="0px"
	 width="34.417px" height="34.25px" viewBox="0 0 34.417 34.25" enable-background="new 0 0 34.417 34.25" xml:space="preserve">
<g id="Soporte">
</g>
<g id="Publicidad">
</g>
<g id="Iconos">
	<g>
		<defs>
			<circle id="SVGID_17_" cx="-18.217" cy="16.595" r="15.917"/>
		</defs>
		<clipPath id="SVGID_2_">
			<use xlink:href="#SVGID_17_"  overflow="visible"/>
		</clipPath>
		<g clip-path="url(#SVGID_2_)">
			<path fill-rule="evenodd" clip-rule="evenodd" fill="#FECA00" d="M6.035,0.483c0,3.588,0,7.176,0,10.764
				c-0.018,0.004-0.036,0.009-0.053,0.013c-0.102-0.002-0.203-0.006-0.304-0.006c-15.98,0-31.96,0-47.939,0
				c-0.093,0-0.186-0.002-0.279-0.003c-0.005-0.109-0.013-0.219-0.013-0.329c-0.001-3.359-0.001-6.718,0-10.077
				c0-0.417-0.055-0.363,0.362-0.363c15.982-0.001,31.964-0.001,47.948,0C5.849,0.481,5.941,0.482,6.035,0.483z"/>
			<path fill-rule="evenodd" clip-rule="evenodd" fill="#DB0000" d="M6.035,22.062c0,3.512-0.002,7.024,0.004,10.536
				c0.001,0.19-0.043,0.233-0.233,0.233c-16.121-0.005-32.241-0.005-48.361-0.005c0-3.484-0.001-6.968-0.002-10.453
				c0-0.102-0.006-0.203-0.009-0.304c0.01-0.003,0.017-0.009,0.022-0.018c16.074,0,32.149,0,48.223,0.001
				C5.798,22.052,5.916,22.058,6.035,22.062z"/>
			<path fill-rule="evenodd" clip-rule="evenodd" fill="#0100B9" d="M6.035,22.062c-0.119-0.003-0.237-0.01-0.355-0.01
				c-16.074-0.001-32.149-0.001-48.223-0.001c-0.004-0.109-0.014-0.219-0.014-0.329c-0.001-3.486-0.001-6.972-0.001-10.458h0.013
				l0.005-0.012c0.093,0,0.186,0.003,0.279,0.003c15.979,0,31.959,0,47.939,0c0.101,0,0.203,0.004,0.304,0.006
				c0.018,0.013,0.035,0.025,0.053,0.039C6.035,14.886,6.035,18.474,6.035,22.062z M-27.534,20.679
				c-0.101-0.294-0.168-0.528-0.26-0.75c-0.055-0.132-0.024-0.194,0.09-0.263c0.221-0.134,0.433-0.283,0.648-0.427
				c-0.265-0.05-0.524-0.062-0.781-0.045c-0.179,0.012-0.253-0.06-0.3-0.223c-0.063-0.217-0.152-0.427-0.25-0.694
				c-0.105,0.287-0.194,0.513-0.27,0.743c-0.04,0.12-0.1,0.173-0.234,0.168c-0.273-0.011-0.548-0.003-0.821-0.003
				c0.208,0.193,0.425,0.347,0.65,0.487c0.107,0.066,0.126,0.125,0.076,0.244c-0.096,0.229-0.168,0.47-0.269,0.76
				c0.262-0.169,0.483-0.302,0.692-0.451c0.119-0.083,0.206-0.1,0.332-0.004C-28.03,20.373-27.811,20.499-27.534,20.679z
				 M-7.209,20.679c-0.097-0.27-0.16-0.478-0.247-0.676c-0.075-0.172-0.063-0.283,0.119-0.381c0.208-0.113,0.397-0.259,0.595-0.392
				c-0.287-0.045-0.554-0.053-0.821-0.042c-0.143,0.006-0.211-0.043-0.254-0.177c-0.074-0.231-0.167-0.457-0.269-0.731
				c-0.095,0.259-0.188,0.452-0.234,0.655c-0.051,0.218-0.169,0.273-0.375,0.259c-0.236-0.016-0.474-0.004-0.711-0.004
				c0.208,0.193,0.413,0.34,0.629,0.468c0.124,0.074,0.159,0.14,0.099,0.282c-0.094,0.221-0.159,0.454-0.256,0.738
				c0.278-0.181,0.507-0.321,0.726-0.476c0.1-0.071,0.168-0.067,0.267,0.001C-7.721,20.357-7.491,20.497-7.209,20.679z
				 M-12.595,13.963c-0.007-0.015-0.014-0.03-0.021-0.044c-0.193,0-0.389-0.021-0.578,0.004c-0.3,0.04-0.466-0.055-0.533-0.364
				c-0.037-0.172-0.095-0.353-0.213-0.522c-0.086,0.242-0.172,0.46-0.241,0.683c-0.046,0.149-0.116,0.219-0.284,0.208
				c-0.257-0.016-0.516-0.004-0.774-0.004c0.195,0.184,0.396,0.331,0.61,0.456c0.131,0.078,0.173,0.148,0.108,0.3
				c-0.093,0.212-0.156,0.438-0.255,0.727c0.282-0.184,0.509-0.322,0.725-0.476c0.098-0.069,0.166-0.071,0.266-0.001
				c0.218,0.153,0.447,0.291,0.728,0.472c-0.098-0.279-0.162-0.503-0.255-0.714c-0.071-0.16-0.026-0.238,0.113-0.32
				C-12.993,14.244-12.797,14.099-12.595,13.963z M-10.191,15.121c-0.069,0.187-0.124,0.336-0.178,0.485
				c-0.151,0.417-0.15,0.417-0.585,0.419c-0.187,0.001-0.374,0-0.561,0c0.212,0.197,0.423,0.35,0.648,0.481
				c0.124,0.072,0.131,0.146,0.086,0.264c-0.088,0.232-0.166,0.469-0.264,0.748c0.2-0.13,0.369-0.215,0.507-0.336
				c0.239-0.21,0.452-0.225,0.698-0.009c0.139,0.122,0.311,0.206,0.519,0.339c-0.099-0.281-0.168-0.505-0.259-0.721
				c-0.06-0.141-0.041-0.225,0.095-0.305c0.218-0.13,0.424-0.278,0.636-0.419c-0.282-0.045-0.542-0.053-0.802-0.042
				c-0.146,0.006-0.228-0.029-0.272-0.183C-9.992,15.61-10.09,15.387-10.191,15.121z M-17.372,14.919
				c-0.1-0.286-0.163-0.512-0.258-0.723c-0.068-0.152-0.02-0.223,0.106-0.301c0.215-0.133,0.42-0.281,0.687-0.461
				c-0.289,0-0.503-0.026-0.709,0.005c-0.297,0.046-0.422-0.086-0.487-0.351c-0.043-0.174-0.123-0.34-0.206-0.562
				c-0.102,0.282-0.19,0.506-0.26,0.735c-0.042,0.136-0.109,0.183-0.252,0.177c-0.271-0.012-0.541-0.003-0.811-0.003
				c0.212,0.198,0.425,0.347,0.647,0.482c0.116,0.071,0.132,0.135,0.086,0.266c-0.081,0.225-0.189,0.445-0.224,0.723
				c0.238-0.156,0.457-0.284,0.658-0.435c0.125-0.094,0.215-0.081,0.335,0.005C-17.857,14.62-17.642,14.747-17.372,14.919z
				 M-25.42,17.521c-0.104-0.292-0.181-0.522-0.269-0.75c-0.044-0.118-0.036-0.193,0.087-0.265c0.226-0.132,0.438-0.288,0.656-0.434
				c-0.237-0.047-0.456-0.067-0.67-0.042c-0.252,0.029-0.386-0.05-0.444-0.305c-0.044-0.194-0.134-0.377-0.219-0.605
				c-0.073,0.197-0.131,0.354-0.188,0.51c-0.144,0.392-0.144,0.392-0.555,0.393c-0.196,0-0.393,0-0.662,0
				c0.286,0.192,0.496,0.346,0.72,0.48c0.122,0.073,0.13,0.147,0.083,0.266c-0.089,0.229-0.167,0.462-0.267,0.744
				c0.265-0.17,0.484-0.298,0.688-0.448c0.133-0.098,0.229-0.085,0.355,0.007C-25.899,17.221-25.682,17.351-25.42,17.521z
				 M-23.943,13.918c0.262,0.174,0.45,0.318,0.654,0.431c0.178,0.099,0.198,0.209,0.121,0.385c-0.087,0.196-0.148,0.404-0.243,0.669
				c0.277-0.177,0.501-0.308,0.71-0.46c0.117-0.086,0.197-0.077,0.31,0.004c0.207,0.15,0.426,0.282,0.704,0.464
				c-0.101-0.287-0.166-0.502-0.252-0.71c-0.061-0.149-0.048-0.238,0.105-0.323c0.215-0.12,0.414-0.271,0.619-0.409
				c-0.284-0.044-0.553-0.052-0.821-0.041c-0.133,0.004-0.195-0.042-0.235-0.168c-0.074-0.235-0.165-0.464-0.27-0.753
				c-0.104,0.283-0.194,0.508-0.269,0.737c-0.043,0.132-0.111,0.185-0.256,0.178C-23.333,13.909-23.6,13.918-23.943,13.918z"/>
			<path fill-rule="evenodd" clip-rule="evenodd" fill="#FEFCDF" d="M6.035,0.483C5.941,0.482,5.849,0.481,5.756,0.481
				c-15.983,0-31.965,0-47.948,0c-0.417,0-0.362-0.054-0.362,0.363c-0.001,3.359-0.001,6.718,0,10.077
				c0,0.11,0.008,0.22,0.013,0.329l-0.005,0.012h-0.013c-0.015-0.007-0.03-0.013-0.047-0.016c0-3.554,0.002-7.108-0.005-10.662
				c0-0.174,0.034-0.208,0.208-0.208c16.078,0.005,32.156,0.004,48.234,0.01C5.895,0.387,6.05,0.282,6.035,0.483z"/>
			<path fill-rule="evenodd" clip-rule="evenodd" fill="#362EA1" d="M6.035,11.298c-0.018-0.013-0.036-0.025-0.053-0.039
				c0.018-0.004,0.035-0.009,0.053-0.013C6.035,11.264,6.035,11.281,6.035,11.298z"/>
		</g>
	</g>
	<g>
		<defs>
			<circle id="SVGID_19_" cx="17.783" cy="16.595" r="15.917"/>
		</defs>
		<clipPath id="SVGID_4_">
			<use xlink:href="#SVGID_19_"  overflow="visible"/>
		</clipPath>
		<g clip-path="url(#SVGID_4_)">
			<path fill-rule="evenodd" clip-rule="evenodd" fill="#FDFDFE" d="M1.14,18.375c0-5.13,0-10.261-0.003-15.391
				c0-0.099,0.022-0.12,0.12-0.12c13.879,0.002,27.757,0.002,41.636,0c0.098,0,0.121,0.021,0.12,0.12
				c-0.002,9.223-0.002,18.447,0,27.67c0,0.098-0.022,0.12-0.12,0.12c-13.878-0.003-27.757-0.003-41.636,0
				c-0.098,0-0.121-0.022-0.12-0.12c0.004-0.998,0.003-1.996,0.003-2.994c0.042,0.003,0.086,0.009,0.129,0.009
				c13.86,0.001,27.72,0.001,41.58,0.004c0.124,0,0.139-0.04,0.138-0.146c-0.004-0.929-0.002-1.856-0.002-2.785
				c0-0.169,0-0.169-0.173-0.169c-13.843,0-27.686,0-41.528,0c-0.048,0-0.096,0.001-0.144,0.001c0-1.037,0-2.074,0-3.112
				c0.038,0.002,0.078,0.006,0.117,0.006c13.864,0.001,27.728,0,41.592,0.004c0.123,0,0.139-0.038,0.138-0.146
				c-0.004-0.929-0.002-1.856-0.002-2.785c0-0.168,0-0.168-0.174-0.168c-13.838,0-27.676,0-41.514,0
				C1.244,18.373,1.191,18.375,1.14,18.375z M13.086,6.458c-0.02-0.017-0.039-0.022-0.059-0.002
				c-0.822,0.566-1.643,1.133-2.479,1.708c0.004-0.034,0.002-0.047,0.006-0.059c0.201-0.522,0.288-1.061,0.178-1.613
				c-0.083-0.423,0.051-0.761,0.339-1.057c0.044-0.046,0.082-0.1,0.123-0.148c-0.181,0.044-0.344,0.098-0.498,0.179
				c-0.278,0.146-0.454,0.371-0.538,0.672c-0.042,0.15-0.084,0.301-0.129,0.451c-0.115,0.385-0.309,0.723-0.6,1.03
				C9.251,6.633,9.075,5.667,8.899,4.702c-0.007,0-0.015,0-0.022,0c-0.182,1-0.364,1.999-0.546,2.998
				C8.063,7.111,7.665,6.652,7.145,6.289C6.955,6.157,6.853,5.962,6.809,5.734C6.774,5.559,6.775,5.379,6.745,5.168
				C6.672,5.333,6.607,5.46,6.558,5.594C6.464,5.844,6.435,6.101,6.531,6.36c0.051,0.135,0.125,0.258,0.197,0.383
				C6.881,7.01,7.023,7.285,7.086,7.59c0.034,0.166,0.073,0.333,0.062,0.522C6.331,7.547,5.533,6.995,4.734,6.441
				C4.728,6.449,4.72,6.456,4.713,6.462c0.573,0.828,1.145,1.655,1.73,2.502C6.401,8.958,6.389,8.958,6.377,8.953
				c-0.525-0.205-1.065-0.281-1.625-0.18c-0.25,0.045-0.495,0.044-0.721-0.096c-0.174-0.106-0.33-0.239-0.473-0.385
				C3.552,8.294,3.547,8.296,3.542,8.298c0.006-0.002,0.011-0.004,0.017-0.005C3.537,8.42,3.615,8.522,3.656,8.631
				c0.141,0.379,0.4,0.629,0.802,0.731c0.349,0.088,0.699,0.183,1.006,0.383C5.61,9.841,5.76,9.934,5.881,10.078
				c-0.983,0.18-1.95,0.355-2.917,0.531c0.001,0.007,0.001,0.013,0.002,0.02c1.001,0.183,2.003,0.364,3.022,0.551
				c-0.183,0.1-0.343,0.186-0.501,0.275c-0.379,0.218-0.654,0.543-0.909,0.887c-0.15,0.203-0.349,0.325-0.598,0.36
				c-0.17,0.023-0.34,0.04-0.539,0.063c0.154,0.067,0.282,0.128,0.413,0.181c0.341,0.136,0.671,0.118,0.99-0.068
				c0.127-0.074,0.256-0.146,0.386-0.216c0.354-0.19,0.729-0.295,1.134-0.304c-0.003,0.057-0.039,0.085-0.063,0.119
				c-0.509,0.737-1.02,1.474-1.527,2.212c-0.023,0.034-0.093,0.063-0.044,0.127c-0.006-0.009-0.012-0.019-0.018-0.027
				c-0.003,0.003-0.006,0.006-0.009,0.009c0.009,0.006,0.018,0.012,0.026,0.018c0.007-0.011,0.013-0.023,0.022-0.029
				c0.813-0.563,1.626-1.124,2.439-1.686c0.008,0.01,0.017,0.02,0.025,0.029c-0.208,0.559-0.275,1.131-0.164,1.719
				C7.116,15.18,7,15.453,6.79,15.699c-0.073,0.086-0.145,0.172-0.22,0.262c0.018,0.004,0.027,0.009,0.034,0.007
				c0.054-0.018,0.106-0.039,0.16-0.056c0.493-0.157,0.806-0.474,0.908-0.993c0.045-0.225,0.119-0.444,0.221-0.651
				c0.115-0.233,0.257-0.447,0.455-0.648c0.18,0.991,0.356,1.958,0.533,2.925c0.006-0.001,0.013-0.002,0.019-0.003
				c0.182-0.999,0.363-1.999,0.546-3.003c0.019,0.01,0.03,0.012,0.032,0.018c0.247,0.581,0.644,1.036,1.16,1.396
				c0.194,0.136,0.3,0.337,0.335,0.569c0.026,0.171,0.039,0.344,0.062,0.545c0.063-0.142,0.118-0.258,0.167-0.375
				c0.147-0.351,0.14-0.692-0.053-1.026c-0.104-0.181-0.208-0.362-0.297-0.551c-0.143-0.304-0.219-0.626-0.222-0.989
				c0.81,0.561,1.6,1.107,2.391,1.653c0.009-0.011,0.017-0.021,0.025-0.032c-0.565-0.816-1.129-1.633-1.708-2.47
				c0.044,0.008,0.062,0.008,0.076,0.014c0.514,0.197,1.043,0.282,1.587,0.175c0.414-0.081,0.753,0.036,1.05,0.321
				c0.049,0.047,0.107,0.086,0.162,0.129c0.003,0.011,0.008,0.025,0.022,0.015c0.004-0.003-0.002-0.021-0.004-0.032
				c-0.045-0.117-0.085-0.237-0.134-0.353c-0.143-0.335-0.382-0.564-0.741-0.658c-0.127-0.032-0.252-0.069-0.377-0.105
				c-0.407-0.116-0.769-0.313-1.093-0.62c0.988-0.18,1.957-0.356,2.926-0.533c0-0.006,0-0.012,0-0.019
				c-1.003-0.183-2.007-0.365-3.012-0.549c0.587-0.26,1.044-0.656,1.404-1.17c0.139-0.197,0.335-0.309,0.573-0.354
				c0.172-0.032,0.349-0.034,0.523-0.066c-0.124-0.066-0.248-0.127-0.375-0.177c-0.34-0.136-0.67-0.121-0.99,0.064
				c-0.185,0.107-0.371,0.212-0.563,0.303c-0.304,0.144-0.626,0.212-0.983,0.221c0.25-0.361,0.488-0.703,0.725-1.047
				c0.31-0.451,0.619-0.903,0.929-1.354C13.057,6.472,13.071,6.465,13.086,6.458c-0.005-0.008-0.01-0.014-0.014-0.021
				c-0.002,0.003-0.005,0.007-0.007,0.009C13.071,6.45,13.079,6.455,13.086,6.458z M29.816,5.969c-4.342,0-8.683,0.001-13.024-0.003
				c-0.126,0-0.157,0.031-0.156,0.157c0.006,0.937,0.005,1.874,0,2.811c-0.001,0.11,0.028,0.135,0.136,0.135
				c8.695-0.002,17.392-0.002,26.087,0c0.103,0,0.128-0.026,0.127-0.128c-0.004-0.938-0.005-1.874,0.001-2.812
				c0-0.129-0.027-0.163-0.161-0.163C38.49,5.97,34.153,5.969,29.816,5.969z M29.817,12.171c-4.345,0-8.691,0.001-13.037-0.002
				c-0.112,0-0.145,0.022-0.144,0.141c0.005,0.941,0.005,1.883,0,2.824c0,0.109,0.027,0.136,0.136,0.136
				c8.695-0.003,17.391-0.003,26.086-0.001c0.101,0,0.129-0.022,0.128-0.127c-0.004-0.937-0.005-1.874,0.001-2.812
				c0.001-0.129-0.028-0.162-0.161-0.162C38.49,12.172,34.153,12.171,29.817,12.171z"/>
			<path fill-rule="evenodd" clip-rule="evenodd" fill="#0038A7" d="M1.14,24.574c0.048,0,0.096-0.001,0.144-0.001
				c13.843,0,27.685,0,41.528,0c0.173,0,0.173,0,0.173,0.169c0,0.929-0.002,1.856,0.002,2.785c0.001,0.106-0.014,0.146-0.138,0.146
				c-13.86-0.003-27.72-0.003-41.58-0.004c-0.043,0-0.086-0.006-0.129-0.009C1.14,26.631,1.14,25.603,1.14,24.574z"/>
			<path fill-rule="evenodd" clip-rule="evenodd" fill="#0038A7" d="M1.14,18.375c0.052-0.001,0.104-0.003,0.156-0.003
				c13.838,0,27.676,0,41.514,0c0.174,0,0.174,0,0.174,0.168c0,0.929-0.002,1.856,0.002,2.785c0.001,0.107-0.015,0.146-0.138,0.146
				c-13.864-0.004-27.729-0.003-41.592-0.004c-0.039,0-0.079-0.004-0.117-0.006C1.14,20.433,1.14,19.405,1.14,18.375z"/>
			<path fill-rule="evenodd" clip-rule="evenodd" fill="#0038A7" d="M29.816,5.969c4.337,0,8.673,0.001,13.011-0.003
				c0.134,0,0.161,0.034,0.161,0.163c-0.006,0.938-0.005,1.874-0.001,2.812c0.001,0.102-0.024,0.128-0.127,0.128
				c-8.695-0.002-17.392-0.002-26.087,0c-0.108,0-0.137-0.024-0.136-0.135c0.005-0.937,0.005-1.874,0-2.811
				c0-0.126,0.03-0.157,0.156-0.157C21.134,5.97,25.475,5.969,29.816,5.969z"/>
			<path fill-rule="evenodd" clip-rule="evenodd" fill="#0038A7" d="M29.817,12.171c4.336,0,8.673,0.001,13.01-0.003
				c0.133,0,0.162,0.033,0.161,0.162c-0.006,0.938-0.005,1.875-0.001,2.812c0,0.104-0.028,0.127-0.128,0.127
				c-8.695-0.002-17.391-0.002-26.086,0.001c-0.108,0-0.136-0.026-0.136-0.136c0.005-0.941,0.005-1.883,0-2.824
				c-0.001-0.118,0.032-0.141,0.144-0.141C21.126,12.172,25.472,12.171,29.817,12.171z"/>
			<path fill-rule="evenodd" clip-rule="evenodd" fill="#0F0D05" d="M3.558,8.292c0.144,0.146,0.299,0.278,0.473,0.385
				c0.226,0.14,0.471,0.141,0.721,0.096c0.56-0.102,1.1-0.025,1.625,0.18c0.012,0.005,0.024,0.005,0.066,0.012
				c-0.585-0.847-1.157-1.674-1.73-2.502C4.72,6.456,4.728,6.449,4.734,6.441c0.798,0.554,1.597,1.106,2.414,1.672
				C7.159,7.923,7.121,7.756,7.086,7.59C7.023,7.285,6.881,7.01,6.728,6.743C6.655,6.618,6.582,6.495,6.531,6.36
				C6.435,6.101,6.464,5.844,6.558,5.594c0.05-0.134,0.114-0.262,0.188-0.426c0.03,0.211,0.029,0.391,0.063,0.565
				c0.044,0.229,0.146,0.423,0.336,0.555C7.665,6.652,8.063,7.111,8.331,7.7c0.183-0.999,0.364-1.998,0.546-2.998
				c0.007,0,0.015,0,0.022,0C9.075,5.667,9.251,6.633,9.43,7.62c0.292-0.308,0.485-0.646,0.6-1.03
				c0.045-0.15,0.087-0.301,0.129-0.451c0.083-0.301,0.259-0.526,0.538-0.672c0.154-0.081,0.317-0.135,0.498-0.179
				c-0.041,0.049-0.078,0.103-0.123,0.148c-0.289,0.296-0.422,0.634-0.339,1.057c0.109,0.553,0.022,1.091-0.178,1.613
				c-0.004,0.012-0.002,0.024-0.006,0.059c0.836-0.575,1.656-1.142,2.479-1.708c0.004,0.008,0.01,0.016,0.016,0.023
				c-0.31,0.451-0.619,0.903-0.929,1.354C11.878,8.178,11.64,8.52,11.39,8.881c0.357-0.009,0.68-0.077,0.983-0.221
				c0.192-0.091,0.378-0.195,0.563-0.303c0.32-0.186,0.65-0.2,0.99-0.064c0.127,0.05,0.251,0.11,0.375,0.177
				c-0.175,0.032-0.351,0.034-0.523,0.066c-0.238,0.045-0.435,0.156-0.573,0.354c-0.36,0.514-0.817,0.91-1.404,1.17
				c1.004,0.184,2.008,0.366,3.012,0.549c0,0.007,0,0.013,0,0.019c-0.97,0.177-1.938,0.354-2.926,0.533
				c0.324,0.308,0.686,0.504,1.093,0.62c0.125,0.036,0.25,0.073,0.377,0.105c0.359,0.094,0.599,0.323,0.741,0.658
				c0.049,0.115,0.089,0.235,0.134,0.353c-0.007,0.006-0.013,0.011-0.019,0.018c-0.055-0.043-0.113-0.082-0.162-0.129
				c-0.297-0.285-0.637-0.402-1.05-0.321c-0.544,0.107-1.073,0.022-1.587-0.175c-0.015-0.006-0.032-0.006-0.076-0.014
				c0.578,0.837,1.143,1.653,1.708,2.47c-0.008,0.011-0.016,0.021-0.025,0.032c-0.791-0.546-1.581-1.093-2.391-1.653
				c0.003,0.363,0.079,0.686,0.222,0.989c0.089,0.188,0.192,0.37,0.297,0.551c0.193,0.334,0.2,0.676,0.053,1.026
				c-0.049,0.117-0.104,0.233-0.167,0.375c-0.022-0.201-0.036-0.374-0.062-0.545c-0.035-0.232-0.141-0.434-0.335-0.569
				c-0.516-0.36-0.913-0.815-1.16-1.396c-0.002-0.006-0.013-0.008-0.032-0.018c-0.183,1.004-0.364,2.004-0.546,3.003
				c-0.006,0.001-0.013,0.002-0.019,0.003c-0.176-0.967-0.353-1.934-0.533-2.925c-0.198,0.201-0.339,0.415-0.455,0.648
				c-0.102,0.207-0.176,0.427-0.221,0.651c-0.103,0.52-0.415,0.836-0.908,0.993c-0.054,0.017-0.106,0.038-0.16,0.056
				c-0.007,0.002-0.016-0.003-0.034-0.007c0.076-0.09,0.147-0.176,0.22-0.262C7,15.453,7.116,15.18,7.053,14.847
				c-0.111-0.588-0.044-1.16,0.164-1.719c0.004-0.015,0.017-0.036,0.011-0.043c-0.016-0.02-0.023,0.007-0.036,0.014
				c-0.813,0.562-1.626,1.123-2.439,1.686c-0.009,0.006-0.015,0.019-0.022,0.029l-0.001,0.001c-0.048-0.063,0.021-0.093,0.045-0.127
				c0.507-0.738,1.019-1.475,1.527-2.212c0.024-0.034,0.06-0.063,0.063-0.119c-0.405,0.009-0.781,0.113-1.134,0.304
				c-0.13,0.069-0.259,0.142-0.386,0.216c-0.319,0.187-0.649,0.204-0.99,0.068c-0.131-0.053-0.259-0.113-0.413-0.181
				c0.199-0.022,0.369-0.039,0.539-0.063c0.249-0.035,0.447-0.157,0.598-0.36c0.255-0.344,0.53-0.669,0.909-0.887
				c0.158-0.09,0.318-0.176,0.501-0.275c-1.019-0.187-2.021-0.368-3.022-0.551c-0.001-0.007-0.001-0.013-0.002-0.02
				c0.967-0.176,1.934-0.352,2.917-0.531C5.76,9.934,5.61,9.841,5.464,9.746c-0.308-0.2-0.657-0.295-1.006-0.383
				C4.056,9.26,3.797,9.01,3.656,8.631C3.615,8.522,3.537,8.42,3.558,8.292L3.558,8.292z M5.409,14.015
				c0.011-0.011,0.035-0.02,0.014-0.037c-0.019-0.017-0.028,0.006-0.039,0.017c-0.007,0.014-0.026,0.029-0.001,0.041
				C5.386,14.038,5.399,14.022,5.409,14.015z M12.267,7.11c-0.011,0.011-0.034,0.02-0.018,0.039
				c0.018,0.021,0.026-0.003,0.036-0.014c0.009-0.01,0.017-0.019,0.025-0.027c0.011-0.004,0.022-0.01,0.012-0.021
				c-0.003-0.004-0.018,0.003-0.029,0.004C12.285,7.097,12.276,7.103,12.267,7.11z M5.466,14.121
				c-0.009,0.015-0.044,0.019-0.021,0.046c0.001,0.001,0.025-0.017,0.038-0.025c0.011-0.007,0.021-0.014,0.032-0.021
				c0.033-0.021,0.067-0.039,0.1-0.061c0.612-0.424,1.224-0.848,1.835-1.271c0.196-0.137,0.393-0.272,0.597-0.413
				c-0.165-0.086-0.313-0.177-0.439-0.297c-0.051-0.048-0.079-0.026-0.117,0.013c-0.667,0.67-1.334,1.339-2.001,2.008
				C5.48,14.106,5.474,14.114,5.466,14.121z M12.411,7.182c-0.014,0.012-0.028,0.022-0.042,0.034
				c-0.401,0.399-0.803,0.799-1.204,1.199c-0.266,0.265-0.53,0.529-0.794,0.796c-0.031,0.03-0.086,0.056-0.03,0.114
				c0.124,0.13,0.214,0.284,0.306,0.446c0.265-0.382,0.525-0.756,0.785-1.133c0.32-0.466,0.64-0.933,0.96-1.399
				c0.01-0.016,0.02-0.03,0.029-0.046c0.004-0.009,0.008-0.019,0.013-0.026C12.417,7.16,12.414,7.17,12.411,7.182z M13.715,12.417
				c0.012,0.017,0.035,0.034,0.047,0.016c0.016-0.024-0.021-0.022-0.033-0.034c-0.016-0.01-0.032-0.02-0.048-0.028
				c-0.089-0.057-0.188-0.094-0.29-0.112c-0.325-0.06-0.651-0.113-0.976-0.172c-0.544-0.097-1.053-0.293-1.543-0.542
				c-0.009-0.018-0.026-0.028-0.039-0.017c-0.018,0.016,0.007,0.025,0.015,0.038c0.065,0.097,0.141,0.188,0.194,0.292
				c0.102,0.194,0.262,0.296,0.466,0.358c0.4,0.124,0.8,0.221,1.226,0.176c0.308-0.032,0.618-0.116,0.928-0.001
				C13.674,12.413,13.694,12.416,13.715,12.417z M7.206,15.55c0.015-0.009,0.028-0.02,0.042-0.029
				c0.169-0.141,0.245-0.335,0.293-0.539c0.13-0.541,0.338-1.041,0.733-1.446c0.024-0.025,0.045-0.053,0.038-0.093
				c-0.054-0.301-0.107-0.604-0.167-0.932C7.802,13.097,7.599,13.7,7.492,14.34c-0.064,0.389-0.085,0.789-0.27,1.149
				c-0.009,0.021-0.047,0.034-0.015,0.064c-0.006-0.002-0.012-0.003-0.018-0.005c0.001,0.006,0.001,0.011,0.002,0.017
				C7.197,15.56,7.202,15.556,7.206,15.55z M6.729,5.932C6.734,5.961,6.74,5.989,6.747,6.017c0.051,0.18,0.155,0.329,0.262,0.478
				c0.357,0.492,0.722,0.98,0.943,1.555c0.071,0.186,0.136,0.372,0.21,0.577c0.04-0.214,0.076-0.405,0.111-0.597
				c0.013-0.064,0.009-0.126-0.018-0.19c-0.23-0.553-0.559-1.03-1.059-1.376C7.021,6.341,6.871,6.192,6.772,5.997
				C6.764,5.971,6.769,5.94,6.741,5.922C6.736,5.9,6.732,5.878,6.727,5.849C6.703,5.884,6.707,5.909,6.729,5.932z M13.591,8.466
				c0.028-0.004,0.057-0.007,0.084-0.01c-0.032-0.015-0.063-0.029-0.094-0.002c-0.023,0.007-0.047,0.015-0.088,0.027
				C13.545,8.499,13.57,8.493,13.591,8.466z M11.018,15.27c0.004,0.021,0,0.047,0.025,0.061c0.019-0.027,0.009-0.053-0.004-0.078
				c-0.039-0.174-0.133-0.32-0.236-0.461c-0.493-0.666-0.964-1.344-1.178-2.165C9.57,12.849,9.528,13.07,9.49,13.292
				c-0.004,0.026,0.012,0.059,0.024,0.086c0.231,0.568,0.568,1.056,1.08,1.408C10.777,14.911,10.922,15.069,11.018,15.27z
				 M4.126,8.849C4.103,8.828,4.078,8.821,4.05,8.842c0.019,0.011,0.037,0.021,0.056,0.03c0.098,0.059,0.205,0.095,0.316,0.115
				c0.321,0.058,0.643,0.109,0.963,0.167c0.539,0.098,1.042,0.296,1.529,0.543c0.01,0.004,0.019,0.009,0.028,0.013
				C6.94,9.7,6.938,9.69,6.936,9.679c-0.068-0.1-0.145-0.196-0.203-0.302C6.631,9.192,6.48,9.086,6.278,9.023
				c-0.417-0.13-0.833-0.228-1.276-0.174C4.712,8.884,4.418,8.955,4.126,8.849z M7.966,12.57c-0.188,0.103-0.353,0.237-0.528,0.356
				c-0.021,0.014-0.038,0.037-0.047,0.06c-0.189,0.477-0.327,0.96-0.276,1.482c0.03,0.306,0.129,0.615-0.01,0.925
				c0.075-0.004,0.072-0.059,0.087-0.094c0.087-0.207,0.114-0.428,0.144-0.646c0.099-0.712,0.274-1.396,0.624-2.029
				c0.009-0.017,0.029-0.036,0.004-0.056c0.006,0.001,0.012,0.002,0.017,0.003c0-0.005-0.001-0.011-0.002-0.016
				C7.975,12.56,7.97,12.565,7.966,12.57z M4.003,8.941C3.989,8.936,3.975,8.918,3.964,8.942C3.962,8.948,3.975,8.96,3.981,8.969
				c0.128,0.16,0.306,0.24,0.498,0.288c0.557,0.136,1.079,0.339,1.497,0.751c0.025,0.025,0.053,0.042,0.093,0.035
				c0.299-0.055,0.598-0.108,0.922-0.167c-0.06-0.036-0.095-0.06-0.132-0.079C6.277,9.473,5.651,9.29,4.996,9.194
				C4.657,9.144,4.311,9.116,4.003,8.941z M13.784,12.301c0.011,0.001,0.021,0.002,0.032,0.004c-0.005-0.01-0.01-0.019-0.015-0.027
				c-0.135-0.183-0.334-0.258-0.542-0.309c-0.545-0.132-1.049-0.341-1.458-0.739c-0.024-0.023-0.049-0.048-0.091-0.04
				c-0.297,0.056-0.594,0.11-0.894,0.166c0.007,0.019,0.007,0.029,0.013,0.033c0.03,0.019,0.06,0.036,0.09,0.053
				c0.593,0.329,1.231,0.511,1.9,0.607C13.149,12.096,13.486,12.129,13.784,12.301z M10.802,9.79
				c0.042-0.011,0.084-0.02,0.126-0.032c0.624-0.184,1.185-0.487,1.706-0.875c0.236-0.176,0.466-0.364,0.742-0.481
				c0.057-0.023,0.126-0.024,0.187-0.091c-0.095-0.006-0.169-0.003-0.244,0.013c-0.156,0.031-0.295,0.102-0.429,0.184
				c-0.464,0.282-0.955,0.479-1.507,0.481c-0.042,0-0.074,0.011-0.099,0.048c-0.165,0.245-0.331,0.488-0.497,0.732
				c-0.004,0.008-0.009,0.015-0.014,0.021C10.782,9.79,10.792,9.79,10.802,9.79z M8.028,8.718c0.011,0.005,0.02,0.027,0.034,0.012
				c0.005-0.006-0.005-0.026-0.009-0.04C8.046,8.656,8.04,8.622,8.031,8.588C7.843,7.936,7.518,7.356,7.112,6.816
				C6.948,6.597,6.775,6.382,6.671,6.125c-0.028-0.07-0.05-0.144-0.085-0.243C6.568,6.146,6.598,6.286,6.707,6.491
				c0.055,0.104,0.111,0.207,0.171,0.308c0.238,0.405,0.369,0.842,0.38,1.313C7.259,8.17,7.28,8.206,7.328,8.239
				C7.563,8.397,7.795,8.558,8.028,8.718z M7.049,10.612c-0.004,1.018,0.824,1.851,1.839,1.851c1.008,0,1.835-0.824,1.844-1.837
				c0.009-1.005-0.82-1.842-1.83-1.848C7.883,8.771,7.052,9.593,7.049,10.612z M13.885,10.689c0.001-0.006,0.001-0.014,0.002-0.021
				c-0.757,0-1.515,0-2.272,0c-0.226,0-0.453,0-0.679,0c-0.046,0.001-0.104-0.015-0.106,0.061c-0.006,0.178-0.051,0.349-0.098,0.534
				C11.792,11.071,12.838,10.88,13.885,10.689z M3.903,10.668C3.9,10.675,3.897,10.683,3.894,10.69
				c1.048,0.191,2.097,0.382,3.157,0.574c-0.052-0.165-0.096-0.317-0.098-0.473c-0.002-0.107-0.041-0.125-0.137-0.125
				C5.845,10.67,4.874,10.668,3.903,10.668z M9.732,12.376c0.861,0.597,1.714,1.188,2.568,1.779
				c0.018-0.062-0.036-0.085-0.066-0.115c-0.332-0.334-0.664-0.666-0.997-0.999c-0.314-0.313-0.628-0.629-0.942-0.941
				c-0.03-0.03-0.056-0.087-0.114-0.03C10.051,12.194,9.898,12.284,9.732,12.376z M9.533,12.46
				c-0.185,0.053-0.357,0.091-0.534,0.101c-0.066,0.004-0.061,0.047-0.061,0.091c0,0.989,0,1.979,0,2.969
				c0.007,0,0.013,0.001,0.02,0.002C9.148,14.574,9.339,13.525,9.533,12.46z M9.534,8.781C9.34,7.713,9.149,6.665,8.958,5.617
				c-0.02,0.989-0.02,1.975-0.021,2.961c0,0.07,0.016,0.098,0.092,0.101C9.194,8.686,9.355,8.724,9.534,8.781z M5.359,7.214
				c0.589,0.851,1.178,1.7,1.774,2.562C7.22,9.609,7.303,9.47,7.414,9.353c0.056-0.06,0.05-0.09-0.005-0.146
				C6.76,8.564,6.115,7.917,5.468,7.271C5.439,7.243,5.417,7.196,5.359,7.214z M8.044,8.86C7.192,8.271,6.352,7.689,5.512,7.107
				C5.498,7.125,5.484,7.142,5.47,7.159c0.02,0.009,0.044,0.013,0.058,0.026c0.639,0.637,1.276,1.274,1.914,1.913
				C7.463,9.12,7.485,9.139,7.506,9.163c0.027,0.03,0.051,0.041,0.086,0.007C7.722,9.047,7.873,8.956,8.044,8.86z M10.645,11.46
				c-0.084,0.16-0.168,0.304-0.283,0.424c-0.058,0.061-0.047,0.092,0.007,0.145c0.35,0.346,0.697,0.695,1.045,1.043
				c0.311,0.312,0.621,0.622,0.932,0.933c0.012-0.009,0.024-0.018,0.037-0.026C11.812,13.141,11.229,12.313,10.645,11.46z
				 M9.73,8.862c0.168,0.088,0.313,0.177,0.437,0.294c0.047,0.044,0.072,0.038,0.115-0.005c0.639-0.642,1.278-1.281,1.918-1.922
				c0.021-0.021,0.064-0.04,0.021-0.092C11.396,7.708,10.572,8.279,9.73,8.862z M8.244,12.46c0.191,1.05,0.379,2.085,0.567,3.12
				c0.008-0.001,0.015-0.002,0.022-0.003c0-0.047,0-0.095,0-0.143c0-0.627,0-1.255,0-1.882c0-0.296-0.001-0.593,0.001-0.889
				c0.001-0.066-0.008-0.103-0.088-0.106C8.582,12.551,8.422,12.511,8.244,12.46z M8.833,5.66C8.825,5.662,8.816,5.664,8.809,5.666
				C8.621,6.699,8.434,7.732,8.244,8.779c0.165-0.053,0.313-0.093,0.464-0.096c0.117-0.003,0.128-0.05,0.127-0.148
				C8.832,7.62,8.833,6.705,8.833,5.79C8.833,5.747,8.833,5.704,8.833,5.66z M5.39,13.98c0.098-0.016,0.126-0.063,0.16-0.098
				c0.505-0.504,1.01-1.009,1.514-1.514c0.12-0.119,0.24-0.239,0.36-0.359c0.027-0.027,0.06-0.049,0.017-0.094
				c-0.123-0.128-0.213-0.28-0.31-0.45C6.552,12.301,5.981,13.125,5.39,13.98z M13.826,10.563c0.001-0.008,0.002-0.017,0.004-0.025
				c-1.029-0.188-2.059-0.374-3.101-0.563c0.044,0.168,0.092,0.31,0.092,0.458c0,0.108,0.041,0.135,0.147,0.134
				c0.914-0.004,1.828-0.003,2.741-0.003C13.749,10.563,13.787,10.563,13.826,10.563z M3.956,10.536
				c-0.001,0.01-0.002,0.019-0.004,0.027c0.313,0,0.627,0,0.94,0c0.645,0,1.29,0.001,1.935-0.001c0.042,0,0.115,0.036,0.119-0.055
				c0.006-0.177,0.052-0.348,0.1-0.533C6.007,10.163,4.981,10.35,3.956,10.536z M7.006,11.458c-0.038-0.019-0.062-0.006-0.086,0.001
				c-0.493,0.137-0.952,0.35-1.385,0.622c-0.441,0.277-0.811,0.666-1.354,0.831c0.083,0.027,0.137,0.019,0.19,0.015
				c0.201-0.019,0.375-0.108,0.542-0.21c0.453-0.276,0.934-0.462,1.472-0.467c0.041-0.001,0.079-0.007,0.104-0.043
				C6.661,11.958,6.833,11.709,7.006,11.458z M11.17,15.318c0.038-0.06,0.032-0.105,0.028-0.153
				c-0.014-0.211-0.106-0.393-0.212-0.569c-0.22-0.368-0.43-0.753-0.435-1.187c-0.003-0.331-0.174-0.486-0.418-0.63
				c-0.14-0.081-0.268-0.182-0.426-0.291c0.013,0.059,0.017,0.084,0.023,0.108c0.184,0.673,0.517,1.269,0.932,1.824
				C10.866,14.693,11.088,14.958,11.17,15.318z M9.631,8.721c0.187-0.308,0.316-0.605,0.427-0.912
				c0.169-0.466,0.231-0.955,0.311-1.439c0.038-0.233,0.095-0.46,0.201-0.674c-0.186,0.128-0.274,0.314-0.323,0.52
				c-0.135,0.558-0.34,1.078-0.754,1.494C9.46,7.742,9.455,7.774,9.463,7.816C9.518,8.106,9.571,8.396,9.631,8.721z M9.788,8.656
				c0.008,0.007,0.016,0.016,0.024,0.022c0.116-0.081,0.228-0.17,0.351-0.24c0.156-0.088,0.247-0.214,0.304-0.384
				c0.138-0.416,0.24-0.833,0.196-1.278c-0.031-0.309-0.114-0.619-0.005-0.93c0-0.003-0.009-0.009-0.014-0.014
				c-0.082,0.125-0.13,0.272-0.167,0.528C10.361,7.161,10.209,7.948,9.788,8.656z M4.2,12.753c0.09,0.014,0.133-0.006,0.179-0.023
				c0.163-0.066,0.303-0.17,0.443-0.273c0.471-0.345,0.944-0.687,1.494-0.9c0.186-0.072,0.375-0.137,0.583-0.213
				c-0.217-0.039-0.415-0.071-0.61-0.11c-0.068-0.015-0.125-0.003-0.188,0.022c-0.575,0.234-1.053,0.591-1.407,1.105
				C4.578,12.529,4.433,12.666,4.2,12.753z M10.878,9.893c0.209,0.038,0.404,0.075,0.6,0.11c0.051,0.009,0.104,0.02,0.154-0.003
				c0.453-0.198,0.881-0.431,1.207-0.819c0.199-0.238,0.357-0.518,0.645-0.671c0.002-0.001-0.001-0.014-0.005-0.032
				c-0.144,0.046-0.269,0.12-0.388,0.205c-0.52,0.371-1.025,0.765-1.629,0.996C11.271,9.752,11.081,9.819,10.878,9.893z"/>
			<path fill-rule="evenodd" clip-rule="evenodd" fill="#0F0D05" d="M13.085,6.458c-0.014,0.007-0.028,0.014-0.042,0.021
				c-0.006-0.008-0.011-0.016-0.016-0.023C13.047,6.436,13.066,6.442,13.085,6.458L13.085,6.458z"/>
			<path fill-rule="evenodd" clip-rule="evenodd" fill="#0F0D05" d="M3.559,8.293C3.553,8.294,3.547,8.296,3.542,8.298
				C3.547,8.296,3.552,8.294,3.559,8.293L3.559,8.293z"/>
			<path fill-rule="evenodd" clip-rule="evenodd" fill="#0F0D05" d="M13.086,6.458c-0.007-0.004-0.015-0.009-0.021-0.013
				c0.002-0.002,0.005-0.006,0.007-0.009C13.076,6.445,13.081,6.451,13.086,6.458L13.086,6.458z"/>
			<path fill-rule="evenodd" clip-rule="evenodd" fill="#0F0D05" d="M4.73,14.814c-0.009-0.006-0.018-0.012-0.026-0.018
				c0.003-0.003,0.006-0.006,0.009-0.009C4.719,14.796,4.725,14.806,4.73,14.814L4.73,14.814z"/>
			<path fill-rule="evenodd" clip-rule="evenodd" fill="#0F0D05" d="M14.23,12.897c0.001,0.012,0.008,0.029,0.004,0.032
				c-0.015,0.011-0.019-0.004-0.022-0.015C14.218,12.908,14.224,12.903,14.23,12.897z"/>
			<path fill-rule="evenodd" clip-rule="evenodd" fill="#F8CE16" d="M7.049,10.612c0.003-1.019,0.834-1.841,1.853-1.834
				c1.01,0.006,1.839,0.843,1.83,1.848c-0.009,1.013-0.836,1.837-1.844,1.837C7.873,12.462,7.045,11.629,7.049,10.612z
				 M8.228,11.132c0.194-0.066,0.386-0.131,0.587-0.013c0.057,0.032,0.129,0.019,0.188-0.016c0.118-0.066,0.24-0.063,0.364-0.026
				c0.063,0.018,0.124,0.035,0.186,0.054c0.01-0.015,0.021-0.028,0.032-0.042c-0.213-0.024-0.274-0.201-0.388-0.326
				c-0.005-0.006-0.01-0.011-0.015-0.017c-0.001,0.011-0.002,0.021-0.004,0.031c0.022,0.046,0.071,0.091,0.038,0.142
				c-0.034,0.055-0.09,0.036-0.138,0.011c-0.018-0.009-0.022-0.01-0.037,0.01c-0.092,0.119-0.224,0.13-0.306,0.018
				c-0.032-0.044-0.047-0.014-0.069-0.01c-0.039,0.004-0.079,0.014-0.106-0.023c-0.031-0.041,0.003-0.073,0.018-0.107
				c0.008-0.02,0.041-0.036-0.021-0.093c-0.034,0.213-0.203,0.287-0.34,0.396c-0.011,0.008-0.021,0.018-0.004,0.029
				C8.213,11.15,8.222,11.138,8.228,11.132z M7.854,10.274c0.01,0.008,0.021,0.014,0.031,0.021c0.164,0.119,0.452,0.116,0.592-0.006
				c0.02-0.018,0.045-0.033,0.028-0.063c-0.018-0.031-0.043-0.035-0.077-0.019c-0.044,0.021-0.079,0.064-0.147,0.063
				c0.031-0.077,0.057-0.168,0.094-0.2c0.049-0.043,0.102,0.077,0.183,0.092c-0.015-0.114-0.074-0.176-0.171-0.2
				c-0.26-0.067-0.5-0.047-0.698,0.159c-0.011,0.012-0.022,0.022-0.034,0.034c0.023,0.016,0.039,0.007,0.052-0.015
				c0.031-0.01,0.061-0.021,0.088-0.031C7.839,10.159,7.743,10.251,7.854,10.274z M10.045,10.131c0.01,0,0.021-0.001,0.032-0.001
				c-0.005-0.009-0.01-0.017-0.015-0.024C9.877,9.923,9.578,9.87,9.345,9.977c-0.078,0.036-0.116,0.097-0.129,0.201
				c0.067-0.049,0.111-0.105,0.158-0.109c0.077-0.005,0.039,0.099,0.086,0.134c0.017,0.013,0.028,0.033,0.042,0.049
				c-0.01,0.009-0.02,0.018-0.029,0.026c-0.034-0.019-0.067-0.039-0.101-0.057c-0.033-0.017-0.071-0.05-0.098,0.005
				c-0.021,0.043,0.02,0.059,0.047,0.078c0.192,0.129,0.432,0.115,0.605-0.037L9.924,10.27c0.068-0.008,0.061-0.054,0.052-0.101
				C9.961,10.089,10.005,10.114,10.045,10.131z M7.915,11.554c0.038-0.081,0.087-0.101,0.171-0.051
				c0.116,0.067,0.24,0.12,0.36,0.181c0.073,0.037,0.149,0.066,0.232,0.075c0.287,0.03,0.562,0.009,0.812-0.156
				c0.068-0.045,0.152-0.065,0.222-0.108c0.049-0.03,0.089-0.031,0.138,0.017c-0.009-0.067-0.044-0.094-0.077-0.122
				c-0.006-0.002-0.014-0.024-0.019,0.001c0.007-0.001,0.014-0.002,0.021-0.004c-0.033,0.119-0.123,0.063-0.186,0.051
				c-0.193-0.035-0.373-0.145-0.581-0.096c-0.081,0.019-0.163,0.015-0.245,0c-0.131-0.023-0.256-0.003-0.381,0.042
				c-0.105,0.038-0.22,0.098-0.326,0.063c-0.126-0.04-0.137,0.013-0.138,0.106l-0.006,0.001L7.915,11.554z M9.094,9.952
				c0.034,0.02,0.053,0.007,0.069-0.007C9.444,9.707,9.75,9.72,10.068,9.852c0.04,0.017,0.08,0.033,0.122,0.046
				c0.026,0.009,0.054,0,0.069-0.023c0.019-0.032-0.013-0.046-0.032-0.06C10.11,9.729,9.979,9.672,9.842,9.63
				C9.572,9.548,9.232,9.692,9.094,9.952z M8.66,9.976c0.008-0.025,0.018-0.043,0.014-0.048c-0.138-0.167-0.3-0.321-0.521-0.334
				C7.931,9.581,7.733,9.692,7.55,9.813c-0.02,0.014-0.05,0.03-0.034,0.06c0.013,0.025,0.042,0.034,0.069,0.026
				c0.037-0.012,0.074-0.025,0.109-0.042c0.161-0.076,0.329-0.103,0.507-0.092C8.381,9.776,8.52,9.868,8.66,9.976z M9.862,11.544
				c0.002-0.003,0.007-0.005,0.007-0.007c0-0.003-0.004-0.006-0.006-0.009c-0.003,0.004-0.005,0.008-0.008,0.012
				C9.857,11.542,9.86,11.543,9.862,11.544z"/>
			<path fill-rule="evenodd" clip-rule="evenodd" fill="#F2C915" d="M13.885,10.689c-1.046,0.191-2.092,0.382-3.153,0.574
				c0.047-0.186,0.092-0.356,0.098-0.534c0.002-0.075,0.061-0.06,0.106-0.061c0.227,0,0.453,0,0.679,0c0.757,0,1.515,0,2.272,0
				C13.886,10.675,13.886,10.683,13.885,10.689z"/>
			<path fill-rule="evenodd" clip-rule="evenodd" fill="#F2C915" d="M3.903,10.668c0.971,0,1.942,0.002,2.913-0.002
				c0.097,0,0.135,0.018,0.137,0.125c0.002,0.155,0.046,0.308,0.098,0.473c-1.06-0.192-2.108-0.383-3.157-0.574
				C3.897,10.683,3.9,10.675,3.903,10.668z"/>
			<path fill-rule="evenodd" clip-rule="evenodd" fill="#F2C915" d="M9.732,12.376c0.166-0.093,0.319-0.183,0.448-0.307
				c0.059-0.057,0.084,0,0.114,0.03c0.314,0.313,0.628,0.628,0.942,0.941c0.333,0.333,0.666,0.665,0.997,0.999
				c0.031,0.03,0.084,0.054,0.066,0.115C11.446,13.564,10.593,12.973,9.732,12.376z"/>
			<path fill-rule="evenodd" clip-rule="evenodd" fill="#F2C915" d="M9.533,12.46c-0.194,1.064-0.385,2.113-0.575,3.162
				c-0.007-0.001-0.013-0.002-0.02-0.002c0-0.99,0-1.979,0-2.969c0-0.044-0.006-0.087,0.061-0.091
				C9.176,12.551,9.348,12.513,9.533,12.46z"/>
			<path fill-rule="evenodd" clip-rule="evenodd" fill="#F2C915" d="M9.534,8.781c-0.179-0.057-0.34-0.095-0.505-0.103
				c-0.076-0.003-0.093-0.03-0.092-0.101c0.001-0.986,0.001-1.972,0.021-2.961C9.149,6.665,9.34,7.713,9.534,8.781z"/>
			<path fill-rule="evenodd" clip-rule="evenodd" fill="#F2C915" d="M5.359,7.214c0.058-0.019,0.08,0.028,0.108,0.057
				C6.115,7.917,6.76,8.564,7.409,9.208C7.464,9.263,7.47,9.293,7.414,9.353C7.303,9.47,7.22,9.609,7.133,9.776
				C6.537,8.915,5.948,8.065,5.359,7.214z"/>
			<path fill-rule="evenodd" clip-rule="evenodd" fill="#F5CB15" d="M8.044,8.86c-0.171,0.096-0.322,0.188-0.452,0.31
				c-0.036,0.034-0.06,0.023-0.086-0.007C7.485,9.139,7.463,9.12,7.441,9.098C6.804,8.459,6.166,7.822,5.527,7.185
				C5.514,7.171,5.489,7.167,5.47,7.159c0.015-0.017,0.028-0.034,0.042-0.052C6.352,7.689,7.192,8.271,8.044,8.86z"/>
			<path fill-rule="evenodd" clip-rule="evenodd" fill="#F5CB15" d="M10.645,11.46c0.585,0.853,1.167,1.681,1.738,2.518
				c-0.012,0.009-0.024,0.018-0.037,0.026c-0.311-0.311-0.621-0.621-0.932-0.933c-0.348-0.348-0.695-0.697-1.045-1.043
				c-0.055-0.053-0.065-0.084-0.007-0.145C10.477,11.764,10.561,11.621,10.645,11.46z"/>
			<path fill-rule="evenodd" clip-rule="evenodd" fill="#F5CB15" d="M5.488,14.099c0.667-0.669,1.335-1.338,2.001-2.008
				c0.038-0.039,0.066-0.061,0.117-0.013c0.127,0.12,0.274,0.211,0.439,0.297c-0.204,0.141-0.4,0.276-0.597,0.413
				c-0.611,0.424-1.223,0.848-1.835,1.271c-0.032,0.021-0.066,0.04-0.1,0.061C5.506,14.113,5.497,14.106,5.488,14.099z"/>
			<path fill-rule="evenodd" clip-rule="evenodd" fill="#F5CB15" d="M12.391,7.24c-0.32,0.467-0.64,0.934-0.96,1.399
				c-0.26,0.377-0.521,0.751-0.785,1.133c-0.092-0.162-0.182-0.316-0.306-0.446c-0.056-0.059,0-0.084,0.03-0.114
				c0.264-0.267,0.529-0.531,0.794-0.796c0.401-0.4,0.803-0.8,1.204-1.199C12.376,7.224,12.383,7.232,12.391,7.24z"/>
			<path fill-rule="evenodd" clip-rule="evenodd" fill="#F8CE16" d="M9.73,8.862c0.841-0.583,1.666-1.153,2.49-1.725
				c0.044,0.052,0,0.071-0.021,0.092c-0.64,0.641-1.279,1.28-1.918,1.922c-0.043,0.043-0.068,0.049-0.115,0.005
				C10.043,9.039,9.898,8.95,9.73,8.862z"/>
			<path fill-rule="evenodd" clip-rule="evenodd" fill="#F8CE16" d="M8.244,12.46c0.178,0.051,0.338,0.091,0.502,0.098
				c0.08,0.004,0.089,0.04,0.088,0.106c-0.002,0.296-0.001,0.593-0.001,0.889c0,0.627,0,1.255,0,1.882c0,0.048,0,0.096,0,0.143
				c-0.007,0.001-0.015,0.002-0.022,0.003C8.623,14.545,8.435,13.51,8.244,12.46z"/>
			<path fill-rule="evenodd" clip-rule="evenodd" fill="#F8CE16" d="M8.833,5.66c0,0.044,0,0.087,0,0.13
				c0,0.915-0.001,1.83,0.002,2.745c0.001,0.099-0.01,0.146-0.127,0.148C8.557,8.686,8.408,8.726,8.244,8.779
				c0.19-1.047,0.377-2.08,0.565-3.113C8.816,5.664,8.825,5.662,8.833,5.66z"/>
			<path fill-rule="evenodd" clip-rule="evenodd" fill="#F8CE16" d="M5.39,13.98c0.592-0.854,1.162-1.679,1.741-2.515
				c0.097,0.17,0.187,0.322,0.31,0.45c0.043,0.045,0.011,0.066-0.017,0.094c-0.12,0.12-0.24,0.24-0.36,0.359
				c-0.504,0.505-1.009,1.01-1.514,1.514C5.516,13.917,5.488,13.964,5.39,13.98z"/>
			<path fill-rule="evenodd" clip-rule="evenodd" fill="#F8CE16" d="M13.826,10.563c-0.039,0-0.078,0-0.117,0
				c-0.914,0-1.828-0.001-2.741,0.003c-0.106,0.001-0.147-0.025-0.147-0.134c0-0.148-0.047-0.29-0.092-0.458
				c1.042,0.189,2.071,0.376,3.101,0.563C13.829,10.546,13.827,10.555,13.826,10.563z"/>
			<path fill-rule="evenodd" clip-rule="evenodd" fill="#F8CE16" d="M3.956,10.536c1.025-0.186,2.051-0.373,3.09-0.562
				c-0.048,0.186-0.094,0.356-0.1,0.533c-0.003,0.091-0.076,0.055-0.119,0.055c-0.645,0.002-1.29,0.001-1.935,0.001
				c-0.313,0-0.627,0-0.94,0C3.954,10.554,3.955,10.545,3.956,10.536z"/>
			<path fill-rule="evenodd" clip-rule="evenodd" fill="#F5CB15" d="M7.006,11.458c-0.173,0.251-0.346,0.5-0.518,0.749
				c-0.025,0.036-0.063,0.042-0.104,0.043c-0.538,0.005-1.019,0.19-1.472,0.467c-0.167,0.102-0.341,0.191-0.542,0.21
				c-0.054,0.004-0.107,0.013-0.19-0.015c0.543-0.165,0.913-0.554,1.354-0.831c0.433-0.272,0.892-0.485,1.385-0.622
				C6.944,11.453,6.968,11.44,7.006,11.458z"/>
			<path fill-rule="evenodd" clip-rule="evenodd" fill="#F5CB15" d="M11.17,15.318c-0.082-0.36-0.304-0.625-0.507-0.897
				c-0.415-0.556-0.748-1.151-0.932-1.824c-0.006-0.024-0.011-0.05-0.023-0.108c0.158,0.109,0.286,0.21,0.426,0.291
				c0.244,0.144,0.415,0.299,0.418,0.63c0.004,0.434,0.215,0.818,0.435,1.187c0.106,0.177,0.198,0.358,0.212,0.569
				C11.202,15.212,11.208,15.258,11.17,15.318z"/>
			<path fill-rule="evenodd" clip-rule="evenodd" fill="#F5CB15" d="M9.631,8.721c-0.06-0.325-0.113-0.615-0.167-0.905
				C9.455,7.774,9.46,7.742,9.492,7.709c0.414-0.416,0.619-0.937,0.754-1.494c0.049-0.205,0.137-0.392,0.323-0.52
				c-0.106,0.214-0.163,0.44-0.201,0.674c-0.08,0.484-0.142,0.974-0.311,1.439C9.947,8.116,9.818,8.414,9.631,8.721z"/>
			<path fill-rule="evenodd" clip-rule="evenodd" fill="#F5CB15" d="M8.028,8.718c-0.233-0.16-0.465-0.321-0.7-0.479
				C7.28,8.206,7.259,8.17,7.258,8.112C7.247,7.64,7.116,7.204,6.878,6.798c-0.06-0.101-0.116-0.204-0.171-0.308
				C6.598,6.286,6.568,6.146,6.586,5.881c0.035,0.1,0.057,0.173,0.085,0.243c0.104,0.258,0.277,0.473,0.441,0.691
				c0.405,0.54,0.73,1.12,0.918,1.772C8.04,8.622,8.046,8.656,8.053,8.69C8.045,8.7,8.036,8.708,8.028,8.718z"/>
			<path fill-rule="evenodd" clip-rule="evenodd" fill="#F5CB15" d="M10.786,9.768c0.166-0.244,0.332-0.487,0.497-0.732
				c0.025-0.037,0.058-0.048,0.099-0.048c0.553-0.003,1.043-0.199,1.507-0.481c0.134-0.082,0.272-0.152,0.429-0.184
				c0.075-0.016,0.149-0.019,0.244-0.013c-0.061,0.066-0.13,0.067-0.187,0.091c-0.275,0.117-0.506,0.306-0.742,0.481
				c-0.521,0.388-1.082,0.691-1.706,0.875c-0.042,0.013-0.084,0.021-0.126,0.032C10.797,9.782,10.792,9.776,10.786,9.768z"/>
			<path fill-rule="evenodd" clip-rule="evenodd" fill="#F5CB15" d="M13.784,12.301c-0.298-0.172-0.635-0.205-0.964-0.252
				c-0.668-0.097-1.307-0.278-1.9-0.607c-0.031-0.017-0.061-0.034-0.09-0.053c-0.005-0.004-0.006-0.015-0.013-0.033
				c0.3-0.056,0.597-0.11,0.894-0.166c0.042-0.008,0.066,0.017,0.091,0.04c0.409,0.398,0.913,0.607,1.458,0.739
				c0.208,0.051,0.407,0.126,0.542,0.309C13.796,12.286,13.79,12.293,13.784,12.301z"/>
			<path fill-rule="evenodd" clip-rule="evenodd" fill="#F5CB15" d="M7.223,15.49c0.185-0.36,0.205-0.761,0.27-1.149
				c0.106-0.641,0.31-1.243,0.653-1.829c0.06,0.328,0.113,0.631,0.167,0.932c0.008,0.04-0.014,0.067-0.038,0.093
				c-0.395,0.405-0.603,0.905-0.733,1.446c-0.049,0.204-0.125,0.398-0.293,0.539C7.24,15.51,7.231,15.5,7.223,15.49z"/>
			<path fill-rule="evenodd" clip-rule="evenodd" fill="#F5CB15" d="M4.003,8.941c0.308,0.175,0.654,0.203,0.993,0.253
				C5.651,9.29,6.277,9.473,6.859,9.797c0.037,0.02,0.072,0.043,0.132,0.079c-0.325,0.059-0.624,0.112-0.922,0.167
				c-0.04,0.007-0.067-0.01-0.093-0.035c-0.418-0.412-0.94-0.615-1.497-0.751C4.287,9.209,4.11,9.129,3.981,8.969
				C3.988,8.96,3.996,8.951,4.003,8.941z"/>
			<path fill-rule="evenodd" clip-rule="evenodd" fill="#F5CB15" d="M9.788,8.656c0.421-0.708,0.574-1.495,0.689-2.295
				c0.037-0.256,0.085-0.403,0.167-0.528c0.005,0.005,0.014,0.011,0.014,0.014c-0.109,0.311-0.026,0.621,0.005,0.93
				c0.044,0.445-0.059,0.862-0.196,1.278c-0.057,0.17-0.147,0.296-0.304,0.384c-0.123,0.07-0.234,0.159-0.351,0.24
				C9.804,8.671,9.796,8.663,9.788,8.656z"/>
			<path fill-rule="evenodd" clip-rule="evenodd" fill="#F5CB15" d="M4.2,12.753c0.233-0.088,0.378-0.225,0.495-0.393
				c0.354-0.515,0.832-0.871,1.407-1.105c0.063-0.025,0.119-0.037,0.188-0.022c0.195,0.039,0.393,0.071,0.61,0.11
				c-0.208,0.076-0.397,0.141-0.583,0.213c-0.55,0.214-1.023,0.556-1.494,0.9c-0.141,0.104-0.28,0.207-0.443,0.273
				C4.333,12.748,4.29,12.767,4.2,12.753z"/>
			<path fill-rule="evenodd" clip-rule="evenodd" fill="#F5CB15" d="M6.772,5.997c0.099,0.195,0.248,0.345,0.425,0.467
				c0.5,0.346,0.828,0.823,1.059,1.376c0.026,0.064,0.03,0.126,0.018,0.19C8.238,8.221,8.202,8.413,8.162,8.626
				c-0.074-0.205-0.139-0.392-0.21-0.577C7.73,7.475,7.366,6.987,7.009,6.495C6.901,6.346,6.798,6.197,6.747,6.017
				C6.755,6.01,6.764,6.003,6.772,5.997z"/>
			<path fill-rule="evenodd" clip-rule="evenodd" fill="#F5CB15" d="M10.878,9.893c0.203-0.074,0.394-0.141,0.583-0.214
				c0.604-0.231,1.109-0.625,1.629-0.996c0.119-0.085,0.245-0.159,0.388-0.205c0.003,0.019,0.007,0.031,0.005,0.032
				c-0.288,0.153-0.446,0.433-0.645,0.671C12.513,9.57,12.085,9.802,11.632,10c-0.051,0.022-0.103,0.012-0.154,0.003
				C11.282,9.968,11.087,9.931,10.878,9.893z"/>
			<path fill-rule="evenodd" clip-rule="evenodd" fill="#F5CB15" d="M7.964,12.567c0.025,0.021,0.005,0.04-0.004,0.057
				c-0.35,0.633-0.525,1.317-0.624,2.029c-0.03,0.219-0.057,0.439-0.144,0.646c-0.015,0.035-0.012,0.09-0.087,0.094
				c0.14-0.31,0.04-0.619,0.01-0.925c-0.051-0.522,0.086-1.006,0.276-1.482c0.009-0.022,0.026-0.046,0.047-0.06
				c0.176-0.119,0.341-0.254,0.528-0.356L7.964,12.567z"/>
			<path fill-rule="evenodd" clip-rule="evenodd" fill="#F5CB15" d="M13.662,12.391c-0.31-0.115-0.62-0.031-0.928,0.001
				c-0.426,0.045-0.825-0.052-1.226-0.176c-0.204-0.063-0.364-0.164-0.466-0.358c-0.053-0.104-0.129-0.195-0.194-0.292
				c0.008-0.008,0.016-0.015,0.024-0.021c0.49,0.249,0.999,0.445,1.543,0.542c0.325,0.059,0.65,0.112,0.976,0.172
				c0.102,0.019,0.201,0.056,0.29,0.112C13.675,12.377,13.668,12.385,13.662,12.391z"/>
			<path fill-rule="evenodd" clip-rule="evenodd" fill="#F5CB15" d="M4.126,8.849c0.292,0.105,0.585,0.035,0.875,0
				c0.443-0.054,0.859,0.044,1.276,0.174C6.48,9.086,6.631,9.192,6.732,9.377C6.791,9.483,6.867,9.58,6.936,9.679
				C6.928,9.686,6.921,9.692,6.914,9.698c-0.486-0.247-0.99-0.445-1.529-0.543C5.064,9.097,4.743,9.045,4.422,8.988
				C4.311,8.967,4.203,8.931,4.105,8.873C4.112,8.865,4.119,8.857,4.126,8.849z"/>
			<path fill-rule="evenodd" clip-rule="evenodd" fill="#F5CB15" d="M11.018,15.27c-0.096-0.201-0.241-0.359-0.424-0.484
				c-0.512-0.353-0.849-0.84-1.08-1.408c-0.012-0.027-0.028-0.06-0.024-0.086c0.039-0.222,0.081-0.442,0.134-0.665
				c0.214,0.821,0.685,1.499,1.178,2.165c0.103,0.141,0.197,0.287,0.236,0.461C11.031,15.258,11.024,15.264,11.018,15.27z"/>
			<path fill-rule="evenodd" clip-rule="evenodd" fill="#F5CB15" d="M13.581,8.454c0.031-0.026,0.063-0.012,0.094,0.003
				c-0.028,0.003-0.056,0.006-0.084,0.01C13.587,8.462,13.584,8.458,13.581,8.454z"/>
			<path fill-rule="evenodd" clip-rule="evenodd" fill="#F5CB15" d="M6.729,5.933C6.707,5.909,6.703,5.884,6.727,5.849
				C6.732,5.878,6.736,5.9,6.741,5.922C6.737,5.926,6.732,5.929,6.729,5.933z"/>
			<path fill-rule="evenodd" clip-rule="evenodd" fill="#F5CB15" d="M6.741,5.922C6.769,5.94,6.764,5.971,6.772,5.997
				C6.764,6.003,6.755,6.01,6.747,6.017C6.74,5.989,6.734,5.961,6.729,5.932C6.732,5.929,6.737,5.926,6.741,5.922z"/>
			<path fill-rule="evenodd" clip-rule="evenodd" fill="#F5CB15" d="M13.591,8.466c-0.021,0.026-0.046,0.032-0.098,0.016
				c0.042-0.013,0.065-0.021,0.088-0.028C13.584,8.458,13.587,8.462,13.591,8.466z"/>
			<path fill-rule="evenodd" clip-rule="evenodd" fill="#F5CB15" d="M4.105,8.873c-0.019-0.01-0.037-0.02-0.056-0.03
				c0.028-0.021,0.053-0.015,0.077,0.007C4.119,8.857,4.112,8.865,4.105,8.873z"/>
			<path fill-rule="evenodd" clip-rule="evenodd" fill="#F5CB15" d="M11.038,15.252c0.014,0.025,0.023,0.051,0.004,0.078
				c-0.025-0.014-0.021-0.039-0.025-0.061C11.024,15.264,11.031,15.258,11.038,15.252z"/>
			<path fill-rule="evenodd" clip-rule="evenodd" fill="#F5CB15" d="M7.249,15.521c-0.014,0.01-0.028,0.021-0.042,0.029l0.002,0.004
				c-0.032-0.03,0.005-0.044,0.015-0.064C7.231,15.5,7.24,15.51,7.249,15.521z"/>
			<path fill-rule="evenodd" clip-rule="evenodd" fill="#F5CB15" d="M10.849,11.566c-0.007-0.013-0.032-0.022-0.015-0.038
				c0.013-0.012,0.03-0.001,0.039,0.017C10.865,11.551,10.856,11.558,10.849,11.566z"/>
			<path fill-rule="evenodd" clip-rule="evenodd" fill="#F5CB15" d="M13.715,12.417c-0.021-0.002-0.042-0.005-0.053-0.026
				c0.006-0.006,0.013-0.014,0.02-0.021c0.016,0.009,0.032,0.019,0.048,0.028C13.725,12.406,13.72,12.411,13.715,12.417z"/>
			<path fill-rule="evenodd" clip-rule="evenodd" fill="#F5CB15" d="M13.729,12.399c0.012,0.012,0.049,0.01,0.033,0.034
				c-0.012,0.019-0.035,0.001-0.047-0.016C13.72,12.411,13.725,12.406,13.729,12.399z"/>
			<path fill-rule="evenodd" clip-rule="evenodd" fill="#F5CB15" d="M8.053,8.69c0.004,0.014,0.014,0.034,0.009,0.04
				C8.047,8.746,8.039,8.723,8.028,8.718C8.036,8.708,8.045,8.7,8.053,8.69z"/>
			<path fill-rule="evenodd" clip-rule="evenodd" fill="#F5CB15" d="M12.369,7.216c0.014-0.012,0.028-0.022,0.042-0.034
				c0.003,0.004,0.006,0.008,0.009,0.012c-0.01,0.016-0.02,0.03-0.029,0.046C12.383,7.232,12.376,7.224,12.369,7.216z"/>
			<path fill-rule="evenodd" clip-rule="evenodd" fill="#F5CB15" d="M5.482,14.141c-0.013,0.009-0.037,0.026-0.038,0.025
				c-0.023-0.027,0.012-0.031,0.021-0.046C5.471,14.128,5.477,14.135,5.482,14.141z"/>
			<path fill-rule="evenodd" clip-rule="evenodd" fill="#FDFDFE" d="M7.192,13.099c0.012-0.007,0.02-0.033,0.036-0.014
				c0.006,0.007-0.006,0.028-0.011,0.043C7.208,13.119,7.2,13.109,7.192,13.099z"/>
			<path fill-rule="evenodd" clip-rule="evenodd" fill="#F8CE16" d="M12.294,7.09c0.011-0.001,0.026-0.008,0.029-0.004
				c0.01,0.012-0.001,0.018-0.012,0.021C12.306,7.102,12.3,7.096,12.294,7.09z"/>
			<path fill-rule="evenodd" clip-rule="evenodd" fill="#F5CB15" d="M10.802,9.79c-0.01,0-0.02,0-0.03,0
				c0.005-0.007,0.009-0.014,0.014-0.021C10.792,9.776,10.797,9.782,10.802,9.79z"/>
			<path fill-rule="evenodd" clip-rule="evenodd" fill="#F5CB15" d="M7.966,12.57c0.004-0.005,0.009-0.01,0.013-0.015
				c0.001,0.005,0.002,0.011,0.002,0.016c-0.005-0.001-0.011-0.002-0.017-0.003C7.964,12.567,7.966,12.57,7.966,12.57z"/>
			<path fill-rule="evenodd" clip-rule="evenodd" fill="#F5CB15" d="M3.981,8.969C3.975,8.96,3.962,8.948,3.964,8.942
				c0.011-0.023,0.025-0.006,0.039-0.001C3.996,8.951,3.988,8.96,3.981,8.969z"/>
			<path fill-rule="evenodd" clip-rule="evenodd" fill="#F5CB15" d="M12.411,7.182c0.002-0.012,0.006-0.022,0.021-0.015
				c-0.004,0.008-0.009,0.018-0.013,0.026C12.417,7.19,12.414,7.186,12.411,7.182z"/>
			<path fill-rule="evenodd" clip-rule="evenodd" fill="#F5CB15" d="M13.802,12.278c0.005,0.009,0.01,0.018,0.015,0.027
				c-0.011-0.002-0.021-0.003-0.032-0.004C13.79,12.293,13.796,12.286,13.802,12.278z"/>
			<path fill-rule="evenodd" clip-rule="evenodd" fill="#F8CE16" d="M12.285,7.135c-0.01,0.011-0.018,0.035-0.036,0.014
				c-0.016-0.02,0.007-0.028,0.018-0.039C12.273,7.118,12.279,7.126,12.285,7.135z"/>
			<path fill-rule="evenodd" clip-rule="evenodd" fill="#F8CE16" d="M5.383,13.995c0.011-0.011,0.021-0.033,0.039-0.017
				c0.021,0.018-0.003,0.026-0.014,0.037C5.4,14.008,5.392,14.001,5.383,13.995z"/>
			<path fill-rule="evenodd" clip-rule="evenodd" fill="#F8CE16" d="M5.409,14.015c-0.009,0.007-0.022,0.022-0.027,0.021
				c-0.024-0.012-0.005-0.027,0.001-0.041C5.392,14.001,5.4,14.008,5.409,14.015z"/>
			<path fill-rule="evenodd" clip-rule="evenodd" fill="#F5CB15" d="M5.515,14.121c-0.011,0.007-0.021,0.014-0.032,0.021
				c-0.006-0.006-0.012-0.013-0.016-0.021c0.007-0.007,0.014-0.015,0.021-0.021C5.497,14.106,5.506,14.113,5.515,14.121z"/>
			<path fill-rule="evenodd" clip-rule="evenodd" fill="#F5CB15" d="M6.936,9.679C6.938,9.69,6.94,9.7,6.942,9.71
				c-0.01-0.004-0.019-0.009-0.028-0.013C6.921,9.692,6.928,9.686,6.936,9.679z"/>
			<path fill-rule="evenodd" clip-rule="evenodd" fill="#F5CB15" d="M7.206,15.55c-0.004,0.006-0.009,0.01-0.014,0.016
				c-0.001-0.006-0.001-0.011-0.002-0.017c0.006,0.002,0.012,0.003,0.018,0.005L7.206,15.55z"/>
			<path fill-rule="evenodd" clip-rule="evenodd" fill="#F8CE16" d="M12.311,7.108c-0.008,0.009-0.017,0.018-0.025,0.027
				c-0.006-0.009-0.012-0.018-0.018-0.025c0.009-0.007,0.018-0.013,0.027-0.02C12.3,7.096,12.306,7.102,12.311,7.108z"/>
			<path fill-rule="evenodd" clip-rule="evenodd" fill="#0F0D05" d="M9.772,11.389c0.033,0.028,0.068,0.055,0.077,0.122
				c-0.049-0.048-0.089-0.047-0.138-0.017c-0.07,0.043-0.153,0.063-0.222,0.108c-0.25,0.165-0.524,0.187-0.812,0.156
				c-0.083-0.009-0.159-0.038-0.232-0.075c-0.12-0.061-0.245-0.113-0.36-0.181c-0.084-0.05-0.133-0.03-0.171,0.051l0.003-0.002
				c0.001-0.094,0.012-0.146,0.138-0.106c0.106,0.035,0.221-0.024,0.326-0.063c0.125-0.045,0.25-0.065,0.381-0.042
				c0.082,0.015,0.164,0.019,0.245,0c0.208-0.049,0.388,0.061,0.581,0.096c0.063,0.012,0.152,0.068,0.186-0.051L9.772,11.389z
				 M9.441,11.53c-0.385-0.041-0.731-0.042-1.104,0C8.709,11.664,9.055,11.665,9.441,11.53z"/>
			<path fill-rule="evenodd" clip-rule="evenodd" fill="#0F0D05" d="M9.502,10.251c-0.014-0.016-0.025-0.036-0.042-0.049
				c-0.048-0.035-0.009-0.139-0.086-0.134c-0.047,0.004-0.09,0.061-0.158,0.109c0.013-0.104,0.051-0.165,0.129-0.201
				c0.233-0.107,0.533-0.054,0.718,0.129c-0.006,0.009-0.011,0.017-0.017,0.025c-0.04-0.018-0.084-0.042-0.07,0.038
				c0.009,0.047,0.017,0.093-0.052,0.101c0-0.089,0.043-0.196-0.119-0.236c0.057,0.097,0.014,0.175-0.011,0.253
				c0.056,0.02,0.087-0.039,0.133-0.02c-0.173,0.152-0.413,0.166-0.605,0.037c-0.028-0.02-0.068-0.035-0.047-0.078
				c0.026-0.055,0.064-0.021,0.098-0.005c0.034,0.018,0.067,0.038,0.101,0.057c0.016,0.015,0.039,0.033,0.054,0.018
				C9.55,10.27,9.513,10.265,9.502,10.251z"/>
			<path fill-rule="evenodd" clip-rule="evenodd" fill="#0F0D05" d="M7.688,10.121c0.197-0.206,0.438-0.227,0.698-0.159
				c0.097,0.024,0.156,0.086,0.171,0.2c-0.081-0.015-0.134-0.135-0.183-0.092c-0.037,0.032-0.063,0.123-0.094,0.2
				c0.068,0.002,0.104-0.042,0.147-0.063c0.034-0.017,0.059-0.013,0.077,0.019c0.017,0.03-0.009,0.046-0.028,0.063
				c-0.14,0.122-0.428,0.125-0.592,0.006c0.005-0.007,0.01-0.013,0.015-0.02c0.027,0.007,0.053,0.03,0.097,0.002
				c-0.074-0.066-0.061-0.153-0.039-0.249c-0.126,0.055-0.137,0.136-0.095,0.236c-0.003,0.003-0.006,0.006-0.009,0.009
				c-0.112-0.022-0.016-0.115-0.06-0.165c-0.027,0.01-0.057,0.021-0.088,0.031C7.7,10.134,7.694,10.127,7.688,10.121z M8.224,10.307
				C8.221,10.305,8.219,10.3,8.216,10.3s-0.006,0.004-0.009,0.006c0.002,0.003,0.005,0.008,0.008,0.008
				C8.217,10.314,8.221,10.31,8.224,10.307z M8.275,10.277c-0.004-0.003-0.007-0.006-0.009-0.009
				c-0.003,0.006-0.007,0.012-0.008,0.018c0,0.002,0.005,0.006,0.008,0.009C8.269,10.289,8.272,10.284,8.275,10.277z"/>
			<path fill-rule="evenodd" clip-rule="evenodd" fill="#0F0D05" d="M9.094,9.952c0.138-0.26,0.478-0.403,0.748-0.321
				c0.138,0.042,0.269,0.099,0.386,0.185c0.019,0.014,0.051,0.027,0.032,0.06c-0.015,0.023-0.042,0.032-0.069,0.023
				c-0.042-0.013-0.082-0.029-0.122-0.046C9.75,9.72,9.444,9.707,9.163,9.945C9.147,9.958,9.128,9.971,9.094,9.952z"/>
			<path fill-rule="evenodd" clip-rule="evenodd" fill="#0F0D05" d="M8.66,9.976c-0.14-0.108-0.279-0.2-0.458-0.211
				C8.022,9.754,7.854,9.781,7.694,9.857c-0.035,0.017-0.072,0.03-0.109,0.042C7.558,9.907,7.528,9.898,7.516,9.873
				C7.5,9.843,7.53,9.827,7.55,9.813c0.184-0.121,0.381-0.232,0.603-0.219c0.221,0.013,0.383,0.167,0.521,0.334
				C8.678,9.933,8.668,9.951,8.66,9.976z"/>
			<path fill-rule="evenodd" clip-rule="evenodd" fill="#0F0D05" d="M9.197,10.763c0.114,0.125,0.175,0.302,0.388,0.326
				c-0.011,0.014-0.021,0.027-0.032,0.042c-0.062-0.019-0.124-0.036-0.186-0.054c-0.124-0.036-0.247-0.04-0.364,0.026
				c-0.06,0.034-0.132,0.048-0.188,0.016c-0.201-0.118-0.393-0.054-0.587,0.013c-0.004-0.005-0.007-0.009-0.011-0.013
				c0.137-0.108,0.306-0.183,0.34-0.396c0.062,0.057,0.028,0.073,0.021,0.093c-0.015,0.034-0.048,0.066-0.018,0.107
				c0.027,0.037,0.068,0.027,0.106,0.023c0.022-0.004,0.038-0.034,0.069,0.01c0.082,0.112,0.214,0.102,0.306-0.018
				c0.015-0.02,0.02-0.019,0.037-0.01c0.048,0.025,0.104,0.044,0.138-0.011c0.033-0.051-0.016-0.096-0.038-0.142
				C9.185,10.774,9.191,10.769,9.197,10.763z"/>
			<path fill-rule="evenodd" clip-rule="evenodd" fill="#0F0D05" d="M7.707,10.14c-0.013,0.021-0.029,0.03-0.052,0.015
				c0.011-0.012,0.023-0.022,0.034-0.034C7.694,10.127,7.7,10.134,7.707,10.14z"/>
			<path fill-rule="evenodd" clip-rule="evenodd" fill="#0F0D05" d="M9.178,10.778c0.002-0.01,0.003-0.021,0.004-0.031
				c0.005,0.006,0.01,0.011,0.015,0.017C9.191,10.769,9.185,10.774,9.178,10.778z"/>
			<path fill-rule="evenodd" clip-rule="evenodd" fill="#0F0D05" d="M8.228,11.132c-0.005,0.006-0.015,0.018-0.015,0.017
				c-0.016-0.012-0.007-0.021,0.004-0.029C8.22,11.124,8.224,11.127,8.228,11.132z"/>
			<path fill-rule="evenodd" clip-rule="evenodd" fill="#0F0D05" d="M7.886,10.295c-0.011-0.008-0.021-0.014-0.031-0.021
				c0.003-0.003,0.006-0.006,0.009-0.009c0.013,0.004,0.025,0.007,0.037,0.011C7.896,10.283,7.891,10.289,7.886,10.295z"/>
			<path fill-rule="evenodd" clip-rule="evenodd" fill="#0F0D05" d="M9.774,11.386c-0.007,0.002-0.014,0.003-0.021,0.004
				c0.005-0.025,0.012-0.003,0.019-0.001L9.774,11.386z"/>
			<rect x="9.859" y="11.53" fill-rule="evenodd" clip-rule="evenodd" fill="#0F0D05" width="0.008" height="0.014"/>
			<path fill-rule="evenodd" clip-rule="evenodd" fill="#0F0D05" d="M10.063,10.106c0.005,0.008,0.01,0.016,0.015,0.024
				c-0.011,0-0.021,0.001-0.032,0.001C10.051,10.123,10.057,10.115,10.063,10.106z"/>
			<polygon fill-rule="evenodd" clip-rule="evenodd" fill="#0F0D05" points="7.915,11.554 7.912,11.553 7.918,11.552 			"/>
			<path fill-rule="evenodd" clip-rule="evenodd" fill="#F2C915" d="M9.441,11.53c-0.387,0.135-0.732,0.134-1.104,0
				C8.71,11.488,9.057,11.489,9.441,11.53z"/>
			<path fill-rule="evenodd" clip-rule="evenodd" fill="#F2C915" d="M9.927,10.267c-0.046-0.02-0.077,0.039-0.133,0.02
				c0.025-0.078,0.068-0.156,0.011-0.253c0.162,0.04,0.118,0.147,0.119,0.236L9.927,10.267z"/>
			<path fill-rule="evenodd" clip-rule="evenodd" fill="#F8CE16" d="M9.502,10.251c0.011,0.014,0.048,0.019,0.025,0.044
				c-0.016,0.016-0.039-0.003-0.054-0.018C9.482,10.269,9.492,10.26,9.502,10.251z"/>
			<path fill-rule="evenodd" clip-rule="evenodd" fill="#F2C915" d="M7.9,10.276c-0.012-0.004-0.024-0.007-0.037-0.011
				c-0.042-0.101-0.031-0.182,0.095-0.236c-0.022,0.096-0.035,0.183,0.039,0.249C7.953,10.306,7.928,10.283,7.9,10.276z"/>
			
				<rect x="8.21" y="10.301" transform="matrix(0.8051 -0.5932 0.5932 0.8051 -4.5123 6.8827)" fill-rule="evenodd" clip-rule="evenodd" fill="#F8CE16" width="0.012" height="0.011"/>
			<path fill-rule="evenodd" clip-rule="evenodd" fill="#F8CE16" d="M8.275,10.277c-0.003,0.007-0.006,0.012-0.009,0.018
				c-0.003-0.003-0.009-0.007-0.008-0.009c0.001-0.006,0.005-0.012,0.008-0.018C8.269,10.271,8.271,10.274,8.275,10.277z"/>
			<rect x="3.417" y="31" fill-rule="evenodd" clip-rule="evenodd" fill="#0038A7" width="29" height="5"/>
			<rect x="5.511" y="-2.136" fill-rule="evenodd" clip-rule="evenodd" fill="#0038A7" width="29" height="5"/>
		</g>
	</g>
	<g>
		<defs>
			<circle id="SVGID_21_" cx="53.394" cy="16.595" r="15.917"/>
		</defs>
		<clipPath id="SVGID_6_">
			<use xlink:href="#SVGID_21_"  overflow="visible"/>
		</clipPath>
		<g clip-path="url(#SVGID_6_)">
			<path fill-rule="evenodd" clip-rule="evenodd" fill="#E20A17" d="M53.395,33.603c-7.158,0-14.316,0-21.475,0.002
				c-0.081,0-0.099-0.021-0.099-0.117c0.002-11.262,0.002-22.524,0-33.787c0-0.095,0.018-0.117,0.099-0.117
				c14.316,0.002,28.633,0.002,42.949,0c0.081,0,0.099,0.021,0.099,0.117c-0.002,11.262-0.002,22.525,0,33.787
				c0,0.096-0.019,0.117-0.099,0.117C67.711,33.603,60.553,33.603,53.395,33.603z M53.045,12.597
				c0.011,0.02,0.023,0.039,0.039,0.064c0.016-0.04,0-0.061-0.02-0.081c-0.018-0.027-0.034-0.055-0.052-0.082
				c-1.368-1.89-3.208-2.935-5.542-3.079c-1.34-0.082-2.607,0.207-3.785,0.849c-2.841,1.547-4.304,4.706-3.595,7.874
				c0.537,2.398,1.982,4.091,4.229,5.075c1.345,0.589,2.758,0.717,4.199,0.421c1.907-0.392,3.409-1.405,4.526-2.995
				c0.013-0.018,0.04-0.036,0.015-0.07c-0.078,0.074-0.154,0.149-0.234,0.221c-1.425,1.289-3.091,1.776-4.98,1.45
				c-1.128-0.194-2.117-0.703-2.93-1.513c-1.511-1.505-2.063-3.321-1.62-5.403c0.524-2.464,2.666-4.291,5.168-4.468
				c1.261-0.089,2.429,0.197,3.503,0.865C52.361,11.974,52.711,12.275,53.045,12.597z M59.297,18.706
				c-0.038-0.052-0.058-0.082-0.079-0.111c-0.465-0.639-0.929-1.279-1.395-1.917c-0.044-0.061-0.051-0.1-0.003-0.165
				c0.299-0.404,0.593-0.812,0.889-1.219c0.191-0.264,0.382-0.527,0.574-0.792c-0.031-0.015-0.05,0.001-0.069,0.007
				c-0.768,0.249-1.535,0.495-2.301,0.749c-0.083,0.027-0.117,0.007-0.163-0.057c-0.462-0.641-0.928-1.28-1.393-1.918
				c-0.02-0.026-0.033-0.062-0.08-0.079c0,0.045,0,0.081,0,0.115c0,0.791-0.001,1.582,0.002,2.373c0,0.075-0.022,0.104-0.093,0.126
				c-0.598,0.19-1.194,0.385-1.791,0.579c-0.191,0.062-0.383,0.126-0.595,0.196c0.056,0.019,0.089,0.03,0.123,0.042
				c0.747,0.242,1.493,0.486,2.241,0.726c0.084,0.027,0.116,0.063,0.115,0.156c-0.004,0.784-0.003,1.567-0.001,2.351
				c0,0.037-0.016,0.077,0.018,0.117c0.024-0.031,0.045-0.059,0.066-0.087c0.465-0.639,0.93-1.278,1.393-1.918
				c0.045-0.063,0.083-0.076,0.157-0.051c0.288,0.099,0.578,0.191,0.868,0.285C58.277,18.375,58.774,18.536,59.297,18.706z"/>
		</g>
	</g>
</g>
<g id="Imagenes">
</g>
<g id="Cintillos">
</g>
<g id="Botones">
</g>
<g id="TXT">
</g>
<g id="Logo">
</g>
<g id="Guia">
</g>
</svg>
