<?xml version="1.0" encoding="utf-8"?>
<!-- Generator: Adobe Illustrator 16.0.0, SVG Export Plug-In . SVG Version: 6.00 Build 0)  -->
<!DOCTYPE svg PUBLIC "-//W3C//DTD SVG 1.1//EN" "http://www.w3.org/Graphics/SVG/1.1/DTD/svg11.dtd">
<svg version="1.1" xmlns="http://www.w3.org/2000/svg" xmlns:xlink="http://www.w3.org/1999/xlink" x="0px" y="0px"
	 width="34.417px" height="34.25px" viewBox="0 0 34.417 34.25" enable-background="new 0 0 34.417 34.25" xml:space="preserve">
<g id="Soporte">
</g>
<g id="Publicidad">
</g>
<g id="Iconos">
	<g>
		<defs>
			<circle id="SVGID_13_" cx="17.783" cy="17.595" r="15.917"/>
		</defs>
		<clipPath id="SVGID_2_">
			<use xlink:href="#SVGID_13_"  overflow="visible"/>
		</clipPath>
		<g clip-path="url(#SVGID_2_)">
			<path fill-rule="evenodd" clip-rule="evenodd" fill="#042F63" d="M-1.967,1.3c7.4-0.001,14.801-0.002,22.201-0.002
				c0.049,0,0.099,0.006,0.148,0.01c0.172,0.013,0.344,0.036,0.516,0.036c10.405,0.002,20.81,0.002,31.215,0
				c0.159,0,0.319-0.022,0.478-0.034c0.129,0,0.271-0.068,0.375,0.069c-0.096,0.373-0.02,0.752-0.045,1.128
				c-0.031,0.447,0.068,0.898-0.048,1.341c-0.002-0.644-0.002-1.289-0.007-1.933c-0.004-0.569,0.076-0.514-0.519-0.514
				c-10.427-0.001-20.854,0-31.281,0c-0.111,0-0.224,0.006-0.335,0c-0.156-0.009-0.223,0.056-0.221,0.216
				c0.011,0.743,0.017,1.486,0.024,2.229c-0.005,0.824-0.011,1.648-0.017,2.473c0.002,0.865-0.035,1.731,0.021,2.596
				c-0.034,0.836-0.03,1.673-0.002,2.509c-0.039,0.853-0.044,1.706,0.002,2.559c-0.007,0.819-0.014,1.637-0.021,2.457
				c0.001,0.863,0.003,1.726,0.003,2.59c-0.136,0.004-0.272,0.013-0.408,0.013c-7.111,0-14.222,0-21.333,0
				c-0.111,0-0.224,0.009-0.334-0.001c-0.189-0.019-0.258,0.046-0.255,0.248c0.016,0.755,0.013,1.511,0.017,2.267
				c-0.047,0.855-0.035,1.711-0.006,2.568c-0.003,0.093-0.006,0.185-0.01,0.278c-0.171-0.013-0.131-0.146-0.13-0.245
				c0.001-0.515,0.02-1.029,0.008-1.543c-0.008-0.35,0.069-0.707-0.053-1.052c0-0.042,0-0.083,0-0.125
				c0.073-0.082,0.071-0.165,0.002-0.248c0-0.042-0.001-0.083-0.002-0.125c0.1-0.146,0.055-0.313,0.055-0.47
				C-1.929,14.372-1.929,8.15-1.931,1.927C-1.931,1.718-1.954,1.509-1.967,1.3z M19.451,14.581c0.014,0.013,0.027,0.025,0.041,0.039
				c0.001-0.011,0.001-0.021,0.002-0.031c-0.016,0-0.032,0-0.048,0.001c-0.066-0.355-0.113-0.704,0.358-0.913
				c-0.491,0.113-0.703-0.117-0.819-0.551c-0.027,0.532-0.338,0.604-0.77,0.565c0.426,0.222,0.517,0.522,0.311,0.954
				C18.858,14.236,19.154,14.373,19.451,14.581z M7.343,1.997c0.003,0.555-0.334,0.618-0.792,0.607
				C7.104,2.769,7.006,3.127,6.9,3.52c0.332-0.376,0.625-0.309,0.957,0.003C7.625,3.103,7.733,2.807,8.147,2.57
				C7.627,2.695,7.459,2.428,7.343,1.997z M8.514,15.546c0.43,0.211,0.515,0.506,0.23,0.976c0.262-0.158,0.409-0.317,0.554-0.315
				c0.155,0.002,0.308,0.157,0.461,0.245c-0.242-0.414-0.037-0.68,0.336-0.947c-0.56,0.215-0.665-0.166-0.81-0.53
				C9.241,15.473,8.972,15.603,8.514,15.546z M12.684,16.499c0.338-0.362,0.65-0.379,1.003-0.007
				c-0.25-0.439-0.091-0.721,0.283-0.97c-0.503,0.139-0.679-0.143-0.801-0.545c-0.041,0.514-0.338,0.608-0.774,0.573
				C12.835,15.771,12.917,16.076,12.684,16.499z M10.469,2.609c0.425,0.194,0.501,0.488,0.284,0.911
				c0.332-0.33,0.642-0.325,0.995-0.017c-0.274-0.445-0.079-0.702,0.298-0.929c-0.499,0.106-0.709-0.125-0.768-0.602
				C11.007,2.545,11.007,2.545,10.469,2.609z M14.341,13.688c0.414,0.228,0.522,0.523,0.294,0.972
				c0.335-0.448,0.644-0.327,1.002-0.03c-0.301-0.456-0.088-0.708,0.278-0.952c-0.456,0.084-0.713-0.078-0.793-0.561
				C15.073,13.633,14.785,13.74,14.341,13.688z M10.738,14.641c0.345-0.339,0.655-0.371,1.003,0.005
				c-0.219-0.432-0.136-0.735,0.305-0.96c-0.475,0.082-0.719-0.103-0.805-0.569c-0.063,0.504-0.349,0.627-0.802,0.566
				C10.883,13.912,10.992,14.207,10.738,14.641z M19.009,2.021c-0.071,0.469-0.331,0.629-0.795,0.574
				c0.488,0.198,0.461,0.529,0.318,0.93c0.336-0.396,0.641-0.28,0.975-0.017c-0.253-0.431-0.099-0.702,0.293-0.922
				C19.349,2.635,19.072,2.518,19.009,2.021z M-1.163,2.616c0.43,0.18,0.45,0.495,0.301,0.9c0.333-0.375,0.626-0.31,0.958,0.008
				C-0.143,3.087,0,2.802,0.392,2.566c-0.51,0.124-0.699-0.125-0.755-0.582C-0.646,2.541-0.646,2.541-1.163,2.616z M15.909,2.592
				c-0.5,0.099-0.685-0.167-0.795-0.585c-0.047,0.499-0.326,0.628-0.797,0.587c0.539,0.195,0.471,0.542,0.316,0.94
				c0.328-0.325,0.63-0.376,0.975-0.013C15.461,3.122,15.425,2.797,15.909,2.592z M3.991,3.52C3.714,3.087,3.883,2.812,4.271,2.555
				C3.727,2.724,3.594,2.4,3.482,2.013C3.396,2.449,3.18,2.669,2.674,2.59c0.513,0.193,0.486,0.524,0.329,0.935
				C3.34,3.142,3.646,3.226,3.991,3.52z M0.737,15.545C1.25,15.73,1.212,16.07,1.08,16.476c0.331-0.397,0.626-0.291,0.961-0.001
				c-0.245-0.436-0.111-0.712,0.33-0.902c-0.625-0.104-0.625-0.104-0.833-0.637C1.434,15.344,1.297,15.678,0.737,15.545z
				 M4.635,15.542c0.441,0.213,0.482,0.52,0.319,0.938c0.334-0.403,0.636-0.279,0.972-0.013c-0.249-0.429-0.106-0.702,0.325-0.904
				c-0.579-0.07-0.579-0.07-0.848-0.613C5.334,15.384,5.153,15.652,4.635,15.542z M9.265,3.853C9.233,4.335,8.98,4.503,8.491,4.441
				c0.507,0.188,0.496,0.523,0.334,0.938c0.333-0.366,0.636-0.33,0.977-0.007c-0.246-0.434-0.1-0.709,0.329-0.916
				C9.573,4.387,9.573,4.387,9.265,3.853z M1.542,3.836c-0.048,0.5-0.318,0.662-0.797,0.599C1.172,4.651,1.27,4.943,1.059,5.374
				C1.4,5.015,1.704,5.041,2.046,5.383c-0.269-0.442-0.1-0.72,0.287-0.965C1.819,4.537,1.627,4.294,1.542,3.836z M0.102,7.231
				c-0.233-0.428-0.126-0.724,0.293-0.952c-0.491,0.095-0.698-0.133-0.764-0.625C-0.48,5.914-0.514,6.101-0.624,6.215
				C-0.745,6.342-0.975,6.2-1.197,6.348c0.482,0.156,0.481,0.478,0.325,0.879C-0.536,6.852-0.234,6.912,0.102,7.231z M16.572,5.402
				c0.333-0.418,0.647-0.344,0.995-0.033c-0.255-0.432-0.094-0.706,0.28-0.951c-0.523,0.149-0.667-0.176-0.803-0.559
				c-0.022,0.524-0.33,0.618-0.778,0.583C16.746,4.653,16.759,4.97,16.572,5.402z M0.099,18.328
				c-0.222-0.433-0.125-0.718,0.312-0.925c-0.493,0.092-0.722-0.124-0.818-0.605c-0.029,0.525-0.322,0.66-0.776,0.623
				c0.462,0.195,0.483,0.501,0.308,0.913C-0.544,17.957-0.24,18.02,0.099,18.328z M10.764,18.318c0.327-0.321,0.63-0.33,0.979,0.007
				c-0.254-0.438-0.093-0.703,0.301-0.892c-0.228-0.099-0.423,0.024-0.563-0.093c-0.138-0.114-0.092-0.345-0.288-0.518
				c-0.005,0.516-0.308,0.635-0.748,0.598C10.885,17.616,10.974,17.893,10.764,18.318z M13.676,5.373
				c-0.214-0.424-0.115-0.718,0.298-0.947C13.482,4.53,13.277,4.3,13.187,3.854c-0.068,0.479-0.314,0.652-0.81,0.582
				c0.515,0.202,0.487,0.538,0.324,0.963C13.031,4.962,13.336,5.063,13.676,5.373z M11.739,7.216
				c-0.273-0.447-0.056-0.701,0.289-0.938c-0.477,0.09-0.69-0.116-0.782-0.562c-0.068,0.471-0.33,0.629-0.799,0.574
				c0.454,0.222,0.525,0.528,0.3,0.953C11.085,6.888,11.389,6.865,11.739,7.216z M5.429,3.855C5.348,4.3,5.13,4.533,4.622,4.441
				C5.121,4.655,5.1,4.983,4.934,5.389c0.33-0.384,0.642-0.353,0.993-0.023C5.694,4.939,5.798,4.653,6.215,4.432
				C5.722,4.515,5.499,4.306,5.429,3.855z M0.077,14.607c-0.232-0.435-0.057-0.697,0.339-0.937c-0.489,0.117-0.732-0.064-0.8-0.55
				c-0.098,0.439-0.322,0.658-0.807,0.571c0.431,0.21,0.493,0.514,0.326,0.921C-0.534,14.295-0.248,14.293,0.077,14.607z
				 M7.863,14.627c-0.266-0.441-0.097-0.716,0.294-0.954c-0.521,0.131-0.704-0.137-0.798-0.573c-0.053,0.489-0.317,0.661-0.799,0.6
				c0.47,0.198,0.482,0.516,0.338,0.931C7.231,14.229,7.526,14.335,7.863,14.627z M13.672,9.07
				c-0.212-0.415-0.114-0.705,0.304-0.937c-0.481,0.087-0.707-0.115-0.751-0.648c-0.126,0.284-0.154,0.494-0.271,0.575
				c-0.126,0.088-0.336,0.055-0.51,0.074c0.397,0.23,0.464,0.537,0.246,0.972C13.025,8.692,13.327,8.748,13.672,9.07z M19.505,7.223
				c-0.234-0.413-0.129-0.701,0.285-0.934c-0.488,0.083-0.693-0.153-0.799-0.583c-0.027,0.519-0.346,0.605-0.776,0.602
				c0.493,0.194,0.46,0.527,0.314,0.94C18.867,6.798,19.171,6.941,19.505,7.223z M15.911,6.293
				c-0.497,0.095-0.684-0.167-0.802-0.581c-0.017,0.527-0.335,0.595-0.761,0.591c0.432,0.216,0.5,0.514,0.278,0.942
				c0.344-0.404,0.657-0.338,1-0.009C15.44,6.829,15.438,6.509,15.911,6.293z M15.132,9.426c-0.071,0.483-0.341,0.626-0.801,0.564
				c0.442,0.226,0.522,0.529,0.299,0.973c0.333-0.449,0.65-0.322,1.003-0.044c-0.29-0.45-0.07-0.704,0.285-0.938
				C15.467,10.05,15.19,9.936,15.132,9.426z M18.515,10.924c0.342-0.352,0.645-0.331,0.986,0.01
				c-0.233-0.434-0.098-0.724,0.299-0.96c-0.493,0.12-0.696-0.122-0.816-0.572c0,0.554-0.336,0.61-0.756,0.609
				C18.668,10.218,18.728,10.507,18.515,10.924z M19.81,17.4c-0.501,0.103-0.724-0.131-0.825-0.601
				c-0.018,0.538-0.313,0.657-0.763,0.621c0.447,0.198,0.477,0.507,0.298,0.939c0.335-0.439,0.64-0.333,0.973-0.033
				C19.272,17.896,19.384,17.614,19.81,17.4z M9.807,9.15C9.745,8.855,9.657,8.671,9.686,8.507c0.027-0.163,0.316-0.168,0.362-0.38
				C9.572,8.098,9.572,8.098,9.266,7.54C9.23,8.022,8.994,8.215,8.508,8.133c0.429,0.23,0.535,0.527,0.309,0.955
				C9.154,8.727,9.458,8.742,9.807,9.15z M6.58,6.293c0.459,0.214,0.488,0.523,0.292,0.938C7.21,6.879,7.519,6.868,7.87,7.229
				C7.58,6.786,7.779,6.517,8.142,6.271c-0.509,0.12-0.685-0.151-0.783-0.563C7.272,6.142,7.083,6.38,6.58,6.293z M17.037,7.596
				c-0.013,0.49-0.332,0.57-0.764,0.56c0.514,0.201,0.451,0.539,0.305,0.955c0.333-0.455,0.649-0.311,0.992-0.042
				c-0.24-0.421-0.127-0.706,0.329-0.908C17.281,8.074,17.281,8.074,17.037,7.596z M17.854,15.522
				c-0.561,0.213-0.654-0.193-0.817-0.541c-0.023,0.512-0.321,0.608-0.825,0.505c0.232,0.204,0.426,0.295,0.468,0.434
				c0.045,0.149-0.052,0.341-0.096,0.561c0.186-0.116,0.328-0.272,0.473-0.275c0.149-0.003,0.301,0.145,0.453,0.226
				C17.327,16.026,17.465,15.768,17.854,15.522z M5.458,7.519c-0.259,0.549-0.259,0.549-0.87,0.647
				c0.466,0.19,0.554,0.49,0.357,0.917c0.338-0.395,0.641-0.299,0.958,0.02c0.005-0.26-0.171-0.424-0.104-0.6
				C5.861,8.344,6.11,8.325,6.188,8.08C5.709,8.237,5.516,8.004,5.458,7.519z M13.713,12.753c-0.331-0.43-0.097-0.677,0.267-0.929
				c-0.511,0.159-0.68-0.127-0.8-0.548c-0.065,0.467-0.308,0.651-0.784,0.571c0.453,0.22,0.503,0.531,0.24,0.966
				C13.185,12.482,13.185,12.482,13.713,12.753z M1.11,9.043C1.256,8.956,1.403,8.795,1.547,8.8
				c0.154,0.004,0.304,0.162,0.456,0.253c-0.208-0.411-0.07-0.698,0.336-0.935C1.833,8.244,1.641,7.995,1.531,7.553
				c-0.02,0.531-0.333,0.618-0.776,0.596C1.185,8.362,1.262,8.658,1.11,9.043z M-1.209,9.992c0.463,0.196,0.53,0.498,0.338,0.932
				c0.339-0.409,0.642-0.273,0.976-0.007c-0.266-0.439-0.08-0.703,0.286-0.942c-0.494,0.119-0.694-0.117-0.792-0.56
				C-0.474,9.89-0.719,10.069-1.209,9.992z M3.476,5.7C3.453,6.213,3.146,6.317,2.697,6.309C3.162,6.504,3.17,6.822,3.003,7.246
				c0.338-0.451,0.642-0.301,0.98,0.027c-0.06-0.262-0.15-0.445-0.123-0.61c0.026-0.163,0.3-0.182,0.39-0.418
				C3.786,6.358,3.559,6.171,3.476,5.7z M6.871,18.331c0.341-0.323,0.647-0.36,0.992,0.01c-0.25-0.437-0.134-0.723,0.297-0.943
				c-0.521,0.126-0.704-0.153-0.818-0.59c-0.015,0.532-0.335,0.631-0.77,0.621C7.044,17.615,7.061,17.92,6.871,18.331z M4.293,13.7
				c-0.467,0.058-0.751-0.091-0.811-0.588c-0.05,0.503-0.34,0.638-0.8,0.591c0.461,0.198,0.483,0.512,0.335,0.925
				c0.334-0.396,0.629-0.282,0.959-0.001C3.78,14.208,3.819,13.902,4.293,13.7z M1.576,11.2c-0.105,0.25-0.141,0.448-0.255,0.577
				c-0.125,0.14-0.366-0.014-0.621,0.144c0.588,0.108,0.485,0.467,0.372,0.862c0.33-0.391,0.636-0.289,0.995-0.01
				c-0.337-0.448-0.09-0.691,0.248-0.938C1.806,11.955,1.632,11.687,1.576,11.2z M2.632,9.917c0.469,0.443,0.469,0.443,0.382,1.053
				c0.322-0.407,0.632-0.36,0.98-0.048c-0.278-0.434-0.116-0.701,0.291-0.954C3.72,10.148,3.593,9.807,3.479,9.405
				C3.402,9.856,3.196,10.087,2.632,9.917z M14.646,18.327c0.336-0.359,0.642-0.308,0.983,0.007
				c-0.226-0.427-0.149-0.726,0.302-0.939c-0.514,0.121-0.708-0.128-0.799-0.585c-0.074,0.49-0.325,0.678-0.808,0.595
				C14.783,17.613,14.846,17.906,14.646,18.327z M10.751,10.925c0.338-0.335,0.643-0.34,0.99,0.002
				c-0.234-0.43-0.112-0.712,0.294-0.942c-0.49,0.1-0.702-0.127-0.806-0.585c-0.011,0.563-0.348,0.617-0.773,0.601
				C10.857,10.219,11.003,10.493,10.751,10.925z M16.292,11.843c0.398,0.364,0.398,0.364,0.29,0.985
				c0.332-0.383,0.645-0.405,0.984-0.04c-0.215-0.425-0.141-0.729,0.288-0.958c-0.519,0.146-0.676-0.163-0.774-0.598
				C16.847,11.813,16.847,11.813,16.292,11.843z M2.734,17.433c0.127,0.11,0.296,0.198,0.371,0.336
				c0.086,0.159-0.127,0.33-0.056,0.604c0.292-0.475,0.597-0.32,0.934-0.043c-0.188-0.411-0.186-0.725,0.308-0.923
				c-0.513,0.104-0.718-0.154-0.813-0.594C3.401,17.262,3.206,17.51,2.734,17.433z M6.875,10.908
				c0.349-0.341,0.651-0.304,0.988,0.023C7.613,10.5,7.74,10.21,8.157,9.979c-0.51,0.113-0.703-0.14-0.795-0.569
				C7.28,9.852,7.074,10.084,6.583,9.979C6.928,10.217,7.146,10.459,6.875,10.908z M4.634,11.854c0.488,0.19,0.456,0.53,0.318,0.933
				c0.331-0.386,0.634-0.301,0.974-0.019c-0.229-0.42-0.13-0.706,0.298-0.943c-0.561,0.188-0.683-0.169-0.809-0.554
				C5.342,11.735,5.112,11.936,4.634,11.854z M9.304,11.268c-0.078,0.462-0.316,0.656-0.792,0.59
				c0.476,0.205,0.476,0.525,0.261,0.933c0.314-0.13,0.511-0.47,0.816-0.154c0.046,0.047,0.147-0.016,0.12-0.076
				c-0.167-0.372,0.15-0.503,0.369-0.725C9.604,11.941,9.384,11.723,9.304,11.268z"/>
			<path fill-rule="evenodd" clip-rule="evenodd" fill="#042F63" d="M-1.96,34.237c-0.05-0.131,0.098-0.274-0.026-0.4
				c0-0.042,0-0.084,0-0.125c0.093-0.678,0.093-1.356,0-2.034c0-0.042,0-0.083,0-0.124c0.058-0.034,0.114-0.056,0.177-0.011
				c0.003,0.042,0.007,0.084,0.01,0.127c-0.007,0.706-0.001,1.412-0.027,2.118c-0.012,0.301,0.093,0.371,0.379,0.369
				c1.86-0.012,3.719-0.006,5.579-0.006c16.227,0,32.453,0.002,48.681,0.002c-0.017,0.026-0.033,0.053-0.049,0.081
				c-0.161,0.002-0.322,0.007-0.483,0.007c-18.03,0-36.061,0.001-54.091,0.001C-1.861,34.242-1.91,34.238-1.96,34.237z"/>
			<path fill-rule="evenodd" clip-rule="evenodd" fill="#6E7170" d="M52.59,1.31c-0.159,0.011-0.319,0.034-0.478,0.034
				c-10.405,0.002-20.81,0.002-31.215,0c-0.172,0-0.344-0.023-0.516-0.036c0.129-0.067,0.268-0.035,0.401-0.035
				c10.444-0.002,20.888-0.002,31.332,0C52.273,1.273,52.437,1.235,52.59,1.31z"/>
			<path fill-rule="evenodd" clip-rule="evenodd" fill="#FEFEFE" d="M52.847,19.055c-0.006,0.834-0.012,1.669-0.018,2.504
				c-0.124,0.002-0.248,0.006-0.372,0.006c-17.973,0-35.945,0-53.918,0c-0.11,0-0.223-0.006-0.334-0.01
				c-0.004-0.756-0.001-1.511-0.017-2.267c-0.003-0.201,0.065-0.267,0.255-0.248c0.11,0.011,0.223,0.001,0.334,0.001
				c7.111,0,14.222,0,21.333,0c0.136,0,0.272-0.009,0.408-0.013c0.161,0.004,0.322,0.013,0.482,0.013c10.417,0,20.834,0,31.251,0
				c0.198,0,0.396,0.006,0.594,0.01L52.847,19.055z"/>
			<path fill-rule="evenodd" clip-rule="evenodd" fill="#D11342" d="M-1.795,21.556c0.111,0.003,0.224,0.01,0.334,0.01
				c17.973,0,35.945,0,53.918,0c0.124,0,0.248-0.004,0.372-0.006c0.009,0.013,0.021,0.02,0.037,0.021
				c0.001,0.836,0.002,1.671,0.002,2.506c-0.017,0-0.029,0.007-0.037,0.021c-0.111-0.001-0.224-0.005-0.335-0.005
				c-17.976,0-35.951,0-53.927,0c-0.124,0-0.247,0.014-0.37,0.021C-1.83,23.267-1.842,22.411-1.795,21.556z"/>
			<path fill-rule="evenodd" clip-rule="evenodd" fill="#FDFCFC" d="M-1.801,24.124c0.124-0.007,0.247-0.021,0.37-0.021
				c17.976,0,35.952,0,53.927,0c0.111,0,0.224,0.003,0.335,0.005c0.006,0.839,0.013,1.678,0.02,2.517l-0.002,0.002
				c-18.104,0.001-36.209,0.001-54.314,0.001c-0.111,0-0.222-0.012-0.333-0.018c-0.004-0.687-0.008-1.374-0.013-2.06
				c0-0.049,0-0.098,0-0.147C-1.808,24.309-1.805,24.216-1.801,24.124z"/>
			<path fill-rule="evenodd" clip-rule="evenodd" fill="#D11342" d="M52.834,6.353c0.003,0.021,0.013,0.037,0.032,0.047
				c0.001,0.834,0.002,1.668,0.004,2.502c-0.017,0.001-0.027,0.009-0.033,0.025c-0.111-0.005-0.222-0.013-0.333-0.013
				c-10.656,0-21.313,0-31.968,0c-0.057-0.865-0.02-1.731-0.021-2.597c0.126,0.076,0.266,0.045,0.4,0.045
				c10.405,0.001,20.809,0.001,31.214,0C52.364,6.363,52.599,6.357,52.834,6.353z"/>
			<path fill-rule="evenodd" clip-rule="evenodd" fill="#D11342" d="M52.845,19.053c-0.198-0.003-0.396-0.01-0.594-0.01
				c-10.417,0-20.834,0-31.251,0c-0.16,0-0.321-0.009-0.482-0.013c0-0.864-0.002-1.727-0.003-2.59
				c0.143,0.112,0.312,0.062,0.467,0.062c10.474,0.002,20.948,0.001,31.422,0c0.145,0,0.298,0.041,0.436-0.044l0.027,0.003
				C52.859,17.324,52.852,18.188,52.845,19.053z"/>
			<path fill-rule="evenodd" clip-rule="evenodd" fill="#D11342" d="M20.535,13.983c-0.046-0.853-0.041-1.706-0.002-2.559
				c0.099,0.003,0.198,0.008,0.297,0.008c10.535,0.001,21.07,0.001,31.605,0c0.134,0,0.273,0.029,0.403-0.036l0.031,0.011
				c-0.001,0.855-0.003,1.711-0.004,2.567c-0.015-0.003-0.027,0.002-0.035,0.016c-0.062-0.004-0.123-0.01-0.185-0.01
				C41.942,13.98,31.239,13.981,20.535,13.983z"/>
			<path fill-rule="evenodd" clip-rule="evenodd" fill="#D11342" d="M20.532,3.846c-0.007-0.743-0.013-1.486-0.024-2.229
				c-0.002-0.16,0.065-0.225,0.221-0.216c0.111,0.006,0.224,0,0.335,0c10.427,0,20.854,0,31.281,0c0.595,0,0.515-0.055,0.519,0.514
				c0.005,0.645,0.005,1.289,0.007,1.933l-0.021-0.003c0,0-0.018,0.012-0.017,0.012c-0.111-0.003-0.223-0.01-0.334-0.01
				C41.844,3.847,31.188,3.847,20.532,3.846z"/>
			<path fill-rule="evenodd" clip-rule="evenodd" fill="#FDFCFC" d="M52.838,11.396c-0.13,0.064-0.269,0.036-0.403,0.036
				c-10.535,0.001-21.07,0.001-31.605,0c-0.1,0-0.198-0.005-0.297-0.008c-0.027-0.836-0.031-1.673,0.003-2.509
				c10.656,0,21.312,0,31.968,0c0.111,0,0.222,0.008,0.333,0.013C52.837,9.75,52.837,10.573,52.838,11.396z"/>
			<path fill-rule="evenodd" clip-rule="evenodd" fill="#FDFCFC" d="M20.535,13.983c10.704-0.001,21.407-0.002,32.11-0.003
				c0.062,0,0.123,0.006,0.185,0.01c0.003,0.822,0.006,1.644,0.009,2.466c-0.138,0.085-0.291,0.044-0.436,0.044
				c-10.474,0.002-20.948,0.002-31.422,0c-0.155,0-0.324,0.05-0.467-0.062C20.521,15.62,20.528,14.802,20.535,13.983z"/>
			<path fill-rule="evenodd" clip-rule="evenodd" fill="#FDFCFC" d="M20.532,3.846c10.657,0,21.312,0.001,31.968,0.001
				c0.111,0,0.223,0.006,0.334,0.01c0,0.832,0,1.664,0,2.496c-0.235,0.004-0.471,0.01-0.706,0.01
				c-10.405,0.001-20.81,0.001-31.214,0c-0.134,0-0.274,0.031-0.4-0.045C20.521,5.494,20.526,4.67,20.532,3.846z"/>
			<path fill-rule="evenodd" clip-rule="evenodd" fill="#E6ECF2" d="M7.343,1.997C7.459,2.428,7.627,2.695,8.147,2.57
				C7.733,2.807,7.625,3.103,7.857,3.523C7.525,3.211,7.232,3.144,6.9,3.52c0.105-0.393,0.203-0.751-0.35-0.916
				C7.009,2.615,7.346,2.552,7.343,1.997z"/>
			<path fill-rule="evenodd" clip-rule="evenodd" fill="#E6ECF2" d="M8.514,15.546c0.458,0.057,0.727-0.074,0.772-0.572
				c0.145,0.364,0.25,0.745,0.81,0.53c-0.373,0.267-0.578,0.533-0.336,0.947c-0.154-0.088-0.306-0.242-0.461-0.245
				c-0.145-0.002-0.292,0.157-0.554,0.315C9.028,16.053,8.943,15.758,8.514,15.546z"/>
			<path fill-rule="evenodd" clip-rule="evenodd" fill="#E6ECF2" d="M12.684,16.499c0.233-0.423,0.151-0.728-0.289-0.949
				c0.437,0.036,0.733-0.059,0.774-0.573c0.122,0.403,0.298,0.684,0.801,0.545c-0.374,0.249-0.534,0.53-0.283,0.97
				C13.334,16.12,13.022,16.137,12.684,16.499z"/>
			<path fill-rule="evenodd" clip-rule="evenodd" fill="#E6ECF2" d="M10.469,2.609c0.539-0.064,0.539-0.064,0.809-0.637
				c0.059,0.476,0.269,0.708,0.768,0.602c-0.377,0.228-0.572,0.484-0.298,0.929c-0.353-0.309-0.663-0.313-0.995,0.017
				C10.97,3.097,10.894,2.803,10.469,2.609z"/>
			<path fill-rule="evenodd" clip-rule="evenodd" fill="#E6ECF2" d="M14.341,13.688c0.444,0.051,0.732-0.055,0.782-0.571
				c0.08,0.483,0.337,0.645,0.793,0.561c-0.366,0.244-0.579,0.496-0.278,0.952c-0.359-0.297-0.667-0.418-1.002,0.03
				C14.863,14.211,14.755,13.917,14.341,13.688z"/>
			<path fill-rule="evenodd" clip-rule="evenodd" fill="#E6ECF2" d="M10.738,14.641c0.254-0.435,0.145-0.729-0.299-0.958
				c0.453,0.062,0.74-0.062,0.802-0.566c0.086,0.466,0.33,0.651,0.805,0.569c-0.441,0.225-0.524,0.528-0.305,0.96
				C11.394,14.27,11.083,14.302,10.738,14.641z"/>
			<path fill-rule="evenodd" clip-rule="evenodd" fill="#E6ECF2" d="M19.009,2.021c0.063,0.498,0.34,0.614,0.791,0.565
				c-0.393,0.221-0.547,0.491-0.293,0.922c-0.334-0.263-0.639-0.378-0.975,0.017c0.143-0.401,0.17-0.732-0.318-0.93
				C18.678,2.649,18.938,2.49,19.009,2.021z"/>
			<path fill-rule="evenodd" clip-rule="evenodd" fill="#E6ECF2" d="M-1.163,2.616c0.518-0.075,0.518-0.075,0.8-0.632
				c0.056,0.458,0.245,0.706,0.755,0.582C0,2.802-0.143,3.087,0.096,3.525c-0.332-0.318-0.625-0.383-0.958-0.008
				C-0.713,3.111-0.733,2.796-1.163,2.616z"/>
			<path fill-rule="evenodd" clip-rule="evenodd" fill="#E6ECF2" d="M15.909,2.592c-0.484,0.205-0.448,0.53-0.301,0.929
				c-0.345-0.363-0.647-0.312-0.975,0.013c0.155-0.397,0.223-0.745-0.316-0.94c0.471,0.042,0.75-0.088,0.797-0.587
				C15.225,2.426,15.409,2.691,15.909,2.592z"/>
			<path fill-rule="evenodd" clip-rule="evenodd" fill="#E6ECF2" d="M3.991,3.52C3.646,3.226,3.34,3.142,3.003,3.525
				C3.161,3.114,3.187,2.783,2.674,2.59C3.18,2.669,3.396,2.449,3.482,2.013C3.594,2.4,3.727,2.724,4.271,2.555
				C3.883,2.812,3.714,3.087,3.991,3.52z"/>
			<path fill-rule="evenodd" clip-rule="evenodd" fill="#E6ECF2" d="M0.737,15.545c0.56,0.133,0.696-0.201,0.801-0.609
				c0.208,0.533,0.208,0.533,0.833,0.637c-0.44,0.19-0.574,0.466-0.33,0.902c-0.335-0.289-0.63-0.396-0.961,0.001
				C1.212,16.07,1.25,15.73,0.737,15.545z"/>
			<path fill-rule="evenodd" clip-rule="evenodd" fill="#E6ECF2" d="M4.635,15.542c0.519,0.11,0.699-0.158,0.768-0.592
				c0.27,0.543,0.27,0.543,0.848,0.613c-0.432,0.203-0.574,0.476-0.325,0.904c-0.336-0.267-0.638-0.39-0.972,0.013
				C5.117,16.062,5.076,15.754,4.635,15.542z"/>
			<path fill-rule="evenodd" clip-rule="evenodd" fill="#E6ECF2" d="M9.265,3.853c0.309,0.534,0.309,0.534,0.866,0.603
				C9.702,4.662,9.556,4.938,9.802,5.372C9.46,5.049,9.157,5.013,8.825,5.378c0.162-0.414,0.173-0.749-0.334-0.938
				C8.98,4.503,9.233,4.335,9.265,3.853z"/>
			<path fill-rule="evenodd" clip-rule="evenodd" fill="#E6ECF2" d="M1.542,3.836c0.085,0.458,0.277,0.7,0.791,0.582
				C1.946,4.663,1.777,4.941,2.046,5.383C1.704,5.041,1.4,5.015,1.059,5.374C1.27,4.943,1.172,4.651,0.745,4.435
				C1.224,4.498,1.494,4.337,1.542,3.836z"/>
			<path fill-rule="evenodd" clip-rule="evenodd" fill="#E6ECF2" d="M19.451,14.581c-0.297-0.208-0.593-0.345-0.925,0.063
				c0.206-0.432,0.115-0.732-0.311-0.954c0.432,0.04,0.743-0.033,0.77-0.565c0.116,0.434,0.328,0.664,0.819,0.551
				c-0.472,0.209-0.424,0.558-0.358,0.913L19.451,14.581z"/>
			<path fill-rule="evenodd" clip-rule="evenodd" fill="#E6ECF2" d="M0.102,7.231c-0.336-0.319-0.638-0.379-0.974-0.003
				c0.156-0.401,0.157-0.724-0.325-0.879C-0.975,6.2-0.745,6.342-0.624,6.215c0.11-0.114,0.144-0.301,0.256-0.561
				c0.066,0.492,0.272,0.72,0.764,0.625C-0.024,6.507-0.131,6.803,0.102,7.231z"/>
			<path fill-rule="evenodd" clip-rule="evenodd" fill="#E6ECF2" d="M16.572,5.402c0.187-0.432,0.174-0.749-0.307-0.959
				c0.448,0.035,0.756-0.059,0.778-0.583c0.136,0.382,0.28,0.708,0.803,0.559c-0.374,0.245-0.535,0.519-0.28,0.951
				C17.219,5.058,16.906,4.984,16.572,5.402z"/>
			<path fill-rule="evenodd" clip-rule="evenodd" fill="#E6ECF2" d="M0.099,18.328c-0.339-0.309-0.643-0.372-0.975,0.006
				c0.175-0.411,0.154-0.717-0.308-0.913c0.454,0.037,0.747-0.098,0.776-0.623c0.097,0.481,0.325,0.697,0.818,0.605
				C-0.026,17.61-0.124,17.896,0.099,18.328z"/>
			<path fill-rule="evenodd" clip-rule="evenodd" fill="#E6ECF2" d="M10.764,18.318c0.21-0.425,0.121-0.702-0.319-0.897
				c0.44,0.037,0.743-0.083,0.748-0.598c0.196,0.173,0.15,0.404,0.288,0.518c0.14,0.117,0.335-0.006,0.563,0.093
				c-0.394,0.189-0.555,0.454-0.301,0.892C11.394,17.988,11.091,17.997,10.764,18.318z"/>
			<path fill-rule="evenodd" clip-rule="evenodd" fill="#E6ECF2" d="M13.676,5.373c-0.34-0.31-0.645-0.41-0.975,0.026
				c0.163-0.425,0.19-0.762-0.324-0.963c0.495,0.07,0.741-0.103,0.81-0.582c0.091,0.447,0.295,0.677,0.787,0.572
				C13.561,4.655,13.462,4.949,13.676,5.373z"/>
			<path fill-rule="evenodd" clip-rule="evenodd" fill="#E6ECF2" d="M11.739,7.216c-0.351-0.351-0.654-0.328-0.992,0.026
				c0.226-0.424,0.154-0.731-0.3-0.953c0.469,0.055,0.73-0.103,0.799-0.574c0.092,0.446,0.305,0.652,0.782,0.562
				C11.684,6.515,11.466,6.769,11.739,7.216z"/>
			<path fill-rule="evenodd" clip-rule="evenodd" fill="#E6ECF2" d="M5.429,3.855c0.07,0.451,0.293,0.66,0.786,0.577
				C5.798,4.653,5.694,4.939,5.927,5.365C5.576,5.036,5.264,5.004,4.934,5.389C5.1,4.983,5.121,4.655,4.622,4.441
				C5.13,4.533,5.348,4.3,5.429,3.855z"/>
			<path fill-rule="evenodd" clip-rule="evenodd" fill="#E6ECF2" d="M0.077,14.607c-0.325-0.314-0.611-0.312-0.941,0.005
				c0.167-0.408,0.104-0.711-0.326-0.921c0.484,0.087,0.709-0.132,0.807-0.571c0.067,0.486,0.311,0.667,0.8,0.55
				C0.021,13.91-0.155,14.172,0.077,14.607z"/>
			<path fill-rule="evenodd" clip-rule="evenodd" fill="#E6ECF2" d="M7.863,14.627c-0.337-0.292-0.632-0.398-0.965,0.004
				c0.145-0.415,0.132-0.733-0.338-0.931c0.481,0.061,0.746-0.111,0.799-0.6c0.095,0.436,0.277,0.704,0.798,0.573
				C7.767,13.912,7.597,14.187,7.863,14.627z"/>
			<path fill-rule="evenodd" clip-rule="evenodd" fill="#E6ECF2" d="M13.672,9.07c-0.345-0.322-0.647-0.377-0.982,0.036
				c0.218-0.435,0.151-0.741-0.246-0.972c0.173-0.02,0.383,0.014,0.51-0.074c0.117-0.081,0.145-0.291,0.271-0.575
				c0.044,0.533,0.271,0.735,0.751,0.648C13.559,8.365,13.46,8.655,13.672,9.07z"/>
			<path fill-rule="evenodd" clip-rule="evenodd" fill="#E6ECF2" d="M19.505,7.223c-0.334-0.282-0.638-0.425-0.977,0.026
				c0.146-0.414,0.179-0.746-0.314-0.94c0.431,0.004,0.749-0.083,0.776-0.602c0.106,0.429,0.312,0.666,0.799,0.583
				C19.376,6.522,19.271,6.811,19.505,7.223z"/>
			<path fill-rule="evenodd" clip-rule="evenodd" fill="#E6ECF2" d="M15.911,6.293c-0.473,0.216-0.47,0.536-0.285,0.944
				c-0.343-0.33-0.656-0.395-1,0.009c0.222-0.428,0.154-0.726-0.278-0.942c0.426,0.003,0.744-0.064,0.761-0.591
				C15.227,6.125,15.414,6.388,15.911,6.293z"/>
			<path fill-rule="evenodd" clip-rule="evenodd" fill="#E6ECF2" d="M15.132,9.426c0.059,0.51,0.335,0.625,0.786,0.555
				c-0.355,0.235-0.575,0.488-0.285,0.938c-0.353-0.278-0.67-0.404-1.003,0.044c0.224-0.444,0.144-0.748-0.299-0.973
				C14.791,10.052,15.061,9.909,15.132,9.426z"/>
			<path fill-rule="evenodd" clip-rule="evenodd" fill="#E6ECF2" d="M18.515,10.924c0.213-0.417,0.153-0.706-0.286-0.913
				c0.42,0.001,0.755-0.055,0.756-0.609c0.12,0.45,0.323,0.691,0.816,0.572c-0.397,0.236-0.533,0.526-0.299,0.96
				C19.159,10.593,18.856,10.572,18.515,10.924z"/>
			<path fill-rule="evenodd" clip-rule="evenodd" fill="#E6ECF2" d="M19.81,17.4c-0.426,0.214-0.538,0.496-0.317,0.926
				c-0.333-0.299-0.638-0.406-0.973,0.033c0.179-0.432,0.149-0.742-0.298-0.939c0.45,0.036,0.745-0.083,0.763-0.621
				C19.086,17.269,19.309,17.502,19.81,17.4z"/>
			<path fill-rule="evenodd" clip-rule="evenodd" fill="#E6ECF2" d="M9.807,9.15c-0.349-0.408-0.652-0.423-0.99-0.062
				c0.226-0.428,0.12-0.725-0.309-0.955C8.994,8.215,9.23,8.022,9.266,7.54c0.306,0.559,0.306,0.559,0.782,0.588
				c-0.045,0.211-0.334,0.217-0.362,0.38C9.657,8.671,9.745,8.855,9.807,9.15z"/>
			<path fill-rule="evenodd" clip-rule="evenodd" fill="#E6ECF2" d="M6.58,6.293C7.083,6.38,7.272,6.142,7.358,5.709
				c0.099,0.412,0.274,0.683,0.783,0.563C7.779,6.517,7.58,6.786,7.87,7.229c-0.352-0.361-0.66-0.35-0.999,0.002
				C7.068,6.816,7.039,6.507,6.58,6.293z"/>
			<path fill-rule="evenodd" clip-rule="evenodd" fill="#E6ECF2" d="M17.037,7.596c0.244,0.478,0.244,0.478,0.862,0.564
				c-0.457,0.202-0.569,0.487-0.329,0.908c-0.343-0.269-0.66-0.413-0.992,0.042c0.146-0.416,0.209-0.754-0.305-0.955
				C16.706,8.166,17.024,8.086,17.037,7.596z"/>
			<path fill-rule="evenodd" clip-rule="evenodd" fill="#E6ECF2" d="M17.854,15.522c-0.39,0.246-0.528,0.504-0.345,0.909
				c-0.151-0.082-0.304-0.229-0.453-0.226c-0.145,0.003-0.288,0.16-0.473,0.275c0.044-0.219,0.141-0.412,0.096-0.561
				c-0.042-0.138-0.236-0.229-0.468-0.434c0.504,0.103,0.802,0.007,0.825-0.505C17.2,15.329,17.294,15.735,17.854,15.522z"/>
			<path fill-rule="evenodd" clip-rule="evenodd" fill="#E6ECF2" d="M5.458,7.519c0.057,0.485,0.25,0.718,0.73,0.561
				C6.11,8.325,5.861,8.344,5.8,8.503c-0.066,0.176,0.109,0.34,0.104,0.6c-0.317-0.319-0.62-0.415-0.958-0.02
				c0.197-0.427,0.109-0.727-0.357-0.917C5.199,8.068,5.199,8.068,5.458,7.519z"/>
			<path fill-rule="evenodd" clip-rule="evenodd" fill="#E6ECF2" d="M13.713,12.753c-0.528-0.271-0.528-0.271-1.077,0.061
				c0.263-0.436,0.213-0.747-0.24-0.966c0.476,0.08,0.719-0.104,0.784-0.571c0.12,0.42,0.29,0.707,0.8,0.548
				C13.616,12.077,13.382,12.323,13.713,12.753z"/>
			<path fill-rule="evenodd" clip-rule="evenodd" fill="#E6ECF2" d="M1.11,9.043c0.152-0.386,0.074-0.682-0.355-0.895
				c0.442,0.022,0.756-0.064,0.776-0.596c0.11,0.442,0.302,0.69,0.808,0.564C1.932,8.355,1.794,8.642,2.002,9.053
				C1.851,8.962,1.701,8.804,1.547,8.8C1.403,8.795,1.256,8.956,1.11,9.043z"/>
			<path fill-rule="evenodd" clip-rule="evenodd" fill="#E6ECF2" d="M-1.209,9.992c0.49,0.077,0.735-0.103,0.808-0.577
				c0.098,0.443,0.298,0.678,0.792,0.56c-0.366,0.239-0.552,0.503-0.286,0.942c-0.334-0.266-0.637-0.401-0.976,0.007
				C-0.679,10.49-0.746,10.188-1.209,9.992z"/>
			<path fill-rule="evenodd" clip-rule="evenodd" fill="#E6ECF2" d="M3.476,5.7c0.083,0.472,0.31,0.658,0.774,0.545
				C4.161,6.481,3.887,6.5,3.86,6.663c-0.027,0.165,0.063,0.348,0.123,0.61c-0.339-0.328-0.643-0.479-0.98-0.027
				C3.17,6.822,3.162,6.504,2.697,6.309C3.146,6.317,3.453,6.213,3.476,5.7z"/>
			<path fill-rule="evenodd" clip-rule="evenodd" fill="#E6ECF2" d="M6.871,18.331c0.189-0.411,0.173-0.715-0.298-0.903
				c0.435,0.011,0.755-0.089,0.77-0.621c0.114,0.437,0.297,0.717,0.818,0.59c-0.431,0.221-0.548,0.506-0.297,0.943
				C7.519,17.971,7.212,18.007,6.871,18.331z"/>
			<path fill-rule="evenodd" clip-rule="evenodd" fill="#E6ECF2" d="M4.293,13.7c-0.474,0.202-0.513,0.508-0.316,0.927
				c-0.33-0.28-0.625-0.395-0.959,0.001c0.148-0.413,0.125-0.728-0.335-0.925c0.46,0.046,0.75-0.088,0.8-0.591
				C3.542,13.609,3.826,13.758,4.293,13.7z"/>
			<path fill-rule="evenodd" clip-rule="evenodd" fill="#E6ECF2" d="M1.576,11.2c0.056,0.487,0.229,0.754,0.739,0.634
				c-0.338,0.247-0.585,0.49-0.248,0.938c-0.359-0.279-0.665-0.381-0.995,0.01c0.113-0.395,0.217-0.754-0.372-0.862
				c0.254-0.158,0.496-0.003,0.621-0.144C1.435,11.648,1.471,11.451,1.576,11.2z"/>
			<path fill-rule="evenodd" clip-rule="evenodd" fill="#E6ECF2" d="M2.632,9.917c0.564,0.171,0.771-0.06,0.848-0.511
				c0.113,0.401,0.24,0.743,0.805,0.563c-0.407,0.253-0.568,0.521-0.291,0.954c-0.348-0.313-0.658-0.359-0.98,0.048
				C3.101,10.359,3.101,10.359,2.632,9.917z"/>
			<path fill-rule="evenodd" clip-rule="evenodd" fill="#E6ECF2" d="M14.646,18.327c0.2-0.421,0.137-0.714-0.322-0.922
				c0.483,0.083,0.734-0.104,0.808-0.595c0.091,0.457,0.285,0.706,0.799,0.585c-0.451,0.213-0.527,0.512-0.302,0.939
				C15.287,18.019,14.982,17.968,14.646,18.327z"/>
			<path fill-rule="evenodd" clip-rule="evenodd" fill="#E6ECF2" d="M10.751,10.925c0.252-0.432,0.105-0.706-0.295-0.924
				c0.426,0.016,0.763-0.039,0.773-0.601c0.104,0.458,0.316,0.686,0.806,0.585c-0.406,0.229-0.528,0.512-0.294,0.942
				C11.394,10.585,11.09,10.59,10.751,10.925z"/>
			<path fill-rule="evenodd" clip-rule="evenodd" fill="#E6ECF2" d="M16.292,11.843c0.555-0.031,0.555-0.031,0.789-0.61
				c0.098,0.436,0.255,0.745,0.774,0.598c-0.429,0.228-0.503,0.533-0.288,0.958c-0.339-0.366-0.653-0.344-0.984,0.04
				C16.69,12.207,16.69,12.207,16.292,11.843z"/>
			<path fill-rule="evenodd" clip-rule="evenodd" fill="#E6ECF2" d="M2.734,17.433c0.472,0.077,0.667-0.171,0.743-0.622
				c0.096,0.44,0.3,0.699,0.813,0.594c-0.493,0.198-0.496,0.513-0.308,0.923c-0.337-0.277-0.642-0.432-0.934,0.043
				c-0.071-0.273,0.142-0.444,0.056-0.604C3.03,17.631,2.861,17.543,2.734,17.433z"/>
			<path fill-rule="evenodd" clip-rule="evenodd" fill="#E6ECF2" d="M6.875,10.908c0.271-0.448,0.053-0.691-0.292-0.929
				C7.074,10.084,7.28,9.852,7.362,9.41c0.092,0.43,0.285,0.682,0.795,0.569C7.74,10.21,7.613,10.5,7.863,10.931
				C7.526,10.604,7.224,10.566,6.875,10.908z"/>
			<path fill-rule="evenodd" clip-rule="evenodd" fill="#E6ECF2" d="M4.634,11.854c0.479,0.081,0.708-0.119,0.781-0.583
				c0.126,0.384,0.248,0.742,0.809,0.554c-0.428,0.237-0.527,0.523-0.298,0.943c-0.34-0.282-0.643-0.367-0.974,0.019
				C5.09,12.385,5.122,12.045,4.634,11.854z"/>
			<path fill-rule="evenodd" clip-rule="evenodd" fill="#E6ECF2" d="M9.304,11.268c0.08,0.455,0.301,0.674,0.774,0.567
				c-0.219,0.222-0.536,0.353-0.369,0.725c0.027,0.06-0.074,0.124-0.12,0.076C9.283,12.32,9.087,12.66,8.772,12.79
				c0.215-0.407,0.215-0.728-0.261-0.933C8.987,11.923,9.226,11.729,9.304,11.268z"/>
			<path fill-rule="evenodd" clip-rule="evenodd" fill="#E6ECF2" d="M19.446,14.589c0.016,0,0.032-0.001,0.048-0.001
				c0,0.01-0.001,0.021-0.002,0.031c-0.014-0.013-0.027-0.025-0.041-0.039L19.446,14.589z"/>
			<path fill-rule="evenodd" clip-rule="evenodd" fill="#FDFCFC" d="M-1.81,31.543c-0.001-0.05-0.001-0.101-0.002-0.151
				c0.004-0.735,0.009-1.471,0.013-2.206c0.136-0.006,0.272-0.017,0.408-0.017c17.941-0.001,35.883-0.001,53.824-0.001
				c0.137,0,0.272,0.004,0.409,0.007l0.001,0.004c0.002,0.819,0.003,1.638,0.005,2.457l-0.004,0.022
				c-0.143,0.064-0.293,0.034-0.44,0.034c-17.895,0.001-35.791,0.001-53.686,0c-0.173,0-0.346-0.015-0.519-0.022
				C-1.803,31.627-1.806,31.585-1.81,31.543z"/>
			<path fill-rule="evenodd" clip-rule="evenodd" fill="#D11342" d="M-1.8,31.67c0.173,0.007,0.346,0.022,0.519,0.022
				c17.895,0.001,35.791,0.001,53.686,0c0.147,0,0.297,0.03,0.44-0.034c0.021,0.829,0.059,1.658-0.02,2.487l-0.014,0.008
				c-16.227,0-32.453-0.002-48.68-0.002c-1.86,0-3.719-0.006-5.579,0.006c-0.286,0.002-0.391-0.068-0.379-0.369
				C-1.801,33.082-1.807,32.375-1.8,31.67z"/>
			<path fill-rule="evenodd" clip-rule="evenodd" fill="#D11342" d="M52.843,29.175c-0.137-0.002-0.272-0.007-0.409-0.007
				c-17.941,0-35.883,0-53.824,0.001c-0.136,0-0.272,0.011-0.408,0.017c-0.036-0.859-0.035-1.718,0-2.577
				c0.111,0.006,0.222,0.018,0.333,0.018c18.104,0,36.209,0,54.314-0.001C52.871,27.476,52.883,28.325,52.843,29.175z"/>
		</g>
	</g>
	<g>
		<defs>
			<circle id="SVGID_15_" cx="52.783" cy="17.595" r="15.917"/>
		</defs>
		<clipPath id="SVGID_4_">
			<use xlink:href="#SVGID_15_"  overflow="visible"/>
		</clipPath>
		<g clip-path="url(#SVGID_4_)">
			<path fill-rule="evenodd" clip-rule="evenodd" fill="#D9251D" d="M52.89,34.232c-8.262,0-16.523,0-24.785,0.002
				c-0.093,0-0.114-0.021-0.114-0.114c0.002-10.993,0.002-21.986,0-32.98c0-0.093,0.021-0.114,0.114-0.114
				c16.531,0.002,33.063,0.002,49.594,0c0.093,0,0.115,0.021,0.115,0.114c-0.003,10.994-0.003,21.987,0,32.98
				c0,0.093-0.021,0.114-0.115,0.114C69.429,34.231,61.159,34.232,52.89,34.232z M50.659,14.528
				c-0.008,0.007-0.017,0.013-0.024,0.02c-0.054,0.001-0.108,0.003-0.162,0.003c-2.288,0-4.575,0-6.862,0c-0.048,0-0.096,0-0.144,0
				c0.212,0.183,0.432,0.342,0.651,0.502c1.689,1.227,3.378,2.454,5.067,3.678c0.072,0.052,0.093,0.097,0.063,0.185
				c-0.095,0.269-0.178,0.542-0.266,0.813c-0.215,0.662-0.43,1.323-0.645,1.984c-0.269,0.828-0.539,1.654-0.808,2.481
				c-0.158,0.487-0.316,0.975-0.476,1.465c0.049,0.004,0.073-0.029,0.101-0.05c1.877-1.363,3.753-2.727,5.627-4.094
				c0.097-0.071,0.154-0.062,0.245,0.005c1.875,1.367,3.751,2.73,5.627,4.093c0.027,0.019,0.05,0.055,0.094,0.045
				c-0.003-0.014-0.004-0.022-0.006-0.029c-0.723-2.223-1.446-4.446-2.173-6.668c-0.038-0.116-0.026-0.179,0.08-0.255
				c1.88-1.358,3.756-2.722,5.633-4.085c0.021-0.015,0.054-0.023,0.056-0.071c-0.046,0-0.09,0-0.135,0c-1.274,0-2.549,0-3.823,0
				c-1.042,0-2.084,0-3.125,0c-0.069,0-0.117,0-0.146-0.089c-0.718-2.225-1.44-4.448-2.164-6.671
				c-0.009-0.03-0.001-0.078-0.055-0.089c-0.005,0.017-0.01,0.032-0.015,0.047c-0.489,1.506-0.976,3.012-1.468,4.517
				C51.159,13.022,50.929,13.782,50.659,14.528z"/>
		</g>
	</g>
</g>
<g id="Imagenes">
</g>
<g id="Cintillos">
</g>
<g id="Botones">
</g>
<g id="TXT">
</g>
<g id="Logo">
</g>
<g id="Guia">
</g>
</svg>
