<?xml version="1.0" encoding="utf-8"?>
<!-- Generator: Adobe Illustrator 16.0.0, SVG Export Plug-In . SVG Version: 6.00 Build 0)  -->
<!DOCTYPE svg PUBLIC "-//W3C//DTD SVG 1.1//EN" "http://www.w3.org/Graphics/SVG/1.1/DTD/svg11.dtd">
<svg version="1.1" xmlns="http://www.w3.org/2000/svg" xmlns:xlink="http://www.w3.org/1999/xlink" x="0px" y="0px"
	 width="34.417px" height="34.25px" viewBox="0 0 34.417 34.25" enable-background="new 0 0 34.417 34.25" xml:space="preserve">
<g id="Soporte">
</g>
<g id="Publicidad">
</g>
<g id="Iconos">
	<g>
		<defs>
			<circle id="SVGID_15_" cx="-18.217" cy="16.595" r="15.917"/>
		</defs>
		<clipPath id="SVGID_2_">
			<use xlink:href="#SVGID_15_"  overflow="visible"/>
		</clipPath>
		<g clip-path="url(#SVGID_2_)">
			<path fill-rule="evenodd" clip-rule="evenodd" fill="#D9251D" d="M-18.11,33.232c-8.262,0-16.523,0-24.785,0.002
				c-0.093,0-0.114-0.021-0.114-0.114c0.002-10.993,0.002-21.986,0-32.98c0-0.093,0.021-0.114,0.114-0.114
				c16.531,0.002,33.063,0.002,49.594,0c0.093,0,0.115,0.021,0.115,0.114c-0.003,10.994-0.003,21.987,0,32.98
				c0,0.093-0.021,0.114-0.115,0.114C-1.571,33.231-9.841,33.232-18.11,33.232z M-20.341,13.528
				c-0.008,0.007-0.017,0.013-0.024,0.02c-0.054,0.001-0.108,0.003-0.162,0.003c-2.288,0-4.575,0-6.862,0c-0.048,0-0.096,0-0.144,0
				c0.212,0.183,0.432,0.342,0.651,0.502c1.689,1.227,3.378,2.454,5.067,3.678c0.072,0.052,0.093,0.097,0.063,0.185
				c-0.095,0.269-0.178,0.542-0.266,0.813c-0.215,0.662-0.43,1.323-0.645,1.984c-0.269,0.828-0.539,1.654-0.808,2.481
				c-0.158,0.487-0.316,0.975-0.476,1.465c0.049,0.004,0.073-0.029,0.101-0.05c1.877-1.363,3.753-2.727,5.627-4.094
				c0.097-0.071,0.154-0.062,0.245,0.005c1.875,1.367,3.751,2.73,5.627,4.093c0.027,0.019,0.05,0.055,0.094,0.045
				c-0.003-0.014-0.004-0.022-0.006-0.029c-0.723-2.223-1.446-4.446-2.173-6.668c-0.038-0.116-0.026-0.179,0.08-0.255
				c1.88-1.358,3.756-2.722,5.633-4.085c0.021-0.015,0.054-0.023,0.056-0.071c-0.046,0-0.09,0-0.135,0c-1.274,0-2.549,0-3.823,0
				c-1.042,0-2.084,0-3.125,0c-0.069,0-0.117,0-0.146-0.089c-0.718-2.225-1.44-4.448-2.164-6.671
				c-0.009-0.03-0.001-0.078-0.055-0.089c-0.005,0.017-0.01,0.032-0.015,0.047c-0.489,1.506-0.976,3.012-1.468,4.517
				C-19.841,12.022-20.071,12.782-20.341,13.528z"/>
		</g>
	</g>
	<g>
		<defs>
			<circle id="SVGID_17_" cx="17.783" cy="16.595" r="15.917"/>
		</defs>
		<clipPath id="SVGID_4_">
			<use xlink:href="#SVGID_17_"  overflow="visible"/>
		</clipPath>
		<g clip-path="url(#SVGID_4_)">
			<path fill-rule="evenodd" clip-rule="evenodd" fill="#FECA00" d="M42.035,0.483c0,3.588,0,7.176,0,10.764
				c-0.018,0.004-0.036,0.009-0.053,0.013c-0.102-0.002-0.203-0.006-0.304-0.006c-15.98,0-31.96,0-47.939,0
				c-0.093,0-0.186-0.002-0.279-0.003c-0.005-0.109-0.013-0.219-0.013-0.329c-0.001-3.359-0.001-6.718,0-10.077
				c0-0.417-0.055-0.363,0.362-0.363c15.982-0.001,31.964-0.001,47.948,0C41.849,0.481,41.941,0.482,42.035,0.483z"/>
			<path fill-rule="evenodd" clip-rule="evenodd" fill="#DB0000" d="M42.035,22.062c0,3.512-0.002,7.024,0.004,10.536
				c0.001,0.19-0.043,0.233-0.233,0.233c-16.121-0.005-32.241-0.005-48.361-0.005c0-3.484-0.001-6.968-0.002-10.453
				c0-0.102-0.006-0.203-0.009-0.304c0.01-0.003,0.017-0.009,0.022-0.018c16.074,0,32.149,0,48.223,0.001
				C41.798,22.052,41.916,22.058,42.035,22.062z"/>
			<path fill-rule="evenodd" clip-rule="evenodd" fill="#0100B9" d="M42.035,22.062c-0.119-0.003-0.237-0.01-0.355-0.01
				C25.605,22.05,9.531,22.05-6.543,22.05c-0.004-0.109-0.014-0.219-0.014-0.329c-0.001-3.486-0.001-6.972-0.001-10.458h0.013
				l0.005-0.012c0.093,0,0.186,0.003,0.279,0.003c15.979,0,31.959,0,47.939,0c0.101,0,0.203,0.004,0.304,0.006
				c0.018,0.013,0.035,0.025,0.053,0.039C42.035,14.886,42.035,18.474,42.035,22.062z M8.466,20.679
				c-0.101-0.294-0.168-0.528-0.26-0.75c-0.055-0.132-0.024-0.194,0.09-0.263c0.221-0.134,0.433-0.283,0.648-0.427
				c-0.265-0.05-0.524-0.062-0.781-0.045c-0.179,0.012-0.253-0.06-0.3-0.223c-0.063-0.217-0.152-0.427-0.25-0.694
				c-0.105,0.287-0.194,0.513-0.27,0.743c-0.04,0.12-0.1,0.173-0.234,0.168c-0.273-0.011-0.548-0.003-0.821-0.003
				c0.208,0.193,0.425,0.347,0.65,0.487c0.107,0.066,0.126,0.125,0.076,0.244c-0.096,0.229-0.168,0.47-0.269,0.76
				c0.262-0.169,0.483-0.302,0.692-0.451c0.119-0.083,0.206-0.1,0.332-0.004C7.97,20.373,8.189,20.499,8.466,20.679z M28.791,20.679
				c-0.097-0.27-0.16-0.478-0.247-0.676c-0.075-0.172-0.063-0.283,0.119-0.381c0.208-0.113,0.397-0.259,0.595-0.392
				c-0.287-0.045-0.554-0.053-0.821-0.042c-0.143,0.006-0.211-0.043-0.254-0.177c-0.074-0.231-0.167-0.457-0.269-0.731
				c-0.095,0.259-0.188,0.452-0.234,0.655c-0.051,0.218-0.169,0.273-0.375,0.259c-0.236-0.016-0.474-0.004-0.711-0.004
				c0.208,0.193,0.413,0.34,0.629,0.468c0.124,0.074,0.159,0.14,0.099,0.282c-0.094,0.221-0.159,0.454-0.256,0.738
				c0.278-0.181,0.507-0.321,0.726-0.476c0.1-0.071,0.168-0.067,0.267,0.001C28.279,20.357,28.509,20.497,28.791,20.679z
				 M23.405,13.963c-0.007-0.015-0.014-0.03-0.021-0.044c-0.193,0-0.389-0.021-0.578,0.004c-0.3,0.04-0.466-0.055-0.533-0.364
				c-0.037-0.172-0.095-0.353-0.213-0.522c-0.086,0.242-0.172,0.46-0.241,0.683c-0.046,0.149-0.116,0.219-0.284,0.208
				c-0.257-0.016-0.516-0.004-0.774-0.004c0.195,0.184,0.396,0.331,0.61,0.456c0.131,0.078,0.173,0.148,0.108,0.3
				c-0.093,0.212-0.156,0.438-0.255,0.727c0.282-0.184,0.509-0.322,0.725-0.476c0.098-0.069,0.166-0.071,0.266-0.001
				c0.218,0.153,0.447,0.291,0.728,0.472c-0.098-0.279-0.162-0.503-0.255-0.714c-0.071-0.16-0.026-0.238,0.113-0.32
				C23.007,14.244,23.203,14.099,23.405,13.963z M25.809,15.121c-0.069,0.187-0.124,0.336-0.178,0.485
				c-0.151,0.417-0.15,0.417-0.585,0.419c-0.187,0.001-0.374,0-0.561,0c0.212,0.197,0.423,0.35,0.648,0.481
				c0.124,0.072,0.131,0.146,0.086,0.264c-0.088,0.232-0.166,0.469-0.264,0.748c0.2-0.13,0.369-0.215,0.507-0.336
				c0.239-0.21,0.452-0.225,0.698-0.009c0.139,0.122,0.311,0.206,0.519,0.339c-0.099-0.281-0.168-0.505-0.259-0.721
				c-0.06-0.141-0.041-0.225,0.095-0.305c0.218-0.13,0.424-0.278,0.636-0.419c-0.282-0.045-0.542-0.053-0.802-0.042
				c-0.146,0.006-0.228-0.029-0.272-0.183C26.008,15.61,25.91,15.387,25.809,15.121z M18.628,14.919
				c-0.1-0.286-0.163-0.512-0.258-0.723c-0.068-0.152-0.02-0.223,0.106-0.301c0.215-0.133,0.42-0.281,0.687-0.461
				c-0.289,0-0.503-0.026-0.709,0.005c-0.297,0.046-0.422-0.086-0.487-0.351c-0.043-0.174-0.123-0.34-0.206-0.562
				c-0.102,0.282-0.19,0.506-0.26,0.735c-0.042,0.136-0.109,0.183-0.252,0.177c-0.271-0.012-0.541-0.003-0.811-0.003
				c0.212,0.198,0.425,0.347,0.647,0.482c0.116,0.071,0.132,0.135,0.086,0.266c-0.081,0.225-0.189,0.445-0.224,0.723
				c0.238-0.156,0.457-0.284,0.658-0.435c0.125-0.094,0.215-0.081,0.335,0.005C18.143,14.62,18.358,14.747,18.628,14.919z
				 M10.58,17.521c-0.104-0.292-0.181-0.522-0.269-0.75c-0.044-0.118-0.036-0.193,0.087-0.265c0.226-0.132,0.438-0.288,0.656-0.434
				c-0.237-0.047-0.456-0.067-0.67-0.042c-0.252,0.029-0.386-0.05-0.444-0.305c-0.044-0.194-0.134-0.377-0.219-0.605
				c-0.073,0.197-0.131,0.354-0.188,0.51c-0.144,0.392-0.144,0.392-0.555,0.393c-0.196,0-0.393,0-0.662,0
				c0.286,0.192,0.496,0.346,0.72,0.48c0.122,0.073,0.13,0.147,0.083,0.266c-0.089,0.229-0.167,0.462-0.267,0.744
				c0.265-0.17,0.484-0.298,0.688-0.448c0.133-0.098,0.229-0.085,0.355,0.007C10.101,17.221,10.318,17.351,10.58,17.521z
				 M12.057,13.918c0.262,0.174,0.45,0.318,0.654,0.431c0.178,0.099,0.198,0.209,0.121,0.385c-0.087,0.196-0.148,0.404-0.243,0.669
				c0.277-0.177,0.501-0.308,0.71-0.46c0.117-0.086,0.197-0.077,0.31,0.004c0.207,0.15,0.426,0.282,0.704,0.464
				c-0.101-0.287-0.166-0.502-0.252-0.71c-0.061-0.149-0.048-0.238,0.105-0.323c0.215-0.12,0.414-0.271,0.619-0.409
				c-0.284-0.044-0.553-0.052-0.821-0.041c-0.133,0.004-0.195-0.042-0.235-0.168c-0.074-0.235-0.165-0.464-0.27-0.753
				c-0.104,0.283-0.194,0.508-0.269,0.737c-0.043,0.132-0.111,0.185-0.256,0.178C12.667,13.909,12.4,13.918,12.057,13.918z"/>
			<path fill-rule="evenodd" clip-rule="evenodd" fill="#FEFCDF" d="M42.035,0.483c-0.093-0.001-0.186-0.002-0.279-0.002
				c-15.983,0-31.965,0-47.948,0c-0.417,0-0.362-0.054-0.362,0.363c-0.001,3.359-0.001,6.718,0,10.077
				c0,0.11,0.008,0.22,0.013,0.329l-0.005,0.012h-0.013c-0.015-0.007-0.03-0.013-0.047-0.016c0-3.554,0.002-7.108-0.005-10.662
				c0-0.174,0.034-0.208,0.208-0.208c16.078,0.005,32.156,0.004,48.234,0.01C41.895,0.387,42.05,0.282,42.035,0.483z"/>
			<path fill-rule="evenodd" clip-rule="evenodd" fill="#F7F7FC" d="M8.466,20.679c-0.276-0.18-0.496-0.307-0.695-0.458
				c-0.126-0.096-0.213-0.08-0.332,0.004c-0.209,0.149-0.43,0.282-0.692,0.451c0.101-0.29,0.173-0.53,0.269-0.76
				c0.05-0.119,0.031-0.178-0.076-0.244c-0.226-0.14-0.442-0.294-0.65-0.487c0.273,0,0.548-0.008,0.821,0.003
				c0.135,0.005,0.194-0.048,0.234-0.168c0.076-0.23,0.165-0.456,0.27-0.743c0.098,0.268,0.187,0.478,0.25,0.694
				c0.047,0.163,0.121,0.234,0.3,0.223c0.257-0.017,0.517-0.004,0.781,0.045c-0.216,0.144-0.427,0.293-0.648,0.427
				c-0.114,0.069-0.146,0.131-0.09,0.263C8.298,20.151,8.365,20.385,8.466,20.679z"/>
			<path fill-rule="evenodd" clip-rule="evenodd" fill="#F7F7FC" d="M28.791,20.679c-0.281-0.182-0.511-0.322-0.731-0.476
				c-0.098-0.069-0.167-0.073-0.267-0.001c-0.218,0.155-0.447,0.295-0.726,0.476c0.097-0.284,0.162-0.517,0.256-0.738
				c0.061-0.142,0.025-0.208-0.099-0.282c-0.217-0.128-0.422-0.275-0.629-0.468c0.237,0,0.475-0.012,0.711,0.004
				c0.206,0.014,0.324-0.041,0.375-0.259c0.047-0.203,0.139-0.396,0.234-0.655c0.102,0.274,0.194,0.5,0.269,0.731
				c0.043,0.134,0.111,0.184,0.254,0.177c0.267-0.011,0.534-0.003,0.821,0.042c-0.198,0.132-0.387,0.279-0.595,0.392
				c-0.183,0.098-0.194,0.208-0.119,0.381C28.631,20.201,28.694,20.409,28.791,20.679z"/>
			<path fill-rule="evenodd" clip-rule="evenodd" fill="#F7F7FC" d="M23.405,13.963c-0.202,0.136-0.397,0.281-0.606,0.404
				c-0.14,0.083-0.185,0.16-0.113,0.32c0.094,0.211,0.158,0.435,0.255,0.714c-0.281-0.181-0.51-0.318-0.728-0.472
				c-0.1-0.07-0.168-0.067-0.266,0.001c-0.216,0.154-0.442,0.292-0.725,0.476c0.099-0.289,0.162-0.514,0.255-0.727
				c0.065-0.152,0.023-0.223-0.108-0.3c-0.214-0.125-0.415-0.272-0.61-0.456c0.258,0,0.518-0.012,0.774,0.004
				c0.168,0.01,0.238-0.06,0.284-0.208c0.069-0.223,0.155-0.441,0.241-0.683c0.118,0.169,0.176,0.35,0.213,0.522
				c0.067,0.31,0.233,0.404,0.533,0.364c0.189-0.025,0.385-0.004,0.578-0.004C23.391,13.933,23.397,13.948,23.405,13.963z"/>
			<path fill-rule="evenodd" clip-rule="evenodd" fill="#F7F7FC" d="M25.809,15.121c0.101,0.266,0.199,0.489,0.268,0.721
				c0.045,0.154,0.126,0.189,0.272,0.183c0.259-0.011,0.52-0.003,0.802,0.042c-0.211,0.141-0.418,0.289-0.636,0.419
				c-0.136,0.081-0.154,0.164-0.095,0.305c0.091,0.216,0.16,0.44,0.259,0.721c-0.208-0.133-0.38-0.217-0.519-0.339
				c-0.246-0.216-0.459-0.202-0.698,0.009c-0.138,0.121-0.308,0.206-0.507,0.336c0.098-0.279,0.175-0.516,0.264-0.748
				c0.045-0.119,0.037-0.192-0.086-0.264c-0.225-0.131-0.436-0.285-0.648-0.481c0.187,0,0.374,0.001,0.561,0
				c0.436-0.001,0.435-0.002,0.585-0.419C25.686,15.457,25.74,15.308,25.809,15.121z"/>
			<path fill-rule="evenodd" clip-rule="evenodd" fill="#F7F7FC" d="M18.628,14.919c-0.27-0.172-0.485-0.299-0.688-0.443
				c-0.12-0.085-0.21-0.099-0.335-0.005c-0.201,0.15-0.42,0.279-0.658,0.435c0.035-0.278,0.144-0.498,0.224-0.723
				c0.046-0.13,0.03-0.195-0.086-0.266c-0.223-0.135-0.436-0.284-0.647-0.482c0.27,0,0.54-0.009,0.811,0.003
				c0.143,0.006,0.21-0.041,0.252-0.177c0.07-0.229,0.158-0.453,0.26-0.735c0.083,0.222,0.163,0.387,0.206,0.562
				c0.065,0.265,0.19,0.397,0.487,0.351c0.206-0.031,0.42-0.005,0.709-0.005c-0.267,0.18-0.472,0.328-0.687,0.461
				c-0.125,0.078-0.174,0.148-0.106,0.301C18.465,14.407,18.528,14.633,18.628,14.919z"/>
			<path fill-rule="evenodd" clip-rule="evenodd" fill="#F7F7FC" d="M10.58,17.521c-0.262-0.17-0.479-0.299-0.684-0.449
				c-0.127-0.092-0.223-0.105-0.355-0.007c-0.203,0.15-0.423,0.278-0.688,0.448c0.1-0.282,0.178-0.515,0.267-0.744
				c0.046-0.119,0.038-0.193-0.083-0.266c-0.224-0.134-0.435-0.288-0.72-0.48c0.27,0,0.466,0,0.662,0c0.411,0,0.411,0,0.555-0.393
				c0.057-0.157,0.115-0.313,0.188-0.51c0.084,0.228,0.175,0.411,0.219,0.605c0.058,0.255,0.191,0.334,0.444,0.305
				c0.214-0.025,0.433-0.005,0.67,0.042c-0.218,0.146-0.431,0.302-0.656,0.434c-0.123,0.072-0.131,0.147-0.087,0.265
				C10.399,16.998,10.476,17.229,10.58,17.521z"/>
			<path fill-rule="evenodd" clip-rule="evenodd" fill="#F7F7FC" d="M12.057,13.918c0.344,0,0.611-0.009,0.877,0.003
				c0.145,0.007,0.212-0.045,0.256-0.178c0.075-0.229,0.165-0.455,0.269-0.737c0.105,0.289,0.196,0.518,0.27,0.753
				c0.04,0.125,0.103,0.172,0.235,0.168c0.269-0.011,0.538-0.003,0.821,0.041c-0.205,0.138-0.404,0.289-0.619,0.409
				C14.013,14.462,14,14.551,14.061,14.7c0.086,0.208,0.151,0.423,0.252,0.71c-0.278-0.182-0.498-0.314-0.704-0.464
				c-0.112-0.081-0.192-0.09-0.31-0.004c-0.208,0.152-0.433,0.283-0.71,0.46c0.095-0.265,0.156-0.473,0.243-0.669
				c0.077-0.175,0.057-0.286-0.121-0.385C12.507,14.236,12.318,14.092,12.057,13.918z"/>
		</g>
	</g>
</g>
<g id="Imagenes">
</g>
<g id="Cintillos">
</g>
<g id="Botones">
</g>
<g id="TXT">
</g>
<g id="Logo">
</g>
<g id="Guia">
</g>
</svg>
