<?xml version="1.0" encoding="utf-8"?>
<!-- Generator: Adobe Illustrator 16.0.0, SVG Export Plug-In . SVG Version: 6.00 Build 0)  -->
<!DOCTYPE svg PUBLIC "-//W3C//DTD SVG 1.1//EN" "http://www.w3.org/Graphics/SVG/1.1/DTD/svg11.dtd">
<svg version="1.1" xmlns="http://www.w3.org/2000/svg" xmlns:xlink="http://www.w3.org/1999/xlink" x="0px" y="0px"
	 width="34.417px" height="34.25px" viewBox="0 0 34.417 34.25" enable-background="new 0 0 34.417 34.25" xml:space="preserve">
<g id="Soporte">
</g>
<g id="Publicidad">
</g>
<g id="Iconos">
	<g>
		<defs>
			<circle id="SVGID_13_" cx="-17.217" cy="17.595" r="15.917"/>
		</defs>
		<clipPath id="SVGID_2_">
			<use xlink:href="#SVGID_13_"  overflow="visible"/>
		</clipPath>
		<g clip-path="url(#SVGID_2_)">
			<path fill-rule="evenodd" clip-rule="evenodd" fill="#042F63" d="M-36.967,1.3c7.4-0.001,14.801-0.002,22.201-0.002
				c0.049,0,0.099,0.006,0.148,0.01c0.172,0.013,0.344,0.036,0.516,0.036c10.405,0.002,20.81,0.002,31.215,0
				c0.159,0,0.319-0.022,0.478-0.034c0.129,0,0.271-0.068,0.375,0.069c-0.096,0.373-0.02,0.752-0.045,1.128
				c-0.031,0.447,0.068,0.898-0.048,1.341c-0.002-0.644-0.002-1.289-0.007-1.933c-0.004-0.569,0.076-0.514-0.519-0.514
				c-10.427-0.001-20.854,0-31.281,0c-0.111,0-0.224,0.006-0.335,0c-0.156-0.009-0.223,0.056-0.221,0.216
				c0.011,0.743,0.017,1.486,0.024,2.229c-0.005,0.824-0.011,1.648-0.017,2.473c0.002,0.865-0.035,1.731,0.021,2.596
				c-0.034,0.836-0.03,1.673-0.002,2.509c-0.039,0.853-0.044,1.706,0.002,2.559c-0.007,0.819-0.014,1.637-0.021,2.457
				c0.001,0.863,0.003,1.726,0.003,2.59c-0.136,0.004-0.272,0.013-0.408,0.013c-7.111,0-14.222,0-21.333,0
				c-0.111,0-0.224,0.009-0.334-0.001c-0.189-0.019-0.258,0.046-0.255,0.248c0.016,0.755,0.013,1.511,0.017,2.267
				c-0.047,0.855-0.035,1.711-0.006,2.568c-0.003,0.093-0.006,0.185-0.01,0.278c-0.171-0.013-0.131-0.146-0.13-0.245
				c0.001-0.515,0.02-1.029,0.008-1.543c-0.008-0.35,0.069-0.707-0.053-1.052c0-0.042,0-0.083,0-0.125
				c0.073-0.082,0.071-0.165,0.002-0.248c0-0.042-0.001-0.083-0.002-0.125c0.1-0.146,0.055-0.313,0.055-0.47
				c0.003-6.223,0.003-12.444,0.001-18.667C-36.931,1.718-36.954,1.509-36.967,1.3z M-15.549,14.581
				c0.014,0.013,0.027,0.025,0.041,0.039c0.001-0.011,0.001-0.021,0.002-0.031c-0.016,0-0.032,0-0.048,0.001
				c-0.066-0.355-0.113-0.704,0.358-0.913c-0.491,0.113-0.703-0.117-0.819-0.551c-0.027,0.532-0.338,0.604-0.77,0.565
				c0.426,0.222,0.517,0.522,0.311,0.954C-16.142,14.236-15.846,14.373-15.549,14.581z M-27.657,1.997
				c0.003,0.555-0.334,0.618-0.792,0.607c0.553,0.165,0.455,0.523,0.35,0.916c0.332-0.376,0.625-0.309,0.957,0.003
				c-0.232-0.42-0.124-0.716,0.291-0.953C-27.373,2.695-27.541,2.428-27.657,1.997z M-26.486,15.546
				c0.43,0.211,0.515,0.506,0.23,0.976c0.262-0.158,0.409-0.317,0.554-0.315c0.155,0.002,0.308,0.157,0.461,0.245
				c-0.242-0.414-0.037-0.68,0.336-0.947c-0.56,0.215-0.665-0.166-0.81-0.53C-25.759,15.473-26.028,15.603-26.486,15.546z
				 M-22.316,16.499c0.338-0.362,0.65-0.379,1.003-0.007c-0.25-0.439-0.091-0.721,0.283-0.97c-0.503,0.139-0.679-0.143-0.801-0.545
				c-0.041,0.514-0.338,0.608-0.774,0.573C-22.165,15.771-22.083,16.076-22.316,16.499z M-24.531,2.609
				c0.425,0.194,0.501,0.488,0.284,0.911c0.332-0.33,0.642-0.325,0.995-0.017c-0.274-0.445-0.079-0.702,0.298-0.929
				c-0.499,0.106-0.709-0.125-0.768-0.602C-23.993,2.545-23.993,2.545-24.531,2.609z M-20.659,13.688
				c0.414,0.228,0.522,0.523,0.294,0.972c0.335-0.448,0.644-0.327,1.002-0.03c-0.301-0.456-0.088-0.708,0.278-0.952
				c-0.456,0.084-0.713-0.078-0.793-0.561C-19.927,13.633-20.215,13.74-20.659,13.688z M-24.262,14.641
				c0.345-0.339,0.655-0.371,1.003,0.005c-0.219-0.432-0.136-0.735,0.305-0.96c-0.475,0.082-0.719-0.103-0.805-0.569
				c-0.063,0.504-0.349,0.627-0.802,0.566C-24.117,13.912-24.008,14.207-24.262,14.641z M-15.991,2.021
				c-0.071,0.469-0.331,0.629-0.795,0.574c0.488,0.198,0.461,0.529,0.318,0.93c0.336-0.396,0.641-0.28,0.975-0.017
				c-0.253-0.431-0.099-0.702,0.293-0.922C-15.651,2.635-15.928,2.518-15.991,2.021z M-36.163,2.616c0.43,0.18,0.45,0.495,0.301,0.9
				c0.333-0.375,0.626-0.31,0.958,0.008C-35.143,3.087-35,2.802-34.608,2.566c-0.51,0.124-0.699-0.125-0.755-0.582
				C-35.646,2.541-35.646,2.541-36.163,2.616z M-19.091,2.592c-0.5,0.099-0.685-0.167-0.795-0.585
				c-0.047,0.499-0.326,0.628-0.797,0.587c0.539,0.195,0.471,0.542,0.316,0.94c0.328-0.325,0.63-0.376,0.975-0.013
				C-19.539,3.122-19.575,2.797-19.091,2.592z M-31.009,3.52c-0.277-0.433-0.108-0.708,0.281-0.965
				c-0.544,0.169-0.678-0.154-0.789-0.542c-0.087,0.436-0.303,0.656-0.808,0.577c0.513,0.193,0.486,0.524,0.329,0.935
				C-31.66,3.142-31.354,3.226-31.009,3.52z M-34.263,15.545c0.513,0.185,0.475,0.525,0.343,0.931
				c0.331-0.397,0.626-0.291,0.961-0.001c-0.245-0.436-0.111-0.712,0.33-0.902c-0.625-0.104-0.625-0.104-0.833-0.637
				C-33.566,15.344-33.703,15.678-34.263,15.545z M-30.365,15.542c0.441,0.213,0.482,0.52,0.319,0.938
				c0.334-0.403,0.636-0.279,0.972-0.013c-0.249-0.429-0.106-0.702,0.325-0.904c-0.579-0.07-0.579-0.07-0.848-0.613
				C-29.666,15.384-29.847,15.652-30.365,15.542z M-25.735,3.853c-0.031,0.482-0.284,0.651-0.774,0.588
				c0.507,0.188,0.496,0.523,0.334,0.938c0.333-0.366,0.636-0.33,0.977-0.007c-0.246-0.434-0.1-0.709,0.329-0.916
				C-25.427,4.387-25.427,4.387-25.735,3.853z M-33.458,3.836c-0.048,0.5-0.318,0.662-0.797,0.599
				c0.427,0.216,0.525,0.508,0.314,0.939c0.342-0.359,0.645-0.333,0.987,0.009c-0.269-0.442-0.1-0.72,0.287-0.965
				C-33.181,4.537-33.373,4.294-33.458,3.836z M-34.898,7.231c-0.233-0.428-0.126-0.724,0.293-0.952
				c-0.491,0.095-0.698-0.133-0.764-0.625c-0.112,0.259-0.146,0.446-0.256,0.561c-0.121,0.127-0.351-0.015-0.573,0.133
				c0.482,0.156,0.481,0.478,0.325,0.879C-35.536,6.852-35.234,6.912-34.898,7.231z M-18.428,5.402
				c0.333-0.418,0.647-0.344,0.995-0.033c-0.255-0.432-0.094-0.706,0.28-0.951c-0.523,0.149-0.667-0.176-0.803-0.559
				c-0.022,0.524-0.33,0.618-0.778,0.583C-18.254,4.653-18.241,4.97-18.428,5.402z M-34.901,18.328
				c-0.222-0.433-0.125-0.718,0.312-0.925c-0.493,0.092-0.722-0.124-0.818-0.605c-0.029,0.525-0.322,0.66-0.776,0.623
				c0.462,0.195,0.483,0.501,0.308,0.913C-35.544,17.957-35.24,18.02-34.901,18.328z M-24.236,18.318
				c0.327-0.321,0.63-0.33,0.979,0.007c-0.254-0.438-0.093-0.703,0.301-0.892c-0.228-0.099-0.423,0.024-0.563-0.093
				c-0.138-0.114-0.092-0.345-0.288-0.518c-0.005,0.516-0.308,0.635-0.748,0.598C-24.115,17.616-24.026,17.893-24.236,18.318z
				 M-21.324,5.373c-0.214-0.424-0.115-0.718,0.298-0.947c-0.492,0.104-0.696-0.125-0.787-0.572
				c-0.068,0.479-0.314,0.652-0.81,0.582c0.515,0.202,0.487,0.538,0.324,0.963C-21.969,4.962-21.664,5.063-21.324,5.373z
				 M-23.261,7.216c-0.273-0.447-0.056-0.701,0.289-0.938c-0.477,0.09-0.69-0.116-0.782-0.562c-0.068,0.471-0.33,0.629-0.799,0.574
				c0.454,0.222,0.525,0.528,0.3,0.953C-23.915,6.888-23.611,6.865-23.261,7.216z M-29.571,3.855
				c-0.081,0.445-0.298,0.678-0.807,0.586c0.499,0.214,0.478,0.542,0.312,0.948c0.33-0.384,0.642-0.353,0.993-0.023
				c-0.232-0.426-0.129-0.712,0.288-0.934C-29.278,4.515-29.501,4.306-29.571,3.855z M-34.923,14.607
				c-0.232-0.435-0.057-0.697,0.339-0.937c-0.489,0.117-0.732-0.064-0.8-0.55c-0.098,0.439-0.322,0.658-0.807,0.571
				c0.431,0.21,0.493,0.514,0.326,0.921C-35.534,14.295-35.248,14.293-34.923,14.607z M-27.137,14.627
				c-0.266-0.441-0.097-0.716,0.294-0.954c-0.521,0.131-0.704-0.137-0.798-0.573c-0.053,0.489-0.317,0.661-0.799,0.6
				c0.47,0.198,0.482,0.516,0.338,0.931C-27.769,14.229-27.474,14.335-27.137,14.627z M-21.328,9.07
				c-0.212-0.415-0.114-0.705,0.304-0.937c-0.481,0.087-0.707-0.115-0.751-0.648c-0.126,0.284-0.154,0.494-0.271,0.575
				c-0.126,0.088-0.336,0.055-0.51,0.074c0.397,0.23,0.464,0.537,0.246,0.972C-21.975,8.692-21.673,8.748-21.328,9.07z
				 M-15.495,7.223c-0.234-0.413-0.129-0.701,0.285-0.934c-0.488,0.083-0.693-0.153-0.799-0.583
				c-0.027,0.519-0.346,0.605-0.776,0.602c0.493,0.194,0.46,0.527,0.314,0.94C-16.133,6.798-15.829,6.941-15.495,7.223z
				 M-19.089,6.293c-0.497,0.095-0.684-0.167-0.802-0.581c-0.017,0.527-0.335,0.595-0.761,0.591c0.432,0.216,0.5,0.514,0.278,0.942
				c0.344-0.404,0.657-0.338,1-0.009C-19.56,6.829-19.563,6.509-19.089,6.293z M-19.868,9.426c-0.071,0.483-0.341,0.626-0.801,0.564
				c0.442,0.226,0.522,0.529,0.299,0.973c0.333-0.449,0.65-0.322,1.003-0.044c-0.29-0.45-0.07-0.704,0.285-0.938
				C-19.533,10.05-19.81,9.936-19.868,9.426z M-16.485,10.924c0.342-0.352,0.645-0.331,0.986,0.01
				c-0.233-0.434-0.098-0.724,0.299-0.96c-0.493,0.12-0.696-0.122-0.816-0.572c0,0.554-0.336,0.61-0.756,0.609
				C-16.332,10.218-16.272,10.507-16.485,10.924z M-15.19,17.4c-0.501,0.103-0.724-0.131-0.825-0.601
				c-0.018,0.538-0.313,0.657-0.763,0.621c0.447,0.198,0.477,0.507,0.298,0.939c0.335-0.439,0.64-0.333,0.973-0.033
				C-15.728,17.896-15.616,17.614-15.19,17.4z M-25.193,9.15c-0.062-0.295-0.149-0.479-0.121-0.643
				c0.027-0.163,0.316-0.168,0.362-0.38c-0.476-0.029-0.476-0.029-0.782-0.588c-0.035,0.483-0.271,0.675-0.758,0.594
				c0.429,0.23,0.535,0.527,0.309,0.955C-25.846,8.727-25.542,8.742-25.193,9.15z M-28.42,6.293
				c0.459,0.214,0.488,0.523,0.292,0.938c0.338-0.353,0.647-0.364,0.999-0.002c-0.29-0.443-0.091-0.712,0.271-0.958
				c-0.509,0.12-0.685-0.151-0.783-0.563C-27.728,6.142-27.917,6.38-28.42,6.293z M-17.963,7.596c-0.013,0.49-0.332,0.57-0.764,0.56
				c0.514,0.201,0.451,0.539,0.305,0.955c0.333-0.455,0.649-0.311,0.992-0.042c-0.24-0.421-0.127-0.706,0.329-0.908
				C-17.719,8.074-17.719,8.074-17.963,7.596z M-17.146,15.522c-0.561,0.213-0.654-0.193-0.817-0.541
				c-0.023,0.512-0.321,0.608-0.825,0.505c0.232,0.204,0.426,0.295,0.468,0.434c0.045,0.149-0.052,0.341-0.096,0.561
				c0.186-0.116,0.328-0.272,0.473-0.275c0.149-0.003,0.301,0.145,0.453,0.226C-17.673,16.026-17.535,15.768-17.146,15.522z
				 M-29.542,7.519c-0.259,0.549-0.259,0.549-0.87,0.647c0.466,0.19,0.554,0.49,0.357,0.917c0.338-0.395,0.641-0.299,0.958,0.02
				c0.005-0.26-0.171-0.424-0.104-0.6c0.062-0.16,0.311-0.178,0.389-0.424C-29.291,8.237-29.484,8.004-29.542,7.519z
				 M-21.287,12.753c-0.331-0.43-0.097-0.677,0.267-0.929c-0.511,0.159-0.68-0.127-0.8-0.548c-0.065,0.467-0.308,0.651-0.784,0.571
				c0.453,0.22,0.503,0.531,0.24,0.966C-21.815,12.482-21.815,12.482-21.287,12.753z M-33.89,9.043
				c0.146-0.088,0.293-0.248,0.437-0.244c0.154,0.004,0.304,0.162,0.456,0.253c-0.208-0.411-0.07-0.698,0.336-0.935
				c-0.506,0.126-0.698-0.123-0.808-0.564c-0.02,0.531-0.333,0.618-0.776,0.596C-33.815,8.362-33.738,8.658-33.89,9.043z
				 M-36.209,9.992c0.463,0.196,0.53,0.498,0.338,0.932c0.339-0.409,0.642-0.273,0.976-0.007c-0.266-0.439-0.08-0.703,0.286-0.942
				c-0.494,0.119-0.694-0.117-0.792-0.56C-35.474,9.89-35.719,10.069-36.209,9.992z M-31.524,5.7
				c-0.023,0.514-0.331,0.617-0.779,0.609c0.464,0.196,0.473,0.514,0.306,0.938c0.338-0.451,0.642-0.301,0.98,0.027
				c-0.06-0.262-0.15-0.445-0.123-0.61c0.026-0.163,0.3-0.182,0.39-0.418C-31.214,6.358-31.441,6.171-31.524,5.7z M-28.129,18.331
				c0.341-0.323,0.647-0.36,0.992,0.01c-0.25-0.437-0.134-0.723,0.297-0.943c-0.521,0.126-0.704-0.153-0.818-0.59
				c-0.015,0.532-0.335,0.631-0.77,0.621C-27.956,17.615-27.939,17.92-28.129,18.331z M-30.707,13.7
				c-0.467,0.058-0.751-0.091-0.811-0.588c-0.05,0.503-0.34,0.638-0.8,0.591c0.461,0.198,0.483,0.512,0.335,0.925
				c0.334-0.396,0.629-0.282,0.959-0.001C-31.22,14.208-31.181,13.902-30.707,13.7z M-33.424,11.2
				c-0.105,0.25-0.141,0.448-0.255,0.577c-0.125,0.14-0.366-0.014-0.621,0.144c0.588,0.108,0.485,0.467,0.372,0.862
				c0.33-0.391,0.636-0.289,0.995-0.01c-0.337-0.448-0.09-0.691,0.248-0.938C-33.194,11.955-33.368,11.687-33.424,11.2z
				 M-32.368,9.917c0.469,0.443,0.469,0.443,0.382,1.053c0.322-0.407,0.632-0.36,0.98-0.048c-0.278-0.434-0.116-0.701,0.291-0.954
				c-0.565,0.181-0.692-0.161-0.805-0.563C-31.598,9.856-31.804,10.087-32.368,9.917z M-20.354,18.327
				c0.336-0.359,0.642-0.308,0.983,0.007c-0.226-0.427-0.149-0.726,0.302-0.939c-0.514,0.121-0.708-0.128-0.799-0.585
				c-0.074,0.49-0.325,0.678-0.808,0.595C-20.217,17.613-20.154,17.906-20.354,18.327z M-24.249,10.925
				c0.338-0.335,0.643-0.34,0.99,0.002c-0.234-0.43-0.112-0.712,0.294-0.942c-0.49,0.1-0.702-0.127-0.806-0.585
				c-0.011,0.563-0.348,0.617-0.773,0.601C-24.143,10.219-23.997,10.493-24.249,10.925z M-18.708,11.843
				c0.398,0.364,0.398,0.364,0.29,0.985c0.332-0.383,0.645-0.405,0.984-0.04c-0.215-0.425-0.141-0.729,0.288-0.958
				c-0.519,0.146-0.676-0.163-0.774-0.598C-18.153,11.813-18.153,11.813-18.708,11.843z M-32.266,17.433
				c0.127,0.11,0.296,0.198,0.371,0.336c0.086,0.159-0.127,0.33-0.056,0.604c0.292-0.475,0.597-0.32,0.934-0.043
				c-0.188-0.411-0.186-0.725,0.308-0.923c-0.513,0.104-0.718-0.154-0.813-0.594C-31.599,17.262-31.794,17.51-32.266,17.433z
				 M-28.125,10.908c0.349-0.341,0.651-0.304,0.988,0.023c-0.25-0.432-0.124-0.721,0.294-0.952c-0.51,0.113-0.703-0.14-0.795-0.569
				c-0.082,0.442-0.288,0.674-0.778,0.569C-28.072,10.217-27.854,10.459-28.125,10.908z M-30.366,11.854
				c0.488,0.19,0.456,0.53,0.318,0.933c0.331-0.386,0.634-0.301,0.974-0.019c-0.229-0.42-0.13-0.706,0.298-0.943
				c-0.561,0.188-0.683-0.169-0.809-0.554C-29.658,11.735-29.888,11.936-30.366,11.854z M-25.696,11.268
				c-0.078,0.462-0.316,0.656-0.792,0.59c0.476,0.205,0.476,0.525,0.261,0.933c0.314-0.13,0.511-0.47,0.816-0.154
				c0.046,0.047,0.147-0.016,0.12-0.076c-0.167-0.372,0.15-0.503,0.369-0.725C-25.396,11.941-25.616,11.723-25.696,11.268z"/>
			<path fill-rule="evenodd" clip-rule="evenodd" fill="#042F63" d="M-36.96,34.237c-0.05-0.131,0.098-0.274-0.026-0.4
				c0-0.042,0-0.084,0-0.125c0.093-0.678,0.093-1.356,0-2.034c0-0.042,0-0.083,0-0.124c0.058-0.034,0.114-0.056,0.177-0.011
				c0.003,0.042,0.007,0.084,0.01,0.127c-0.007,0.706-0.001,1.412-0.027,2.118c-0.012,0.301,0.093,0.371,0.379,0.369
				c1.86-0.012,3.719-0.006,5.579-0.006c16.227,0,32.453,0.002,48.681,0.002c-0.017,0.026-0.033,0.053-0.049,0.081
				c-0.161,0.002-0.322,0.007-0.483,0.007c-18.03,0-36.061,0.001-54.091,0.001C-36.861,34.242-36.91,34.238-36.96,34.237z"/>
			<path fill-rule="evenodd" clip-rule="evenodd" fill="#6E7170" d="M17.59,1.31c-0.159,0.011-0.319,0.034-0.478,0.034
				c-10.405,0.002-20.81,0.002-31.215,0c-0.172,0-0.344-0.023-0.516-0.036c0.129-0.067,0.268-0.035,0.401-0.035
				c10.444-0.002,20.888-0.002,31.332,0C17.273,1.273,17.437,1.235,17.59,1.31z"/>
			<path fill-rule="evenodd" clip-rule="evenodd" fill="#6E7170" d="M17.871,3.849c0.116-0.443,0.018-0.895,0.048-1.341
				c0.025-0.376-0.05-0.756,0.045-1.128c0.01,0.109,0.029,0.219,0.029,0.329c0.001,5.625,0.001,11.249,0,16.873
				c0,0.11-0.019,0.221-0.028,0.331c-0.103-0.451-0.015-0.909-0.047-1.361c-0.026-0.363,0.065-0.732-0.053-1.091l-0.027-0.003
				c-0.002-0.822-0.006-1.644-0.009-2.466c0.008-0.014,0.02-0.02,0.035-0.016c0.11-0.13,0.056-0.286,0.051-0.427
				c-0.022-0.713,0.068-1.429-0.047-2.14l-0.031-0.011c0-0.823,0-1.646-0.001-2.469c0.006-0.016,0.017-0.023,0.033-0.024
				c0.115-0.444,0.041-0.896,0.043-1.343c0.001-0.386,0.075-0.777-0.047-1.16c-0.019-0.01-0.029-0.026-0.032-0.047
				c0-0.832,0-1.664-0.001-2.496l0.018-0.012L17.871,3.849z"/>
			<path fill-rule="evenodd" clip-rule="evenodd" fill="#6E7170" d="M17.969,19.02c0.066,0.554,0.026,1.11,0.028,1.665
				c0.006,1.879,0.003,3.758,0,5.638c0,0.134-0.02,0.269-0.031,0.403c-0.039-0.034-0.077-0.068-0.116-0.102
				c-0.007-0.839-0.013-1.678-0.02-2.517c0.008-0.015,0.021-0.021,0.037-0.021c0.117-0.419,0.044-0.847,0.045-1.271
				c0.002-0.411,0.069-0.828-0.047-1.235c-0.016-0.001-0.028-0.007-0.037-0.021c0.006-0.834,0.012-1.669,0.018-2.504
				C17.888,19.044,17.928,19.032,17.969,19.02z"/>
			<path fill-rule="evenodd" clip-rule="evenodd" fill="#6E7170" d="M17.762,34.233c0.016-0.027,0.033-0.054,0.048-0.081
				l0.014-0.008c0.159-0.051,0.091-0.186,0.092-0.281c0.007-0.655,0.006-1.31,0.002-1.965c-0.001-0.089,0.051-0.202-0.07-0.263
				c-0.002-0.819-0.003-1.638-0.005-2.456c0.043-0.013,0.086-0.027,0.128-0.04c0.059,0.926,0.017,1.854,0.022,2.782
				c0.004,0.693,0.002,1.387,0,2.08C17.995,34.153,18.012,34.328,17.762,34.233z"/>
			<path fill-rule="evenodd" clip-rule="evenodd" fill="#042F63" d="M17.972,29.14c-0.042,0.013-0.085,0.027-0.128,0.04
				l-0.001-0.004c0.04-0.85,0.028-1.699,0.006-2.549l0.002-0.002c0.039,0.034,0.078,0.068,0.116,0.102
				c0,0.04,0.001,0.079,0.001,0.119c-0.08,0.703-0.079,1.404,0,2.107C17.969,29.013,17.971,29.076,17.972,29.14z"/>
			<path fill-rule="evenodd" clip-rule="evenodd" fill="#042F63" d="M17.969,19.02c-0.041,0.012-0.082,0.024-0.123,0.035
				l-0.001-0.002c0.007-0.865,0.014-1.729,0.021-2.593c0.119,0.358,0.027,0.728,0.053,1.09c0.032,0.453-0.056,0.91,0.047,1.361
				C17.967,18.948,17.968,18.984,17.969,19.02z"/>
			<path fill-rule="evenodd" clip-rule="evenodd" fill="#6E7170" d="M17.967,28.951c-0.078-0.703-0.079-1.404,0-2.107
				C18.013,27.546,18.013,28.248,17.967,28.951z"/>
			<path fill-rule="evenodd" clip-rule="evenodd" fill="#FEFEFE" d="M17.847,19.055c-0.006,0.834-0.012,1.669-0.018,2.504
				c-0.124,0.002-0.248,0.006-0.372,0.006c-17.973,0-35.945,0-53.918,0c-0.11,0-0.223-0.006-0.334-0.01
				c-0.004-0.756-0.001-1.511-0.017-2.267c-0.003-0.201,0.065-0.267,0.255-0.248c0.11,0.011,0.223,0.001,0.334,0.001
				c7.111,0,14.222,0,21.333,0c0.136,0,0.272-0.009,0.408-0.013c0.161,0.004,0.322,0.013,0.482,0.013c10.417,0,20.834,0,31.251,0
				c0.198,0,0.396,0.006,0.594,0.01L17.847,19.055z"/>
			<path fill-rule="evenodd" clip-rule="evenodd" fill="#D11342" d="M-36.795,21.556c0.111,0.003,0.224,0.01,0.334,0.01
				c17.973,0,35.945,0,53.918,0c0.124,0,0.248-0.004,0.372-0.006c0.009,0.013,0.021,0.02,0.037,0.021
				c0.001,0.836,0.002,1.671,0.002,2.506c-0.017,0-0.029,0.007-0.037,0.021c-0.111-0.001-0.224-0.005-0.335-0.005
				c-17.976,0-35.951,0-53.927,0c-0.124,0-0.247,0.014-0.37,0.021C-36.83,23.267-36.842,22.411-36.795,21.556z"/>
			<path fill-rule="evenodd" clip-rule="evenodd" fill="#FDFCFC" d="M-36.801,24.124c0.124-0.007,0.247-0.021,0.37-0.021
				c17.976,0,35.952,0,53.927,0c0.111,0,0.224,0.003,0.335,0.005c0.006,0.839,0.013,1.678,0.02,2.517l-0.002,0.002
				c-18.104,0.001-36.209,0.001-54.314,0.001c-0.111,0-0.222-0.012-0.333-0.018c-0.004-0.687-0.008-1.374-0.013-2.06
				c0-0.049,0-0.098,0-0.147C-36.808,24.309-36.805,24.216-36.801,24.124z"/>
			<path fill-rule="evenodd" clip-rule="evenodd" fill="#D11342" d="M17.834,6.353c0.003,0.021,0.013,0.037,0.032,0.047
				c0.001,0.834,0.002,1.668,0.004,2.502c-0.017,0.001-0.027,0.009-0.033,0.025c-0.111-0.005-0.222-0.013-0.333-0.013
				c-10.656,0-21.313,0-31.968,0c-0.057-0.865-0.02-1.731-0.021-2.597c0.126,0.076,0.266,0.045,0.4,0.045
				c10.405,0.001,20.809,0.001,31.214,0C17.364,6.363,17.599,6.357,17.834,6.353z"/>
			<path fill-rule="evenodd" clip-rule="evenodd" fill="#D11342" d="M17.845,19.053c-0.198-0.003-0.396-0.01-0.594-0.01
				c-10.417,0-20.834,0-31.251,0c-0.16,0-0.321-0.009-0.482-0.013c0-0.864-0.002-1.727-0.003-2.59
				c0.143,0.112,0.312,0.062,0.467,0.062c10.474,0.002,20.948,0.001,31.422,0c0.145,0,0.298,0.041,0.436-0.044l0.027,0.003
				C17.859,17.324,17.852,18.188,17.845,19.053z"/>
			<path fill-rule="evenodd" clip-rule="evenodd" fill="#D11342" d="M-14.465,13.983c-0.046-0.853-0.041-1.706-0.002-2.559
				c0.099,0.003,0.198,0.008,0.297,0.008c10.535,0.001,21.07,0.001,31.605,0c0.134,0,0.273,0.029,0.403-0.036l0.031,0.011
				c-0.001,0.855-0.003,1.711-0.004,2.567c-0.015-0.003-0.027,0.002-0.035,0.016c-0.062-0.004-0.123-0.01-0.185-0.01
				C6.942,13.98-3.761,13.981-14.465,13.983z"/>
			<path fill-rule="evenodd" clip-rule="evenodd" fill="#D11342" d="M-14.468,3.846c-0.007-0.743-0.013-1.486-0.024-2.229
				c-0.002-0.16,0.065-0.225,0.221-0.216c0.111,0.006,0.224,0,0.335,0c10.427,0,20.854,0,31.281,0c0.595,0,0.515-0.055,0.519,0.514
				c0.005,0.645,0.005,1.289,0.007,1.933l-0.021-0.003c0,0-0.018,0.012-0.017,0.012c-0.111-0.003-0.223-0.01-0.334-0.01
				C6.844,3.847-3.812,3.847-14.468,3.846z"/>
			<path fill-rule="evenodd" clip-rule="evenodd" fill="#FDFCFC" d="M17.838,11.396c-0.13,0.064-0.269,0.036-0.403,0.036
				c-10.535,0.001-21.07,0.001-31.605,0c-0.1,0-0.198-0.005-0.297-0.008c-0.027-0.836-0.031-1.673,0.003-2.509
				c10.656,0,21.312,0,31.968,0c0.111,0,0.222,0.008,0.333,0.013C17.837,9.75,17.837,10.573,17.838,11.396z"/>
			<path fill-rule="evenodd" clip-rule="evenodd" fill="#FDFCFC" d="M-14.465,13.983c10.704-0.001,21.407-0.002,32.11-0.003
				c0.062,0,0.123,0.006,0.185,0.01c0.003,0.822,0.006,1.644,0.009,2.466c-0.138,0.085-0.291,0.044-0.436,0.044
				c-10.474,0.002-20.948,0.002-31.422,0c-0.155,0-0.324,0.05-0.467-0.062C-14.479,15.62-14.472,14.802-14.465,13.983z"/>
			<path fill-rule="evenodd" clip-rule="evenodd" fill="#FDFCFC" d="M-14.468,3.846c10.657,0,21.312,0.001,31.968,0.001
				c0.111,0,0.223,0.006,0.334,0.01c0,0.832,0,1.664,0,2.496c-0.235,0.004-0.471,0.01-0.706,0.01
				c-10.405,0.001-20.81,0.001-31.214,0c-0.134,0-0.274,0.031-0.4-0.045C-14.479,5.494-14.474,4.67-14.468,3.846z"/>
			<path fill-rule="evenodd" clip-rule="evenodd" fill="#FDFCFC" d="M-36.81,31.543c-0.001-0.05-0.001-0.101-0.002-0.151
				c0.004-0.735,0.009-1.471,0.013-2.206c0.136-0.006,0.272-0.017,0.408-0.017c17.941-0.001,35.883-0.001,53.824-0.001
				c0.137,0,0.272,0.004,0.409,0.007l0.001,0.004c0.002,0.819,0.003,1.638,0.005,2.457l-0.004,0.022
				c-0.143,0.064-0.293,0.034-0.44,0.034c-17.895,0.001-35.791,0.001-53.686,0c-0.173,0-0.346-0.015-0.519-0.022
				C-36.803,31.627-36.806,31.585-36.81,31.543z"/>
			<path fill-rule="evenodd" clip-rule="evenodd" fill="#D11342" d="M-36.8,31.67c0.173,0.007,0.346,0.022,0.519,0.022
				c17.895,0.001,35.791,0.001,53.686,0c0.147,0,0.297,0.03,0.44-0.034c0.021,0.829,0.059,1.658-0.02,2.487l-0.014,0.008
				c-16.227,0-32.453-0.002-48.68-0.002c-1.86,0-3.719-0.006-5.579,0.006c-0.286,0.002-0.391-0.068-0.379-0.369
				C-36.801,33.082-36.807,32.375-36.8,31.67z"/>
			<path fill-rule="evenodd" clip-rule="evenodd" fill="#042F63" d="M17.865,13.974c0.001-0.855,0.002-1.711,0.004-2.567
				c0.115,0.71,0.025,1.426,0.047,2.14C17.921,13.688,17.975,13.844,17.865,13.974z"/>
			<path fill-rule="evenodd" clip-rule="evenodd" fill="#042F63" d="M17.87,8.903c-0.001-0.834-0.002-1.668-0.004-2.502
				c0.122,0.382,0.048,0.774,0.047,1.16C17.911,8.007,17.985,8.458,17.87,8.903z"/>
			<path fill-rule="evenodd" clip-rule="evenodd" fill="#042F63" d="M17.868,24.085c0-0.835-0.001-1.67-0.002-2.506
				c0.117,0.407,0.049,0.824,0.047,1.235C17.912,23.238,17.985,23.666,17.868,24.085z"/>
			<path fill-rule="evenodd" clip-rule="evenodd" fill="#042F63" d="M17.825,34.145c0.079-0.829,0.04-1.658,0.02-2.487l0.004-0.022
				c0.121,0.061,0.069,0.174,0.07,0.263c0.004,0.655,0.005,1.31-0.002,1.965C17.916,33.959,17.983,34.093,17.825,34.145z"/>
			<path fill-rule="evenodd" clip-rule="evenodd" fill="#D11342" d="M17.843,29.175c-0.137-0.002-0.272-0.007-0.409-0.007
				c-17.941,0-35.883,0-53.824,0.001c-0.136,0-0.272,0.011-0.408,0.017c-0.036-0.859-0.035-1.718,0-2.577
				c0.111,0.006,0.222,0.018,0.333,0.018c18.104,0,36.209,0,54.314-0.001C17.871,27.476,17.883,28.325,17.843,29.175z"/>
		</g>
	</g>
	<g>
		<defs>
			<circle id="SVGID_15_" cx="17.783" cy="17.595" r="15.917"/>
		</defs>
		<clipPath id="SVGID_4_">
			<use xlink:href="#SVGID_15_"  overflow="visible"/>
		</clipPath>
		<g clip-path="url(#SVGID_4_)">
			<path fill-rule="evenodd" clip-rule="evenodd" fill="#D9251D" d="M17.89,34.232c-8.262,0-16.523,0-24.785,0.002
				c-0.093,0-0.114-0.021-0.114-0.114c0.002-10.993,0.002-21.986,0-32.98c0-0.093,0.021-0.114,0.114-0.114
				c16.531,0.002,33.063,0.002,49.594,0c0.093,0,0.115,0.021,0.115,0.114c-0.003,10.994-0.003,21.987,0,32.98
				c0,0.093-0.021,0.114-0.115,0.114C34.429,34.231,26.159,34.232,17.89,34.232z M15.659,14.528
				c-0.008,0.007-0.017,0.013-0.024,0.02c-0.054,0.001-0.108,0.003-0.162,0.003c-2.288,0-4.575,0-6.862,0c-0.048,0-0.096,0-0.144,0
				c0.212,0.183,0.432,0.342,0.651,0.502c1.689,1.227,3.378,2.454,5.067,3.678c0.072,0.052,0.093,0.097,0.063,0.185
				c-0.095,0.269-0.178,0.542-0.266,0.813c-0.215,0.662-0.43,1.323-0.645,1.984c-0.269,0.828-0.539,1.654-0.808,2.481
				c-0.158,0.487-0.316,0.975-0.476,1.465c0.049,0.004,0.073-0.029,0.101-0.05c1.877-1.363,3.753-2.727,5.627-4.094
				c0.097-0.071,0.154-0.062,0.245,0.005c1.875,1.367,3.751,2.73,5.627,4.093c0.027,0.019,0.05,0.055,0.094,0.045
				c-0.003-0.014-0.004-0.022-0.006-0.029c-0.723-2.223-1.446-4.446-2.173-6.668c-0.038-0.116-0.026-0.179,0.08-0.255
				c1.88-1.358,3.756-2.722,5.633-4.085c0.021-0.015,0.054-0.023,0.056-0.071c-0.046,0-0.09,0-0.135,0c-1.274,0-2.549,0-3.823,0
				c-1.042,0-2.084,0-3.125,0c-0.069,0-0.117,0-0.146-0.089c-0.718-2.225-1.44-4.448-2.164-6.671
				c-0.009-0.03-0.001-0.078-0.055-0.089c-0.005,0.017-0.01,0.032-0.015,0.047c-0.489,1.506-0.976,3.012-1.468,4.517
				C16.159,13.022,15.929,13.782,15.659,14.528z"/>
			<path fill-rule="evenodd" clip-rule="evenodd" fill="#FEFE00" d="M15.659,14.528c0.27-0.747,0.5-1.506,0.747-2.261
				c0.493-1.505,0.979-3.011,1.468-4.517c0.005-0.015,0.01-0.031,0.015-0.047c0.054,0.012,0.045,0.06,0.055,0.089
				c0.723,2.223,1.446,4.446,2.164,6.671c0.029,0.089,0.077,0.089,0.146,0.089c1.042,0,2.083,0,3.125,0c1.274,0,2.549,0,3.823,0
				c0.044,0,0.089,0,0.135,0c-0.001,0.047-0.035,0.056-0.056,0.071c-1.877,1.363-3.753,2.727-5.633,4.085
				c-0.105,0.076-0.118,0.139-0.08,0.255c0.727,2.222,1.45,4.445,2.173,6.668c0.002,0.007,0.003,0.016,0.006,0.029
				c-0.044,0.01-0.067-0.026-0.094-0.045c-1.876-1.363-3.753-2.727-5.627-4.093c-0.091-0.066-0.148-0.076-0.245-0.005
				c-1.874,1.368-3.75,2.731-5.627,4.094c-0.027,0.021-0.052,0.054-0.101,0.05c0.159-0.49,0.317-0.978,0.476-1.465
				c0.27-0.827,0.539-1.653,0.808-2.481c0.215-0.661,0.43-1.323,0.645-1.984c0.088-0.271,0.171-0.544,0.266-0.813
				c0.03-0.087,0.01-0.132-0.063-0.185c-1.689-1.225-3.378-2.451-5.067-3.678c-0.219-0.16-0.439-0.319-0.651-0.502
				c0.048,0,0.096,0,0.144,0c2.288,0,4.575,0,6.862,0c0.054,0,0.108-0.002,0.162-0.003C15.65,14.55,15.659,14.545,15.659,14.528z"/>
			<path fill-rule="evenodd" clip-rule="evenodd" fill="#DE4219" d="M15.659,14.528c0,0.017-0.009,0.022-0.024,0.02
				C15.643,14.542,15.651,14.535,15.659,14.528z"/>
		</g>
	</g>
	<g>
		<defs>
			<circle id="SVGID_17_" cx="53.783" cy="17.595" r="15.917"/>
		</defs>
		<clipPath id="SVGID_6_">
			<use xlink:href="#SVGID_17_"  overflow="visible"/>
		</clipPath>
		<g clip-path="url(#SVGID_6_)">
			<path fill-rule="evenodd" clip-rule="evenodd" fill="#FECA00" d="M78.035,1.483c0,3.588,0,7.176,0,10.764
				c-0.018,0.004-0.036,0.009-0.053,0.013c-0.102-0.002-0.203-0.006-0.304-0.006c-15.98,0-31.96,0-47.939,0
				c-0.093,0-0.186-0.002-0.279-0.003c-0.005-0.109-0.013-0.219-0.013-0.329c-0.001-3.359-0.001-6.718,0-10.077
				c0-0.417-0.055-0.363,0.362-0.363c15.982-0.001,31.964-0.001,47.948,0C77.849,1.481,77.941,1.482,78.035,1.483z"/>
			<path fill-rule="evenodd" clip-rule="evenodd" fill="#DB0000" d="M78.035,23.062c0,3.512-0.002,7.024,0.004,10.536
				c0.001,0.19-0.043,0.233-0.233,0.233c-16.121-0.005-32.241-0.005-48.361-0.005c0-3.484-0.001-6.968-0.002-10.453
				c0-0.102-0.006-0.203-0.009-0.304c0.01-0.003,0.017-0.009,0.022-0.018c16.074,0,32.149,0,48.223,0.001
				C77.798,23.052,77.916,23.058,78.035,23.062z"/>
			<path fill-rule="evenodd" clip-rule="evenodd" fill="#0100B9" d="M78.035,23.062c-0.119-0.003-0.237-0.01-0.355-0.01
				C61.605,23.05,45.531,23.05,29.457,23.05c-0.004-0.109-0.014-0.219-0.014-0.329c-0.001-3.486-0.001-6.972-0.001-10.458h0.013
				l0.005-0.012c0.093,0,0.186,0.003,0.279,0.003c15.979,0,31.959,0,47.939,0c0.101,0,0.203,0.004,0.304,0.006
				c0.018,0.013,0.035,0.025,0.053,0.039C78.035,15.886,78.035,19.474,78.035,23.062z M44.466,21.679
				c-0.101-0.294-0.168-0.528-0.26-0.75c-0.055-0.132-0.024-0.194,0.09-0.263c0.221-0.134,0.433-0.283,0.648-0.427
				c-0.265-0.05-0.524-0.062-0.781-0.045c-0.179,0.012-0.253-0.06-0.3-0.223c-0.063-0.217-0.152-0.427-0.25-0.694
				c-0.105,0.287-0.194,0.513-0.27,0.743c-0.04,0.12-0.1,0.173-0.234,0.168c-0.273-0.011-0.548-0.003-0.821-0.003
				c0.208,0.193,0.425,0.347,0.65,0.487c0.107,0.066,0.126,0.125,0.076,0.244c-0.096,0.229-0.168,0.47-0.269,0.76
				c0.262-0.169,0.483-0.302,0.692-0.451c0.119-0.083,0.206-0.1,0.332-0.004C43.97,21.373,44.189,21.499,44.466,21.679z
				 M64.791,21.679c-0.097-0.27-0.16-0.478-0.247-0.676c-0.075-0.172-0.063-0.283,0.119-0.381c0.208-0.113,0.397-0.259,0.595-0.392
				c-0.287-0.045-0.554-0.053-0.821-0.042c-0.143,0.006-0.211-0.043-0.254-0.177c-0.074-0.231-0.167-0.457-0.269-0.731
				c-0.095,0.259-0.188,0.452-0.234,0.655c-0.051,0.218-0.169,0.273-0.375,0.259c-0.236-0.016-0.474-0.004-0.711-0.004
				c0.208,0.193,0.413,0.34,0.629,0.468c0.124,0.074,0.159,0.14,0.099,0.282c-0.094,0.221-0.159,0.454-0.256,0.738
				c0.278-0.181,0.507-0.321,0.726-0.476c0.1-0.071,0.168-0.067,0.267,0.001C64.279,21.357,64.509,21.497,64.791,21.679z
				 M59.405,14.963c-0.007-0.015-0.014-0.03-0.021-0.044c-0.193,0-0.389-0.021-0.578,0.004c-0.3,0.04-0.466-0.055-0.533-0.364
				c-0.037-0.172-0.095-0.353-0.213-0.522c-0.086,0.242-0.172,0.46-0.241,0.683c-0.046,0.149-0.116,0.219-0.284,0.208
				c-0.257-0.016-0.516-0.004-0.774-0.004c0.195,0.184,0.396,0.331,0.61,0.456c0.131,0.078,0.173,0.148,0.108,0.3
				c-0.093,0.212-0.156,0.438-0.255,0.727c0.282-0.184,0.509-0.322,0.725-0.476c0.098-0.069,0.166-0.071,0.266-0.001
				c0.218,0.153,0.447,0.291,0.728,0.472c-0.098-0.279-0.162-0.503-0.255-0.714c-0.071-0.16-0.026-0.238,0.113-0.32
				C59.007,15.244,59.203,15.099,59.405,14.963z M61.809,16.121c-0.069,0.187-0.124,0.336-0.178,0.485
				c-0.151,0.417-0.15,0.417-0.585,0.419c-0.187,0.001-0.374,0-0.561,0c0.212,0.197,0.423,0.35,0.648,0.481
				c0.124,0.072,0.131,0.146,0.086,0.264c-0.088,0.232-0.166,0.469-0.264,0.748c0.2-0.13,0.369-0.215,0.507-0.336
				c0.239-0.21,0.452-0.225,0.698-0.009c0.139,0.122,0.311,0.206,0.519,0.339c-0.099-0.281-0.168-0.505-0.259-0.721
				c-0.06-0.141-0.041-0.225,0.095-0.305c0.218-0.13,0.424-0.278,0.636-0.419c-0.282-0.045-0.542-0.053-0.802-0.042
				c-0.146,0.006-0.228-0.029-0.272-0.183C62.008,16.61,61.91,16.387,61.809,16.121z M54.628,15.919
				c-0.1-0.286-0.163-0.512-0.258-0.723c-0.068-0.152-0.02-0.223,0.106-0.301c0.215-0.133,0.42-0.281,0.687-0.461
				c-0.289,0-0.503-0.026-0.709,0.005c-0.297,0.046-0.422-0.086-0.487-0.351c-0.043-0.174-0.123-0.34-0.206-0.562
				c-0.102,0.282-0.19,0.506-0.26,0.735c-0.042,0.136-0.109,0.183-0.252,0.177c-0.271-0.012-0.541-0.003-0.811-0.003
				c0.212,0.198,0.425,0.347,0.647,0.482c0.116,0.071,0.132,0.135,0.086,0.266c-0.081,0.225-0.189,0.445-0.224,0.723
				c0.238-0.156,0.457-0.284,0.658-0.435c0.125-0.094,0.215-0.081,0.335,0.005C54.143,15.62,54.358,15.747,54.628,15.919z
				 M46.58,18.521c-0.104-0.292-0.181-0.522-0.269-0.75c-0.044-0.118-0.036-0.193,0.087-0.265c0.226-0.132,0.438-0.288,0.656-0.434
				c-0.237-0.047-0.456-0.067-0.67-0.042c-0.252,0.029-0.386-0.05-0.444-0.305c-0.044-0.194-0.134-0.377-0.219-0.605
				c-0.073,0.197-0.131,0.354-0.188,0.51c-0.144,0.392-0.144,0.392-0.555,0.393c-0.196,0-0.393,0-0.662,0
				c0.286,0.192,0.496,0.346,0.72,0.48c0.122,0.073,0.13,0.147,0.083,0.266c-0.089,0.229-0.167,0.462-0.267,0.744
				c0.265-0.17,0.484-0.298,0.688-0.448c0.133-0.098,0.229-0.085,0.355,0.007C46.101,18.221,46.318,18.351,46.58,18.521z
				 M48.057,14.918c0.262,0.174,0.45,0.318,0.654,0.431c0.178,0.099,0.198,0.209,0.121,0.385c-0.087,0.196-0.148,0.404-0.243,0.669
				c0.277-0.177,0.501-0.308,0.71-0.46c0.117-0.086,0.197-0.077,0.31,0.004c0.207,0.15,0.426,0.282,0.704,0.464
				c-0.101-0.287-0.166-0.502-0.252-0.71c-0.061-0.149-0.048-0.238,0.105-0.323c0.215-0.12,0.414-0.271,0.619-0.409
				c-0.284-0.044-0.553-0.052-0.821-0.041c-0.133,0.004-0.195-0.042-0.235-0.168c-0.074-0.235-0.165-0.464-0.27-0.753
				c-0.104,0.283-0.194,0.508-0.269,0.737c-0.043,0.132-0.111,0.185-0.256,0.178C48.667,14.909,48.4,14.918,48.057,14.918z"/>
			<path fill-rule="evenodd" clip-rule="evenodd" fill="#FEFCDF" d="M78.035,1.483c-0.093-0.001-0.186-0.002-0.279-0.002
				c-15.983,0-31.965,0-47.948,0c-0.417,0-0.362-0.054-0.362,0.363c-0.001,3.359-0.001,6.718,0,10.077
				c0,0.11,0.008,0.22,0.013,0.329l-0.005,0.012h-0.013c-0.015-0.007-0.03-0.013-0.047-0.016c0-3.554,0.002-7.108-0.005-10.662
				c0-0.174,0.034-0.208,0.208-0.208c16.078,0.005,32.156,0.004,48.234,0.01C77.895,1.387,78.05,1.282,78.035,1.483z"/>
			<path fill-rule="evenodd" clip-rule="evenodd" fill="#F7F7FC" d="M29.395,12.247c0.017,0.003,0.032,0.009,0.047,0.016
				c0,3.486,0,6.972,0.001,10.458c0,0.109,0.01,0.219,0.014,0.329c-0.005,0.009-0.012,0.015-0.022,0.018
				c-0.013-0.005-0.026-0.007-0.04-0.007C29.395,19.457,29.395,15.852,29.395,12.247z"/>
			<path fill-rule="evenodd" clip-rule="evenodd" fill="#FEFCDF" d="M29.395,23.062c0.014,0,0.027,0.002,0.04,0.007
				c0.003,0.102,0.009,0.203,0.009,0.304c0.001,3.484,0.001,6.969,0.002,10.453c-0.106-0.056-0.048-0.154-0.048-0.228
				C29.394,30.085,29.395,26.574,29.395,23.062z"/>
		</g>
	</g>
</g>
<g id="Imagenes">
</g>
<g id="Cintillos">
</g>
<g id="Botones">
</g>
<g id="TXT">
</g>
<g id="Logo">
</g>
<g id="Guia">
</g>
</svg>
