<?xml version="1.0" encoding="utf-8"?>
<!-- Generator: Adobe Illustrator 15.0.0, SVG Export Plug-In . SVG Version: 6.00 Build 0)  -->
<!DOCTYPE svg PUBLIC "-//W3C//DTD SVG 1.1//EN" "http://www.w3.org/Graphics/SVG/1.1/DTD/svg11.dtd">
<svg version="1.1" id="Capa_1" xmlns="http://www.w3.org/2000/svg" xmlns:xlink="http://www.w3.org/1999/xlink" x="0px" y="0px"
	 width="155.51px" height="83.32px" viewBox="0 0 155.51 83.32" enable-background="new 0 0 155.51 83.32" xml:space="preserve">
<g opacity="0.8">
	<path fill="#1C1C1C" d="M142.911,30.104c-3.129-7.299-8.45-12.605-15.811-15.744c-3.678-1.568-7.53-2.371-11.556-2.371
		s-7.852,0.793-11.524,2.371c-7.299,3.129-12.643,8.434-15.778,15.744c-1.571,3.662-2.337,7.5-2.337,11.525
		s0.766,7.895,2.337,11.557c3.136,7.311,8.479,12.646,15.778,15.777c3.673,1.576,7.499,2.369,11.524,2.369s7.878-0.799,11.559-2.369
		c7.357-3.139,12.679-8.479,15.808-15.777c1.577-3.674,2.371-7.531,2.371-11.557S144.488,33.779,142.911,30.104z"/>
	<path fill="#FFFFFF" d="M112.101,24.488c-0.735-0.758-1.882-0.715-2.53-0.066c-0.746,0.748-0.705,1.84-0.065,2.5l14.512,14.902
		l-14.512,14.51c-0.698,0.701-0.648,1.852,0,2.5c0.357,0.359,0.813,0.553,1.33,0.553c0.487,0,0.91-0.197,1.266-0.553l15.746-15.68
		c0.702-0.699,0.643-1.875,0-2.531L112.101,24.488z"/>
</g>
<g opacity="0.8">
	<path fill="#1C1C1C" d="M11.871,53.217c3.129,7.299,8.45,12.605,15.811,15.744c3.678,1.568,7.53,2.371,11.556,2.371
		s7.852-0.793,11.524-2.371c7.299-3.129,12.643-8.434,15.778-15.744c1.571-3.662,2.337-7.5,2.337-11.525s-0.766-7.895-2.337-11.557
		c-3.136-7.311-8.479-12.646-15.778-15.777c-3.673-1.576-7.499-2.369-11.524-2.369s-7.878,0.799-11.559,2.369
		C20.321,17.496,15,22.836,11.871,30.135C10.294,33.809,9.5,37.666,9.5,41.691S10.294,49.541,11.871,53.217z"/>
	<path fill="#FFFFFF" d="M42.681,58.832c0.735,0.758,1.882,0.715,2.53,0.066c0.746-0.748,0.705-1.84,0.065-2.5L30.765,41.496
		l14.512-14.51c0.698-0.701,0.648-1.852,0-2.5c-0.357-0.359-0.813-0.553-1.33-0.553c-0.487,0-0.91,0.197-1.266,0.553l-15.746,15.68
		c-0.702,0.699-0.643,1.875,0,2.531L42.681,58.832z"/>
</g>
</svg>
