<?xml version="1.0" encoding="utf-8"?>
<!-- Generator: Adobe Illustrator 15.0.0, SVG Export Plug-In . SVG Version: 6.00 Build 0)  -->
<!DOCTYPE svg PUBLIC "-//W3C//DTD SVG 1.1//EN" "http://www.w3.org/Graphics/SVG/1.1/DTD/svg11.dtd">
<svg version="1.1" id="Capa_1" xmlns="http://www.w3.org/2000/svg" xmlns:xlink="http://www.w3.org/1999/xlink" x="0px" y="0px"
	 width="50.068px" height="46.585px" viewBox="0 0 50.068 46.585" enable-background="new 0 0 50.068 46.585" xml:space="preserve">
<g>
	<g>
		<path fill="#EB871E" d="M39.604,18.339c-0.266,0.158-0.545,0.292-0.845,0.378c-0.317,0.089-0.646,0.134-0.976,0.134
			c-0.254,0-0.503-0.035-0.746-0.087l2.947,13.148c0.181,0.801,0.037,1.626-0.403,2.318c-0.441,0.695-1.124,1.177-1.925,1.356
			l-21.305,4.777c-0.793,0.178-1.635,0.029-2.318-0.405c-0.695-0.44-1.176-1.124-1.354-1.924L8.766,20.581
			c-0.371-1.655,0.674-3.304,2.329-3.675l17.985-4.033c-0.045-0.153-0.087-0.309-0.111-0.47c-0.117-0.783,0.035-1.574,0.41-2.258
			l-18.854,4.227c-3.051,0.684-4.979,3.725-4.295,6.776l3.913,17.454c0.332,1.48,1.22,2.739,2.501,3.55
			c0.908,0.577,1.958,0.882,3.037,0.882c0.416,0,0.834-0.047,1.24-0.137l21.305-4.777c1.478-0.332,2.738-1.219,3.551-2.499
			c0.81-1.278,1.074-2.799,0.742-4.278L39.604,18.339z"/>
		<path fill="#EB871E" d="M40.725,4.915c-1.398-0.901-2.874-1.364-4.068-1.364c-0.977,0-1.765,0.31-2.171,0.939
			c-0.505,0.783-0.314,1.896,0.394,3.011l-3.122,3.731c-0.183,0.218-0.263,0.504-0.221,0.786c0.045,0.279,0.204,0.53,0.444,0.684
			l1.219,0.785l-1.893,4.231c-0.172,0.386-0.086,0.854,0.249,1.148c0.188,0.169,0.423,0.25,0.659,0.25
			c0.272,0,0.547-0.113,0.744-0.335l3.07-3.474l1.219,0.787c0.161,0.104,0.347,0.156,0.537,0.156c0.09,0,0.179-0.012,0.268-0.037
			c0.275-0.076,0.501-0.269,0.627-0.523l2.105-4.385c0.254,0.036,0.499,0.054,0.734,0.054c0.976,0,1.764-0.308,2.172-0.939
			C44.594,9.018,43.266,6.554,40.725,4.915z"/>
		<g>
			<g>
				<path fill="#EB871E" d="M26.612,14.8c-1.285,0.271-2.145,1.493-1.964,2.795l1.284,9.293c0.057,0.404,0.277,0.771,0.613,1.006
					c0.332,0.236,0.752,0.324,1.151,0.24l0.039-0.009l1.295,7.215c0.055,0.309,0.231,0.573,0.491,0.747
					c0.26,0.176,0.576,0.229,0.885,0.164l0.941-0.201c0.627-0.131,1.043-0.734,0.908-1.361l-3.988-18.819
					C28.11,15.119,27.362,14.641,26.612,14.8z"/>
				<path fill="#EB871E" d="M21.209,15.961l-0.1,0.02c-0.227,0.049-0.363,0.258-0.316,0.487l0.854,4.034
					c0.076,0.357-0.161,0.714-0.518,0.79l-0.099,0.02c-0.355,0.076-0.722-0.152-0.797-0.51l-0.855-4.035
					c-0.049-0.229-0.258-0.364-0.485-0.315l-0.097,0.021c-0.23,0.049-0.377,0.259-0.329,0.488l0.854,4.034
					c0.076,0.358-0.152,0.713-0.512,0.789l-0.095,0.02c-0.359,0.076-0.696-0.158-0.774-0.516l-0.854-4.034
					c-0.049-0.229-0.286-0.358-0.514-0.311l-0.096,0.021c-0.229,0.049-0.383,0.261-0.334,0.49l1.293,6.102
					c0.161,0.751,0.896,1.216,1.646,1.056l0.182-0.038l2.223,12.363c0.055,0.309,0.23,0.575,0.49,0.75
					c0.261,0.175,0.58,0.229,0.887,0.164l0.904-0.19c0.304-0.065,0.574-0.244,0.74-0.511c0.17-0.266,0.22-0.584,0.146-0.889
					l-2.986-12.198l0.261-0.055c0.75-0.159,1.225-0.881,1.066-1.63l-1.295-6.103C21.655,16.045,21.438,15.911,21.209,15.961z"/>
			</g>
		</g>
	</g>
</g>
</svg>
