<?xml version="1.0" encoding="utf-8"?>
<!-- Generator: Adobe Illustrator 15.0.0, SVG Export Plug-In . SVG Version: 6.00 Build 0)  -->
<!DOCTYPE svg PUBLIC "-//W3C//DTD SVG 1.1//EN" "http://www.w3.org/Graphics/SVG/1.1/DTD/svg11.dtd">
<svg version="1.1" id="Capa_1" xmlns="http://www.w3.org/2000/svg" xmlns:xlink="http://www.w3.org/1999/xlink" x="0px" y="0px"
	 width="42.041px" height="46.585px" viewBox="0 0 42.041 46.585" enable-background="new 0 0 42.041 46.585" xml:space="preserve">
<g>
	<path fill="#1C1C1C" d="M36.405,27.159c-0.682,6.869-6.248,12.39-13.122,13.021c-8.125,0.747-15.055-5.228-15.858-12.992H5.993
		c-0.871,0-1.415-0.943-0.979-1.697l3.202-5.546c0.436-0.755,1.524-0.755,1.959,0l3.203,5.546c0.436,0.754-0.109,1.697-0.979,1.697
		h-1.247c0.811,5.797,6.207,10.146,12.396,9.238c4.579-0.672,8.293-4.284,9.071-8.847c1.165-6.829-4.089-12.771-10.706-12.771
		c-2.146,0-4.217,0.622-5.995,1.801c-0.826,0.548-1.971,0.439-2.576-0.345c-0.659-0.853-0.454-2.07,0.426-2.665
		c1.909-1.289,4.072-2.095,6.339-2.376V9.122h-1.483c-0.511,0-0.924-0.414-0.924-0.924V7.266c0-0.511,0.413-0.925,0.924-0.925h6.881
		c0.511,0,0.925,0.414,0.925,0.925v0.932c0,0.51-0.414,0.924-0.925,0.924H23.87v2.124C31.45,12.268,37.202,19.141,36.405,27.159z
		 M36.884,13.169l-2.786-2.575c-0.376-0.348-0.96-0.324-1.307,0.051l-0.737,0.798c-0.347,0.375-0.323,0.96,0.052,1.306l2.786,2.576
		c0.375,0.347,0.96,0.324,1.307-0.051l0.737-0.798C37.282,14.101,37.259,13.516,36.884,13.169z M21.869,16.708v9.04h8.95
		C30.819,20.243,26.643,16.708,21.869,16.708z"/>
</g>
</svg>
