<?xml version="1.0" encoding="utf-8"?>
<!-- Generator: Adobe Illustrator 15.0.0, SVG Export Plug-In . SVG Version: 6.00 Build 0)  -->
<!DOCTYPE svg PUBLIC "-//W3C//DTD SVG 1.1//EN" "http://www.w3.org/Graphics/SVG/1.1/DTD/svg11.dtd">
<svg version="1.1" id="Capa_1" xmlns="http://www.w3.org/2000/svg" xmlns:xlink="http://www.w3.org/1999/xlink" x="0px" y="0px"
	 width="98.367px" height="46.585px" viewBox="0 0 98.367 46.585" enable-background="new 0 0 98.367 46.585" xml:space="preserve">
<g>
	<g>
		<g>
			<g>
				<path fill="#FFFFFF" d="M25.034,5.735c-9.696,0-17.557,7.861-17.557,17.557c0,9.699,7.861,17.557,17.557,17.557
					c9.699,0,17.557-7.858,17.557-17.557C42.591,13.596,34.732,5.735,25.034,5.735z M25.034,38.509
					c-8.39,0-15.215-6.826-15.215-15.216c0-8.389,6.825-15.215,15.215-15.215c8.391,0,15.216,6.826,15.216,15.215
					C40.25,31.683,33.424,38.509,25.034,38.509z"/>
				<path fill="#FFFFFF" d="M34.397,22.123H15.67c-0.646,0-1.17,0.523-1.17,1.169c0,0.644,0.524,1.171,1.17,1.171h18.727
					c0.644,0,1.17-0.528,1.17-1.171C35.568,22.647,35.042,22.123,34.397,22.123z"/>
				<path fill="#FFFFFF" d="M34.397,15.101H15.67c-0.646,0-1.17,0.524-1.17,1.169c0,0.647,0.524,1.171,1.17,1.171h18.727
					c0.644,0,1.17-0.524,1.17-1.171C35.568,15.625,35.042,15.101,34.397,15.101z"/>
				<path fill="#FFFFFF" d="M34.397,29.145H15.67c-0.646,0-1.17,0.526-1.17,1.171c0,0.644,0.524,1.171,1.17,1.171h18.727
					c0.644,0,1.17-0.527,1.17-1.171C35.568,29.671,35.042,29.145,34.397,29.145z"/>
			</g>
		</g>
	</g>
</g>
<g>
	<g>
		<g>
			<g>
				<path fill="#FFFFFF" d="M73.679,6.907c-9.696,0-17.557,7.861-17.557,17.557c0,9.699,7.86,17.557,17.557,17.557
					c9.699,0,17.557-7.858,17.557-17.557C91.235,14.768,83.376,6.907,73.679,6.907z M73.679,39.68
					c-8.391,0-15.216-6.826-15.216-15.216c0-8.389,6.825-15.215,15.216-15.215s15.215,6.826,15.215,15.215
					C88.894,32.854,82.069,39.68,73.679,39.68z"/>
				<g>
					<path fill="#FFFFFF" d="M73.022,13.839l-6.501,6.501c-0.396,0.396-0.396,1.04,0,1.437c0.397,0.397,1.04,0.397,1.437,0
						l4.767-4.767v17.361c0,0.562,0.455,1.017,1.017,1.017c0.561,0,1.016-0.455,1.016-1.017V17.01l4.766,4.766
						c0.397,0.397,1.041,0.397,1.438,0c0.197-0.198,0.297-0.458,0.297-0.718c0-0.259-0.1-0.52-0.297-0.718l-6.501-6.501
						C74.062,13.442,73.419,13.442,73.022,13.839z"/>
				</g>
			</g>
		</g>
	</g>
</g>
</svg>
