<?xml version="1.0" encoding="utf-8"?>
<!-- Generator: Adobe Illustrator 16.0.0, SVG Export Plug-In . SVG Version: 6.00 Build 0)  -->
<!DOCTYPE svg PUBLIC "-//W3C//DTD SVG 1.1//EN" "http://www.w3.org/Graphics/SVG/1.1/DTD/svg11.dtd">
<svg version="1.1" id="Capa_1" xmlns="http://www.w3.org/2000/svg" xmlns:xlink="http://www.w3.org/1999/xlink" x="0px" y="0px"
	 width="36.303px" height="46.585px" viewBox="1.808 0 36.303 46.585" enable-background="new 1.808 0 36.303 46.585"
	 xml:space="preserve">
<g>
	<g>
		<g>
			<g>
				<g>
					<path fill="#FFFFFF" d="M18.083,10.3l-7.948,7.949c-0.485,0.484-0.485,1.272,0,1.757c0.484,0.485,1.271,0.485,1.756,0
						l5.828-5.829v21.229c0,0.688,0.557,1.244,1.245,1.244c0.685,0,1.242-0.557,1.242-1.244V14.177l5.827,5.828
						c0.486,0.486,1.273,0.486,1.759,0c0.241-0.242,0.363-0.56,0.363-0.877c0-0.317-0.122-0.636-0.363-0.878L19.842,10.3
						C19.355,9.814,18.568,9.814,18.083,10.3z"/>
				</g>
			</g>
		</g>
	</g>
</g>
</svg>
