<?xml version="1.0" encoding="utf-8"?>
<!-- Generator: Adobe Illustrator 15.0.0, SVG Export Plug-In . SVG Version: 6.00 Build 0)  -->
<!DOCTYPE svg PUBLIC "-//W3C//DTD SVG 1.1//EN" "http://www.w3.org/Graphics/SVG/1.1/DTD/svg11.dtd">
<svg version="1.1" id="Capa_1" xmlns="http://www.w3.org/2000/svg" xmlns:xlink="http://www.w3.org/1999/xlink" x="0px" y="0px"
	 width="55.51px" height="54.749px" viewBox="0 0 55.51 54.749" enable-background="new 0 0 55.51 54.749" xml:space="preserve">
<g>
	<g>
		<path fill="#FFFFFF" d="M27.755,48.874c-11.854,0-21.5-9.645-21.5-21.5c0-11.854,9.646-21.5,21.5-21.5
			c11.855,0,21.5,9.646,21.5,21.5C49.255,39.229,39.61,48.874,27.755,48.874z M27.755,6.874c-11.304,0-20.5,9.196-20.5,20.5
			s9.196,20.5,20.5,20.5s20.5-9.196,20.5-20.5S39.059,6.874,27.755,6.874z"/>
	</g>
	<g>
		<g>
			<path fill="#FFFFFF" d="M41.932,35.2c-0.081-0.242-0.593-0.6-1.537-1.071c-0.256-0.149-0.621-0.352-1.093-0.607
				c-0.471-0.256-0.898-0.492-1.283-0.708s-0.746-0.425-1.082-0.627c-0.054-0.04-0.223-0.157-0.506-0.354
				c-0.282-0.195-0.521-0.341-0.72-0.436c-0.192-0.094-0.387-0.141-0.574-0.141c-0.27,0-0.607,0.192-1.011,0.576
				c-0.405,0.385-0.774,0.802-1.113,1.254c-0.336,0.452-0.695,0.869-1.069,1.254c-0.378,0.385-0.69,0.576-0.933,0.576
				c-0.121,0-0.271-0.033-0.455-0.101c-0.182-0.067-0.319-0.126-0.413-0.172c-0.097-0.048-0.257-0.142-0.486-0.283
				s-0.355-0.219-0.385-0.232c-1.847-1.025-3.429-2.198-4.752-3.519c-1.321-1.322-2.494-2.906-3.519-4.754
				c-0.014-0.026-0.092-0.154-0.234-0.384c-0.14-0.229-0.235-0.391-0.282-0.485c-0.048-0.095-0.105-0.232-0.172-0.415
				c-0.066-0.182-0.101-0.333-0.101-0.455c0-0.243,0.192-0.553,0.577-0.93c0.384-0.377,0.802-0.735,1.254-1.072
				c0.449-0.336,0.868-0.708,1.254-1.112s0.576-0.741,0.576-1.011c0-0.189-0.047-0.381-0.142-0.577
				c-0.096-0.196-0.239-0.435-0.435-0.718c-0.196-0.283-0.314-0.451-0.354-0.506c-0.202-0.337-0.412-0.697-0.626-1.082
				c-0.218-0.384-0.454-0.812-0.71-1.284c-0.256-0.472-0.457-0.836-0.605-1.092c-0.473-0.943-0.828-1.456-1.071-1.537
				c-0.096-0.04-0.236-0.061-0.425-0.061c-0.366,0-0.84,0.068-1.426,0.203c-0.588,0.135-1.049,0.276-1.388,0.426
				c-0.672,0.282-1.387,1.104-2.142,2.466c-0.688,1.267-1.031,2.521-1.031,3.762c0,0.363,0.025,0.717,0.071,1.062
				c0.047,0.343,0.132,0.73,0.252,1.163c0.122,0.432,0.221,0.752,0.291,0.961c0.075,0.208,0.214,0.583,0.417,1.122
				c0.202,0.539,0.322,0.87,0.362,0.991c0.473,1.322,1.034,2.501,1.68,3.54c1.063,1.726,2.517,3.509,4.358,5.349
				c1.839,1.841,3.623,3.294,5.349,4.359c1.04,0.646,2.218,1.206,3.54,1.678c0.121,0.041,0.453,0.162,0.991,0.364
				c0.537,0.203,0.911,0.341,1.12,0.415s0.53,0.172,0.962,0.293c0.433,0.123,0.819,0.206,1.163,0.254
				c0.343,0.047,0.698,0.07,1.062,0.07c1.24,0,2.495-0.344,3.761-1.031c1.361-0.754,2.186-1.47,2.468-2.145
				c0.146-0.337,0.288-0.799,0.423-1.385c0.137-0.586,0.203-1.062,0.203-1.426C41.991,35.437,41.972,35.296,41.932,35.2z"/>
		</g>
	</g>
</g>
</svg>
