<?xml version="1.0" encoding="utf-8"?>
<!-- Generator: Adobe Illustrator 15.0.0, SVG Export Plug-In . SVG Version: 6.00 Build 0)  -->
<!DOCTYPE svg PUBLIC "-//W3C//DTD SVG 1.1//EN" "http://www.w3.org/Graphics/SVG/1.1/DTD/svg11.dtd">
<svg version="1.1" id="Capa_1" xmlns="http://www.w3.org/2000/svg" xmlns:xlink="http://www.w3.org/1999/xlink" x="0px" y="0px"
	 width="50.068px" height="46.585px" viewBox="0 0 50.068 46.585" enable-background="new 0 0 50.068 46.585" xml:space="preserve">
<g>
	<g>
		<g>
			<path d="M38.476,10.402h-2.584V8.639c0-1.299-1.053-2.351-2.351-2.351h-0.095c-1.297,0-2.35,1.052-2.35,2.351v1.764H18.97V8.639
				c0-1.299-1.051-2.351-2.35-2.351h-0.094c-1.299,0-2.351,1.052-2.351,2.351v1.764H11.59c-1.297,0-2.349,1.054-2.349,2.351v25.194
				c0,1.297,1.052,2.35,2.349,2.35h26.886c1.299,0,2.352-1.053,2.352-2.35V12.753C40.827,11.456,39.774,10.402,38.476,10.402z
				 M36.878,36.584H13.189V17.501h23.688V36.584z"/>
			<path d="M16.409,26.137h4.089c0.208,0,0.376-0.168,0.376-0.377v-4.089c0-0.207-0.168-0.376-0.376-0.376h-4.089
				c-0.208,0-0.375,0.169-0.375,0.376v4.089C16.034,25.969,16.201,26.137,16.409,26.137z"/>
			<path d="M22.989,26.137h4.088c0.209,0,0.378-0.168,0.378-0.377v-4.089c0-0.207-0.169-0.376-0.378-0.376h-4.088
				c-0.208,0-0.376,0.169-0.376,0.376v4.089C22.613,25.969,22.781,26.137,22.989,26.137z"/>
			<path d="M29.569,26.137h4.09c0.207,0,0.375-0.168,0.375-0.377v-4.089c0-0.207-0.168-0.376-0.375-0.376h-4.09
				c-0.207,0-0.376,0.169-0.376,0.376v4.089C29.193,25.969,29.362,26.137,29.569,26.137z"/>
			<path d="M16.409,32.717h4.089c0.208,0,0.376-0.168,0.376-0.377v-4.088c0-0.209-0.168-0.377-0.376-0.377h-4.089
				c-0.208,0-0.375,0.168-0.375,0.377v4.088C16.034,32.549,16.201,32.717,16.409,32.717z"/>
			<path d="M22.989,32.717h4.088c0.209,0,0.378-0.168,0.378-0.377v-4.088c0-0.209-0.169-0.377-0.378-0.377h-4.088
				c-0.208,0-0.376,0.168-0.376,0.377v4.088C22.613,32.549,22.781,32.717,22.989,32.717z"/>
			<path d="M29.569,32.717h4.09c0.207,0,0.375-0.168,0.375-0.377v-4.088c0-0.209-0.168-0.377-0.375-0.377h-4.09
				c-0.207,0-0.376,0.168-0.376,0.377v4.088C29.193,32.549,29.362,32.717,29.569,32.717z"/>
		</g>
	</g>
</g>
</svg>
