<?xml version="1.0" encoding="utf-8"?>
<!-- Generator: Adobe Illustrator 15.0.0, SVG Export Plug-In . SVG Version: 6.00 Build 0)  -->
<!DOCTYPE svg PUBLIC "-//W3C//DTD SVG 1.1//EN" "http://www.w3.org/Graphics/SVG/1.1/DTD/svg11.dtd">
<svg version="1.1" id="Capa_1" xmlns="http://www.w3.org/2000/svg" xmlns:xlink="http://www.w3.org/1999/xlink" x="0px" y="0px"
	 width="49.388px" height="45.905px" viewBox="0 0 49.388 45.905" enable-background="new 0 0 49.388 45.905" xml:space="preserve">
<g>
	<path d="M32.095,12.935V6.709c0-0.993-0.811-1.805-1.804-1.805H8.038c-0.992,0-1.805,0.812-1.805,1.805v1.173v23.517v0.813
		c0,0.661,0.391,1.291,0.963,1.594l13.712,7.096c0.602,0.302,1.324-0.119,1.324-0.812v-6.916h8.06c0.993,0,1.804-0.813,1.804-1.805
		v-9.864h-3.608v7.157c0,0.512-0.391,0.903-0.901,0.903h-5.324v-9.264v-5.863v-0.182c0-0.661-0.391-1.293-0.962-1.593l-8.09-4.15
		h14.375c0.511,0,0.901,0.391,0.901,0.902v3.548h3.608V12.935z"/>
	<path d="M36.727,9.986l5.864,5.864c0.752,0.751,0.752,1.865,0,2.616l-5.864,5.864c-0.752,0.751-1.896,0.782-2.646,0.029
		c-0.722-0.72-0.632-1.924,0.06-2.646l2.646-2.616H26.533c-0.512,0-1.022-0.211-1.354-0.602c-0.842-0.901-0.631-2.495,0.452-3.098
		c0.271-0.149,0.602-0.24,0.902-0.24h10.255c0,0-2.616-2.616-2.646-2.616c-0.692-0.691-0.782-1.924-0.06-2.616
		C34.802,9.204,35.975,9.235,36.727,9.986z"/>
</g>
</svg>
