<?xml version="1.0" encoding="utf-8"?>
<!-- Generator: Adobe Illustrator 15.0.0, SVG Export Plug-In . SVG Version: 6.00 Build 0)  -->
<!DOCTYPE svg PUBLIC "-//W3C//DTD SVG 1.1//EN" "http://www.w3.org/Graphics/SVG/1.1/DTD/svg11.dtd">
<svg version="1.1" id="Capa_1" xmlns="http://www.w3.org/2000/svg" xmlns:xlink="http://www.w3.org/1999/xlink" x="0px" y="0px"
	 width="50.068px" height="46.585px" viewBox="0 0 50.068 46.585" enable-background="new 0 0 50.068 46.585" xml:space="preserve">
<g>
	<g>
		<path fill="#1C1C1C" d="M16.806,22.472v8.377c0,0.683,0.555,1.235,1.238,1.235h16.359c0.682,0,1.234-0.553,1.234-1.235v-9.014
			c1.492-0.749,2.75-1.78,3.498-3.189c1.543-2.902,1.662-5.713,0.34-7.915c-1.318-2.193-3.895-3.451-7.068-3.451
			c-2.271,0-4.303,0.995-5.967,2.257c-1.486-1.645-4.355-3.146-7.42-3.066c-1.98,0.052-4.787,0.785-6.924,3.989
			c-1.1,1.651-1.438,3.395-1.004,5.185C11.917,19.028,15.36,21.543,16.806,22.472z M14.155,11.833
			c1.244-1.865,2.902-2.837,4.928-2.889c2.209-0.052,4.436,1.048,5.506,2.229c-1.688,1.707-2.705,3.357-2.791,3.502
			c-0.355,0.582-0.17,1.342,0.414,1.697c0.584,0.354,1.344,0.17,1.699-0.415c0.037-0.062,3.836-6.201,8.496-6.201
			c2.283,0,4.088,0.821,4.947,2.251c0.859,1.427,0.715,3.371-0.402,5.476c-2.053,3.856-10.797,4.012-13.996,3.747
			c-0.678-0.061-1.279,0.45-1.334,1.13c-0.057,0.682,0.447,1.28,1.129,1.337c0.137,0.012,1.07,0.084,2.436,0.084
			c2.082,0,5.17-0.173,7.977-0.993v6.823H19.28v-7.835c0-0.449-0.244-0.863-0.637-1.082c-0.043-0.024-4.381-2.474-5.146-5.64
			C13.231,13.953,13.446,12.899,14.155,11.833z"/>
		<path fill="#1C1C1C" d="M5.335,33.801v2.042c0,0,5.959-0.114,7.281-0.114c1.32,0,3.316,4.389,4.588,4.389s13.639,0,15.334,0
			s3.967-4.389,5.514-4.389c1.545,0,6.682,0,6.682,0v-2.045L5.335,33.801z"/>
	</g>
</g>
</svg>
