<?xml version="1.0" encoding="utf-8"?>
<!-- Generator: Adobe Illustrator 15.0.0, SVG Export Plug-In . SVG Version: 6.00 Build 0)  -->
<!DOCTYPE svg PUBLIC "-//W3C//DTD SVG 1.1//EN" "http://www.w3.org/Graphics/SVG/1.1/DTD/svg11.dtd">
<svg version="1.1" id="Capa_1" xmlns="http://www.w3.org/2000/svg" xmlns:xlink="http://www.w3.org/1999/xlink" x="0px" y="0px"
	 width="54.149px" height="54.749px" viewBox="0 0 54.149 54.749" enable-background="new 0 0 54.149 54.749" xml:space="preserve">
<g>
	<g>
		<path fill="#EB871E" d="M27.076,11.112c-8.982,0-16.263,7.281-16.263,16.262c0,6.472,3.791,12.043,9.263,14.66l0.51-9.835
			c0,0-0.958-0.314-1.168-0.416c-2.03-0.896-3.505-3.529-3.505-6.947c0-3.73,2.893-6.943,5.689-6.97c0.003,0,0.003,0,0.005,0
			c0.001,0,0.004,0,0.006,0c2.797,0.026,5.69,3.239,5.69,6.97c0,3.418-1.478,6.051-3.504,6.947
			c-0.016,0.007-1.177,0.428-1.177,0.428l0.568,10.936c1.247,0.308,2.544,0.487,3.887,0.487c1.811,0,3.544-0.309,5.17-0.854
			l0.504-9.745c-1.328-0.292-2.459-1.137-3.169-2.197c-0.879-1.316,0.677-12.973,0.677-12.973h1.012v10.938h1.006V17.866h1.1v10.938
			h1V17.866h1.14v10.938h1.005V17.866h0.775c0,0,1.557,11.655,0.676,12.973c-0.702,1.049-1.824,1.893-3.135,2.191
			c-0.023,0.008-0.045,0.016-0.045,0.016l0.438,8.384c4.845-2.816,8.109-8.049,8.109-14.055
			C43.337,18.393,36.057,11.112,27.076,11.112z"/>
		<path fill="#EB871E" d="M18.293,23.183c0.059-0.237,0.137-0.462,0.14-0.467c0.026-0.088-0.021-0.18-0.118-0.237
			c-0.091-0.049-0.203-0.024-0.255,0.056c0,0-0.111,0.178-0.272,0.439c-0.131,0.225-0.325,0.585-0.458,1.033
			c-0.114,0.394-0.252,0.916-0.313,1.501c-0.026,0.307-0.033,0.584-0.022,0.87c0.022,0.325,0.071,0.603,0.166,0.922
			c0.319,0.908,0.565,1.787,1.453,2.654c0.28,0.289,0.569,0.485,0.777,0.63l0.074,0.053c0.044,0.028,0.087,0.056,0.129,0.08
			c0.175,0.093,0.292,0.125,0.313,0.13c0.088,0.023,0.177-0.02,0.214-0.09c0.034-0.073,0.01-0.166-0.063-0.226
			c0,0-0.102-0.088-0.232-0.253c-0.088-0.1-0.185-0.245-0.297-0.408c-0.08-0.115-0.173-0.246-0.26-0.373
			c-0.434-0.66-0.683-1.582-1.027-2.526c-0.067-0.205-0.123-0.47-0.144-0.695c-0.027-0.26-0.041-0.511-0.041-0.743
			c-0.01-0.541,0.015-1.004,0.062-1.38C18.172,23.728,18.215,23.409,18.293,23.183z"/>
		<path fill="#EB871E" d="M27.076,8.092c-10.631,0-19.283,8.65-19.283,19.282c0,10.629,8.652,19.282,19.283,19.282
			s19.281-8.653,19.281-19.282C46.357,16.742,37.707,8.092,27.076,8.092z M27.076,45.218c-9.84,0-17.846-8.005-17.846-17.844
			c0-9.84,8.006-17.846,17.846-17.846c9.839,0,17.845,8.006,17.845,17.846C44.921,37.213,36.915,45.218,27.076,45.218z"/>
	</g>
</g>
</svg>
