<?xml version="1.0" encoding="utf-8"?>
<!-- Generator: Adobe Illustrator 15.0.0, SVG Export Plug-In . SVG Version: 6.00 Build 0)  -->
<!DOCTYPE svg PUBLIC "-//W3C//DTD SVG 1.1//EN" "http://www.w3.org/Graphics/SVG/1.1/DTD/svg11.dtd">
<svg version="1.1" id="Capa_1" xmlns="http://www.w3.org/2000/svg" xmlns:xlink="http://www.w3.org/1999/xlink" x="0px" y="0px"
	 width="56.189px" height="60.871px" viewBox="0 0 56.189 60.871" enable-background="new 0 0 56.189 60.871" xml:space="preserve">
<path opacity="0.7" fill="#FFFFFF" d="M28.095,7.752c-12.528,0-22.683,10.156-22.683,22.684c0,12.529,10.153,22.684,22.683,22.684
	c12.527,0,22.683-10.154,22.683-22.684C50.778,17.908,40.623,7.752,28.095,7.752z M33.53,38.744h3.681l-3.979,4.24v-3.941
	C33.231,38.877,33.364,38.744,33.53,38.744z M31.769,45.563H17.497c-0.403,0-0.73-0.326-0.73-0.729V16.479
	c0-0.404,0.327-0.73,0.73-0.73h21.196c0.403,0,0.73,0.326,0.73,0.73v20.802H33.53c-0.972,0-1.761,0.791-1.761,1.763V45.563
	L31.769,45.563z M20.24,19.988c0,0.402,0.326,0.73,0.729,0.73h12.788c0.403,0,0.729-0.328,0.729-0.73
	c0-0.404-0.326-0.732-0.729-0.732H20.97C20.567,19.256,20.24,19.584,20.24,19.988z M20.24,24.443c0,0.404,0.326,0.732,0.729,0.732
	h12.788c0.403,0,0.729-0.328,0.729-0.732c0-0.402-0.326-0.73-0.729-0.73H20.97C20.567,23.713,20.24,24.041,20.24,24.443z
	 M20.24,28.9c0,0.404,0.326,0.732,0.729,0.732h10.509c0.404,0,0.731-0.328,0.731-0.732c0-0.402-0.327-0.73-0.731-0.73H20.97
	C20.567,28.17,20.24,28.498,20.24,28.9z M20.97,34.09h14.56c0.404,0,0.731-0.326,0.731-0.73c0-0.403-0.327-0.729-0.731-0.729H20.97
	c-0.403,0-0.729,0.326-0.729,0.729C20.24,33.764,20.567,34.09,20.97,34.09z"/>
</svg>
