<?xml version="1.0" encoding="utf-8"?>
<!-- Generator: Adobe Illustrator 15.0.0, SVG Export Plug-In . SVG Version: 6.00 Build 0)  -->
<!DOCTYPE svg PUBLIC "-//W3C//DTD SVG 1.1//EN" "http://www.w3.org/Graphics/SVG/1.1/DTD/svg11.dtd">
<svg version="1.1" id="Capa_1" xmlns="http://www.w3.org/2000/svg" xmlns:xlink="http://www.w3.org/1999/xlink" x="0px" y="0px"
	 width="185.442px" height="86.721px" viewBox="0 0 185.442 86.721" enable-background="new 0 0 185.442 86.721"
	 xml:space="preserve">
<g>
	<g>
		<path fill="#FFFFFF" d="M91.296,57.548c0.34,0.228-0.568,1.931-1.363,2.952c-2.157,2.498-3.52,3.52-6.245,5.109
			c-2.498,1.362-9.083,4.769-10.446,0c-1.362-5.109,6.017-16.009,10.9-18.28c1.703-0.908,3.974-0.908,4.769,1.249
			c2.725,7.607-7.04,11.468-12.036,13.853c-0.454,0.113-0.794,0.227-1.249,0.34c-0.454,1.249-0.567,2.385-0.34,3.293
			c0.681,1.476,5.563-0.454,7.721-1.816c3.065-1.931,3.747-2.611,5.791-4.655C89.479,58.57,90.842,57.322,91.296,57.548z
			 M76.422,60.955c5.223-2.157,12.49-5.904,11.127-11.354c-0.34-0.682-1.589,0-2.725,0.908
			C81.531,52.78,78.352,56.981,76.422,60.955z"/>
		<path fill="#FFFFFF" d="M89.591,65.61c0,0.795,0.454,0.908,0.908,0.908c2.043,0,8.175-4.882,8.175-5.109
			c0.113-0.113,0.794-0.227,0.794,0.113c0.114,0.682-0.794,1.363-0.794,1.363c-6.245,5.449-8.175,5.109-8.402,5.109
			c-2.725,0.113-2.498-2.498-2.498-2.498c0-8.743,19.756-32.359,20.438-32.359c0.454-0.454,0.795-0.567,1.021-0.567
			c0.795,0,1.021,1.135,1.021,1.589c0,1.022-0.566,1.931-0.566,1.931l-8.063,9.878C89.818,61.75,89.591,64.702,89.591,65.61z"/>
		<path fill="#FFFFFF" d="M115.705,57.548c0.341,0.228-0.567,1.931-1.362,2.952c-2.158,2.498-3.52,3.52-6.245,5.109
			c-2.498,1.362-9.083,4.769-10.446,0c-1.361-5.109,6.018-16.009,10.9-18.28c1.703-0.908,3.975-0.908,4.77,1.249
			c2.725,7.607-7.041,11.468-12.036,13.853c-0.454,0.113-0.794,0.227-1.249,0.34c-0.454,1.249-0.567,2.385-0.34,3.293
			c0.681,1.476,5.563-0.454,7.721-1.816c3.064-1.931,3.746-2.611,5.79-4.655C113.888,58.57,115.251,57.322,115.705,57.548z
			 M100.831,60.955c5.223-2.157,12.49-5.904,11.127-11.354c-0.34-0.682-1.59,0-2.725,0.908
			C105.94,52.78,102.761,56.981,100.831,60.955z M107.644,44.037c-0.568,0-0.908-0.113-0.908-0.113c0-0.113,0-0.113,0.113-0.113
			c3.293-0.908,3.293-4.769,6.699-4.769c0.682,0,1.021,0.341,1.021,0.908C114.569,42.674,109.006,44.037,107.644,44.037z"/>
		<path fill="#FFFFFF" d="M123.651,46.875c0.567,0,0.795,0.228,0.795,0.682s-0.341,1.021-0.455,1.135
			c-9.082,12.49-9.877,16.123-9.877,16.123c-0.113,0.341-0.113,0.567-0.113,0.795c0,0.795,0.566,0.908,0.908,0.908
			c1.703,0.228,8.174-4.882,8.174-5.109c0.228-0.113,0.455-0.113,0.568-0.113s0.227,0.113,0.227,0.227
			c0,0.454-0.795,1.363-0.795,1.363c-5.903,5.223-8.174,5.109-8.401,5.109c-2.611-0.114-2.498-2.498-2.498-2.498
			c0-4.088,3.179-10.105,7.835-16.805C120.699,47.898,122.402,46.875,123.651,46.875z M123.765,43.128
			c0-1.589,1.816-4.087,3.066-4.087c0.453,0,0.794,0.341,0.794,1.021c0,1.816-1.816,4.088-2.952,4.088c-0.227,0-0.34,0-0.454-0.114
			C123.878,43.923,123.765,43.583,123.765,43.128z"/>
		<path fill="#FFFFFF" d="M143.974,34.159c0,1.022-0.568,1.931-0.568,1.931l-7.039,8.629h0.795c0.568,0,1.59,0,1.59,0.682
			c0,0.795-1.021,0.795-1.59,0.795h-1.93C123.65,61.75,123.31,64.588,123.31,65.61c0,0.795,0.568,0.908,0.908,0.908
			c2.157,0.228,8.176-4.882,8.176-5.109c0.227-0.113,0.453-0.113,0.566-0.113c0.114,0,0.228,0.113,0.228,0.227
			c0,0.682-0.794,1.363-0.794,1.363c-6.699,5.903-8.176,5.109-8.402,5.109c-2.726,0-2.498-2.498-2.498-2.498
			c0-4.542,4.314-12.035,9.764-19.302h-4.882c-0.681,0-1.476,0-1.476-0.795c0-0.682,0.795-0.682,1.476-0.682h6.019
			c8.287-10.899,9.877-12.263,10.331-12.263C143.521,32.456,143.974,33.25,143.974,34.159z"/>
		<path fill="#FFFFFF" d="M149.423,57.548c0.34,0.228-0.568,1.931-1.363,2.952c-2.157,2.498-3.52,3.52-6.244,5.109
			c-2.498,1.362-9.084,4.769-10.446,0c-1.362-5.109,6.018-16.009,10.899-18.28c1.703-0.908,3.975-0.908,4.77,1.249
			c2.725,7.607-7.039,11.468-12.035,13.853c-0.455,0.113-0.795,0.227-1.25,0.34c-0.453,1.249-0.566,2.385-0.34,3.293
			c0.681,1.476,5.563-0.454,7.721-1.816c3.065-1.931,3.746-2.611,5.791-4.655C147.605,58.57,148.968,57.322,149.423,57.548z
			 M134.548,60.955c5.224-2.157,12.49-5.904,11.127-11.354c-0.34-0.682-1.589,0-2.725,0.908
			C139.657,52.78,136.479,56.981,134.548,60.955z"/>
		<path fill="#FFFFFF" d="M142.722,61.863c0-2.044,1.703-4.087,4.088-4.087c0.454,0,1.136,0.113,1.703,0.34
			c1.477-1.93,3.18-3.52,7.267-10.218c0.114-0.114-0.682-1.703,1.703-1.249c2.726,0.567,3.86,12.376,0.795,17.03
			c1.703,0.114,4.429-1.248,4.769-1.248c0.113,0,0.113,0,0.113,0.113c0,0.454-2.271,2.498-4.995,2.498c-0.228,0-0.567,0-0.795-0.114
			c-2.839,3.066-4.769,2.839-7.04,2.952c-2.725,0.114-5.449-1.135-6.926-3.633C142.949,63.453,142.722,62.771,142.722,61.863z
			 M146.923,59.138c-1.248,0-2.725,1.59-2.725,3.179c0,0.228,0,0.341,0.113,0.568c0.795-1.022,2.044-2.385,3.18-3.634
			C147.264,59.251,147.15,59.138,146.923,59.138z M144.539,63.566c0.908,1.59,3.634,2.839,5.903,2.839
			c2.158,0,3.634-1.022,4.543-2.385c-2.158-1.135-4.429-2.838-6.246-4.087C147.264,61.409,145.675,62.771,144.539,63.566z
			 M149.762,58.797c2.044,1.362,4.201,3.065,6.132,3.974c2.043-3.52,1.476-12.603,0.567-12.716
			c-1.931,2.838-3.974,5.903-6.132,8.175C150.103,58.457,149.989,58.684,149.762,58.797z"/>
		<path fill="#FFFFFF" d="M179.282,57.548c0.34,0.228-0.568,1.931-1.363,2.952c-2.157,2.498-3.52,3.52-6.244,5.109
			c-2.499,1.362-9.084,4.769-10.446,0c-1.362-5.109,6.018-16.009,10.899-18.28c1.703-0.908,3.975-0.908,4.77,1.249
			c2.725,7.607-7.039,11.468-12.035,13.853c-0.455,0.113-0.795,0.227-1.25,0.34c-0.453,1.249-0.566,2.385-0.34,3.293
			c0.682,1.476,5.563-0.454,7.721-1.816c3.065-1.931,3.746-2.611,5.791-4.655C177.465,58.57,178.827,57.322,179.282,57.548z
			 M164.407,60.955c5.224-2.157,12.49-5.904,11.127-11.354c-0.34-0.682-1.589,0-2.725,0.908
			C169.517,52.78,166.338,56.981,164.407,60.955z"/>
	</g>
	<g>
		<path fill="#F7931E" d="M64.084,70.012c-1.206,0.937-2.425,1.761-3.602,2.477c-4.515,2.747-9.905,4.811-15.451,6.005h133.886
			v-8.481H64.084z"/>
	</g>
	<g>
		<g>
			<g>
				<path fill="#FFFFFF" d="M88.044,25.458c0.117-0.89,0.135-1.792,0.049-2.692c-0.043-0.448-0.115-0.895-0.214-1.339
					c-0.103-0.441-0.231-0.88-0.393-1.304c-0.166-0.427-0.357-0.843-0.584-1.243c-0.116-0.199-0.237-0.391-0.368-0.584
					c-0.058-0.084-0.131-0.185-0.198-0.277c-0.068-0.092-0.138-0.182-0.208-0.271c-0.574-0.707-1.248-1.336-2.012-1.843
					c-0.381-0.25-0.785-0.467-1.203-0.646c-0.203-0.087-0.411-0.162-0.623-0.229c-1.343-0.424-2.376-0.562-3.753-0.292
					c-1.923,0.379-1.115,0.972-2.11-0.969c-0.426-0.83-0.924-1.632-1.529-2.344c-1.221-1.427-2.889-2.405-4.67-2.956
					c-0.784-0.245-1.608-0.407-2.429-0.467c-2.641-0.191-5.315,0.663-7.478,2.191c-2.219,1.568-0.771,1.486-2.905-0.161
					c-0.513-0.395-1.042-0.747-1.626-1.028c-0.924-0.441-2.027-0.724-3.044-0.792c-3.25-0.221-6.457,1.252-8.686,3.524
					c-1.45,1.476-2.427,3.475-2.787,5.466c-0.18,0.996-0.206,2.024-0.063,3.054c0.137,1.016,0.417,2.01,0.819,2.952
					c0.207,0.471,0.444,0.928,0.713,1.367c0.235,0.386,0.501,0.763,0.787,1.114c1.081,1.329,2.479,2.299,4.088,2.875
					c2.269,0.813,5.103,0.609,7.269-0.435c1.342-0.645,1.948-1.145,2.213-1.309c0.304-0.19,0.465-0.021,0.664,0.23
					c0.39,0.498,0.796,0.906,1.274,1.32c0.78,0.68,1.681,1.226,2.628,1.636s1.942,0.716,2.966,0.907
					c1.019,0.189,1.909,0.227,2.963,0.17c0.53-0.033,1.222-0.119,1.732-0.243c0.263-0.066,0.406-0.107,0.695-0.192
					c0.205-0.056,0.324-0.064,0.48,0.085c0.103,0.097,0.6,0.734,0.705,0.854c0.108,0.118,0.222,0.235,0.337,0.351
					c0.397,0.395,0.81,0.756,1.234,1.122c0.525,0.456,0.057,0.132,0.634,4.19c0.061,0.428,0.31,1.709,0.34,1.893
					c0.03,0.188-0.012,0.293-0.212,0.164c-0.098-0.064-0.643-0.52-0.805-0.645c-0.337-0.263-0.682-0.525-1.025-0.779
					c-0.346-0.255-0.696-0.506-1.05-0.75c-1.51-1.044-3.104-1.979-4.775-2.763c-0.836-0.393-1.69-0.743-2.562-1.058
					c-0.874-0.313-1.747-0.59-2.633-0.837c-0.889-0.245-1.794-0.451-2.718-0.579c-0.924-0.126-1.868-0.178-2.816-0.065
					c-0.473,0.054-0.946,0.149-1.403,0.301c-0.117,0.038-0.229,0.077-0.346,0.126c-0.105,0.042-0.224,0.09-0.335,0.146
					c-0.228,0.114-0.442,0.251-0.642,0.412c-0.396,0.324,2.104-0.889,5.417-0.079c1.11,0.268,2.242,0.475,3.333,0.803
					c0.961,0.292,1.918,0.618,2.864,0.982c3.289,1.263,6.444,3.006,9.05,5.393c1.183,1.088,1.791,1.88,2.099,1.599
					c0.13-0.113,0.072-0.295,0.017-0.438c-0.067-0.176-0.129-0.349-0.191-0.529c-0.185-0.529-0.382-1.053-0.548-1.589
					c-0.188-0.6-0.364-1.203-0.513-1.814c-0.146-0.611-0.277-1.231-0.365-1.857c-0.024-0.158-0.034-0.32-0.045-0.481
					c-0.023-0.255-0.152-1.479,0.419-1.142c0.113,0.067,0.226,0.127,0.343,0.186c0.786,0.389,1.643,0.649,2.52,0.767
					c0.878,0.117,1.773,0.093,2.645-0.057c1.749-0.305,3.399-1.092,4.781-2.212c0.691-0.56,1.316-1.208,1.852-1.925
					c0.532-0.719,0.971-1.518,1.29-2.359C87.716,27.226,87.929,26.347,88.044,25.458z M86.583,27.767
					c-0.529,1.559-1.516,2.953-2.779,4.042c-1.258,1.085-2.79,1.881-4.429,2.22c-0.818,0.173-1.664,0.229-2.499,0.152
					c-0.832-0.078-1.597-0.342-2.369-0.686c-0.386-0.17-0.757-0.376-1.115-0.605c-0.359-0.227-0.708-0.473-1.044-0.736
					c-0.337-0.261-0.631-0.524-0.917-0.836c-0.211-0.232-0.836-0.862-0.457-1.07c0.212-0.114,0.395-0.159,0.61-0.272
					c0.223-0.116,0.447-0.215,0.663-0.345c0.439-0.258,0.862-0.532,1.259-0.85c0.122-0.096,0.236-0.198,0.35-0.301
					c0.296-0.276,0.56-0.585,0.798-0.915c0.245-0.339,0.445-0.686,0.581-1.15c0.062-0.211-0.032-0.226-0.116-0.048
					c-0.05,0.106-0.11,0.219-0.165,0.321c-0.134,0.245-0.286,0.475-0.452,0.694c-0.656,0.874-1.545,1.454-2.536,1.892
					c-0.443,0.199-0.904,0.376-1.374,0.507c-0.609,0.172-1.235,0.299-1.861,0.395c-1.093,0.17-2.215,0.19-3.32,0.085
					c-1.113-0.109-2.231-0.376-3.283-0.772c-0.916-0.336-1.972-0.983-2.747-1.576c-0.388-0.298-0.749-0.622-1.083-0.984
					c-0.334-0.359-0.654-0.741-0.954-1.139c-0.3-0.396-0.53-0.801-0.779-1.231c-0.061-0.104-0.119-0.206-0.174-0.313
					c-0.122-0.224-0.227-0.455-0.317-0.697c-0.026-0.073-0.071-0.272-0.139-0.317c-0.085-0.054-0.136,0.034-0.13,0.116
					c0.011,0.117,0.047,0.23,0.088,0.342c0.048,0.135,0.081,0.227,0.14,0.358c0.211,0.493,0.48,0.958,0.716,1.439
					c0.134,0.271,0.201,0.596,0.015,0.864c-0.184,0.269-0.417,0.438-0.694,0.608c-0.538,0.333-1.119,0.585-1.72,0.782
					c-0.376,0.122-0.758,0.21-1.143,0.279c-1.35,0.244-2.768,0.208-4.106-0.072c-0.905-0.188-1.76-0.539-2.532-1.035
					c-1.549-0.983-2.769-2.467-3.566-4.145c-0.399-0.842-0.691-1.737-0.852-2.657c-0.653-3.831,1.314-7.262,4.3-9.519
					c3.219-2.435,8.011-2.536,11.167,0.208c0.474,0.414,0.671,0.63,0.958,0.93c0.357,0.373,0.528,0.05,1.171-0.486
					c2.1-1.754,4.975-2.694,7.685-2.605c3.592,0.116,6.818,1.821,8.622,5.378c0.958,1.887,0.476,1.615,1.97,1.35
					c1.567-0.283,3.121-0.036,4.519,0.68c0.357,0.184,0.7,0.402,1.024,0.646c0.647,0.483,1.22,1.07,1.702,1.723
					c0.976,1.291,1.537,2.851,1.763,4.478C87.259,24.512,87.116,26.21,86.583,27.767z"/>
			</g>
			<g>
				<path fill="#FFFFFF" d="M88.044,25.458c0.243-1.941,0.044-3.966-0.755-5.762c-0.795-1.786-2.201-3.308-3.943-4.195
					c-0.435-0.223-0.893-0.393-1.365-0.525c-0.469-0.135-0.946-0.244-1.432-0.293c-0.968-0.103-1.961,0.027-2.877,0.342
					l-0.347,0.131c-0.061,0.014-0.129,0.04-0.215,0.016c-0.084-0.033-0.124-0.1-0.154-0.153c-0.12-0.227-0.205-0.452-0.312-0.672
					c-0.206-0.442-0.437-0.877-0.685-1.296c-0.495-0.84-1.083-1.633-1.802-2.289c-1.433-1.327-3.291-2.138-5.195-2.495
					c-1.916-0.357-3.906-0.123-5.717,0.562c-0.907,0.342-1.772,0.792-2.57,1.337c-0.399,0.273-0.785,0.568-1.145,0.886l-0.273,0.246
					c-0.048,0.041-0.096,0.084-0.16,0.129c-0.032,0.023-0.069,0.049-0.126,0.07c-0.055,0.021-0.146,0.029-0.215,0.003
					c-0.131-0.051-0.172-0.111-0.225-0.157L58.4,11.203c-0.082-0.091-0.164-0.176-0.248-0.261c-0.338-0.336-0.711-0.639-1.105-0.922
					c-0.388-0.28-0.795-0.54-1.221-0.751c-0.852-0.417-1.793-0.671-2.737-0.779c-1.902-0.195-3.846,0.235-5.553,1.092
					c-0.856,0.426-1.658,0.96-2.389,1.578c-0.731,0.625-1.383,1.32-1.905,2.111c-1.051,1.578-1.683,3.452-1.733,5.337
					c-0.044,1.878,0.482,3.784,1.403,5.419c0.919,1.649,2.326,2.998,4.031,3.782c1.687,0.813,3.636,0.974,5.48,0.634
					c0.928-0.173,1.803-0.475,2.641-0.924c0.423-0.217,0.832-0.454,1.224-0.716l0.294-0.202c0.104-0.069,0.19-0.143,0.353-0.229
					c0.123-0.063,0.235-0.101,0.398-0.106c0.16-0.004,0.327,0.057,0.432,0.126c0.21,0.142,0.291,0.271,0.372,0.365
					c0.301,0.378,0.604,0.701,0.957,1.02l0.258,0.229l0.283,0.234c0.18,0.142,0.36,0.274,0.557,0.406
					c0.773,0.525,1.626,0.928,2.521,1.24c0.898,0.314,1.808,0.544,2.751,0.662c0.928,0.11,1.882,0.101,2.82-0.011
					c0.234-0.027,0.468-0.062,0.693-0.104c0.223-0.044,0.44-0.103,0.677-0.169c0.121-0.034,0.219-0.067,0.393-0.104
					c0.099-0.02,0.231-0.036,0.387,0.005c0.151,0.036,0.279,0.12,0.35,0.187c0.168,0.153,0.215,0.237,0.303,0.337l0.231,0.29
					c0.292,0.391,0.604,0.676,0.965,1.021l0.535,0.481l0.274,0.242c0.049,0.044,0.102,0.089,0.167,0.158
					c0.066,0.065,0.154,0.188,0.197,0.31c0.077,0.245,0.063,0.367,0.075,0.499l0.016,0.371c0.01,0.241,0.024,0.479,0.043,0.719
					c0.036,0.479,0.085,0.963,0.143,1.444c0.105,0.981,0.284,1.875,0.465,2.905c0.008,0.063,0.011,0.112,0.002,0.199
					c-0.007,0.042-0.015,0.095-0.045,0.167c-0.024,0.064-0.095,0.173-0.204,0.236c-0.107,0.066-0.23,0.079-0.297,0.072
					c-0.08-0.005-0.124-0.021-0.167-0.032c-0.081-0.031-0.125-0.06-0.169-0.086c-0.086-0.057-0.141-0.102-0.188-0.14l-0.146-0.117
					l-0.563-0.457c-0.389-0.304-0.771-0.595-1.164-0.881c-0.786-0.579-1.586-1.124-2.408-1.635
					c-1.644-1.018-3.385-1.908-5.187-2.605c-0.897-0.349-1.828-0.658-2.756-0.934c-0.934-0.279-1.867-0.508-2.818-0.658
					c-0.951-0.147-1.906-0.213-2.85-0.116c-0.471,0.045-0.931,0.137-1.378,0.277c-0.443,0.14-0.866,0.324-1.213,0.604l-0.029,0.022
					c-0.016,0.009-0.011,0.019,0.026-0.037c0.162-0.349-0.406-0.533-0.239-0.43c-0.01,0.002,0.003,0,0.011-0.001l0.163-0.035
					l0.362-0.083c0.245-0.055,0.491-0.102,0.74-0.143c0.497-0.077,1-0.122,1.503-0.131c1.001-0.024,2.023,0.109,2.978,0.368
					c0.947,0.23,1.915,0.426,2.868,0.71c0.945,0.286,1.879,0.607,2.8,0.96c1.84,0.707,3.633,1.554,5.316,2.583
					c1.686,1.024,3.267,2.232,4.659,3.628c0.351,0.337,0.686,0.719,1.067,0.973c0.097,0.061,0.192,0.086,0.242,0.048
					c0.068-0.043,0.077-0.12,0.049-0.229l-0.238-0.688c-0.328-0.924-0.636-1.86-0.889-2.813c-0.244-0.951-0.472-1.91-0.549-2.899
					c-0.021-0.243-0.04-0.493-0.019-0.744c0.011-0.125,0.027-0.255,0.089-0.378c0.03-0.063,0.087-0.128,0.169-0.15
					c0.083-0.022,0.158,0.003,0.219,0.029c0.433,0.248,0.872,0.448,1.333,0.606c1.846,0.648,3.906,0.572,5.748-0.075
					c1.847-0.643,3.514-1.804,4.76-3.314C87.047,29.298,87.79,27.401,88.044,25.458z M88.044,25.458
					c-0.243,1.944-0.973,3.85-2.234,5.367c-1.242,1.523-2.908,2.7-4.764,3.36c-1.851,0.661-3.931,0.755-5.807,0.108
					c-0.466-0.156-0.926-0.365-1.347-0.603c-0.218-0.127-0.296,0.18-0.308,0.401c-0.017,0.239,0,0.479,0.023,0.726
					c0.083,0.969,0.315,1.93,0.563,2.873c0.256,0.944,0.568,1.87,0.914,2.79c0.081,0.235,0.169,0.451,0.253,0.698
					c0.017,0.068,0.03,0.141,0.017,0.224c-0.015,0.086-0.068,0.164-0.138,0.211c-0.072,0.055-0.175,0.063-0.25,0.047
					c-0.077-0.017-0.14-0.047-0.199-0.081c-0.441-0.286-0.761-0.651-1.123-0.984c-1.402-1.364-2.981-2.531-4.663-3.518
					c-1.683-0.99-3.465-1.803-5.299-2.474c-0.917-0.335-1.845-0.639-2.783-0.906c-0.933-0.261-1.894-0.439-2.856-0.658
					c-0.944-0.238-1.891-0.345-2.85-0.312c-0.478,0.018-0.954,0.069-1.425,0.15c-0.236,0.041-0.47,0.091-0.705,0.146l-0.352,0.087
					c-0.063,0.016-0.121,0.031-0.198,0.045c-0.022,0.004-0.041,0.008-0.081,0.01c0.143,0.109-0.482-0.08-0.293-0.466
					c0.054-0.08,0.083-0.091,0.089-0.102l0.044-0.033c0.416-0.345,0.905-0.564,1.392-0.728c0.486-0.162,0.995-0.271,1.498-0.327
					c1.009-0.121,2.031-0.066,3.019,0.073c0.988,0.14,1.97,0.365,2.919,0.635c0.958,0.267,1.896,0.563,2.832,0.911
					c1.873,0.69,3.659,1.561,5.355,2.605c0.848,0.52,1.675,1.074,2.473,1.654c0.402,0.289,0.802,0.592,1.189,0.889l0.582,0.467
					l0.141,0.112l0.106,0.08c0.008,0.006,0.019,0.011-0.006-0.001c-0.016,0.001-0.098-0.057-0.286,0.041
					c-0.083,0.048-0.133,0.133-0.147,0.166c-0.02,0.047-0.02,0.064-0.023,0.077c-0.002,0.027-0.001,0.015-0.001,0.017
					c-0.167-0.898-0.375-1.932-0.483-2.903c-0.061-0.491-0.116-0.985-0.156-1.485c-0.021-0.248-0.037-0.497-0.049-0.749
					l-0.018-0.363c-0.004-0.111-0.02-0.238-0.021-0.229c0,0.007,0.016,0.026-0.004,0.004c-0.019-0.02-0.058-0.054-0.102-0.094
					l-0.28-0.241l-0.561-0.5c-0.351-0.326-0.762-0.714-1.059-1.111l-0.23-0.282c-0.071-0.087-0.168-0.203-0.184-0.215
					c-0.018-0.017,0,0.007,0.032,0.012c0.039,0.006,0.044,0.002,0.023,0.006c-0.066,0.015-0.202,0.055-0.316,0.089
					c-0.236,0.067-0.492,0.14-0.751,0.189c-0.255,0.052-0.507,0.091-0.76,0.123c-1.01,0.126-2.032,0.141-3.053,0.028
					c-1.005-0.12-2.014-0.361-2.965-0.698c-0.955-0.341-1.89-0.787-2.738-1.369c-0.209-0.145-0.421-0.303-0.629-0.467l-0.282-0.236
					l-0.29-0.261c-0.373-0.341-0.741-0.737-1.049-1.133c-0.071-0.094-0.143-0.165-0.139-0.157c0.001,0.002,0.047,0.021,0.083,0.02
					c0.042-0.004,0.034-0.004,0.049-0.011c-0.058,0.025-0.165,0.105-0.264,0.172l-0.314,0.213c-0.425,0.281-0.869,0.534-1.319,0.763
					c-0.896,0.475-1.897,0.814-2.902,0.994c-2.005,0.36-4.161,0.171-6.02-0.739c-0.927-0.44-1.789-1.024-2.531-1.737
					c-0.188-0.179-0.363-0.358-0.539-0.558c-0.091-0.099-0.166-0.191-0.246-0.285c-0.086-0.104-0.16-0.202-0.24-0.304
					c-0.153-0.201-0.301-0.413-0.447-0.633c-0.13-0.202-0.267-0.431-0.391-0.647c-0.508-0.898-0.87-1.841-1.114-2.833
					c-0.244-0.993-0.363-2.002-0.319-3.028c0.089-2.045,0.796-4.022,1.943-5.69c0.573-0.837,1.288-1.577,2.06-2.213
					c0.778-0.639,1.629-1.187,2.536-1.622c1.809-0.87,3.854-1.291,5.865-1.055c1.001,0.13,1.979,0.41,2.882,0.87
					c0.451,0.232,0.871,0.508,1.273,0.809c0.397,0.297,0.785,0.619,1.136,0.981c0.088,0.089,0.174,0.183,0.256,0.274l0.119,0.132
					c0.033,0.037,0.081,0.07,0.065,0.062c-0.01-0.003-0.036-0.002-0.035,0c0,0,0.017-0.008,0.035-0.02
					c0.037-0.026,0.082-0.063,0.125-0.101l0.278-0.242c0.381-0.325,0.781-0.622,1.198-0.896c0.83-0.549,1.725-0.999,2.66-1.332
					c1.865-0.674,3.92-0.883,5.866-0.487c1.937,0.394,3.796,1.256,5.251,2.604c0.729,0.674,1.316,1.48,1.813,2.332
					c0.249,0.425,0.476,0.859,0.681,1.309c0.105,0.224,0.195,0.457,0.303,0.666c0.058,0.115,0.117,0.133,0.24,0.087l0.344-0.124
					c0.938-0.316,1.939-0.441,2.924-0.333c0.491,0.056,0.973,0.168,1.444,0.309c0.472,0.135,0.937,0.311,1.374,0.538
					c1.753,0.905,3.155,2.444,3.943,4.244C88.114,21.49,88.298,23.518,88.044,25.458z"/>
				<path fill="#FFFFFF" d="M86.583,27.767c-0.933,2.744-3.229,4.928-5.934,5.917c-1.356,0.485-2.831,0.702-4.269,0.47
					c-1.428-0.271-2.754-0.947-3.909-1.818c-0.587-0.431-1.12-0.922-1.567-1.521c-0.05-0.077-0.099-0.166-0.125-0.269
					c-0.032-0.096-0.017-0.256,0.089-0.338c0.18-0.124,0.349-0.171,0.511-0.245c0.313-0.153,0.646-0.313,0.941-0.504
					c0.604-0.374,1.196-0.789,1.676-1.307c0.467-0.518,0.905-1.102,1.084-1.765c0.011-0.037,0.019-0.078,0.018-0.086
					c0.001-0.003-0.003-0.003,0.003,0.014c-0.002-0.002,0.028,0.072,0.101,0.081c0.075,0.006,0.078-0.014,0.089-0.016
					c0.005-0.002,0.005-0.005,0.002-0.001c-0.019,0.021-0.069,0.134-0.105,0.205c-0.085,0.169-0.167,0.327-0.269,0.487
					c-0.198,0.321-0.418,0.611-0.675,0.889c-0.512,0.543-1.133,0.971-1.789,1.306c-1.307,0.682-2.764,1.03-4.203,1.221
					c-1.472,0.173-2.938,0.125-4.393-0.183c-0.725-0.149-1.429-0.362-2.12-0.631c-0.7-0.29-1.34-0.654-1.959-1.061
					c-0.303-0.199-0.618-0.43-0.895-0.652c-0.297-0.242-0.571-0.495-0.832-0.767c-0.502-0.542-0.986-1.091-1.401-1.736
					c-0.203-0.32-0.381-0.621-0.568-0.948c-0.173-0.298-0.37-0.729-0.458-1.021c-0.001,0.002-0.009-0.019,0.002,0.006
					c0.003-0.001,0.035,0.061,0.129,0.103c-0.003-0.008-0.056-0.016,0.062,0.018c0.087,0.014,0.151,0.001,0.209-0.025
					c0.111-0.052,0.151-0.132,0.166-0.165c0.035-0.072,0.011-0.167,0.025-0.081c0.009,0.056,0.012,0.04,0.019,0.075
					c0.011,0.031,0.021,0.064,0.036,0.103l0.046,0.125l0.094,0.229c0.14,0.315,0.298,0.613,0.47,0.937l0.255,0.496
					c0.094,0.193,0.182,0.438,0.169,0.725c-0.004,0.142-0.042,0.295-0.109,0.431c-0.016,0.034-0.036,0.067-0.056,0.1l-0.036,0.055
					l-0.021,0.027c-0.025,0.033-0.052,0.072-0.098,0.123c-0.158,0.188-0.325,0.32-0.497,0.437c-0.083,0.059-0.163,0.109-0.249,0.16
					c-0.078,0.048-0.151,0.094-0.239,0.142c-0.176,0.1-0.342,0.184-0.516,0.265c-0.349,0.161-0.69,0.296-1.063,0.416
					c-1.443,0.451-2.978,0.563-4.468,0.382c-0.74-0.093-1.498-0.242-2.213-0.526c-0.714-0.271-1.395-0.666-1.996-1.11
					c-1.227-0.909-2.204-2.106-2.922-3.427c-0.706-1.32-1.177-2.799-1.267-4.319c-0.095-1.522,0.219-3.063,0.857-4.433
					c0.63-1.378,1.568-2.587,2.661-3.601c0.558-0.504,1.121-0.967,1.776-1.373c0.644-0.397,1.335-0.717,2.052-0.951
					c2.854-0.949,6.188-0.485,8.556,1.399c0.299,0.235,0.568,0.481,0.835,0.742c0.134,0.131,0.262,0.267,0.385,0.399
					c0.062,0.063,0.13,0.139,0.167,0.175c0.043,0.036,0.047,0.024,0.015,0.024c-0.026,0.008,0.022-0.003,0.075-0.043
					c0.056-0.04,0.121-0.096,0.186-0.151c0.132-0.116,0.272-0.24,0.417-0.358c0.281-0.229,0.591-0.459,0.896-0.658
					c1.239-0.813,2.627-1.377,4.066-1.684c1.441-0.313,2.928-0.351,4.381-0.105c1.447,0.241,2.853,0.777,4.058,1.617
					c1.209,0.832,2.197,1.961,2.912,3.227c0.181,0.318,0.341,0.645,0.495,0.971c0.159,0.323,0.288,0.676,0.463,0.96
					c0.049,0.066,0.096,0.107,0.16,0.118c0.067,0.014,0.154,0.003,0.239-0.012l0.527-0.107c0.354-0.073,0.717-0.125,1.081-0.147
					c1.453-0.089,2.928,0.285,4.162,1.045c1.236,0.761,2.229,1.879,2.937,3.134c0.7,1.268,1.072,2.694,1.192,4.131
					C87.222,24.942,87.051,26.404,86.583,27.767z M86.583,27.767c0.464-1.365,0.628-2.826,0.509-4.261
					c-0.125-1.433-0.505-2.856-1.207-4.115c-0.706-1.25-1.716-2.338-2.947-3.077c-1.23-0.736-2.685-1.086-4.111-0.979
					c-0.354,0.025-0.708,0.08-1.058,0.157l-0.528,0.118c-0.091,0.017-0.187,0.034-0.299,0.018c-0.119-0.016-0.215-0.104-0.271-0.182
					c-0.209-0.327-0.331-0.654-0.5-0.977c-0.159-0.32-0.325-0.639-0.508-0.945c-0.726-1.226-1.711-2.3-2.898-3.078
					c-1.179-0.787-2.543-1.272-3.943-1.476c-1.395-0.208-2.84-0.14-4.209,0.187c-1.374,0.325-2.69,0.896-3.847,1.69
					c-0.292,0.201-0.56,0.406-0.831,0.639c-0.134,0.112-0.259,0.23-0.396,0.354c-0.07,0.063-0.141,0.127-0.232,0.193
					c-0.089,0.064-0.203,0.152-0.409,0.171c-0.217,0.015-0.381-0.099-0.472-0.18c-0.096-0.085-0.147-0.144-0.212-0.209
					c-0.124-0.129-0.248-0.253-0.374-0.371c-0.254-0.236-0.522-0.471-0.795-0.678c-1.102-0.834-2.427-1.355-3.792-1.537
					c-1.369-0.186-2.776-0.033-4.079,0.409c-0.649,0.223-1.274,0.52-1.852,0.888c-0.566,0.358-1.119,0.819-1.622,1.29
					c-1.009,0.955-1.848,2.086-2.417,3.334c-0.571,1.243-0.842,2.616-0.753,3.977c0.009,0.172,0.027,0.337,0.046,0.5
					c0.021,0.161,0.05,0.371,0.081,0.51c0.061,0.338,0.144,0.671,0.244,1.001c0.197,0.653,0.468,1.289,0.796,1.897
					c0.65,1.212,1.541,2.302,2.629,3.118c1.094,0.835,2.367,1.317,3.748,1.472c1.368,0.167,2.773,0.094,4.091-0.305
					c0.646-0.199,1.275-0.476,1.836-0.841c0.13-0.084,0.244-0.182,0.32-0.269c0.123-0.148,0.111-0.137,0.127-0.224
					c0.005-0.074-0.02-0.184-0.082-0.314l-0.235-0.467c-0.162-0.315-0.337-0.656-0.484-1.004c-0.038-0.086-0.074-0.182-0.105-0.271
					l-0.045-0.129c-0.017-0.049-0.033-0.101-0.049-0.156c-0.014-0.051-0.037-0.152-0.04-0.188c0.001-0.002-0.04-0.188,0.032-0.346
					c0.029-0.076,0.099-0.192,0.251-0.267c0.079-0.033,0.164-0.053,0.275-0.033c0.14,0.032,0.108,0.035,0.125,0.039
					c0.134,0.063,0.198,0.159,0.223,0.197c0.038,0.06,0.046,0.085,0.065,0.124c0.125,0.395,0.226,0.626,0.402,0.959
					c0.165,0.303,0.347,0.626,0.524,0.918c0.175,0.297,0.376,0.564,0.598,0.846c0.216,0.275,0.442,0.544,0.679,0.808
					c0.233,0.253,0.485,0.491,0.74,0.713c0.282,0.232,0.545,0.435,0.84,0.639c0.576,0.397,1.188,0.761,1.817,1.035
					c0.646,0.267,1.32,0.485,2.007,0.645c1.358,0.321,2.812,0.401,4.205,0.264c1.416-0.157,2.813-0.459,4.085-1.089
					c0.633-0.307,1.225-0.696,1.712-1.194c0.24-0.247,0.462-0.529,0.65-0.818c0.095-0.141,0.182-0.301,0.264-0.454
					c0.049-0.083,0.061-0.144,0.151-0.268c0.012-0.014,0.028-0.03,0.05-0.047c0.029-0.015,0.054-0.048,0.15-0.04
					c0.095,0.014,0.142,0.109,0.145,0.131c0.012,0.036,0.012,0.059,0.012,0.08c-0.002,0.081-0.02,0.13-0.032,0.177
					c-0.498,1.457-1.703,2.453-2.947,3.172c-0.318,0.19-0.64,0.337-0.975,0.494c-0.168,0.071-0.35,0.131-0.469,0.208
					c-0.088,0.056-0.027,0.235,0.063,0.375c0.402,0.566,0.934,1.074,1.504,1.501c1.131,0.877,2.433,1.561,3.841,1.847
					c1.414,0.244,2.889,0.06,4.239-0.423C83.334,32.674,85.639,30.507,86.583,27.767z"/>
			</g>
		</g>
	</g>
	<g>
		<g>
			<path fill="#FFFCFD" d="M76.336,77.186c-0.287,0.103-0.853,0.272-1.522,0.272c-0.75,0-1.368-0.191-1.854-0.655
				c-0.427-0.411-0.691-1.073-0.691-1.846c0.007-1.479,1.022-2.56,2.685-2.56c0.574,0,1.022,0.125,1.236,0.229l-0.155,0.521
				c-0.265-0.117-0.596-0.213-1.096-0.213c-1.206,0-1.993,0.75-1.993,1.993c0,1.258,0.757,2,1.912,2
				c0.419,0,0.706-0.059,0.854-0.132v-1.479h-1.008v-0.515h1.633V77.186z"/>
			<path fill="#FFFCFD" d="M83.715,75.847l-0.515,1.56h-0.662l1.684-4.957h0.772l1.692,4.957h-0.684l-0.53-1.56H83.715z
				 M85.34,75.347l-0.485-1.427c-0.11-0.323-0.184-0.617-0.258-0.904h-0.014c-0.074,0.294-0.154,0.596-0.25,0.897l-0.486,1.434
				H85.34z"/>
			<path fill="#FFFCFD" d="M92.924,76.627c0.287,0.176,0.706,0.323,1.147,0.323c0.654,0,1.037-0.346,1.037-0.846
				c0-0.463-0.266-0.729-0.934-0.985c-0.81-0.287-1.31-0.706-1.31-1.405c0-0.771,0.64-1.346,1.603-1.346
				c0.508,0,0.876,0.118,1.096,0.243l-0.176,0.521c-0.162-0.088-0.492-0.235-0.941-0.235c-0.677,0-0.934,0.405-0.934,0.743
				c0,0.463,0.302,0.691,0.985,0.956c0.84,0.323,1.266,0.729,1.266,1.456c0,0.765-0.566,1.427-1.736,1.427
				c-0.478,0-1-0.14-1.264-0.316L92.924,76.627z"/>
			<path fill="#FFFCFD" d="M103.177,72.994h-1.508V72.45h3.67v0.544h-1.516v4.413h-0.646V72.994z"/>
			<path fill="#FFFCFD" d="M111.487,72.516c0.324-0.066,0.787-0.104,1.229-0.104c0.684,0,1.125,0.125,1.434,0.405
				c0.25,0.22,0.391,0.559,0.391,0.941c0,0.654-0.412,1.088-0.934,1.265v0.021c0.382,0.133,0.609,0.486,0.728,1.001
				c0.161,0.691,0.279,1.169,0.382,1.36h-0.661c-0.081-0.14-0.191-0.566-0.331-1.185c-0.146-0.684-0.412-0.941-0.993-0.963h-0.603
				v2.147h-0.641V72.516z M112.128,74.774h0.654c0.684,0,1.117-0.375,1.117-0.941c0-0.64-0.463-0.92-1.14-0.927
				c-0.309,0-0.529,0.029-0.632,0.059V74.774z"/>
			<path fill="#FFFCFD" d="M125.278,74.876c0,1.707-1.037,2.611-2.302,2.611c-1.31,0-2.229-1.015-2.229-2.516
				c0-1.574,0.979-2.604,2.302-2.604C124.403,72.369,125.278,73.406,125.278,74.876z M121.432,74.958
				c0,1.06,0.574,2.008,1.581,2.008c1.016,0,1.59-0.934,1.59-2.06c0-0.985-0.516-2.015-1.582-2.015
				C121.962,72.891,121.432,73.869,121.432,74.958z"/>
			<path fill="#FFFCFD" d="M131.708,77.407V72.45h0.699l1.588,2.508c0.367,0.581,0.654,1.104,0.89,1.61l0.015-0.007
				c-0.059-0.662-0.073-1.265-0.073-2.037V72.45h0.603v4.957h-0.646l-1.574-2.516c-0.346-0.552-0.676-1.117-0.926-1.654
				l-0.023,0.007c0.037,0.625,0.053,1.221,0.053,2.045v2.118H131.708z"/>
			<path fill="#FFFCFD" d="M146.382,74.876c0,1.707-1.037,2.611-2.302,2.611c-1.31,0-2.229-1.015-2.229-2.516
				c0-1.574,0.979-2.604,2.302-2.604C145.507,72.369,146.382,73.406,146.382,74.876z M142.536,74.958c0,1.06,0.573,2.008,1.58,2.008
				c1.016,0,1.59-0.934,1.59-2.06c0-0.985-0.516-2.015-1.582-2.015C143.065,72.891,142.536,73.869,142.536,74.958z"/>
			<path fill="#FFFCFD" d="M156.989,75.23c-0.037-0.691-0.08-1.522-0.073-2.141h-0.022c-0.169,0.581-0.375,1.199-0.625,1.883
				l-0.875,2.405h-0.485l-0.802-2.361c-0.235-0.698-0.434-1.338-0.574-1.927h-0.014c-0.016,0.618-0.053,1.449-0.096,2.191
				l-0.133,2.126h-0.61l0.346-4.957h0.815l0.847,2.397c0.206,0.61,0.375,1.155,0.5,1.67h0.022c0.125-0.5,0.301-1.045,0.521-1.67
				l0.883-2.397h0.816l0.309,4.957h-0.625L156.989,75.23z"/>
			<path fill="#FFFCFD" d="M165.722,71.325l-0.941,0.86h-0.522l0.677-0.86H165.722z M164.964,72.45v4.957h-0.64V72.45H164.964z"/>
			<path fill="#FFFCFD" d="M172.479,75.847l-0.516,1.56h-0.661l1.685-4.957h0.771l1.691,4.957h-0.684l-0.529-1.56H172.479z
				 M174.104,75.347l-0.485-1.427c-0.11-0.323-0.184-0.617-0.257-0.904h-0.016c-0.073,0.294-0.154,0.596-0.25,0.897l-0.484,1.434
				H174.104z"/>
		</g>
	</g>
	<g>
		<path fill="#FFFFFF" d="M6.087,66.321c0-0.474,0.237-0.71,0.71-0.828c3.314-0.829,3.551,5.445,4.025,5.682
			c4.853,4.025,15.152,5.919,22.965,5.919c15.626,0,36.46-8.878,36.46-26.635c0-7.813-4.38-13.851-12.548-14.561
			c-3.788,0-6.748,0.118-9.944,2.96c-1.539,1.302-1.894,4.972-2.368,7.931c3.315-5.208,6.037-9.115,6.037-9.115
			c0.355-0.71,0.71-0.828,1.066-0.828c0.829,0,1.302,1.42,1.302,2.013c0,0.946-0.473,1.775-0.473,1.775l-7.458,11.009
			C35.09,67.032,34.735,72.713,34.735,73.423c0,0.947-0.592,1.185-0.947,1.185c-0.947,0-1.066-0.474-1.066-0.947
			c0-5.091,5.564-15.862,11.246-24.623c0-2.367,0.237-8.996,3.078-11.364c3.433-2.959,7.221-3.433,11.128-3.195
			c8.286,0.473,15.507,6.037,15.507,15.98c0,18.94-22.965,28.411-39.301,28.411c-4.854,0-9.707-0.711-14.206-2.013
			C16.031,76.146,6.087,72.003,6.087,66.321z"/>
	</g>
</g>
</svg>
