<?xml version="1.0" encoding="utf-8"?>
<!-- Generator: Adobe Illustrator 15.0.0, SVG Export Plug-In . SVG Version: 6.00 Build 0)  -->
<!DOCTYPE svg PUBLIC "-//W3C//DTD SVG 1.1//EN" "http://www.w3.org/Graphics/SVG/1.1/DTD/svg11.dtd">
<svg version="1.1" id="Capa_1" xmlns="http://www.w3.org/2000/svg" xmlns:xlink="http://www.w3.org/1999/xlink" x="0px" y="0px"
	 width="185.442px" height="86.721px" viewBox="0 0 185.442 86.721" enable-background="new 0 0 185.442 86.721"
	 xml:space="preserve">
<g>
	<g>
		<path d="M91.302,57.478c0.339,0.227-0.565,1.922-1.355,2.937c-2.146,2.486-3.502,3.503-6.214,5.085
			c-2.486,1.356-9.039,4.746-10.394,0c-1.356-5.085,5.987-15.93,10.846-18.19c1.694-0.903,3.954-0.903,4.745,1.243
			c2.711,7.57-7.005,11.412-11.977,13.784c-0.452,0.113-0.79,0.225-1.243,0.337c-0.452,1.244-0.564,2.374-0.339,3.278
			c0.678,1.469,5.537-0.452,7.683-1.808c3.05-1.921,3.729-2.598,5.762-4.632C89.495,58.495,90.851,57.252,91.302,57.478z
			 M76.501,60.867c5.198-2.146,12.429-5.874,11.073-11.298c-0.339-0.678-1.581,0-2.712,0.904
			C81.586,52.733,78.422,56.914,76.501,60.867z"/>
		<path d="M89.607,65.5c0,0.792,0.451,0.904,0.903,0.904c2.034,0,8.136-4.858,8.136-5.084c0.113-0.112,0.791-0.226,0.791,0.113
			c0.112,0.678-0.791,1.356-0.791,1.356c-6.214,5.423-8.136,5.084-8.361,5.084c-2.712,0.113-2.485-2.486-2.485-2.486
			c0-8.7,19.659-32.2,20.336-32.2c0.452-0.452,0.79-0.565,1.017-0.565c0.791,0,1.017,1.129,1.017,1.582
			c0,1.017-0.564,1.921-0.564,1.921l-8.022,9.829C89.833,61.659,89.607,64.596,89.607,65.5z"/>
		<path d="M115.591,57.478c0.338,0.227-0.565,1.922-1.356,2.937c-2.147,2.486-3.502,3.503-6.214,5.085
			c-2.485,1.356-9.039,4.746-10.394,0c-1.355-5.085,5.989-15.93,10.847-18.19c1.694-0.903,3.954-0.903,4.745,1.243
			c2.71,7.57-7.005,11.412-11.977,13.784c-0.452,0.113-0.79,0.225-1.243,0.337c-0.452,1.244-0.566,2.374-0.339,3.278
			c0.678,1.469,5.536-0.452,7.683-1.808c3.05-1.921,3.729-2.598,5.761-4.632C113.783,58.495,115.14,57.252,115.591,57.478z
			 M100.791,60.867c5.198-2.146,12.429-5.874,11.072-11.298c-0.339-0.678-1.581,0-2.711,0.904
			C105.875,52.733,102.711,56.914,100.791,60.867z M107.57,44.033c-0.565,0-0.904-0.113-0.904-0.113c0-0.113,0-0.113,0.113-0.113
			c3.276-0.903,3.276-4.745,6.667-4.745c0.677,0,1.016,0.339,1.016,0.904C114.461,42.677,108.925,44.033,107.57,44.033z"/>
		<path d="M123.499,46.857c0.564,0,0.791,0.226,0.791,0.678s-0.339,1.017-0.453,1.129c-9.039,12.429-9.829,16.044-9.829,16.044
			c-0.113,0.339-0.113,0.565-0.113,0.791c0,0.792,0.564,0.904,0.903,0.904c1.695,0.226,8.135-4.858,8.135-5.084
			c0.227-0.112,0.452-0.112,0.565-0.112c0.112,0,0.226,0.112,0.226,0.225c0,0.452-0.792,1.356-0.792,1.356
			c-5.875,5.197-8.135,5.084-8.361,5.084c-2.597-0.114-2.485-2.486-2.485-2.486c0-4.067,3.163-10.056,7.795-16.722
			C120.562,47.875,122.255,46.857,123.499,46.857z M123.611,43.129c0-1.581,1.808-4.067,3.051-4.067c0.452,0,0.79,0.339,0.79,1.016
			c0,1.808-1.807,4.069-2.937,4.069c-0.226,0-0.338,0-0.453-0.114C123.725,43.92,123.611,43.581,123.611,43.129z"/>
		<path d="M143.722,34.204c0,1.017-0.566,1.921-0.566,1.921l-7.004,8.586h0.791c0.565,0,1.582,0,1.582,0.678
			c0,0.791-1.017,0.791-1.582,0.791h-1.921c-11.524,15.479-11.863,18.304-11.863,19.319c0,0.792,0.565,0.904,0.904,0.904
			c2.146,0.226,8.135-4.858,8.135-5.084c0.227-0.112,0.452-0.112,0.564-0.112c0.113,0,0.227,0.112,0.227,0.225
			c0,0.678-0.792,1.356-0.792,1.356c-6.666,5.875-8.135,5.084-8.361,5.084c-2.711,0-2.485-2.486-2.485-2.486
			c0-4.52,4.293-11.975,9.716-19.207h-4.858c-0.677,0-1.469,0-1.469-0.791c0-0.678,0.792-0.678,1.469-0.678h5.988
			c8.248-10.846,9.829-12.202,10.281-12.202C143.27,32.509,143.722,33.299,143.722,34.204z"/>
		<path d="M149.143,57.478c0.338,0.227-0.564,1.922-1.355,2.937c-2.147,2.486-3.503,3.503-6.214,5.085
			c-2.486,1.356-9.039,4.746-10.395,0c-1.356-5.085,5.988-15.93,10.846-18.19c1.695-0.903,3.955-0.903,4.746,1.243
			c2.71,7.57-7.005,11.412-11.977,13.784c-0.452,0.113-0.791,0.225-1.243,0.337c-0.452,1.244-0.564,2.374-0.339,3.278
			c0.678,1.469,5.536-0.452,7.683-1.808c3.05-1.921,3.729-2.598,5.762-4.632C147.335,58.495,148.691,57.252,149.143,57.478z
			 M134.342,60.867c5.198-2.146,12.429-5.874,11.072-11.298c-0.338-0.678-1.582,0-2.711,0.904
			C139.426,52.733,136.263,56.914,134.342,60.867z"/>
		<path d="M142.476,61.771c0-2.034,1.694-4.066,4.067-4.066c0.451,0,1.13,0.113,1.695,0.338c1.469-1.921,3.164-3.503,7.231-10.168
			c0.111-0.113-0.679-1.695,1.694-1.244c2.711,0.566,3.841,12.315,0.791,16.947c1.694,0.114,4.406-1.242,4.745-1.242
			c0.113,0,0.113,0,0.113,0.113c0,0.451-2.259,2.485-4.97,2.485c-0.226,0-0.565,0-0.791-0.114c-2.825,3.052-4.746,2.825-7.004,2.938
			c-2.712,0.114-5.424-1.129-6.892-3.615C142.701,63.353,142.476,62.674,142.476,61.771z M146.656,59.06
			c-1.242,0-2.712,1.582-2.712,3.163c0,0.227,0,0.339,0.113,0.565c0.791-1.017,2.034-2.374,3.164-3.616
			C146.995,59.172,146.883,59.06,146.656,59.06z M144.283,63.466c0.904,1.582,3.616,2.826,5.876,2.826
			c2.146,0,3.614-1.018,4.519-2.374c-2.147-1.13-4.406-2.824-6.214-4.067C146.995,61.319,145.414,62.674,144.283,63.466z
			 M149.481,58.721c2.034,1.356,4.18,3.05,6.1,3.953c2.036-3.501,1.47-12.539,0.566-12.652c-1.92,2.824-3.955,5.875-6.1,8.134
			C149.819,58.382,149.707,58.609,149.481,58.721z"/>
		<path d="M178.855,57.478c0.34,0.227-0.565,1.922-1.355,2.937c-2.147,2.486-3.502,3.503-6.214,5.085
			c-2.486,1.356-9.039,4.746-10.395,0c-1.355-5.085,5.989-15.93,10.846-18.19c1.696-0.903,3.956-0.903,4.746,1.243
			c2.712,7.57-7.004,11.412-11.976,13.784c-0.452,0.113-0.792,0.225-1.242,0.337c-0.453,1.244-0.565,2.374-0.34,3.278
			c0.677,1.469,5.536-0.452,7.683-1.808c3.05-1.921,3.727-2.598,5.761-4.632C177.048,58.495,178.403,57.252,178.855,57.478z
			 M164.055,60.867c5.197-2.146,12.428-5.874,11.072-11.298c-0.338-0.678-1.582,0-2.711,0.904
			C169.139,52.733,165.975,56.914,164.055,60.867z"/>
	</g>
	<g>
		<path fill="#F7931E" d="M64.225,69.881c-1.2,0.931-2.413,1.751-3.584,2.463c-4.493,2.733-9.856,4.786-15.375,5.976h133.227v-8.439
			H64.225z"/>
	</g>
	<g>
		<g>
			<g>
				<path d="M88.067,25.546c0.117-0.885,0.133-1.783,0.048-2.68c-0.042-0.445-0.114-0.89-0.212-1.333
					c-0.103-0.439-0.23-0.875-0.392-1.297c-0.165-0.424-0.355-0.839-0.581-1.237c-0.115-0.198-0.235-0.389-0.366-0.582
					c-0.058-0.083-0.131-0.184-0.197-0.276c-0.068-0.091-0.137-0.181-0.207-0.27c-0.572-0.704-1.242-1.33-2.002-1.834
					c-0.38-0.249-0.781-0.465-1.198-0.644c-0.202-0.086-0.408-0.162-0.619-0.229c-1.336-0.421-2.365-0.558-3.734-0.291
					c-1.913,0.377-1.11,0.967-2.1-0.964c-0.424-0.826-0.919-1.624-1.521-2.332c-1.215-1.42-2.875-2.394-4.647-2.941
					c-0.78-0.244-1.601-0.406-2.417-0.465c-2.627-0.19-5.289,0.66-7.44,2.181c-2.208,1.561-0.768,1.479-2.891-0.16
					c-0.511-0.393-1.038-0.744-1.619-1.024c-0.919-0.439-2.016-0.72-3.029-0.788c-3.233-0.22-6.425,1.246-8.643,3.507
					c-1.443,1.469-2.416,3.458-2.773,5.439c-0.179,0.991-0.205,2.015-0.063,3.039c0.137,1.01,0.414,2,0.815,2.938
					c0.206,0.468,0.442,0.922,0.709,1.36c0.233,0.384,0.499,0.758,0.783,1.108c1.075,1.323,2.467,2.287,4.068,2.861
					c2.257,0.808,5.078,0.606,7.233-0.432c1.334-0.642,1.938-1.139,2.202-1.303c0.302-0.189,0.462-0.02,0.66,0.23
					c0.388,0.495,0.793,0.901,1.268,1.313c0.776,0.676,1.672,1.219,2.615,1.628c0.942,0.408,1.934,0.712,2.952,0.902
					c1.014,0.189,1.9,0.226,2.949,0.169c0.527-0.033,1.216-0.119,1.724-0.243c0.262-0.065,0.403-0.106,0.691-0.19
					c0.204-0.056,0.322-0.064,0.478,0.084c0.102,0.096,0.596,0.73,0.702,0.851c0.107,0.117,0.22,0.234,0.334,0.348
					c0.396,0.393,0.807,0.752,1.228,1.117c0.522,0.454,0.057,0.131,0.631,4.169c0.06,0.426,0.308,1.702,0.338,1.884
					c0.03,0.188-0.012,0.291-0.21,0.163c-0.097-0.064-0.64-0.517-0.802-0.641c-0.335-0.262-0.678-0.523-1.02-0.776
					c-0.345-0.254-0.691-0.503-1.044-0.747c-1.502-1.039-3.089-1.969-4.751-2.749c-0.832-0.39-1.682-0.739-2.55-1.053
					c-0.87-0.312-1.739-0.586-2.621-0.832c-0.884-0.244-1.785-0.45-2.705-0.576c-0.919-0.126-1.859-0.177-2.802-0.065
					c-0.471,0.054-0.942,0.149-1.396,0.299c-0.116,0.038-0.228,0.076-0.344,0.125c-0.105,0.042-0.223,0.089-0.333,0.146
					c-0.226,0.113-0.44,0.249-0.639,0.41c-0.394,0.323,2.093-0.884,5.39-0.079c1.104,0.267,2.231,0.473,3.316,0.799
					c0.957,0.291,1.909,0.615,2.849,0.978c3.274,1.256,6.414,2.991,9.005,5.366c1.178,1.083,1.782,1.871,2.089,1.591
					c0.129-0.113,0.072-0.294,0.017-0.436c-0.066-0.176-0.128-0.347-0.189-0.527c-0.185-0.527-0.381-1.047-0.546-1.582
					c-0.187-0.596-0.362-1.197-0.511-1.805c-0.145-0.608-0.276-1.225-0.363-1.849c-0.025-0.157-0.033-0.318-0.045-0.479
					c-0.022-0.254-0.151-1.471,0.417-1.136c0.112,0.067,0.224,0.126,0.341,0.185c0.783,0.387,1.635,0.646,2.507,0.763
					c0.874,0.116,1.765,0.093,2.632-0.056c1.741-0.304,3.382-1.086,4.757-2.201c0.688-0.557,1.31-1.202,1.842-1.915
					c0.529-0.716,0.966-1.511,1.284-2.349C87.74,27.305,87.953,26.431,88.067,25.546z M86.612,27.843
					c-0.527,1.551-1.507,2.938-2.765,4.022c-1.252,1.08-2.776,1.872-4.407,2.208c-0.814,0.173-1.656,0.228-2.486,0.152
					c-0.828-0.078-1.59-0.34-2.357-0.682c-0.385-0.168-0.753-0.375-1.109-0.603c-0.358-0.226-0.705-0.471-1.039-0.734
					c-0.335-0.259-0.629-0.521-0.912-0.832c-0.211-0.231-0.833-0.857-0.455-1.065c0.21-0.113,0.392-0.158,0.607-0.271
					c0.222-0.116,0.445-0.214,0.66-0.343c0.436-0.256,0.857-0.53,1.252-0.845c0.122-0.095,0.235-0.197,0.348-0.3
					c0.294-0.274,0.558-0.583,0.795-0.91c0.243-0.337,0.443-0.682,0.578-1.145c0.061-0.21-0.032-0.225-0.115-0.047
					c-0.05,0.105-0.109,0.218-0.164,0.319c-0.134,0.245-0.284,0.473-0.45,0.691c-0.652,0.87-1.537,1.447-2.523,1.882
					c-0.441,0.199-0.899,0.375-1.367,0.505c-0.606,0.17-1.229,0.296-1.852,0.392c-1.086,0.169-2.204,0.189-3.304,0.085
					c-1.107-0.109-2.22-0.375-3.267-0.77c-0.912-0.334-1.962-0.978-2.733-1.568c-0.386-0.296-0.746-0.619-1.078-0.979
					c-0.333-0.358-0.651-0.737-0.949-1.133c-0.299-0.394-0.528-0.796-0.775-1.226c-0.061-0.103-0.119-0.205-0.174-0.312
					c-0.122-0.222-0.227-0.452-0.315-0.694c-0.026-0.072-0.071-0.271-0.138-0.315c-0.085-0.054-0.135,0.034-0.129,0.115
					c0.011,0.117,0.047,0.229,0.088,0.34c0.048,0.135,0.081,0.226,0.139,0.357c0.21,0.491,0.477,0.954,0.713,1.432
					c0.133,0.27,0.199,0.593,0.016,0.86c-0.184,0.267-0.416,0.435-0.692,0.605c-0.535,0.332-1.113,0.582-1.711,0.779
					c-0.374,0.121-0.754,0.208-1.137,0.277c-1.343,0.243-2.753,0.207-4.085-0.071c-0.901-0.187-1.752-0.537-2.52-1.031
					c-1.542-0.978-2.755-2.455-3.549-4.124c-0.397-0.838-0.688-1.729-0.847-2.644c-0.65-3.813,1.308-7.226,4.279-9.472
					c3.203-2.422,7.97-2.523,11.112,0.207c0.472,0.412,0.667,0.627,0.953,0.925c0.356,0.371,0.525,0.049,1.165-0.484
					c2.09-1.746,4.951-2.682,7.647-2.593c3.574,0.115,6.784,1.812,8.58,5.352c0.953,1.878,0.473,1.607,1.959,1.343
					c1.56-0.282,3.106-0.036,4.498,0.676c0.354,0.183,0.696,0.401,1.019,0.642c0.645,0.481,1.213,1.065,1.693,1.715
					c0.971,1.284,1.53,2.836,1.754,4.456C87.286,24.604,87.144,26.294,86.612,27.843z"/>
			</g>
			<g>
				<path d="M88.067,25.546c0.241-1.932,0.044-3.947-0.751-5.733c-0.791-1.778-2.19-3.292-3.924-4.175
					c-0.433-0.222-0.888-0.391-1.358-0.523c-0.467-0.134-0.942-0.243-1.425-0.292c-0.962-0.101-1.951,0.027-2.863,0.34l-0.346,0.13
					c-0.06,0.014-0.128,0.04-0.214,0.016c-0.083-0.033-0.123-0.1-0.152-0.152c-0.12-0.226-0.204-0.45-0.311-0.668
					c-0.204-0.441-0.434-0.873-0.681-1.29c-0.492-0.836-1.078-1.624-1.793-2.277c-1.425-1.321-3.274-2.127-5.168-2.483
					c-1.906-0.355-3.887-0.122-5.689,0.559c-0.902,0.339-1.763,0.788-2.557,1.33c-0.397,0.272-0.781,0.566-1.14,0.882l-0.272,0.245
					c-0.048,0.041-0.095,0.083-0.158,0.128c-0.032,0.023-0.069,0.048-0.126,0.07c-0.054,0.021-0.146,0.029-0.214,0.003
					c-0.131-0.051-0.171-0.111-0.224-0.157l-0.13-0.137c-0.082-0.09-0.163-0.175-0.247-0.26c-0.336-0.333-0.708-0.634-1.1-0.917
					c-0.387-0.279-0.791-0.538-1.214-0.748c-0.848-0.415-1.784-0.668-2.724-0.776c-1.893-0.194-3.827,0.234-5.525,1.087
					c-0.852,0.423-1.65,0.955-2.377,1.57c-0.728,0.622-1.375,1.313-1.896,2.101c-1.045,1.57-1.674,3.435-1.725,5.311
					c-0.043,1.868,0.481,3.765,1.396,5.392c0.916,1.642,2.314,2.984,4.012,3.764c1.678,0.809,3.618,0.969,5.453,0.631
					c0.922-0.172,1.793-0.472,2.628-0.919c0.421-0.216,0.828-0.452,1.217-0.713l0.293-0.201c0.104-0.069,0.188-0.142,0.35-0.229
					c0.123-0.063,0.234-0.1,0.396-0.106c0.159-0.003,0.326,0.057,0.429,0.125c0.209,0.141,0.29,0.271,0.37,0.363
					c0.3,0.376,0.602,0.698,0.953,1.015l0.257,0.229l0.281,0.232c0.179,0.141,0.359,0.273,0.553,0.404
					c0.77,0.523,1.619,0.923,2.509,1.234c0.894,0.313,1.798,0.542,2.737,0.659c0.924,0.11,1.873,0.101,2.807-0.011
					c0.233-0.027,0.466-0.062,0.689-0.104c0.222-0.044,0.438-0.102,0.673-0.169c0.12-0.034,0.219-0.066,0.391-0.103
					c0.098-0.019,0.23-0.035,0.385,0.005c0.15,0.036,0.278,0.119,0.349,0.186c0.167,0.153,0.214,0.237,0.301,0.335l0.231,0.288
					c0.29,0.389,0.6,0.673,0.96,1.017l0.533,0.479l0.272,0.241c0.049,0.043,0.101,0.088,0.166,0.157
					c0.067,0.065,0.154,0.187,0.197,0.308c0.077,0.244,0.063,0.365,0.074,0.497l0.016,0.369c0.01,0.24,0.025,0.478,0.043,0.715
					c0.036,0.477,0.085,0.958,0.142,1.437c0.105,0.977,0.283,1.865,0.463,2.892c0.008,0.063,0.01,0.111,0.002,0.197
					c-0.007,0.042-0.015,0.095-0.045,0.166c-0.024,0.065-0.094,0.172-0.203,0.235c-0.107,0.066-0.229,0.079-0.295,0.072
					c-0.081-0.005-0.123-0.021-0.166-0.032c-0.081-0.031-0.125-0.059-0.169-0.086c-0.085-0.056-0.139-0.101-0.187-0.138
					l-0.145-0.117l-0.561-0.454c-0.387-0.303-0.768-0.592-1.157-0.877c-0.782-0.576-1.579-1.118-2.397-1.626
					c-1.635-1.013-3.368-1.899-5.161-2.593c-0.894-0.347-1.819-0.655-2.742-0.928c-0.93-0.278-1.858-0.505-2.805-0.655
					c-0.947-0.147-1.897-0.211-2.835-0.116c-0.468,0.045-0.926,0.136-1.372,0.276c-0.441,0.14-0.861,0.323-1.207,0.602l-0.029,0.023
					c-0.015,0.008-0.011,0.018,0.027-0.038c0.161-0.348-0.405-0.53-0.238-0.428c-0.01,0.003,0.003,0,0.011,0l0.162-0.035l0.36-0.082
					c0.243-0.055,0.488-0.102,0.736-0.142c0.494-0.077,0.994-0.121,1.497-0.13c0.996-0.024,2.013,0.108,2.962,0.366
					c0.942,0.23,1.904,0.424,2.854,0.707c0.94,0.285,1.87,0.604,2.786,0.956c1.831,0.703,3.616,1.546,5.291,2.571
					c1.677,1.019,3.25,2.221,4.636,3.609c0.349,0.335,0.682,0.716,1.062,0.969c0.097,0.06,0.191,0.085,0.241,0.047
					c0.067-0.043,0.076-0.12,0.048-0.229l-0.237-0.684c-0.326-0.92-0.633-1.852-0.885-2.8c-0.242-0.946-0.469-1.9-0.545-2.884
					c-0.021-0.243-0.04-0.491-0.019-0.741c0.01-0.125,0.026-0.254,0.088-0.376c0.031-0.063,0.088-0.128,0.168-0.149
					c0.084-0.023,0.158,0.002,0.218,0.028c0.431,0.247,0.867,0.446,1.326,0.604c1.837,0.645,3.886,0.569,5.719-0.075
					c1.838-0.639,3.497-1.795,4.737-3.298C87.075,29.367,87.814,27.479,88.067,25.546z M88.067,25.546
					c-0.241,1.935-0.969,3.831-2.223,5.341c-1.236,1.516-2.895,2.686-4.74,3.343c-1.842,0.658-3.911,0.751-5.778,0.108
					c-0.464-0.155-0.921-0.363-1.34-0.599c-0.217-0.126-0.295,0.179-0.306,0.399c-0.016,0.239,0,0.478,0.024,0.722
					c0.081,0.964,0.313,1.921,0.561,2.859c0.254,0.94,0.565,1.861,0.91,2.776c0.08,0.234,0.168,0.449,0.252,0.695
					c0.017,0.067,0.029,0.14,0.017,0.223c-0.015,0.085-0.068,0.164-0.137,0.209c-0.072,0.055-0.174,0.063-0.249,0.047
					c-0.076-0.016-0.139-0.047-0.198-0.081c-0.439-0.285-0.757-0.648-1.118-0.979c-1.395-1.358-2.967-2.519-4.641-3.501
					c-1.674-0.985-3.447-1.793-5.273-2.46c-0.912-0.334-1.836-0.636-2.769-0.902c-0.928-0.259-1.884-0.437-2.841-0.654
					c-0.94-0.237-1.882-0.344-2.836-0.311c-0.475,0.017-0.949,0.07-1.419,0.15c-0.234,0.041-0.466,0.09-0.701,0.145l-0.35,0.087
					c-0.062,0.015-0.12,0.031-0.197,0.044c-0.021,0.004-0.04,0.007-0.08,0.01c0.142,0.108-0.48-0.08-0.292-0.464
					c0.055-0.08,0.083-0.09,0.089-0.101l0.043-0.033c0.414-0.343,0.902-0.562,1.386-0.724c0.484-0.161,0.99-0.269,1.491-0.325
					c1.004-0.121,2.021-0.066,3.003,0.073c0.984,0.139,1.96,0.363,2.905,0.631c0.954,0.265,1.887,0.561,2.818,0.907
					c1.863,0.687,3.641,1.553,5.329,2.593c0.843,0.516,1.667,1.068,2.461,1.646c0.4,0.288,0.797,0.588,1.183,0.885l0.58,0.464
					l0.139,0.112l0.106,0.079c0.008,0.006,0.018,0.01-0.006,0c-0.016,0-0.097-0.057-0.284,0.041
					c-0.083,0.046-0.132,0.132-0.147,0.165c-0.019,0.046-0.019,0.063-0.023,0.077c-0.002,0.027,0,0.014,0,0.016
					c-0.167-0.894-0.374-1.922-0.481-2.889c-0.061-0.488-0.115-0.98-0.156-1.478c-0.021-0.247-0.036-0.495-0.048-0.745l-0.017-0.362
					c-0.004-0.109-0.02-0.236-0.022-0.227c0,0.007,0.016,0.026-0.004,0.003c-0.019-0.019-0.058-0.053-0.101-0.093l-0.279-0.24
					l-0.559-0.497c-0.35-0.326-0.759-0.711-1.054-1.107l-0.229-0.281c-0.071-0.086-0.167-0.202-0.183-0.213
					c-0.018-0.017,0,0.007,0.032,0.011c0.038,0.006,0.044,0.002,0.023,0.006c-0.066,0.015-0.2,0.055-0.314,0.089
					c-0.235,0.067-0.49,0.139-0.747,0.188c-0.254,0.051-0.505,0.09-0.756,0.123c-1.006,0.125-2.023,0.14-3.038,0.028
					c-1.001-0.119-2.005-0.36-2.951-0.694c-0.95-0.339-1.88-0.783-2.725-1.362c-0.208-0.144-0.417-0.302-0.625-0.464l-0.282-0.236
					l-0.288-0.259c-0.372-0.339-0.737-0.734-1.044-1.127c-0.071-0.093-0.142-0.164-0.138-0.156c0.001,0.002,0.046,0.021,0.082,0.02
					c0.043-0.004,0.034-0.004,0.05-0.011c-0.058,0.026-0.164,0.105-0.263,0.171l-0.313,0.211c-0.423,0.28-0.865,0.532-1.313,0.759
					c-0.891,0.472-1.888,0.811-2.887,0.99c-1.995,0.358-4.14,0.17-5.99-0.736c-0.922-0.438-1.781-1.02-2.518-1.729
					c-0.187-0.177-0.361-0.355-0.536-0.555c-0.091-0.098-0.165-0.19-0.245-0.283c-0.085-0.103-0.158-0.201-0.239-0.302
					c-0.152-0.2-0.299-0.411-0.444-0.63c-0.129-0.201-0.266-0.429-0.389-0.644c-0.505-0.894-0.866-1.832-1.108-2.819
					c-0.243-0.988-0.362-1.992-0.318-3.014c0.089-2.035,0.792-4.002,1.933-5.662c0.571-0.833,1.282-1.57,2.05-2.203
					c0.774-0.635,1.621-1.18,2.524-1.613c1.8-0.867,3.835-1.286,5.836-1.05c0.997,0.129,1.969,0.409,2.869,0.867
					c0.449,0.231,0.866,0.505,1.266,0.804c0.395,0.295,0.782,0.615,1.131,0.977c0.087,0.088,0.173,0.183,0.254,0.273l0.119,0.131
					c0.032,0.037,0.081,0.07,0.065,0.062c-0.01-0.003-0.036-0.002-0.035,0c0,0,0.017-0.008,0.035-0.02
					c0.037-0.026,0.081-0.063,0.125-0.1l0.277-0.242c0.379-0.323,0.777-0.619,1.192-0.891c0.826-0.546,1.715-0.994,2.647-1.325
					c1.856-0.67,3.9-0.879,5.837-0.485c1.927,0.392,3.778,1.25,5.224,2.592c0.726,0.67,1.311,1.473,1.804,2.32
					c0.247,0.422,0.474,0.855,0.677,1.303c0.105,0.222,0.194,0.454,0.302,0.662c0.058,0.115,0.117,0.132,0.238,0.086l0.343-0.124
					c0.934-0.314,1.929-0.439,2.909-0.331c0.489,0.055,0.969,0.167,1.438,0.307c0.471,0.134,0.932,0.309,1.367,0.536
					c1.745,0.9,3.14,2.432,3.925,4.223C88.137,21.597,88.32,23.615,88.067,25.546z"/>
				<path d="M86.612,27.843c-0.928,2.73-3.213,4.903-5.905,5.888c-1.349,0.482-2.816,0.699-4.247,0.467
					c-1.421-0.269-2.742-0.942-3.89-1.809c-0.584-0.429-1.115-0.917-1.559-1.513c-0.05-0.077-0.1-0.165-0.125-0.267
					c-0.032-0.096-0.017-0.254,0.089-0.336c0.179-0.123,0.347-0.17,0.508-0.244c0.312-0.152,0.643-0.311,0.938-0.501
					c0.602-0.372,1.19-0.786,1.667-1.3c0.464-0.515,0.901-1.096,1.079-1.756c0.01-0.037,0.019-0.079,0.017-0.086
					c0.001-0.002-0.003-0.002,0.003,0.014c-0.002-0.002,0.027,0.072,0.101,0.081c0.074,0.004,0.077-0.014,0.088-0.016
					c0.004-0.002,0.004-0.004,0.001,0c-0.019,0.021-0.068,0.133-0.105,0.204c-0.085,0.168-0.166,0.325-0.267,0.484
					c-0.196,0.32-0.416,0.608-0.671,0.884c-0.51,0.541-1.127,0.966-1.78,1.3c-1.3,0.678-2.75,1.025-4.183,1.215
					c-1.464,0.172-2.924,0.125-4.372-0.182c-0.721-0.148-1.42-0.36-2.109-0.627c-0.697-0.289-1.333-0.651-1.949-1.056
					c-0.302-0.198-0.616-0.428-0.891-0.649c-0.296-0.241-0.568-0.492-0.827-0.762c-0.5-0.539-0.982-1.085-1.394-1.728
					c-0.202-0.319-0.379-0.618-0.565-0.944c-0.172-0.296-0.369-0.725-0.456-1.016c0,0.002-0.008-0.018,0.002,0.006
					c0.003-0.001,0.035,0.06,0.128,0.102c-0.003-0.007-0.055-0.015,0.062,0.019c0.086,0.013,0.15,0,0.208-0.025
					c0.111-0.052,0.15-0.131,0.165-0.165c0.035-0.071,0.011-0.166,0.025-0.08c0.009,0.055,0.012,0.04,0.019,0.075
					c0.01,0.03,0.021,0.064,0.037,0.102l0.046,0.124l0.092,0.229c0.14,0.314,0.297,0.611,0.469,0.933l0.254,0.493
					c0.093,0.192,0.181,0.437,0.168,0.721c-0.005,0.141-0.042,0.293-0.108,0.429c-0.017,0.033-0.036,0.067-0.056,0.099l-0.036,0.055
					l-0.021,0.027c-0.024,0.034-0.052,0.072-0.098,0.123c-0.157,0.188-0.323,0.319-0.494,0.435
					c-0.083,0.058-0.162,0.109-0.248,0.159c-0.077,0.048-0.149,0.094-0.237,0.141c-0.176,0.099-0.34,0.183-0.514,0.264
					c-0.347,0.16-0.686,0.294-1.057,0.415c-1.437,0.449-2.964,0.56-4.447,0.38c-0.736-0.093-1.491-0.241-2.202-0.524
					c-0.71-0.27-1.388-0.663-1.986-1.105c-1.221-0.905-2.193-2.096-2.909-3.411c-0.702-1.313-1.171-2.785-1.26-4.297
					c-0.094-1.516,0.218-3.047,0.853-4.411c0.627-1.371,1.561-2.575,2.648-3.583c0.555-0.501,1.116-0.961,1.767-1.366
					c0.64-0.395,1.328-0.713,2.042-0.946c2.839-0.945,6.156-0.482,8.514,1.393c0.296,0.234,0.565,0.479,0.831,0.739
					c0.132,0.13,0.261,0.265,0.384,0.397c0.06,0.063,0.128,0.138,0.166,0.174c0.042,0.036,0.046,0.024,0.014,0.024
					c-0.025,0.007,0.021-0.003,0.075-0.043c0.056-0.04,0.121-0.095,0.186-0.15c0.132-0.116,0.271-0.239,0.415-0.357
					c0.279-0.228,0.587-0.457,0.892-0.655c1.233-0.809,2.614-1.37,4.046-1.675c1.434-0.311,2.914-0.349,4.359-0.105
					c1.44,0.24,2.838,0.773,4.038,1.609c1.204,0.828,2.187,1.951,2.897,3.21c0.18,0.317,0.339,0.641,0.493,0.967
					c0.157,0.321,0.286,0.672,0.46,0.955c0.049,0.066,0.095,0.107,0.16,0.118c0.065,0.014,0.152,0.003,0.237-0.011l0.524-0.107
					c0.354-0.073,0.714-0.124,1.076-0.146c1.447-0.089,2.914,0.283,4.143,1.04c1.23,0.757,2.218,1.87,2.921,3.118
					c0.697,1.262,1.068,2.682,1.187,4.111C87.249,25.032,87.079,26.487,86.612,27.843z M86.612,27.843
					c0.462-1.358,0.625-2.813,0.506-4.24c-0.125-1.424-0.502-2.842-1.202-4.094c-0.702-1.244-1.707-2.327-2.932-3.062
					c-1.223-0.733-2.672-1.081-4.09-0.974c-0.352,0.025-0.704,0.081-1.052,0.157l-0.526,0.118c-0.09,0.016-0.186,0.034-0.297,0.018
					c-0.119-0.016-0.213-0.104-0.27-0.181c-0.209-0.326-0.33-0.652-0.498-0.972c-0.158-0.319-0.322-0.635-0.505-0.94
					c-0.723-1.22-1.703-2.288-2.883-3.063c-1.173-0.783-2.531-1.267-3.924-1.468c-1.388-0.208-2.826-0.139-4.189,0.186
					c-1.367,0.323-2.676,0.891-3.827,1.682c-0.291,0.2-0.558,0.405-0.827,0.636c-0.133,0.111-0.258,0.229-0.395,0.353
					c-0.069,0.063-0.14,0.127-0.229,0.192c-0.089,0.064-0.203,0.151-0.408,0.17c-0.217,0.014-0.379-0.098-0.47-0.179
					c-0.095-0.084-0.146-0.143-0.211-0.207c-0.123-0.129-0.247-0.252-0.372-0.369c-0.253-0.236-0.519-0.469-0.792-0.675
					c-1.096-0.83-2.415-1.348-3.772-1.529c-1.363-0.184-2.764-0.033-4.06,0.407c-0.646,0.222-1.268,0.517-1.842,0.883
					c-0.564,0.357-1.114,0.816-1.614,1.285c-1.004,0.95-1.838,2.075-2.405,3.317c-0.569,1.237-0.839,2.603-0.75,3.957
					c0.009,0.171,0.027,0.335,0.045,0.497c0.022,0.161,0.05,0.37,0.081,0.508c0.061,0.336,0.144,0.668,0.243,0.996
					c0.196,0.651,0.465,1.283,0.792,1.889c0.647,1.206,1.533,2.29,2.617,3.103c1.088,0.832,2.354,1.311,3.729,1.464
					c1.362,0.166,2.76,0.094,4.071-0.303c0.644-0.199,1.269-0.474,1.827-0.837c0.129-0.083,0.243-0.18,0.319-0.267
					c0.122-0.147,0.109-0.136,0.125-0.222c0.005-0.074-0.019-0.182-0.081-0.313l-0.234-0.465c-0.161-0.314-0.335-0.653-0.482-0.999
					c-0.038-0.085-0.074-0.18-0.105-0.27l-0.044-0.128c-0.017-0.049-0.033-0.1-0.049-0.156c-0.013-0.05-0.037-0.151-0.039-0.187
					c0-0.002-0.04-0.187,0.032-0.344c0.029-0.076,0.099-0.192,0.25-0.267c0.078-0.032,0.163-0.052,0.273-0.032
					c0.14,0.032,0.107,0.036,0.124,0.039c0.134,0.062,0.196,0.158,0.221,0.196c0.038,0.06,0.046,0.085,0.065,0.124
					c0.125,0.394,0.225,0.623,0.401,0.955c0.163,0.3,0.345,0.622,0.521,0.913c0.174,0.295,0.375,0.562,0.595,0.842
					c0.214,0.273,0.44,0.541,0.675,0.803c0.233,0.252,0.483,0.489,0.737,0.71c0.281,0.23,0.542,0.432,0.835,0.635
					c0.574,0.396,1.183,0.757,1.809,1.03c0.642,0.265,1.313,0.483,1.997,0.642c1.352,0.319,2.798,0.399,4.185,0.262
					c1.409-0.157,2.798-0.457,4.065-1.084c0.63-0.305,1.219-0.693,1.704-1.188c0.239-0.246,0.46-0.527,0.648-0.814
					c0.094-0.14,0.18-0.299,0.262-0.452c0.048-0.083,0.06-0.143,0.15-0.267c0.012-0.014,0.028-0.03,0.05-0.047
					c0.029-0.014,0.054-0.046,0.15-0.039c0.095,0.014,0.142,0.109,0.144,0.13c0.011,0.037,0.011,0.059,0.011,0.081
					c-0.002,0.081-0.019,0.128-0.032,0.175c-0.495,1.45-1.693,2.441-2.931,3.156c-0.316,0.19-0.638,0.335-0.97,0.492
					c-0.168,0.071-0.349,0.13-0.467,0.207c-0.087,0.056-0.026,0.235,0.063,0.373c0.4,0.563,0.93,1.069,1.496,1.494
					c1.127,0.873,2.422,1.553,3.823,1.838c1.407,0.243,2.875,0.059,4.219-0.421C83.381,32.727,85.673,30.57,86.612,27.843z"/>
			</g>
		</g>
	</g>
	<g>
		<g>
			<path fill="#FFFCFD" d="M76.417,77.019c-0.286,0.103-0.85,0.271-1.516,0.271c-0.747,0-1.361-0.191-1.845-0.653
				c-0.424-0.407-0.688-1.068-0.688-1.836c0.007-1.471,1.017-2.546,2.671-2.546c0.571,0,1.017,0.123,1.229,0.227l-0.154,0.519
				c-0.263-0.117-0.592-0.213-1.09-0.213c-1.201,0-1.983,0.747-1.983,1.983c0,1.252,0.753,1.99,1.902,1.99
				c0.418,0,0.703-0.057,0.849-0.131V75.16h-1.002v-0.511h1.625V77.019z"/>
			<path fill="#FFFCFD" d="M83.759,75.686l-0.513,1.553h-0.658l1.676-4.934h0.768l1.684,4.934h-0.681l-0.527-1.553H83.759z
				 M85.376,75.189l-0.483-1.42c-0.109-0.321-0.182-0.614-0.256-0.899h-0.015c-0.073,0.292-0.153,0.593-0.248,0.893l-0.483,1.427
				H85.376z"/>
			<path fill="#FFFCFD" d="M92.923,76.463c0.285,0.174,0.703,0.322,1.141,0.322c0.652,0,1.033-0.345,1.033-0.842
				c0-0.461-0.264-0.726-0.93-0.981c-0.805-0.284-1.303-0.702-1.303-1.397c0-0.769,0.638-1.34,1.596-1.34
				c0.505,0,0.871,0.118,1.09,0.241l-0.176,0.519c-0.161-0.087-0.49-0.234-0.937-0.234c-0.673,0-0.93,0.404-0.93,0.74
				c0,0.462,0.3,0.688,0.981,0.951c0.834,0.322,1.258,0.726,1.258,1.449c0,0.762-0.564,1.421-1.727,1.421
				c-0.477,0-0.995-0.139-1.259-0.315L92.923,76.463z"/>
			<path fill="#FFFCFD" d="M103.125,72.848h-1.5v-0.542h3.651v0.542h-1.508v4.392h-0.644V72.848z"/>
			<path fill="#FFFCFD" d="M111.396,72.372c0.321-0.066,0.782-0.103,1.222-0.103c0.68,0,1.118,0.125,1.426,0.403
				c0.249,0.219,0.389,0.556,0.389,0.937c0,0.651-0.411,1.082-0.93,1.258v0.021c0.381,0.134,0.607,0.485,0.725,0.998
				c0.161,0.686,0.278,1.162,0.381,1.353h-0.66c-0.081-0.14-0.19-0.564-0.33-1.179c-0.145-0.681-0.409-0.937-0.987-0.959h-0.601
				v2.138h-0.636V72.372z M112.031,74.619h0.652c0.68,0,1.113-0.373,1.113-0.937c0-0.636-0.462-0.915-1.135-0.921
				c-0.308,0-0.527,0.027-0.63,0.057V74.619z"/>
			<path fill="#FFFCFD" d="M125.119,74.721c0,1.698-1.032,2.597-2.292,2.597c-1.303,0-2.217-1.008-2.217-2.502
				c0-1.566,0.974-2.591,2.291-2.591C124.248,72.225,125.119,73.258,125.119,74.721z M121.29,74.801
				c0,1.055,0.571,1.998,1.574,1.998c1.01,0,1.58-0.929,1.58-2.05c0-0.98-0.512-2.004-1.574-2.004
				C121.818,72.745,121.29,73.718,121.29,74.801z"/>
			<path fill="#FFFCFD" d="M131.516,77.239v-4.934h0.695l1.581,2.496c0.366,0.578,0.651,1.098,0.886,1.603l0.014-0.006
				c-0.059-0.659-0.073-1.259-0.073-2.028v-2.064h0.6v4.934h-0.644l-1.566-2.504c-0.344-0.549-0.673-1.112-0.922-1.646l-0.022,0.007
				c0.037,0.623,0.051,1.214,0.051,2.035v2.108H131.516z"/>
			<path fill="#FFFCFD" d="M146.119,74.721c0,1.698-1.033,2.597-2.292,2.597c-1.301,0-2.217-1.008-2.217-2.502
				c0-1.566,0.974-2.591,2.292-2.591C145.247,72.225,146.119,73.258,146.119,74.721z M142.29,74.801
				c0,1.055,0.571,1.998,1.574,1.998c1.009,0,1.582-0.929,1.582-2.05c0-0.98-0.513-2.004-1.574-2.004
				C142.817,72.745,142.29,73.718,142.29,74.801z"/>
			<path fill="#FFFCFD" d="M156.672,75.073c-0.037-0.689-0.079-1.516-0.071-2.13h-0.023c-0.167,0.579-0.373,1.193-0.622,1.874
				l-0.872,2.394h-0.483l-0.798-2.35c-0.233-0.695-0.432-1.331-0.571-1.917h-0.014c-0.013,0.615-0.051,1.441-0.095,2.181
				l-0.131,2.116h-0.609l0.344-4.934h0.813l0.842,2.386c0.204,0.608,0.371,1.149,0.497,1.662h0.022
				c0.123-0.497,0.299-1.039,0.52-1.662l0.877-2.386h0.812l0.308,4.934h-0.622L156.672,75.073z"/>
			<path fill="#FFFCFD" d="M165.361,71.186l-0.937,0.856h-0.521l0.673-0.856H165.361z M164.607,72.305v4.934h-0.636v-4.934H164.607z
				"/>
			<path fill="#FFFCFD" d="M172.087,75.686l-0.513,1.553h-0.658l1.675-4.934h0.768l1.683,4.934h-0.678l-0.529-1.553H172.087z
				 M173.703,75.189l-0.482-1.42c-0.11-0.321-0.183-0.614-0.256-0.899h-0.014c-0.074,0.292-0.154,0.593-0.25,0.893l-0.482,1.427
				H173.703z"/>
		</g>
	</g>
	<g>
		<path d="M6.514,66.207c0-0.471,0.235-0.706,0.707-0.824c3.298-0.825,3.535,5.419,4.005,5.654c4.83,4.006,15.078,5.89,22.852,5.89
			c15.549,0,36.282-8.834,36.282-26.504c0-7.774-4.359-13.783-12.486-14.489c-3.77,0-6.715,0.118-9.895,2.946
			c-1.532,1.295-1.885,4.947-2.356,7.891c3.298-5.182,6.007-9.069,6.007-9.069c0.354-0.707,0.707-0.824,1.061-0.824
			c0.824,0,1.295,1.414,1.295,2.003c0,0.941-0.471,1.766-0.471,1.766l-7.421,10.955C35.373,66.915,35.02,72.569,35.02,73.274
			c0,0.942-0.589,1.179-0.942,1.179c-0.942,0-1.06-0.471-1.06-0.943c0-5.066,5.537-15.784,11.19-24.501
			c0-2.356,0.236-8.953,3.063-11.309c3.417-2.945,7.186-3.417,11.073-3.18c8.246,0.47,15.431,6.007,15.431,15.902
			c0,18.847-22.852,28.272-39.108,28.272c-4.829,0-9.659-0.708-14.135-2.003C16.409,75.983,6.514,71.862,6.514,66.207z"/>
	</g>
</g>
</svg>
