<?xml version="1.0" encoding="utf-8"?>
<!-- Generator: Adobe Illustrator 15.0.0, SVG Export Plug-In . SVG Version: 6.00 Build 0)  -->
<!DOCTYPE svg PUBLIC "-//W3C//DTD SVG 1.1//EN" "http://www.w3.org/Graphics/SVG/1.1/DTD/svg11.dtd">
<svg version="1.1" id="Capa_1" xmlns="http://www.w3.org/2000/svg" xmlns:xlink="http://www.w3.org/1999/xlink" x="0px" y="0px"
	 width="338.503px" height="171.755px" viewBox="0 0 338.503 171.755" enable-background="new 0 0 338.503 171.755"
	 xml:space="preserve">
<g>
	<g>
		<path fill="#FFFFFF" d="M166.7,111.29c0.607,0.406-1.019,3.457-2.442,5.287c-3.863,4.474-6.304,6.305-11.185,9.151
			c-4.475,2.44-16.271,8.542-18.711,0c-2.44-9.151,10.778-28.675,19.523-32.743c3.05-1.625,7.118-1.625,8.543,2.238
			c4.879,13.626-12.608,20.541-21.558,24.813c-0.815,0.203-1.424,0.404-2.239,0.607c-0.811,2.238-1.014,4.271-0.608,5.898
			c1.221,2.645,9.966-0.813,13.829-3.254c5.49-3.457,6.71-4.678,10.373-8.338C163.444,113.119,165.884,110.884,166.7,111.29z
			 M140.055,117.391c9.356-3.863,22.373-10.575,19.931-20.337c-0.609-1.219-2.847,0-4.881,1.627
			C149.208,102.748,143.514,110.272,140.055,117.391z"/>
		<path fill="#FFFFFF" d="M163.645,125.729c0,1.425,0.813,1.627,1.627,1.627c3.659,0,14.642-8.745,14.642-9.151
			c0.205-0.203,1.425-0.405,1.425,0.203c0.202,1.221-1.425,2.441-1.425,2.441c-11.185,9.76-14.642,9.151-15.047,9.151
			c-4.883,0.203-4.475-4.475-4.475-4.475c0-15.659,35.386-57.962,36.606-57.962c0.812-0.812,1.422-1.014,1.829-1.014
			c1.425,0,1.83,2.031,1.83,2.845c0,1.832-1.016,3.458-1.016,3.458l-14.439,17.693C164.051,118.813,163.645,124.103,163.645,125.729
			z"/>
		<path fill="#FFFFFF" d="M210.418,111.29c0.61,0.406-1.017,3.457-2.44,5.287c-3.863,4.474-6.304,6.305-11.186,9.151
			c-4.475,2.44-16.268,8.542-18.71,0c-2.44-9.151,10.779-28.675,19.525-32.743c3.05-1.625,7.116-1.625,8.541,2.238
			c4.88,13.626-12.61,20.541-21.559,24.813c-0.813,0.203-1.422,0.404-2.236,0.607c-0.815,2.238-1.018,4.271-0.61,5.898
			c1.22,2.645,9.966-0.813,13.83-3.254c5.49-3.457,6.711-4.678,10.37-8.338C207.165,113.119,209.607,110.884,210.418,111.29z
			 M183.778,117.391c9.355-3.863,22.371-10.575,19.931-20.337c-0.61-1.219-2.848,0-4.882,1.627
			C192.93,102.748,187.235,110.272,183.778,117.391z M195.981,87.089c-1.019,0-1.627-0.203-1.627-0.203c0-0.203,0-0.203,0.202-0.203
			c5.898-1.627,5.898-8.543,12-8.543c1.22,0,1.83,0.611,1.83,1.628C208.386,84.647,198.418,87.089,195.981,87.089z"/>
		<path fill="#FFFFFF" d="M224.654,92.172c1.014,0,1.423,0.408,1.423,1.222c0,0.813-0.612,1.83-0.815,2.033
			c-16.269,22.372-17.692,28.879-17.692,28.879c-0.203,0.609-0.203,1.016-0.203,1.423c0,1.425,1.018,1.627,1.627,1.627
			c3.051,0.407,14.643-8.745,14.643-9.151c0.406-0.203,0.813-0.203,1.019-0.203c0.203,0,0.405,0.203,0.405,0.406
			c0,0.813-1.424,2.441-1.424,2.441c-10.576,9.354-14.643,9.151-15.051,9.151c-4.676-0.204-4.473-4.475-4.473-4.475
			c0-7.321,5.694-18.101,14.033-30.099C219.364,94.004,222.415,92.172,224.654,92.172z M224.857,85.46c0-2.846,3.253-7.32,5.49-7.32
			c0.813,0,1.422,0.611,1.422,1.831c0,3.253-3.253,7.321-5.286,7.321c-0.406,0-0.61,0-0.815-0.203
			C225.059,86.886,224.857,86.274,224.857,85.46z"/>
		<path fill="#FFFFFF" d="M261.053,69.395c0,1.832-1.017,3.458-1.017,3.458l-12.608,15.456h1.423c1.019,0,2.849,0,2.849,1.222
			c0,1.424-1.83,1.424-2.849,1.424h-3.456c-20.745,27.859-21.354,32.945-21.354,34.774c0,1.425,1.017,1.627,1.626,1.627
			c3.862,0.407,14.643-8.745,14.643-9.151c0.407-0.203,0.813-0.203,1.017-0.203s0.405,0.203,0.405,0.406
			c0,1.221-1.422,2.441-1.422,2.441C228.311,131.423,225.667,130,225.26,130c-4.88,0-4.473-4.475-4.473-4.475
			c0-8.135,7.729-21.556,17.488-34.571h-8.746c-1.219,0-2.643,0-2.643-1.424c0-1.222,1.424-1.222,2.643-1.222h10.78
			c14.846-19.522,17.693-21.964,18.506-21.964C260.241,66.345,261.053,67.767,261.053,69.395z"/>
		<path fill="#FFFFFF" d="M270.812,111.29c0.611,0.406-1.016,3.457-2.439,5.287c-3.866,4.474-6.304,6.305-11.187,9.151
			c-4.475,2.44-16.269,8.542-18.711,0c-2.438-9.151,10.779-28.675,19.525-32.743c3.05-1.625,7.118-1.625,8.543,2.238
			c4.88,13.626-12.61,20.541-21.56,24.813c-0.813,0.203-1.424,0.404-2.237,0.607c-0.813,2.238-1.017,4.271-0.608,5.898
			c1.22,2.645,9.963-0.813,13.829-3.254c5.489-3.457,6.71-4.678,10.371-8.338C267.557,113.119,270,110.884,270.812,111.29z
			 M244.17,117.391c9.355-3.863,22.373-10.575,19.931-20.337c-0.608-1.219-2.848,0-4.881,1.627
			C253.323,102.748,247.626,110.272,244.17,117.391z"/>
		<path fill="#FFFFFF" d="M258.811,119.017c0-3.66,3.051-7.32,7.323-7.32c0.813,0,2.032,0.203,3.05,0.609
			c2.644-3.456,5.694-6.305,13.014-18.302c0.205-0.205-1.219-3.05,3.052-2.237c4.881,1.016,6.915,22.168,1.423,30.504
			c3.051,0.205,7.933-2.234,8.543-2.234c0.203,0,0.203,0,0.203,0.203c0,0.812-4.068,4.473-8.949,4.473c-0.405,0-1.017,0-1.423-0.203
			c-5.084,5.491-8.54,5.084-12.608,5.287c-4.881,0.204-9.763-2.033-12.405-6.508C259.217,121.865,258.811,120.644,258.811,119.017z
			 M266.336,114.138c-2.237,0-4.88,2.847-4.88,5.693c0,0.408,0,0.609,0.203,1.018c1.423-1.832,3.659-4.271,5.694-6.51
			C266.947,114.339,266.742,114.138,266.336,114.138z M262.065,122.067c1.627,2.848,6.509,5.086,10.576,5.086
			c3.865,0,6.506-1.832,8.135-4.271c-3.864-2.033-7.933-5.083-11.186-7.32C266.947,118.204,264.099,120.644,262.065,122.067z
			 M271.419,113.527c3.662,2.44,7.525,5.489,10.983,7.116c3.661-6.305,2.644-22.573,1.016-22.775
			c-3.456,5.083-7.116,10.573-10.98,14.643C272.032,112.916,271.828,113.324,271.419,113.527z"/>
		<path fill="#FFFFFF" d="M324.296,111.29c0.609,0.406-1.018,3.457-2.44,5.287c-3.866,4.474-6.305,6.305-11.187,9.151
			c-4.475,2.44-16.27,8.542-18.711,0c-2.438-9.151,10.778-28.675,19.524-32.743c3.05-1.625,7.12-1.625,8.543,2.238
			c4.88,13.626-12.609,20.541-21.559,24.813c-0.813,0.203-1.424,0.404-2.237,0.607c-0.813,2.238-1.016,4.271-0.609,5.898
			c1.22,2.645,9.965-0.813,13.83-3.254c5.488-3.457,6.71-4.678,10.371-8.338C321.041,113.119,323.482,110.884,324.296,111.29z
			 M297.655,117.391c9.354-3.863,22.371-10.575,19.93-20.337c-0.609-1.219-2.849,0-4.881,1.627
			C306.805,102.748,301.111,110.272,297.655,117.391z"/>
	</g>
	<g>
		<path fill="#FFFFFF" d="M117.957,133.614c-2.158,1.678-4.344,3.154-6.451,4.436c-8.086,4.921-17.741,8.617-27.675,10.756h239.811
			v-15.191H117.957z"/>
	</g>
	<g>
		<g>
			<g>
				<path fill="#FFFFFF" d="M160.875,53.812c0.209-1.594,0.241-3.211,0.088-4.823c-0.077-0.802-0.207-1.603-0.385-2.397
					c-0.184-0.791-0.413-1.576-0.703-2.335c-0.298-0.765-0.641-1.511-1.047-2.228c-0.208-0.357-0.424-0.699-0.658-1.045
					c-0.104-0.151-0.235-0.331-0.354-0.498c-0.123-0.164-0.247-0.324-0.373-0.486c-1.029-1.266-2.236-2.393-3.604-3.301
					c-0.684-0.447-1.407-0.835-2.155-1.158c-0.364-0.154-0.736-0.29-1.116-0.41c-2.404-0.759-4.258-1.006-6.722-0.523
					c-3.444,0.68-1.998,1.74-3.78-1.734c-0.763-1.487-1.654-2.923-2.739-4.199c-2.187-2.555-5.174-4.308-8.364-5.295
					c-1.404-0.439-2.882-0.729-4.351-0.834c-4.729-0.344-9.521,1.188-13.394,3.924c-3.975,2.81-1.382,2.662-5.203-0.289
					c-0.919-0.706-1.867-1.338-2.913-1.841c-1.654-0.792-3.63-1.298-5.453-1.419c-5.82-0.396-11.566,2.242-15.558,6.313
					c-2.596,2.643-4.349,6.224-4.992,9.791c-0.321,1.783-0.369,3.625-0.113,5.469c0.246,1.819,0.747,3.6,1.467,5.287
					c0.371,0.844,0.797,1.662,1.276,2.45c0.421,0.69,0.897,1.366,1.41,1.995c1.935,2.381,4.441,4.117,7.323,5.15
					c4.064,1.455,9.141,1.091,13.021-0.779c2.403-1.154,3.487-2.051,3.964-2.344c0.544-0.341,0.832-0.037,1.188,0.413
					c0.697,0.892,1.427,1.623,2.282,2.365c1.397,1.218,3.01,2.194,4.707,2.93c1.696,0.735,3.479,1.282,5.313,1.624
					c1.826,0.34,3.42,0.406,5.307,0.305c0.95-0.059,2.19-0.213,3.104-0.435c0.473-0.12,0.728-0.192,1.245-0.345
					c0.367-0.1,0.58-0.116,0.86,0.152c0.187,0.172,1.074,1.314,1.263,1.53c0.194,0.211,0.397,0.421,0.604,0.628
					c0.712,0.706,1.449,1.354,2.211,2.01c0.938,0.816,0.102,0.236,1.135,7.505c0.108,0.768,0.554,3.062,0.609,3.391
					c0.054,0.337-0.021,0.524-0.378,0.294c-0.177-0.115-1.153-0.931-1.443-1.154c-0.604-0.472-1.222-0.941-1.836-1.396
					c-0.622-0.455-1.246-0.906-1.882-1.343c-2.704-1.87-5.561-3.546-8.552-4.948c-1.498-0.703-3.027-1.331-4.589-1.896
					c-1.566-0.56-3.13-1.056-4.719-1.498c-1.589-0.438-3.21-0.808-4.867-1.038c-1.654-0.225-3.347-0.318-5.043-0.117
					c-0.851,0.098-1.697,0.268-2.515,0.54c-0.211,0.067-0.41,0.138-0.619,0.226c-0.189,0.074-0.403,0.16-0.601,0.262
					c-0.408,0.205-0.793,0.449-1.148,0.738c-0.711,0.581,3.767-1.592,9.699-0.142c1.99,0.479,4.018,0.85,5.971,1.438
					c1.723,0.523,3.438,1.107,5.131,1.761c5.891,2.261,11.542,5.383,16.21,9.658c2.117,1.949,3.205,3.367,3.759,2.863
					c0.232-0.203,0.129-0.527,0.031-0.785c-0.121-0.315-0.232-0.625-0.343-0.949c-0.332-0.947-0.686-1.886-0.981-2.846
					c-0.338-1.074-0.652-2.154-0.92-3.25c-0.261-1.095-0.496-2.205-0.655-3.326c-0.043-0.283-0.059-0.574-0.08-0.862
					c-0.039-0.457-0.272-2.648,0.75-2.044c0.203,0.119,0.404,0.227,0.616,0.332c1.408,0.695,2.942,1.162,4.514,1.373
					c1.572,0.209,3.176,0.166,4.736-0.102c3.135-0.547,6.089-1.957,8.564-3.963c1.238-1.002,2.357-2.164,3.315-3.447
					c0.953-1.287,1.739-2.719,2.312-4.227C160.287,56.978,160.667,55.403,160.875,53.812z M158.256,57.946
					c-0.948,2.791-2.715,5.289-4.979,7.24c-2.255,1.943-4.998,3.368-7.933,3.976c-1.466,0.31-2.98,0.409-4.477,0.272
					c-1.49-0.14-2.859-0.611-4.241-1.229c-0.693-0.303-1.358-0.672-1.997-1.084c-0.644-0.405-1.27-0.848-1.87-1.318
					c-0.604-0.467-1.132-0.939-1.644-1.498c-0.378-0.416-1.497-1.544-0.818-1.916c0.38-0.205,0.707-0.285,1.092-0.488
					c0.4-0.209,0.802-0.385,1.189-0.619c0.785-0.461,1.543-0.951,2.255-1.52c0.219-0.173,0.423-0.355,0.626-0.539
					c0.529-0.496,1.003-1.049,1.429-1.64c0.44-0.606,0.798-1.229,1.041-2.061c0.11-0.378-0.057-0.404-0.208-0.085
					c-0.09,0.19-0.196,0.391-0.294,0.574c-0.241,0.439-0.511,0.851-0.808,1.244c-1.176,1.565-2.77,2.605-4.545,3.389
					c-0.795,0.357-1.62,0.673-2.459,0.907c-1.092,0.309-2.213,0.536-3.334,0.706c-1.958,0.305-3.968,0.342-5.947,0.152
					c-1.994-0.195-3.997-0.674-5.881-1.383c-1.641-0.602-3.532-1.762-4.921-2.823c-0.694-0.534-1.342-1.114-1.939-1.763
					c-0.6-0.645-1.173-1.328-1.709-2.039c-0.538-0.711-0.949-1.436-1.396-2.207c-0.108-0.186-0.213-0.369-0.311-0.561
					c-0.219-0.401-0.408-0.816-0.568-1.25c-0.046-0.131-0.128-0.488-0.248-0.568c-0.152-0.096-0.245,0.063-0.233,0.208
					c0.02,0.21,0.084,0.413,0.159,0.613c0.086,0.241,0.145,0.405,0.248,0.642c0.38,0.883,0.861,1.715,1.284,2.578
					c0.242,0.484,0.36,1.066,0.028,1.549c-0.331,0.479-0.747,0.783-1.244,1.088c-0.963,0.598-2.004,1.049-3.08,1.401
					c-0.674,0.22-1.356,0.376-2.046,0.501c-2.418,0.438-4.958,0.372-7.355-0.129c-1.622-0.336-3.154-0.967-4.536-1.854
					c-2.774-1.763-4.957-4.42-6.386-7.425c-0.716-1.509-1.239-3.112-1.526-4.759c-1.17-6.863,2.355-13.008,7.703-17.049
					c5.765-4.361,14.348-4.544,20.001,0.371c0.851,0.742,1.201,1.129,1.716,1.666c0.64,0.668,0.946,0.088,2.098-0.872
					c3.762-3.141,8.912-4.825,13.766-4.667c6.434,0.209,12.211,3.264,15.444,9.634c1.714,3.379,0.852,2.893,3.527,2.417
					c2.808-0.508,5.591-0.065,8.094,1.218c0.641,0.329,1.256,0.721,1.835,1.155c1.16,0.867,2.185,1.918,3.049,3.086
					c1.747,2.313,2.753,5.105,3.157,8.02C159.468,52.116,159.212,55.157,158.256,57.946z"/>
			</g>
			<g>
				<path fill="#FFFFFF" d="M160.875,53.812c0.434-3.478,0.078-7.104-1.354-10.32c-1.424-3.2-3.941-5.925-7.063-7.514
					c-0.778-0.4-1.599-0.704-2.445-0.943c-0.839-0.24-1.695-0.436-2.563-0.523c-1.734-0.185-3.513,0.049-5.155,0.611l-0.621,0.235
					c-0.108,0.024-0.231,0.071-0.385,0.028c-0.15-0.061-0.222-0.178-0.275-0.275c-0.216-0.406-0.367-0.811-0.559-1.203
					c-0.369-0.793-0.781-1.57-1.227-2.322c-0.887-1.504-1.939-2.924-3.227-4.1c-2.568-2.376-5.896-3.828-9.307-4.469
					c-3.43-0.64-6.997-0.221-10.239,1.006c-1.623,0.611-3.173,1.418-4.602,2.395c-0.716,0.489-1.406,1.018-2.052,1.586l-0.49,0.441
					c-0.088,0.074-0.172,0.15-0.285,0.23c-0.059,0.042-0.124,0.088-0.228,0.127c-0.098,0.036-0.262,0.051-0.387,0.004
					c-0.234-0.091-0.308-0.198-0.402-0.281l-0.234-0.248c-0.147-0.162-0.293-0.314-0.444-0.467
					c-0.605-0.602-1.273-1.145-1.979-1.652c-0.696-0.502-1.424-0.967-2.187-1.344c-1.525-0.748-3.212-1.202-4.903-1.396
					c-3.407-0.35-6.888,0.422-9.945,1.956c-1.535,0.763-2.97,1.72-4.28,2.826c-1.309,1.12-2.476,2.365-3.411,3.782
					c-1.882,2.826-3.016,6.184-3.105,9.559c-0.079,3.363,0.864,6.778,2.514,9.707c1.646,2.955,4.167,5.369,7.22,6.774
					c3.021,1.456,6.512,1.743,9.814,1.136c1.662-0.311,3.229-0.851,4.731-1.656c0.757-0.389,1.488-0.813,2.191-1.281l0.526-0.361
					c0.188-0.125,0.342-0.256,0.632-0.412c0.221-0.113,0.421-0.18,0.714-0.191c0.287-0.006,0.586,0.102,0.773,0.227
					c0.375,0.253,0.521,0.486,0.664,0.654c0.539,0.677,1.085,1.256,1.714,1.826l0.462,0.412l0.508,0.419
					c0.321,0.253,0.646,0.491,0.997,0.728c1.385,0.941,2.914,1.662,4.515,2.221c1.609,0.564,3.237,0.975,4.928,1.186
					c1.661,0.198,3.369,0.182,5.051-0.018c0.42-0.049,0.838-0.111,1.242-0.188c0.399-0.078,0.787-0.184,1.212-0.303
					c0.216-0.063,0.394-0.121,0.704-0.186c0.176-0.035,0.414-0.065,0.693,0.009c0.27,0.065,0.499,0.216,0.627,0.334
					c0.301,0.274,0.385,0.425,0.542,0.603l0.414,0.52c0.523,0.701,1.081,1.211,1.73,1.828l0.956,0.862l0.492,0.435
					c0.088,0.079,0.183,0.159,0.299,0.283c0.119,0.117,0.276,0.336,0.354,0.555c0.138,0.439,0.113,0.658,0.135,0.894l0.028,0.665
					c0.018,0.432,0.044,0.859,0.076,1.287c0.063,0.859,0.152,1.725,0.256,2.588c0.188,1.758,0.509,3.357,0.832,5.203
					c0.015,0.113,0.02,0.201,0.005,0.357c-0.014,0.074-0.026,0.17-0.082,0.299c-0.043,0.115-0.171,0.311-0.365,0.424
					c-0.191,0.117-0.411,0.141-0.531,0.129c-0.144-0.01-0.223-0.037-0.299-0.059c-0.146-0.055-0.225-0.105-0.305-0.154
					c-0.154-0.102-0.252-0.182-0.336-0.249l-0.261-0.21l-1.009-0.818c-0.696-0.544-1.382-1.064-2.083-1.578
					c-1.409-1.038-2.842-2.014-4.314-2.928c-2.943-1.823-6.062-3.419-9.29-4.668c-1.606-0.624-3.273-1.178-4.937-1.672
					c-1.672-0.5-3.344-0.909-5.048-1.178c-1.703-0.264-3.413-0.382-5.104-0.209c-0.844,0.08-1.667,0.245-2.468,0.497
					c-0.795,0.249-1.552,0.581-2.175,1.082l-0.051,0.04c-0.03,0.017-0.019,0.034,0.047-0.066c0.291-0.623-0.728-0.954-0.428-0.77
					c-0.018,0.004,0.005,0,0.019-0.001l0.291-0.063l0.648-0.148c0.439-0.098,0.88-0.182,1.325-0.256
					c0.892-0.139,1.79-0.217,2.694-0.234c1.793-0.044,3.623,0.197,5.333,0.66c1.695,0.412,3.43,0.762,5.137,1.271
					c1.693,0.512,3.365,1.088,5.015,1.719c3.297,1.268,6.509,2.783,9.522,4.627c3.021,1.836,5.851,3.998,8.345,6.499
					c0.629,0.603,1.229,1.287,1.91,1.741c0.175,0.107,0.346,0.154,0.435,0.086c0.12-0.077,0.137-0.215,0.088-0.41l-0.428-1.232
					c-0.588-1.654-1.14-3.332-1.592-5.037c-0.438-1.704-0.845-3.422-0.982-5.193c-0.039-0.436-0.072-0.884-0.035-1.334
					c0.021-0.223,0.049-0.456,0.161-0.676c0.054-0.112,0.157-0.229,0.303-0.27c0.149-0.041,0.283,0.005,0.392,0.053
					c0.774,0.444,1.563,0.802,2.388,1.086c3.306,1.162,6.994,1.025,10.294-0.135c3.308-1.151,6.293-3.23,8.527-5.938
					C159.088,60.688,160.418,57.29,160.875,53.812z M160.875,53.812c-0.436,3.482-1.743,6.895-4.002,9.613
					c-2.226,2.729-5.209,4.836-8.533,6.02c-3.313,1.184-7.04,1.352-10.4,0.193c-0.834-0.279-1.658-0.654-2.412-1.078
					c-0.391-0.229-0.529,0.32-0.551,0.719c-0.029,0.428,0,0.857,0.042,1.299c0.146,1.736,0.563,3.456,1.01,5.146
					c0.458,1.691,1.017,3.35,1.636,4.997c0.146,0.421,0.303,0.808,0.454,1.251c0.031,0.123,0.054,0.252,0.031,0.4
					c-0.028,0.153-0.122,0.293-0.246,0.378c-0.13,0.097-0.313,0.113-0.448,0.083c-0.138-0.029-0.251-0.083-0.357-0.145
					c-0.79-0.514-1.361-1.167-2.012-1.764c-2.509-2.443-5.339-4.533-8.352-6.3c-3.014-1.774-6.206-3.229-9.491-4.432
					c-1.643-0.599-3.307-1.144-4.985-1.622c-1.671-0.467-3.392-0.787-5.116-1.18c-1.691-0.426-3.387-0.617-5.104-0.559
					c-0.854,0.033-1.708,0.125-2.552,0.271c-0.424,0.073-0.842,0.162-1.263,0.26l-0.63,0.156c-0.112,0.028-0.217,0.056-0.353,0.08
					c-0.041,0.007-0.074,0.015-0.147,0.018c0.255,0.196-0.863-0.144-0.524-0.835c0.097-0.143,0.149-0.162,0.16-0.182l0.081-0.06
					c0.743-0.617,1.619-1.011,2.492-1.302s1.782-0.484,2.684-0.586c1.808-0.218,3.638-0.12,5.406,0.131
					c1.771,0.25,3.528,0.654,5.229,1.137c1.716,0.479,3.396,1.009,5.07,1.631c3.355,1.238,6.557,2.796,9.593,4.668
					c1.519,0.931,3,1.924,4.431,2.963c0.719,0.519,1.437,1.061,2.129,1.592l1.042,0.836l0.252,0.201l0.191,0.143
					c0.014,0.012,0.033,0.021-0.011,0c-0.029,0-0.174-0.102-0.513,0.072c-0.148,0.086-0.237,0.238-0.264,0.298
					c-0.035,0.084-0.035,0.116-0.04,0.138c-0.004,0.049-0.004,0.026-0.004,0.026c-0.297-1.605-0.672-3.456-0.864-5.196
					c-0.107-0.88-0.206-1.766-0.279-2.66c-0.039-0.445-0.067-0.891-0.087-1.342l-0.032-0.652c-0.007-0.199-0.035-0.426-0.038-0.408
					c0,0.013,0.027,0.047-0.007,0.007c-0.036-0.034-0.104-0.096-0.182-0.167l-0.503-0.432l-1.006-0.896
					c-0.627-0.584-1.364-1.278-1.896-1.99l-0.412-0.506c-0.128-0.156-0.302-0.363-0.329-0.385c-0.033-0.029,0,0.012,0.057,0.021
					c0.069,0.01,0.08,0.002,0.041,0.01c-0.118,0.026-0.36,0.098-0.566,0.159c-0.423,0.121-0.882,0.25-1.345,0.339
					c-0.457,0.093-0.908,0.164-1.361,0.221c-1.811,0.225-3.64,0.252-5.469,0.051c-1.801-0.215-3.608-0.647-5.312-1.25
					c-1.709-0.611-3.384-1.41-4.904-2.453c-0.375-0.259-0.753-0.542-1.125-0.836l-0.506-0.423l-0.521-0.467
					c-0.667-0.611-1.327-1.321-1.879-2.03c-0.126-0.168-0.256-0.295-0.249-0.281c0.004,0.004,0.087,0.039,0.149,0.035
					c0.075-0.008,0.061-0.008,0.09-0.02c-0.106,0.047-0.297,0.188-0.476,0.309l-0.562,0.381c-0.762,0.504-1.556,0.957-2.363,1.367
					c-1.604,0.85-3.398,1.457-5.195,1.78c-3.594,0.646-7.454,0.306-10.782-1.325c-1.66-0.789-3.205-1.834-4.535-3.111
					c-0.335-0.32-0.65-0.643-0.965-0.998c-0.16-0.177-0.296-0.344-0.438-0.512c-0.154-0.186-0.285-0.361-0.431-0.545
					c-0.275-0.359-0.539-0.738-0.802-1.133c-0.232-0.361-0.478-0.771-0.699-1.158c-0.91-1.61-1.559-3.299-1.996-5.076
					c-0.438-1.778-0.65-3.585-0.571-5.424c0.158-3.662,1.425-7.205,3.479-10.191c1.028-1.5,2.308-2.826,3.691-3.965
					c1.393-1.144,2.917-2.125,4.542-2.906c3.24-1.557,6.904-2.313,10.506-1.888c1.793,0.232,3.546,0.735,5.162,1.558
					c0.808,0.417,1.561,0.91,2.281,1.449c0.709,0.531,1.405,1.108,2.036,1.758c0.157,0.158,0.311,0.327,0.457,0.492l0.214,0.234
					c0.06,0.067,0.144,0.127,0.117,0.111c-0.017-0.006-0.064-0.003-0.062,0c0,0,0.03-0.014,0.062-0.035
					c0.066-0.047,0.146-0.114,0.224-0.18l0.498-0.434c0.683-0.583,1.4-1.115,2.146-1.604c1.487-0.984,3.089-1.791,4.767-2.387
					c3.339-1.207,7.021-1.581,10.505-0.873c3.469,0.705,6.801,2.25,9.406,4.665c1.305,1.207,2.357,2.652,3.246,4.177
					c0.444,0.762,0.852,1.539,1.219,2.344c0.188,0.401,0.351,0.819,0.544,1.193c0.104,0.207,0.208,0.237,0.429,0.156l0.618-0.223
					c1.679-0.567,3.472-0.791,5.236-0.597c0.881,0.101,1.742,0.302,2.588,0.554c0.845,0.241,1.677,0.556,2.461,0.963
					c3.14,1.621,5.649,4.378,7.063,7.602C161,46.702,161.33,50.335,160.875,53.812z"/>
				<path fill="#FFFFFF" d="M158.256,57.946c-1.671,4.915-5.785,8.826-10.628,10.599c-2.431,0.868-5.071,1.257-7.646,0.841
					c-2.559-0.484-4.934-1.697-7.001-3.257c-1.053-0.771-2.008-1.65-2.806-2.724c-0.091-0.138-0.178-0.297-0.228-0.48
					c-0.057-0.172-0.027-0.459,0.161-0.605c0.321-0.223,0.626-0.306,0.915-0.439c0.56-0.274,1.155-0.562,1.686-0.902
					c1.083-0.67,2.143-1.413,3.002-2.34c0.836-0.928,1.622-1.974,1.941-3.161c0.02-0.067,0.033-0.14,0.033-0.154
					c0-0.005-0.007-0.005,0.004,0.024c-0.004-0.004,0.051,0.13,0.183,0.145c0.132,0.012,0.139-0.023,0.158-0.027
					c0.009-0.004,0.009-0.009,0.004-0.002c-0.033,0.039-0.123,0.24-0.188,0.367c-0.152,0.303-0.3,0.586-0.481,0.873
					c-0.354,0.575-0.749,1.095-1.209,1.592c-0.917,0.973-2.029,1.738-3.205,2.34c-2.341,1.22-4.951,1.845-7.527,2.186
					c-2.637,0.309-5.265,0.224-7.87-0.326c-1.296-0.268-2.557-0.65-3.795-1.131c-1.255-0.52-2.401-1.172-3.51-1.899
					c-0.542-0.356-1.107-0.771-1.603-1.169c-0.532-0.434-1.023-0.887-1.49-1.373c-0.899-0.971-1.767-1.954-2.508-3.109
					c-0.364-0.574-0.685-1.112-1.019-1.699c-0.31-0.533-0.663-1.305-0.82-1.828c-0.002,0.004-0.016-0.033,0.003,0.012
					c0.006-0.002,0.063,0.107,0.231,0.183c-0.005-0.015-0.1-0.028,0.111,0.032c0.157,0.024,0.271,0.002,0.373-0.047
					c0.201-0.092,0.271-0.235,0.298-0.294c0.063-0.13,0.021-0.3,0.045-0.146c0.017,0.1,0.021,0.072,0.034,0.136
					c0.019,0.055,0.036,0.115,0.063,0.184l0.083,0.223l0.168,0.412c0.25,0.564,0.533,1.099,0.842,1.678l0.457,0.889
					c0.169,0.346,0.326,0.785,0.303,1.297c-0.008,0.254-0.075,0.528-0.195,0.771c-0.03,0.061-0.064,0.121-0.1,0.179l-0.065,0.098
					l-0.036,0.049c-0.046,0.06-0.095,0.13-0.177,0.222c-0.283,0.336-0.583,0.573-0.891,0.781c-0.147,0.105-0.29,0.195-0.444,0.286
					c-0.139,0.087-0.269,0.169-0.429,0.254c-0.316,0.179-0.614,0.329-0.924,0.476c-0.624,0.287-1.236,0.529-1.903,0.744
					c-2.584,0.809-5.333,1.01-8.004,0.685c-1.323-0.167-2.683-0.435-3.964-0.944c-1.277-0.484-2.497-1.191-3.574-1.988
					c-2.197-1.629-3.948-3.773-5.235-6.139c-1.264-2.363-2.108-5.012-2.268-7.734c-0.172-2.729,0.392-5.486,1.535-7.939
					c1.127-2.469,2.809-4.636,4.766-6.451c0.999-0.902,2.007-1.73,3.18-2.459c1.153-0.711,2.392-1.284,3.676-1.704
					c5.111-1.699,11.083-0.869,15.324,2.507c0.535,0.422,1.018,0.863,1.498,1.33c0.237,0.233,0.468,0.477,0.688,0.715
					c0.108,0.111,0.233,0.248,0.299,0.313c0.075,0.063,0.082,0.044,0.026,0.044c-0.045,0.014,0.039-0.006,0.136-0.078
					c0.099-0.07,0.215-0.171,0.334-0.271c0.235-0.208,0.485-0.431,0.745-0.643c0.503-0.407,1.058-0.822,1.605-1.179
					c2.22-1.454,4.705-2.465,7.283-3.016c2.582-0.559,5.246-0.627,7.847-0.188c2.593,0.433,5.109,1.393,7.27,2.897
					c2.165,1.49,3.936,3.512,5.215,5.779c0.324,0.569,0.61,1.153,0.886,1.738c0.284,0.578,0.515,1.209,0.83,1.719
					c0.087,0.119,0.171,0.193,0.287,0.211c0.118,0.025,0.273,0.007,0.426-0.02l0.945-0.193c0.637-0.131,1.285-0.223,1.936-0.264
					c2.604-0.158,5.245,0.512,7.456,1.871c2.214,1.363,3.993,3.367,5.259,5.614c1.255,2.27,1.921,4.825,2.136,7.399
					C159.402,52.886,159.095,55.505,158.256,57.946z M158.256,57.946c0.83-2.445,1.124-5.063,0.911-7.633
					c-0.225-2.566-0.904-5.115-2.162-7.37c-1.263-2.238-3.073-4.187-5.279-5.512c-2.202-1.319-4.809-1.945-7.362-1.753
					c-0.634,0.047-1.268,0.145-1.895,0.281l-0.946,0.212c-0.162,0.03-0.334,0.062-0.535,0.032c-0.214-0.028-0.385-0.186-0.486-0.326
					c-0.376-0.586-0.593-1.172-0.894-1.748c-0.287-0.575-0.583-1.145-0.911-1.693c-1.3-2.195-3.064-4.119-5.19-5.514
					c-2.112-1.41-4.557-2.279-7.063-2.645c-2.498-0.371-5.086-0.249-7.538,0.336c-2.463,0.582-4.819,1.604-6.891,3.027
					c-0.523,0.361-1.004,0.729-1.488,1.145c-0.239,0.201-0.465,0.412-0.711,0.635c-0.123,0.111-0.251,0.227-0.414,0.346
					c-0.159,0.115-0.363,0.273-0.732,0.307c-0.39,0.026-0.683-0.177-0.847-0.322c-0.172-0.152-0.263-0.256-0.38-0.374
					c-0.223-0.231-0.444-0.453-0.67-0.665c-0.455-0.424-0.934-0.844-1.424-1.214c-1.973-1.493-4.347-2.427-6.792-2.753
					c-2.453-0.332-4.973-0.061-7.307,0.732c-1.161,0.399-2.282,0.932-3.316,1.591c-1.014,0.642-2.005,1.467-2.905,2.311
					c-1.807,1.71-3.309,3.735-4.329,5.971c-1.023,2.228-1.508,4.687-1.35,7.124c0.017,0.307,0.05,0.603,0.084,0.895
					c0.037,0.289,0.088,0.664,0.144,0.913c0.109,0.606,0.26,1.202,0.438,1.794c0.354,1.169,0.839,2.309,1.427,3.398
					c1.164,2.17,2.76,4.123,4.709,5.585c1.959,1.495,4.239,2.358,6.713,2.635c2.45,0.301,4.968,0.169,7.327-0.545
					c1.157-0.356,2.282-0.852,3.288-1.505c0.232-0.152,0.438-0.326,0.574-0.481c0.221-0.267,0.199-0.246,0.228-0.401
					c0.009-0.133-0.035-0.328-0.146-0.563l-0.423-0.837c-0.29-0.564-0.603-1.176-0.867-1.798c-0.066-0.153-0.133-0.326-0.188-0.486
					l-0.081-0.231c-0.029-0.087-0.059-0.18-0.087-0.28c-0.024-0.09-0.066-0.271-0.071-0.337c0.001-0.004-0.072-0.335,0.057-0.619
					c0.053-0.136,0.178-0.345,0.449-0.478c0.143-0.06,0.295-0.095,0.492-0.06c0.252,0.058,0.194,0.063,0.224,0.07
					c0.24,0.111,0.355,0.285,0.399,0.353c0.067,0.107,0.084,0.152,0.116,0.223c0.225,0.707,0.405,1.122,0.723,1.718
					c0.295,0.543,0.619,1.122,0.938,1.645c0.313,0.532,0.675,1.011,1.069,1.515c0.387,0.493,0.793,0.975,1.217,1.446
					c0.418,0.452,0.868,0.88,1.325,1.276c0.506,0.416,0.977,0.779,1.505,1.145c1.032,0.711,2.128,1.363,3.255,1.854
					c1.156,0.478,2.365,0.869,3.597,1.154c2.431,0.575,5.034,0.72,7.532,0.472c2.534-0.281,5.037-0.822,7.316-1.949
					c1.134-0.55,2.193-1.248,3.066-2.139c0.431-0.443,0.829-0.949,1.164-1.467c0.171-0.252,0.326-0.539,0.474-0.813
					c0.087-0.148,0.108-0.257,0.271-0.479c0.021-0.024,0.051-0.055,0.09-0.083c0.052-0.026,0.097-0.087,0.269-0.073
					c0.172,0.025,0.256,0.197,0.259,0.236c0.021,0.064,0.021,0.104,0.021,0.143c-0.004,0.145-0.033,0.232-0.056,0.316
					c-0.893,2.609-3.05,4.395-5.277,5.682c-0.568,0.341-1.148,0.604-1.748,0.885c-0.301,0.129-0.626,0.234-0.84,0.371
					c-0.157,0.102-0.049,0.423,0.112,0.673c0.721,1.015,1.675,1.925,2.693,2.688c2.027,1.57,4.359,2.795,6.882,3.309
					c2.532,0.437,5.174,0.105,7.594-0.758C152.438,66.735,156.565,62.854,158.256,57.946z"/>
			</g>
		</g>
	</g>
	<g>
		<path fill="#1C1C1C" d="M139.904,146.464c-0.514,0.184-1.527,0.488-2.727,0.488c-1.345,0-2.452-0.344-3.32-1.174
			c-0.765-0.736-1.239-1.922-1.239-3.307c0.015-2.648,1.832-4.584,4.809-4.584c1.027,0,1.831,0.224,2.213,0.41l-0.275,0.934
			c-0.475-0.211-1.068-0.382-1.964-0.382c-2.16,0-3.569,1.344-3.569,3.569c0,2.253,1.355,3.582,3.425,3.582
			c0.75,0,1.265-0.104,1.528-0.234v-2.65h-1.805v-0.921h2.925V146.464z"/>
		<path fill="#1C1C1C" d="M153.119,144.065l-0.922,2.793h-1.185l3.016-8.878h1.382l3.032,8.878h-1.227l-0.948-2.793H153.119z
			 M156.029,143.169l-0.867-2.555c-0.199-0.579-0.328-1.105-0.461-1.619h-0.027c-0.131,0.526-0.276,1.066-0.447,1.607l-0.87,2.566
			H156.029z"/>
		<path fill="#1C1C1C" d="M169.614,145.464c0.514,0.314,1.266,0.578,2.057,0.578c1.173,0,1.857-0.619,1.857-1.514
			c0-0.83-0.476-1.307-1.674-1.766c-1.449-0.515-2.346-1.266-2.346-2.518c0-1.381,1.148-2.41,2.873-2.41
			c0.909,0,1.566,0.211,1.962,0.436l-0.314,0.934c-0.291-0.156-0.884-0.422-1.687-0.422c-1.214,0-1.674,0.727-1.674,1.332
			c0,0.829,0.54,1.238,1.765,1.713c1.503,0.579,2.268,1.304,2.268,2.607c0,1.37-1.016,2.556-3.11,2.556
			c-0.858,0-1.792-0.249-2.266-0.566L169.614,145.464z"/>
		<path fill="#1C1C1C" d="M187.98,138.955h-2.7v-0.975h6.572v0.975h-2.714v7.903h-1.158V138.955z"/>
		<path fill="#1C1C1C" d="M202.866,138.099c0.579-0.118,1.409-0.186,2.2-0.186c1.225,0,2.015,0.225,2.567,0.727
			c0.448,0.394,0.7,1,0.7,1.686c0,1.172-0.738,1.949-1.674,2.266v0.039c0.684,0.237,1.093,0.871,1.303,1.793
			c0.291,1.238,0.501,2.094,0.686,2.436h-1.186c-0.144-0.25-0.344-1.014-0.591-2.121c-0.265-1.225-0.738-1.687-1.781-1.725h-1.079
			v3.846h-1.146V138.099z M204.011,142.144h1.174c1.225,0,2.001-0.672,2.001-1.686c0-1.146-0.829-1.649-2.041-1.662
			c-0.555,0-0.95,0.054-1.134,0.106V142.144z"/>
		<path fill="#1C1C1C" d="M227.568,142.327c0,3.057-1.857,4.678-4.125,4.678c-2.344,0-3.991-1.817-3.991-4.508
			c0-2.818,1.753-4.662,4.124-4.662C226,137.835,227.568,139.692,227.568,142.327z M220.677,142.472
			c0,1.898,1.026,3.598,2.832,3.598c1.819,0,2.846-1.674,2.846-3.689c0-1.766-0.922-3.609-2.831-3.609
			C221.627,138.771,220.677,140.522,220.677,142.472z"/>
		<path fill="#1C1C1C" d="M239.084,146.858v-8.878h1.25l2.847,4.491c0.657,1.041,1.171,1.977,1.594,2.885l0.025-0.013
			c-0.104-1.186-0.132-2.265-0.132-3.647v-3.716h1.079v8.878h-1.156l-2.82-4.505c-0.619-0.989-1.212-2.002-1.66-2.964l-0.04,0.012
			c0.065,1.121,0.093,2.187,0.093,3.664v3.793H239.084z"/>
		<path fill="#1C1C1C" d="M265.368,142.327c0,3.057-1.857,4.678-4.125,4.678c-2.345,0-3.991-1.817-3.991-4.508
			c0-2.818,1.753-4.662,4.125-4.662C263.8,137.835,265.368,139.692,265.368,142.327z M258.477,142.472
			c0,1.898,1.027,3.598,2.832,3.598c1.819,0,2.847-1.674,2.847-3.689c0-1.766-0.922-3.609-2.832-3.609
			C259.427,138.771,258.477,140.522,258.477,142.472z"/>
		<path fill="#1C1C1C" d="M284.367,142.96c-0.065-1.238-0.145-2.727-0.133-3.834h-0.038c-0.305,1.041-0.672,2.147-1.12,3.371
			l-1.567,4.31h-0.871l-1.434-4.229c-0.424-1.251-0.779-2.396-1.028-3.451h-0.026c-0.026,1.107-0.093,2.596-0.172,3.925
			l-0.235,3.808h-1.096l0.619-8.878h1.463l1.515,4.294c0.368,1.094,0.672,2.068,0.896,2.991h0.04
			c0.224-0.896,0.54-1.872,0.937-2.991l1.58-4.294h1.463l0.553,8.878h-1.119L284.367,142.96z"/>
		<path fill="#1C1C1C" d="M300.008,135.964l-1.687,1.541h-0.938l1.214-1.541H300.008z M298.651,137.98v8.878h-1.147v-8.878H298.651z
			"/>
		<path fill="#1C1C1C" d="M312.112,144.065l-0.923,2.793h-1.187l3.019-8.878h1.383l3.029,8.878h-1.224l-0.95-2.793H312.112z
			 M315.023,143.169l-0.87-2.555c-0.196-0.579-0.329-1.105-0.46-1.619h-0.026c-0.133,0.526-0.277,1.066-0.448,1.607l-0.869,2.566
			H315.023z"/>
	</g>
	<g>
		<path fill="#FFFFFF" d="M14.076,127.003c0-0.85,0.423-1.272,1.273-1.483c5.937-1.486,6.36,9.753,7.209,10.176
			c8.693,7.21,27.14,10.603,41.133,10.603c27.989,0,65.307-15.902,65.307-47.707c0-13.994-7.844-24.809-22.475-26.081
			c-6.786,0-12.086,0.211-17.812,5.302c-2.757,2.332-3.392,8.905-4.242,14.206c5.939-9.329,10.816-16.327,10.816-16.327
			c0.634-1.272,1.271-1.483,1.908-1.483c1.483,0,2.331,2.542,2.331,3.604c0,1.695-0.848,3.18-0.848,3.18l-13.357,19.72
			c-19.297,27.565-19.932,37.741-19.932,39.014c0,1.696-1.06,2.121-1.697,2.121c-1.694,0-1.908-0.849-1.908-1.696
			c0-9.118,9.967-28.413,20.145-44.104c0-4.24,0.423-16.113,5.513-20.355c6.148-5.301,12.934-6.148,19.93-5.725
			c14.844,0.847,27.778,10.814,27.778,28.625c0,33.924-41.135,50.889-70.396,50.889c-8.693,0-17.386-1.273-25.444-3.605
			C31.886,144.601,14.076,137.181,14.076,127.003z"/>
	</g>
</g>
</svg>
