<?xml version="1.0" encoding="utf-8"?>
<!-- Generator: Adobe Illustrator 15.0.0, SVG Export Plug-In . SVG Version: 6.00 Build 0)  -->
<!DOCTYPE svg PUBLIC "-//W3C//DTD SVG 1.1//EN" "http://www.w3.org/Graphics/SVG/1.1/DTD/svg11.dtd">
<svg version="1.1" id="Capa_1" xmlns="http://www.w3.org/2000/svg" xmlns:xlink="http://www.w3.org/1999/xlink" x="0px" y="0px"
	 width="84.082px" height="71.755px" viewBox="0 0 84.082 71.755" enable-background="new 0 0 84.082 71.755" xml:space="preserve">
<g>
	<g>
		<g>
			<g>
				<path fill="#FFFFFF" d="M73.506,22.113c0.091-0.686,0.105-1.38,0.039-2.07c-0.033-0.346-0.09-0.688-0.164-1.029
					c-0.08-0.339-0.179-0.677-0.305-1.002c-0.126-0.328-0.274-0.649-0.449-0.957c-0.086-0.152-0.181-0.299-0.281-0.449
					c-0.044-0.064-0.101-0.142-0.152-0.213c-0.053-0.072-0.104-0.139-0.158-0.21c-0.443-0.543-0.96-1.026-1.548-1.416
					c-0.294-0.191-0.603-0.359-0.926-0.497c-0.157-0.066-0.315-0.125-0.478-0.177c-1.032-0.323-1.827-0.43-2.887-0.224
					c-1.479,0.29-0.855,0.746-1.622-0.746c-0.328-0.636-0.71-1.254-1.177-1.801c-0.938-1.097-2.22-1.851-3.59-2.271
					c-0.604-0.188-1.237-0.313-1.867-0.36c-2.031-0.146-4.087,0.51-5.75,1.686c-1.706,1.206-0.594,1.143-2.234-0.126
					c-0.394-0.303-0.801-0.575-1.25-0.789C48,9.123,47.151,8.905,46.369,8.852c-2.5-0.171-4.967,0.963-6.682,2.711
					c-1.112,1.133-1.863,2.672-2.141,4.202c-0.138,0.765-0.158,1.556-0.051,2.349c0.107,0.78,0.321,1.544,0.633,2.27
					c0.157,0.361,0.341,0.712,0.547,1.051c0.18,0.299,0.386,0.586,0.605,0.855c0.83,1.023,1.905,1.769,3.144,2.211
					c1.743,0.625,3.924,0.469,5.588-0.335c1.033-0.493,1.498-0.877,1.701-1.005c0.234-0.146,0.358-0.016,0.51,0.178
					c0.301,0.383,0.614,0.697,0.982,1.014c0.599,0.523,1.29,0.943,2.02,1.26c0.727,0.313,1.492,0.55,2.279,0.697
					c0.784,0.146,1.469,0.174,2.278,0.129c0.409-0.025,0.941-0.091,1.333-0.184c0.203-0.053,0.312-0.086,0.535-0.149
					c0.158-0.043,0.248-0.051,0.369,0.063c0.077,0.076,0.459,0.566,0.542,0.657c0.085,0.092,0.171,0.183,0.259,0.271
					c0.305,0.303,0.623,0.579,0.948,0.864c0.403,0.348,0.045,0.099,0.488,3.219c0.047,0.33,0.238,1.314,0.262,1.455
					c0.022,0.146-0.011,0.227-0.163,0.127c-0.075-0.048-0.495-0.398-0.62-0.495c-0.258-0.203-0.523-0.403-0.788-0.599
					c-0.267-0.197-0.534-0.39-0.807-0.578c-1.162-0.802-2.387-1.523-3.671-2.124c-0.644-0.301-1.301-0.571-1.971-0.813
					c-0.673-0.24-1.343-0.454-2.024-0.643c-0.684-0.188-1.379-0.348-2.091-0.445c-0.709-0.099-1.436-0.135-2.165-0.052
					c-0.364,0.042-0.729,0.117-1.078,0.232c-0.09,0.03-0.176,0.06-0.268,0.096c-0.081,0.033-0.172,0.069-0.257,0.113
					c-0.176,0.087-0.34,0.192-0.492,0.318c-0.304,0.248,1.617-0.685,4.165-0.063c0.852,0.209,1.722,0.365,2.562,0.619
					c0.739,0.223,1.475,0.475,2.202,0.755c2.527,0.972,4.954,2.311,6.958,4.147c0.909,0.834,1.377,1.443,1.613,1.229
					c0.1-0.089,0.054-0.227,0.013-0.338c-0.049-0.134-0.099-0.269-0.146-0.406c-0.143-0.407-0.294-0.809-0.422-1.223
					c-0.144-0.46-0.279-0.924-0.395-1.395c-0.111-0.47-0.213-0.947-0.28-1.429c-0.019-0.12-0.025-0.246-0.034-0.372
					c-0.019-0.192-0.116-1.134,0.323-0.874c0.084,0.051,0.173,0.096,0.263,0.141c0.605,0.3,1.264,0.501,1.937,0.591
					c0.676,0.088,1.364,0.072,2.035-0.043c1.345-0.234,2.613-0.842,3.677-1.702c0.53-0.431,1.012-0.929,1.422-1.48
					c0.409-0.552,0.747-1.167,0.993-1.813S73.419,22.798,73.506,22.113z M72.383,23.888c-0.406,1.198-1.166,2.271-2.137,3.107
					c-0.968,0.837-2.145,1.446-3.405,1.706c-0.63,0.135-1.28,0.177-1.92,0.117c-0.643-0.057-1.229-0.262-1.822-0.526
					c-0.297-0.131-0.583-0.29-0.856-0.465c-0.278-0.174-0.545-0.364-0.805-0.565c-0.258-0.202-0.484-0.404-0.705-0.645
					c-0.162-0.178-0.644-0.662-0.351-0.822c0.161-0.088,0.303-0.122,0.47-0.211c0.171-0.088,0.342-0.164,0.511-0.262
					c0.338-0.199,0.661-0.41,0.968-0.654c0.092-0.076,0.18-0.15,0.269-0.232c0.227-0.213,0.43-0.45,0.613-0.703
					c0.188-0.262,0.343-0.527,0.446-0.885c0.046-0.162-0.023-0.174-0.088-0.037c-0.041,0.083-0.085,0.17-0.129,0.247
					c-0.102,0.189-0.218,0.366-0.346,0.535c-0.504,0.671-1.188,1.118-1.951,1.454c-0.34,0.154-0.695,0.288-1.056,0.39
					c-0.468,0.131-0.948,0.229-1.431,0.304c-0.842,0.13-1.703,0.146-2.552,0.065c-0.856-0.084-1.718-0.29-2.526-0.595
					c-0.704-0.258-1.516-0.756-2.111-1.213c-0.299-0.227-0.576-0.479-0.833-0.756c-0.257-0.276-0.502-0.57-0.733-0.877
					c-0.231-0.303-0.407-0.613-0.6-0.943c-0.046-0.082-0.092-0.162-0.133-0.244c-0.094-0.17-0.177-0.349-0.242-0.534
					c-0.022-0.057-0.058-0.21-0.108-0.244c-0.066-0.042-0.104,0.025-0.101,0.088c0.008,0.091,0.037,0.178,0.068,0.263
					c0.036,0.104,0.062,0.175,0.107,0.275c0.161,0.378,0.369,0.736,0.551,1.107c0.103,0.209,0.154,0.457,0.012,0.667
					c-0.142,0.204-0.32,0.334-0.535,0.466c-0.413,0.256-0.859,0.448-1.32,0.601c-0.289,0.094-0.584,0.163-0.88,0.217
					c-1.037,0.188-2.126,0.158-3.157-0.056c-0.695-0.145-1.354-0.418-1.946-0.797c-1.191-0.757-2.128-1.896-2.741-3.188
					c-0.307-0.646-0.531-1.335-0.654-2.043c-0.505-2.943,1.011-5.584,3.305-7.317c2.476-1.874,6.158-1.95,8.587,0.16
					c0.365,0.317,0.516,0.483,0.736,0.714c0.274,0.285,0.406,0.037,0.899-0.374c1.616-1.347,3.825-2.073,5.91-2.004
					c2.762,0.089,5.241,1.399,6.63,4.136c0.735,1.451,0.366,1.242,1.513,1.037c1.208-0.217,2.401-0.027,3.475,0.523
					c0.275,0.142,0.539,0.309,0.789,0.496c0.498,0.371,0.937,0.821,1.31,1.324c0.75,0.991,1.182,2.192,1.355,3.442
					C72.905,21.385,72.795,22.69,72.383,23.888z"/>
			</g>
			<g>
				<path fill="#FFFFFF" d="M73.506,22.113c0.187-1.493,0.036-3.051-0.581-4.431c-0.61-1.372-1.691-2.543-3.029-3.227
					c-0.337-0.169-0.688-0.301-1.05-0.401c-0.36-0.104-0.729-0.189-1.103-0.228c-0.741-0.08-1.507,0.022-2.211,0.266l-0.267,0.096
					c-0.047,0.015-0.1,0.036-0.165,0.015c-0.065-0.025-0.097-0.075-0.12-0.118c-0.092-0.174-0.158-0.347-0.239-0.517
					c-0.159-0.339-0.335-0.674-0.524-0.996c-0.381-0.646-0.836-1.255-1.386-1.76c-1.104-1.021-2.53-1.644-3.995-1.919
					C57.364,8.619,55.833,8.8,54.44,9.326c-0.696,0.262-1.361,0.609-1.975,1.028c-0.309,0.208-0.604,0.437-0.882,0.681l-0.211,0.188
					c-0.037,0.031-0.073,0.064-0.12,0.101c-0.025,0.016-0.053,0.036-0.098,0.053s-0.114,0.022-0.166,0.002
					c-0.1-0.039-0.134-0.084-0.173-0.12l-0.102-0.107c-0.063-0.069-0.125-0.135-0.19-0.201c-0.26-0.26-0.548-0.49-0.85-0.709
					c-0.298-0.215-0.612-0.413-0.938-0.576c-0.656-0.321-1.38-0.517-2.107-0.599c-1.458-0.15-2.955,0.181-4.268,0.838
					c-0.657,0.328-1.276,0.739-1.835,1.216c-0.563,0.478-1.064,1.014-1.467,1.623c-0.807,1.212-1.295,2.655-1.332,4.101
					c-0.034,1.445,0.369,2.91,1.078,4.168c0.708,1.269,1.787,2.306,3.101,2.909c1.296,0.624,2.796,0.749,4.214,0.487
					c0.711-0.134,1.386-0.365,2.03-0.711c0.325-0.168,0.639-0.35,0.939-0.551l0.227-0.154c0.079-0.054,0.146-0.11,0.27-0.178
					c0.097-0.048,0.182-0.076,0.307-0.08c0.124-0.004,0.253,0.043,0.333,0.097c0.161,0.108,0.225,0.208,0.286,0.279
					c0.229,0.291,0.465,0.537,0.735,0.784l0.197,0.176l0.219,0.182c0.139,0.106,0.277,0.211,0.426,0.311
					c0.597,0.404,1.252,0.714,1.939,0.955c0.691,0.242,1.389,0.418,2.114,0.51c0.714,0.082,1.45,0.078,2.169-0.008
					c0.182-0.021,0.361-0.049,0.534-0.082c0.172-0.032,0.338-0.079,0.519-0.13c0.094-0.025,0.17-0.052,0.305-0.079
					c0.074-0.015,0.177-0.027,0.297,0.002c0.115,0.029,0.214,0.094,0.27,0.146c0.129,0.116,0.164,0.183,0.231,0.26l0.181,0.222
					c0.223,0.301,0.461,0.521,0.74,0.785l0.411,0.371l0.211,0.185c0.038,0.033,0.078,0.069,0.13,0.122
					c0.049,0.051,0.118,0.143,0.148,0.239c0.062,0.187,0.05,0.28,0.06,0.382l0.011,0.285c0.008,0.186,0.02,0.368,0.033,0.554
					c0.027,0.369,0.065,0.739,0.112,1.111c0.079,0.754,0.217,1.44,0.355,2.231c0.005,0.049,0.009,0.087,0.001,0.155
					c-0.004,0.032-0.01,0.071-0.034,0.128c-0.019,0.048-0.073,0.133-0.157,0.183c-0.081,0.05-0.177,0.059-0.227,0.055
					c-0.064-0.004-0.096-0.016-0.13-0.027c-0.063-0.021-0.095-0.044-0.13-0.063c-0.066-0.045-0.107-0.08-0.145-0.107l-0.111-0.09
					l-0.433-0.353c-0.3-0.234-0.595-0.457-0.896-0.678c-0.604-0.442-1.219-0.864-1.853-1.254c-1.264-0.784-2.601-1.469-3.985-2.004
					c-0.692-0.268-1.406-0.507-2.119-0.72c-0.719-0.215-1.438-0.391-2.168-0.505c-0.732-0.116-1.466-0.166-2.191-0.091
					c-0.363,0.037-0.716,0.105-1.059,0.213c-0.342,0.109-0.668,0.25-0.934,0.467l-0.021,0.015c-0.016,0.008-0.01,0.017,0.019-0.026
					c0.125-0.269-0.312-0.41-0.184-0.33c-0.007,0,0.002-0.001,0.01-0.002l0.125-0.026l0.278-0.064
					c0.186-0.042,0.377-0.077,0.568-0.108c0.382-0.059,0.768-0.096,1.154-0.103c0.772-0.019,1.557,0.086,2.29,0.284
					c0.729,0.178,1.474,0.327,2.206,0.544c0.728,0.222,1.443,0.468,2.15,0.74c1.418,0.541,2.794,1.196,4.09,1.985
					c1.297,0.789,2.511,1.717,3.581,2.791c0.271,0.259,0.528,0.553,0.821,0.747c0.074,0.046,0.148,0.066,0.185,0.036
					c0.054-0.032,0.061-0.091,0.039-0.176l-0.183-0.529c-0.252-0.711-0.491-1.431-0.684-2.162c-0.188-0.731-0.363-1.47-0.423-2.229
					c-0.017-0.188-0.029-0.38-0.015-0.573c0.009-0.096,0.021-0.194,0.068-0.291c0.023-0.048,0.068-0.097,0.131-0.115
					c0.063-0.017,0.121,0.004,0.168,0.025c0.333,0.188,0.671,0.342,1.025,0.465c1.419,0.498,3.004,0.439,4.418-0.057
					c1.419-0.494,2.703-1.387,3.661-2.549C72.741,25.065,73.311,23.605,73.506,22.113z M73.506,22.113
					c-0.186,1.492-0.748,2.96-1.715,4.127c-0.956,1.17-2.238,2.076-3.664,2.584c-1.424,0.508-3.022,0.58-4.465,0.082
					c-0.358-0.12-0.712-0.28-1.037-0.464c-0.166-0.099-0.227,0.138-0.236,0.31c-0.012,0.184,0.002,0.37,0.02,0.558
					c0.063,0.746,0.242,1.485,0.433,2.208c0.196,0.727,0.437,1.439,0.702,2.147c0.064,0.181,0.131,0.345,0.195,0.536
					c0.015,0.051,0.025,0.108,0.013,0.171c-0.011,0.066-0.052,0.127-0.106,0.163c-0.055,0.041-0.134,0.049-0.19,0.036
					c-0.062-0.012-0.108-0.036-0.153-0.062c-0.339-0.221-0.583-0.502-0.863-0.758c-1.077-1.049-2.291-1.946-3.586-2.705
					c-1.294-0.762-2.664-1.387-4.075-1.901c-0.704-0.257-1.418-0.492-2.138-0.696c-0.719-0.201-1.457-0.339-2.197-0.506
					c-0.726-0.184-1.455-0.267-2.189-0.24c-0.369,0.014-0.735,0.053-1.097,0.117c-0.182,0.029-0.361,0.067-0.541,0.111l-0.272,0.065
					c-0.048,0.013-0.092,0.025-0.152,0.036c-0.016,0.002-0.029,0.004-0.061,0.006c0.109,0.084-0.371-0.062-0.227-0.356
					c0.043-0.063,0.064-0.072,0.07-0.079l0.031-0.027c0.321-0.265,0.697-0.434,1.072-0.559s0.766-0.207,1.152-0.25
					c0.776-0.092,1.561-0.052,2.321,0.056s1.513,0.281,2.245,0.487c0.735,0.205,1.456,0.436,2.176,0.701
					c1.439,0.53,2.812,1.2,4.117,2.003c0.652,0.398,1.287,0.827,1.901,1.271c0.31,0.224,0.617,0.455,0.913,0.685l0.45,0.358
					l0.106,0.086l0.082,0.063c0.006,0.004,0.015,0.007-0.004-0.001c-0.013,0.003-0.076-0.043-0.222,0.031
					c-0.063,0.036-0.103,0.102-0.112,0.127c-0.016,0.035-0.016,0.053-0.018,0.061c-0.002,0.021,0,0.012,0,0.012
					c-0.13-0.69-0.289-1.485-0.372-2.232c-0.047-0.378-0.089-0.757-0.12-1.141c-0.016-0.19-0.028-0.383-0.039-0.576l-0.011-0.28
					c-0.003-0.086-0.017-0.184-0.02-0.174c0,0,0.015,0.02-0.003,0.001c-0.013-0.015-0.043-0.043-0.076-0.069l-0.215-0.188
					l-0.434-0.384c-0.269-0.253-0.585-0.55-0.813-0.855l-0.18-0.217c-0.054-0.068-0.127-0.156-0.14-0.164
					c-0.015-0.014,0,0.004,0.023,0.008c0.03,0.005,0.036,0.002,0.021,0.005c-0.052,0.011-0.156,0.042-0.244,0.067
					c-0.182,0.053-0.378,0.107-0.578,0.146c-0.197,0.04-0.39,0.068-0.584,0.094c-0.775,0.098-1.563,0.109-2.348,0.021
					c-0.772-0.092-1.549-0.277-2.28-0.535c-0.733-0.262-1.453-0.605-2.105-1.055c-0.161-0.108-0.323-0.232-0.481-0.356l-0.219-0.185
					l-0.225-0.201c-0.285-0.26-0.568-0.565-0.805-0.868c-0.054-0.073-0.109-0.127-0.106-0.121c0,0,0.036,0.015,0.065,0.015
					c0.032-0.003,0.024-0.003,0.036-0.008c-0.045,0.02-0.125,0.081-0.205,0.132l-0.239,0.164c-0.328,0.216-0.669,0.411-1.014,0.587
					c-0.691,0.362-1.459,0.626-2.23,0.763c-1.543,0.278-3.198,0.132-4.631-0.568c-0.711-0.339-1.375-0.788-1.945-1.335
					c-0.145-0.139-0.279-0.276-0.414-0.429c-0.07-0.076-0.128-0.147-0.189-0.22c-0.066-0.08-0.121-0.155-0.184-0.232
					C38.766,22.162,38.65,22,38.54,21.829c-0.1-0.155-0.205-0.331-0.3-0.499c-0.391-0.69-0.67-1.414-0.857-2.178
					s-0.279-1.539-0.246-2.326c0.069-1.573,0.612-3.093,1.493-4.377c0.443-0.645,0.991-1.213,1.585-1.701
					c0.599-0.491,1.252-0.912,1.95-1.246c1.389-0.67,2.965-0.994,4.511-0.812c0.769,0.099,1.52,0.315,2.214,0.67
					c0.348,0.176,0.671,0.39,0.98,0.621c0.305,0.226,0.604,0.475,0.873,0.753c0.068,0.07,0.133,0.142,0.197,0.211l0.091,0.102
					c0.026,0.03,0.063,0.055,0.051,0.047h-0.027c0,0,0.014-0.005,0.027-0.014c0.028-0.02,0.063-0.049,0.097-0.078l0.215-0.186
					c0.291-0.252,0.601-0.479,0.918-0.689c0.639-0.421,1.328-0.767,2.047-1.025c1.436-0.518,3.016-0.678,4.51-0.373
					c1.49,0.303,2.919,0.966,4.039,2.002c0.559,0.52,1.012,1.139,1.392,1.791c0.191,0.33,0.366,0.664,0.523,1.01
					c0.082,0.17,0.149,0.352,0.234,0.512c0.043,0.089,0.09,0.1,0.184,0.066l0.265-0.096c0.722-0.242,1.492-0.34,2.249-0.256
					c0.378,0.041,0.747,0.13,1.111,0.236c0.361,0.104,0.72,0.24,1.056,0.415c1.348,0.695,2.426,1.882,3.03,3.263
					C73.561,19.063,73.702,20.62,73.506,22.113z"/>
				<path fill="#FFFFFF" d="M72.383,23.888c-0.716,2.11-2.483,3.788-4.562,4.55c-1.043,0.373-2.177,0.539-3.282,0.361
					c-1.099-0.209-2.119-0.729-3.007-1.398c-0.45-0.331-0.861-0.708-1.202-1.168c-0.04-0.063-0.077-0.127-0.098-0.207
					c-0.027-0.073-0.013-0.197,0.068-0.26c0.139-0.096,0.27-0.131,0.393-0.189c0.24-0.119,0.496-0.241,0.725-0.386
					c0.465-0.289,0.919-0.606,1.288-1.005c0.358-0.399,0.694-0.848,0.833-1.356c0.01-0.029,0.016-0.061,0.016-0.061
					c0-0.01-0.004-0.01,0.002,0.004c0,0,0.021,0.057,0.078,0.063c0.055,0.002,0.059-0.012,0.067-0.014
					c0.005-0.003,0.005-0.005,0.002,0c-0.015,0.016-0.054,0.103-0.081,0.158c-0.066,0.129-0.129,0.25-0.209,0.375
					c-0.151,0.245-0.32,0.469-0.517,0.682c-0.395,0.418-0.873,0.747-1.377,1.004c-1.003,0.525-2.125,0.791-3.23,0.938
					c-1.131,0.135-2.259,0.098-3.378-0.14c-0.557-0.114-1.098-0.277-1.631-0.486c-0.537-0.22-1.031-0.502-1.505-0.813
					c-0.233-0.152-0.475-0.331-0.688-0.5c-0.229-0.189-0.44-0.383-0.644-0.591c-0.383-0.417-0.754-0.84-1.073-1.335
					c-0.155-0.247-0.294-0.479-0.438-0.729c-0.134-0.229-0.284-0.561-0.353-0.785c0,0-0.007-0.014,0.002,0.004
					c0,0,0.026,0.049,0.1,0.08c-0.002-0.004-0.042-0.014,0.047,0.014c0.068,0.012,0.116,0.001,0.16-0.018
					c0.087-0.042,0.116-0.104,0.127-0.13c0.027-0.056,0.01-0.128,0.021-0.062c0.007,0.044,0.009,0.03,0.014,0.058
					c0.008,0.023,0.018,0.049,0.028,0.078l0.034,0.098l0.073,0.176c0.107,0.242,0.23,0.473,0.361,0.722l0.197,0.38
					c0.07,0.149,0.14,0.336,0.129,0.558c-0.004,0.108-0.031,0.226-0.085,0.33c-0.012,0.025-0.026,0.053-0.041,0.075l-0.028,0.043
					l-0.016,0.021c-0.019,0.027-0.041,0.055-0.076,0.096c-0.123,0.145-0.25,0.246-0.381,0.336c-0.065,0.045-0.125,0.084-0.192,0.123
					c-0.059,0.036-0.115,0.07-0.184,0.109c-0.135,0.074-0.263,0.139-0.396,0.202c-0.27,0.124-0.531,0.229-0.818,0.319
					c-1.108,0.348-2.29,0.434-3.436,0.295c-0.567-0.072-1.151-0.188-1.701-0.406c-0.549-0.207-1.074-0.511-1.537-0.854
					c-0.941-0.699-1.692-1.618-2.244-2.634c-0.543-1.015-0.905-2.151-0.975-3.323c-0.073-1.169,0.168-2.352,0.657-3.405
					c0.486-1.062,1.207-1.989,2.048-2.77c0.428-0.388,0.861-0.743,1.365-1.057c0.496-0.306,1.026-0.551,1.577-0.729
					c2.194-0.73,4.757-0.375,6.579,1.076c0.228,0.18,0.438,0.369,0.643,0.57c0.104,0.099,0.202,0.203,0.296,0.307
					c0.047,0.047,0.099,0.106,0.129,0.133c0.031,0.028,0.035,0.021,0.01,0.021c-0.019,0.004,0.018-0.004,0.059-0.035
					c0.042-0.029,0.093-0.073,0.142-0.117c0.103-0.087,0.211-0.184,0.323-0.274c0.215-0.176,0.453-0.352,0.688-0.506
					c0.953-0.625,2.021-1.059,3.126-1.295c1.109-0.239,2.252-0.27,3.37-0.081c1.112,0.186,2.192,0.599,3.118,1.244
					c0.931,0.64,1.689,1.507,2.241,2.481c0.139,0.243,0.259,0.493,0.38,0.745c0.119,0.248,0.22,0.521,0.356,0.737
					c0.036,0.052,0.071,0.085,0.121,0.094c0.053,0.009,0.117,0.002,0.183-0.011l0.406-0.084c0.274-0.054,0.552-0.095,0.832-0.109
					c1.116-0.071,2.249,0.218,3.199,0.802c0.953,0.585,1.715,1.442,2.259,2.408c0.538,0.976,0.825,2.072,0.916,3.175
					C72.875,21.716,72.745,22.838,72.383,23.888z M72.383,23.888c0.357-1.05,0.484-2.174,0.393-3.278
					c-0.097-1.101-0.391-2.193-0.928-3.161c-0.543-0.962-1.32-1.798-2.268-2.367c-0.945-0.565-2.063-0.834-3.16-0.75
					c-0.271,0.02-0.545,0.061-0.813,0.118l-0.406,0.094c-0.072,0.012-0.145,0.025-0.23,0.014c-0.09-0.014-0.164-0.082-0.207-0.143
					c-0.162-0.251-0.256-0.503-0.385-0.749c-0.123-0.248-0.25-0.494-0.391-0.728c-0.559-0.942-1.316-1.769-2.229-2.367
					c-0.906-0.604-1.955-0.979-3.033-1.135c-1.072-0.158-2.184-0.107-3.237,0.146c-1.056,0.25-2.065,0.688-2.955,1.298
					c-0.226,0.156-0.431,0.311-0.641,0.492c-0.101,0.086-0.2,0.176-0.303,0.272c-0.056,0.047-0.11,0.099-0.179,0.149
					c-0.068,0.047-0.156,0.115-0.316,0.131c-0.167,0.009-0.291-0.076-0.362-0.139c-0.073-0.066-0.112-0.11-0.162-0.162
					c-0.097-0.098-0.191-0.193-0.288-0.285c-0.195-0.184-0.401-0.361-0.611-0.52c-0.849-0.641-1.865-1.043-2.916-1.184
					c-1.052-0.142-2.135-0.023-3.135,0.316c-0.501,0.17-0.98,0.398-1.426,0.682c-0.436,0.275-0.859,0.63-1.247,0.992
					c-0.775,0.734-1.421,1.604-1.856,2.562c-0.44,0.959-0.648,2.015-0.582,3.06c0.01,0.132,0.022,0.257,0.037,0.383
					c0.018,0.125,0.038,0.287,0.061,0.395c0.049,0.258,0.115,0.514,0.19,0.768c0.15,0.503,0.359,0.992,0.611,1.461
					c0.5,0.93,1.183,1.77,2.021,2.397c0.842,0.642,1.819,1.012,2.882,1.131c1.052,0.129,2.132,0.069,3.144-0.233
					c0.499-0.156,0.982-0.367,1.414-0.648c0.099-0.065,0.186-0.14,0.246-0.206c0.093-0.114,0.087-0.105,0.097-0.171
					c0.004-0.059-0.015-0.143-0.063-0.242l-0.18-0.359c-0.126-0.244-0.26-0.505-0.375-0.771c-0.028-0.066-0.057-0.139-0.08-0.208
					l-0.034-0.101c-0.013-0.036-0.025-0.076-0.038-0.119c-0.01-0.039-0.028-0.12-0.032-0.146c0,0-0.029-0.144,0.026-0.267
					c0.022-0.057,0.076-0.148,0.192-0.203c0.063-0.027,0.127-0.043,0.213-0.027c0.106,0.025,0.083,0.027,0.095,0.029
					c0.104,0.049,0.153,0.124,0.172,0.152c0.029,0.046,0.035,0.064,0.049,0.097c0.097,0.303,0.174,0.481,0.312,0.736
					c0.126,0.233,0.266,0.481,0.401,0.706c0.135,0.229,0.291,0.433,0.461,0.651c0.166,0.213,0.34,0.415,0.522,0.618
					c0.178,0.197,0.372,0.38,0.567,0.55c0.218,0.18,0.42,0.333,0.646,0.489c0.443,0.306,0.915,0.588,1.397,0.796
					c0.497,0.206,1.017,0.375,1.543,0.498c1.045,0.246,2.164,0.309,3.234,0.202c1.088-0.119,2.162-0.352,3.141-0.838
					c0.486-0.234,0.941-0.536,1.316-0.918c0.184-0.189,0.355-0.405,0.499-0.629c0.074-0.108,0.142-0.232,0.202-0.35
					c0.039-0.064,0.049-0.11,0.118-0.205c0.009-0.01,0.021-0.022,0.038-0.036c0.023-0.011,0.041-0.038,0.117-0.031
					c0.071,0.011,0.108,0.085,0.11,0.101c0.009,0.029,0.009,0.045,0.009,0.062c-0.003,0.063-0.014,0.101-0.025,0.138
					c-0.381,1.119-1.309,1.885-2.265,2.437c-0.245,0.147-0.492,0.26-0.75,0.382c-0.128,0.053-0.269,0.1-0.36,0.157
					c-0.068,0.044-0.021,0.183,0.048,0.289c0.311,0.437,0.72,0.829,1.156,1.156c0.869,0.673,1.87,1.198,2.954,1.419
					c1.087,0.188,2.222,0.046,3.26-0.325C69.887,27.662,71.658,25.996,72.383,23.888z"/>
			</g>
		</g>
	</g>
	<g>
		<path fill="#FFFFFF" d="M10.493,53.532c0-0.364,0.183-0.548,0.546-0.638c2.548-0.638,2.73,4.186,3.095,4.369
			c3.73,3.096,11.65,4.551,17.658,4.551c12.015,0,28.035-6.826,28.035-20.479c0-6.008-3.369-10.65-9.649-11.195
			c-2.913,0-5.187,0.091-7.646,2.274c-1.184,1.001-1.456,3.824-1.819,6.098c2.549-4.004,4.643-7.008,4.643-7.008
			c0.272-0.546,0.544-0.638,0.818-0.638c0.637,0,1.001,1.095,1.001,1.548c0,0.728-0.364,1.365-0.364,1.365l-5.734,8.465
			c-8.284,11.833-8.557,16.202-8.557,16.749c0,0.728-0.454,0.91-0.728,0.91c-0.729,0-0.818-0.364-0.818-0.728
			c0-3.914,4.275-12.197,8.646-18.934c0-1.82,0.181-6.917,2.367-8.738c2.641-2.275,5.553-2.639,8.557-2.457
			c6.372,0.365,11.922,4.643,11.922,12.288c0,14.564-17.657,21.845-30.218,21.845c-3.732,0-7.464-0.546-10.922-1.549
			C18.137,61.086,10.493,57.9,10.493,53.532z"/>
	</g>
</g>
</svg>
