<?xml version="1.0" encoding="utf-8"?>
<!-- Generator: Adobe Illustrator 15.0.0, SVG Export Plug-In . SVG Version: 6.00 Build 0)  -->
<!DOCTYPE svg PUBLIC "-//W3C//DTD SVG 1.1//EN" "http://www.w3.org/Graphics/SVG/1.1/DTD/svg11.dtd">
<svg version="1.1" id="Capa_1" xmlns="http://www.w3.org/2000/svg" xmlns:xlink="http://www.w3.org/1999/xlink" x="0px" y="0px"
	 width="800px" height="727.569px" viewBox="0 0 800 727.569" enable-background="new 0 0 800 727.569" xml:space="preserve">
<g>
	<g>
		<path fill="#F7931E" d="M180.077,470.177c-2.983,2.321-6.003,4.36-8.918,6.134c-11.175,6.798-24.521,11.909-38.248,14.866H360.58
			v-21H180.077z"/>
	</g>
	<g>
		<path d="M238.812,445.145c0.713,0.476-1.188,4.04-2.853,6.179c-4.515,5.229-7.366,7.367-13.069,10.693
			c-5.229,2.853-19.012,9.981-21.863,0c-2.852-10.693,12.595-33.507,22.813-38.26c3.564-1.901,8.317-1.901,9.98,2.614
			c5.704,15.922-14.733,24.002-25.189,28.992c-0.95,0.237-1.664,0.476-2.614,0.713c-0.95,2.614-1.188,4.99-0.713,6.892
			c1.426,3.089,11.645-0.951,16.159-3.803c6.417-4.039,7.843-5.466,12.12-9.743C235.009,447.283,237.86,444.669,238.812,445.145z
			 M207.681,452.273c10.931-4.515,26.14-12.356,23.288-23.764c-0.713-1.426-3.327,0-5.703,1.901
			C218.374,435.164,211.72,443.956,207.681,452.273z"/>
		<path d="M235.245,462.017c0,1.664,0.95,1.901,1.9,1.901c4.278,0,17.11-10.219,17.11-10.693c0.238-0.238,1.664-0.476,1.664,0.237
			c0.237,1.426-1.664,2.852-1.664,2.852c-13.07,11.407-17.11,10.694-17.585,10.694c-5.703,0.237-5.229-5.229-5.229-5.229
			c0-18.298,41.35-67.728,42.775-67.728c0.95-0.95,1.663-1.188,2.139-1.188c1.664,0,2.139,2.377,2.139,3.327
			c0,2.139-1.188,4.04-1.188,4.04l-16.873,20.675C235.72,453.938,235.245,460.116,235.245,462.017z"/>
		<path d="M289.9,445.145c0.713,0.476-1.188,4.04-2.853,6.179c-4.515,5.229-7.366,7.367-13.069,10.693
			c-5.229,2.853-19.012,9.981-21.863,0c-2.852-10.693,12.595-33.507,22.813-38.26c3.564-1.901,8.317-1.901,9.98,2.614
			c5.704,15.922-14.733,24.002-25.189,28.992c-0.95,0.237-1.663,0.476-2.614,0.713c-0.95,2.614-1.188,4.99-0.713,6.892
			c1.426,3.089,11.645-0.951,16.159-3.803c6.417-4.039,7.843-5.466,12.12-9.743C286.098,447.283,288.949,444.669,289.9,445.145z
			 M258.77,452.273c10.931-4.515,26.14-12.356,23.288-23.764c-0.713-1.426-3.327,0-5.703,1.901
			C269.463,435.164,262.809,443.956,258.77,452.273z"/>
		<path d="M306.533,422.807c1.188,0,1.663,0.475,1.663,1.426c0,0.95-0.713,2.139-0.95,2.376
			c-19.012,26.141-20.675,33.745-20.675,33.745c-0.237,0.713-0.237,1.188-0.237,1.663c0,1.664,1.188,1.901,1.9,1.901
			c3.565,0.476,17.11-10.219,17.11-10.693c0.476-0.238,0.951-0.238,1.188-0.238s0.476,0.238,0.476,0.476
			c0,0.95-1.664,2.852-1.664,2.852c-12.357,10.932-17.11,10.694-17.585,10.694c-5.466-0.238-5.229-5.229-5.229-5.229
			c0-8.555,6.654-21.149,16.397-35.171C300.354,424.945,303.919,422.807,306.533,422.807z M306.771,414.964
			c0-3.326,3.803-8.555,6.417-8.555c0.95,0,1.663,0.713,1.663,2.139c0,3.803-3.803,8.555-6.179,8.555c-0.476,0-0.713,0-0.95-0.237
			C307.009,416.628,306.771,415.915,306.771,414.964z"/>
		<path d="M349.069,396.19c0,2.139-1.188,4.04-1.188,4.04l-14.734,18.061h1.664c1.188,0,3.326,0,3.326,1.426
			c0,1.664-2.139,1.664-3.326,1.664h-4.04c-24.239,32.557-24.952,38.497-24.952,40.636c0,1.664,1.188,1.901,1.9,1.901
			c4.516,0.476,17.11-10.219,17.11-10.693c0.476-0.238,0.951-0.238,1.188-0.238s0.476,0.238,0.476,0.476
			c0,1.426-1.664,2.852-1.664,2.852c-14.021,12.357-17.11,10.694-17.585,10.694c-5.704,0-5.229-5.229-5.229-5.229
			c0-9.506,9.03-25.189,20.438-40.398h-10.219c-1.426,0-3.089,0-3.089-1.664c0-1.426,1.663-1.426,3.089-1.426h12.595
			c17.348-22.813,20.675-25.665,21.625-25.665C348.119,392.626,349.069,394.29,349.069,396.19z"/>
		<path d="M360.474,445.145c0.713,0.476-1.188,4.04-2.853,6.179c-4.515,5.229-7.366,7.367-13.069,10.693
			c-5.229,2.853-19.012,9.981-21.863,0c-2.852-10.693,12.595-33.507,22.813-38.26c3.564-1.901,8.317-1.901,9.98,2.614
			c5.704,15.922-14.733,24.002-25.189,28.992c-0.95,0.237-1.664,0.476-2.614,0.713c-0.95,2.614-1.188,4.99-0.713,6.892
			c1.426,3.089,11.645-0.951,16.159-3.803c6.417-4.039,7.843-5.466,12.12-9.743C356.671,447.283,359.522,444.669,360.474,445.145z
			 M329.343,452.273c10.931-4.515,26.14-12.356,23.288-23.764c-0.713-1.426-3.327,0-5.703,1.901
			C340.036,435.164,333.382,443.956,329.343,452.273z"/>
	</g>
	<g>
		<path d="M37.114,461.207c0-1.164,0.583-1.747,1.747-2.038c8.154-2.039,8.736,13.395,9.9,13.977
			c11.939,9.901,37.273,14.561,56.493,14.561c38.438,0,89.688-21.841,89.688-65.52c0-19.219-10.774-34.069-30.867-35.817
			c-9.318,0-16.598,0.292-24.461,7.279c-3.784,3.204-4.658,12.232-5.822,19.511c8.152-12.813,14.85-22.421,14.85-22.421
			c0.874-1.748,1.747-2.039,2.621-2.039c2.039,0,3.203,3.495,3.203,4.949c0,2.331-1.164,4.369-1.164,4.369l-18.346,27.08
			c-26.499,37.856-27.372,51.834-27.372,53.582c0,2.328-1.456,2.911-2.33,2.911c-2.329,0-2.621-1.164-2.621-2.33
			c0-12.521,13.687-39.021,27.663-60.568c0-5.824,0.583-22.131,7.572-27.954c8.444-7.281,17.762-8.446,27.373-7.863
			c20.384,1.165,38.146,14.851,38.146,39.312c0,46.592-56.492,69.887-96.678,69.887c-11.939,0-23.879-1.747-34.944-4.949
			C61.575,485.378,37.114,475.184,37.114,461.207z"/>
		<path d="M239.645,356.551c0.084-3.749-0.525-7.522-2.039-10.971c-1.951-4.453-5.421-8.266-9.76-10.51
			c-1.082-0.562-2.233-0.996-3.402-1.333c-1.17-0.344-2.361-0.626-3.578-0.76c-2.438-0.271-4.914,0.041-7.237,0.822l-0.853,0.308
			c-0.305,0.109-0.45,0.07-0.594-0.216c-0.269-0.516-0.489-1.099-0.749-1.646c-0.509-1.11-1.072-2.188-1.686-3.245
			c-1.228-2.106-2.685-4.1-4.487-5.769c-3.601-3.34-8.208-5.472-13.002-6.447c-4.815-0.979-9.902-0.465-14.521,1.202
			c-2.315,0.831-4.53,1.943-6.587,3.3c-1.028,0.679-2.021,1.41-2.962,2.215l-0.688,0.601c-0.11,0.096-0.222,0.188-0.313,0.251
			c-0.017,0.012-0.02,0.011-0.033,0.019c-0.035-0.028-0.086-0.073-0.129-0.123l-0.295-0.323c-0.203-0.229-0.415-0.46-0.633-0.684
			c-0.87-0.896-1.831-1.695-2.814-2.428c-0.995-0.743-2.035-1.427-3.151-1.999c-2.237-1.142-4.657-1.835-7.136-2.158
			c-4.977-0.586-10.046,0.458-14.523,2.613c-2.244,1.078-4.352,2.434-6.276,4.015c-1.913,1.574-3.679,3.403-5.101,5.48
			c-2.839,4.129-4.588,9.025-4.808,14.086c-0.109,2.54,0.188,5.039,0.79,7.497c0.604,2.457,1.502,4.786,2.758,7.014
			c0.308,0.539,0.645,1.103,0.968,1.604c0.359,0.543,0.726,1.065,1.107,1.565c0.2,0.251,0.38,0.497,0.596,0.751
			c0.196,0.233,0.381,0.462,0.607,0.708c0.434,0.493,0.87,0.937,1.332,1.38c1.836,1.763,3.972,3.208,6.266,4.301
			c4.604,2.25,9.939,2.721,14.903,1.826c2.486-0.44,4.966-1.286,7.185-2.457c1.113-0.566,2.211-1.191,3.265-1.888l0.776-0.526
			c0.165-0.112,0.324-0.223,0.463-0.313c0.062,0.068,0.134,0.154,0.21,0.255c0.76,0.976,1.673,1.958,2.595,2.8l0.721,0.646
			l0.698,0.586c0.511,0.405,1.035,0.799,1.555,1.155c2.101,1.443,4.416,2.55,6.777,3.39c2.355,0.835,4.854,1.433,7.342,1.729
			c2.527,0.28,5.059,0.242,7.559-0.07c0.625-0.08,1.249-0.176,1.882-0.303c0.64-0.125,1.274-0.306,1.856-0.472
			c0.25-0.07,0.531-0.155,0.709-0.199c0.092,0.101,0.262,0.306,0.396,0.469l0.568,0.701c0.737,0.983,1.756,1.939,2.624,2.748
			l1.391,1.239l0.692,0.6c0.108,0.094,0.207,0.183,0.251,0.229c0.014,0.016,0.011,0.011,0.014,0.013
			c0.012,0.052,0.042,0.305,0.051,0.542l0.042,0.905c0.03,0.617,0.07,1.237,0.12,1.854c0.1,1.233,0.234,2.456,0.388,3.673
			c0.192,1.73,0.514,3.539,0.833,5.249l-0.544-0.436c-0.955-0.736-1.946-1.482-2.941-2.2c-1.979-1.435-4.024-2.812-6.124-4.096
			c-4.199-2.585-8.62-4.739-13.255-6.452c-2.316-0.856-4.639-1.589-7.009-2.255c-2.354-0.667-4.779-1.223-7.229-1.569
			c-2.445-0.343-4.974-0.479-7.475-0.182c-1.245,0.143-2.502,0.405-3.707,0.809s-2.418,0.946-3.447,1.8l-0.107,0.086
			c-0.017,0.023-0.089,0.053-0.225,0.251c-0.468,0.955,1.081,1.423,0.727,1.156c0.102-0.008,0.145-0.018,0.199-0.026
			c0.192-0.037,0.335-0.074,0.488-0.112l0.875-0.216c0.579-0.138,1.159-0.258,1.742-0.359c1.166-0.202,2.346-0.328,3.528-0.369
			c2.374-0.088,4.718,0.178,7.054,0.768c2.386,0.542,4.766,0.982,7.074,1.628c2.319,0.664,4.618,1.418,6.888,2.246
			c4.54,1.658,8.952,3.669,13.118,6.12c4.166,2.445,8.076,5.335,11.546,8.711c0.898,0.824,1.688,1.73,2.78,2.439
			c0.145,0.082,0.3,0.16,0.492,0.199c0.187,0.041,0.439,0.017,0.619-0.116c0.17-0.115,0.305-0.311,0.34-0.521
			c0.035-0.205,0.003-0.39-0.041-0.553c-0.209-0.617-0.426-1.147-0.628-1.729c-0.856-2.275-1.629-4.569-2.263-6.91
			c-0.615-2.335-1.192-4.711-1.393-7.111c-0.058-0.606-0.103-1.203-0.06-1.794c0.028-0.554,0.222-1.313,0.761-0.994
			c1.041,0.59,2.182,1.102,3.335,1.491c4.643,1.6,9.794,1.37,14.374-0.271c4.595-1.631,8.719-4.547,11.794-8.318
			c3.12-3.758,4.93-8.477,5.532-13.288c0.072-0.56,0.129-1.123,0.171-1.687c0.04-0.53,0.063-1.062,0.075-1.594
			C239.643,356.581,239.644,356.565,239.645,356.551z M207.346,361.965L207.346,361.965
			C207.346,361.961,207.347,361.962,207.346,361.965z M235.295,366.859c-0.157,0.377-0.327,0.748-0.506,1.115
			c-0.018,0.037-0.033,0.075-0.052,0.112c-0.188,0.384-0.389,0.762-0.599,1.134c-0.008,0.015-0.016,0.028-0.023,0.043
			c-2.857,5.028-7.637,8.934-13.059,10.895c-3.347,1.193-7,1.649-10.5,1.046c-3.486-0.71-6.708-2.403-9.51-4.572
			c-0.172-0.129-0.337-0.27-0.505-0.403l-0.172-0.155c-0.896-0.855-1.668-1.562-2.39-2.527l-0.575-0.717
			c-0.104-0.119-0.186-0.23-0.288-0.354c-0.069-0.215-0.079-0.409,0.052-0.489c0.295-0.192,0.745-0.338,1.16-0.51
			c0.83-0.394,1.629-0.755,2.416-1.227c3.079-1.778,6.062-4.244,7.291-7.852c0.036-0.119,0.075-0.238,0.082-0.439
			c-0.001-0.051,0-0.105-0.029-0.199c-0.005-0.055-0.122-0.287-0.358-0.32c-0.24-0.021-0.3,0.061-0.372,0.098
			c-0.055,0.043-0.096,0.084-0.124,0.119c-0.225,0.302-0.253,0.451-0.376,0.661c-0.201,0.377-0.418,0.772-0.653,1.124
			c-0.463,0.716-1.016,1.413-1.608,2.023c-1.208,1.231-2.672,2.196-4.239,2.956c-3.149,1.562-6.608,2.309-10.113,2.697
			c-3.449,0.341-7.049,0.143-10.411-0.653c-1.698-0.391-3.371-0.935-4.969-1.596c-1.558-0.678-3.073-1.578-4.5-2.563
			c-0.73-0.505-1.38-1.001-2.077-1.581c-0.632-0.546-1.258-1.139-1.834-1.767c-0.586-0.652-1.146-1.309-1.681-1.994
			c-0.545-0.701-1.046-1.361-1.481-2.096c-0.439-0.726-0.89-1.524-1.297-2.272c-0.437-0.824-0.688-1.394-0.997-2.373
			c-0.048-0.102-0.064-0.162-0.159-0.308c-0.061-0.094-0.221-0.339-0.552-0.489c-0.041-0.009,0.038-0.015-0.308-0.098
			c-0.275-0.047-0.486,0.001-0.683,0.086c-0.375,0.179-0.548,0.47-0.623,0.658c-0.176,0.39-0.077,0.854-0.078,0.857
			c0.007,0.082,0.063,0.34,0.099,0.465c0.039,0.138,0.08,0.268,0.123,0.385l0.11,0.32c0.079,0.225,0.169,0.457,0.26,0.673
			c0.366,0.859,0.8,1.703,1.202,2.482l0.582,1.159c0.154,0.32,0.214,0.592,0.2,0.779c-0.036,0.212-0.01,0.185-0.312,0.551
			c-0.19,0.216-0.472,0.455-0.793,0.664c-1.391,0.907-2.945,1.587-4.548,2.086c-3.26,0.982-6.738,1.167-10.127,0.75
			c-3.419-0.38-6.569-1.576-9.276-3.643c-2.698-2.02-4.9-4.72-6.51-7.719c-0.813-1.506-1.481-3.079-1.969-4.701
			c-0.246-0.813-0.456-1.637-0.608-2.471c-0.074-0.347-0.145-0.868-0.199-1.268c-0.047-0.404-0.091-0.813-0.113-1.237
			c-0.222-3.364,0.448-6.762,1.863-9.846c1.411-3.087,3.488-5.884,5.984-8.251c1.246-1.165,2.611-2.306,4.016-3.195
			c1.431-0.911,2.977-1.646,4.588-2.196c3.223-1.094,6.707-1.472,10.093-1.014c3.384,0.449,6.662,1.74,9.39,3.809
			c0.678,0.509,1.339,1.088,1.969,1.675c0.313,0.294,0.616,0.6,0.927,0.918c0.162,0.161,0.287,0.308,0.524,0.521
			c0.228,0.197,0.63,0.473,1.168,0.443c0.512-0.048,0.794-0.269,1.018-0.422c0.222-0.166,0.397-0.326,0.569-0.48
			c0.339-0.309,0.652-0.6,0.979-0.878c0.674-0.577,1.337-1.082,2.062-1.582c2.861-1.968,6.119-3.377,9.519-4.182
			c3.392-0.812,6.97-0.979,10.423-0.466c3.465,0.501,6.842,1.707,9.766,3.653c2.937,1.927,5.374,4.586,7.172,7.623
			c0.456,0.755,0.862,1.546,1.257,2.34c0.416,0.796,0.717,1.606,1.239,2.414c0.139,0.197,0.378,0.411,0.669,0.455
			c0.276,0.04,0.514-0.005,0.739-0.047l1.309-0.295c0.868-0.188,1.744-0.321,2.622-0.385c3.526-0.268,7.128,0.598,10.174,2.422
			c3.049,1.828,5.549,4.52,7.296,7.619c1.737,3.116,2.678,6.637,2.988,10.183c0.183,2.217,0.093,4.458-0.278,6.652
			c-0.003,0.013-0.005,0.025-0.007,0.038c-0.072,0.42-0.154,0.837-0.247,1.253c-0.015,0.065-0.032,0.13-0.047,0.195
			c-0.086,0.372-0.177,0.743-0.28,1.112c-0.123,0.437-0.254,0.872-0.401,1.302C235.631,366.022,235.467,366.442,235.295,366.859z
			 M235.259,366.955c-0.046,0.108-0.097,0.213-0.144,0.32C235.162,367.168,235.213,367.063,235.259,366.955z M234.631,368.317
			c-0.044,0.087-0.091,0.172-0.136,0.259C234.54,368.489,234.587,368.404,234.631,368.317z M233.878,369.692
			c-0.022,0.036-0.044,0.073-0.066,0.109C233.834,369.766,233.856,369.729,233.878,369.692z M159.144,355.008
			c-0.015-0.029-0.004-0.003-0.002-0.005C159.143,355.004,159.143,355.006,159.144,355.008z M236.266,363.975
			c-0.018,0.066-0.033,0.135-0.052,0.201C236.232,364.109,236.248,364.041,236.266,363.975z M236.604,362.55
			c-0.01,0.049-0.019,0.097-0.028,0.145C236.586,362.646,236.595,362.599,236.604,362.55z M236.858,361.137L236.858,361.137
			L236.858,361.137z M151.242,377.495l-0.056,0.012c-0.009,0.002-0.02,0.003-0.027,0.004
			C151.018,377.423,151.099,377.425,151.242,377.495z M151.676,378.673C151.663,378.686,151.664,378.683,151.676,378.673
			L151.676,378.673z"/>
	</g>
	<g>
		<path fill="#FFFCFD" d="M190.167,487.001c-0.711,0.256-2.114,0.675-3.771,0.675c-1.858,0-3.389-0.474-4.592-1.622
			c-1.057-1.021-1.712-2.66-1.712-4.573c0.018-3.661,2.532-6.34,6.649-6.34c1.421,0,2.532,0.31,3.061,0.564l-0.382,1.294
			c-0.656-0.291-1.477-0.528-2.715-0.528c-2.988,0-4.938,1.858-4.938,4.938c0,3.115,1.877,4.955,4.737,4.955
			c1.038,0,1.749-0.146,2.113-0.327v-3.662h-2.496v-1.275h4.045V487.001z"/>
		<path fill="#FFFCFD" d="M200.045,483.686l-1.275,3.862h-1.64l4.173-12.279h1.913l4.19,12.279h-1.695l-1.312-3.862H200.045z
			 M204.071,482.446l-1.202-3.534c-0.273-0.802-0.455-1.53-0.638-2.241h-0.036c-0.183,0.729-0.383,1.476-0.619,2.223l-1.203,3.553
			H204.071z"/>
		<path fill="#FFFCFD" d="M214.46,485.616c0.711,0.438,1.749,0.802,2.842,0.802c1.622,0,2.569-0.856,2.569-2.095
			c0-1.148-0.656-1.804-2.313-2.441c-2.005-0.711-3.243-1.749-3.243-3.479c0-1.913,1.585-3.335,3.972-3.335
			c1.257,0,2.168,0.292,2.715,0.602l-0.438,1.294c-0.401-0.219-1.221-0.583-2.332-0.583c-1.677,0-2.313,1.002-2.313,1.84
			c0,1.147,0.746,1.713,2.44,2.368c2.077,0.802,3.134,1.804,3.134,3.607c0,1.896-1.402,3.535-4.3,3.535
			c-1.184,0-2.478-0.347-3.133-0.784L214.46,485.616z"/>
		<path fill="#FFFCFD" d="M231.462,476.616h-3.735v-1.348h9.092v1.348h-3.753v10.932h-1.604V476.616z"/>
		<path fill="#FFFCFD" d="M243.654,475.433c0.802-0.164,1.949-0.256,3.042-0.256c1.694,0,2.788,0.311,3.553,1.002
			c0.62,0.547,0.966,1.385,0.966,2.332c0,1.622-1.021,2.697-2.313,3.134v0.055c0.947,0.328,1.512,1.203,1.804,2.479
			c0.4,1.712,0.692,2.896,0.947,3.37h-1.64c-0.2-0.346-0.474-1.403-0.82-2.934c-0.364-1.694-1.02-2.332-2.459-2.387h-1.494v5.32
			h-1.585V475.433z M245.239,481.025h1.621c1.694,0,2.77-0.929,2.77-2.332c0-1.585-1.147-2.277-2.824-2.296
			c-0.765,0-1.312,0.073-1.566,0.146V481.025z"/>
		<path fill="#FFFCFD" d="M269.419,481.28c0,4.227-2.569,6.468-5.703,6.468c-3.242,0-5.52-2.514-5.52-6.23
			c0-3.899,2.423-6.45,5.702-6.45C267.251,475.067,269.419,477.637,269.419,481.28z M259.891,481.48
			c0,2.624,1.421,4.975,3.917,4.975c2.514,0,3.935-2.314,3.935-5.102c0-2.441-1.274-4.992-3.917-4.992
			C261.202,476.361,259.891,478.784,259.891,481.48z"/>
		<path fill="#FFFCFD" d="M276.948,487.548v-12.279h1.73l3.936,6.212c0.911,1.439,1.621,2.733,2.204,3.99l0.037-0.018
			c-0.146-1.641-0.183-3.134-0.183-5.047v-5.138h1.494v12.279h-1.604l-3.898-6.23c-0.856-1.367-1.677-2.77-2.296-4.1l-0.055,0.019
			c0.091,1.548,0.128,3.024,0.128,5.064v5.247H276.948z"/>
		<path fill="#FFFCFD" d="M304.899,481.28c0,4.227-2.569,6.468-5.703,6.468c-3.242,0-5.52-2.514-5.52-6.23
			c0-3.899,2.423-6.45,5.702-6.45C302.731,475.067,304.899,477.637,304.899,481.28z M295.371,481.48
			c0,2.624,1.421,4.975,3.917,4.975c2.514,0,3.935-2.314,3.935-5.102c0-2.441-1.274-4.992-3.917-4.992
			C296.683,476.361,295.371,478.784,295.371,481.48z"/>
		<path fill="#FFFCFD" d="M322.777,482.155c-0.092-1.713-0.201-3.771-0.183-5.302h-0.055c-0.419,1.439-0.929,2.97-1.549,4.664
			l-2.168,5.957h-1.202l-1.986-5.848c-0.583-1.731-1.074-3.316-1.421-4.773h-0.036c-0.036,1.53-0.128,3.589-0.237,5.429
			l-0.327,5.266h-1.513l0.856-12.279h2.022l2.095,5.939c0.511,1.512,0.93,2.86,1.239,4.136h0.055
			c0.31-1.239,0.747-2.588,1.293-4.136l2.187-5.939h2.022l0.766,12.279h-1.549L322.777,482.155z"/>
		<path fill="#FFFCFD" d="M336.009,472.48l-2.332,2.132h-1.294l1.676-2.132H336.009z M334.132,475.269v12.279h-1.585v-12.279
			H334.132z"/>
		<path fill="#FFFCFD" d="M344.354,483.686l-1.275,3.862h-1.64l4.173-12.279h1.913l4.19,12.279h-1.694l-1.313-3.862H344.354z
			 M348.381,482.446l-1.202-3.534c-0.273-0.802-0.455-1.53-0.638-2.241h-0.036c-0.183,0.729-0.383,1.476-0.619,2.223l-1.203,3.553
			H348.381z"/>
	</g>
</g>
<g>
	<g>
		<path fill="#F7931E" d="M180.077,199.271c-2.983,2.321-6.003,4.36-8.918,6.134c-11.175,6.798-24.521,11.909-38.248,14.866H360.58
			v-21H180.077z"/>
	</g>
	<g>
		<path fill="#FFFFFF" d="M238.812,174.239c0.713,0.476-1.188,4.04-2.853,6.179c-4.515,5.229-7.366,7.367-13.069,10.693
			c-5.229,2.853-19.012,9.981-21.863,0c-2.852-10.693,12.595-33.507,22.813-38.26c3.564-1.901,8.317-1.901,9.98,2.614
			c5.704,15.922-14.733,24.002-25.189,28.992c-0.95,0.237-1.664,0.476-2.614,0.713c-0.95,2.614-1.188,4.99-0.713,6.892
			c1.426,3.089,11.645-0.951,16.159-3.803c6.417-4.039,7.843-5.466,12.12-9.743C235.009,176.378,237.86,173.764,238.812,174.239z
			 M207.681,181.368c10.931-4.515,26.14-12.356,23.288-23.764c-0.713-1.426-3.327,0-5.703,1.901
			C218.374,164.259,211.72,173.051,207.681,181.368z"/>
		<path fill="#FFFFFF" d="M235.245,191.111c0,1.664,0.95,1.901,1.9,1.901c4.278,0,17.11-10.219,17.11-10.693
			c0.238-0.238,1.664-0.476,1.664,0.237c0.237,1.426-1.664,2.852-1.664,2.852c-13.07,11.407-17.11,10.694-17.585,10.694
			c-5.703,0.237-5.229-5.229-5.229-5.229c0-18.298,41.35-67.728,42.775-67.728c0.95-0.95,1.663-1.188,2.139-1.188
			c1.664,0,2.139,2.377,2.139,3.327c0,2.139-1.188,4.04-1.188,4.04L260.435,150C235.72,183.032,235.245,189.211,235.245,191.111z"/>
		<path fill="#FFFFFF" d="M289.9,174.239c0.713,0.476-1.188,4.04-2.853,6.179c-4.515,5.229-7.366,7.367-13.069,10.693
			c-5.229,2.853-19.012,9.981-21.863,0c-2.852-10.693,12.595-33.507,22.813-38.26c3.564-1.901,8.317-1.901,9.98,2.614
			c5.704,15.922-14.733,24.002-25.189,28.992c-0.95,0.237-1.663,0.476-2.614,0.713c-0.95,2.614-1.188,4.99-0.713,6.892
			c1.426,3.089,11.645-0.951,16.159-3.803c6.417-4.039,7.843-5.466,12.12-9.743C286.098,176.378,288.949,173.764,289.9,174.239z
			 M258.77,181.368c10.931-4.515,26.14-12.356,23.288-23.764c-0.713-1.426-3.327,0-5.703,1.901
			C269.463,164.259,262.809,173.051,258.77,181.368z"/>
		<path fill="#FFFFFF" d="M306.533,151.901c1.188,0,1.663,0.475,1.663,1.426c0,0.95-0.713,2.139-0.95,2.376
			c-19.012,26.141-20.675,33.745-20.675,33.745c-0.237,0.713-0.237,1.188-0.237,1.663c0,1.664,1.188,1.901,1.9,1.901
			c3.565,0.476,17.11-10.219,17.11-10.693c0.476-0.238,0.951-0.238,1.188-0.238s0.476,0.238,0.476,0.476
			c0,0.95-1.664,2.852-1.664,2.852c-12.357,10.932-17.11,10.694-17.585,10.694c-5.466-0.238-5.229-5.229-5.229-5.229
			c0-8.555,6.654-21.149,16.397-35.171C300.354,154.04,303.919,151.901,306.533,151.901z M306.771,144.059
			c0-3.326,3.803-8.555,6.417-8.555c0.95,0,1.663,0.713,1.663,2.139c0,3.803-3.803,8.555-6.179,8.555c-0.476,0-0.713,0-0.95-0.237
			C307.009,145.723,306.771,145.01,306.771,144.059z"/>
		<path fill="#FFFFFF" d="M349.069,125.285c0,2.139-1.188,4.04-1.188,4.04l-14.734,18.061h1.664c1.188,0,3.326,0,3.326,1.426
			c0,1.664-2.139,1.664-3.326,1.664h-4.04c-24.239,32.557-24.952,38.497-24.952,40.636c0,1.664,1.188,1.901,1.9,1.901
			c4.516,0.476,17.11-10.219,17.11-10.693c0.476-0.238,0.951-0.238,1.188-0.238s0.476,0.238,0.476,0.476
			c0,1.426-1.664,2.852-1.664,2.852c-14.021,12.357-17.11,10.694-17.585,10.694c-5.704,0-5.229-5.229-5.229-5.229
			c0-9.506,9.03-25.189,20.438-40.398h-10.219c-1.426,0-3.089,0-3.089-1.664c0-1.426,1.663-1.426,3.089-1.426h12.595
			c17.348-22.813,20.675-25.665,21.625-25.665C348.119,121.721,349.069,123.385,349.069,125.285z"/>
		<path fill="#FFFFFF" d="M360.474,174.239c0.713,0.476-1.188,4.04-2.853,6.179c-4.515,5.229-7.366,7.367-13.069,10.693
			c-5.229,2.853-19.012,9.981-21.863,0c-2.852-10.693,12.595-33.507,22.813-38.26c3.564-1.901,8.317-1.901,9.98,2.614
			c5.704,15.922-14.733,24.002-25.189,28.992c-0.95,0.237-1.664,0.476-2.614,0.713c-0.95,2.614-1.188,4.99-0.713,6.892
			c1.426,3.089,11.645-0.951,16.159-3.803c6.417-4.039,7.843-5.466,12.12-9.743C356.671,176.378,359.522,173.764,360.474,174.239z
			 M329.343,181.368c10.931-4.515,26.14-12.356,23.288-23.764c-0.713-1.426-3.327,0-5.703,1.901
			C340.036,164.259,333.382,173.051,329.343,181.368z"/>
	</g>
	<g>
		<path fill="#FFFFFF" d="M165.242,111.97c-9.611-0.583-18.929,0.582-27.373,7.863c-6.989,5.823-7.572,22.13-7.572,27.954
			c-13.977,21.548-27.663,48.048-27.663,60.568c0,1.166,0.292,2.33,2.621,2.33c0.874,0,2.33-0.583,2.33-2.911
			c0-1.748,0.873-15.726,27.372-53.582l18.346-27.08c0,0,1.164-2.038,1.164-4.369c0-1.454-1.164-4.949-3.203-4.949
			c-0.874,0-1.747,0.291-2.621,2.039c0,0-6.697,9.608-14.85,22.421c1.164-7.278,2.038-16.307,5.822-19.511
			c7.863-6.987,15.143-7.279,24.461-7.279c20.093,1.748,30.867,16.599,30.867,35.817c0,43.679-51.25,65.52-89.688,65.52
			c-19.22,0-44.554-4.659-56.493-14.561c-1.164-0.582-1.746-16.016-9.9-13.977c-1.164,0.291-1.747,0.874-1.747,2.038
			c0,13.977,24.461,24.171,34.652,25.917c11.065,3.202,23.005,4.949,34.944,4.949c40.186,0,96.678-23.295,96.678-69.887
			C203.389,126.82,185.626,113.135,165.242,111.97z"/>
		<path fill="#FFFFFF" d="M239.645,85.646c0.084-3.749-0.525-7.522-2.039-10.971c-1.951-4.453-5.421-8.266-9.76-10.51
			c-1.082-0.562-2.233-0.996-3.402-1.333c-1.17-0.344-2.361-0.626-3.578-0.76c-2.438-0.271-4.914,0.041-7.237,0.822l-0.853,0.308
			c-0.305,0.109-0.45,0.07-0.594-0.216c-0.269-0.516-0.489-1.099-0.749-1.646c-0.509-1.11-1.072-2.188-1.686-3.245
			c-1.228-2.106-2.685-4.1-4.487-5.769c-3.601-3.34-8.208-5.472-13.002-6.447c-4.815-0.979-9.902-0.465-14.521,1.202
			c-2.315,0.831-4.53,1.943-6.587,3.3c-1.028,0.679-2.021,1.41-2.962,2.215l-0.688,0.601c-0.11,0.096-0.222,0.188-0.313,0.251
			c-0.017,0.012-0.02,0.011-0.033,0.019c-0.035-0.028-0.086-0.073-0.129-0.123l-0.295-0.323c-0.203-0.229-0.415-0.46-0.633-0.684
			c-0.87-0.896-1.831-1.695-2.814-2.428c-0.995-0.743-2.035-1.427-3.151-1.999c-2.237-1.142-4.657-1.835-7.136-2.158
			c-4.977-0.586-10.046,0.458-14.523,2.613c-2.244,1.078-4.352,2.434-6.276,4.015c-1.913,1.574-3.679,3.403-5.101,5.48
			c-2.839,4.129-4.588,9.025-4.808,14.086c-0.109,2.54,0.188,5.039,0.79,7.497c0.604,2.457,1.502,4.786,2.758,7.014
			c0.308,0.539,0.645,1.103,0.968,1.604c0.359,0.543,0.726,1.065,1.107,1.565c0.2,0.251,0.38,0.497,0.596,0.751
			c0.196,0.233,0.381,0.462,0.607,0.708c0.434,0.493,0.87,0.937,1.332,1.38c1.836,1.763,3.972,3.208,6.266,4.301
			c4.604,2.25,9.939,2.721,14.903,1.826c2.486-0.44,4.966-1.286,7.185-2.457c1.113-0.566,2.211-1.191,3.265-1.888l0.776-0.526
			c0.165-0.112,0.324-0.223,0.463-0.313c0.062,0.068,0.134,0.154,0.21,0.255c0.76,0.976,1.673,1.958,2.595,2.8l0.721,0.646
			l0.698,0.586c0.511,0.405,1.035,0.799,1.555,1.155c2.101,1.443,4.416,2.55,6.777,3.39c2.355,0.835,4.854,1.433,7.342,1.729
			c2.527,0.28,5.059,0.242,7.559-0.07c0.625-0.08,1.249-0.176,1.882-0.303c0.64-0.125,1.274-0.306,1.856-0.472
			c0.25-0.07,0.531-0.155,0.709-0.199c0.092,0.101,0.262,0.306,0.396,0.469l0.568,0.701c0.737,0.983,1.756,1.939,2.624,2.748
			l1.391,1.239l0.692,0.6c0.108,0.094,0.207,0.183,0.251,0.229c0.014,0.016,0.011,0.011,0.014,0.013
			c0.012,0.052,0.042,0.305,0.051,0.542l0.042,0.905c0.03,0.617,0.07,1.237,0.12,1.854c0.1,1.233,0.234,2.456,0.388,3.673
			c0.192,1.73,0.514,3.539,0.833,5.249l-0.544-0.436c-0.955-0.736-1.946-1.482-2.941-2.2c-1.979-1.435-4.024-2.812-6.124-4.096
			c-4.199-2.585-8.62-4.739-13.255-6.452c-2.316-0.856-4.639-1.589-7.009-2.255c-2.354-0.667-4.779-1.223-7.229-1.569
			c-2.445-0.343-4.974-0.479-7.475-0.182c-1.245,0.143-2.502,0.405-3.707,0.809s-2.418,0.946-3.447,1.8l-0.107,0.086
			c-0.017,0.023-0.089,0.053-0.225,0.251c-0.468,0.955,1.081,1.423,0.727,1.156c0.102-0.008,0.145-0.018,0.199-0.026
			c0.192-0.037,0.335-0.074,0.488-0.112l0.875-0.216c0.579-0.138,1.159-0.258,1.742-0.359c1.166-0.202,2.346-0.328,3.528-0.369
			c2.374-0.088,4.718,0.178,7.054,0.768c2.386,0.542,4.766,0.982,7.074,1.628c2.319,0.664,4.618,1.418,6.888,2.246
			c4.54,1.658,8.952,3.669,13.118,6.12c4.166,2.445,8.076,5.335,11.546,8.711c0.898,0.824,1.688,1.73,2.78,2.439
			c0.145,0.082,0.3,0.16,0.492,0.199c0.187,0.041,0.439,0.017,0.619-0.116c0.17-0.115,0.305-0.311,0.34-0.521
			c0.035-0.205,0.003-0.39-0.041-0.553c-0.209-0.617-0.426-1.147-0.628-1.729c-0.856-2.275-1.629-4.569-2.263-6.91
			c-0.615-2.335-1.192-4.711-1.393-7.111c-0.058-0.606-0.103-1.203-0.06-1.794c0.028-0.554,0.222-1.313,0.761-0.994
			c1.041,0.59,2.182,1.102,3.335,1.491c4.643,1.6,9.794,1.37,14.374-0.271c4.595-1.631,8.719-4.547,11.794-8.318
			c3.12-3.758,4.93-8.477,5.532-13.288c0.072-0.56,0.129-1.123,0.171-1.687c0.04-0.53,0.063-1.062,0.075-1.594
			C239.643,85.676,239.644,85.66,239.645,85.646z M207.346,91.06L207.346,91.06C207.346,91.056,207.347,91.057,207.346,91.06z
			 M235.295,95.954c-0.157,0.377-0.327,0.748-0.506,1.115c-0.018,0.037-0.033,0.075-0.052,0.112
			c-0.188,0.384-0.389,0.762-0.599,1.134c-0.008,0.015-0.016,0.028-0.023,0.043c-2.857,5.028-7.637,8.934-13.059,10.895
			c-3.347,1.193-7,1.649-10.5,1.046c-3.486-0.71-6.708-2.403-9.51-4.572c-0.172-0.129-0.337-0.27-0.505-0.403l-0.172-0.155
			c-0.896-0.855-1.668-1.562-2.39-2.527l-0.575-0.717c-0.104-0.119-0.186-0.23-0.288-0.354c-0.069-0.215-0.079-0.409,0.052-0.489
			c0.295-0.192,0.745-0.338,1.16-0.51c0.83-0.394,1.629-0.755,2.416-1.227c3.079-1.778,6.062-4.244,7.291-7.852
			c0.036-0.119,0.075-0.238,0.082-0.439c-0.001-0.051,0-0.105-0.029-0.199c-0.005-0.055-0.122-0.287-0.358-0.32
			c-0.24-0.021-0.3,0.061-0.372,0.098c-0.055,0.043-0.096,0.084-0.124,0.119c-0.225,0.302-0.253,0.451-0.376,0.661
			c-0.201,0.377-0.418,0.772-0.653,1.124c-0.463,0.716-1.016,1.413-1.608,2.023c-1.208,1.231-2.672,2.196-4.239,2.956
			c-3.149,1.562-6.608,2.309-10.113,2.697c-3.449,0.341-7.049,0.143-10.411-0.653c-1.698-0.391-3.371-0.935-4.969-1.596
			c-1.558-0.678-3.073-1.578-4.5-2.563c-0.73-0.505-1.38-1.001-2.077-1.581c-0.632-0.546-1.258-1.139-1.834-1.767
			c-0.586-0.652-1.146-1.309-1.681-1.994c-0.545-0.701-1.046-1.361-1.481-2.096c-0.439-0.726-0.89-1.524-1.297-2.272
			c-0.437-0.824-0.688-1.394-0.997-2.373c-0.048-0.102-0.064-0.162-0.159-0.308c-0.061-0.094-0.221-0.339-0.552-0.489
			c-0.041-0.009,0.038-0.015-0.308-0.098c-0.275-0.047-0.486,0.001-0.683,0.086c-0.375,0.179-0.548,0.47-0.623,0.658
			c-0.176,0.39-0.077,0.854-0.078,0.857c0.007,0.082,0.063,0.34,0.099,0.465c0.039,0.138,0.08,0.268,0.123,0.385l0.11,0.32
			c0.079,0.225,0.169,0.457,0.26,0.673c0.366,0.859,0.8,1.703,1.202,2.482l0.582,1.159c0.154,0.32,0.214,0.592,0.2,0.779
			c-0.036,0.212-0.01,0.185-0.312,0.551c-0.19,0.216-0.472,0.455-0.793,0.664c-1.391,0.907-2.945,1.587-4.548,2.086
			c-3.26,0.982-6.738,1.167-10.127,0.75c-3.419-0.38-6.569-1.576-9.276-3.643c-2.698-2.02-4.9-4.72-6.51-7.719
			c-0.813-1.506-1.481-3.079-1.969-4.701c-0.246-0.813-0.456-1.637-0.608-2.471c-0.074-0.347-0.145-0.868-0.199-1.268
			c-0.047-0.404-0.091-0.813-0.113-1.237c-0.222-3.364,0.448-6.762,1.863-9.846c1.411-3.087,3.488-5.884,5.984-8.251
			c1.246-1.165,2.611-2.306,4.016-3.195c1.431-0.911,2.977-1.646,4.588-2.196c3.223-1.094,6.707-1.472,10.093-1.014
			c3.384,0.449,6.662,1.74,9.39,3.809c0.678,0.509,1.339,1.088,1.969,1.675c0.313,0.294,0.616,0.6,0.927,0.918
			c0.162,0.161,0.287,0.308,0.524,0.521c0.228,0.197,0.63,0.473,1.168,0.443c0.512-0.048,0.794-0.269,1.018-0.422
			c0.222-0.166,0.397-0.326,0.569-0.48c0.339-0.309,0.652-0.6,0.979-0.878c0.674-0.577,1.337-1.082,2.062-1.582
			c2.861-1.968,6.119-3.377,9.519-4.182c3.392-0.812,6.97-0.979,10.423-0.466c3.465,0.501,6.842,1.707,9.766,3.653
			c2.937,1.927,5.374,4.586,7.172,7.623c0.456,0.755,0.862,1.546,1.257,2.34c0.416,0.796,0.717,1.606,1.239,2.414
			c0.139,0.197,0.378,0.411,0.669,0.455c0.276,0.04,0.514-0.005,0.739-0.047l1.309-0.295c0.868-0.188,1.744-0.321,2.622-0.385
			c3.526-0.268,7.128,0.598,10.174,2.422c3.049,1.828,5.549,4.52,7.296,7.619c1.737,3.116,2.678,6.637,2.988,10.183
			c0.183,2.217,0.093,4.458-0.278,6.652c-0.003,0.013-0.005,0.025-0.007,0.038c-0.072,0.42-0.154,0.837-0.247,1.253
			c-0.015,0.065-0.032,0.13-0.047,0.195c-0.086,0.372-0.177,0.743-0.28,1.112c-0.123,0.437-0.254,0.872-0.401,1.302
			C235.631,95.117,235.467,95.537,235.295,95.954z M235.259,96.05c-0.046,0.108-0.097,0.213-0.144,0.32
			C235.162,96.263,235.213,96.158,235.259,96.05z M234.631,97.412c-0.044,0.087-0.091,0.172-0.136,0.259
			C234.54,97.584,234.587,97.499,234.631,97.412z M233.878,98.787c-0.022,0.036-0.044,0.073-0.066,0.109
			C233.834,98.86,233.856,98.823,233.878,98.787z M159.144,84.103c-0.015-0.029-0.004-0.003-0.002-0.005
			C159.143,84.099,159.143,84.101,159.144,84.103z M236.266,93.069c-0.018,0.066-0.033,0.135-0.052,0.201
			C236.232,93.204,236.248,93.136,236.266,93.069z M236.604,91.645c-0.01,0.049-0.019,0.097-0.028,0.145
			C236.586,91.741,236.595,91.693,236.604,91.645z M236.858,90.231L236.858,90.231L236.858,90.231z M151.242,106.59l-0.056,0.012
			c-0.009,0.002-0.02,0.003-0.027,0.004C151.018,106.518,151.099,106.52,151.242,106.59z M151.676,107.768
			C151.663,107.78,151.664,107.777,151.676,107.768L151.676,107.768z"/>
	</g>
	<g>
		<path d="M190.167,216.096c-0.711,0.256-2.114,0.675-3.771,0.675c-1.858,0-3.389-0.474-4.592-1.622
			c-1.057-1.021-1.712-2.66-1.712-4.573c0.018-3.661,2.532-6.34,6.649-6.34c1.421,0,2.532,0.31,3.061,0.564l-0.382,1.294
			c-0.656-0.291-1.477-0.528-2.715-0.528c-2.988,0-4.938,1.858-4.938,4.938c0,3.115,1.877,4.955,4.737,4.955
			c1.038,0,1.749-0.146,2.113-0.327v-3.662h-2.496v-1.275h4.045V216.096z"/>
		<path d="M200.045,212.78l-1.275,3.862h-1.64l4.173-12.279h1.913l4.19,12.279h-1.695l-1.312-3.862H200.045z M204.071,211.541
			l-1.202-3.534c-0.273-0.802-0.455-1.53-0.638-2.241h-0.036c-0.183,0.729-0.383,1.476-0.619,2.223l-1.203,3.553H204.071z"/>
		<path d="M214.46,214.711c0.711,0.438,1.749,0.802,2.842,0.802c1.622,0,2.569-0.856,2.569-2.095c0-1.148-0.656-1.804-2.313-2.441
			c-2.005-0.711-3.243-1.749-3.243-3.479c0-1.913,1.585-3.335,3.972-3.335c1.257,0,2.168,0.292,2.715,0.602l-0.438,1.294
			c-0.401-0.219-1.221-0.583-2.332-0.583c-1.677,0-2.313,1.002-2.313,1.84c0,1.147,0.746,1.713,2.44,2.368
			c2.077,0.802,3.134,1.804,3.134,3.607c0,1.896-1.402,3.535-4.3,3.535c-1.184,0-2.478-0.347-3.133-0.784L214.46,214.711z"/>
		<path d="M231.462,205.711h-3.735v-1.348h9.092v1.348h-3.753v10.932h-1.604V205.711z"/>
		<path d="M243.654,204.527c0.802-0.164,1.949-0.256,3.042-0.256c1.694,0,2.788,0.311,3.553,1.002
			c0.62,0.547,0.966,1.385,0.966,2.332c0,1.622-1.021,2.697-2.313,3.134v0.055c0.947,0.328,1.512,1.203,1.804,2.479
			c0.4,1.712,0.692,2.896,0.947,3.37h-1.64c-0.2-0.346-0.474-1.403-0.82-2.934c-0.364-1.694-1.02-2.332-2.459-2.387h-1.494v5.32
			h-1.585V204.527z M245.239,210.12h1.621c1.694,0,2.77-0.929,2.77-2.332c0-1.585-1.147-2.277-2.824-2.296
			c-0.765,0-1.312,0.073-1.566,0.146V210.12z"/>
		<path d="M269.419,210.375c0,4.227-2.569,6.468-5.703,6.468c-3.242,0-5.52-2.514-5.52-6.23c0-3.899,2.423-6.45,5.702-6.45
			C267.251,204.162,269.419,206.731,269.419,210.375z M259.891,210.575c0,2.624,1.421,4.975,3.917,4.975
			c2.514,0,3.935-2.314,3.935-5.102c0-2.441-1.274-4.992-3.917-4.992C261.202,205.456,259.891,207.879,259.891,210.575z"/>
		<path d="M276.948,216.643v-12.279h1.73l3.936,6.212c0.911,1.439,1.621,2.733,2.204,3.99l0.037-0.018
			c-0.146-1.641-0.183-3.134-0.183-5.047v-5.138h1.494v12.279h-1.604l-3.898-6.23c-0.856-1.367-1.677-2.77-2.296-4.1l-0.055,0.019
			c0.091,1.548,0.128,3.024,0.128,5.064v5.247H276.948z"/>
		<path d="M304.899,210.375c0,4.227-2.569,6.468-5.703,6.468c-3.242,0-5.52-2.514-5.52-6.23c0-3.899,2.423-6.45,5.702-6.45
			C302.731,204.162,304.899,206.731,304.899,210.375z M295.371,210.575c0,2.624,1.421,4.975,3.917,4.975
			c2.514,0,3.935-2.314,3.935-5.102c0-2.441-1.274-4.992-3.917-4.992C296.683,205.456,295.371,207.879,295.371,210.575z"/>
		<path d="M322.777,211.25c-0.092-1.713-0.201-3.771-0.183-5.302h-0.055c-0.419,1.439-0.929,2.97-1.549,4.664l-2.168,5.957h-1.202
			l-1.986-5.848c-0.583-1.731-1.074-3.316-1.421-4.773h-0.036c-0.036,1.53-0.128,3.589-0.237,5.429l-0.327,5.266h-1.513
			l0.856-12.279h2.022l2.095,5.939c0.511,1.512,0.93,2.86,1.239,4.136h0.055c0.31-1.239,0.747-2.588,1.293-4.136l2.187-5.939h2.022
			l0.766,12.279h-1.549L322.777,211.25z"/>
		<path d="M336.009,201.575l-2.332,2.132h-1.294l1.676-2.132H336.009z M334.132,204.363v12.279h-1.585v-12.279H334.132z"/>
		<path d="M344.354,212.78l-1.275,3.862h-1.64l4.173-12.279h1.913l4.19,12.279h-1.694l-1.313-3.862H344.354z M348.381,211.541
			l-1.202-3.534c-0.273-0.802-0.455-1.53-0.638-2.241h-0.036c-0.183,0.729-0.383,1.476-0.619,2.223l-1.203,3.553H348.381z"/>
	</g>
</g>
<g>
	<path fill="#F7931E" d="M480.874,469.906c-0.054,0-0.09,1.18-0.09,1.869c0,3.59,0.785,6.457,1.755,6.457
		c0.026,0,0.049-0.031,0.074-0.037l187.9-1.584c3.262-0.09,5.697,0.369,7.517,1.057c6.244,11.395,21.425,19.738,33.624,20.861
		c17.986,1.66,42.175-11.26,41.43-27.049c-0.027-0.566-0.088-1.574-0.166-1.574H480.874z"/>
	<g>
		<defs>
			<rect id="SVGID_1_" x="463.148" y="375.906" width="321" height="90"/>
		</defs>
		<clipPath id="SVGID_2_">
			<use xlink:href="#SVGID_1_"  overflow="visible"/>
		</clipPath>
		<g clip-path="url(#SVGID_2_)">
			<path fill="#333333" d="M480.813,384.852h19.62c11.311,0.029,16.966,6.225,16.966,18.586v51.166
				c0,12.33-5.926,18.512-17.775,18.541h-18.811V384.852z M493.548,397.406v63.182h5.58c3.689,0,5.535-1.994,5.535-5.984v-51.166
				c0-4.02-1.846-6.031-5.535-6.031H493.548z"/>
			<path fill="#333333" d="M528.199,395.111h33.031v11.07h-20.296v22.365h17.461v11.16h-17.461v22.322h20.296v11.115h-33.031
				V395.111z"/>
			<path fill="#333333" d="M570.681,473.145v-78.033h12.735v66.918h20.297v11.115H570.681z"/>
			<path fill="#333333" d="M611.361,395.111h33.032v11.07h-20.296v22.365h17.46v11.16h-17.46v22.322h20.296v11.115h-33.032V395.111z
				"/>
			<path fill="#333333" d="M654.068,395.111h12.736v78.033h-12.736V395.111z"/>
			<path fill="#333333" d="M711.717,395.111v11.07h-11.926v66.963h-12.735v-66.963h-11.927v-11.07H711.717z"/>
			<path fill="#333333" d="M719.817,395.111h33.03v11.07h-20.295v22.365h17.461v11.16h-17.461v22.322h20.295v11.115h-33.03V395.111z
				"/>
		</g>
	</g>
	
		<text transform="matrix(1 0 0 1 484.9629 496.9414)" fill="#999999" font-family="'Gobold'" font-size="17.5149" letter-spacing="9">GASTRONOMÍA</text>
</g>
<g>
	<path fill="#F7931E" d="M480.874,223.687c-0.054,0-0.09,1.18-0.09,1.869c0,3.59,0.785,6.457,1.755,6.457
		c0.026,0,0.049-0.031,0.074-0.037l187.9-1.585c3.262-0.09,5.697,0.37,7.517,1.057c6.244,11.394,21.425,19.738,33.624,20.863
		c17.986,1.658,42.175-11.262,41.43-27.049c-0.027-0.567-0.088-1.574-0.166-1.574H480.874z"/>
	<g>
		<defs>
			<rect id="SVGID_3_" x="463.148" y="129.687" width="321" height="90"/>
		</defs>
		<clipPath id="SVGID_4_">
			<use xlink:href="#SVGID_3_"  overflow="visible"/>
		</clipPath>
		<g clip-path="url(#SVGID_4_)">
			<path fill="#FFFFFF" d="M480.813,138.631h19.62c11.311,0.029,16.966,6.225,16.966,18.586v51.166
				c0,12.33-5.926,18.512-17.775,18.541h-18.811V138.631z M493.548,151.186v63.183h5.58c3.689,0,5.535-1.995,5.535-5.985v-51.166
				c0-4.02-1.846-6.031-5.535-6.031H493.548z"/>
			<path fill="#FFFFFF" d="M528.199,148.891h33.031v11.071h-20.296v22.365h17.461v11.16h-17.461v22.321h20.296v11.115h-33.031
				V148.891z"/>
			<path fill="#FFFFFF" d="M570.681,226.924v-78.033h12.735v66.918h20.297v11.115H570.681z"/>
			<path fill="#FFFFFF" d="M611.361,148.891h33.032v11.071h-20.296v22.365h17.46v11.16h-17.46v22.321h20.296v11.115h-33.032V148.891
				z"/>
			<path fill="#FFFFFF" d="M654.068,148.891h12.736v78.033h-12.736V148.891z"/>
			<path fill="#FFFFFF" d="M711.717,148.891v11.071h-11.926v66.962h-12.735v-66.962h-11.927v-11.071H711.717z"/>
			<path fill="#FFFFFF" d="M719.817,148.891h33.03v11.071h-20.295v22.365h17.461v11.16h-17.461v22.321h20.295v11.115h-33.03V148.891
				z"/>
		</g>
	</g>
	<g>
		
			<text transform="matrix(1 0 0 1 484.9629 250.7217)" fill="#FFFFFF" font-family="'Gobold'" font-size="17.5149" letter-spacing="9">GASTRONOMÍA</text>
	</g>
</g>
<g>
	<path fill="#FFFFFF" d="M475.482,640.482c-0.057,0-0.096,1.223-0.096,1.939c0,3.725,0.816,6.699,1.82,6.699
		c0.029,0,0.051-0.031,0.076-0.037l195.002-1.646c3.385-0.094,5.91,0.385,7.799,1.1c6.48,11.822,22.236,20.482,34.895,21.648
		c18.664,1.723,43.768-11.686,42.996-28.07c-0.029-0.59-0.092-1.633-0.172-1.633H475.482z"/>
	<g>
		<defs>
			<rect id="SVGID_5_" x="457.084" y="542.93" width="333.129" height="93.4"/>
		</defs>
		<clipPath id="SVGID_6_">
			<use xlink:href="#SVGID_5_"  overflow="visible"/>
		</clipPath>
		<g clip-path="url(#SVGID_6_)">
			<path fill="#FFFFFF" d="M475.416,552.213h20.361c11.74,0.029,17.605,6.459,17.605,19.287v53.1
				c0,12.797-6.148,19.211-18.445,19.242h-19.521V552.213z M488.633,565.242v65.568h5.791c3.828,0,5.746-2.07,5.746-6.211v-53.1
				c0-4.17-1.918-6.258-5.746-6.258H488.633z"/>
			<path fill="#FFFFFF" d="M524.592,562.859h34.279v11.488h-21.061v23.213h18.121v11.582h-18.121v23.164h21.061v11.535h-34.279
				V562.859z"/>
			<path fill="#FFFFFF" d="M568.682,643.842v-80.982h13.213v69.447h21.064v11.535H568.682z"/>
			<path fill="#FFFFFF" d="M610.898,562.859h34.277v11.488h-21.061v23.213h18.119v11.582h-18.119v23.164h21.061v11.535h-34.277
				V562.859z"/>
			<path fill="#FFFFFF" d="M655.219,562.859h13.215v80.982h-13.215V562.859z"/>
			<path fill="#FFFFFF" d="M715.043,562.859v11.488h-12.375v69.494h-13.219v-69.494h-12.375v-11.488H715.043z"/>
			<path fill="#FFFFFF" d="M723.451,562.859h34.279v11.488h-21.064v23.213h18.121v11.582h-18.121v23.164h21.064v11.535h-34.279
				V562.859z"/>
		</g>
	</g>
	<g>
		<g>
			<path fill="#FFFFFF" d="M487.912,665.154c0,2.438-1.205,3.66-3.611,3.666c-2.402,0-3.604-1.223-3.604-3.666v-10.65
				c0-2.438,1.201-3.656,3.604-3.656c2.406,0,3.611,1.219,3.611,3.656v2.344H485.4v-2.344c0-0.781-0.363-1.174-1.092-1.18h-0.018
				c-0.723,0-1.082,0.393-1.082,1.18v10.65c0,0.787,0.363,1.18,1.092,1.18c0.732,0,1.1-0.393,1.1-1.18v-4.082h-1.27v-2.486h3.781
				V665.154z"/>
			<path fill="#FFFFFF" d="M506.496,662.359l0.816,6.176h-2.537l-0.488-3.691h-2.564l-0.498,3.691h-2.529l0.816-6.15l1.775-11.262
				h3.443L506.496,662.359z M503.959,662.359L503,655.117l-0.959,7.242H503.959z"/>
			<path fill="#FFFFFF" d="M518.096,654.504c0-2.438,1.201-3.656,3.604-3.656c2.408,0,3.611,1.219,3.611,3.656v2.344h-2.512v-2.344
				c0-0.781-0.363-1.174-1.09-1.18h-0.02c-0.721,0-1.082,0.393-1.082,1.18v1.58c0,0.775,0.783,1.725,2.352,2.848
				c1.568,1.119,2.352,2.459,2.352,4.021v2.201c0,2.443-1.201,3.666-3.602,3.666c-2.408-0.006-3.613-1.229-3.613-3.666v-2.344h2.512
				v2.344c0,0.787,0.367,1.18,1.102,1.18c0.727,0,1.09-0.393,1.09-1.18v-1.988c0-0.84-0.783-1.822-2.352-2.947
				c-1.568-1.117-2.352-2.479-2.352-4.082V654.504z"/>
			<path fill="#FFFFFF" d="M543.398,651.123v2.475h-2.352v14.938h-2.512v-14.938h-2.352v-2.475H543.398z"/>
			<path fill="#FFFFFF" d="M554.447,651.123h3.658c2.23,0.006,3.346,1.227,3.346,3.664v2.619c0,1.533-0.66,2.541-1.98,3.025
				l2.824,8.104h-2.752l-2.264-7.658l-0.32,0.043v7.615h-2.512V651.123z M556.959,653.598v4.988h0.578
				c0.35,0,0.588-0.023,0.719-0.07c0.455-0.184,0.684-0.553,0.684-1.109v-2.619c0-0.793-0.363-1.189-1.092-1.189H556.959z"/>
			<path fill="#FFFFFF" d="M580.203,665.154c0,2.438-1.203,3.66-3.611,3.666c-2.402,0-3.604-1.223-3.604-3.666v-10.65
				c0-2.438,1.201-3.656,3.604-3.656c2.408,0,3.611,1.219,3.611,3.656V665.154z M577.691,654.504c0-0.781-0.363-1.174-1.09-1.18
				h-0.02c-0.721,0-1.082,0.393-1.082,1.18v10.65c0,0.787,0.363,1.18,1.092,1.18c0.734,0,1.1-0.393,1.1-1.18V654.504z"/>
			<path fill="#FFFFFF" d="M591.785,651.123h2.512l2.379,10.1v-10.1h2.326v17.412h-2.512l-2.291-9.779v9.779h-2.414V651.123z"/>
			<path fill="#FFFFFF" d="M617.799,665.154c0,2.438-1.205,3.66-3.611,3.666c-2.402,0-3.604-1.223-3.604-3.666v-10.65
				c0-2.438,1.201-3.656,3.604-3.656c2.406,0,3.611,1.219,3.611,3.656V665.154z M615.287,654.504c0-0.781-0.363-1.174-1.092-1.18
				h-0.018c-0.723,0-1.082,0.393-1.082,1.18v10.65c0,0.787,0.363,1.18,1.092,1.18c0.732,0,1.1-0.393,1.1-1.18V654.504z"/>
			<path fill="#FFFFFF" d="M634.848,663.051l2.92-11.928h2.512v17.412h-2.404v-9.771l-2.148,9.771h-1.703l-2.211-9.771v9.771h-2.432
				v-17.412h2.512L634.848,663.051z"/>
			<path fill="#FFFFFF" d="M653.264,650.447h-1.393l1.26-2.244h1.971L653.264,650.447z M652.084,651.123h2.512v17.412h-2.512
				V651.123z"/>
			<path fill="#FFFFFF" d="M673.4,662.359l0.816,6.176h-2.537l-0.488-3.691h-2.564l-0.498,3.691H665.6l0.816-6.15l1.775-11.262
				h3.443L673.4,662.359z M670.863,662.359l-0.959-7.242l-0.959,7.242H670.863z"/>
		</g>
	</g>
</g>
<g>
	<g>
		<path fill="#FFFFFF" d="M182.66,665.766c-2.572,2.002-5.176,3.761-7.691,5.291c-9.639,5.863-21.15,10.271-32.988,12.822h196.365
			v-18.113H182.66z"/>
	</g>
	<g>
		<path fill="#FFFFFF" d="M233.32,644.176c0.615,0.41-1.025,3.484-2.461,5.329c-3.895,4.509-6.354,6.354-11.271,9.223
			c-4.51,2.46-16.398,8.609-18.857,0c-2.461-9.223,10.863-28.899,19.676-32.999c3.074-1.641,7.174-1.641,8.609,2.255
			c4.92,13.732-12.709,20.701-21.727,25.006c-0.82,0.204-1.436,0.41-2.256,0.614c-0.818,2.255-1.023,4.305-0.613,5.944
			c1.229,2.664,10.043-0.82,13.938-3.279c5.533-3.484,6.764-4.715,10.453-8.404C230.041,646.02,232.5,643.765,233.32,644.176z
			 M206.469,650.324c9.428-3.895,22.547-10.658,20.086-20.496c-0.613-1.23-2.869,0-4.918,1.64
			C215.693,635.567,209.953,643.15,206.469,650.324z"/>
		<path fill="#FFFFFF" d="M230.244,658.728c0,1.436,0.82,1.64,1.639,1.64c3.689,0,14.758-8.813,14.758-9.223
			c0.205-0.206,1.436-0.41,1.436,0.205c0.205,1.229-1.436,2.459-1.436,2.459c-11.273,9.839-14.758,9.224-15.166,9.224
			c-4.92,0.205-4.51-4.509-4.51-4.509c0-15.782,35.664-58.416,36.893-58.416c0.82-0.819,1.436-1.025,1.846-1.025
			c1.436,0,1.844,2.051,1.844,2.87c0,1.845-1.023,3.484-1.023,3.484l-14.553,17.832C230.654,651.76,230.244,657.089,230.244,658.728
			z"/>
		<path fill="#FFFFFF" d="M277.385,644.176c0.615,0.41-1.025,3.484-2.461,5.329c-3.893,4.509-6.354,6.354-11.271,9.223
			c-4.51,2.46-16.398,8.609-18.857,0c-2.459-9.223,10.863-28.899,19.676-32.999c3.074-1.641,7.174-1.641,8.609,2.255
			c4.92,13.732-12.709,20.701-21.727,25.006c-0.82,0.204-1.434,0.41-2.254,0.614c-0.82,2.255-1.025,4.305-0.615,5.944
			c1.229,2.664,10.043-0.82,13.938-3.279c5.533-3.484,6.764-4.715,10.453-8.404C274.105,646.02,276.564,643.765,277.385,644.176z
			 M250.533,650.324c9.428-3.895,22.547-10.658,20.088-20.496c-0.615-1.23-2.871,0-4.92,1.64
			C259.758,635.567,254.018,643.15,250.533,650.324z"/>
		<path fill="#FFFFFF" d="M291.73,624.908c1.025,0,1.436,0.41,1.436,1.23c0,0.819-0.615,1.845-0.82,2.049
			c-16.398,22.547-17.832,29.105-17.832,29.105c-0.205,0.615-0.205,1.025-0.205,1.435c0,1.436,1.023,1.64,1.639,1.64
			c3.076,0.41,14.758-8.813,14.758-9.223c0.41-0.206,0.82-0.206,1.025-0.206s0.41,0.206,0.41,0.411c0,0.819-1.436,2.459-1.436,2.459
			c-10.658,9.429-14.758,9.224-15.166,9.224c-4.715-0.205-4.51-4.509-4.51-4.509c0-7.379,5.738-18.242,14.143-30.336
			C286.402,626.753,289.477,624.908,291.73,624.908z M291.936,618.145c0-2.869,3.279-7.379,5.535-7.379
			c0.818,0,1.434,0.615,1.434,1.845c0,3.28-3.279,7.379-5.328,7.379c-0.41,0-0.615,0-0.82-0.205
			C292.141,619.579,291.936,618.965,291.936,618.145z"/>
		<path fill="#FFFFFF" d="M328.418,601.952c0,1.845-1.023,3.484-1.023,3.484l-12.709,15.577h1.436c1.023,0,2.869,0,2.869,1.23
			c0,1.435-1.846,1.435-2.869,1.435h-3.484c-20.906,28.081-21.521,33.204-21.521,35.049c0,1.436,1.023,1.64,1.639,1.64
			c3.895,0.41,14.758-8.813,14.758-9.223c0.41-0.206,0.82-0.206,1.025-0.206s0.41,0.206,0.41,0.411c0,1.229-1.436,2.459-1.436,2.459
			c-12.092,10.658-14.758,9.224-15.168,9.224c-4.918,0-4.508-4.509-4.508-4.509c0-8.199,7.787-21.727,17.627-34.845h-8.814
			c-1.229,0-2.664,0-2.664-1.435c0-1.23,1.436-1.23,2.664-1.23h10.863c14.963-19.677,17.832-22.136,18.652-22.136
			C327.6,598.878,328.418,600.313,328.418,601.952z"/>
		<path fill="#FFFFFF" d="M338.254,644.176c0.615,0.41-1.023,3.484-2.459,5.329c-3.895,4.509-6.354,6.354-11.273,9.223
			c-4.51,2.46-16.396,8.609-18.857,0c-2.459-9.223,10.863-28.899,19.678-32.999c3.074-1.641,7.174-1.641,8.607,2.255
			c4.92,13.732-12.707,20.701-21.725,25.006c-0.82,0.204-1.436,0.41-2.256,0.614c-0.82,2.255-1.025,4.305-0.615,5.944
			c1.23,2.664,10.045-0.82,13.938-3.279c5.535-3.484,6.766-4.715,10.455-8.404C334.975,646.02,337.434,643.765,338.254,644.176z
			 M311.404,650.324c9.428-3.895,22.545-10.658,20.086-20.496c-0.615-1.23-2.869,0-4.918,1.64
			C320.627,635.567,314.889,643.15,311.404,650.324z"/>
	</g>
	<g>
		<path fill="#FFFFFF" d="M59.355,658.029c0-1.004,0.502-1.507,1.506-1.758c7.033-1.759,7.535,11.553,8.539,12.055
			c10.297,8.54,32.148,12.559,48.727,12.559c33.152,0,77.355-18.838,77.355-56.511c0-16.576-9.293-29.386-26.623-30.893
			c-8.037,0-14.314,0.251-21.098,6.278c-3.264,2.764-4.018,10.55-5.021,16.828c7.031-11.051,12.809-19.339,12.809-19.339
			c0.754-1.507,1.506-1.759,2.26-1.759c1.76,0,2.764,3.015,2.764,4.27c0,2.01-1.004,3.769-1.004,3.769l-15.824,23.356
			c-22.855,32.651-23.607,44.707-23.607,46.215c0,2.008-1.256,2.511-2.01,2.511c-2.01,0-2.262-1.004-2.262-2.01
			c0-10.799,11.805-33.655,23.859-52.24c0-5.023,0.504-19.088,6.531-24.111c7.283-6.28,15.32-7.284,23.609-6.782
			c17.582,1.005,32.902,12.81,32.902,33.907c0,40.186-48.725,60.277-83.385,60.277c-10.299,0-20.596-1.507-30.141-4.269
			C80.451,678.877,59.355,670.084,59.355,658.029z"/>
		<path fill="#FFFFFF" d="M234.039,567.763c0.072-3.234-0.453-6.488-1.76-9.463c-1.682-3.841-4.676-7.129-8.418-9.064
			c-0.934-0.484-1.926-0.859-2.934-1.149c-1.01-0.297-2.037-0.54-3.086-0.655c-2.104-0.233-4.238,0.035-6.242,0.709l-0.736,0.265
			c-0.262,0.095-0.389,0.062-0.512-0.186c-0.232-0.445-0.422-0.947-0.646-1.42c-0.438-0.958-0.924-1.888-1.453-2.799
			c-1.059-1.817-2.316-3.536-3.871-4.976c-3.105-2.881-7.078-4.72-11.213-5.562c-4.154-0.845-8.541-0.4-12.525,1.037
			c-1.996,0.717-3.906,1.677-5.682,2.847c-0.887,0.585-1.742,1.216-2.555,1.91l-0.594,0.518c-0.094,0.083-0.191,0.163-0.27,0.217
			c-0.014,0.01-0.016,0.009-0.027,0.016c-0.031-0.024-0.074-0.063-0.111-0.105l-0.254-0.279c-0.176-0.197-0.359-0.396-0.547-0.59
			c-0.75-0.772-1.58-1.462-2.428-2.094c-0.857-0.641-1.756-1.23-2.717-1.724c-1.93-0.985-4.018-1.583-6.156-1.862
			c-4.291-0.505-8.664,0.396-12.525,2.255c-1.936,0.93-3.754,2.099-5.414,3.462c-1.65,1.358-3.172,2.936-4.398,4.728
			c-2.449,3.561-3.957,7.784-4.146,12.148c-0.096,2.191,0.16,4.347,0.68,6.467c0.521,2.119,1.297,4.128,2.379,6.05
			c0.266,0.465,0.557,0.95,0.836,1.384c0.309,0.468,0.625,0.919,0.955,1.35c0.172,0.217,0.326,0.429,0.514,0.648
			c0.168,0.201,0.328,0.397,0.523,0.61c0.373,0.425,0.75,0.808,1.148,1.19c1.584,1.52,3.426,2.767,5.404,3.709
			c3.973,1.94,8.572,2.347,12.855,1.575c2.145-0.38,4.281-1.109,6.195-2.119c0.961-0.488,1.908-1.027,2.816-1.628l0.67-0.454
			c0.143-0.097,0.279-0.192,0.398-0.27c0.053,0.059,0.115,0.133,0.182,0.22c0.654,0.842,1.443,1.688,2.238,2.415l0.621,0.558
			l0.602,0.505c0.441,0.35,0.895,0.689,1.342,0.997c1.813,1.244,3.809,2.199,5.846,2.923c2.031,0.721,4.186,1.236,6.332,1.491
			c2.18,0.241,4.363,0.209,6.52-0.061c0.539-0.069,1.078-0.151,1.623-0.262c0.551-0.107,1.1-0.264,1.602-0.406
			c0.215-0.061,0.457-0.134,0.611-0.172c0.078,0.087,0.225,0.264,0.342,0.404l0.49,0.604c0.635,0.849,1.514,1.673,2.262,2.37
			l1.199,1.069l0.598,0.517c0.094,0.081,0.18,0.158,0.217,0.198c0.012,0.014,0.01,0.01,0.012,0.011
			c0.01,0.045,0.037,0.263,0.045,0.468l0.035,0.781c0.025,0.532,0.061,1.066,0.104,1.599c0.086,1.063,0.203,2.118,0.334,3.167
			c0.166,1.493,0.443,3.053,0.719,4.527l-0.469-0.375c-0.824-0.636-1.68-1.278-2.537-1.897c-1.707-1.237-3.471-2.426-5.281-3.533
			c-3.623-2.229-7.436-4.088-11.434-5.564c-1.998-0.739-4-1.371-6.045-1.945c-2.029-0.575-4.121-1.055-6.234-1.354
			c-2.109-0.296-4.289-0.414-6.447-0.156c-1.074,0.123-2.158,0.35-3.197,0.697s-2.086,0.816-2.973,1.552l-0.094,0.074
			c-0.014,0.021-0.076,0.046-0.193,0.217c-0.402,0.823,0.934,1.228,0.627,0.997c0.088-0.007,0.125-0.015,0.172-0.022
			c0.166-0.032,0.289-0.064,0.422-0.097l0.754-0.187c0.5-0.119,1-0.223,1.502-0.31c1.006-0.175,2.023-0.283,3.043-0.318
			c2.049-0.076,4.07,0.153,6.084,0.662c2.059,0.467,4.111,0.847,6.102,1.403c2.002,0.573,3.984,1.224,5.941,1.938
			c3.916,1.431,7.721,3.165,11.314,5.278c3.594,2.109,6.967,4.602,9.959,7.514c0.775,0.711,1.455,1.492,2.398,2.104
			c0.123,0.07,0.258,0.138,0.424,0.172c0.16,0.035,0.379,0.014,0.533-0.101c0.146-0.1,0.264-0.268,0.293-0.45
			c0.031-0.177,0.004-0.336-0.035-0.477c-0.18-0.532-0.367-0.989-0.541-1.491c-0.738-1.963-1.404-3.941-1.951-5.961
			c-0.531-2.014-1.029-4.063-1.201-6.133c-0.051-0.523-0.088-1.038-0.051-1.548c0.023-0.478,0.189-1.132,0.654-0.857
			c0.898,0.509,1.883,0.95,2.877,1.286c4.004,1.38,8.447,1.182,12.398-0.233c3.963-1.406,7.52-3.921,10.172-7.174
			c2.691-3.241,4.252-7.312,4.771-11.462c0.063-0.482,0.111-0.969,0.148-1.454c0.033-0.458,0.053-0.916,0.064-1.375
			C234.037,567.788,234.037,567.775,234.039,567.763z M206.18,572.432L206.18,572.432C206.18,572.429,206.182,572.43,206.18,572.432
			z M230.287,576.653c-0.137,0.325-0.283,0.646-0.436,0.962c-0.016,0.032-0.029,0.065-0.045,0.097
			c-0.164,0.331-0.336,0.657-0.518,0.979c-0.006,0.013-0.014,0.024-0.02,0.037c-2.465,4.337-6.586,7.705-11.264,9.396
			c-2.887,1.029-6.037,1.423-9.057,0.902c-3.006-0.612-5.785-2.073-8.201-3.944c-0.148-0.11-0.291-0.232-0.436-0.348l-0.148-0.134
			c-0.773-0.737-1.439-1.347-2.061-2.18l-0.496-0.618c-0.09-0.103-0.16-0.199-0.25-0.306c-0.059-0.186-0.066-0.354,0.045-0.422
			c0.256-0.166,0.643-0.292,1.002-0.44c0.715-0.339,1.404-0.65,2.084-1.058c2.654-1.534,5.227-3.66,6.287-6.772
			c0.031-0.103,0.066-0.205,0.072-0.379c-0.002-0.043,0-0.091-0.025-0.172c-0.006-0.047-0.105-0.247-0.311-0.275
			c-0.207-0.019-0.258,0.052-0.32,0.084c-0.047,0.037-0.082,0.072-0.107,0.103c-0.193,0.261-0.217,0.389-0.324,0.57
			c-0.174,0.325-0.359,0.666-0.563,0.97c-0.4,0.617-0.877,1.219-1.389,1.745c-1.041,1.062-2.303,1.895-3.656,2.55
			c-2.715,1.347-5.699,1.991-8.723,2.326c-2.975,0.294-6.08,0.123-8.979-0.563c-1.465-0.337-2.908-0.807-4.287-1.376
			c-1.342-0.585-2.65-1.361-3.881-2.212c-0.629-0.436-1.189-0.863-1.791-1.363c-0.545-0.471-1.086-0.982-1.582-1.523
			c-0.506-0.563-0.988-1.129-1.449-1.721c-0.471-0.604-0.902-1.174-1.277-1.807c-0.379-0.626-0.768-1.315-1.119-1.961
			c-0.377-0.71-0.594-1.201-0.859-2.046c-0.043-0.088-0.057-0.141-0.139-0.266c-0.051-0.081-0.189-0.292-0.475-0.422
			c-0.035-0.008,0.031-0.013-0.266-0.084c-0.238-0.041-0.42,0-0.59,0.073c-0.322,0.154-0.473,0.405-0.537,0.568
			c-0.15,0.336-0.066,0.736-0.066,0.739c0.006,0.07,0.055,0.293,0.084,0.401c0.035,0.118,0.07,0.23,0.107,0.331l0.094,0.276
			c0.068,0.194,0.146,0.395,0.225,0.581c0.316,0.741,0.689,1.469,1.037,2.141l0.502,1c0.133,0.276,0.184,0.511,0.172,0.672
			c-0.031,0.183-0.008,0.159-0.268,0.476c-0.164,0.186-0.406,0.393-0.684,0.572c-1.199,0.782-2.541,1.369-3.924,1.799
			c-2.811,0.848-5.811,1.007-8.734,0.647c-2.949-0.328-5.666-1.359-8-3.142c-2.328-1.742-4.227-4.071-5.615-6.658
			c-0.701-1.299-1.277-2.655-1.697-4.055c-0.213-0.701-0.395-1.411-0.525-2.131c-0.064-0.299-0.125-0.749-0.172-1.093
			c-0.041-0.349-0.078-0.701-0.098-1.067c-0.191-2.902,0.387-5.832,1.607-8.492c1.217-2.662,3.008-5.075,5.16-7.116
			c1.076-1.005,2.254-1.989,3.465-2.756c1.234-0.786,2.566-1.421,3.957-1.895c2.779-0.943,5.785-1.27,8.705-0.875
			c2.918,0.388,5.746,1.501,8.098,3.285c0.586,0.439,1.156,0.938,1.699,1.444c0.27,0.254,0.531,0.518,0.799,0.792
			c0.141,0.139,0.248,0.266,0.453,0.45c0.195,0.17,0.543,0.407,1.006,0.382c0.441-0.041,0.686-0.231,0.879-0.363
			c0.191-0.144,0.342-0.281,0.49-0.415c0.293-0.266,0.563-0.517,0.846-0.757c0.58-0.498,1.152-0.934,1.777-1.364
			c2.469-1.697,5.277-2.913,8.211-3.607c2.924-0.699,6.01-0.844,8.988-0.401c2.988,0.433,5.902,1.473,8.424,3.151
			c2.533,1.661,4.635,3.955,6.186,6.574c0.393,0.651,0.744,1.334,1.084,2.019c0.359,0.687,0.619,1.386,1.068,2.082
			c0.119,0.17,0.326,0.354,0.578,0.393c0.238,0.034,0.443-0.004,0.637-0.04l1.129-0.255c0.748-0.162,1.504-0.277,2.262-0.332
			c3.041-0.23,6.148,0.516,8.775,2.089c2.629,1.577,4.785,3.898,6.293,6.572c1.498,2.688,2.309,5.724,2.576,8.782
			c0.158,1.912,0.08,3.845-0.24,5.738c-0.002,0.011-0.004,0.021-0.006,0.032c-0.063,0.362-0.133,0.722-0.213,1.081
			c-0.012,0.057-0.027,0.111-0.039,0.168c-0.074,0.321-0.154,0.642-0.242,0.96c-0.107,0.376-0.219,0.752-0.346,1.122
			C230.576,575.932,230.436,576.294,230.287,576.653z M230.256,576.736c-0.039,0.094-0.084,0.184-0.123,0.276
			C230.172,576.92,230.217,576.83,230.256,576.736z M229.715,577.911c-0.039,0.075-0.078,0.148-0.117,0.224
			C229.637,578.06,229.676,577.986,229.715,577.911z M229.064,579.097c-0.02,0.031-0.037,0.063-0.057,0.095
			C229.027,579.16,229.047,579.128,229.064,579.097z M164.605,566.432c-0.012-0.025-0.004-0.003-0.002-0.004
			C164.605,566.428,164.605,566.43,164.605,566.432z M231.125,574.165c-0.016,0.058-0.029,0.116-0.045,0.174
			C231.096,574.281,231.109,574.223,231.125,574.165z M231.416,572.937c-0.008,0.042-0.016,0.083-0.023,0.125
			C231.4,573.02,231.408,572.979,231.416,572.937z M231.635,571.718L231.635,571.718L231.635,571.718z M157.791,585.827l-0.049,0.01
			c-0.008,0.002-0.016,0.003-0.023,0.004C157.598,585.765,157.666,585.767,157.791,585.827z M158.164,586.843
			C158.154,586.854,158.154,586.852,158.164,586.843L158.164,586.843z"/>
	</g>
	<g>
		<path fill="#1C1C1C" d="M191.363,680.277c-0.613,0.221-1.822,0.582-3.252,0.582c-1.604,0-2.924-0.409-3.961-1.399
			c-0.912-0.88-1.477-2.295-1.477-3.944c0.016-3.158,2.184-5.469,5.734-5.469c1.227,0,2.186,0.268,2.641,0.487l-0.33,1.116
			c-0.566-0.251-1.273-0.456-2.342-0.456c-2.576,0-4.258,1.603-4.258,4.259c0,2.687,1.619,4.273,4.086,4.273
			c0.895,0,1.508-0.125,1.822-0.282v-3.158h-2.152v-1.1h3.488V680.277z"/>
		<path fill="#1C1C1C" d="M199.883,677.417l-1.1,3.332h-1.414l3.6-10.592h1.65l3.613,10.592h-1.463l-1.131-3.332H199.883z
			 M203.355,676.349l-1.035-3.049c-0.236-0.691-0.393-1.319-0.551-1.933h-0.031c-0.158,0.628-0.33,1.272-0.533,1.917l-1.039,3.064
			H203.355z"/>
		<path fill="#1C1C1C" d="M212.316,679.082c0.613,0.378,1.508,0.692,2.451,0.692c1.398,0,2.217-0.739,2.217-1.807
			c0-0.991-0.566-1.557-1.996-2.106c-1.729-0.613-2.797-1.508-2.797-3.001c0-1.65,1.367-2.876,3.426-2.876
			c1.084,0,1.869,0.252,2.342,0.519l-0.379,1.116c-0.346-0.188-1.053-0.503-2.01-0.503c-1.447,0-1.996,0.864-1.996,1.587
			c0,0.989,0.643,1.478,2.105,2.042c1.791,0.692,2.703,1.556,2.703,3.112c0,1.635-1.211,3.049-3.709,3.049
			c-1.021,0-2.137-0.299-2.703-0.677L212.316,679.082z"/>
		<path fill="#1C1C1C" d="M226.98,671.32h-3.221v-1.163h7.842v1.163h-3.238v9.429h-1.383V671.32z"/>
		<path fill="#1C1C1C" d="M237.496,670.299c0.693-0.142,1.682-0.221,2.625-0.221c1.461,0,2.404,0.269,3.064,0.864
			c0.535,0.472,0.832,1.194,0.832,2.012c0,1.399-0.879,2.326-1.994,2.703v0.047c0.816,0.283,1.303,1.038,1.555,2.138
			c0.346,1.477,0.598,2.498,0.816,2.907h-1.414c-0.172-0.299-0.408-1.211-0.707-2.53c-0.314-1.462-0.879-2.012-2.121-2.059h-1.289
			v4.589h-1.367V670.299z M238.863,675.123h1.398c1.461,0,2.389-0.801,2.389-2.012c0-1.367-0.988-1.964-2.436-1.98
			c-0.66,0-1.131,0.063-1.352,0.127V675.123z"/>
		<path fill="#1C1C1C" d="M259.719,675.343c0,3.646-2.215,5.578-4.918,5.578c-2.797,0-4.762-2.168-4.762-5.373
			c0-3.363,2.09-5.563,4.918-5.563C257.85,669.984,259.719,672.2,259.719,675.343z M251.502,675.516c0,2.263,1.225,4.29,3.377,4.29
			c2.168,0,3.395-1.996,3.395-4.399c0-2.106-1.1-4.307-3.379-4.307C252.633,671.1,251.502,673.189,251.502,675.516z"/>
		<path fill="#1C1C1C" d="M266.213,680.749v-10.592h1.492l3.395,5.358c0.787,1.241,1.398,2.357,1.902,3.441l0.031-0.016
			c-0.127-1.415-0.158-2.702-0.158-4.353v-4.432h1.289v10.592h-1.383l-3.361-5.374c-0.74-1.18-1.447-2.389-1.98-3.536l-0.047,0.016
			c0.078,1.335,0.109,2.608,0.109,4.368v4.526H266.213z"/>
		<path fill="#1C1C1C" d="M290.322,675.343c0,3.646-2.217,5.578-4.92,5.578c-2.797,0-4.76-2.168-4.76-5.373
			c0-3.363,2.09-5.563,4.918-5.563C288.451,669.984,290.322,672.2,290.322,675.343z M282.104,675.516c0,2.263,1.225,4.29,3.379,4.29
			c2.168,0,3.393-1.996,3.393-4.399c0-2.106-1.1-4.307-3.379-4.307C283.234,671.1,282.104,673.189,282.104,675.516z"/>
		<path fill="#1C1C1C" d="M305.742,676.098c-0.08-1.478-0.174-3.253-0.158-4.573h-0.047c-0.361,1.242-0.801,2.562-1.336,4.023
			l-1.871,5.138h-1.035l-1.715-5.044c-0.502-1.493-0.926-2.86-1.225-4.117h-0.031c-0.031,1.32-0.111,3.096-0.205,4.683l-0.281,4.542
			h-1.305l0.738-10.592h1.744l1.807,5.123c0.441,1.304,0.803,2.467,1.068,3.567h0.047c0.268-1.069,0.645-2.232,1.115-3.567
			l1.887-5.123h1.744l0.66,10.592h-1.336L305.742,676.098z"/>
		<path fill="#1C1C1C" d="M317.154,667.753l-2.012,1.839h-1.117l1.445-1.839H317.154z M315.535,670.157v10.592h-1.367v-10.592
			H315.535z"/>
		<path fill="#1C1C1C" d="M324.352,677.417l-1.1,3.332h-1.414l3.6-10.592h1.648l3.615,10.592h-1.461l-1.133-3.332H324.352z
			 M327.824,676.349l-1.037-3.049c-0.234-0.691-0.393-1.319-0.549-1.933h-0.031c-0.158,0.628-0.33,1.272-0.535,1.917l-1.037,3.064
			H327.824z"/>
	</g>
</g>
</svg>
