<?xml version="1.0" encoding="utf-8"?>
<!-- Generator: Adobe Illustrator 15.0.0, SVG Export Plug-In . SVG Version: 6.00 Build 0)  -->
<!DOCTYPE svg PUBLIC "-//W3C//DTD SVG 1.1//EN" "http://www.w3.org/Graphics/SVG/1.1/DTD/svg11.dtd">
<svg version="1.1" id="Capa_1" xmlns="http://www.w3.org/2000/svg" xmlns:xlink="http://www.w3.org/1999/xlink" x="0px" y="0px"
	 width="400px" height="218.694px" viewBox="0 0 400 218.694" enable-background="new 0 0 400 218.694" xml:space="preserve">
<g>
	<path opacity="0.85" fill="#FFFFFF" d="M362.688,27h-76.024h-62.925c-11.876,0-22.067-7.195-26.462-17.463
		C192.882,19.805,182.689,27,170.813,27h-63.695H39.569C23.679,27,10,39.58,10,55.471v105.814C10,177.176,23.679,190,39.569,190
		h67.549h62.925c11.876,0,22.067,7.195,26.462,17.463C200.9,197.195,211.093,190,222.968,190h63.695h76.024
		C378.579,190,391,177.176,391,161.285V55.471C391,39.58,378.579,27,362.688,27z"/>
	<path opacity="0.8" fill="none" stroke="#FFFFFF" stroke-width="3" stroke-miterlimit="10" d="M363.688,28.5h-76.024h-62.925
		c-11.876,0-22.067-7.195-26.462-17.463C193.882,21.305,183.689,28.5,171.813,28.5h-63.695H40.569C24.679,28.5,9.5,39.58,9.5,55.471
		v105.814c0,15.891,15.179,30.215,31.069,30.215h67.549h62.925c11.876,0,22.067,7.195,26.462,17.463
		c4.396-10.268,14.588-17.463,26.463-17.463h63.695h76.024c15.892,0,26.813-14.324,26.813-30.215V55.471
		C390.5,39.58,379.579,28.5,363.688,28.5z"/>
</g>
</svg>
