<?xml version="1.0" encoding="utf-8"?>
<!-- Generator: Adobe Illustrator 15.0.0, SVG Export Plug-In . SVG Version: 6.00 Build 0)  -->
<!DOCTYPE svg PUBLIC "-//W3C//DTD SVG 1.1//EN" "http://www.w3.org/Graphics/SVG/1.1/DTD/svg11.dtd">
<svg version="1.1" id="Capa_1" xmlns="http://www.w3.org/2000/svg" xmlns:xlink="http://www.w3.org/1999/xlink" x="0px" y="0px"
	 width="155.51px" height="95.564px" viewBox="0 0 155.51 95.564" enable-background="new 0 0 155.51 95.564" xml:space="preserve">
<path opacity="0.8" fill="#FFFFFF" d="M75.891,4.507c-23.575,0-42.684,19.109-42.684,42.684c0,23.575,19.108,42.684,42.684,42.684
	s42.684-19.108,42.684-42.684C118.574,23.616,99.466,4.507,75.891,4.507z M96.315,50.618L70.854,68.133
	c-0.708,0.485-1.532,0.733-2.358,0.733c-0.666,0-1.326-0.158-1.935-0.476c-1.367-0.724-2.226-2.141-2.226-3.685v-35.03
	c0-1.543,0.858-2.961,2.226-3.685c1.366-0.717,3.019-0.618,4.293,0.259l25.461,17.515c1.126,0.774,1.802,2.059,1.802,3.426
	S97.441,49.842,96.315,50.618z"/>
</svg>
