<?xml version="1.0" encoding="utf-8"?>
<!-- Generator: Adobe Illustrator 16.0.0, SVG Export Plug-In . SVG Version: 6.00 Build 0)  -->
<!DOCTYPE svg PUBLIC "-//W3C//DTD SVG 1.1//EN" "http://www.w3.org/Graphics/SVG/1.1/DTD/svg11.dtd">
<svg version="1.1" xmlns="http://www.w3.org/2000/svg" xmlns:xlink="http://www.w3.org/1999/xlink" x="0px" y="0px" width="65px"
	 height="93.333px" viewBox="0 0 65 93.333" enable-background="new 0 0 65 93.333" xml:space="preserve">
<g id="Soporte">
</g>
<g id="Publicidad">
</g>
<g id="Iconos">
	<g>
		<path fill="#474747" d="M17.333,2.745v85.171c0,0,0.356,4.14-2.128,4.14s-2.721-5.086-2.721-5.086l0.829-39.983
			c0,0-8.012-0.625-6.98-11.12C7.634,22.618,9.333,9.014,17.333,2.745z"/>
		<path fill="#474747" d="M41.585,35.157c0-7.579-6.032-15.26-9.108-15.26c-3.312,0-9.09,7.807-8.753,15.378
			c0.207,4.674,3.224,8.707,7.096,9.622L29.874,88.33c0,0,0.119,3.756,2.484,3.756c2.366,0,2.957-4.096,2.957-4.096l-1.064-43.124
			C38.192,43.865,41.585,39.691,41.585,35.157z"/>
		<path fill="#474747" d="M59.921,19.333h-1.588v16.415c0,0.327-0.174,0.591-0.5,0.591s-0.5-0.265-0.5-0.591V19.333h-2v16.415
			c0,0.327-0.174,0.591-0.5,0.591s-0.5-0.265-0.5-0.591V19.333h-3v16.415c0,0.327-0.174,0.591-0.5,0.591s-0.5-0.265-0.5-0.591
			V19.333h-1.531c0,0,0.059,13.56,0.177,19.711c0.029,1.521,0.777,4.487,3.607,5.376l-0.945,43.912c0,0,0.118,3.754,2.483,3.754
			c2.366,0,2.958-4.096,2.958-4.096L56.02,44.477c2.965-0.756,3.842-3.5,3.901-5.167C60.099,34.343,59.921,19.333,59.921,19.333z"/>
	</g>
</g>
<g id="Imagenes">
</g>
<g id="Cintillos">
</g>
<g id="Botones">
</g>
<g id="TXT">
</g>
<g id="Logo">
</g>
<g id="Guia">
</g>
</svg>
