<?xml version="1.0" encoding="utf-8"?>
<!-- Generator: Adobe Illustrator 16.0.0, SVG Export Plug-In . SVG Version: 6.00 Build 0)  -->
<!DOCTYPE svg PUBLIC "-//W3C//DTD SVG 1.1//EN" "http://www.w3.org/Graphics/SVG/1.1/DTD/svg11.dtd">
<svg version="1.1" xmlns="http://www.w3.org/2000/svg" xmlns:xlink="http://www.w3.org/1999/xlink" x="0px" y="0px" width="54px"
	 height="60.833px" viewBox="0 0 54 60.833" enable-background="new 0 0 54 60.833" xml:space="preserve">
<g id="Soporte">
</g>
<g id="Publicidad">
</g>
<g id="Iconos">
	<path fill="#474747" d="M49.5,26.918c-1.167-2.834-7.166-5.5-7.166-5.5c1.667-5-5-9.666-5-9.666c1.167-5.333-10-9.667-10-9.667
		l-1,5c-5.666,0.5-7.834,8-7.834,8c-3.5,0.667-4,5.667-4,5.667c-4.5,0-9.666,6.5-9.666,6.5L1.5,27.585l5.667,28.333
		c0,0,5.667,3.667,20,3.667s20.167-3.833,20.167-3.833L53.5,27.418L49.5,26.918z M21.833,16.585c0,0-0.166-6.666,5.667-7.333
		c0,0,2.667-2.166,2.167-3.5c0,0,5.833,3.5,4.833,5s-4.667,4.166-4.667,4.166s4-1.666,5-2.666c0,0-1.666,4.666-4.833,6.833
		c0,0,4.334-2.166,5.667-3.833c0,0,5.999,3.5,3.666,5.5s-6.667,4-12.5,3.5s-9-1.166-10-3C16.833,21.252,19,16.752,21.833,16.585z
		 M9,54.585l-4-21l2,0.333l4.667,21.5L9,54.585z M13.334,55.585l-5-21.667l4.333-3.5l2.5,25.5L13.334,55.585z M16.334,55.918
		l-2-25.333l3.166,3.833l1.834,22.167L16.334,55.918z M20.5,55.918l-1.666-21.666l3.666-3l1.167,25.166
		C22,56.918,20.5,55.918,20.5,55.918z M24.834,56.418l-1-25l3.666,3.167l0.334,21.333C26.834,57.418,24.834,56.418,24.834,56.418z
		 M31.667,56.085c-0.667,1.167-2.5-0.167-2.5-0.167L29,34.252l3.167-3.167L31.667,56.085z M35.834,55.918
		c-1.5,1-2.834,0.5-2.834,0.5l0.334-25l3.333,3L35.834,55.918z M32.333,27.418c-1.166,0-4.666,4.167-4.666,4.167
		s-3.834-3.834-5.334-4.167s-4,4-4,4s-3.166-3.834-5.166-4s-5.334,3.334-5.334,3.334s-3,0-0.833-2.167s7.333-6.167,9.333-5.167
		c0,0,3.667,3.334,12.167,2.834s11.667-3.5,11.667-3.5s8.334,4.667,8.5,6.5l-1.334,1.833c0,0-3.667-4-5-4s-4.833,4.5-4.833,4.5
		S33.5,27.418,32.333,27.418z M37.334,55.418l0.5-20.666l3.333-3.167l-2,23.333C38.667,55.584,37.334,55.418,37.334,55.418z
		 M40,55.085l2.667-23.5l3.5,2.833L42.5,54.585C41.833,55.918,40,55.085,40,55.085z M45.834,53.085
		c-0.5,1.167-1.667,0.833-1.667,0.833l3.5-19L50,32.752L45.834,53.085z"/>
</g>
<g id="Imagenes">
</g>
<g id="Cintillos">
</g>
<g id="Botones">
</g>
<g id="TXT">
</g>
<g id="Logo">
</g>
<g id="Guia">
</g>
</svg>
