<?xml version="1.0" encoding="utf-8"?>
<!-- Generator: Adobe Illustrator 16.0.0, SVG Export Plug-In . SVG Version: 6.00 Build 0)  -->
<!DOCTYPE svg PUBLIC "-//W3C//DTD SVG 1.1//EN" "http://www.w3.org/Graphics/SVG/1.1/DTD/svg11.dtd">
<svg version="1.1" id="Capa_1" xmlns="http://www.w3.org/2000/svg" xmlns:xlink="http://www.w3.org/1999/xlink" x="0px" y="0px"
	 width="39.414px" height="40.559px" viewBox="0 0 39.414 40.559" enable-background="new 0 0 39.414 40.559" xml:space="preserve">
<g id="Soporte">
</g>
<g id="Publicidad">
</g>
<g id="Imagenes">
</g>
<g id="Cintillos">
</g>
<g id="Botones">
</g>
<g id="TXT">
</g>
<g id="Logo">
</g>
<g id="Guia">
</g>
<g id="Guias">
</g>
<g id="TXT_1_">
	<g>
		<path fill="#232323" d="M19.745,40.559C9.245,40.604-0.008,31.96,0.223,20.423C0.444,9.237,9.557,0.989,20.039,1.105
			c10.344,0.113,19.745,8.604,19.363,20.561c-0.166,5.267-2.264,9.828-6.117,13.491C29.501,38.758,24.963,40.535,19.745,40.559z
			 M7.888,6.263c-0.024-0.023-0.051-0.046-0.075-0.07C7.775,6.213,7.733,6.231,7.699,6.262C7.491,6.436,7.28,6.605,7.083,6.792
			c-4.992,4.755-6.866,10.59-5.825,17.338c0.927,6.025,4.339,10.361,9.585,13.296c1.145,0.64,2.417,1.073,3.661,1.512
			c0.493,0.174,1.07,0.311,1.604-0.043c0.128-0.083,0.352-0.033,0.53-0.018c0.619,0.045,1.239,0.101,1.844,0.149
			c0.227-0.93,0.491-1.047,1.893-0.905c-0.182,0.21-0.362,0.416-0.537,0.619c0.042-0.004,0.084-0.009,0.125-0.014
			c0.106,0.28,0.211,0.56,0.334,0.897c0.116-0.012,0.338-0.029,0.562-0.059c1.604-0.219,3.151-0.785,4.788-0.816
			c0.161-0.004,0.322-0.066,0.483-0.107c1.263-0.324,2.45-0.841,3.526-1.569c2.366-1.604,4.679-3.243,5.896-6.016
			c0.642-1.463,1.29-2.903,1.599-4.479c0.127-0.645,0.389-1.264,0.521-1.91c0.12-0.595,0.228-1.212,0.198-1.81
			c-0.047-0.955-0.4-1.892-0.132-2.864c0.024-0.087-0.042-0.239-0.118-0.306c-0.222-0.202-0.468-0.374-0.747-0.594
			c0.04-0.024-0.029-0.006-0.056,0.039c-0.43,0.641-1.203,0.157-1.72,0.521c-0.027,0.02-0.123-0.019-0.164-0.057
			c-0.429-0.395-0.89-0.765-1.272-1.206c-0.312-0.37-0.505-0.836-0.787-1.237c-0.359-0.512-0.702-0.997-0.597-1.686
			c0.078-0.525,0.04-1.053-0.383-1.472c-0.073-0.071-0.098-0.228-0.082-0.338c0.066-0.551,0.075-1.128,0.262-1.641
			c0.189-0.522,0.396-0.988,0.143-1.547c-0.061-0.132,0.033-0.354,0.099-0.519c0.101-0.269-0.036-0.363-0.244-0.485
			c-0.259-0.147-0.523-0.32-0.718-0.545c-0.222-0.256-0.349-0.595-0.55-0.875c-0.394-0.539-0.385-0.643,0.189-1.031
			c-0.106-0.068-0.201-0.145-0.309-0.19c-0.557-0.23-0.565-0.262-0.396-0.859c0.033-0.108-0.002-0.274-0.069-0.37
			c-0.293-0.402-0.523-0.882-1.134-0.916c-0.13-0.008-0.262-0.138-0.378-0.229c-1.051-0.792-2.149-1.485-3.444-1.826
			c-0.288-0.079-0.527-0.084-0.787,0.167c0.322,0.064,0.595,0.119,0.868,0.173c-0.47,0.085-0.935,0.097-1.394,0.162
			c-0.458,0.062-0.867,0.235-1.004,0.747c-0.087,0.319-0.322,0.402-0.626,0.399C21.3,4.261,20.735,3.58,20.226,2.834
			c-0.34-0.503-0.418-0.555-0.977-0.376c0.224,0.168,0.642,0.335,0.655,0.528c0.016,0.259-0.282,0.537-0.432,0.781
			c0.234,0.615,0.792,0.865,1.324,1.163c0.156,0.085,0.313,0.358,0.291,0.52c-0.025,0.195-0.204,0.458-0.383,0.528
			c-0.395,0.16-0.83,0.211-1.246,0.328c-0.105,0.029-0.186,0.142-0.248,0.192c0.328,0.206,0.612,0.387,0.948,0.604
			c-0.815,0.526-1.591,0.808-2.527,0.588c0.053,0.505-0.284,0.557-0.603,0.729c-0.41,0.217-0.842,0.566-1.039,0.971
			c-0.144,0.295-0.255,0.528-0.537,0.68c-0.226,0.121-0.447,0.252-0.667,0.378c-0.609,0.351-0.622,0.425-0.55,1.123
			c0.032,0.314,0.023,0.673-0.099,0.953c-0.195,0.453-0.653,0.472-0.917,0.053c-0.17-0.266-0.236-0.598-0.363-0.939
			c-0.385-0.283-0.809-0.307-1.257,0.038c-0.129,0.104-0.386,0.179-0.521,0.119c-0.491-0.211-0.888-0.235-1.109,0.156
			c-0.302,0.537-0.525,1.127-0.703,1.72c-0.051,0.173,0.132,0.575,0.276,0.613c0.263,0.072,0.613,0.092,0.8-0.286
			c0.214-0.438,0.586-0.673,1.089-0.671c0.562,0.007,0.769,0.312,0.544,0.827c-0.143,0.322-0.314,0.63-0.496,0.984
			c0.201,0,0.333-0.004,0.468,0.002c0.679,0.02,1,0.521,0.788,1.16c-0.085,0.256-0.103,0.552-0.075,0.824
			c0.013,0.103,0.238,0.259,0.37,0.259c0.426,0.002,0.853-0.054,1.38-0.096c0.14-0.381,0.6-0.537,1.083-0.749
			c0.629-0.282,1.123-0.262,1.627,0.175c0.238,0.207,0.501,0.256,0.789,0.1c0.091-0.047,0.193-0.063,0.33-0.109
			c-0.022,0.129-0.04,0.219-0.053,0.304c0.294-0.034,0.637-0.184,0.822-0.072c0.603,0.374,1.144,0.842,1.716,1.266
			c0.139,0.103,0.311,0.256,0.447,0.235c0.597-0.094,1.167,0.076,1.559,0.438c0.394,0.363,0.595,0.934,0.891,1.405
			c0.071,0.121,0.165,0.265,0.283,0.313c0.331,0.134,0.752,0.14,1.009,0.351c0.443,0.371,0.931,0.438,1.461,0.498
			c0.25,0.029,0.522,0.13,0.733,0.275c0.271,0.197,0.442,0.525,0.856,0.479c0.082-0.009,0.199,0.128,0.266,0.222
			c0.307,0.438,0.322,1.191-0.004,1.621c-0.298,0.394-0.655,0.745-0.96,1.136c-0.125,0.159-0.239,0.372-0.253,0.568
			c-0.091,1.04-0.559,1.912-1.162,2.724c-0.09,0.121-0.265,0.206-0.419,0.251c-0.409,0.116-0.822,0.224-1.241,0.295
			c-0.333,0.056-0.51,0.22-0.538,0.555c-0.057,0.638-0.414,1.073-0.938,1.411c-0.116,0.074-0.222,0.192-0.284,0.315
			c-0.217,0.442-0.539,0.749-1.006,0.905c-0.104,0.031-0.237,0.105-0.262,0.19c-0.184,0.588-0.629,0.803-1.181,0.891
			c-0.11,0.02-0.251,0.054-0.314,0.134c-0.324,0.398-0.628,0.816-0.929,1.212c0.285,0.472,0.27,0.568-0.075,0.946
			c-0.142,0.161-0.42,0.385-0.102,0.534c0.483,0.23,0.614,0.539,0.487,0.941c-0.249,0-0.5,0-0.749,0
			c-0.562-0.004-1.106-0.163-1.35-0.664c-0.311-0.642-1.015-1.106-0.813-2.011c0.113-0.512-0.117-1.089-0.091-1.63
			c0.046-0.901,0.273-1.787,0.176-2.711c-0.058-0.557,0.015-1.143,0.123-1.699c0.196-0.993-0.189-1.539-1.122-1.87
			c-0.356-0.127-0.679-0.487-0.902-0.822c-0.529-0.79-1.002-1.621-1.474-2.449c-0.133-0.232-0.245-0.508-0.266-0.77
			c-0.028-0.357,0.07-0.722,0.067-1.081c-0.01-0.725,0.511-1.144,0.913-1.617c0.367-0.432,0.411-0.72,0.054-1.223
			c-0.493,0.311-0.52,0.309-0.984-0.034c-0.059-0.045-0.126-0.077-0.188-0.116c-0.368-0.217-0.739-0.433-1.097-0.665
			c-0.065-0.04-0.119-0.154-0.115-0.231c0.032-0.528-0.336-0.721-0.735-0.824c-0.505-0.132-0.928-0.339-1.098-0.734
			c-0.39-0.036-0.724,0.011-0.984-0.106c-0.487-0.225-0.949-0.516-1.386-0.831c-0.417-0.297-0.683-0.691-0.352-1.234
			c0.042-0.065,0.016-0.171,0.021-0.297c-0.18,0.109-0.329,0.204-0.489,0.303c-0.59-0.677-0.617-1.471-0.521-2.299
			c0.056-0.454,0.096-0.91,0.123-1.366c0.013-0.245-0.074-0.5-0.021-0.73c0.208-0.943,0.757-1.687,1.427-2.36
			C7.453,6.746,7.667,6.498,7.888,6.263z M18.972,33.217c0.137-0.517,0.137-0.513,0.704-0.551c0.151-0.009,0.302-0.028,0.442-0.075
			c0.287-0.092,0.408-0.227,0.17-0.521c-0.096-0.118-0.149-0.371-0.088-0.492c0.049-0.094,0.321-0.143,0.467-0.107
			c0.72,0.177,0.895,0.092,1.239-0.562c0.12-0.226,0.315-0.449,0.534-0.576c0.369-0.215,0.555-0.475,0.629-0.913
			c0.049-0.297,0.274-0.668,0.532-0.807c0.487-0.265,1.051-0.385,1.583-0.57c0.085-0.029,0.196-0.05,0.234-0.11
			c0.428-0.684,0.816-1.38,0.939-2.205c0.092-0.621,0.282-1.228,0.43-1.843c0.042,0.01,0.08,0.021,0.123,0.031
			c0.007,0.182,0.016,0.367,0.031,0.693c0.326-0.427,0.597-0.727,0.805-1.066c0.208-0.345,0.069-0.606-0.304-0.742
			c-0.15-0.059-0.329-0.137-0.411-0.262c-0.385-0.582-0.993-0.548-1.562-0.56c-0.317-0.007-0.546-0.045-0.725-0.324
			c-0.163-0.257-0.407-0.398-0.685-0.186c-0.362,0.284-0.687,0.646-1.084,0.054c-0.014-0.024-0.088-0.004-0.13-0.016
			c-0.428-0.136-0.521-0.493-0.206-0.821c0.09-0.095,0.222-0.153,0.307-0.208c-0.137-0.273-0.226-0.446-0.311-0.623
			c-0.275-0.574-0.776-0.849-1.423-0.774c-0.633,0.073-0.77-0.015-1.116-0.592c-0.076-0.126-0.262-0.249-0.407-0.259
			c-0.253-0.019-0.386-0.087-0.525-0.322c-0.09-0.151-0.392-0.249-0.596-0.246c-0.66,0.008-1.295-0.014-1.87-0.446
			c-0.284,0.167-0.583,0.389-0.902,0.021c-0.036-0.04-0.191-0.031-0.243,0.013c-0.271,0.22-0.539,0.449-0.788,0.694
			c-0.297,0.289-0.385,0.613-0.295,1.058c0.061,0.299-0.07,0.687-0.231,0.97c-0.175,0.314-0.513,0.539-0.725,0.841
			c-0.108,0.152-0.193,0.499-0.114,0.57c0.305,0.288,0.24,0.534,0.005,0.778c-0.241,0.255-0.173,0.444,0.012,0.702
			c0.417,0.586,0.877,1.16,1.164,1.809c0.326,0.745,0.794,1.229,1.536,1.537c0.633,0.266,0.937,0.765,0.889,1.514
			c-0.076,1.163-0.055,2.335-0.091,3.502c-0.009,0.282-0.103,0.56-0.134,0.841c-0.046,0.423-0.071,0.844-0.106,1.267
			c0.045,0.006,0.086,0.011,0.129,0.013c0.074-0.078,0.147-0.154,0.278-0.297c0,0.834-0.006,1.578,0.006,2.325
			c0.003,0.298,0.114,0.53,0.449,0.525c0.183-0.239,0.356-0.458,0.542-0.695c-0.312-0.34-0.328-0.655,0.124-0.937
			c0.103-0.067,0.183-0.28,0.161-0.409C18.284,33.306,18.395,33.174,18.972,33.217z M14.251,2.553
			c-0.823,0.332-1.658,0.711-2.521,1.001c-0.924,0.312-1.463,1.093-2.181,1.649c-0.326,0.252-0.554,0.532-0.627,0.95
			C8.894,6.302,8.804,6.526,8.689,6.564c-0.556,0.19-0.782,0.726-1.187,1.069C6.909,8.137,6.635,8.826,6.429,9.528
			c-0.068,0.238,0.068,0.629,0.247,0.817c0.247,0.254,0.339,0.465,0.233,0.792c-0.04,0.122-0.052,0.269-0.025,0.39
			c0.126,0.522,0.282,1.037,0.401,1.559c0.053,0.231,0.137,0.523,0.044,0.707c-0.246,0.494,0.083,0.675,0.386,0.89
			c0.195,0.138,0.404,0.256,0.611,0.38c0.267,0.161,0.525,0.246,0.845,0.089C9.47,15.011,9.695,15.17,9.9,15.428
			c0.175,0.222,0.427,0.502,0.67,0.531c0.613,0.072,0.953,0.43,1.246,0.9c0.023,0.036,0.061,0.063,0.076,0.08
			c0.1-0.363,0.192-0.707,0.304-1.112c-0.546,0-1.071,0-1.596,0c-0.053-0.39,0.437-0.7,0.127-1.025
			c-0.351,0.07-0.656,0.106-0.944,0.194c-0.381,0.115-0.652-0.035-0.858-0.322c-0.294-0.411-0.41-0.887-0.275-1.37
			c0.148-0.53,0.343-1.055,0.568-1.555c0.085-0.188,0.293-0.376,0.486-0.444c0.62-0.213,1.247-0.455,1.889-0.523
			c0.642-0.066,1.306,0.063,1.974,0.108c0.1-0.54,0.55-0.848,1.064-1.106c0.304-0.153,0.607-0.289,0.66-0.719
			c0.047-0.36,0.218-0.708,0.369-1.161c0.174,0.192,0.235,0.26,0.235,0.26c0.291-0.145,0.543-0.262,0.786-0.392
			c0.094-0.049,0.246-0.123,0.249-0.192c0.022-0.353,0.264-0.405,0.53-0.479c0.288-0.077,0.573-0.186,0.844-0.309
			c0.078-0.037,0.114-0.174,0.171-0.263c-0.028-0.025-0.058-0.05-0.086-0.076c-0.169,0.093-0.326,0.222-0.504,0.267
			c-0.162,0.043-0.345-0.011-0.518-0.021c0.049-0.169,0.042-0.401,0.152-0.493c0.526-0.429,1.116-0.709,1.832-0.563
			c0.327,0.069,0.606-0.022,0.841-0.327c-0.477-0.179-0.969-0.297-1.042-0.92c-0.529,0.294-0.908,0.29-1.207-0.234
			c-0.074-0.129-0.393-0.221-0.551-0.171c-0.113,0.035-0.146,0.335-0.216,0.515c-0.069,0.167-0.1,0.42-0.223,0.48
			c-0.328,0.161-0.621,0.294-0.599,0.729c0,0.045-0.071,0.092-0.105,0.141c-0.153,0.209-0.307,0.423-0.442,0.608
			c-0.395-0.581-0.515-1.612-1.645-1.634c-0.25-0.813-0.203-0.932,0.538-1.323c0.243-0.128,0.495-0.246,0.789-0.392
			C14.992,3.139,14.509,3.194,14.251,2.553z M38.57,23.502c0.024-0.146,0.073-0.336,0.092-0.525
			c0.362-3.531-0.184-6.919-1.624-10.162c-0.436-0.977-0.983-1.854-1.968-2.39c-0.19-0.105-0.36-0.341-0.432-0.554
			c-0.112-0.328-0.291-0.458-0.595-0.341c-0.264,0.098-0.499,0.291-0.765,0.393c-0.39,0.153-0.562,0.422-0.369,0.77
			c0.236,0.424,0.174,0.771-0.067,1.175c-0.347,0.586-0.55,1.307-0.253,1.896c0.347,0.68,0.365,1.341,0.367,2.042
			c0.004,0.141,0.035,0.303,0.109,0.419c0.445,0.693,0.881,1.395,1.373,2.058c0.194,0.265,0.608,0.669,0.77,0.607
			c0.451-0.174,0.979,0.042,1.391-0.37c0.374-0.375,0.729-0.245,0.988,0.198c0.072,0.123,0.225,0.198,0.334,0.301
			c0.116,0.106,0.293,0.208,0.319,0.339c0.071,0.357,0.094,0.73,0.107,1.096c0.007,0.355-0.061,0.716-0.031,1.066
			C38.377,22.192,38.485,22.858,38.57,23.502z M22.363,3.597C22.058,2.849,22.783,3,23.054,2.761
			c-0.322-0.693-1.854-1.206-2.728-0.886c0.202,0.126,0.377,0.204,0.507,0.331c0.186,0.179,0.425,0.371,0.48,0.597
			C21.446,3.37,21.64,3.573,22.363,3.597z M16.799,3.389c-0.671,0.257-1.328,0.51-1.985,0.76c0.005,0.049,0.006,0.097,0.01,0.143
			c0.361,0.146,0.714,0.321,1.089,0.419c0.124,0.033,0.374-0.091,0.438-0.21C16.531,4.162,16.643,3.791,16.799,3.389z M31.033,5.413
			c-0.04,1.083,0.643,1.503,1.555,1.901c0-0.244,0.071-0.487-0.009-0.566C32.091,6.291,31.572,5.871,31.033,5.413z M32.695,8.964
			c-0.147-0.442-0.284-0.844-0.421-1.252c-0.29,0.047-0.534,0.086-0.834,0.133C31.773,8.311,31.903,8.934,32.695,8.964z M34.2,8.734
			c-0.38-0.271-0.729-0.52-1.078-0.768c-0.028,0.017-0.054,0.036-0.08,0.052c0.123,0.307,0.246,0.613,0.376,0.921
			C33.704,8.866,33.938,8.802,34.2,8.734z"/>
		<path fill="none" stroke="#000000" stroke-width="1.0999" stroke-linejoin="round" stroke-miterlimit="10" d="M32.708,10.968
			c0.44-0.197,1.279-1.317,1.771-1.161c0.13,0.53-0.436,1.121-0.742,1.496c-0.559,0.693-1.118,1.362-1.635,2.087
			c0.928-0.892,2.172-1.976,3.379-2.556c0.237,0.59-0.865,1.885-1.219,2.377c-0.48,0.669-1.084,1.268-1.552,1.912
			c0.279-1.158,2.323-2.67,3.381-3.247c0.287,0.497-0.737,2.023-0.981,2.491c-0.42,0.793-0.905,1.615-1.368,2.371
			c0.259-0.892,1.189-1.63,1.798-2.297c0.295-0.322,0.619-0.72,0.968-0.938c0.097,1.564-0.86,3.141-1.411,4.585
			c0.606-0.984,1.371-2.302,2.288-3.01c0.468,0.485-0.286,2.03-0.483,2.555c-0.203,0.554-0.489,1.167-0.567,1.751
			c0.085-0.674,1.134-2.591,1.961-2.627c0.085,0.745-0.427,1.419-0.539,2.125c0.208-0.21,0.374-0.479,0.664-0.524
			c0.025,0.484-0.085,0.933-0.104,1.399c0.069-0.003,0.156,0.013,0.228,0.017c0.029,0.346-0.134,0.66-0.23,0.969
			c0.069-0.028,0.22-0.024,0.293-0.048c0.059,0.422-0.281,0.712-0.353,1.095c0.895-0.007,0.189,1.049,0.236,1.113"/>
		<path fill="none" stroke="#000000" stroke-width="1.0999" stroke-linejoin="round" stroke-miterlimit="10" d="M18.862,5.672
			c0.125-0.687-0.656-1.46-1.283-1.523c-0.161,1,0.872,1.561,0.722,2.435c-0.716,0.191-1.118-1.401-1.672-1.756
			c-0.227,0.88,0.184,1.847,0.31,2.694c0.065,0.428,0.369,1.603-0.416,1.042c-0.615-0.443-0.627-1.93-0.871-2.585
			c-0.203-0.537-0.449-1.06-0.67-1.579c0.017,0.93,0.133,1.679,0.263,2.547c0.057,0.37,0.249,2.053-0.427,1.747
			c-0.345-0.156-0.577-1.709-0.635-2.054c-0.132-0.778-0.113-1.594-0.121-2.385c-0.011-1.067-0.282-1.465-1.465-1.031
			c0.004,0.485,0.26,0.986,0.43,1.446c0.364,0.96,0.619,1.799,0.663,2.823c0.036,0.765,0.016,1.538,0.308,2.254
			c0.234,0.578,0.593,1.07,0.611,1.702c-0.695,0.02-1.506-1.715-1.839-2.225c-0.605-0.92-1.024-2-1.218-3.079
			c-0.097-0.522-0.3-2.761-1.434-1.658c-0.728,0.706,0.644,2.828,0.979,3.512c0.246,0.509,0.507,0.979,0.702,1.491
			c0.167,0.443,0.156,0.907,0.287,1.355c-0.964,0.426-1.576-2.383-1.759-2.956c-0.281-0.853-0.802-2.05-1.422-2.678
			C8.811,6.33,9.54,7.654,9.89,8.719c0.173,0.522,0.286,1.031,0.421,1.568c0.119,0.471,0.479,0.973,0.421,1.468
			c-0.647,0.018-1.605-2.167-1.886-2.686C8.504,8.438,8.144,7.79,7.843,7.161C6.629,6.966,7.873,8.837,8.032,9.154
			c0.375,0.763,0.688,1.785,1.228,2.442c-0.466,0.081-0.865-0.711-1.272-0.928c-0.445-0.237-1.053-0.212-1.546-0.188
			c0.106,0.292,0.977,0.503,1.299,0.729c0.446,0.314,0.768,0.713,1.026,1.161c-0.727,0.021-1.276-0.425-1.516,0.442
			c-0.348,1.242,0.258,0.852,1.083,1c0.113,0.482-0.346,0.785-0.292,1.268c0.609,0.041,1.211-0.416,1.767-0.293
			c0.015,0.291,0.043,0.586-0.062,0.859c0.48-0.02,0.988-0.387,1.604-0.306c-0.199,0.445-0.299,0.909-0.301,1.286"/>
		<path fill="none" stroke="#000000" stroke-width="1.0999" stroke-linejoin="round" stroke-miterlimit="10" d="M14.139,18.815
			c0.873-1.069,1.574-0.765,2.547-1.402c-0.34,0.472-1.178,0.625-1.729,0.979c-0.667,0.432-1.381,1.051-1.898,1.61
			c2.22,0.333,3.435-2.103,5.409-2.256c0.191,1.572-4.807,3.218-6.016,4.065c1.474,0.349,3.556-1.382,4.855-2.003
			c0.818-0.39,1.387-0.596,2.251-0.743c-0.393,1.228-2.596,1.821-3.61,2.403c-0.902,0.521-2.169,1.177-2.774,2.037
			c1.886,0.003,4.367-2.233,6.005-3.155c0.78-0.442,1.749-1.077,2.545-1.282c0.239,1.745-3.63,2.922-4.793,3.673
			c-0.799,0.521-1.617,1.449-2.518,1.756c2.823,0.096,5.48-2.713,7.921-3.736c-0.496,1.567-3.287,2.535-4.663,3.249
			c-0.8,0.411-2.815,1.075-3.047,2.035c2.358-0.083,4.693-1.81,6.795-2.76c0.758-0.343,2.592-1.331,3.45-1.311
			c0.249,2.974-6.275,3.953-8.07,5.492c1.98-0.657,4.099-1.436,5.917-2.401c1.085-0.575,2.858-1.23,4.093-1.036
			c0,2.657-8.699,2.021-9.769,4.677c2.66,0,4.972-1.917,7.59-1.776c-0.447,1.253-3.27,1.879-4.45,2.274
			c-1.267,0.423-2.795,0.615-3.84,1.427c2.274,0.291,4.428-1.644,6.718-1.29c0.117,1.109-1.972,1.472-2.79,1.557
			c-1.395,0.147-2.53,0.404-3.858,0.85c0.952-0.024,3.317-0.38,4.332,0.235c-1.085,0.196-3.693,0.091-4.053,1.308
			c0.552,0.105,1.13,0.32,1.661,0.532c-0.603,0.445-2.603,1.3-0.348,1.543"/>
	</g>
</g>
</svg>
