<?xml version="1.0" encoding="utf-8"?>
<!-- Generator: Adobe Illustrator 16.0.0, SVG Export Plug-In . SVG Version: 6.00 Build 0)  -->
<!DOCTYPE svg PUBLIC "-//W3C//DTD SVG 1.1//EN" "http://www.w3.org/Graphics/SVG/1.1/DTD/svg11.dtd">
<svg version="1.1" xmlns="http://www.w3.org/2000/svg" xmlns:xlink="http://www.w3.org/1999/xlink" x="0px" y="0px" width="64.75px"
	 height="57.125px" viewBox="0 0 64.75 57.125" enable-background="new 0 0 64.75 57.125" xml:space="preserve">
<g id="Vectores">
</g>
<g id="Imagenes">
</g>
<g id="Cintillos">
</g>
<g id="BOtones">
</g>
<g id="Logos">
</g>
<g id="Igonos">
	<g>
		<path fill="none" d="M47.684,14.959l-4.477,6.887c8.235,1.119,11.19,4.045,11.19,4.045c0.401-0.2,1.119-1.004,1.435-1.664
			s-0.944-1.758-1.492-2.095c-0.323-0.199-1.177-0.545-0.804-1.291s1.024-0.158,1.299,0.016c2.08,1.317,2.422,2.05,2.536,3.03
			c0.477,4.118-9.09,6.926-19.975,7.235c-10.884,0.31-21.758-0.896-26.838-3.896c-3.527-2.082-2.217-4.368-1.117-5.418
			c0.474-0.451,1.873-1.979,2.477-1.076c0.601,0.898-0.584,1.356-1.164,1.679c-2.71,1.506,0.175,3.454,0.175,3.454
			c8.534-6.06,27.396-4.575,27.396-4.575l3.216-7.174c-29.839-3.089-37.372,7.749-37.356,8.503
			C4.471,37.77,12.964,45.517,14.8,47.41c1.837,1.895,5.968,5.692,17.503,5.854c8.207,0.114,13.831-2.009,16.069-3.903
			c13.225-11.189,12.978-23.99,12.797-27.086C60.939,18.344,47.684,14.959,47.684,14.959z"/>
		<path fill="#474747" d="M63.863,21.908c-0.083-0.767-0.619-6.185-14.409-9.152c0,0,7.545-8.411,8.225-9.338
			c0,0,1.547-1.422-2.411-2.288s-5.38,1.051-5.38,1.051s-4.823,4.948-6.864,9.338c0,0-6.555-1.175-14.718-0.618
			C20.143,11.457,3.631,13.93,1.528,22.031s6.06,25.23,15.46,30.611c9.399,5.38,25.17,3.648,30.55,0.434
			C52.918,49.859,65.661,38.502,63.863,21.908z M52.935,26.436c-1.636,0.947-6.973,2.927-20.272,3.229
			C19.361,29.965,12.26,26.5,12.26,26.5c7.748-5.057,25.48-3.895,25.48-3.895l-0.646,1.894c0.345,1.334,4.003,0.989,4.003,0.989
			l1.378-2.367C48.285,23.466,52.935,26.436,52.935,26.436z M48.372,49.361c-2.238,1.895-7.862,4.018-16.069,3.903
			c-11.535-0.162-15.666-3.96-17.503-5.854C12.964,45.517,4.471,37.77,4.184,22.619c-0.016-0.754,7.518-11.592,37.356-8.503
			l-3.216,7.174c0,0-18.861-1.484-27.396,4.575c0,0-2.885-1.948-0.175-3.454c0.58-0.322,1.765-0.78,1.164-1.679
			c-0.604-0.903-2.003,0.625-2.477,1.076c-1.1,1.05-2.41,3.336,1.117,5.418c5.08,2.999,15.954,4.205,26.838,3.896
			c10.885-0.31,20.451-3.117,19.975-7.235c-0.114-0.98-0.456-1.713-2.536-3.03c-0.274-0.174-0.926-0.762-1.299-0.016
			s0.48,1.092,0.804,1.291c0.548,0.337,1.808,1.435,1.492,2.095s-1.033,1.464-1.435,1.664c0,0-2.955-2.926-11.19-4.045l4.477-6.887
			c0,0,13.256,3.385,13.485,7.316C61.35,25.371,61.597,38.172,48.372,49.361z"/>
		<path fill="#474747" d="M14.283,27.211c0,0,0.817-1.636,4.045-0.947c3.229,0.688,1.033,2.324,1.033,2.324
			S15.016,27.555,14.283,27.211z"/>
		<path fill="#474747" d="M25.215,29.406c0,0-0.817-1.98,2.971-1.938c3.787,0.043,3.056,2.109,2.41,2.195L25.215,29.406z"/>
		<ellipse fill="#474747" cx="36.815" cy="27.49" rx="2.819" ry="1.485"/>
		<ellipse fill="#474747" cx="45.402" cy="26.221" rx="3.013" ry="1.506"/>
		<ellipse fill="#474747" cx="31.155" cy="24.93" rx="3.228" ry="1.463"/>
		<ellipse fill="#474747" cx="23.602" cy="25.575" rx="2.948" ry="1.377"/>
	</g>
</g>
<g id="TXT">
</g>
<g id="Guias">
</g>
</svg>
