<?xml version="1.0" encoding="utf-8"?>
<!-- Generator: Adobe Illustrator 16.0.0, SVG Export Plug-In . SVG Version: 6.00 Build 0)  -->
<!DOCTYPE svg PUBLIC "-//W3C//DTD SVG 1.1//EN" "http://www.w3.org/Graphics/SVG/1.1/DTD/svg11.dtd">
<svg version="1.1" xmlns="http://www.w3.org/2000/svg" xmlns:xlink="http://www.w3.org/1999/xlink" x="0px" y="0px" width="54px"
	 height="71.333px" viewBox="0 0 54 71.333" enable-background="new 0 0 54 71.333" xml:space="preserve">
<g id="Soporte">
</g>
<g id="Publicidad">
</g>
<g id="Iconos">
	<g>
		<path fill="#474747" d="M47.428,18.761c-0.764-2.072,2.291-5.454-0.109-7.963c-2.399-2.51-5.126-1.2-7.745-2.727
			c-2.618-1.526-1.309-4.908-4.69-6s-5.235,3.054-7.527,2.291c-2.289-0.764-5.719-3.066-7.526-2.291
			c-3.817,1.636-1.964,3.817-5.127,6.217c-3.163,2.401-6.327,0.219-7.744,2.946c-1.419,2.727,0.98,3.49-0.11,7.09
			c-1.089,3.6-5.345,4.691-5.235,7.309s3.6,3.927,4.69,6.545c1.091,2.618-1.636,4.8,0.109,7.964c1.252,2.268,3.79,2.295,5.974,2.69
			L4.148,65.504l8.019-0.573l4.99,5.154l8.104-22.071c0.534-0.177,1.116-0.309,1.769-0.345c0.295-0.017,0.564-0.006,0.824,0.018
			l9.049,21.788l4.771-5.357l8.034,0.236L40.821,42.75c2.081-1.257,5.641-1.088,7.152-2.5c1.637-1.528-0.437-5.454,0.11-7.963
			c0.545-2.509,4.581-4.037,4.472-6.763C52.446,22.797,48.192,20.834,47.428,18.761z M27.029,44.177
			c-10.482,0-18.98-8.497-18.98-18.98c0-10.483,8.498-18.98,18.98-18.98c10.483,0,18.98,8.498,18.98,18.98
			C46.009,35.68,37.512,44.177,27.029,44.177z"/>
		<g>
			<path fill="#474747" d="M27.029,41.887c-9.202,0-16.689-7.487-16.689-16.69c0-9.203,7.487-16.689,16.689-16.689
				c9.203,0,16.69,7.487,16.69,16.689C43.719,34.4,36.232,41.887,27.029,41.887z M27.029,9.162c-8.842,0-16.035,7.193-16.035,16.035
				s7.193,16.036,16.035,16.036c8.843,0,16.036-7.193,16.036-16.036S35.872,9.162,27.029,9.162z"/>
		</g>
		<polygon fill="#474747" points="27.344,11.68 26.421,12.166 26.597,11.139 25.852,10.412 26.883,10.262 27.344,9.327 
			27.805,10.262 28.837,10.412 28.09,11.139 28.266,12.166 		"/>
		<polygon fill="#474747" points="22.796,12.36 22.096,13.132 21.91,12.107 20.959,11.68 21.877,11.185 21.99,10.149 22.744,10.87 
			23.764,10.657 23.312,11.595 23.83,12.5 		"/>
		<polygon fill="#474747" points="18.719,14.497 18.245,15.424 17.796,14.483 16.768,14.318 17.525,13.602 17.364,12.572 
			18.28,13.071 19.21,12.6 19.018,13.624 19.753,14.362 		"/>
		<polygon fill="#474747" points="15.435,17.922 15.17,18.93 14.531,18.107 13.492,18.168 14.076,17.306 13.697,16.335 
			14.698,16.625 15.505,15.964 15.538,17.005 16.416,17.567 		"/>
		<polygon fill="#474747" points="13.851,22.147 14.09,23.161 13.139,22.734 12.249,23.276 12.361,22.24 11.571,21.562 
			12.591,21.347 12.994,20.385 13.51,21.288 14.55,21.373 		"/>
		<polygon fill="#474747" points="13.441,27.015 13.68,28.028 12.73,27.602 11.84,28.144 11.953,27.108 11.162,26.429 
			12.182,26.214 12.584,25.252 13.102,26.156 14.14,26.241 		"/>
		<polygon fill="#474747" points="14.833,31.76 15.072,32.773 14.121,32.347 13.231,32.889 13.342,31.853 12.552,31.174 
			13.572,30.959 13.975,29.998 14.493,30.901 15.532,30.987 		"/>
		<polygon fill="#474747" points="17.491,35.441 17.731,36.455 16.78,36.029 15.89,36.571 16.001,35.535 15.211,34.856 
			16.231,34.641 16.633,33.679 17.152,34.583 18.191,34.668 		"/>
		<polygon fill="#474747" points="21.123,38.245 21.194,39.284 20.325,38.708 19.36,39.098 19.637,38.094 18.968,37.296 
			20.01,37.25 20.564,36.366 20.927,37.342 21.938,37.596 		"/>
		<polygon fill="#474747" points="25.582,39.922 25.653,40.961 24.784,40.385 23.818,40.775 24.096,39.771 23.427,38.973 
			24.469,38.928 25.023,38.043 25.386,39.02 26.397,39.272 		"/>
		<polygon fill="#474747" points="31.692,12.305 32.379,13.09 32.584,12.069 33.542,11.66 32.635,11.148 32.542,10.109 
			31.775,10.815 30.758,10.583 31.194,11.531 30.657,12.424 		"/>
		<polygon fill="#474747" points="35.73,14.519 36.186,15.455 36.651,14.522 37.682,14.377 36.939,13.647 37.122,12.62 
			36.196,13.101 35.275,12.613 35.447,13.64 34.699,14.364 		"/>
		<polygon fill="#474747" points="38.948,18.005 39.192,19.018 39.847,18.208 40.885,18.289 40.317,17.416 40.714,16.453 
			39.708,16.722 38.914,16.047 38.862,17.086 37.974,17.632 		"/>
		<polygon fill="#474747" points="40.452,22.261 40.192,23.269 41.151,22.86 42.031,23.42 41.938,22.382 42.741,21.719 
			41.725,21.484 41.341,20.515 40.806,21.408 39.767,21.473 		"/>
		<polygon fill="#474747" points="40.766,27.135 40.507,28.144 41.467,27.736 42.346,28.295 42.254,27.257 43.058,26.593 
			42.042,26.359 41.658,25.389 41.123,26.283 40.083,26.348 		"/>
		<polygon fill="#474747" points="39.286,31.853 39.027,32.862 39.987,32.454 40.866,33.012 40.773,31.975 41.577,31.311 
			40.561,31.077 40.177,30.107 39.641,31.001 38.601,31.066 		"/>
		<polygon fill="#474747" points="36.557,35.482 36.298,36.491 37.258,36.084 38.137,36.642 38.044,35.605 38.847,34.941 
			37.832,34.707 37.447,33.737 36.913,34.63 35.873,34.696 		"/>
		<polygon fill="#474747" points="32.873,38.217 32.782,39.254 33.661,38.695 34.62,39.103 34.36,38.094 35.045,37.308 
			34.004,37.244 33.467,36.35 33.084,37.318 32.07,37.552 		"/>
		<polygon fill="#474747" points="28.382,39.808 28.291,40.846 29.172,40.287 30.129,40.695 29.871,39.686 30.555,38.9 
			29.514,38.835 28.977,37.941 28.593,38.91 27.58,39.144 		"/>
		<polygon fill="#474747" points="21.166,24.925 17.321,27.625 26.729,35.478 35.81,17.889 32.046,17.234 26.075,31.061 		"/>
	</g>
</g>
<g id="Imagenes">
</g>
<g id="Cintillos">
</g>
<g id="Botones">
</g>
<g id="TXT">
</g>
<g id="Logo">
</g>
<g id="Guia">
</g>
</svg>
