<?xml version="1.0" encoding="utf-8"?>
<!-- Generator: Adobe Illustrator 16.0.0, SVG Export Plug-In . SVG Version: 6.00 Build 0)  -->
<!DOCTYPE svg PUBLIC "-//W3C//DTD SVG 1.1//EN" "http://www.w3.org/Graphics/SVG/1.1/DTD/svg11.dtd">
<svg version="1.1" xmlns="http://www.w3.org/2000/svg" xmlns:xlink="http://www.w3.org/1999/xlink" x="0px" y="0px"
	 width="54.593px" height="47.89px" viewBox="0 0 54.593 47.89" enable-background="new 0 0 54.593 47.89" xml:space="preserve">
<g id="Vectores">
</g>
<g id="Imagenes">
</g>
<g id="Cintillos">
</g>
<g id="BOtones">
	<path opacity="0.7" fill="#F7931E" d="M46.32,1.625h-7.627H8.188c-3.83,0-6.934,3.104-6.934,6.934v31.2
		c0,3.828,3.104,6.866,6.934,6.866h30.506h7.627h6.934v-6.866v-31.2V1.625H46.32z"/>
</g>
<g id="Logos">
</g>
<g id="Igonos">
	<path fill="none" stroke="#FFFFFF" stroke-width="0.35" stroke-linejoin="round" stroke-miterlimit="10" d="M11.269,4.788
		c0,0.587-0.337,3.65,0.51,3.506c0.208-0.542,0.124-1.17,0.352-1.747c0.142-0.359,0.386-0.882,0.507-1.116
		c0.002,1.047-0.271,2.688,0.259,3.593c0.869,1.482,1.019-1.92,1.054-2.598c1.006,0.38,1.201,2.559,1.499,3.432
		c0.248,0.147,0.207,0.432,0.25,0.709c-0.073-0.532,1.267-3.086,0.458-3.145c0.144,1.477,1.192,2.34,0.775,3.894
		c0.001-0.806,1.065-2.141,1.489-2.813c0.086,1.273-0.178,2.59-0.106,3.824c0.346-0.642,0.466-1.052,0.654-1.74
		c0.063-0.228,0.431-1.138,0.685-1.19c0.922-0.194-0.538,3.112-0.322,3.599c-0.048-1.072,1.063-2.111,1.456-2.985
		c0.82,0.003,0.151,3.19,0.052,3.821c0.298-1.055,1.278-2.158,1.945-3.03c-0.028,1.035-0.286,2.208-0.514,3.218
		c0.287-0.672,0.925-0.964,1.378-1.468c0.215-0.239,0.356-0.536,0.568-0.774c0.192,0.949-0.88,2.201-1.021,3.168
		c0.987-0.69,1.293-2.313,2.194-3.056c0.133,0.972-0.498,2.519-0.828,3.442c0.299-0.051,1.379-1.032,1.612-1.351
		c0.249-0.34,0.218-0.683,0.196-1.15c0.441,0.741,0.9,2.947,0.084,3.595c-0.127-1.323,1.078-2.018,1.883-2.693
		c-0.15,1.041-0.506,2.137-0.778,3.138c0.35-0.648,0.679-1.419,1.229-1.907c0.266-0.236,0.575-0.353,0.767-0.661
		c0.107,0.588-0.329,1.438-0.442,2.034c-0.078,0.413-0.115,0.883-0.31,1.253c-0.128-0.768,0.827-1.159,1.222-1.663
		c0.244-0.309,0.335-0.611,0.526-0.963c-0.091,0.856-0.384,2.346-0.97,2.977c0.268-0.954,0.902-1.959,1.687-2.58
		c-0.042,1.29-0.643,2.215-1.041,3.366c0.235-0.479,0.57-1.075,0.877-1.611c0.237-0.415,0.657-0.83,0.862-1.247
		c0.063,0.979-0.371,1.806-0.377,2.784c0.002-0.575,0.104-2.651,0.967-2.719c0.052,0.973-0.365,2.322-0.001,3.187
		c-0.219-1.087,0.558-1.544,0.87-2.532c0.077-0.036,0.162-0.052,0.232-0.078c0.29,0.929-0.293,2.637,0.207,3.343
		c0.235-1.059,0.393-2.066,1.246-2.601c-0.027,1.119-0.335,2.237-0.269,3.35c0.207-0.547,0.182-1.106,0.474-1.612
		c0.188-0.325,0.49-0.549,0.64-0.896c-0.013,0.868-0.101,1.721-0.189,2.56c0.511-0.397,1.232-1.895,1.163-2.621
		c0.06,0.689-0.214,1.396-0.195,2.104c0.015,0.526,0.15,0.974,0.195,1.471c-0.148-1.041,1.314-2.018,1.303-3.108
		c0,1.357-0.225,2.422-0.445,3.675c0.457-0.123,0.894-1.549,1.137-2.015c0.195-0.375,0.305-0.776,0.484-1.15
		c-0.017,1.213-0.681,2.517-0.592,3.643c0.48-0.979,1.526-1.896,1.829-2.917c-0.034,1.122-0.654,2.169-1.149,3.091
		c0.868-0.287,1.846-1.404,2.338-2.067c-0.209,0.735-1.091,1.557-1.58,2.128c0.965,0.175,2.248-0.651,3.09-1.032
		c-0.523-0.038-1.04,0.41-1.463,0.637c-0.32,0.172-0.893,0.382-1.057,0.53c0.9-0.455,1.895-1.09,2.684-1.607
		c-0.611,0.035-2.607,1.098-3.044,1.623c1.702-0.238,3.351-0.704,5.044-0.983c-0.796-0.016-1.566,0.491-2.344,0.641
		c-0.658,0.126-1.39,0.165-2.048,0.206c0.877,0,1.761,0.033,2.636,0c0.515-0.02,0.993-0.218,1.495-0.195
		c-1.206,0.002-3.184-0.137-4.22,0.342c1.395,0.374,3.13,0.244,4.601,0.244c-0.435-0.054-0.757,0.123-1.169,0.181
		c-0.576,0.081-1.199,0.015-1.78,0.015c-0.526,0-1.194,0.085-1.676-0.05c0.882-0.119,1.959,0.654,2.896,0.701
		c0.45,0.022,0.929,0.019,1.346-0.066c-0.789,0.29-1.817,0.269-2.666,0.183c-0.712-0.073-1.466-0.661-2.166-0.573
		c0.671,0.115,1.207,0.587,1.793,0.896c0.563,0.297,1.218,0.264,1.706,0.538c-1.233,0.57-3.677-0.884-4.734-1.427
		c0.606,0.299,1.075,0.902,1.648,1.241c0.021,0.061,0.008,0.112,0.023,0.174c0.359,0.314,0.957,0.663,1.485,0.807
		c-1.108,0.322-3.197-0.656-3.782-1.588c0.315,1.111,1.384,1.686,2.15,2.408c-1.506,0.13-1.912-1.33-2.857-2.137
		c0.484,0.85,0.776,2.427,1.538,3.048c-0.464-0.059-1.019-0.583-1.218-1.029c-0.173-0.387-0.514-1.186-0.466-1.616
		c-0.063-0.018-0.094-0.018-0.139-0.07c-0.262,0.984,0.648,2.263,0.6,3.37c-0.583,0.105-1.098-0.994-1.282-1.423
		c-0.19-0.444-0.13-0.937-0.154-1.423c-0.039-0.019-0.08-0.025-0.123-0.019c-0.578,1.078,0.158,2.436,0.309,3.388
		c-0.789,0.06-0.666-0.636-0.762-1.152c-0.094-0.511-0.327-0.951-0.337-1.499c-0.099-0.098-0.308-0.248-0.432-0.331
		c-0.062,1.175,0.595,2.453,0.497,3.633c-1.199-0.497,0.057-2.817-1.345-3.241c-0.075,1.143-0.145,2.761,0.179,3.826
		c-1.212,0.132-0.488-3.061-1.549-3.165c-0.035,0.707,0.021,1.428,0.121,2.118c0.045,0.316,0.509,1.303,0.328,1.581
		c-0.354,0.545-0.717-1.272-0.767-1.465c-0.105-0.415-0.325-1.578-0.789-1.589c-0.036,0.682,0.115,1.27,0.12,1.945
		c0.003,0.334-0.018,0.668,0.063,0.972c0.05,0.188,0.329,0.509,0.265,0.72c-0.301,0.993-0.572-0.935-0.589-1.157
		c-0.046-0.639-0.317-1.14-0.463-1.698c-0.067-0.04-0.173-0.083-0.242-0.119c-0.069,1.084-0.265,2.436-0.039,3.498
		c-0.013,0.018-0.028,0.031-0.049,0.04c-0.537-0.49-0.685-1.681-0.85-2.388c-0.118-0.505-0.321-1.322-0.571-0.387
		c-0.27,1.004,0.067,2.42,0.383,3.308c-0.899-0.04-0.301-2.863-1.368-3.091c0.05,1.258,0.351,2.479,0.457,3.675
		c-1.208,0.234-0.668-2.836-1.608-2.894c-0.473,0.927,0.369,2.487,0.498,3.419c-0.988-0.389-0.096-2.763-1.491-3.081
		c-0.111,1.121,0.274,2.403,0.269,3.528c-0.535-0.743-0.805-1.928-1.638-2.403c-0.378,0.961-0.091,2.342-0.45,3.333
		c-0.499,1.378-1.623-1.396-1.63-2.034c0,0.974,0.134,2.22-0.106,3.136c-0.498-0.175-0.766-1.478-0.936-1.958
		c-0.126-0.354-0.223-0.639-0.207-1.034c-0.537,1.213-0.163,2.607-0.509,3.788c-0.555-0.868-0.455-2.104-0.456-3.117
		c-0.129,1.178,0.091,2.514-0.211,3.623c-0.682,0.04-0.896-1.123-1.209-1.567c-0.226-0.32-0.762-0.687-0.787-1.087
		c0.658,0.048,1.072,2.842,1.092,3.433c-0.947-0.096-1.489-2.33-2.096-3.052c-0.279,0.874,0.225,2.899,0.517,3.642
		c-0.657-0.648-0.533-1.309-0.756-2.084c-0.108-0.38-0.363-0.857-0.772-0.967c-0.143,1.089,0.72,2.155,0.565,3.241
		c-0.899,0.003-0.879-2.168-1.345-2.724c-0.171,1.016-0.203,2.502,0.17,3.436c-1.074-0.517-0.508-2.63-1.805-2.78
		c0.08,0.662,0.438,1.422,0.598,2.095c0.096,0.404,0.1,0.936,0.303,1.274c-1.234-0.209-1.089-2.366-2.148-2.897
		c-0.068,0.729,0.292,1.622,0.459,2.317c0.11,0.467,0.17,0.905,0.255,1.363c-0.642,0.116-0.796-1.15-1.06-1.565
		c-0.321-0.507-0.615-0.786-0.826-1.337c0.023,1.226,0.354,2.354,0.324,3.561c-0.693-0.209-1.82-1.892-1.679-2.65
		c0.633,0.872,0.331,2.284,0.512,3.305"/>
</g>
<g id="TXT">
</g>
<g id="Guias">
</g>
</svg>
