<?xml version="1.0" encoding="utf-8"?>
<!-- Generator: Adobe Illustrator 16.0.0, SVG Export Plug-In . SVG Version: 6.00 Build 0)  -->
<!DOCTYPE svg PUBLIC "-//W3C//DTD SVG 1.1//EN" "http://www.w3.org/Graphics/SVG/1.1/DTD/svg11.dtd">
<svg version="1.1" xmlns="http://www.w3.org/2000/svg" xmlns:xlink="http://www.w3.org/1999/xlink" x="0px" y="0px" width="57.5px"
	 height="63px" viewBox="0 0 57.5 63" enable-background="new 0 0 57.5 63" xml:space="preserve">
<g id="Soporte">
</g>
<g id="Publicidad">
</g>
<g id="Iconos">
	<g>
		<path fill="#474747" d="M18.821,26.729c0,0,0.161-11.315,0.803-13.321c0,0,0.722-1.686,2.327-0.401
			c1.605,1.284,5.297,4.092,8.748,4.654c0,0-2.729-2.648-4.735-3.451c0,0,3.494,1.207,5.537,0.802
			c1.898-0.375,5.457-0.642,5.858,5.056s0.161,6.661,0.161,6.661l0.642,0.08c0,0,0.882-5.938,2.247-6.42l0.401-0.642
			c0,0,0.161-6.179,0.722-8.827c0.142-0.667-0.401-1.364-1.846-2.006c-0.161,0.081-1.525-4.414-5.216-4.975l0.642-0.803
			c0,0-2.488-0.642-3.371-0.883c-0.882-0.241-4.012,0.08-4.574,0.642c0,0-0.481-0.723,0.241-1.444c0,0-1.524,0.802-2.487,0.802
			s-3.21,0.723-3.451,1.846c0,0-1.284-0.722-2.487,0.481c-1.204,1.204-1.525,1.926-2.568,1.926l1.043,0.401
			c0,0-1.605,2.648-2.648,3.692c-1.043,1.042,0.401,2.247,0.401,4.333c0,2.086,0.481,5.136,0.481,5.136s1.926,3.531,2.407,6.581
			L18.821,26.729z"/>
		<path fill="#474747" d="M15.531,19.747L15.451,24c0,0,1.042,3.531,2.086,4.896l0.803,0.481c0,0,0.321,1.685,0.642,2.568
			c0.321,0.883,4.895,6.581,5.457,6.901c0.562,0.321,5.457,0.882,6.821,0.321c1.364-0.562,5.297-5.297,6.179-6.661
			c0.883-1.365,0.562-3.13,0.562-3.13s0.562,0,1.124-0.723c0.562-0.722,1.364-3.771,1.846-4.493
			c0.482-0.722,0.401-3.291-0.161-4.414l-0.883,0.642c0,0,0.723,0.401,0.803,1.525c0.08,1.123-1.043,3.852-1.444,4.654
			s-0.642,2.327-1.846,2.488l-0.722,3.371c0,0-4.414,5.858-5.858,6.099s-4.815,0.161-6.179-0.401s-5.296-6.821-5.296-6.821
			l-0.562-2.327c0,0-1.284-0.482-1.444-1.284c-0.16-0.803-1.525-3.932-1.525-3.932l0.241-3.21L15.531,19.747z"/>
		<path fill="#474747" d="M19.502,38.104c0,0-1.785,6.108,8.808,6.51c10.593,0.4,8.817-6.495,8.817-6.495s4.81,2.098,8.903,2.98
			c4.092,0.883,10.106,4.233,9.865,20.233H1.085c0,0-0.642-15.958,7.063-19.248C10.906,40.906,17.135,39.448,19.502,38.104z"/>
	</g>
</g>
<g id="Imagenes">
</g>
<g id="Cintillos">
</g>
<g id="Botones">
</g>
<g id="TXT">
</g>
<g id="Logo">
</g>
<g id="Guia">
</g>
</svg>
