<?xml version="1.0" encoding="utf-8"?>
<!-- Generator: Adobe Illustrator 16.0.0, SVG Export Plug-In . SVG Version: 6.00 Build 0)  -->
<!DOCTYPE svg PUBLIC "-//W3C//DTD SVG 1.1//EN" "http://www.w3.org/Graphics/SVG/1.1/DTD/svg11.dtd">
<svg version="1.1" xmlns="http://www.w3.org/2000/svg" xmlns:xlink="http://www.w3.org/1999/xlink" x="0px" y="0px"
	 width="64.667px" height="67.25px" viewBox="0 0 64.667 67.25" enable-background="new 0 0 64.667 67.25" xml:space="preserve">
<g id="Soporte">
</g>
<g id="Publicidad">
</g>
<g id="Iconos">
	<g>
		<path fill="#474747" d="M2.667,31.973v13.75c0,1.274,1,2.324,2,2.478V29.494C3.667,29.648,2.667,30.698,2.667,31.973z"/>
		<path fill="#474747" d="M62.667,31.973v13.75c0,1.274-1,2.324-2,2.478V29.494C61.667,29.648,62.667,30.698,62.667,31.973z"/>
		<path fill="#474747" d="M57.667,29.25h-0.657c0.293-4,0.274-26.85-24.09-26.85C7.489,2.4,8.115,27.25,8.334,29.25H7.667v19h6.563
			c1.381,0,2.438-1.147,2.438-2.527v-13.75c0-1.381-1.057-2.723-2.438-2.723h-2.236c-0.001-2,1.065-20.509,21.195-20.509
			c20.132,0,20.444,18.509,20.282,20.509h-2.366c-1.381,0-2.438,1.342-2.438,2.723v13.75c0,1.38,1.057,2.527,2.438,2.527h1.523
			c-1.214,2-6.802,9.455-17.063,11.368c-0.684-1.766-2.395-3.025-4.4-3.025c-2.607,0-4.721,2.111-4.721,4.718
			c0,2.608,2.113,4.72,4.721,4.72c2.32,0,4.246-1.661,4.643-3.867c4.185-0.772,15.737-3.914,19.995-13.914h1.864V29.25z"/>
	</g>
</g>
<g id="Imagenes">
</g>
<g id="Cintillos">
</g>
<g id="Botones">
</g>
<g id="TXT">
</g>
<g id="Logo">
</g>
<g id="Guia">
</g>
</svg>
