<?xml version="1.0" encoding="utf-8"?>
<!-- Generator: Adobe Illustrator 15.0.0, SVG Export Plug-In . SVG Version: 6.00 Build 0)  -->
<!DOCTYPE svg PUBLIC "-//W3C//DTD SVG 1.1//EN" "http://www.w3.org/Graphics/SVG/1.1/DTD/svg11.dtd">
<svg version="1.1" id="Capa_1" xmlns="http://www.w3.org/2000/svg" xmlns:xlink="http://www.w3.org/1999/xlink" x="0px" y="0px"
	 width="311.97px" height="59.51px" viewBox="5.104 6.802 311.97 59.51" enable-background="new 5.104 6.802 311.97 59.51"
	 xml:space="preserve">
<g>
	<circle opacity="0.35" fill="#B2B2B2" enable-background="new    " cx="36.637" cy="37.946" r="19.355"/>
	<circle opacity="0.35" fill="#B2B2B2" enable-background="new    " cx="82.103" cy="37.946" r="19.355"/>
	<circle opacity="0.35" fill="#B2B2B2" enable-background="new    " cx="127.568" cy="37.946" r="19.354"/>
	<circle opacity="0.35" fill="#B2B2B2" enable-background="new    " cx="173.381" cy="37.946" r="19.355"/>
	<circle opacity="0.35" fill="#B2B2B2" enable-background="new    " cx="218.846" cy="37.946" r="19.355"/>
	<g>
		<circle fill="#D77B7B" cx="171.209" cy="35.877" r="20.061"/>
		<circle fill="#C83B30" cx="171.209" cy="35.876" r="18.083"/>
		<g opacity="0.2">
			<path fill="#979797" d="M163.028,19.76l-7.921,7.921c-0.388,0.761-0.723,1.552-1.001,2.37l11.292-11.292
				C164.578,19.038,163.787,19.372,163.028,19.76z"/>
			<path fill="#979797" d="M167.225,18.243l-13.634,13.634c-0.123,0.546-0.223,1.101-0.294,1.664l15.59-15.592
				C168.323,18.022,167.77,18.12,167.225,18.243z"/>
			<path fill="#979797" d="M171.223,17.794c-0.299,0-0.596,0.008-0.891,0.023l-17.168,17.168c-0.016,0.295-0.023,0.593-0.023,0.892
				c0,0.163,0.009,0.324,0.014,0.487l18.557-18.557C171.547,17.802,171.385,17.794,171.223,17.794z"/>
			<path fill="#979797" d="M172.949,17.879l-19.724,19.727c0.038,0.406,0.092,0.811,0.157,1.209l20.78-20.779
				C173.762,17.97,173.358,17.917,172.949,17.879z"/>
			<path fill="#979797" d="M175.258,18.252l-21.66,21.66c0.084,0.365,0.177,0.729,0.283,1.086l22.464-22.465
				C175.987,18.428,175.623,18.335,175.258,18.252z"/>
			<path fill="#979797" d="M177.334,18.855l-23.133,23.133c0.12,0.332,0.249,0.66,0.386,0.984l23.73-23.731
				C177.994,19.102,177.666,18.974,177.334,18.855z"/>
			<path fill="#979797" d="M179.215,19.655l-24.213,24.214c0.149,0.303,0.31,0.602,0.475,0.893L180.11,20.13
				C179.815,19.964,179.518,19.805,179.215,19.655z"/>
			<path fill="#979797" d="M180.928,20.623l-24.958,24.959c0.178,0.277,0.361,0.549,0.553,0.816l25.222-25.224
				C181.477,20.983,181.205,20.8,180.928,20.623z"/>
			<path fill="#979797" d="M182.49,21.739l-25.405,25.405c0.203,0.254,0.41,0.502,0.626,0.744l25.525-25.523
				C182.994,22.149,182.744,21.941,182.49,21.739z"/>
			<path fill="#979797" d="M183.912,22.999l-25.567,25.567c0.227,0.23,0.457,0.455,0.696,0.674l25.544-25.545
				C184.369,23.456,184.143,23.224,183.912,22.999z"/>
			<path fill="#979797" d="M185.196,24.397l-25.451,25.45c0.25,0.207,0.509,0.406,0.771,0.6l25.278-25.278
				C185.6,24.907,185.401,24.648,185.196,24.397z"/>
			<path fill="#979797" d="M186.33,25.942L161.29,50.984c0.277,0.182,0.56,0.355,0.845,0.521l24.719-24.719
				C186.688,26.502,186.514,26.219,186.33,25.942z"/>
			<path fill="#979797" d="M187.317,27.636l-24.334,24.336c0.305,0.154,0.613,0.303,0.928,0.441l23.85-23.852
				C187.621,28.249,187.473,27.94,187.317,27.636z"/>
			<path fill="#979797" d="M188.141,29.493L164.84,52.797c0.334,0.125,0.672,0.246,1.016,0.352l22.641-22.64
				C188.389,30.165,188.268,29.826,188.141,29.493z"/>
			<path fill="#979797" d="M188.778,31.538l-21.893,21.894c0.371,0.092,0.748,0.17,1.129,0.238l21.002-21.001
				C188.948,32.288,188.869,31.91,188.778,31.538z"/>
			<path fill="#979797" d="M189.184,33.811L169.156,53.84c0.42,0.047,0.842,0.08,1.27,0.1l18.859-18.859
				C189.268,34.653,189.233,34.23,189.184,33.811z"/>
			<path fill="#979797" d="M189.293,36.385l-17.563,17.563c0.492-0.014,0.982-0.045,1.465-0.098l16-15.998
				C189.246,37.367,189.28,36.878,189.293,36.385z"/>
			<path fill="#979797" d="M188.959,39.398l-14.217,14.215c0.621-0.121,1.234-0.273,1.83-0.459L188.5,41.226
				C188.684,40.629,188.838,40.019,188.959,39.398z"/>
			<path fill="#979797" d="M185.715,46.691c0.773-1.033,1.432-2.154,1.971-3.342l-8.99,8.992c1.188-0.539,2.309-1.199,3.342-1.971
				L185.715,46.691z"/>
		</g>
		<path fill="#FFFFFF" d="M173.453,42.504c-1.352,0-2.625-0.73-3.059-1.561c0,0-0.729,2.885-0.881,3.443
			c-0.541,1.967-2.139,3.936-2.262,4.098c-0.086,0.111-0.277,0.076-0.297-0.07c-0.033-0.252-0.441-2.734,0.037-4.76
			c0.242-1.018,1.611-6.827,1.611-6.827s-0.4-0.8-0.4-1.981c0-1.856,1.076-3.241,2.416-3.241c1.139,0,1.688,0.854,1.688,1.88
			c0,1.146-0.729,2.856-1.104,4.445c-0.314,1.328,0.666,2.412,1.975,2.412c2.373,0,3.973-3.049,3.973-6.66
			c0-2.745-1.848-4.799-5.213-4.799c-3.799,0-6.164,2.833-6.164,5.999c0,1.091,0.32,1.861,0.824,2.456
			c0.232,0.275,0.264,0.385,0.182,0.699c-0.061,0.23-0.197,0.785-0.256,1.004c-0.082,0.316-0.34,0.432-0.627,0.314
			c-1.75-0.715-2.564-2.632-2.564-4.786c0-3.557,3.002-7.823,8.951-7.823c4.783,0,7.93,3.46,7.93,7.174
			C180.213,38.834,177.481,42.504,173.453,42.504z"/>
		<g opacity="0.5">
			
				<linearGradient id="SVGID_1_" gradientUnits="userSpaceOnUse" x1="180.6653" y1="60.1287" x2="196.6669" y2="34.9573" gradientTransform="matrix(1 0 0 -1 -20.8999 76.5151)">
				<stop  offset="0" style="stop-color:#FFFFFF"/>
				<stop  offset="1" style="stop-color:#FFFFFF;stop-opacity:0"/>
			</linearGradient>
			<path fill="url(#SVGID_1_)" d="M166.356,45.328c11.08,0,20.061-8.979,20.061-20.061c0-0.909-0.066-1.804-0.184-2.68
				c-3.676-4.152-9.041-6.773-15.023-6.773c-11.079,0-20.06,8.981-20.06,20.062c0,0.909,0.066,1.804,0.184,2.681
				C155.008,42.709,160.375,45.328,166.356,45.328z"/>
		</g>
	</g>
	<g>
		<circle fill="#94A7E4" cx="33.752" cy="35.877" r="20.061"/>
		<circle fill="#5062AD" cx="33.752" cy="35.877" r="18.082"/>
		<g opacity="0.2">
			<path fill="#979797" d="M25.567,19.76l-7.919,7.921c-0.389,0.761-0.723,1.552-1,2.37l11.291-11.292
				C27.119,19.038,26.328,19.372,25.567,19.76z"/>
			<path fill="#979797" d="M29.764,18.243L16.13,31.877c-0.123,0.546-0.221,1.101-0.293,1.664l15.592-15.592
				C30.865,18.022,30.31,18.12,29.764,18.243z"/>
			<path fill="#979797" d="M33.763,17.794c-0.299,0-0.597,0.008-0.892,0.023L15.703,34.985c-0.014,0.295-0.022,0.593-0.022,0.892
				c0,0.163,0.009,0.324,0.013,0.487L34.25,17.807C34.089,17.802,33.927,17.794,33.763,17.794z"/>
			<path fill="#979797" d="M35.491,17.879L15.765,37.605c0.039,0.406,0.092,0.811,0.158,1.209l20.779-20.779
				C36.302,17.97,35.9,17.917,35.491,17.879z"/>
			<path fill="#979797" d="M37.798,18.252l-21.658,21.66c0.083,0.365,0.178,0.729,0.283,1.086l22.464-22.465
				C38.527,18.428,38.164,18.335,37.798,18.252z"/>
			<path fill="#979797" d="M39.875,18.855L16.743,41.988c0.119,0.332,0.247,0.66,0.386,0.984l23.73-23.731
				C40.536,19.102,40.208,18.974,39.875,18.855z"/>
			<path fill="#979797" d="M41.757,19.655L17.543,43.869c0.15,0.303,0.309,0.602,0.475,0.895L42.65,20.13
				C42.356,19.964,42.059,19.805,41.757,19.655z"/>
			<path fill="#979797" d="M43.469,20.623L18.51,45.582c0.177,0.277,0.36,0.551,0.553,0.816l25.222-25.223
				C44.019,20.983,43.746,20.8,43.469,20.623z"/>
			<path fill="#979797" d="M45.032,21.739L19.627,47.144c0.202,0.254,0.41,0.502,0.625,0.744l25.523-25.523
				C45.534,22.149,45.286,21.941,45.032,21.739z"/>
			<path fill="#979797" d="M46.453,22.999L20.886,48.566c0.226,0.23,0.458,0.455,0.697,0.674l25.543-25.545
				C46.908,23.456,46.684,23.224,46.453,22.999z"/>
			<path fill="#979797" d="M47.736,24.397l-25.45,25.452c0.25,0.205,0.509,0.404,0.771,0.598l25.276-25.278
				C48.14,24.907,47.943,24.648,47.736,24.397z"/>
			<path fill="#979797" d="M48.87,25.942L23.83,50.984c0.277,0.182,0.559,0.355,0.847,0.521l24.717-24.719
				C49.227,26.502,49.053,26.219,48.87,25.942z"/>
			<path fill="#979797" d="M49.858,27.636L25.524,51.972c0.304,0.154,0.613,0.303,0.927,0.441l23.85-23.852
				C50.161,28.249,50.013,27.94,49.858,27.636z"/>
			<path fill="#979797" d="M50.683,29.493L27.38,52.797c0.334,0.125,0.672,0.246,1.016,0.352l22.641-22.64
				C50.928,30.165,50.81,29.826,50.683,29.493z"/>
			<path fill="#979797" d="M51.318,31.538L29.426,53.431c0.372,0.092,0.75,0.17,1.131,0.238l21-21.001
				C51.489,32.288,51.409,31.91,51.318,31.538z"/>
			<path fill="#979797" d="M51.725,33.811L31.699,53.84c0.419,0.047,0.841,0.08,1.268,0.1L51.825,35.08
				C51.807,34.653,51.773,34.23,51.725,33.811z"/>
			<path fill="#979797" d="M51.833,36.385L34.271,53.945c0.494-0.014,0.983-0.043,1.466-0.096l16-16
				C51.789,37.367,51.82,36.878,51.833,36.385z"/>
			<path fill="#979797" d="M51.5,39.398L37.284,53.613c0.622-0.121,1.233-0.273,1.83-0.459l11.927-11.928
				C51.225,40.629,51.377,40.019,51.5,39.398z"/>
			<path fill="#979797" d="M48.256,46.691c0.772-1.033,1.432-2.154,1.972-3.342l-8.992,8.992c1.188-0.539,2.309-1.199,3.341-1.971
				L48.256,46.691z"/>
		</g>
		<path fill="#FFFFFF" d="M38.4,36.772h-2.828v10.239h-4.234V36.772H29.22v-3.528h2.117v-2.118c0-2.879,1.194-4.591,4.588-4.591
			h2.827v3.529h-1.766c-1.322,0-1.41,0.493-1.41,1.413l-0.005,1.767h3.202L38.4,36.772z"/>
		<g opacity="0.5">
			
				<linearGradient id="SVGID_2_" gradientUnits="userSpaceOnUse" x1="43.2058" y1="60.1287" x2="59.2076" y2="34.9572" gradientTransform="matrix(1 0 0 -1 -20.8999 76.5151)">
				<stop  offset="0" style="stop-color:#FFFFFF"/>
				<stop  offset="1" style="stop-color:#FFFFFF;stop-opacity:0"/>
			</linearGradient>
			<path fill="url(#SVGID_2_)" d="M28.897,45.328c11.08,0,20.061-8.979,20.061-20.061c0-0.909-0.066-1.804-0.184-2.68
				c-3.675-4.152-9.041-6.773-15.022-6.773c-11.08,0-20.061,8.981-20.061,20.062c0,0.909,0.066,1.804,0.183,2.681
				C17.55,42.709,22.916,45.328,28.897,45.328z"/>
		</g>
	</g>
	<g>
		<circle fill="#75B7D5" cx="79.571" cy="35.877" r="20.061"/>
		<circle fill="#5798C6" cx="79.571" cy="35.876" r="18.083"/>
		<g opacity="0.2">
			<path fill="#979797" d="M71.386,19.76l-7.919,7.921c-0.388,0.761-0.723,1.552-1.001,2.37l11.292-11.292
				C72.938,19.038,72.148,19.372,71.386,19.76z"/>
			<path fill="#979797" d="M75.585,18.243L61.951,31.877c-0.124,0.546-0.222,1.101-0.294,1.664l15.591-15.592
				C76.685,18.022,76.13,18.12,75.585,18.243z"/>
			<path fill="#979797" d="M79.584,17.794c-0.299,0-0.597,0.008-0.892,0.023L61.524,34.985c-0.015,0.295-0.022,0.593-0.022,0.892
				c0,0.163,0.007,0.324,0.013,0.487l18.556-18.557C79.908,17.802,79.746,17.794,79.584,17.794z"/>
			<path fill="#979797" d="M81.311,17.879L61.586,37.605c0.039,0.406,0.092,0.811,0.157,1.209l20.78-20.779
				C82.123,17.97,81.719,17.917,81.311,17.879z"/>
			<path fill="#979797" d="M83.617,18.252l-21.66,21.66c0.084,0.365,0.177,0.729,0.283,1.086l22.463-22.465
				C84.346,18.428,83.984,18.335,83.617,18.252z"/>
			<path fill="#979797" d="M85.695,18.855L62.564,41.988c0.119,0.332,0.246,0.66,0.385,0.984l23.73-23.731
				C86.356,19.102,86.027,18.974,85.695,18.855z"/>
			<path fill="#979797" d="M87.576,19.655L63.362,43.869c0.149,0.303,0.31,0.602,0.475,0.895L88.47,20.13
				C88.176,19.964,87.879,19.805,87.576,19.655z"/>
			<path fill="#979797" d="M89.289,20.623L64.33,45.582c0.177,0.277,0.361,0.551,0.552,0.816l25.223-25.223
				C89.839,20.983,89.566,20.8,89.289,20.623z"/>
			<path fill="#979797" d="M90.852,21.739L65.447,47.144c0.202,0.254,0.41,0.502,0.625,0.744l25.523-25.523
				C91.354,22.149,91.106,21.941,90.852,21.739z"/>
			<path fill="#979797" d="M92.274,22.999L66.706,48.566c0.227,0.23,0.459,0.455,0.697,0.674l25.543-25.545
				C92.728,23.456,92.504,23.224,92.274,22.999z"/>
			<path fill="#979797" d="M93.555,24.397l-25.45,25.452c0.251,0.205,0.508,0.404,0.77,0.598l25.277-25.278
				C93.96,24.907,93.762,24.648,93.555,24.397z"/>
			<path fill="#979797" d="M94.692,25.942L69.651,50.984c0.277,0.182,0.559,0.355,0.846,0.521l24.718-24.719
				C95.047,26.502,94.873,26.219,94.692,25.942z"/>
			<path fill="#979797" d="M95.678,27.636L71.344,51.972c0.304,0.154,0.612,0.303,0.927,0.441l23.85-23.852
				C95.981,28.249,95.833,27.94,95.678,27.636z"/>
			<path fill="#979797" d="M96.503,29.493L73.199,52.797c0.335,0.125,0.672,0.246,1.017,0.352l22.64-22.64
				C96.749,30.165,96.63,29.826,96.503,29.493z"/>
			<path fill="#979797" d="M97.138,31.538L75.245,53.431c0.372,0.092,0.75,0.17,1.13,0.238l21.001-21.001
				C97.309,32.288,97.23,31.91,97.138,31.538z"/>
			<path fill="#979797" d="M97.544,33.811L77.519,53.84c0.418,0.047,0.841,0.08,1.268,0.1L97.646,35.08
				C97.627,34.653,97.593,34.23,97.544,33.811z"/>
			<path fill="#979797" d="M97.653,36.385L80.091,53.945c0.493-0.014,0.983-0.043,1.466-0.096l16-16
				C97.61,37.367,97.639,36.878,97.653,36.385z"/>
			<path fill="#979797" d="M97.32,39.398L83.103,53.613c0.622-0.121,1.232-0.273,1.829-0.459L96.86,41.226
				C97.045,40.629,97.198,40.019,97.32,39.398z"/>
			<path fill="#979797" d="M94.076,46.691c0.771-1.033,1.432-2.154,1.972-3.342l-8.991,8.992c1.188-0.539,2.308-1.199,3.34-1.971
				L94.076,46.691z"/>
		</g>
		<path fill="#FFFFFF" d="M88.631,32.427c0.009,0.175,0.014,0.35,0.014,0.526c0,5.377-4.094,11.578-11.578,11.578
			c-2.298,0-4.437-0.674-6.238-1.828c0.318,0.037,0.643,0.057,0.97,0.057c1.906,0,3.662-0.65,5.055-1.742
			c-1.781-0.033-3.284-1.209-3.803-2.826c0.25,0.047,0.504,0.074,0.767,0.074c0.372,0,0.73-0.051,1.072-0.143
			c-1.863-0.373-3.265-2.019-3.265-3.99c0-0.018,0-0.034,0-0.052c0.549,0.306,1.177,0.487,1.843,0.509
			c-1.092-0.729-1.81-1.975-1.81-3.387c0-0.746,0.201-1.444,0.552-2.045c2.007,2.461,5.005,4.082,8.387,4.251
			c-0.07-0.299-0.106-0.607-0.106-0.927c0-2.246,1.823-4.068,4.071-4.068c1.17,0,2.227,0.493,2.969,1.284
			c0.929-0.183,1.798-0.521,2.585-0.988c-0.305,0.951-0.95,1.748-1.79,2.252c0.823-0.098,1.608-0.317,2.338-0.641
			C90.117,31.136,89.427,31.853,88.631,32.427z"/>
		<g opacity="0.5">
			
				<linearGradient id="SVGID_3_" gradientUnits="userSpaceOnUse" x1="89.0271" y1="60.1287" x2="105.0285" y2="34.9578" gradientTransform="matrix(1 0 0 -1 -20.8999 76.5151)">
				<stop  offset="0" style="stop-color:#FFFFFF"/>
				<stop  offset="1" style="stop-color:#FFFFFF;stop-opacity:0"/>
			</linearGradient>
			<path fill="url(#SVGID_3_)" d="M74.717,45.328c11.08,0,20.06-8.979,20.06-20.061c0-0.909-0.065-1.804-0.183-2.68
				c-3.675-4.152-9.041-6.773-15.023-6.773c-11.079,0-20.061,8.981-20.061,20.062c0,0.909,0.066,1.804,0.184,2.681
				C63.37,42.709,68.736,45.328,74.717,45.328z"/>
		</g>
	</g>
	<g>
		<circle fill="#DD7A77" cx="125.39" cy="35.876" r="20.061"/>
		<circle fill="#C83B30" cx="125.39" cy="35.876" r="18.083"/>
		<path fill="#C83B30" d="M130.559,40.006c-0.382,0.357-0.649,0.533-0.878,0.533c-0.154,0-0.237-0.09-0.263-0.266
			c-0.012-0.037-0.008-0.176-0.008-0.445v-4.721h-1.148v5.064c0,0.443-0.042,0.746,0.02,0.936c0.115,0.32,0.487,0.469,0.854,0.469
			c0.421,0,0.657-0.254,1.423-0.773v0.814h1.149v-6.51h-1.149L130.559,40.006L130.559,40.006z"/>
		<polygon fill="#C83B30" points="124.05,34.341 125.583,34.341 125.583,41.617 126.73,41.617 126.73,34.341 128.262,34.341 
			128.262,33.192 124.05,33.192 		"/>
		<g opacity="0.2">
			<path fill="#979797" d="M117.206,19.76l-7.919,7.921c-0.388,0.761-0.723,1.552-1.001,2.37l11.29-11.292
				C118.758,19.038,117.968,19.372,117.206,19.76z"/>
			<path fill="#979797" d="M121.405,18.243L107.77,31.877c-0.123,0.546-0.221,1.101-0.294,1.664l15.59-15.592
				C122.504,18.022,121.949,18.12,121.405,18.243z"/>
			<path fill="#979797" d="M125.404,17.794c-0.299,0-0.597,0.008-0.893,0.023l-17.167,17.167c-0.016,0.296-0.023,0.593-0.023,0.892
				c0,0.163,0.007,0.325,0.012,0.487l18.557-18.556C125.728,17.802,125.566,17.794,125.404,17.794z"/>
			<path fill="#979797" d="M127.131,17.879l-19.725,19.727c0.038,0.406,0.092,0.811,0.158,1.211l20.78-20.781
				C127.943,17.97,127.538,17.917,127.131,17.879z"/>
			<path fill="#979797" d="M129.438,18.252l-21.66,21.66c0.085,0.365,0.177,0.729,0.284,1.086l22.463-22.465
				C130.167,18.428,129.803,18.336,129.438,18.252z"/>
			<path fill="#979797" d="M131.513,18.855l-23.131,23.133c0.12,0.332,0.247,0.66,0.384,0.984l23.731-23.731
				C132.176,19.102,131.846,18.974,131.513,18.855z"/>
			<path fill="#979797" d="M133.395,19.656l-24.213,24.213c0.149,0.303,0.31,0.602,0.475,0.895l24.632-24.634
				C133.996,19.964,133.698,19.805,133.395,19.656z"/>
			<path fill="#979797" d="M135.108,20.623L110.15,45.582c0.177,0.277,0.361,0.549,0.552,0.816l25.223-25.224
				C135.658,20.983,135.385,20.8,135.108,20.623z"/>
			<path fill="#979797" d="M136.672,21.74l-25.405,25.404c0.202,0.254,0.411,0.502,0.625,0.744l25.523-25.523
				C137.174,22.149,136.926,21.941,136.672,21.74z"/>
			<path fill="#979797" d="M138.094,22.999l-25.569,25.567c0.228,0.232,0.459,0.457,0.698,0.674l25.544-25.545
				C138.549,23.456,138.324,23.224,138.094,22.999z"/>
			<path fill="#979797" d="M139.375,24.398l-25.45,25.451c0.251,0.207,0.508,0.404,0.77,0.598l25.276-25.278
				C139.779,24.907,139.582,24.648,139.375,24.398z"/>
			<path fill="#979797" d="M140.511,25.942L115.47,50.984c0.277,0.182,0.56,0.355,0.846,0.521l24.718-24.719
				C140.867,26.502,140.693,26.219,140.511,25.942z"/>
			<path fill="#979797" d="M141.498,27.636l-24.334,24.336c0.304,0.154,0.612,0.303,0.926,0.441l23.85-23.852
				C141.802,28.249,141.652,27.94,141.498,27.636z"/>
			<path fill="#979797" d="M142.321,29.493l-23.302,23.304c0.335,0.125,0.672,0.246,1.016,0.352l22.64-22.64
				C142.569,30.165,142.449,29.826,142.321,29.493z"/>
			<path fill="#979797" d="M142.958,31.538l-21.894,21.894c0.373,0.092,0.75,0.17,1.131,0.238l21.001-21.001
				C143.128,32.288,143.05,31.91,142.958,31.538z"/>
			<path fill="#979797" d="M143.365,33.811L123.337,53.84c0.42,0.047,0.843,0.08,1.27,0.1l18.858-18.859
				C143.446,34.653,143.413,34.23,143.365,33.811z"/>
			<path fill="#979797" d="M143.473,36.385l-17.562,17.563c0.493-0.014,0.981-0.045,1.465-0.098l16-15.998
				C143.428,37.367,143.459,36.878,143.473,36.385z"/>
			<path fill="#979797" d="M143.14,39.398l-14.217,14.217c0.622-0.123,1.232-0.275,1.829-0.461l11.927-11.928
				C142.864,40.629,143.016,40.019,143.14,39.398z"/>
			<path fill="#979797" d="M139.895,46.691c0.772-1.033,1.432-2.154,1.972-3.342l-8.99,8.992c1.187-0.539,2.308-1.199,3.34-1.971
				L139.895,46.691z"/>
		</g>
		<g opacity="0.5">
			
				<linearGradient id="SVGID_4_" gradientUnits="userSpaceOnUse" x1="134.8455" y1="60.1287" x2="150.8473" y2="34.9571" gradientTransform="matrix(1 0 0 -1 -20.8999 76.5151)">
				<stop  offset="0" style="stop-color:#FFFFFF"/>
				<stop  offset="1" style="stop-color:#FFFFFF;stop-opacity:0"/>
			</linearGradient>
			<path fill="url(#SVGID_4_)" d="M120.537,45.328c11.079,0,20.061-8.979,20.061-20.061c0-0.909-0.067-1.804-0.186-2.68
				c-3.675-4.152-9.04-6.773-15.022-6.773c-11.079,0-20.061,8.981-20.061,20.062c0,0.909,0.067,1.804,0.183,2.681
				C109.189,42.709,114.554,45.328,120.537,45.328z"/>
		</g>
		<g>
			<path fill="#FFFFFF" d="M125.979,28.722c0.161,0.1,0.34,0.244,0.539,0.435c0.192,0.197,0.38,0.444,0.563,0.731
				c0.177,0.273,0.333,0.595,0.469,0.968c0.111,0.371,0.166,0.807,0.166,1.302c-0.014,0.91-0.215,1.638-0.603,2.183
				c-0.188,0.265-0.39,0.509-0.601,0.732c-0.236,0.222-0.486,0.451-0.75,0.683c-0.153,0.156-0.292,0.334-0.42,0.533
				c-0.152,0.206-0.228,0.445-0.228,0.718c0,0.267,0.078,0.485,0.234,0.659c0.131,0.164,0.258,0.309,0.384,0.434l0.861,0.707
				c0.536,0.439,1.006,0.92,1.411,1.449c0.38,0.539,0.578,1.24,0.595,2.109c0,1.23-0.545,2.322-1.632,3.273
				c-1.127,0.984-2.757,1.492-4.883,1.525c-1.782-0.016-3.112-0.396-3.989-1.137c-0.886-0.695-1.329-1.523-1.329-2.49
				c0-0.469,0.144-0.994,0.433-1.572c0.279-0.576,0.786-1.086,1.52-1.521c0.822-0.469,1.688-0.785,2.594-0.941
				c0.898-0.131,1.644-0.207,2.237-0.223c-0.184-0.24-0.347-0.5-0.492-0.773c-0.166-0.266-0.25-0.586-0.25-0.959
				c0-0.225,0.031-0.414,0.095-0.563c0.055-0.158,0.108-0.303,0.154-0.437c-0.287,0.033-0.561,0.05-0.816,0.05
				c-1.354-0.017-2.385-0.443-3.095-1.277c-0.743-0.778-1.115-1.684-1.115-2.717c0-1.249,0.526-2.38,1.58-3.399
				c0.722-0.595,1.473-0.982,2.251-1.165c0.771-0.156,1.495-0.235,2.169-0.235h5.084l-1.57,0.917h-1.568V28.722z M126.962,43.359
				c0-0.645-0.21-1.207-0.631-1.688c-0.446-0.453-1.141-1.012-2.089-1.674c-0.162-0.018-0.352-0.025-0.57-0.025
				c-0.13-0.016-0.463,0-0.997,0.049c-0.525,0.074-1.063,0.195-1.616,0.359c-0.129,0.051-0.311,0.125-0.545,0.225
				c-0.235,0.105-0.473,0.26-0.717,0.459c-0.236,0.207-0.433,0.463-0.596,0.77c-0.186,0.322-0.277,0.711-0.277,1.166
				c0,0.893,0.403,1.629,1.211,2.207c0.77,0.58,1.822,0.877,3.158,0.895c1.198-0.018,2.113-0.283,2.744-0.795
				C126.654,44.802,126.962,44.152,126.962,43.359 M123.416,35.906c0.671-0.024,1.228-0.266,1.674-0.722
				c0.215-0.323,0.354-0.654,0.415-0.994c0.037-0.34,0.057-0.625,0.057-0.857c0-1.002-0.257-2.014-0.771-3.032
				c-0.241-0.488-0.556-0.886-0.949-1.192c-0.401-0.29-0.861-0.443-1.382-0.46c-0.689,0.017-1.262,0.295-1.719,0.833
				c-0.385,0.564-0.57,1.193-0.553,1.89c0,0.919,0.269,1.875,0.806,2.87c0.262,0.464,0.597,0.856,1.01,1.18
				C122.416,35.744,122.887,35.906,123.416,35.906"/>
			<polygon fill="#FFFFFF" points="136.006,30.584 133.338,30.584 133.338,27.914 132.045,27.914 132.045,30.584 129.379,30.584 
				129.379,31.876 132.045,31.876 132.045,34.543 133.338,34.543 133.338,31.876 136.006,31.876 			"/>
		</g>
	</g>
	<g>
		<circle fill="#C3DB5E" cx="217.03" cy="35.877" r="20.061"/>
		<circle fill="#92AB3B" cx="217.03" cy="35.876" r="18.083"/>
		<g opacity="0.2">
			<path fill="#979797" d="M208.846,19.76l-7.92,7.921c-0.387,0.761-0.723,1.552-1,2.37l11.291-11.292
				C210.399,19.038,209.606,19.372,208.846,19.76z"/>
			<path fill="#979797" d="M213.043,18.243l-13.635,13.634c-0.121,0.546-0.221,1.101-0.293,1.664l15.592-15.592
				C214.145,18.022,213.588,18.12,213.043,18.243z"/>
			<path fill="#979797" d="M217.041,17.794c-0.299,0-0.596,0.008-0.891,0.023l-17.168,17.167c-0.016,0.296-0.021,0.593-0.021,0.892
				c0,0.163,0.008,0.325,0.012,0.487l18.557-18.556C217.367,17.802,217.205,17.794,217.041,17.794z"/>
			<path fill="#979797" d="M218.77,17.879l-19.727,19.727c0.041,0.406,0.094,0.811,0.158,1.211l20.779-20.781
				C219.58,17.97,219.178,17.917,218.77,17.879z"/>
			<path fill="#979797" d="M221.078,18.252l-21.66,21.66c0.084,0.365,0.178,0.729,0.283,1.086l22.463-22.465
				C221.807,18.428,221.444,18.336,221.078,18.252z"/>
			<path fill="#979797" d="M223.153,18.855l-23.131,23.133c0.119,0.332,0.248,0.66,0.385,0.984l23.73-23.731
				C223.815,19.102,223.487,18.974,223.153,18.855z"/>
			<path fill="#979797" d="M225.033,19.656l-24.213,24.213c0.15,0.303,0.309,0.602,0.477,0.895l24.631-24.634
				C225.635,19.964,225.338,19.805,225.033,19.656z"/>
			<path fill="#979797" d="M226.748,20.623l-24.959,24.959c0.176,0.277,0.361,0.549,0.553,0.816l25.223-25.224
				C227.299,20.983,227.026,20.8,226.748,20.623z"/>
			<path fill="#979797" d="M228.311,21.74l-25.404,25.404c0.201,0.254,0.41,0.502,0.625,0.744l25.523-25.523
				C228.813,22.149,228.565,21.941,228.311,21.74z"/>
			<path fill="#979797" d="M229.733,22.999l-25.568,25.567c0.227,0.232,0.457,0.457,0.697,0.674l25.543-25.545
				C230.188,23.456,229.963,23.224,229.733,22.999z"/>
			<path fill="#979797" d="M231.014,24.398l-25.449,25.451c0.25,0.207,0.51,0.404,0.771,0.598l25.275-25.278
				C231.42,24.907,231.221,24.648,231.014,24.398z"/>
			<path fill="#979797" d="M232.149,25.942L207.11,50.984c0.275,0.182,0.559,0.355,0.846,0.521l24.719-24.719
				C232.506,26.502,232.332,26.219,232.149,25.942z"/>
			<path fill="#979797" d="M233.135,27.636l-24.332,24.336c0.305,0.154,0.613,0.303,0.926,0.441l23.85-23.852
				C233.442,28.249,233.293,27.94,233.135,27.636z"/>
			<path fill="#979797" d="M233.961,29.493l-23.303,23.304c0.334,0.125,0.672,0.246,1.018,0.352l22.639-22.64
				C234.207,30.165,234.088,29.826,233.961,29.493z"/>
			<path fill="#979797" d="M234.596,31.538l-21.893,21.894c0.373,0.092,0.75,0.17,1.131,0.238l21-21.001
				C234.768,32.288,234.688,31.91,234.596,31.538z"/>
			<path fill="#979797" d="M235.004,33.811L214.977,53.84c0.42,0.047,0.842,0.08,1.27,0.1l18.857-18.859
				C235.086,34.653,235.051,34.23,235.004,33.811z"/>
			<path fill="#979797" d="M235.114,36.385l-17.564,17.563c0.494-0.014,0.982-0.045,1.467-0.098l16-15.998
				C235.069,37.367,235.098,36.878,235.114,36.385z"/>
			<path fill="#979797" d="M234.78,39.398l-14.217,14.217c0.621-0.123,1.232-0.275,1.83-0.461l11.926-11.928
				C234.504,40.629,234.656,40.019,234.78,39.398z"/>
			<path fill="#979797" d="M231.535,46.691c0.773-1.033,1.432-2.154,1.971-3.342l-8.988,8.992c1.186-0.539,2.307-1.199,3.34-1.971
				L231.535,46.691z"/>
		</g>
		<g opacity="0.5">
			
				<linearGradient id="SVGID_5_" gradientUnits="userSpaceOnUse" x1="226.4836" y1="60.1287" x2="242.485" y2="34.9578" gradientTransform="matrix(1 0 0 -1 -20.8999 76.5151)">
				<stop  offset="0" style="stop-color:#FFFFFF"/>
				<stop  offset="1" style="stop-color:#FFFFFF;stop-opacity:0"/>
			</linearGradient>
			<path fill="url(#SVGID_5_)" d="M212.174,45.328c11.08,0,20.061-8.979,20.061-20.061c0-0.909-0.064-1.804-0.184-2.68
				c-3.674-4.152-9.041-6.773-15.021-6.773c-11.078,0-20.061,8.981-20.061,20.062c0,0.909,0.066,1.804,0.184,2.681
				C200.828,42.709,206.194,45.328,212.174,45.328z"/>
		</g>
		<g>
			<path id="WhatsApp" fill="#FFFFFF" d="M228.735,35.782c0,5.854-4.785,10.603-10.686,10.603c-1.873,0-3.635-0.479-5.166-1.32
				l-5.914,1.881l1.928-5.688c-0.973-1.598-1.533-3.473-1.533-5.476c0-5.854,4.783-10.603,10.686-10.603
				S228.735,29.927,228.735,35.782z M218.049,26.867c-4.953,0-8.984,3.999-8.984,8.914c0,1.951,0.637,3.756,1.713,5.227
				l-1.123,3.311l3.453-1.098c1.418,0.932,3.117,1.475,4.941,1.475c4.953,0,8.982-3.998,8.982-8.912
				C227.031,30.867,223.002,26.867,218.049,26.867z M223.446,38.224c-0.066-0.107-0.24-0.174-0.502-0.305
				c-0.264-0.129-1.551-0.758-1.791-0.844c-0.24-0.088-0.414-0.132-0.59,0.129c-0.172,0.26-0.674,0.846-0.828,1.02
				c-0.154,0.172-0.307,0.195-0.568,0.064c-0.26-0.129-1.104-0.404-2.105-1.29c-0.777-0.688-1.303-1.539-1.455-1.8
				c-0.154-0.26-0.018-0.4,0.113-0.53c0.117-0.115,0.262-0.302,0.395-0.454c0.131-0.152,0.174-0.26,0.26-0.433
				c0.088-0.174,0.045-0.326-0.021-0.457c-0.064-0.13-0.588-1.408-0.809-1.928c-0.217-0.521-0.434-0.435-0.588-0.435
				c-0.152,0-0.326-0.021-0.5-0.021c-0.176,0-0.461,0.064-0.701,0.324c-0.238,0.261-0.914,0.89-0.914,2.168
				c0,1.279,0.938,2.515,1.066,2.688c0.133,0.173,1.813,2.882,4.475,3.923s2.662,0.693,3.145,0.65
				c0.48-0.045,1.549-0.629,1.77-1.236C223.51,38.853,223.51,38.332,223.446,38.224z"/>
		</g>
	</g>
</g>
</svg>
