<?xml version="1.0" encoding="utf-8"?>
<!-- Generator: Adobe Illustrator 16.0.0, SVG Export Plug-In . SVG Version: 6.00 Build 0)  -->
<!DOCTYPE svg PUBLIC "-//W3C//DTD SVG 1.1//EN" "http://www.w3.org/Graphics/SVG/1.1/DTD/svg11.dtd">
<svg version="1.1" xmlns="http://www.w3.org/2000/svg" xmlns:xlink="http://www.w3.org/1999/xlink" x="0px" y="0px" width="93.28px"
	 height="149.64px" viewBox="0 0 93.28 149.64" enable-background="new 0 0 93.28 149.64" xml:space="preserve">
<g id="Soporte">
</g>
<g id="Vectores">
</g>
<g id="Publicidad">
</g>
<g id="Imagenes">
</g>
<g id="Cintillos">
	<g>
		<path fill-rule="evenodd" clip-rule="evenodd" fill="#303030" d="M13.837,2.979l28.332,9.799c0,0,4.023,1.861,2.438,6.445
			c-1.585,4.58-4.231,16.956-3.383,21.919c0,0,0.938,3.358-4.806,5.804C30.674,49.394,4.736,62.348,4.736,62.348
			s-7.06-23.435,3.479-55.25C8.215,7.098,9.319,1.884,13.837,2.979z"/>
		<path fill-rule="evenodd" clip-rule="evenodd" fill="#303030" d="M81.055,145.339l10.461-28.094c0,0,1.127-4.289-3.424-5.98
			c-4.544-1.688-15.779-7.521-19.069-11.328c0,0-1.99-2.863-7.529,0.013c-5.544,2.878-32.036,14.659-32.036,14.659
			s13.598,20.35,44.845,32.454C74.302,147.063,79.028,149.524,81.055,145.339z"/>
		<path fill-rule="evenodd" clip-rule="evenodd" fill="#303030" d="M5.127,64.582c0,0,4.365,25.144,23.02,48.079l17.752-8.164
			c0,0-16.357-16.543-23.255-47.854L5.127,64.582z"/>
	</g>
</g>
<g id="Botones">
</g>
<g id="Logos">
</g>
<g id="TXT">
</g>
<g id="Guias">
</g>
</svg>
