<?xml version="1.0" encoding="utf-8"?>
<!-- Generator: Adobe Illustrator 16.0.0, SVG Export Plug-In . SVG Version: 6.00 Build 0)  -->
<!DOCTYPE svg PUBLIC "-//W3C//DTD SVG 1.1//EN" "http://www.w3.org/Graphics/SVG/1.1/DTD/svg11.dtd">
<svg version="1.1" xmlns="http://www.w3.org/2000/svg" xmlns:xlink="http://www.w3.org/1999/xlink" x="0px" y="0px"
	 width="26.511px" height="26.088px" viewBox="0 0 26.511 26.088" enable-background="new 0 0 26.511 26.088" xml:space="preserve">
<g id="Vectores">
</g>
<g id="Imagenes">
</g>
<g id="Cintillos">
</g>
<g id="BOtones">
</g>
<g id="Logos">
</g>
<g id="Igonos">
</g>
<g id="TXT">
	<g>
		
			<path fill="none" stroke="#303030" stroke-width="0.35" stroke-linecap="round" stroke-linejoin="round" stroke-miterlimit="10" d="
			M23.569,14.166c1.347-1.626,1.901-3.35,1.901-5.273c0-4.188-3.396-7.715-7.583-7.715c-1.244,0-2.416,0.24-3.452,0.772
			c-1.036-0.532-2.208-0.87-3.453-0.87c-4.187,0-7.581,3.379-7.581,7.565c0,1.924,0.693,3.689,1.901,5.003
			c2.239,2.434,9.153,9.551,9.153,9.551S21.523,16.637,23.569,14.166z"/>
		
			<path fill="none" stroke="#303030" stroke-width="0.35" stroke-linecap="round" stroke-linejoin="round" stroke-miterlimit="10" d="
			M9.925,1.142C9.132,1.238,8.108,1.384,7.503,1.564C6.886,1.75,6.329,2.055,5.778,2.4c-1.562,0.98-3.193,2.188-4,3.888
			C1.093,7.735,0.483,9.8,1.091,11.361c0.667,1.721,1.678,3.213,2.808,4.664c1.101,1.414,2.431,2.721,3.901,3.808
			c1.172,0.867,2.281,1.76,3.37,2.708c0.808,0.701,1.8,1.652,2.711,2.206c0.776,0.472,1.752-1.005,2.196-1.577
			c0.856-1.104,3.541-4.089,3.99-4.61c0.39-0.453,2.813-3.146,3.196-4.011"/>
		
			<path fill="none" stroke="#303030" stroke-width="0.35" stroke-linecap="round" stroke-linejoin="round" stroke-miterlimit="10" d="
			M7.503,1.8C7.045,1.761,6.251,2.185,5.837,2.385C6.104,2.38,6.45,2.426,6.662,2.318C6.397,2.337,6.142,2.612,5.917,2.741
			C5.615,2.913,5.267,2.9,4.964,3.047c0.012,0.018,0.018,0.038,0.018,0.061c-0.09-0.002-0.15,0.047-0.248,0.047
			C4.72,3.191,4.706,3.251,4.699,3.286C4.913,3.348,5.147,3.38,5.38,3.376C4.995,3.443,4.343,3.401,4.041,3.615
			C4.32,3.777,4.736,3.684,5.054,3.701c-0.002,0.018-0.004,0.082,0,0.099C4.769,3.928,4.485,3.892,4.185,3.951
			c-0.311,0.06-0.615,0.197-0.919,0.294c0.313-0.01,0.813,0.001,1.2-0.003c-0.331,0.097-0.649,0.34-0.983,0.467
			c-0.374,0.144-0.829,0.19-1.165,0.337c0.337,0.171,1.401,0.062,1.785-0.069c0.017,0.038,0.02,0.134,0.014,0.173
			c0.032,0.029,0.058-0.015,0.072,0.04C3.93,5.522,3.289,5.528,2.888,5.672C2.521,5.805,1.865,5.979,1.587,6.251
			c0.56,0.329,1.45,0.088,2.075,0.071C3.504,6.348,3.312,6.556,3.161,6.658c-0.266,0.18-0.513,0.298-0.811,0.438
			C1.976,7.271,1.607,7.522,1.269,7.664c0.673,0.031,1.335,0.201,2.037,0.146C2.961,7.691,2.129,8.425,1.772,8.615
			c-0.268,0.142-0.596,0.23-0.833,0.418c0.317,0.211,0.894,0.149,1.274,0.107C2.542,9.104,3.068,9.13,3.343,8.994
			C3.124,9.028,3.074,9.211,2.91,9.34c-0.39,0.307-0.933,0.423-1.365,0.635c-0.251,0.123-0.719,0.362-0.677,0.684
			c0.884,0.047,1.633-0.614,2.5-0.499c-0.303,0.25-0.748,0.456-1.08,0.679c-0.359,0.241-0.915,0.337-0.922,0.812
			c-0.003,0.244-0.09,0.211,0.189,0.293c0.251,0.073,0.64-0.003,0.877-0.083c0.344-0.115,0.941-0.335,1.174-0.568
			c0.037-0.014,0.071,0.003,0.108-0.006c-0.092,0.072-0.253,0.339-0.407,0.468c-0.175,0.146-0.436,0.236-0.604,0.408
			c-0.14,0.143-0.197,0.271-0.334,0.411c-0.081,0.083-0.354,0.245-0.377,0.352c-0.14,0.645,0.85,0.185,1.054,0.074
			c0.383-0.205,0.835-0.573,1.277-0.54c0.009,0.401-0.58,0.805-0.833,1.079c-0.241,0.262-0.69,0.576-0.835,0.879
			c1.107,0.282,1.405-1.028,2.399-0.974c-0.146,0.445-0.656,0.825-0.952,1.199c-0.284,0.36-0.418,0.679-0.461,1.124
			c0.504-0.061,1.065-0.479,1.52-0.716c0.237-0.124,0.697-0.512,0.951-0.513c0.097,0.462-0.594,0.85-0.834,1.198
			c-0.149,0.22-0.606,0.739-0.557,1.021c0.087,0.479,0.939-0.358,1.185-0.547c0.296-0.228,0.821-0.648,1.227-0.579
			c0.105,0.482-0.644,0.923-0.941,1.197c-0.365,0.336-0.578,0.695-0.507,1.201c0.229,0.066,0.372-0.108,0.506-0.251
			c0.256-0.273,0.492-0.426,0.805-0.626c0.309-0.199,0.627-0.459,0.941-0.608c0.094,0.385-0.486,0.898-0.679,1.207
			c-0.271,0.437-0.244,0.847-0.37,1.299c0.349,0.035,0.795-0.735,1.088-0.916c0.201-0.124,0.419-0.189,0.595-0.348
			c0.104-0.094,0.163-0.228,0.312-0.295c-0.11,0.81-1.354,1.113-1.409,1.961C8.41,19.6,8.851,18.52,9.661,18.324
			c-0.238,0.154-0.549,0.684-0.816,0.942c-0.125,0.12-0.746,0.593-0.542,0.805c0.247,0.258,1.848-0.71,2.186-0.792
			c-0.024,0.67-1.311,0.852-1.265,1.485c0.839,0.038,1.333-0.619,2.025-0.755c-0.261,0.242-1.31,1.136-0.966,1.592
			c0.225,0.298,1.509-0.635,1.775-0.829c0.101,0.707-0.653,1.202-0.747,1.86c0.301,0.036,0.879-0.725,1.013-0.945
			c0.173-0.033,0.292-0.129,0.458-0.152c-0.234,0.105-0.458,0.573-0.589,0.803c-0.153,0.271-0.225,0.512-0.197,0.834
			c0.213,0.011,0.432-0.291,0.571-0.441c0.158-0.172,0.525-0.411,0.597-0.643c0.046-0.001,0.089-0.002,0.134,0.001
			c-0.006,0.576-0.808,1.015-0.755,1.631c0.629-0.008,0.76-0.97,1.296-1.202c-0.363,0.436-0.757,1.123-0.712,1.713
			c0.367,0,0.719-1.138,0.975-1.368c-0.093,0.422-0.813,1.508-0.396,1.925c0.364-0.33,0.524-1.182,0.621-1.635
			C14.327,23.74,14.17,24.448,14.26,25c0.448-0.539,0.398-1.216,0.394-1.924c0.114,0.517-0.019,1.008,0.295,1.438
			c-0.011-0.466-0.155-1.34,0.107-1.706c0.202,0.285,0.268,0.809,0.261,1.167c0.047,0.004,0.088,0.004,0.135,0.001
			c0.099-0.299,0.011-1.909,0.292-1.924c0.093,0.406,0.096,0.866,0.188,1.239c0.123-0.332-0.13-1.527,0.286-1.645
			c0.017,0.275-0.067,1.176,0.227,1.28c0.119-0.337-0.259-1.703,0.211-1.788c0.021,0.346-0.085,0.965,0.181,1.195
			c-0.019-0.262,0.082-0.487,0.081-0.762c-0.001-0.262-0.066-0.593,0.147-0.771c0.163,0.256,0.077,0.787,0.144,1.067
			c0.185-0.374-0.116-1.025,0.103-1.39c0.013,0.17,0.049,1.323,0.338,0.764c0.043-0.085-0.018-0.269-0.004-0.366
			c0.023-0.17,0.109-0.313,0.176-0.475c0.079-0.189,0.167-0.374,0.229-0.57c-0.004,0.263-0.103,0.822,0.109,0.981
			c0.08-0.227,0.034-0.512,0.114-0.736c0.073-0.204,0.189-0.415,0.287-0.61c-0.023,0.223,0.014,0.578,0.173,0.719
			c0.032-0.491-0.091-0.816,0.273-1.164c0.069,0.147,0.063,0.306,0.104,0.469c0.172-0.174-0.01-0.58,0.13-0.815
			c0.071,0.126,0.112,0.306,0.229,0.387c0.092-0.153,0.12-0.378,0.203-0.534c0.137-0.255,0.087-0.158,0.28-0.213
			c0.05-0.014,0.102,0.125,0.212,0.078c0.121-0.051,0.102-0.279,0.143-0.363c0.078-0.16,0.17-0.271,0.254-0.431
			c0.032,0.042,0.119,0.089,0.148,0.149c0.057-0.133,0.032-0.343,0.042-0.513c0.305,0.121,0.405-0.216,0.438-0.474
			c0.098-0.006,0.227-0.025,0.323-0.005"/>
	</g>
</g>
<g id="Guias">
</g>
</svg>
