<?xml version="1.0" encoding="utf-8"?>
<!-- Generator: Adobe Illustrator 16.0.0, SVG Export Plug-In . SVG Version: 6.00 Build 0)  -->
<!DOCTYPE svg PUBLIC "-//W3C//DTD SVG 1.1//EN" "http://www.w3.org/Graphics/SVG/1.1/DTD/svg11.dtd">
<svg version="1.1" xmlns="http://www.w3.org/2000/svg" xmlns:xlink="http://www.w3.org/1999/xlink" x="0px" y="0px"
	 width="48.158px" height="48.5px" viewBox="0 0 48.158 48.5" enable-background="new 0 0 48.158 48.5" xml:space="preserve">
<g id="Soporte">
</g>
<g id="Vectores">
	<g>
		<path d="M34.722,23.641l-7.467-0.321c-0.36-0.819-1.05-1.458-1.902-1.753l-0.266-10.827c0,0-0.225-1.353-1.295-1.353
			s-1.127,1.353-1.127,1.353l-0.335,11.321c-0.767,0.591-1.262,1.515-1.262,2.557c0,1.784,1.446,3.23,3.23,3.23
			c1.157,0,2.169-0.609,2.739-1.524l7.74-0.315c0,0,1.239-0.057,1.239-1.24S34.722,23.641,34.722,23.641z"/>
		<g>
			<path d="M24.299,47.529c-12.675,0-22.987-10.312-22.987-22.987c0-12.675,10.313-22.986,22.987-22.986
				s22.986,10.312,22.986,22.986C47.286,37.218,36.974,47.529,24.299,47.529z M24.299,6.514c-9.941,0-18.029,8.088-18.029,18.028
				c0,9.942,8.088,18.029,18.029,18.029s18.029-8.087,18.029-18.029C42.329,14.602,34.241,6.514,24.299,6.514z"/>
		</g>
	</g>
</g>
<g id="Publicidad">
</g>
<g id="Imagenes">
</g>
<g id="Cintillos">
</g>
<g id="Logos">
</g>
<g id="Botones">
</g>
<g id="TXT">
</g>
<g id="Guias">
</g>
</svg>
