<?xml version="1.0" encoding="utf-8"?>
<!-- Generator: Adobe Illustrator 16.0.0, SVG Export Plug-In . SVG Version: 6.00 Build 0)  -->
<!DOCTYPE svg PUBLIC "-//W3C//DTD SVG 1.1//EN" "http://www.w3.org/Graphics/SVG/1.1/DTD/svg11.dtd">
<svg version="1.1" xmlns="http://www.w3.org/2000/svg" xmlns:xlink="http://www.w3.org/1999/xlink" x="0px" y="0px" width="31px"
	 height="44.333px" viewBox="0 0 31 44.333" enable-background="new 0 0 31 44.333" xml:space="preserve">
<g id="Vectores">
</g>
<g id="Imagenes">
</g>
<g id="Cintillos">
</g>
<g id="BOtones">
</g>
<g id="Logos">
</g>
<g id="Igonos">
	<g>
		<path fill="none" stroke="#F7931E" stroke-miterlimit="10" d="M27.926,11.719C26.68,5.374,20.881,1.278,14.829,1.946
			c-3.807,0.418-6.813,2.213-8.874,5.416c-2.207,3.434-2.708,7.09-0.834,10.857c0.772,1.557,1.657,3.053,2.542,4.547
			c1.442,2.438,2.927,5.358,4.389,7.784c0.077,0.125,0.989,2.773,1.131,3.119c0.768,1.879,1.268,4.164,1.355,6.164
			c1.024,0,1.988,0,2.971,0c0.087,0,0.1-2.258,0.278-2.963c0.328-1.289,0.742-2.456,1.155-3.722
			c0.047-0.146,0.993-2.478,1.071-2.616c0.854-1.496,1.698-3.261,2.571-4.741c1.407-2.404,2.879-4.899,4.239-7.331
			C27.973,16.412,28.39,14.079,27.926,11.719z M15.996,18.903c-2.713-0.063-4.935-2.252-4.927-4.979
			c0.007-2.752,2.223-4.953,4.987-4.953c2.76,0.002,4.963,2.213,4.972,4.965C21.037,16.784,18.569,18.965,15.996,18.903z"/>
		<path fill="none" stroke="#F7931E" stroke-miterlimit="10" d="M4.372,10.741c-2.207,3.434-2.541,7.127-0.667,10.895
			c0.772,1.557,1.657,3.053,2.542,4.547c1.442,2.438,2.584,5.316,4.046,7.742c0.077,0.125,1.275,2.63,1.417,2.976
			c0.768,1.879,0.995,3.934,1.083,5.934c1.024,0,2.317,0,3.3,0c0.087,0,0.1-2.05,0.278-2.755"/>
		<path fill="none" stroke="#F7931E" stroke-width="0.5" stroke-linejoin="round" stroke-miterlimit="10" d="M3.668,13.674
			c-0.231,0.659-1.119,0.85-1.077,1.701c0.639,0.11,0.78-0.399,1.235-0.741c0.007,0.441-0.613,0.952-0.834,1.342
			c-0.193,0.341-0.396,0.657-0.359,1.067c0.627-0.097,0.61-1.444,1.446-1.283c-0.067,0.563-0.769,1.02-0.942,1.591
			c-0.095,0.313-0.075,0.638-0.162,0.941c0.536,0.119,0.762-0.616,1.006-0.962c0.311-0.442,0.552-0.417,0.365,0.185
			c-0.168,0.543-0.521,0.998-0.647,1.568c-0.078,0.354-0.114,0.749-0.183,1.086c0.843,0.041,0.9-1.738,1.604-1.531
			c0.06,1.108-1.255,2.021-1.022,3.238c0.765,0.208,0.983-0.977,1.32-1.36c0.192-0.22,0.379-0.224,0.577-0.337
			c0.196,1.223-1.189,2.048-1.02,3.323c0.256-0.054,0.294-0.398,0.409-0.604c0.146-0.26,0.355-0.501,0.573-0.694
			c0.284-0.251,0.525-0.38,0.827-0.524c0.069,1.118-0.867,1.937-1.177,2.906c0.305-0.045,0.757-0.955,1.099-1.203
			c0.23-0.167,0.49-0.231,0.714-0.402c-0.001,0.647-0.2,1.088-0.552,1.608c-0.231,0.343-0.563,0.671-0.529,1.124
			c0.804-0.23,1.375-1.056,2.115-1.412c-0.027,0.539-0.486,1.215-0.826,1.626c-0.247,0.297-0.703,0.492-0.833,0.864
			c0.782,0.07,1.361-1.359,2.074-1.237c0.042,0.89-1.078,1.782-1.446,2.489c0.905,0.183,1.389-1.201,2.154-1.197
			c0.065,0.552-0.384,1.174-0.732,1.578c-0.226,0.264-0.595,0.435-0.717,0.705c0.435-0.207,0.859-0.49,1.302-0.693
			c0.137-0.063,0.73-0.42,0.862-0.388c0.584,0.146-1.765,1.763-1.746,2.077c0.972,0.285,1.57-0.598,2.365-0.821
			c0.096,0.739-0.321,0.978-0.913,1.415c-0.354,0.264-0.802,0.467-0.741,0.991c0.972,0.037,1.457-0.927,2.331-1.188
			c-0.141,0.931-1.355,1.294-1.666,2.063c0.954,0.288,1.765-0.908,2.657-1.073c-0.036,0.439-0.77,1.124-1.07,1.447
			c-0.242,0.26-0.612,0.579-0.756,0.875c0.895,0.067,1.409-0.715,2.055-0.95c-0.258,0.573-0.685,1.04-1.05,1.54
			c-0.236,0.323-0.565,0.607-0.748,0.953c0.902,0.143,1.449-0.899,2.276-0.861c-0.056,0.266-0.462,0.561-0.643,0.775
			c-0.162,0.192-0.302,0.495-0.552,0.556c-0.097,0.11-0.44,0.283-0.425,0.453c0.026,0.267,0.397,0.252,0.62,0.2
			c0.516-0.118,0.801-0.657,1.332-0.611c0.044,0.67-1.34,1.066-1.532,1.662c0.672,0.335,1.188-0.328,1.824-0.202
			c-0.141,0.703-1.322,0.874-1.45,1.62c0.371,0.143,0.642,0.057,0.987-0.043c0.395-0.113,0.855-0.187,1.289-0.171
			c-0.375,0.248-0.702,0.578-1.068,0.837c-0.313,0.223-0.772,0.377-0.948,0.701c0.662,0.113,1.147-0.634,1.735-0.762
			c-0.456,0.381-1.539,1.359-1.658,2.012c0.764,0.176,1.333-0.813,1.779-1.168c0.002-0.064,0.003-0.129,0-0.195
			c-0.294,0.193-0.534,0.919-0.702,1.287c-0.175,0.384-0.18,0.854-0.16,1.284c0.518,0.09,0.92-0.969,1.075-1.31
			c0.181-0.397,0.445-0.874,0.494-1.305c-0.211,0.525-0.261,1.18-0.44,1.739c-0.069,0.216-0.179,0.491-0.171,0.708
			c0.632-0.025,0.624-1.728,0.871-2.143c-0.041,0.502-0.179,0.979-0.21,1.474c-0.007,0.11,0,0.592,0,0.468"/>
	</g>
</g>
<g id="TXT">
</g>
<g id="Guias">
</g>
</svg>
