<?xml version="1.0" encoding="utf-8"?>
<!-- Generator: Adobe Illustrator 16.0.0, SVG Export Plug-In . SVG Version: 6.00 Build 0)  -->
<!DOCTYPE svg PUBLIC "-//W3C//DTD SVG 1.1//EN" "http://www.w3.org/Graphics/SVG/1.1/DTD/svg11.dtd">
<svg version="1.1" xmlns="http://www.w3.org/2000/svg" xmlns:xlink="http://www.w3.org/1999/xlink" x="0px" y="0px"
	 width="34.238px" height="37.83px" viewBox="0 0 34.238 37.83" enable-background="new 0 0 34.238 37.83" xml:space="preserve">
<g id="Vectores">
</g>
<g id="Imagenes">
</g>
<g id="Cintillos">
</g>
<g id="BOtones">
</g>
<g id="Logos">
</g>
<g id="Igonos">
	<g>
		<text transform="matrix(1 0 0 1 5.8193 73.7578)" fill="#303030" font-family="'TradizionalDEMO-Regular'" font-size="49.561">+</text>
	</g>
	<g>
		<g>
			<polygon fill="none" stroke="#F7931E" stroke-width="0.5" stroke-miterlimit="10" points="16.57,29.105 8.98,23.685 
				11.087,20.734 15.167,23.651 20.237,13.089 23.504,14.657 			"/>
		</g>
		<g>
			<path fill="none" stroke="#F7931E" stroke-miterlimit="10" d="M10.464,8.912c-0.698,0-1.286-0.401-1.286-0.899V2.622
				c0-0.496,0.588-0.899,1.286-0.899c0.696,0,1.284,0.403,1.284,0.899v5.391C11.748,8.511,11.16,8.912,10.464,8.912z"/>
		</g>
		<g>
			<path fill="none" stroke="#F7931E" stroke-miterlimit="10" d="M25.879,8.912c-0.696,0-1.283-0.401-1.283-0.899V2.622
				c0-0.496,0.587-0.899,1.283-0.899c0.698,0,1.285,0.403,1.285,0.899v5.391C27.164,8.511,26.577,8.912,25.879,8.912z"/>
		</g>
		<path fill="none" stroke="#F7931E" stroke-miterlimit="10" d="M9.03,4.772H7.077c-1.552,0-3.038,0.97-3.038,2.545v22.837
			c0,1.577,1.486,2.882,3.038,2.882h22.465c1.553,0,2.761-1.305,2.761-2.882V7.317c0-1.575-1.208-2.545-2.761-2.545h-2.379
			 M24.563,4.772H11.784 M30.762,30.979H6.095V10.938h24.667V30.979z"/>
		<path fill="none" stroke="#F7931E" stroke-width="0.5" stroke-miterlimit="10" d="M4.25,6.421c0,0-2.52,0.753-2.468,5.014
			c0.053,4.26-0.039,21.6-0.039,21.6s0.221,2.741,6.248,2.741c6.598,0,21.094,0,21.094,0s2.494,0.052,3.117-4.78"/>
		<path fill="none" stroke="#F7931E" stroke-width="0.5" stroke-linejoin="round" stroke-miterlimit="10" d="M3.455,7.147
			c0.041,0.529-0.636,1.097-0.935,1.47C2.179,9.042,1.917,9.588,1.55,9.942C2.271,9.841,2.968,8.524,3.655,8.61
			C3.744,9.035,2.975,9.475,2.69,9.744c-0.422,0.401-0.848,0.894-0.995,1.396c0.677,0.166,1.169-1.166,1.949-1.022
			c-0.321,0.45-0.628,1.008-1.017,1.408c-0.282,0.287-0.854,0.499-0.879,0.914c0.542,0.128,1.188-1.026,1.803-1.183
			c-0.027,1.027-1.807,1.546-1.739,2.44c0.675-0.094,1.157-0.81,1.79-0.932c0.022,1.2-1.564,1.519-2.047,2.281
			c0.529,0.427,1.477-0.726,2.102-0.723c-0.075,0.394-0.488,1.003-0.771,1.292c-0.281,0.289-1.148,0.546-1.188,0.928
			c0.8,0.035,1.215-0.55,1.905-0.713c0.276,1.081-1.396,1.424-1.887,2.012c0.349,0.005,0.681,0.121,1.022,0.111
			c0.394-0.01,0.641-0.241,0.979-0.396c0.057,1.143-2.074,1.191-1.969,2c0.445,0.086,1.9-1.127,1.699-0.311
			c-0.234,0.955-1.795,1.01-2.014,1.816c0.678,0.125,1.638-0.512,2.166-0.871c0.113,0.465-0.682,1.279-1.018,1.543
			c-0.307,0.242-0.984,0.508-0.993,0.937c0.621,0.264,1.642-0.437,1.973-0.948c-0.017,0.58-0.74,1.175-1.121,1.573
			c-0.204,0.214-0.704,0.479-0.747,0.78c0.842,0.138,1.229-0.785,1.91-0.919c-0.108,1.095-1.619,1.546-2.262,2.32
			c0.776,0.567,1.365-0.651,2-0.83c0.006-0.03,0.012-0.061,0.019-0.091c0.843,0.827-1.903,1.663-1.82,2.324
			c0.568,0.307,1.505-0.766,2.009-0.972c0.135,1.21-2.178,1.309-2.114,2.427c0.908,0.13,1.409-1.182,2.222-1.23
			c-0.268,1.172-1.768,1.378-2.176,2.33c-0.732,1.703,1.607-0.473,1.913-0.58c0.046-0.063,0.061-0.119,0.128-0.182
			c0.396,0.968-1.818,1.998-2.04,2.779c0.755,0.162,1.724-0.938,2.188-1.432c-0.351,0.929-0.936,1.316-1.616,1.906
			c-0.464,0.402-0.73,0.783-0.608,1.443c0.494-0.375,1.052-0.67,1.479-1.129c0.322-0.349,0.468-0.898,0.889-1.143
			c-0.144,0.66-0.768,1.244-1.135,1.73c-0.248,0.328-0.714,0.832-0.67,1.273c0.718,0.025,1.362-1.771,1.893-2.184
			c-0.251,0.656-0.627,1.258-1.084,1.775c-0.233,0.266-0.63,0.521-0.549,0.93c1.387,0.096,1.356-2.013,2.018-2.703
			c0.115,1.229-1.306,2.221-1.135,3.429c0.836,0.224,1.301-2.37,1.656-2.877c0.342,1.034-0.638,2.082-0.568,3.141
			c0.879-0.453,0.583-2.212,1.338-2.745c0.002,0.267-0.196,0.429-0.316,0.658c-0.184,0.352-0.172,0.276-0.13,0.647
			c0.052,0.469,0.171,0.905,0.206,1.388c0.346-0.422,0.341-1.047,0.572-1.539c0.198-0.424,0.418-0.822,0.613-1.235
			c-0.008,0.581-0.156,1.039-0.301,1.583c-0.081,0.306-0.278,0.658-0.213,0.979c0.623,0.304,0.692-0.552,0.834-1.019
			c0.139-0.455,0.319-0.931,0.721-1.189c-0.021,0.91-0.351,1.732-0.307,2.623c0.715,0.172,0.736-2.039,1.082-2.521
			c0.326,0.878-0.129,1.835-0.099,2.729c0.544,0.095,0.553-1.192,0.605-1.54c0.073-0.473,0.299-0.92,0.354-1.368
			c0.044,0.365,0.217,0.864,0.28,1.304c0.042,0.293,0,1.365,0.362,1.408c0.439,0.053,0.575-2.256,0.928-2.648
			c0.027,0.409-0.29,2.701,0.259,2.519c0.366-0.122,0.372-1.141,0.375-1.421c0.004-0.405-0.084-0.828,0.368-0.979
			c-0.022,0.783-0.316,1.656-0.204,2.414c0.847,0.255,0.663-1.652,0.78-2.165c0.056-0.038,0.188-0.095,0.251-0.108
			c0.327,0.438-0.22,0.705-0.212,1.083c0.008,0.349,0.459,0.737,0.637,1.033c0.02-0.002,0.119-0.003,0.138,0
			c0.339-0.823,0.49-1.763,0.797-2.53c0.503,0.211,0.126,2.023,0.156,2.59c0.585-0.566,0.326-1.852,0.666-2.557
			c0.223,0.589,0.027,1.524,0.061,2.187c0.831,0.014,0.271-1.567,0.573-1.967c0.678-0.892,0.416,1.155,0.395,1.403
			c-0.023,0.254-0.161,0.624,0.115,0.771c0.328,0.173,0.457-0.156,0.534-0.381c0.194-0.574-0.147-1.619,0.661-1.839
			c0.203,0.532-0.127,1.302-0.097,1.909c0.038,0.025,0.137,0.093,0.157,0.103c0.48,0.147,0.55-0.587,0.666-0.885
			c0.12-0.313,0.652-0.891,0.566-1.165c-0.201-0.019-0.408-0.002-0.603-0.076c0.523,0.171,1.131,0.147,1.231,0.681
			c0.089,0.475-0.04,1.242-0.145,1.658c-0.031-0.432,0.456-0.931,0.664-1.291c0.209-0.365,0.385-0.82,0.615-1.141
			c-0.199,0.417-0.795,2.518,0.01,2.547c0.271-0.363,0.443-0.93,0.568-1.354c0.102-0.345,0.079-0.758,0.354-0.987
			c0.03,0.483-0.026,0.926-0.092,1.396c-0.03,0.224-0.195,1.035,0.272,0.735c0.621-0.399-0.392-1.864,0.521-2.116
			c0.181,0.781-0.3,1.502-0.215,2.262c0.757,0.09,0.335-2.319,1.146-2.322c0.73-0.002-0.161,1.929-0.485,2.221
			c0.147,0.25,0.687,0.519,0.995,0.358c0.323-0.167,0.392-0.851,0.454-1.146c0.162-0.754,0.717-1.216,1.314-1.635
			c0.043,0.561-0.84,2.145-0.474,2.583c0.353,0.423,0.911-1.962,0.892-2.334c0.531,0.032,0.142,1.94,0.051,2.322
			c0.349-0.091,0.453-0.997,0.555-1.343c0.093-0.314,0.309-0.605,0.375-0.918c0.057,0.247-0.141,2.28,0.16,2.158
			c0.156-0.063,0.166-1.204,0.202-1.384c0.067-0.325,0.124-0.91,0.513-0.938c0.092,0.774-0.522,1.582-0.242,2.321
			c0.514,0.043,0.383-1.08,0.473-1.445c0.114-0.463,0.187-0.701,0.609-0.943c0.396,0.475-0.304,1.491-0.43,2.014
			c-0.127,0.526,0.146,0.985,0.378,0.28c0.208-0.634,0.051-2.176,1.083-2.174c0.051,0.324-0.648,2.393-0.254,2.488
			c0.283,0.069,0.913-2.354,0.946-2.646c0.563,0.142-0.124,1.778-0.053,2.22c0.294-0.01,0.448-0.753,0.511-1.032
			c0.114-0.505,0.092-0.859,0.562-1.137c0.081,0.414-0.194,0.755-0.146,1.175c0.03-0.532,0.121-1.113,0.208-1.647"/>
		<path fill="none" stroke="#F7931E" stroke-width="0.5" stroke-linejoin="round" stroke-miterlimit="10" d="M19.873,13.305
			c0.479,0.036,1.193,0.389,1.584,0.654c0.099,0.067,0.193,0.036,0.205,0.172c-0.461,0.032-0.902-0.128-1.345-0.25
			c-0.277-0.075-0.592-0.083-0.852-0.164c0.175,0.12,0.381,0.171,0.565,0.229c0.318,0.102,0.575,0.26,0.854,0.43
			c-0.245,0.311-1.114-0.11-1.503-0.008c0.053,0.27,0.936,0.561,1.168,0.672c-0.359,0.027-0.65-0.101-0.995-0.158
			c-0.134-0.021-0.288-0.048-0.39,0.037c0.136,0.207,0.524,0.393,0.734,0.563c0.168,0.136,0.365,0.246,0.492,0.428
			c-0.223,0.139-0.851,0.079-1.11,0.04c-0.194-0.03-0.374-0.083-0.565-0.096c0.275,0.138,0.449,0.352,0.662,0.543
			c0.16,0.144,0.363,0.164,0.494,0.332c-0.5,0.032-1.039-0.083-1.494-0.26c0.249,0.138,0.407,0.445,0.631,0.63
			c0.163,0.133,0.361,0.203,0.514,0.332c-0.374,0.026-0.6-0.086-0.943-0.229c-0.109-0.046-0.576-0.282-0.576-0.021
			c0,0.129,0.712,0.54,0.832,0.664c0.134,0.135,0.33,0.288,0.42,0.449c-0.303,0.094-0.74,0.037-1.039-0.08
			c-0.188-0.073-0.392-0.23-0.595-0.228c0.184,0.186,0.3,0.445,0.487,0.644c0.143,0.152,0.317,0.269,0.453,0.417
			c-0.309-0.006-0.512-0.053-0.787-0.179c-0.143-0.064-0.318-0.178-0.47-0.182c0.026,0.173,0.349,0.373,0.481,0.489
			c0.209,0.18,0.416,0.363,0.631,0.525c-0.496,0.144-0.919-0.246-1.397-0.288c-0.023,0.316,0.581,0.639,0.776,0.841
			c0.131,0.135,0.289,0.312,0.363,0.476c-0.547,0.059-1.009-0.438-1.505-0.393c0.171,0.123,0.356,0.355,0.497,0.546
			c0.082,0.112,0.35,0.352,0.349,0.444c-0.464,0.026-0.791-0.131-1.204-0.254c0.251,0.388,0.663,0.71,1.031,0.965
			c-0.364,0.342-1.03-0.345-1.446-0.293c0.394,0.379,0.89,0.66,1.288,0.983c-0.352,0.063-0.695-0.179-0.965-0.358
			c-0.133-0.088-0.319-0.227-0.486-0.171c0.305,0.415,0.729,0.89,1.111,1.26c0.309,0.302,0.806,0.462,1.076,0.786
			c0.236,0.281,0.073,0.528-0.041,0.84c-0.056,0.154-0.068,0.326-0.121,0.479c-0.063,0.181-0.152,0.294-0.229,0.469
			c-0.13,0.304-0.157,0.644-0.318,0.938c-0.128,0.235-0.325,0.435-0.471,0.649c-0.258,0.377-0.756,0.645-0.695,1.16
			c-0.465-0.799,0.255-1.459,0.439-2.167c0.011,0.318-0.135,0.951-0.343,1.16c-0.151,0.149-0.438,0.298-0.612,0.415
			c-0.288-0.697,0.482-1.571,0.72-2.199c-0.346,0.271-0.69,0.749-0.962,1.087c-0.177,0.22-0.459,0.603-0.528,0.878
			c-0.224-0.216,0.232-0.927,0.315-1.167c0.154-0.443,0.504-0.913,0.552-1.377c-0.433,0.249-0.581,0.858-0.848,1.24
			c-0.206,0.294-0.538,0.513-0.735,0.789c-0.158-0.29,0.404-1.14,0.515-1.407c0.142-0.344,0.366-0.831,0.345-1.211
			c-0.186,0.223-0.313,0.498-0.463,0.744c-0.161,0.266-0.387,0.475-0.545,0.734c-0.136,0.223-0.257,0.475-0.398,0.688
			c0.017-0.145,0.088-0.296,0.137-0.436c0.117-0.331,0.17-0.626,0.203-0.979c0.036-0.399,0.074-0.798,0.183-1.169
			c-0.282,0.702-0.571,1.48-1.128,1.992c0.018-0.149,0.086-0.299,0.119-0.445c0.063-0.275,0.071-0.604,0.178-0.865
			c0.155-0.377,0.446-0.7,0.586-1.1c-0.153,0.222-0.232,0.479-0.386,0.703c-0.177,0.256-0.375,0.453-0.618,0.644
			c-0.177,0.14-0.532,0.297-0.53,0.544c-0.185-0.238,0.228-0.706,0.373-0.908c0.274-0.381,0.503-0.791,0.644-1.214
			c-0.475,0.356-0.632,0.876-0.995,1.312c-0.138,0.166-0.396,0.504-0.624,0.495c-0.073-0.273,0.209-0.635,0.327-0.872
			c0.233-0.467,0.525-0.927,0.747-1.385c-0.407,0.455-0.833,0.894-1.185,1.397c-0.146,0.211-0.241,0.376-0.474,0.491
			c-0.031-0.265,0.396-0.747,0.527-0.978c0.219-0.384,0.527-0.868,0.63-1.268c-0.433,0.447-0.772,1.006-1.261,1.39
			c-0.188,0.148-0.42,0.449-0.625,0.516c0.186-0.27,0.318-0.586,0.51-0.866c0.277-0.406,0.785-0.708,0.991-1.153
			c-0.703,0.52-1.015,1.354-1.805,1.761c-0.046-0.371,0.436-0.863,0.62-1.161c0.193-0.313,0.418-0.645,0.567-0.979
			c-0.267,0.614-0.878,1.791-1.604,1.99c0.005-0.218,0.306-0.564,0.433-0.744c0.229-0.325,0.484-0.621,0.681-0.966
			c0.106-0.189,0.87-1.171,0.729-1.307c-0.158-0.152-0.955,1.395-1.124,1.595c-0.198,0.236-0.427,0.414-0.594,0.667
			c-0.075,0.113-0.192,0.336-0.333,0.339c-0.052-0.294,0.188-0.452,0.335-0.664c0.179-0.257,0.359-0.511,0.519-0.779
			c0.267-0.446,0.99-0.982,0.906-1.562c-0.26-0.06-0.576,0.578-0.699,0.756c-0.229,0.33-0.42,0.667-0.635,0.99
			c-0.14,0.209-0.285,0.438-0.448,0.641c-0.099,0.12-0.454,0.34-0.448,0.44"/>
		<g>
			<polygon fill="#303030" points="18.44,28.17 10.851,22.75 12.958,19.799 17.038,22.716 22.108,12.154 25.374,13.723 			"/>
		</g>
	</g>
</g>
<g id="TXT">
</g>
<g id="Guias">
</g>
</svg>
