<?xml version="1.0" encoding="utf-8"?>
<!-- Generator: Adobe Illustrator 16.0.0, SVG Export Plug-In . SVG Version: 6.00 Build 0)  -->
<!DOCTYPE svg PUBLIC "-//W3C//DTD SVG 1.1//EN" "http://www.w3.org/Graphics/SVG/1.1/DTD/svg11.dtd">
<svg version="1.1" xmlns="http://www.w3.org/2000/svg" xmlns:xlink="http://www.w3.org/1999/xlink" x="0px" y="0px"
	 width="25.808px" height="39.106px" viewBox="0 0 25.808 39.106" enable-background="new 0 0 25.808 39.106" xml:space="preserve">
<g id="Soporte_1_">
</g>
<g id="Vectores">
</g>
<g id="Publicidad">
</g>
<g id="Imagenes">
</g>
<g id="Cintillos">
</g>
<g id="Logos">
</g>
<g id="Botones">
	<path fill="#FFFFFF" d="M24.893,10.709c-1.246-6.346-7.045-10.441-13.097-9.774C7.99,1.354,4.982,3.148,2.922,6.352
		c-2.207,3.433-2.708,7.09-0.834,10.857c0.773,1.556,1.658,3.052,2.542,4.547c1.442,2.438,2.926,5.351,4.388,7.776
		c0.077,0.125,0.122-0.01,0.22,0.99h0.029c0.208,0,0.741,1.633,0.882,1.979c0.767,1.878,1.268,4.021,1.355,6.021
		c1.025,0,1.989,0,2.971,0c0.087,0,0.1-2.107,0.279-2.813c0.328-1.289,0.742-2.391,1.155-3.656c0.047-0.146,0.343-1.531,0.787-1.531
		h0.02c0.129-1,0.187-0.904,0.265-1.043c0.854-1.496,1.698-3.238,2.571-4.719c1.408-2.404,2.879-4.888,4.239-7.319
		C24.939,15.393,25.356,13.067,24.893,10.709z M12.963,17.893c-2.713-0.063-4.935-2.253-4.927-4.979
		c0.007-2.752,2.223-4.953,4.987-4.953c2.76,0.002,4.963,2.213,4.972,4.965C18.004,15.773,15.537,17.955,12.963,17.893z"/>
</g>
<g id="TXT">
</g>
<g id="Guias">
</g>
</svg>
