<?xml version="1.0" encoding="utf-8"?>
<!-- Generator: Adobe Illustrator 16.0.0, SVG Export Plug-In . SVG Version: 6.00 Build 0)  -->
<!DOCTYPE svg PUBLIC "-//W3C//DTD SVG 1.1//EN" "http://www.w3.org/Graphics/SVG/1.1/DTD/svg11.dtd">
<svg version="1.1" xmlns="http://www.w3.org/2000/svg" xmlns:xlink="http://www.w3.org/1999/xlink" x="0px" y="0px"
	 width="173.333px" height="51.334px" viewBox="0 0 173.333 51.334" enable-background="new 0 0 173.333 51.334"
	 xml:space="preserve">
<g id="Vectores">
</g>
<g id="Imagenes">
</g>
<g id="Cintillos">
</g>
<g id="BOtones">
</g>
<g id="Logos">
</g>
<g id="Igonos">
	<path fill="#303030" d="M104.275,35.741c1.878-3.191,2.974-6.893,2.974-10.855c0-11.855-9.645-21.5-21.5-21.5
		s-21.5,9.645-21.5,21.5s9.645,21.5,21.5,21.5c4.031,0,7.794-1.137,11.021-3.074l12.045,5.018L104.275,35.741z M99.647,41.261
		l-3.18-1.326c-1.024,0.732-2.122,1.367-3.287,1.881c-2.277,1.004-4.788,1.57-7.432,1.57c-10.201,0-18.5-8.299-18.5-18.5
		s8.299-18.5,18.5-18.5s18.5,8.299,18.5,18.5c0,2.467-0.494,4.818-1.375,6.971c-0.512,1.252-1.154,2.436-1.914,3.533l1.207,3.348
		l1.516,4.203L99.647,41.261z"/>
	<path fill="#303030" d="M36.632,6.774c-7.896,0-11.079,5.034-11.585,5.933c-0.506-0.898-3.689-5.933-11.585-5.933
		c-8.666,0-12.605,11.584-9.855,17S24.999,44.94,24.999,44.94v-0.375v0.375c0,0,18.691-15.75,21.441-21.166
		S45.298,6.774,36.632,6.774z"/>
	<path fill="#303030" d="M169.564,5.801c-0.264-0.48-0.768-0.652-1.315-0.652h-46c-0.599,0-1.141,0.229-1.377,0.779
		c-0.237,0.549-0.125,1.124,0.285,1.56l14.746,15.614l6.234,22.379c0.158,0.57,0.638,0.986,1.224,1.072
		c0.073,0.012,0.147,0.014,0.222,0.014c0.507,0,0.986-0.261,1.264-0.696l24.667-38.604C169.808,6.805,169.827,6.281,169.564,5.801z
		 M125.724,8.148h36.641L137.62,20.773L125.724,8.148z M144.126,41.422l-5.084-18.262l24.806-12.654L144.126,41.422z"/>
</g>
<g id="TXT">
</g>
<g id="Guias">
</g>
</svg>
