<?xml version="1.0" encoding="utf-8"?>
<!-- Generator: Adobe Illustrator 16.0.0, SVG Export Plug-In . SVG Version: 6.00 Build 0)  -->
<!DOCTYPE svg PUBLIC "-//W3C//DTD SVG 1.1//EN" "http://www.w3.org/Graphics/SVG/1.1/DTD/svg11.dtd">
<svg version="1.1" xmlns="http://www.w3.org/2000/svg" xmlns:xlink="http://www.w3.org/1999/xlink" x="0px" y="0px"
	 width="31.219px" height="30.246px" viewBox="0 0 31.219 30.246" enable-background="new 0 0 31.219 30.246" xml:space="preserve">
<g id="Soporte">
	<g>
		<path fill="#303030" d="M22.245,29.577H10.496c-4.495,0-8.175-3.678-8.175-8.174V8.884c0-4.494,3.68-8.172,8.175-8.172h11.749
			c4.496,0,8.174,3.678,8.174,8.172v12.52C30.418,25.899,26.741,29.577,22.245,29.577 M22.245,27.419
			c1.597,0,3.104-0.627,4.246-1.77c1.14-1.141,1.768-2.648,1.768-4.246V8.884c0-1.596-0.628-3.104-1.768-4.246
			c-1.142-1.139-2.649-1.768-4.246-1.768H10.496c-1.599,0-3.106,0.629-4.247,1.768C5.11,5.78,4.482,7.288,4.482,8.884v12.52
			c0,1.598,0.628,3.105,1.767,4.246c1.141,1.143,2.648,1.77,4.247,1.77H22.245z"/>
		<path fill="#303030" d="M24.15,15.034c0,4.271-3.464,7.736-7.736,7.736c-4.274,0-7.737-3.465-7.737-7.736
			c0-4.273,3.463-7.738,7.737-7.738C20.686,7.296,24.15,10.761,24.15,15.034 M16.377,9.972c-2.8,0-5.068,2.27-5.068,5.068
			c0,2.797,2.269,5.066,5.068,5.066c2.797,0,5.065-2.27,5.065-5.066C21.443,12.241,19.174,9.972,16.377,9.972"/>
		<path fill="#303030" d="M26.106,7.177c0,1.01-0.82,1.832-1.832,1.832s-1.831-0.822-1.831-1.832c0-1.012,0.819-1.834,1.831-1.834
			S26.106,6.165,26.106,7.177"/>
	</g>
</g>
<g id="Vectores">
</g>
<g id="Publicidad">
</g>
<g id="Imagenes">
</g>
<g id="Cintillos">
</g>
<g id="Botones">
</g>
<g id="Logo">
</g>
<g id="TXT">
</g>
<g id="Guias">
</g>
</svg>
