<?xml version="1.0" encoding="utf-8"?>
<!-- Generator: Adobe Illustrator 15.0.0, SVG Export Plug-In . SVG Version: 6.00 Build 0)  -->
<!DOCTYPE svg PUBLIC "-//W3C//DTD SVG 1.1//EN" "http://www.w3.org/Graphics/SVG/1.1/DTD/svg11.dtd">
<svg version="1.1" id="Capa_1" xmlns="http://www.w3.org/2000/svg" xmlns:xlink="http://www.w3.org/1999/xlink" x="0px" y="0px"
	 width="462.667px" height="229.333px" viewBox="-158.779 -43.473 462.667 229.333"
	 enable-background="new -158.779 -43.473 462.667 229.333" xml:space="preserve">
<g>
	<path opacity="0.75" fill="#FFFFFF" d="M235.879-11.139h-76.025H96.93c-11.876,0-22.068-7.195-26.462-17.463
		c-4.395,10.268-14.587,17.463-26.463,17.463h-63.695H-87.24c-15.891,0-29.54,13.011-29.54,28.902v105.813
		c0,15.892,13.649,28.284,29.54,28.284h67.549h62.925c11.876,0,22.067,7.195,26.462,17.463
		c4.396-10.268,14.588-17.463,26.462-17.463h63.695h76.025c15.891,0,28.342-12.393,28.342-28.284V17.763
		C264.221,1.871,251.77-11.139,235.879-11.139z"/>
	<path opacity="0.8" fill="none" stroke="#FFFFFF" stroke-width="3" stroke-miterlimit="10" d="M235.879-9.639h-76.025H96.93
		c-11.876,0-22.068-7.195-26.462-17.463C66.073-16.835,55.881-9.639,44.005-9.639h-63.695H-87.24
		c-15.891,0-31.04,11.511-31.04,27.402v105.813c0,15.892,15.149,29.784,31.04,29.784h67.549h62.925
		c11.876,0,22.067,7.195,26.462,17.463c4.396-10.268,14.588-17.463,26.462-17.463h63.695h76.025
		c15.891,0,26.842-13.893,26.842-29.784V17.763C262.721,1.871,251.77-9.639,235.879-9.639z"/>
	<g>
		<g>
			<path d="M74.533,99.691c0.631,0.423-1.056,3.585-2.531,5.481c-4.005,4.637-6.534,6.533-11.592,9.484
				c-4.638,2.529-16.865,8.854-19.394,0c-2.529-9.484,11.171-29.721,20.234-33.938c3.162-1.686,7.379-1.686,8.854,2.319
				c5.059,14.124-13.068,21.29-22.344,25.718c-0.845,0.211-1.476,0.42-2.32,0.631c-0.841,2.318-1.051,4.428-0.631,6.113
				c1.266,2.739,10.329-0.844,14.334-3.372c5.69-3.585,6.954-4.849,10.751-8.643C71.159,101.587,73.688,99.27,74.533,99.691z
				 M46.917,106.014c9.698-4.004,23.188-10.961,20.658-21.078c-0.631-1.265-2.95,0-5.059,1.688
				C56.403,90.838,50.502,98.637,46.917,106.014z"/>
			<path d="M71.368,114.656c0,1.477,0.842,1.688,1.686,1.688c3.793,0,15.177-9.064,15.177-9.486c0.212-0.211,1.476-0.42,1.476,0.21
				c0.211,1.267-1.476,2.532-1.476,2.532c-11.595,10.115-15.177,9.484-15.597,9.484c-5.061,0.211-4.639-4.637-4.639-4.637
				c0-16.232,36.677-60.076,37.943-60.076c0.842-0.844,1.475-1.054,1.896-1.054c1.475,0,1.896,2.106,1.896,2.95
				c0,1.898-1.055,3.584-1.055,3.584L93.711,78.19C71.788,107.49,71.368,112.971,71.368,114.656z"/>
			<path d="M119.848,99.691c0.633,0.423-1.055,3.585-2.529,5.481c-4.006,4.637-6.535,6.533-11.594,9.484
				c-4.639,2.529-16.863,8.854-19.393,0c-2.529-9.484,11.172-29.721,20.237-33.938c3.162-1.686,7.377-1.686,8.854,2.319
				c5.059,14.124-13.07,21.29-22.346,25.718c-0.841,0.211-1.474,0.42-2.316,0.631c-0.846,2.318-1.056,4.428-0.633,6.113
				c1.264,2.739,10.329-0.844,14.333-3.372c5.691-3.585,6.957-4.849,10.75-8.643C116.475,101.587,119.006,99.27,119.848,99.691z
				 M92.235,106.014c9.697-4.004,23.187-10.961,20.658-21.078c-0.633-1.265-2.951,0-5.061,1.688
				C101.721,90.838,95.819,98.637,92.235,106.014z M104.883,74.606c-1.055,0-1.688-0.21-1.688-0.21c0-0.21,0-0.21,0.211-0.21
				c6.113-1.687,6.113-8.854,12.438-8.854c1.264,0,1.896,0.633,1.896,1.686C117.74,72.076,107.41,74.606,104.883,74.606z"/>
			<path d="M134.602,79.876c1.051,0,1.477,0.423,1.477,1.267c0,0.842-0.635,1.896-0.846,2.105
				c-16.863,23.189-18.338,29.934-18.338,29.934c-0.211,0.633-0.211,1.053-0.211,1.475c0,1.477,1.053,1.688,1.686,1.688
				c3.162,0.422,15.178-9.064,15.178-9.486c0.42-0.211,0.844-0.211,1.055-0.211s0.42,0.211,0.42,0.421
				c0,0.844-1.475,2.532-1.475,2.532c-10.961,9.695-15.178,9.484-15.6,9.484c-4.848-0.212-4.639-4.637-4.639-4.637
				c0-7.59,5.904-18.762,14.547-31.199C129.119,81.776,132.281,79.876,134.602,79.876z M134.813,72.92
				c0-2.949,3.371-7.588,5.691-7.588c0.842,0,1.473,0.633,1.473,1.896c0,3.372-3.371,7.59-5.479,7.59c-0.42,0-0.633,0-0.846-0.213
				C135.022,74.396,134.813,73.763,134.813,72.92z"/>
			<path d="M172.33,56.268c0,1.898-1.055,3.584-1.055,3.584l-13.068,16.02h1.475c1.057,0,2.953,0,2.953,1.266
				c0,1.477-1.896,1.477-2.953,1.477H156.1c-21.502,28.877-22.133,34.146-22.133,36.043c0,1.477,1.053,1.688,1.686,1.688
				c4.004,0.422,15.178-9.064,15.178-9.486c0.422-0.211,0.842-0.211,1.053-0.211s0.42,0.211,0.42,0.421
				c0,1.267-1.473,2.532-1.473,2.532c-12.438,10.959-15.178,9.484-15.6,9.484c-5.059,0-4.635-4.637-4.635-4.637
				c0-8.434,8.01-22.344,18.125-35.834h-9.064c-1.264,0-2.74,0-2.74-1.477c0-1.266,1.477-1.266,2.74-1.266h11.174
				c15.387-20.234,18.338-22.766,19.182-22.766C171.487,53.106,172.33,54.581,172.33,56.268z"/>
			<path d="M182.446,99.691c0.633,0.423-1.055,3.585-2.529,5.481c-4.008,4.637-6.535,6.533-11.594,9.484
				c-4.639,2.529-16.863,8.854-19.395,0c-2.527-9.484,11.172-29.721,20.236-33.938c3.162-1.686,7.379-1.686,8.855,2.319
				c5.059,14.124-13.07,21.29-22.346,25.718c-0.844,0.211-1.477,0.42-2.318,0.631c-0.844,2.318-1.055,4.428-0.633,6.113
				c1.266,2.739,10.328-0.844,14.334-3.372c5.689-3.585,6.955-4.849,10.75-8.643C179.071,101.587,181.602,99.27,182.446,99.691z
				 M154.83,106.014c9.697-4.004,23.189-10.961,20.658-21.078c-0.631-1.265-2.951,0-5.059,1.688
				C164.317,90.838,158.414,98.637,154.83,106.014z"/>
			<path d="M170.006,107.701c0-3.795,3.162-7.588,7.59-7.588c0.842,0,2.107,0.21,3.162,0.631c2.738-3.582,5.9-6.534,13.488-18.969
				c0.213-0.213-1.264-3.162,3.162-2.32c5.061,1.055,7.168,22.977,1.475,31.617c3.162,0.213,8.223-2.316,8.855-2.316
				c0.211,0,0.211,0,0.211,0.211c0,0.842-4.217,4.637-9.275,4.637c-0.422,0-1.055,0-1.477-0.212
				c-5.268,5.692-8.852,5.271-13.068,5.48c-5.059,0.212-10.117-2.106-12.857-6.744C170.428,110.653,170.006,109.387,170.006,107.701
				z M177.805,102.643c-2.318,0-5.059,2.951-5.059,5.9c0,0.424,0,0.633,0.211,1.057c1.477-1.898,3.793-4.428,5.902-6.747
				C178.438,102.853,178.227,102.643,177.805,102.643z M173.379,110.863c1.686,2.952,6.746,5.271,10.961,5.271
				c4.006,0,6.744-1.898,8.432-4.428c-4.004-2.105-8.221-5.268-11.594-7.588C178.438,106.858,175.487,109.387,173.379,110.863z
				 M183.074,102.01c3.797,2.529,7.799,5.691,11.385,7.377c3.793-6.534,2.738-23.396,1.053-23.607
				c-3.582,5.269-7.377,10.96-11.383,15.178C183.709,101.377,183.496,101.799,183.074,102.01z"/>
			<path d="M237.881,99.691c0.631,0.423-1.055,3.585-2.529,5.481c-4.008,4.637-6.535,6.533-11.596,9.484
				c-4.637,2.529-16.861,8.854-19.393,0c-2.527-9.484,11.172-29.721,20.236-33.938c3.162-1.686,7.379-1.686,8.854,2.319
				c5.059,14.124-13.068,21.29-22.344,25.718c-0.844,0.211-1.477,0.42-2.318,0.631c-0.844,2.318-1.055,4.428-0.633,6.113
				c1.266,2.739,10.328-0.844,14.334-3.372c5.689-3.585,6.955-4.849,10.75-8.643C234.506,101.587,237.037,99.27,237.881,99.691z
				 M210.266,106.014c9.695-4.004,23.188-10.961,20.658-21.078c-0.631-1.265-2.951,0-5.059,1.688
				C219.752,90.838,213.848,98.637,210.266,106.014z"/>
		</g>
		<g>
			<path fill="#F7931E" d="M24.011,122.83c-2.237,1.739-4.502,3.269-6.687,4.598c-8.382,5.1-18.389,8.931-28.686,11.148h248.562
				V122.83H24.011z"/>
		</g>
		<g>
			<g>
				<g>
					<path d="M68.496,40.115c0.216-1.651,0.25-3.327,0.091-4.998c-0.08-0.832-0.214-1.661-0.399-2.486
						c-0.19-0.819-0.428-1.633-0.729-2.42c-0.309-0.793-0.663-1.564-1.085-2.308c-0.216-0.37-0.438-0.726-0.682-1.085
						c-0.108-0.155-0.244-0.343-0.368-0.515c-0.126-0.17-0.255-0.337-0.386-0.504c-1.065-1.313-2.316-2.48-3.734-3.421
						c-0.709-0.465-1.458-0.867-2.234-1.2c-0.377-0.161-0.763-0.302-1.156-0.427c-2.493-0.786-4.413-1.042-6.968-0.542
						c-3.569,0.703-2.07,1.805-3.918-1.799c-0.79-1.54-1.714-3.028-2.839-4.351c-2.267-2.649-5.362-4.466-8.67-5.488
						c-1.456-0.455-2.985-0.756-4.509-0.866c-4.901-0.355-9.867,1.231-13.882,4.068c-4.119,2.911-1.433,2.759-5.395-0.299
						c-0.951-0.733-1.935-1.387-3.019-1.909C6.9,8.747,4.853,8.223,2.963,8.096c-6.031-0.41-11.987,2.324-16.125,6.543
						c-2.69,2.739-4.508,6.451-5.174,10.147c-0.334,1.85-0.384,3.759-0.118,5.669c0.255,1.886,0.774,3.731,1.521,5.48
						c0.385,0.875,0.825,1.723,1.324,2.539c0.435,0.716,0.93,1.416,1.461,2.068c2.005,2.468,4.604,4.268,7.589,5.338
						c4.214,1.508,9.476,1.131,13.497-0.807c2.491-1.197,3.615-2.125,4.107-2.43c0.563-0.354,0.863-0.038,1.231,0.428
						c0.724,0.924,1.479,1.682,2.365,2.451c1.449,1.262,3.121,2.275,4.879,3.036c1.759,0.762,3.606,1.329,5.506,1.685
						c1.894,0.352,3.545,0.421,5.501,0.315c0.985-0.062,2.27-0.221,3.217-0.451c0.489-0.123,0.754-0.199,1.291-0.357
						c0.381-0.103,0.602-0.119,0.893,0.158c0.191,0.179,1.112,1.363,1.308,1.586c0.202,0.22,0.412,0.437,0.626,0.65
						c0.737,0.733,1.504,1.404,2.292,2.084c0.974,0.847,0.104,0.244,1.176,7.78c0.113,0.793,0.575,3.172,0.632,3.513
						c0.056,0.35-0.022,0.545-0.393,0.306c-0.183-0.121-1.194-0.965-1.495-1.197c-0.626-0.488-1.266-0.977-1.904-1.447
						c-0.644-0.474-1.29-0.939-1.948-1.393c-2.804-1.938-5.764-3.674-8.863-5.128c-1.555-0.729-3.139-1.381-4.758-1.964
						c-1.623-0.583-3.244-1.096-4.891-1.554c-1.647-0.455-3.328-0.838-5.045-1.075c-1.715-0.234-3.468-0.33-5.227-0.121
						c-0.881,0.099-1.76,0.276-2.607,0.559c-0.218,0.069-0.424,0.143-0.642,0.232c-0.196,0.079-0.417,0.167-0.622,0.272
						c-0.423,0.213-0.821,0.466-1.19,0.766c-0.736,0.603,3.904-1.65,10.055-0.147c2.062,0.497,4.162,0.882,6.187,1.491
						c1.787,0.541,3.563,1.147,5.318,1.823c6.105,2.345,11.964,5.58,16.801,10.012c2.195,2.02,3.324,3.489,3.896,2.968
						c0.241-0.211,0.134-0.548,0.033-0.813c-0.126-0.327-0.242-0.648-0.355-0.983c-0.345-0.982-0.711-1.955-1.018-2.95
						c-0.35-1.112-0.676-2.233-0.953-3.368c-0.271-1.135-0.515-2.286-0.679-3.448c-0.045-0.294-0.062-0.595-0.083-0.895
						c-0.041-0.473-0.283-2.744,0.777-2.118c0.211,0.124,0.419,0.234,0.639,0.344c1.46,0.722,3.049,1.205,4.677,1.424
						c1.631,0.217,3.293,0.172,4.91-0.105c3.249-0.566,6.312-2.027,8.876-4.106c1.284-1.039,2.444-2.243,3.438-3.574
						c0.988-1.334,1.803-2.816,2.396-4.38C67.886,43.398,68.282,41.765,68.496,40.115z M65.782,44.401
						c-0.983,2.895-2.814,5.483-5.161,7.505c-2.336,2.015-5.18,3.492-8.221,4.12c-1.521,0.321-3.09,0.425-4.64,0.283
						c-1.546-0.145-2.964-0.634-4.396-1.272c-0.719-0.315-1.407-0.698-2.071-1.124c-0.667-0.421-1.314-0.877-1.938-1.367
						c-0.626-0.484-1.174-0.974-1.703-1.552c-0.392-0.431-1.552-1.601-0.848-1.987c0.394-0.212,0.731-0.296,1.131-0.506
						c0.416-0.216,0.83-0.398,1.232-0.64c0.814-0.479,1.6-0.988,2.338-1.577c0.227-0.178,0.438-0.368,0.648-0.559
						c0.549-0.514,1.039-1.086,1.481-1.699c0.456-0.628,0.827-1.272,1.079-2.135c0.113-0.392-0.06-0.419-0.216-0.089
						c-0.093,0.197-0.203,0.405-0.305,0.596c-0.251,0.455-0.529,0.882-0.838,1.289c-1.218,1.622-2.869,2.7-4.71,3.512
						c-0.823,0.37-1.679,0.698-2.549,0.941c-1.132,0.318-2.294,0.555-3.456,0.732c-2.029,0.315-4.111,0.354-6.164,0.157
						c-2.066-0.203-4.143-0.697-6.096-1.434c-1.7-0.624-3.66-1.826-5.1-2.926c-0.72-0.554-1.392-1.155-2.01-1.828
						c-0.623-0.667-1.216-1.376-1.772-2.114c-0.559-0.735-0.984-1.486-1.446-2.286C9.941,38.25,9.832,38.06,9.73,37.861
						c-0.227-0.416-0.422-0.846-0.59-1.295c-0.046-0.136-0.132-0.506-0.257-0.589c-0.157-0.1-0.253,0.063-0.24,0.215
						c0.019,0.218,0.086,0.429,0.165,0.635c0.088,0.251,0.149,0.421,0.257,0.666c0.394,0.915,0.892,1.778,1.331,2.672
						c0.25,0.502,0.373,1.106,0.028,1.604c-0.343,0.499-0.774,0.813-1.289,1.13c-0.999,0.618-2.077,1.086-3.192,1.451
						c-0.698,0.227-1.406,0.391-2.121,0.52c-2.506,0.453-5.139,0.386-7.624-0.135c-1.681-0.348-3.269-1-4.701-1.921
						c-2.876-1.826-5.138-4.58-6.619-7.694c-0.741-1.563-1.284-3.226-1.581-4.934c-1.213-7.112,2.44-13.481,7.982-17.672
						c5.977-4.52,14.872-4.708,20.732,0.387c0.881,0.769,1.245,1.169,1.778,1.726c0.664,0.692,0.98,0.093,2.174-0.902
						c3.9-3.257,9.237-5.002,14.268-4.838C36.9,9.102,42.888,12.268,46.24,18.87c1.775,3.503,0.883,2.999,3.656,2.506
						c2.91-0.525,5.794-0.066,8.389,1.262c0.663,0.341,1.302,0.747,1.901,1.198c1.202,0.898,2.265,1.987,3.161,3.198
						c1.81,2.397,2.854,5.293,3.271,8.313C67.038,38.359,66.773,41.512,65.782,44.401z"/>
				</g>
				<g>
					<path d="M68.496,40.115c0.449-3.604,0.081-7.362-1.404-10.697c-1.475-3.315-4.084-6.14-7.318-7.788
						c-0.807-0.413-1.656-0.729-2.534-0.976c-0.871-0.25-1.757-0.453-2.658-0.544c-1.797-0.19-3.641,0.051-5.343,0.635l-0.644,0.243
						c-0.113,0.025-0.239,0.074-0.399,0.029c-0.156-0.063-0.23-0.186-0.287-0.285c-0.222-0.421-0.378-0.84-0.577-1.247
						c-0.383-0.822-0.811-1.629-1.271-2.406c-0.919-1.559-2.011-3.031-3.345-4.25c-2.662-2.464-6.11-3.969-9.646-4.632
						c-3.556-0.663-7.251-0.229-10.613,1.042c-1.683,0.635-3.288,1.471-4.771,2.482c-0.741,0.508-1.457,1.055-2.126,1.645
						l-0.508,0.457c-0.091,0.076-0.178,0.156-0.295,0.239c-0.061,0.044-0.129,0.091-0.236,0.13c-0.102,0.039-0.272,0.055-0.4,0.006
						c-0.243-0.095-0.319-0.206-0.417-0.292l-0.243-0.258c-0.151-0.168-0.305-0.325-0.46-0.483c-0.628-0.624-1.32-1.187-2.053-1.712
						c-0.722-0.521-1.476-1.003-2.267-1.394C7.099,9.285,5.352,8.814,3.598,8.613C0.067,8.25-3.541,9.05-6.709,10.64
						c-1.591,0.79-3.079,1.782-4.437,2.93c-1.357,1.16-2.566,2.451-3.536,3.92c-1.951,2.93-3.125,6.408-3.218,9.908
						c-0.082,3.486,0.896,7.025,2.604,10.06c1.706,3.063,4.319,5.566,7.482,7.021c3.131,1.511,6.751,1.809,10.174,1.178
						c1.722-0.322,3.347-0.882,4.903-1.716c0.785-0.402,1.544-0.843,2.272-1.329l0.545-0.375c0.194-0.128,0.354-0.265,0.654-0.426
						c0.229-0.118,0.438-0.188,0.74-0.197c0.297-0.008,0.607,0.104,0.801,0.233c0.391,0.263,0.541,0.504,0.689,0.678
						c0.559,0.702,1.124,1.303,1.777,1.894l0.479,0.426l0.525,0.435c0.334,0.263,0.669,0.509,1.034,0.755
						c1.436,0.975,3.021,1.722,4.679,2.302c1.668,0.584,3.356,1.01,5.106,1.229c1.724,0.205,3.494,0.187,5.236-0.021
						c0.436-0.05,0.869-0.113,1.288-0.193c0.413-0.082,0.815-0.19,1.256-0.313c0.224-0.063,0.407-0.125,0.729-0.192
						c0.184-0.036,0.43-0.067,0.721,0.009c0.278,0.067,0.517,0.224,0.648,0.347c0.312,0.284,0.398,0.44,0.563,0.625l0.43,0.538
						c0.541,0.727,1.12,1.255,1.792,1.896l0.992,0.894l0.51,0.449c0.091,0.082,0.188,0.165,0.31,0.294
						c0.123,0.122,0.287,0.349,0.367,0.575c0.143,0.455,0.117,0.682,0.139,0.927l0.029,0.688c0.018,0.448,0.046,0.891,0.08,1.334
						c0.065,0.891,0.158,1.788,0.265,2.682c0.195,1.821,0.527,3.48,0.863,5.395c0.014,0.117,0.02,0.208,0.003,0.369
						c-0.013,0.078-0.027,0.176-0.084,0.311c-0.045,0.119-0.178,0.321-0.379,0.438c-0.198,0.124-0.425,0.147-0.551,0.135
						c-0.148-0.009-0.229-0.038-0.31-0.06c-0.15-0.058-0.232-0.111-0.315-0.16c-0.159-0.105-0.262-0.188-0.348-0.259l-0.271-0.218
						l-1.046-0.849c-0.722-0.563-1.434-1.104-2.159-1.635c-1.46-1.075-2.944-2.087-4.472-3.035
						c-3.052-1.889-6.283-3.543-9.629-4.837c-1.666-0.648-3.394-1.223-5.116-1.734c-1.732-0.518-3.467-0.941-5.232-1.222
						c-1.765-0.273-3.539-0.395-5.29-0.215c-0.874,0.083-1.729,0.253-2.559,0.515c-0.822,0.26-1.608,0.603-2.253,1.122l-0.053,0.042
						c-0.031,0.017-0.02,0.035,0.049-0.069c0.301-0.646-0.754-0.989-0.443-0.798c-0.019,0.004,0.005,0,0.019-0.001l0.301-0.066
						l0.674-0.153c0.455-0.102,0.911-0.188,1.374-0.266c0.922-0.143,1.854-0.227,2.792-0.242c1.858-0.046,3.754,0.203,5.527,0.684
						c1.757,0.428,3.554,0.791,5.323,1.318c1.755,0.53,3.488,1.127,5.197,1.782c3.419,1.313,6.747,2.885,9.87,4.795
						c3.132,1.902,6.064,4.145,8.65,6.735c0.65,0.625,1.273,1.335,1.98,1.806c0.181,0.113,0.357,0.16,0.448,0.089
						c0.126-0.08,0.142-0.223,0.092-0.426l-0.442-1.276c-0.609-1.716-1.183-3.454-1.649-5.222c-0.454-1.766-0.877-3.546-1.02-5.383
						c-0.04-0.451-0.074-0.915-0.037-1.382c0.022-0.231,0.052-0.473,0.167-0.701c0.057-0.115,0.164-0.238,0.314-0.279
						c0.156-0.042,0.293,0.005,0.406,0.054c0.803,0.461,1.618,0.833,2.475,1.127c3.427,1.204,7.25,1.063,10.67-0.14
						c3.428-1.193,6.522-3.35,8.838-6.154C66.644,47.244,68.022,43.722,68.496,40.115z M68.496,40.115
						c-0.452,3.61-1.808,7.146-4.148,9.964c-2.307,2.828-5.399,5.013-8.844,6.239c-3.436,1.228-7.298,1.4-10.779,0.201
						c-0.866-0.291-1.719-0.679-2.501-1.119c-0.404-0.235-0.55,0.334-0.571,0.745c-0.03,0.444,0,0.891,0.044,1.347
						c0.152,1.799,0.584,3.583,1.045,5.334c0.476,1.754,1.056,3.473,1.698,5.181c0.149,0.437,0.313,0.837,0.469,1.296
						c0.033,0.127,0.057,0.262,0.033,0.415c-0.029,0.16-0.127,0.305-0.256,0.392c-0.134,0.102-0.324,0.118-0.465,0.088
						c-0.143-0.031-0.26-0.088-0.369-0.151c-0.819-0.531-1.412-1.209-2.085-1.827c-2.602-2.532-5.535-4.699-8.656-6.53
						c-3.125-1.839-6.433-3.348-9.839-4.593c-1.701-0.622-3.427-1.186-5.166-1.683c-1.732-0.484-3.516-0.815-5.304-1.222
						c-1.753-0.442-3.51-0.641-5.29-0.579c-0.887,0.033-1.771,0.129-2.646,0.28c-0.438,0.076-0.872,0.168-1.309,0.27l-0.653,0.162
						c-0.116,0.028-0.225,0.058-0.366,0.083c-0.041,0.007-0.076,0.015-0.151,0.018c0.265,0.203-0.895-0.148-0.544-0.864
						c0.102-0.149,0.155-0.169,0.166-0.188l0.084-0.062c0.771-0.641,1.679-1.049,2.583-1.351s1.848-0.502,2.781-0.607
						c1.874-0.226,3.771-0.124,5.604,0.136c1.835,0.259,3.656,0.678,5.419,1.179c1.778,0.494,3.521,1.046,5.256,1.691
						c3.478,1.281,6.796,2.896,9.942,4.837c1.573,0.965,3.109,1.994,4.593,3.071c0.744,0.536,1.488,1.099,2.206,1.649l1.08,0.867
						l0.262,0.208l0.197,0.148c0.015,0.012,0.035,0.021-0.011-0.001c-0.031,0.001-0.181-0.105-0.531,0.075
						c-0.154,0.09-0.246,0.247-0.274,0.309c-0.036,0.087-0.036,0.12-0.041,0.144c-0.003,0.051-0.003,0.026-0.003,0.031
						c-0.309-1.668-0.697-3.587-0.896-5.391c-0.113-0.912-0.214-1.829-0.291-2.758c-0.04-0.461-0.069-0.922-0.09-1.391l-0.033-0.674
						c-0.008-0.207-0.036-0.442-0.04-0.425c0,0.013,0.029,0.05-0.007,0.008c-0.036-0.037-0.107-0.1-0.189-0.175l-0.52-0.447
						l-1.043-0.929c-0.65-0.605-1.414-1.325-1.965-2.063l-0.428-0.523c-0.133-0.161-0.312-0.377-0.342-0.398
						c-0.034-0.031,0,0.012,0.059,0.021c0.072,0.011,0.083,0.003,0.044,0.011c-0.124,0.027-0.374,0.102-0.587,0.165
						c-0.439,0.125-0.915,0.259-1.395,0.352c-0.474,0.096-0.941,0.169-1.411,0.229c-1.877,0.234-3.773,0.261-5.669,0.053
						c-1.866-0.223-3.739-0.671-5.505-1.297c-1.771-0.633-3.508-1.461-5.083-2.541c-0.389-0.269-0.78-0.563-1.166-0.867
						l-0.524-0.439l-0.54-0.483c-0.69-0.633-1.374-1.368-1.946-2.103c-0.131-0.174-0.266-0.307-0.258-0.292
						c0.003,0.003,0.088,0.04,0.153,0.036c0.079-0.007,0.063-0.007,0.093-0.02c-0.108,0.047-0.307,0.195-0.492,0.318l-0.581,0.395
						c-0.79,0.523-1.613,0.992-2.449,1.417c-1.663,0.881-3.523,1.512-5.387,1.846C-1.055,48-5.057,47.648-8.507,45.959
						c-1.72-0.818-3.32-1.902-4.699-3.226c-0.348-0.332-0.674-0.665-1.001-1.035c-0.166-0.184-0.306-0.355-0.455-0.529
						c-0.159-0.192-0.295-0.376-0.445-0.564c-0.285-0.373-0.559-0.767-0.831-1.175c-0.241-0.375-0.494-0.799-0.725-1.201
						c-0.942-1.669-1.616-3.418-2.069-5.26c-0.453-1.845-0.674-3.717-0.592-5.623c0.165-3.796,1.477-7.467,3.605-10.563
						c1.066-1.554,2.392-2.928,3.825-4.108c1.443-1.186,3.024-2.203,4.709-3.012C-3.827,8.047-0.03,7.266,3.704,7.704
						c1.858,0.241,3.675,0.762,5.35,1.615c0.838,0.432,1.618,0.943,2.364,1.501c0.736,0.552,1.458,1.149,2.111,1.822
						c0.163,0.165,0.322,0.339,0.475,0.51l0.221,0.244c0.063,0.069,0.149,0.131,0.122,0.114c-0.019-0.005-0.067-0.004-0.063,0
						c0,0,0.031-0.014,0.063-0.036c0.068-0.049,0.15-0.117,0.231-0.187l0.517-0.45c0.708-0.604,1.451-1.154,2.224-1.662
						c1.541-1.019,3.202-1.854,4.939-2.473c3.462-1.251,7.278-1.639,10.89-0.904c3.596,0.73,7.049,2.331,9.748,4.835
						c1.354,1.251,2.444,2.749,3.365,4.329c0.461,0.789,0.883,1.596,1.264,2.43c0.196,0.415,0.363,0.849,0.563,1.236
						c0.107,0.214,0.216,0.247,0.445,0.162l0.64-0.231c1.74-0.587,3.599-0.818,5.428-0.617c0.912,0.103,1.806,0.312,2.683,0.572
						c0.875,0.251,1.737,0.576,2.55,0.999c3.255,1.681,5.856,4.538,7.321,7.879C68.626,32.747,68.968,36.513,68.496,40.115z"/>
					<path d="M65.782,44.401c-1.731,5.095-5.996,9.149-11.017,10.986c-2.518,0.9-5.256,1.303-7.925,0.872
						c-2.65-0.503-5.112-1.76-7.255-3.377c-1.092-0.799-2.081-1.711-2.909-2.822c-0.093-0.144-0.185-0.309-0.234-0.499
						c-0.059-0.178-0.03-0.475,0.167-0.627c0.333-0.23,0.648-0.317,0.947-0.455c0.581-0.284,1.199-0.582,1.748-0.936
						c1.123-0.694,2.221-1.465,3.111-2.426c0.866-0.961,1.681-2.045,2.013-3.276c0.019-0.068,0.034-0.145,0.034-0.159
						c0-0.006-0.008-0.006,0.003,0.025c-0.003-0.004,0.053,0.134,0.189,0.15c0.137,0.012,0.145-0.025,0.165-0.028
						c0.008-0.004,0.008-0.01,0.003-0.003c-0.034,0.04-0.127,0.249-0.196,0.381c-0.157,0.314-0.309,0.607-0.498,0.905
						c-0.366,0.597-0.775,1.135-1.253,1.649c-0.95,1.008-2.103,1.803-3.321,2.424c-2.426,1.266-5.133,1.913-7.803,2.267
						c-2.732,0.321-5.455,0.232-8.157-0.339c-1.343-0.278-2.65-0.673-3.934-1.171c-1.301-0.539-2.488-1.216-3.638-1.97
						c-0.562-0.369-1.147-0.797-1.66-1.211c-0.551-0.449-1.062-0.919-1.545-1.423c-0.932-1.007-1.831-2.025-2.6-3.224
						c-0.378-0.595-0.71-1.152-1.056-1.761c-0.321-0.553-0.687-1.353-0.851-1.895c-0.001,0.004-0.016-0.034,0.004,0.011
						c0.006-0.001,0.063,0.113,0.24,0.19c-0.006-0.014-0.104-0.028,0.113,0.033c0.164,0.025,0.281,0.002,0.389-0.047
						c0.208-0.097,0.28-0.245,0.308-0.307c0.065-0.135,0.021-0.311,0.047-0.15c0.017,0.103,0.021,0.074,0.034,0.139
						c0.021,0.059,0.038,0.12,0.068,0.19L9.6,36.752l0.173,0.427c0.26,0.585,0.554,1.138,0.873,1.738l0.475,0.921
						c0.174,0.358,0.338,0.814,0.314,1.346c-0.01,0.263-0.079,0.547-0.203,0.799c-0.031,0.063-0.067,0.126-0.104,0.186l-0.067,0.102
						l-0.038,0.051c-0.048,0.061-0.098,0.134-0.183,0.228c-0.295,0.351-0.604,0.595-0.923,0.811
						c-0.154,0.109-0.302,0.203-0.461,0.298c-0.145,0.089-0.279,0.174-0.444,0.263c-0.328,0.185-0.637,0.341-0.957,0.491
						c-0.647,0.299-1.282,0.549-1.973,0.772c-2.68,0.837-5.528,1.046-8.297,0.709c-1.372-0.173-2.781-0.45-4.107-0.978
						c-1.326-0.502-2.59-1.236-3.706-2.062c-2.277-1.688-4.092-3.91-5.427-6.361c-1.31-2.451-2.185-5.196-2.35-8.019
						c-0.178-2.827,0.406-5.687,1.59-8.229c1.169-2.559,2.912-4.803,4.94-6.685c1.036-0.936,2.079-1.795,3.296-2.55
						c1.196-0.737,2.479-1.33,3.811-1.766C1.13,7.482,7.319,8.342,11.716,11.841c0.555,0.438,1.056,0.895,1.552,1.378
						c0.247,0.243,0.486,0.495,0.715,0.742c0.111,0.116,0.24,0.258,0.31,0.324c0.078,0.067,0.085,0.045,0.027,0.045
						c-0.048,0.016,0.04-0.005,0.14-0.079c0.104-0.074,0.224-0.178,0.347-0.281c0.245-0.216,0.504-0.446,0.772-0.665
						c0.521-0.425,1.097-0.853,1.664-1.222c2.301-1.509,4.877-2.557,7.55-3.126c2.676-0.58,5.437-0.651,8.133-0.196
						c2.687,0.448,5.296,1.443,7.534,3.003c2.244,1.544,4.08,3.641,5.405,5.99c0.335,0.591,0.633,1.196,0.919,1.802
						c0.294,0.6,0.533,1.255,0.859,1.782c0.091,0.123,0.178,0.199,0.298,0.22c0.122,0.025,0.284,0.005,0.441-0.021l0.979-0.2
						c0.659-0.136,1.333-0.232,2.007-0.273c2.697-0.165,5.435,0.529,7.728,1.939c2.295,1.413,4.139,3.488,5.451,5.818
						c1.3,2.353,1.991,5.002,2.214,7.669C66.969,39.156,66.652,41.87,65.782,44.401z M65.782,44.401
						c0.86-2.534,1.165-5.246,0.944-7.909c-0.232-2.66-0.938-5.303-2.241-7.641c-1.31-2.32-3.186-4.34-5.472-5.713
						c-2.283-1.366-4.984-2.016-7.631-1.816c-0.656,0.048-1.314,0.149-1.964,0.292l-0.98,0.22c-0.168,0.031-0.346,0.063-0.555,0.032
						c-0.221-0.028-0.398-0.191-0.504-0.337c-0.391-0.607-0.614-1.215-0.927-1.813c-0.297-0.595-0.604-1.187-0.944-1.755
						c-1.348-2.276-3.177-4.271-5.379-5.715c-2.19-1.462-4.724-2.363-7.321-2.74c-2.59-0.386-5.271-0.259-7.813,0.347
						c-2.553,0.604-4.996,1.663-7.143,3.139c-0.542,0.373-1.04,0.754-1.543,1.186c-0.248,0.209-0.481,0.428-0.736,0.658
						c-0.128,0.115-0.26,0.235-0.43,0.358c-0.164,0.12-0.376,0.283-0.759,0.317c-0.404,0.027-0.707-0.184-0.878-0.334
						c-0.178-0.157-0.272-0.266-0.394-0.388c-0.229-0.239-0.46-0.469-0.694-0.688c-0.471-0.439-0.968-0.874-1.475-1.259
						c-2.046-1.548-4.506-2.517-7.04-2.854c-2.542-0.345-5.155-0.062-7.574,0.76c-1.203,0.413-2.365,0.965-3.438,1.648
						c-1.051,0.665-2.077,1.521-3.011,2.395c-1.873,1.773-3.43,3.872-4.487,6.189c-1.061,2.308-1.563,4.857-1.397,7.383
						c0.016,0.319,0.05,0.625,0.085,0.929c0.039,0.299,0.093,0.688,0.15,0.946c0.112,0.627,0.269,1.245,0.453,1.858
						c0.366,1.212,0.869,2.393,1.479,3.522c1.207,2.25,2.86,4.273,4.88,5.789c2.03,1.55,4.396,2.445,6.958,2.731
						c2.54,0.31,5.149,0.175,7.596-0.565c1.199-0.37,2.365-0.883,3.407-1.561c0.241-0.156,0.454-0.338,0.596-0.499
						c0.228-0.275,0.206-0.253,0.235-0.415c0.01-0.138-0.036-0.341-0.152-0.584L9.246,39.65c-0.301-0.585-0.625-1.218-0.898-1.864
						c-0.069-0.159-0.139-0.337-0.195-0.504l-0.084-0.239c-0.031-0.09-0.063-0.187-0.091-0.29c-0.025-0.095-0.069-0.282-0.074-0.35
						c0.002-0.004-0.074-0.349,0.06-0.642c0.054-0.142,0.183-0.357,0.466-0.495c0.146-0.062,0.305-0.098,0.509-0.062
						c0.262,0.06,0.202,0.065,0.233,0.072c0.248,0.116,0.368,0.295,0.413,0.366c0.071,0.11,0.087,0.158,0.121,0.23
						c0.232,0.732,0.419,1.162,0.748,1.78c0.306,0.562,0.643,1.162,0.973,1.704c0.324,0.551,0.7,1.048,1.109,1.57
						c0.4,0.512,0.822,1.01,1.26,1.499c0.435,0.47,0.901,0.912,1.375,1.323c0.523,0.432,1.011,0.807,1.559,1.186
						c1.07,0.738,2.207,1.412,3.375,1.922c1.197,0.495,2.45,0.901,3.727,1.197c2.521,0.596,5.218,0.744,7.807,0.489
						c2.627-0.292,5.223-0.853,7.584-2.022c1.175-0.568,2.274-1.292,3.179-2.217c0.446-0.458,0.859-0.982,1.207-1.519
						c0.177-0.262,0.337-0.559,0.49-0.844c0.091-0.153,0.111-0.267,0.28-0.496c0.021-0.025,0.053-0.057,0.093-0.087
						c0.055-0.027,0.102-0.089,0.279-0.074c0.177,0.025,0.265,0.203,0.269,0.242c0.021,0.067,0.021,0.109,0.021,0.148
						c-0.003,0.15-0.034,0.242-0.058,0.328c-0.925,2.705-3.161,4.555-5.47,5.889c-0.59,0.354-1.19,0.626-1.812,0.918
						c-0.313,0.132-0.649,0.243-0.87,0.386c-0.164,0.104-0.051,0.438,0.116,0.696c0.747,1.052,1.734,1.995,2.792,2.787
						c2.101,1.627,4.518,2.897,7.132,3.428c2.625,0.453,5.363,0.11,7.871-0.785C59.752,53.512,64.028,49.489,65.782,44.401z"/>
				</g>
			</g>
		</g>
		<g>
			<g>
				<path fill="#FFFCFD" d="M46.76,136.149c-0.533,0.19-1.582,0.506-2.827,0.506c-1.392,0-2.54-0.355-3.44-1.217
					c-0.792-0.764-1.284-1.992-1.284-3.427c0.016-2.745,1.899-4.752,4.984-4.752c1.064,0,1.898,0.233,2.293,0.425l-0.286,0.969
					c-0.491-0.219-1.106-0.396-2.034-0.396c-2.239,0-3.7,1.392-3.7,3.7c0,2.335,1.404,3.713,3.55,3.713
					c0.777,0,1.311-0.108,1.585-0.245v-2.745h-1.871v-0.955h3.031V136.149z"/>
				<path fill="#FFFCFD" d="M60.457,133.662l-0.955,2.896h-1.228l3.126-9.202h1.432l3.143,9.202h-1.271l-0.982-2.896H60.457z
					 M63.473,132.735l-0.899-2.648c-0.206-0.6-0.341-1.146-0.479-1.68h-0.026c-0.137,0.546-0.287,1.106-0.465,1.667l-0.901,2.661
					H63.473z"/>
				<path fill="#FFFCFD" d="M77.553,135.112c0.533,0.326,1.313,0.6,2.133,0.6c1.214,0,1.925-0.642,1.925-1.569
					c0-0.859-0.494-1.353-1.734-1.83c-1.503-0.532-2.432-1.31-2.432-2.608c0-1.432,1.188-2.499,2.977-2.499
					c0.942,0,1.624,0.221,2.034,0.452l-0.326,0.968c-0.302-0.162-0.915-0.437-1.748-0.437c-1.259,0-1.735,0.753-1.735,1.379
					c0,0.859,0.561,1.284,1.83,1.775c1.557,0.6,2.35,1.353,2.35,2.704c0,1.42-1.053,2.647-3.225,2.647
					c-0.888,0-1.855-0.258-2.347-0.587L77.553,135.112z"/>
				<path fill="#FFFCFD" d="M96.59,128.365h-2.799v-1.01h6.813v1.01h-2.814v8.192H96.59V128.365z"/>
				<path fill="#FFFCFD" d="M112.018,127.479c0.602-0.123,1.463-0.192,2.281-0.192c1.27,0,2.088,0.232,2.662,0.752
					c0.463,0.409,0.725,1.037,0.725,1.749c0,1.215-0.766,2.02-1.734,2.347v0.041c0.709,0.245,1.133,0.903,1.35,1.858
					c0.301,1.283,0.52,2.169,0.711,2.524h-1.229c-0.148-0.259-0.355-1.051-0.613-2.198c-0.273-1.271-0.766-1.749-1.846-1.788h-1.117
					v3.986h-1.189V127.479z M113.207,131.671h1.215c1.27,0,2.074-0.697,2.074-1.749c0-1.187-0.859-1.707-2.115-1.72
					c-0.574,0-0.984,0.055-1.174,0.108V131.671z"/>
				<path fill="#FFFCFD" d="M137.621,131.862c0,3.168-1.924,4.848-4.275,4.848c-2.428,0-4.137-1.884-4.137-4.671
					c0-2.922,1.816-4.834,4.275-4.834C135.998,127.204,137.621,129.131,137.621,131.862z M130.481,132.011
					c0,1.968,1.064,3.728,2.936,3.728c1.885,0,2.949-1.733,2.949-3.823c0-1.829-0.955-3.74-2.936-3.74
					C131.465,128.175,130.481,129.99,130.481,132.011z"/>
				<path fill="#FFFCFD" d="M149.559,136.558v-9.202h1.297l2.949,4.655c0.682,1.078,1.215,2.049,1.65,2.99l0.029-0.013
					c-0.109-1.229-0.139-2.348-0.139-3.782v-3.851h1.121v9.202h-1.201l-2.922-4.67c-0.643-1.024-1.258-2.074-1.721-3.07
					l-0.041,0.013c0.068,1.16,0.096,2.265,0.096,3.796v3.932H149.559z"/>
				<path fill="#FFFCFD" d="M176.801,131.862c0,3.168-1.926,4.848-4.275,4.848c-2.43,0-4.137-1.884-4.137-4.671
					c0-2.922,1.816-4.834,4.275-4.834C175.178,127.204,176.801,129.131,176.801,131.862z M169.66,132.011
					c0,1.968,1.063,3.728,2.934,3.728c1.887,0,2.951-1.733,2.951-3.823c0-1.829-0.957-3.74-2.936-3.74
					C170.645,128.175,169.66,129.99,169.66,132.011z"/>
				<path fill="#FFFCFD" d="M196.494,132.518c-0.068-1.284-0.15-2.827-0.139-3.975h-0.039c-0.316,1.079-0.697,2.227-1.16,3.495
					l-1.625,4.466h-0.902l-1.486-4.385c-0.439-1.295-0.809-2.483-1.066-3.576h-0.027c-0.027,1.147-0.096,2.69-0.178,4.067
					l-0.244,3.947h-1.135l0.641-9.202h1.516l1.57,4.451c0.383,1.133,0.697,2.145,0.928,3.101h0.041
					c0.232-0.929,0.561-1.94,0.971-3.101l1.639-4.451h1.516l0.574,9.202h-1.16L196.494,132.518z"/>
				<path fill="#FFFCFD" d="M212.707,125.267l-1.75,1.598h-0.971l1.258-1.598H212.707z M211.299,127.356v9.202h-1.189v-9.202
					H211.299z"/>
				<path fill="#FFFCFD" d="M225.252,133.662l-0.957,2.896h-1.23l3.127-9.202h1.436l3.141,9.202h-1.27l-0.984-2.896H225.252z
					 M228.268,132.735l-0.902-2.648c-0.203-0.6-0.34-1.146-0.477-1.68h-0.027c-0.137,0.546-0.285,1.106-0.463,1.667l-0.902,2.661
					H228.268z"/>
			</g>
		</g>
		<g>
			<path d="M-83.659,115.977c0-0.879,0.438-1.318,1.32-1.537c6.152-1.539,6.592,10.109,7.472,10.548
				c9.01,7.474,28.13,10.988,42.634,10.988c29.011,0,67.688-16.482,67.688-49.447c0-14.504-8.129-25.715-23.293-27.032
				c-7.035,0-12.528,0.219-18.462,5.495c-2.858,2.417-3.516,9.23-4.396,14.724c6.154-9.669,11.21-16.923,11.21-16.923
				c0.658-1.317,1.317-1.538,1.978-1.538c1.537,0,2.417,2.637,2.417,3.737c0,1.757-0.88,3.297-0.88,3.297L-9.816,88.726
				c-20.001,28.57-20.659,39.119-20.659,40.437c0,1.76-1.099,2.2-1.759,2.2c-1.757,0-1.978-0.88-1.978-1.76
				c0-9.45,10.33-29.448,20.879-45.712c0-4.395,0.438-16.701,5.715-21.099c6.371-5.493,13.405-6.373,20.656-5.933
				C28.425,57.738,41.83,68.068,41.83,86.529c0,35.163-42.635,52.746-72.962,52.746c-9.011,0-18.021-1.32-26.375-3.736
				C-65.198,134.218-83.659,126.528-83.659,115.977z"/>
		</g>
	</g>
</g>
</svg>
