<?xml version="1.0" encoding="utf-8"?>
<!-- Generator: Adobe Illustrator 16.0.0, SVG Export Plug-In . SVG Version: 6.00 Build 0)  -->
<!DOCTYPE svg PUBLIC "-//W3C//DTD SVG 1.1//EN" "http://www.w3.org/Graphics/SVG/1.1/DTD/svg11.dtd">
<svg version="1.1" id="Capa_1" xmlns="http://www.w3.org/2000/svg" xmlns:xlink="http://www.w3.org/1999/xlink" x="0px" y="0px"
	 width="47.333px" height="42.667px" viewBox="48.333 69.749 47.333 42.667" enable-background="new 48.333 69.749 47.333 42.667"
	 xml:space="preserve">
<g id="TXT_1_">
	<g>
		<path d="M72.085,108.004c-8.199,0.035-15.423-6.715-15.243-15.724c0.172-8.733,7.289-15.173,15.474-15.083
			c8.076,0.089,15.418,6.718,15.119,16.054c-0.131,4.112-1.768,7.677-4.777,10.536C79.703,106.596,76.16,107.984,72.085,108.004z
			 M62.828,81.225c-0.02-0.019-0.04-0.035-0.059-0.055c-0.029,0.017-0.063,0.029-0.089,0.053c-0.163,0.137-0.328,0.27-0.481,0.415
			c-3.896,3.713-5.36,8.27-4.548,13.539c0.724,4.702,3.389,8.089,7.485,10.378c0.895,0.502,1.886,0.84,2.858,1.184
			c0.385,0.135,0.835,0.242,1.253-0.033c0.1-0.064,0.274-0.027,0.415-0.016c0.484,0.035,0.967,0.078,1.441,0.119
			c0.176-0.729,0.381-0.818,1.475-0.709c-0.141,0.164-0.281,0.324-0.418,0.484c0.031-0.004,0.064-0.01,0.1-0.01
			c0.08,0.217,0.164,0.436,0.258,0.699c0.092-0.01,0.266-0.023,0.439-0.045c1.252-0.172,2.459-0.615,3.74-0.639
			c0.123-0.002,0.25-0.053,0.375-0.084c0.986-0.254,1.914-0.656,2.754-1.225c1.848-1.252,3.652-2.533,4.604-4.697
			c0.5-1.143,1.006-2.266,1.248-3.498c0.1-0.503,0.303-0.985,0.406-1.491c0.096-0.464,0.178-0.945,0.154-1.412
			c-0.035-0.744-0.311-1.476-0.1-2.235c0.018-0.07-0.035-0.188-0.096-0.24c-0.172-0.156-0.363-0.292-0.582-0.464
			c0.031-0.019-0.021-0.004-0.043,0.03c-0.336,0.501-0.939,0.123-1.342,0.408c-0.021,0.015-0.098-0.015-0.129-0.045
			c-0.336-0.309-0.695-0.596-0.992-0.941c-0.246-0.288-0.396-0.652-0.615-0.965c-0.283-0.399-0.551-0.778-0.467-1.317
			c0.063-0.41,0.031-0.822-0.299-1.149c-0.057-0.056-0.076-0.178-0.064-0.264c0.053-0.43,0.061-0.881,0.203-1.281
			c0.148-0.407,0.311-0.771,0.113-1.207c-0.047-0.104,0.025-0.276,0.076-0.406c0.08-0.209-0.027-0.283-0.189-0.378
			c-0.203-0.116-0.41-0.251-0.561-0.426c-0.174-0.201-0.273-0.465-0.43-0.684c-0.309-0.42-0.301-0.502,0.148-0.806
			c-0.084-0.053-0.158-0.114-0.242-0.147c-0.434-0.181-0.439-0.205-0.307-0.671c0.025-0.085-0.004-0.214-0.057-0.289
			c-0.229-0.314-0.408-0.688-0.885-0.716c-0.102-0.005-0.203-0.106-0.295-0.178c-0.82-0.62-1.678-1.16-2.689-1.427
			c-0.225-0.062-0.412-0.065-0.615,0.132c0.252,0.049,0.467,0.092,0.678,0.135c-0.365,0.066-0.729,0.075-1.086,0.126
			c-0.359,0.051-0.678,0.183-0.785,0.584c-0.068,0.249-0.252,0.313-0.488,0.312c-0.799-0.01-1.24-0.543-1.637-1.125
			c-0.266-0.394-0.326-0.434-0.764-0.293c0.176,0.131,0.502,0.262,0.512,0.411c0.01,0.203-0.221,0.42-0.336,0.61
			c0.182,0.479,0.617,0.674,1.033,0.907c0.121,0.067,0.244,0.278,0.227,0.406c-0.02,0.151-0.16,0.356-0.299,0.412
			c-0.307,0.124-0.648,0.165-0.973,0.256c-0.082,0.022-0.145,0.11-0.193,0.15c0.256,0.16,0.479,0.302,0.74,0.471
			c-0.637,0.411-1.241,0.631-1.973,0.46c0.041,0.394-0.223,0.435-0.471,0.569c-0.32,0.17-0.659,0.441-0.811,0.758
			c-0.113,0.23-0.199,0.412-0.419,0.531c-0.176,0.094-0.35,0.196-0.521,0.294c-0.475,0.275-0.484,0.332-0.43,0.878
			c0.025,0.245,0.02,0.524-0.078,0.744c-0.152,0.353-0.509,0.366-0.716,0.042c-0.133-0.21-0.184-0.469-0.283-0.734
			c-0.301-0.221-0.63-0.239-0.982,0.029c-0.099,0.08-0.3,0.14-0.405,0.093c-0.384-0.165-0.694-0.184-0.867,0.122
			c-0.234,0.419-0.409,0.88-0.548,1.343c-0.04,0.135,0.103,0.448,0.215,0.479c0.206,0.057,0.48,0.072,0.626-0.224
			c0.167-0.34,0.458-0.525,0.85-0.522c0.438,0.004,0.6,0.243,0.425,0.646c-0.111,0.251-0.244,0.491-0.387,0.768
			c0.157,0,0.26-0.004,0.366,0.001c0.528,0.017,0.78,0.407,0.613,0.906c-0.066,0.2-0.079,0.432-0.058,0.644
			c0.01,0.081,0.186,0.201,0.289,0.202c0.334,0.002,0.667-0.042,1.079-0.074c0.107-0.298,0.467-0.419,0.846-0.586
			c0.491-0.22,0.876-0.204,1.269,0.137c0.186,0.162,0.393,0.2,0.617,0.078c0.07-0.036,0.15-0.05,0.255-0.086
			c-0.016,0.103-0.029,0.172-0.039,0.238c0.23-0.026,0.496-0.143,0.641-0.057c0.471,0.292,0.895,0.658,1.34,0.989
			c0.107,0.08,0.242,0.2,0.35,0.182c0.467-0.072,0.912,0.062,1.219,0.343c0.307,0.283,0.461,0.729,0.693,1.099
			c0.057,0.092,0.129,0.205,0.223,0.243c0.258,0.105,0.586,0.108,0.785,0.275c0.348,0.289,0.729,0.341,1.141,0.388
			c0.197,0.022,0.41,0.103,0.572,0.217c0.215,0.152,0.348,0.408,0.67,0.372c0.064-0.007,0.156,0.1,0.209,0.173
			c0.238,0.342,0.252,0.93-0.004,1.267c-0.232,0.306-0.512,0.581-0.75,0.886c-0.098,0.124-0.186,0.291-0.197,0.444
			c-0.07,0.813-0.436,1.494-0.908,2.127c-0.07,0.094-0.205,0.16-0.326,0.195c-0.318,0.09-0.643,0.174-0.971,0.23
			c-0.258,0.043-0.395,0.17-0.42,0.434c-0.043,0.496-0.322,0.838-0.73,1.1c-0.092,0.059-0.174,0.15-0.223,0.248
			c-0.168,0.344-0.422,0.584-0.787,0.705c-0.078,0.027-0.182,0.084-0.203,0.15c-0.143,0.459-0.49,0.625-0.92,0.695
			c-0.088,0.016-0.197,0.041-0.246,0.104c-0.254,0.313-0.49,0.637-0.727,0.947c0.223,0.369,0.211,0.443-0.057,0.738
			c-0.111,0.125-0.33,0.301-0.08,0.416c0.377,0.182,0.479,0.422,0.379,0.736c-0.194,0-0.389,0-0.584,0
			c-0.439-0.002-0.863-0.129-1.054-0.52c-0.242-0.5-0.792-0.863-0.635-1.57c0.09-0.398-0.09-0.85-0.07-1.271
			c0.035-0.703,0.213-1.395,0.137-2.115c-0.045-0.436,0.012-0.895,0.098-1.328c0.153-0.775-0.148-1.201-0.876-1.461
			c-0.277-0.098-0.531-0.381-0.705-0.641c-0.413-0.617-0.782-1.267-1.15-1.913c-0.104-0.182-0.191-0.396-0.207-0.6
			c-0.022-0.28,0.055-0.563,0.052-0.845c-0.008-0.565,0.398-0.894,0.712-1.263c0.286-0.338,0.321-0.563,0.043-0.955
			c-0.385,0.241-0.406,0.24-0.769-0.027c-0.045-0.033-0.098-0.06-0.146-0.091c-0.287-0.169-0.577-0.336-0.856-0.519
			c-0.051-0.03-0.093-0.121-0.09-0.18c0.025-0.412-0.261-0.564-0.573-0.644c-0.395-0.103-0.725-0.265-0.857-0.572
			c-0.305-0.029-0.565,0.007-0.768-0.084c-0.381-0.175-0.741-0.402-1.082-0.648c-0.326-0.232-0.534-0.54-0.274-0.964
			c0.031-0.051,0.012-0.134,0.017-0.232c-0.141,0.086-0.258,0.16-0.383,0.236c-0.46-0.527-0.481-1.148-0.406-1.795
			c0.043-0.354,0.075-0.711,0.097-1.066c0.01-0.191-0.059-0.391-0.018-0.57c0.162-0.736,0.592-1.318,1.114-1.844
			C62.488,81.601,62.655,81.408,62.828,81.225z M71.482,102.27c0.107-0.402,0.107-0.4,0.551-0.43
			c0.117-0.006,0.234-0.023,0.344-0.059c0.225-0.07,0.318-0.178,0.135-0.406c-0.076-0.092-0.117-0.289-0.07-0.383
			c0.039-0.076,0.252-0.115,0.367-0.088c0.561,0.139,0.695,0.072,0.967-0.436c0.094-0.176,0.244-0.352,0.416-0.451
			c0.289-0.168,0.434-0.369,0.49-0.713c0.039-0.23,0.217-0.521,0.416-0.629c0.381-0.207,0.822-0.301,1.236-0.447
			c0.066-0.021,0.154-0.037,0.184-0.084c0.334-0.533,0.637-1.078,0.732-1.722c0.072-0.484,0.221-0.96,0.336-1.438
			c0.031,0.007,0.063,0.016,0.096,0.023c0.006,0.142,0.014,0.287,0.025,0.542c0.256-0.334,0.467-0.567,0.629-0.833
			c0.162-0.267,0.053-0.472-0.238-0.579c-0.117-0.045-0.256-0.106-0.32-0.204c-0.301-0.455-0.777-0.429-1.221-0.438
			c-0.246-0.005-0.426-0.036-0.564-0.253c-0.127-0.2-0.318-0.311-0.533-0.145c-0.285,0.221-0.537,0.504-0.848,0.042
			c-0.012-0.019-0.068-0.005-0.102-0.014c-0.336-0.104-0.408-0.386-0.16-0.641c0.07-0.074,0.172-0.12,0.238-0.163
			c-0.105-0.213-0.176-0.348-0.242-0.484c-0.217-0.451-0.607-0.665-1.111-0.605c-0.494,0.057-0.6-0.012-0.871-0.461
			c-0.059-0.1-0.205-0.196-0.318-0.205c-0.197-0.014-0.303-0.066-0.41-0.251c-0.068-0.117-0.305-0.194-0.465-0.192
			c-0.515,0.007-1.011-0.01-1.46-0.348c-0.221,0.13-0.456,0.304-0.706,0.017c-0.027-0.03-0.148-0.023-0.189,0.01
			c-0.21,0.172-0.419,0.351-0.614,0.541c-0.232,0.227-0.301,0.48-0.23,0.827c0.047,0.233-0.055,0.536-0.18,0.758
			c-0.139,0.245-0.401,0.421-0.567,0.656c-0.084,0.118-0.15,0.389-0.088,0.447c0.236,0.224,0.188,0.416,0.004,0.605
			c-0.189,0.199-0.135,0.349,0.008,0.55c0.326,0.456,0.687,0.906,0.911,1.412c0.254,0.58,0.619,0.956,1.198,1.199
			c0.495,0.207,0.731,0.596,0.696,1.18c-0.061,0.908-0.043,1.826-0.072,2.736c-0.008,0.221-0.08,0.438-0.104,0.656
			c-0.035,0.33-0.057,0.66-0.082,0.988c0.033,0.004,0.064,0.008,0.1,0.01c0.059-0.061,0.115-0.121,0.219-0.232
			c0,0.652-0.006,1.234,0.004,1.816c0.002,0.232,0.088,0.414,0.35,0.412c0.145-0.188,0.277-0.359,0.424-0.545
			c-0.244-0.264-0.256-0.51,0.095-0.732c0.082-0.049,0.143-0.217,0.127-0.318C70.944,102.34,71.03,102.236,71.482,102.27z
			 M67.795,78.327c-0.642,0.26-1.293,0.556-1.968,0.782c-0.72,0.245-1.142,0.853-1.702,1.289c-0.254,0.195-0.432,0.415-0.49,0.74
			c-0.021,0.117-0.091,0.292-0.181,0.321c-0.435,0.149-0.611,0.567-0.927,0.835c-0.464,0.393-0.678,0.932-0.838,1.479
			c-0.054,0.186,0.053,0.491,0.191,0.638c0.192,0.198,0.266,0.363,0.183,0.618c-0.032,0.095-0.042,0.21-0.02,0.305
			c0.099,0.407,0.22,0.81,0.313,1.218c0.041,0.18,0.106,0.408,0.034,0.552c-0.191,0.385,0.065,0.527,0.302,0.694
			c0.152,0.108,0.315,0.2,0.477,0.297c0.209,0.125,0.41,0.192,0.66,0.07c0.233-0.11,0.409,0.015,0.568,0.215
			c0.137,0.174,0.334,0.392,0.523,0.416c0.479,0.056,0.744,0.334,0.973,0.702c0.019,0.027,0.049,0.05,0.059,0.063
			c0.079-0.284,0.15-0.552,0.238-0.867c-0.427,0-0.837,0-1.245,0c-0.043-0.307,0.341-0.548,0.099-0.802
			c-0.273,0.055-0.512,0.083-0.737,0.151c-0.299,0.09-0.509-0.026-0.67-0.251c-0.231-0.321-0.32-0.692-0.215-1.069
			c0.115-0.414,0.268-0.824,0.444-1.214c0.065-0.146,0.229-0.294,0.379-0.347c0.484-0.166,0.973-0.356,1.475-0.408
			c0.501-0.053,1.02,0.05,1.542,0.084c0.078-0.421,0.429-0.662,0.831-0.863c0.236-0.119,0.473-0.226,0.514-0.562
			c0.039-0.28,0.172-0.553,0.288-0.905c0.137,0.15,0.186,0.201,0.186,0.201c0.225-0.112,0.422-0.203,0.614-0.306
			c0.072-0.038,0.191-0.095,0.195-0.149c0.016-0.275,0.203-0.315,0.412-0.373c0.225-0.061,0.447-0.146,0.66-0.242
			c0.061-0.029,0.088-0.135,0.133-0.205c-0.023-0.02-0.045-0.04-0.068-0.06c-0.131,0.072-0.251,0.174-0.392,0.208
			c-0.125,0.033-0.27-0.007-0.404-0.016c0.039-0.132,0.033-0.313,0.119-0.385c0.41-0.335,0.871-0.554,1.43-0.439
			c0.256,0.054,0.473-0.018,0.656-0.255c-0.371-0.141-0.756-0.232-0.813-0.72c-0.415,0.23-0.711,0.227-0.943-0.183
			c-0.059-0.101-0.307-0.172-0.43-0.133c-0.088,0.026-0.113,0.261-0.168,0.4c-0.055,0.13-0.078,0.328-0.176,0.376
			c-0.256,0.126-0.485,0.229-0.465,0.568c0,0.036-0.057,0.072-0.084,0.11c-0.119,0.163-0.24,0.329-0.346,0.476
			c-0.308-0.454-0.401-1.26-1.284-1.275c-0.193-0.635-0.156-0.729,0.42-1.033c0.191-0.1,0.389-0.192,0.617-0.306
			C68.375,78.784,67.998,78.828,67.795,78.327z M86.783,94.687c0.021-0.115,0.059-0.263,0.072-0.412
			c0.285-2.756-0.143-5.401-1.268-7.934c-0.34-0.762-0.768-1.447-1.537-1.865c-0.148-0.082-0.279-0.268-0.336-0.433
			c-0.086-0.255-0.227-0.357-0.463-0.267c-0.209,0.077-0.391,0.227-0.598,0.308c-0.305,0.118-0.439,0.33-0.287,0.601
			c0.184,0.331,0.133,0.603-0.055,0.917c-0.27,0.458-0.43,1.021-0.195,1.482c0.27,0.531,0.283,1.046,0.285,1.593
			c0.002,0.11,0.027,0.236,0.086,0.327c0.346,0.542,0.688,1.089,1.072,1.606c0.152,0.207,0.475,0.523,0.602,0.475
			c0.352-0.136,0.762,0.032,1.086-0.289c0.289-0.292,0.568-0.19,0.77,0.154c0.057,0.096,0.176,0.155,0.262,0.235
			c0.09,0.083,0.229,0.163,0.25,0.265c0.055,0.279,0.072,0.57,0.082,0.855c0.006,0.278-0.045,0.56-0.023,0.834
			C86.634,93.662,86.718,94.184,86.783,94.687z M74.128,79.143c-0.236-0.584,0.33-0.466,0.541-0.653
			c-0.252-0.541-1.447-0.939-2.129-0.69c0.156,0.099,0.293,0.158,0.395,0.258c0.145,0.14,0.332,0.29,0.375,0.467
			C73.414,78.966,73.566,79.125,74.128,79.143z M69.785,78.98c-0.524,0.201-1.037,0.398-1.55,0.595
			c0.006,0.037,0.006,0.075,0.01,0.111c0.281,0.115,0.557,0.25,0.847,0.327c0.1,0.026,0.293-0.07,0.344-0.164
			C69.576,79.584,69.664,79.294,69.785,78.98z M80.9,80.561c-0.031,0.847,0.502,1.174,1.213,1.484c0-0.189,0.057-0.38-0.006-0.441
			C81.728,81.246,81.322,80.919,80.9,80.561z M82.197,83.335c-0.115-0.346-0.221-0.659-0.328-0.979
			c-0.227,0.037-0.418,0.067-0.65,0.104C81.476,82.824,81.58,83.311,82.197,83.335z M83.373,83.154
			c-0.297-0.211-0.57-0.405-0.842-0.601c-0.021,0.014-0.043,0.029-0.063,0.041c0.096,0.24,0.193,0.479,0.293,0.721
			C82.986,83.256,83.169,83.207,83.373,83.154z"/>
		<path fill="none" stroke="#000000" stroke-width="0.2883" stroke-linejoin="round" stroke-miterlimit="10" d="M82.207,84.898
			c0.346-0.153,1-1.028,1.385-0.907c0.1,0.414-0.34,0.875-0.58,1.169c-0.438,0.542-0.873,1.064-1.277,1.63
			c0.727-0.696,1.697-1.544,2.639-1.997c0.186,0.462-0.676,1.474-0.951,1.857c-0.375,0.521-0.848,0.988-1.211,1.493
			c0.217-0.905,1.814-2.086,2.639-2.537c0.223,0.389-0.574,1.58-0.766,1.946c-0.328,0.619-0.707,1.261-1.068,1.852
			c0.201-0.696,0.93-1.273,1.404-1.794c0.23-0.252,0.484-0.563,0.756-0.732c0.074,1.221-0.674,2.453-1.104,3.58
			c0.473-0.769,1.072-1.798,1.787-2.35c0.365,0.377-0.225,1.585-0.377,1.994c-0.158,0.433-0.383,0.911-0.443,1.368
			c0.066-0.527,0.885-2.023,1.531-2.053c0.066,0.582-0.334,1.107-0.42,1.66c0.16-0.165,0.291-0.372,0.518-0.41
			c0.018,0.378-0.066,0.729-0.082,1.093c0.055-0.003,0.121,0.012,0.178,0.014c0.023,0.271-0.104,0.517-0.18,0.756
			c0.055-0.021,0.172-0.018,0.229-0.037c0.045,0.33-0.221,0.557-0.277,0.856c0.701-0.008,0.15,0.818,0.188,0.868"/>
		<path fill="none" stroke="#000000" stroke-width="0.2883" stroke-linejoin="round" stroke-miterlimit="10" d="M71.396,80.764
			c0.098-0.536-0.512-1.142-1.001-1.189c-0.125,0.781,0.679,1.219,0.562,1.902c-0.556,0.148-0.871-1.094-1.304-1.372
			c-0.176,0.687,0.145,1.441,0.242,2.104c0.051,0.334,0.289,1.253-0.324,0.814c-0.481-0.347-0.489-1.508-0.68-2.02
			c-0.157-0.42-0.351-0.827-0.522-1.233c0.012,0.727,0.104,1.313,0.203,1.989c0.045,0.289,0.197,1.604-0.33,1.364
			c-0.271-0.122-0.451-1.334-0.498-1.604c-0.102-0.608-0.088-1.245-0.094-1.863c-0.008-0.832-0.22-1.144-1.145-0.805
			c0.004,0.378,0.205,0.771,0.337,1.129c0.283,0.75,0.482,1.405,0.518,2.205c0.027,0.597,0.012,1.2,0.241,1.761
			c0.182,0.45,0.463,0.834,0.477,1.328c-0.543,0.016-1.177-1.341-1.436-1.738c-0.473-0.719-0.801-1.562-0.951-2.403
			c-0.076-0.407-0.234-2.156-1.12-1.295c-0.567,0.552,0.503,2.208,0.764,2.743c0.192,0.397,0.396,0.763,0.55,1.162
			c0.13,0.347,0.12,0.709,0.223,1.061c-0.753,0.332-1.229-1.861-1.373-2.309c-0.219-0.667-0.627-1.601-1.11-2.092
			c-0.074,0.873,0.495,1.907,0.769,2.739c0.136,0.408,0.224,0.806,0.329,1.224c0.093,0.367,0.374,0.761,0.329,1.146
			c-0.505,0.014-1.254-1.691-1.473-2.097c-0.268-0.491-0.549-0.999-0.783-1.49c-0.947-0.152,0.023,1.309,0.146,1.557
			c0.293,0.596,0.539,1.394,0.96,1.907c-0.364,0.063-0.676-0.557-0.994-0.725c-0.348-0.185-0.822-0.166-1.207-0.146
			c0.082,0.228,0.763,0.392,1.016,0.568c0.347,0.246,0.599,0.557,0.801,0.906c-0.568,0.017-0.997-0.333-1.185,0.346
			c-0.271,0.969,0.202,0.665,0.846,0.781c0.088,0.377-0.271,0.612-0.229,0.989c0.477,0.032,0.945-0.324,1.38-0.229
			c0.012,0.229,0.033,0.458-0.048,0.672c0.375-0.017,0.771-0.302,1.252-0.239c-0.156,0.347-0.233,0.71-0.235,1.004"/>
		<path fill="none" stroke="#000000" stroke-width="0.2883" stroke-linejoin="round" stroke-miterlimit="10" d="M67.707,91.025
			c0.684-0.834,1.231-0.598,1.99-1.094c-0.264,0.367-0.919,0.487-1.349,0.765c-0.521,0.337-1.079,0.819-1.483,1.258
			c1.733,0.259,2.684-1.643,4.225-1.763c0.148,1.229-3.754,2.512-4.697,3.175c1.151,0.272,2.777-1.078,3.791-1.564
			c0.638-0.305,1.083-0.464,1.758-0.58c-0.307,0.957-2.027,1.422-2.819,1.877c-0.706,0.408-1.693,0.918-2.168,1.59
			c1.474,0.004,3.411-1.743,4.69-2.465c0.609-0.344,1.367-0.839,1.988-1c0.186,1.363-2.834,2.283-3.742,2.869
			c-0.624,0.405-1.263,1.131-1.966,1.369c2.205,0.076,4.279-2.118,6.185-2.917c-0.389,1.224-2.568,1.979-3.641,2.537
			c-0.625,0.322-2.199,0.839-2.38,1.588c1.841-0.064,3.666-1.411,5.308-2.153c0.59-0.267,2.023-1.039,2.693-1.023
			c0.195,2.322-4.899,3.088-6.301,4.288c1.544-0.512,3.197-1.121,4.619-1.875c0.846-0.45,2.23-0.962,3.197-0.81
			c0,2.075-6.795,1.579-7.629,3.653c2.076-0.002,3.881-1.498,5.926-1.387c-0.348,0.977-2.553,1.467-3.475,1.775
			c-0.989,0.33-2.182,0.48-2.999,1.113c1.775,0.229,3.458-1.285,5.247-1.006c0.09,0.863-1.541,1.146-2.18,1.215
			c-1.088,0.115-1.975,0.314-3.012,0.662c0.742-0.02,2.588-0.297,3.381,0.184c-0.848,0.152-2.881,0.07-3.164,1.021
			c0.432,0.082,0.883,0.248,1.296,0.414c-0.47,0.35-2.031,1.018-0.271,1.207"/>
	</g>
</g>
</svg>
