<?xml version="1.0" encoding="utf-8"?>
<!-- Generator: Adobe Illustrator 16.0.0, SVG Export Plug-In . SVG Version: 6.00 Build 0)  -->
<!DOCTYPE svg PUBLIC "-//W3C//DTD SVG 1.1//EN" "http://www.w3.org/Graphics/SVG/1.1/DTD/svg11.dtd">
<svg version="1.1" xmlns="http://www.w3.org/2000/svg" xmlns:xlink="http://www.w3.org/1999/xlink" x="0px" y="0px"
	 width="170.333px" height="169.164px" viewBox="0 0 170.333 169.164" enable-background="new 0 0 170.333 169.164"
	 xml:space="preserve">
<g id="Vectores">
</g>
<g id="Imagenes">
</g>
<g id="Cintillos">
</g>
<g id="BOtones">
</g>
<g id="Logos">
</g>
<g id="Igonos">
</g>
<g id="TXT">
	<g>
		<path fill-rule="evenodd" clip-rule="evenodd" d="M82.869,142.995c-31.282,0.135-58.847-25.616-58.16-59.991
			c0.659-33.322,27.809-57.894,59.038-57.549c30.814,0.336,58.824,25.629,57.688,61.253c-0.498,15.688-6.744,29.286-18.225,40.198
			C111.932,137.63,98.416,142.925,82.869,142.995z M47.547,40.818c-0.074-0.069-0.153-0.135-0.223-0.209
			c-0.114,0.065-0.24,0.117-0.341,0.205c-0.621,0.52-1.25,1.026-1.835,1.581c-14.87,14.167-20.453,31.553-17.352,51.66
			c2.761,17.945,12.927,30.862,28.557,39.6c3.411,1.909,7.199,3.202,10.907,4.513c1.468,0.516,3.189,0.922,4.779-0.127
			c0.38-0.249,1.049-0.101,1.581-0.057c1.844,0.135,3.691,0.301,5.496,0.45c0.672-2.774,1.459-3.119,5.635-2.7
			c-0.542,0.625-1.079,1.236-1.599,1.844c0.122-0.014,0.249-0.031,0.376-0.039c0.314,0.834,0.624,1.668,0.991,2.669
			c0.345-0.035,1.009-0.083,1.673-0.171c4.779-0.65,9.384-2.341,14.268-2.433c0.476-0.009,0.956-0.201,1.433-0.323
			c3.766-0.966,7.304-2.499,10.51-4.67c7.051-4.779,13.936-9.663,17.562-17.924c1.913-4.359,3.844-8.649,4.766-13.345
			c0.376-1.923,1.157-3.766,1.551-5.692c0.358-1.77,0.677-3.608,0.59-5.391c-0.14-2.84-1.192-5.631-0.389-8.531
			c0.069-0.263-0.131-0.712-0.358-0.913c-0.66-0.599-1.39-1.114-2.224-1.77c0.122-0.069-0.083-0.018-0.166,0.114
			c-1.28,1.913-3.582,0.472-5.12,1.56c-0.083,0.057-0.371-0.058-0.489-0.171c-1.279-1.175-2.655-2.275-3.787-3.591
			c-0.935-1.101-1.512-2.49-2.35-3.683c-1.075-1.524-2.093-2.975-1.778-5.027c0.236-1.564,0.122-3.137-1.14-4.382
			c-0.219-0.214-0.293-0.682-0.245-1.009c0.201-1.643,0.228-3.364,0.777-4.889c0.568-1.555,1.18-2.944,0.429-4.608
			c-0.18-0.397,0.1-1.053,0.292-1.547c0.302-0.799-0.104-1.083-0.725-1.445c-0.773-0.441-1.56-0.957-2.137-1.625
			c-0.664-0.765-1.044-1.773-1.643-2.604c-1.17-1.607-1.145-1.918,0.568-3.075c-0.319-0.201-0.599-0.433-0.922-0.564
			c-1.655-0.689-1.682-0.781-1.175-2.56c0.101-0.323-0.009-0.816-0.21-1.101c-0.874-1.201-1.56-2.63-3.377-2.73
			c-0.389-0.021-0.777-0.41-1.127-0.682c-3.128-2.363-6.399-4.425-10.257-5.442c-0.86-0.231-1.577-0.249-2.35,0.502
			c0.965,0.188,1.777,0.354,2.586,0.516c-1.394,0.253-2.783,0.288-4.15,0.48s-2.582,0.699-2.992,2.228
			c-0.258,0.948-0.961,1.197-1.861,1.188c-3.049-0.039-4.735-2.07-6.246-4.294c-1.014-1.498-1.245-1.651-2.914-1.118
			c0.669,0.502,1.913,1,1.953,1.572c0.043,0.773-0.839,1.599-1.284,2.328c0.698,1.831,2.358,2.573,3.939,3.46
			c0.468,0.258,0.936,1.066,0.87,1.551c-0.075,0.581-0.607,1.363-1.141,1.573c-1.171,0.476-2.473,0.629-3.709,0.974
			c-0.314,0.087-0.555,0.424-0.738,0.576c0.975,0.612,1.822,1.153,2.822,1.796c-2.429,1.568-4.735,2.407-7.526,1.752
			c0.157,1.507-0.844,1.66-1.796,2.171c-1.223,0.65-2.507,1.69-3.093,2.896c-0.428,0.878-0.76,1.572-1.599,2.026
			c-0.673,0.358-1.332,0.747-1.987,1.123c-1.813,1.048-1.853,1.267-1.639,3.346c0.092,0.936,0.07,2.006-0.297,2.84
			c-0.581,1.346-1.944,1.402-2.73,0.161c-0.507-0.799-0.703-1.786-1.083-2.804c-1.145-0.839-2.407-0.909-3.744,0.117
			c-0.384,0.307-1.148,0.529-1.551,0.354c-1.463-0.634-2.646-0.703-3.307,0.463c-0.899,1.599-1.563,3.359-2.093,5.124
			c-0.152,0.516,0.394,1.712,0.826,1.826c0.782,0.214,1.826,0.275,2.381-0.853c0.638-1.302,1.747-2.005,3.245-1.996
			c1.674,0.018,2.289,0.927,1.621,2.464c-0.424,0.957-0.935,1.874-1.477,2.932c0.599,0,0.991-0.014,1.394,0.004
			c2.022,0.062,2.979,1.551,2.346,3.455c-0.253,0.765-0.306,1.647-0.223,2.455c0.039,0.311,0.708,0.77,1.101,0.773
			c1.271,0.009,2.543-0.161,4.115-0.284c0.415-1.14,1.786-1.599,3.229-2.236c1.874-0.839,3.342-0.777,4.844,0.524
			c0.708,0.616,1.494,0.76,2.351,0.297c0.267-0.14,0.576-0.192,0.982-0.327c-0.069,0.389-0.117,0.655-0.157,0.908
			c0.879-0.101,1.9-0.546,2.451-0.214c1.795,1.109,3.407,2.507,5.111,3.774c0.41,0.301,0.926,0.76,1.332,0.694
			c1.782-0.279,3.481,0.231,4.647,1.306c1.171,1.079,1.766,2.783,2.644,4.189c0.218,0.354,0.498,0.786,0.852,0.931
			c0.987,0.401,2.241,0.415,3.001,1.049c1.323,1.101,2.774,1.302,4.351,1.476c0.752,0.088,1.564,0.394,2.185,0.83
			c0.813,0.581,1.323,1.56,2.556,1.42c0.244-0.026,0.594,0.38,0.795,0.66c0.913,1.302,0.957,3.547-0.014,4.831
			c-0.891,1.171-1.957,2.219-2.865,3.381c-0.371,0.472-0.708,1.109-0.751,1.695c-0.271,3.102-1.66,5.7-3.465,8.116
			c-0.266,0.358-0.786,0.611-1.24,0.743c-1.219,0.349-2.455,0.668-3.704,0.882c-0.992,0.166-1.516,0.651-1.604,1.651
			c-0.166,1.9-1.231,3.202-2.791,4.202c-0.346,0.223-0.66,0.577-0.844,0.948c-0.646,1.311-1.611,2.224-3.005,2.69
			c-0.302,0.101-0.699,0.319-0.777,0.572c-0.542,1.748-1.87,2.386-3.513,2.652c-0.332,0.057-0.751,0.157-0.935,0.393
			c-0.97,1.192-1.874,2.434-2.77,3.613c0.848,1.41,0.804,1.694-0.223,2.821c-0.424,0.477-1.254,1.145-0.302,1.59
			c1.438,0.687,1.826,1.604,1.45,2.805c-0.742,0-1.489,0-2.232,0c-1.673-0.009-3.293-0.489-4.022-1.979
			c-0.927-1.913-3.023-3.294-2.421-5.989c0.337-1.524-0.349-3.245-0.271-4.854c0.136-2.687,0.813-5.324,0.524-8.077
			c-0.175-1.659,0.044-3.407,0.367-5.063c0.585-2.957-0.563-4.582-3.342-5.574c-1.062-0.376-2.023-1.454-2.687-2.446
			c-1.577-2.358-2.984-4.836-4.391-7.3c-0.397-0.694-0.729-1.511-0.791-2.293c-0.083-1.062,0.21-2.145,0.201-3.22
			c-0.03-2.157,1.521-3.407,2.717-4.818c1.093-1.288,1.224-2.148,0.162-3.643c-1.468,0.922-1.547,0.917-2.932-0.101
			c-0.175-0.131-0.375-0.228-0.559-0.35c-1.097-0.646-2.202-1.284-3.268-1.975c-0.192-0.122-0.354-0.463-0.341-0.69
			c0.096-1.572-1-2.149-2.188-2.455c-1.507-0.393-2.766-1.009-3.272-2.184c-1.161-0.109-2.157,0.03-2.931-0.319
			c-1.45-0.668-2.826-1.533-4.128-2.473c-1.241-0.887-2.036-2.058-1.049-3.678c0.127-0.196,0.048-0.511,0.065-0.887
			c-0.537,0.327-0.982,0.607-1.459,0.904c-1.756-2.014-1.839-4.382-1.551-6.85c0.166-1.354,0.288-2.713,0.367-4.071
			c0.039-0.729-0.219-1.49-0.062-2.176c0.621-2.809,2.255-5.028,4.251-7.033C46.249,42.256,46.887,41.521,47.547,40.818z
			 M80.567,121.122c0.41-1.537,0.41-1.528,2.101-1.643c0.446-0.026,0.896-0.087,1.315-0.223c0.855-0.271,1.214-0.673,0.507-1.551
			c-0.284-0.354-0.446-1.105-0.263-1.463c0.148-0.284,0.957-0.433,1.394-0.328c2.141,0.528,2.66,0.275,3.691-1.669
			c0.358-0.672,0.939-1.341,1.59-1.721c1.102-0.638,1.651-1.406,1.87-2.717c0.148-0.883,0.825-1.988,1.59-2.403
			c1.45-0.786,3.132-1.148,4.718-1.703c0.249-0.083,0.586-0.14,0.699-0.323c1.271-2.036,2.429-4.11,2.796-6.57
			c0.271-1.848,0.839-3.66,1.279-5.486c0.123,0.026,0.24,0.057,0.367,0.087c0.021,0.542,0.048,1.093,0.092,2.071
			c0.975-1.276,1.782-2.167,2.402-3.181c0.62-1.022,0.206-1.8-0.908-2.21c-0.445-0.171-0.979-0.406-1.224-0.778
			c-1.148-1.738-2.961-1.634-4.656-1.668c-0.943-0.022-1.625-0.136-2.158-0.966c-0.484-0.765-1.21-1.188-2.035-0.551
			c-1.079,0.844-2.049,1.923-3.229,0.157c-0.044-0.069-0.262-0.013-0.389-0.048c-1.275-0.401-1.556-1.472-0.616-2.446
			c0.271-0.284,0.66-0.458,0.913-0.62c-0.406-0.813-0.668-1.328-0.922-1.853c-0.825-1.717-2.315-2.533-4.241-2.311
			c-1.883,0.219-2.289-0.039-3.324-1.761c-0.228-0.375-0.782-0.742-1.215-0.777c-0.751-0.053-1.148-0.253-1.563-0.956
			c-0.267-0.45-1.167-0.743-1.778-0.734c-1.966,0.026-3.857-0.039-5.569-1.328c-0.844,0.494-1.739,1.158-2.687,0.065
			c-0.105-0.118-0.568-0.092-0.726,0.035c-0.804,0.655-1.604,1.337-2.346,2.066c-0.883,0.865-1.148,1.83-0.878,3.154
			c0.179,0.891-0.21,2.048-0.69,2.892c-0.524,0.935-1.529,1.603-2.158,2.503c-0.323,0.454-0.576,1.485-0.341,1.703
			c0.909,0.856,0.717,1.591,0.018,2.315c-0.721,0.761-0.516,1.328,0.035,2.097c1.241,1.743,2.612,3.456,3.469,5.387
			c0.97,2.215,2.367,3.651,4.573,4.578c1.888,0.795,2.792,2.275,2.652,4.504c-0.228,3.468-0.162,6.963-0.271,10.44
			c-0.03,0.838-0.31,1.664-0.401,2.503c-0.136,1.258-0.21,2.516-0.314,3.774c0.131,0.013,0.253,0.025,0.384,0.034
			c0.219-0.231,0.441-0.463,0.83-0.887c0,2.49-0.018,4.709,0.018,6.933c0.009,0.883,0.341,1.577,1.337,1.568
			c0.546-0.716,1.062-1.367,1.616-2.079c-0.931-1.005-0.979-1.944,0.367-2.791c0.31-0.192,0.546-0.83,0.484-1.215
			C78.519,121.389,78.846,120.991,80.567,121.122z M66.501,29.767c-2.451,0.987-4.937,2.119-7.509,2.983
			c-2.753,0.931-4.36,3.255-6.496,4.915c-0.97,0.751-1.651,1.585-1.87,2.826c-0.083,0.445-0.35,1.113-0.694,1.228
			c-1.655,0.567-2.328,2.162-3.534,3.185c-1.769,1.498-2.586,3.551-3.197,5.644c-0.205,0.708,0.201,1.874,0.733,2.434
			c0.734,0.756,1.01,1.385,0.695,2.358c-0.118,0.363-0.157,0.8-0.074,1.162c0.375,1.556,0.838,3.089,1.196,4.648
			c0.157,0.686,0.406,1.555,0.131,2.101c-0.733,1.473,0.245,2.014,1.149,2.651c0.581,0.411,1.205,0.765,1.821,1.136
			c0.795,0.477,1.564,0.73,2.517,0.267c0.891-0.424,1.56,0.053,2.171,0.821c0.52,0.66,1.271,1.494,1.996,1.582
			c1.826,0.214,2.84,1.279,3.713,2.682c0.07,0.105,0.18,0.188,0.224,0.24c0.297-1.083,0.572-2.105,0.904-3.312
			c-1.626,0-3.189,0-4.753,0c-0.157-1.166,1.302-2.088,0.38-3.058c-1.044,0.21-1.953,0.319-2.813,0.581
			c-1.136,0.341-1.943-0.104-2.556-0.961c-0.878-1.223-1.223-2.639-0.821-4.08c0.441-1.581,1.022-3.141,1.695-4.63
			c0.253-0.56,0.874-1.123,1.446-1.324c1.848-0.633,3.713-1.358,5.63-1.56c1.909-0.196,3.889,0.192,5.88,0.323
			c0.298-1.607,1.639-2.524,3.172-3.294c0.904-0.454,1.809-0.86,1.966-2.14c0.14-1.075,0.65-2.11,1.097-3.456
			c0.52,0.572,0.703,0.77,0.703,0.77c0.865-0.429,1.616-0.778,2.342-1.167c0.279-0.144,0.733-0.367,0.742-0.572
			c0.062-1.053,0.786-1.205,1.581-1.424c0.856-0.231,1.704-0.555,2.512-0.922c0.236-0.109,0.341-0.516,0.512-0.782
			c-0.088-0.074-0.175-0.152-0.258-0.227c-0.503,0.275-0.97,0.659-1.503,0.795c-0.48,0.127-1.026-0.03-1.538-0.062
			c0.145-0.502,0.123-1.196,0.45-1.468c1.568-1.279,3.324-2.114,5.456-1.677c0.975,0.205,1.805-0.07,2.508-0.975
			c-1.42-0.533-2.888-0.887-3.106-2.743c-1.576,0.878-2.708,0.865-3.595-0.699c-0.223-0.384-1.171-0.655-1.643-0.507
			c-0.336,0.101-0.433,0.996-0.643,1.529c-0.205,0.498-0.297,1.254-0.663,1.433c-0.979,0.48-1.849,0.878-1.783,2.171
			c0,0.136-0.214,0.275-0.314,0.42c-0.458,0.624-0.917,1.258-1.319,1.813c-1.175-1.729-1.533-4.805-4.9-4.866
			c-0.743-2.42-0.604-2.778,1.603-3.94c0.726-0.385,1.477-0.733,2.354-1.166C68.711,31.51,67.27,31.676,66.501,29.767z
			 M138.95,92.182c0.079-0.437,0.219-1,0.275-1.568c1.083-10.519-0.546-20.614-4.84-30.272c-1.294-2.909-2.927-5.526-5.862-7.12
			c-0.568-0.314-1.07-1.019-1.285-1.647c-0.327-0.979-0.864-1.367-1.769-1.018c-0.791,0.293-1.485,0.865-2.276,1.171
			c-1.166,0.454-1.678,1.258-1.101,2.293c0.703,1.263,0.516,2.298-0.201,3.499c-1.035,1.748-1.643,3.896-0.751,5.653
			c1.03,2.026,1.083,3.992,1.092,6.08c0.009,0.424,0.104,0.904,0.328,1.25c1.319,2.066,2.621,4.154,4.084,6.129
			c0.585,0.79,1.817,1.996,2.298,1.809c1.346-0.516,2.914,0.122,4.142-1.102c1.109-1.113,2.171-0.729,2.943,0.59
			c0.215,0.367,0.669,0.59,0.996,0.896c0.341,0.319,0.87,0.62,0.953,1.01c0.209,1.069,0.279,2.175,0.314,3.267
			c0.025,1.058-0.175,2.132-0.088,3.176C138.378,88.276,138.701,90.265,138.95,92.182z M90.667,32.877
			c-0.909-2.228,1.258-1.782,2.062-2.494c-0.961-2.063-5.521-3.587-8.125-2.635c0.599,0.376,1.118,0.604,1.507,0.983
			c0.551,0.533,1.267,1.109,1.429,1.782C87.94,32.2,88.518,32.807,90.667,32.877z M74.093,32.257c-2,0.769-3.957,1.52-5.914,2.267
			c0.013,0.145,0.018,0.289,0.03,0.424c1.074,0.438,2.127,0.957,3.241,1.25c0.371,0.101,1.114-0.267,1.307-0.625
			C73.294,34.559,73.63,33.453,74.093,32.257z M116.501,38.285c-0.122,3.229,1.914,4.478,4.631,5.666
			c0-0.726,0.214-1.451-0.03-1.687C119.655,40.901,118.104,39.652,116.501,38.285z M121.45,48.869
			c-0.44-1.318-0.847-2.516-1.253-3.73c-0.865,0.14-1.595,0.254-2.481,0.394C118.703,46.921,119.092,48.777,121.45,48.869z
			 M125.937,48.18c-1.136-0.804-2.175-1.547-3.215-2.289c-0.083,0.052-0.161,0.109-0.235,0.157c0.366,0.913,0.733,1.826,1.113,2.747
			C124.456,48.572,125.159,48.385,125.937,48.18z"/>
		<path fill="none" stroke="#000000" stroke-width="1.0999" stroke-linejoin="round" stroke-miterlimit="10" d="M121.49,54.837
			c1.314-0.586,3.809-3.923,5.281-3.46c0.38,1.581-1.302,3.338-2.215,4.46c-1.669,2.066-3.329,4.059-4.875,6.217
			c2.77-2.656,6.474-5.889,10.073-7.619c0.708,1.761-2.582,5.622-3.635,7.086c-1.433,1.992-3.232,3.774-4.621,5.696
			c0.83-3.451,6.924-7.955,10.073-9.676c0.852,1.48-2.197,6.028-2.927,7.422c-1.25,2.363-2.695,4.81-4.076,7.067
			c0.773-2.66,3.548-4.861,5.36-6.845c0.878-0.961,1.844-2.149,2.883-2.796c0.288,4.661-2.568,9.361-4.206,13.664
			c1.804-2.936,4.084-6.862,6.818-8.968c1.39,1.441-0.856,6.046-1.438,7.609c-0.606,1.651-1.463,3.478-1.694,5.22
			c0.253-2.014,3.377-7.719,5.845-7.832c0.249,2.219-1.275,4.225-1.604,6.334c0.612-0.629,1.11-1.424,1.975-1.563
			c0.07,1.441-0.253,2.778-0.314,4.167c0.21-0.009,0.463,0.044,0.678,0.053c0.091,1.031-0.398,1.97-0.682,2.883
			c0.205-0.083,0.65-0.069,0.869-0.14c0.175,1.258-0.843,2.123-1.053,3.264c2.669-0.026,0.567,3.123,0.712,3.315"/>
		<path fill="none" stroke="#000000" stroke-width="1.0999" stroke-linejoin="round" stroke-miterlimit="10" d="M80.239,39.063
			c0.371-2.049-1.957-4.355-3.822-4.543c-0.48,2.983,2.595,4.652,2.149,7.26c-2.132,0.568-3.329-4.176-4.98-5.237
			c-0.677,2.621,0.547,5.504,0.922,8.029c0.192,1.275,1.102,4.778-1.236,3.105c-1.834-1.323-1.869-5.753-2.595-7.705
			c-0.603-1.6-1.336-3.154-1.996-4.705c0.048,2.773,0.397,5.006,0.782,7.592c0.17,1.102,0.742,6.116-1.271,5.203
			c-1.026-0.463-1.717-5.089-1.892-6.12c-0.393-2.319-0.336-4.748-0.358-7.107c-0.034-3.176-0.843-4.364-4.368-3.071
			c0.014,1.446,0.777,2.94,1.284,4.308c1.084,2.861,1.844,5.36,1.975,8.413c0.105,2.276,0.048,4.578,0.918,6.715
			c0.698,1.721,1.765,3.188,1.821,5.071c-2.07,0.057-4.486-5.115-5.479-6.631c-1.804-2.743-3.053-5.959-3.63-9.17
			c-0.288-1.555-0.891-8.226-4.272-4.944c-2.166,2.105,1.918,8.427,2.914,10.467c0.734,1.516,1.512,2.913,2.093,4.438
			c0.498,1.319,0.463,2.704,0.855,4.041c-2.874,1.267-4.695-7.099-5.241-8.807c-0.835-2.542-2.39-6.106-4.237-7.98
			c-0.28,3.333,1.892,7.277,2.936,10.453c0.515,1.555,0.852,3.071,1.253,4.67c0.354,1.402,1.429,2.9,1.254,4.372
			c-1.926,0.053-4.783-6.456-5.617-7.998c-1.019-1.878-2.093-3.813-2.988-5.688c-3.617-0.581,0.088,4.993,0.56,5.94
			c1.118,2.272,2.053,5.316,3.66,7.278c-1.389,0.24-2.577-2.123-3.792-2.766c-1.327-0.707-3.136-0.633-4.604-0.559
			c0.314,0.869,2.909,1.498,3.87,2.171c1.328,0.935,2.289,2.123,3.058,3.455c-2.167,0.065-3.801-1.267-4.517,1.319
			c-1.035,3.7,0.769,2.538,3.224,2.983c0.337,1.434-1.031,2.337-0.869,3.774c1.817,0.122,3.608-1.24,5.264-0.873
			c0.044,0.869,0.127,1.747-0.184,2.56c1.429-0.062,2.944-1.153,4.779-0.913c-0.594,1.323-0.892,2.708-0.9,3.831"/>
		<path fill="none" stroke="#000000" stroke-width="1.0999" stroke-linejoin="round" stroke-miterlimit="10" d="M66.169,78.216
			c2.6-3.185,4.691-2.28,7.588-4.176c-1.014,1.402-3.508,1.861-5.15,2.918c-1.987,1.284-4.115,3.128-5.657,4.797
			c6.614,0.991,10.235-6.265,16.119-6.724c0.568,4.684-14.323,9.585-17.923,12.114c4.39,1.039,10.593-4.115,14.464-5.968
			c2.438-1.162,4.132-1.773,6.705-2.215c-1.166,3.656-7.732,5.426-10.751,7.164c-2.69,1.556-6.465,3.499-8.269,6.068
			c5.622,0.009,13.009-6.653,17.893-9.405c2.324-1.315,5.211-3.206,7.583-3.818c0.708,5.198-10.815,8.711-14.28,10.947
			c-2.38,1.547-4.818,4.312-7.5,5.225c8.409,0.288,16.324-8.081,23.598-11.131c-1.48,4.67-9.798,7.554-13.892,9.677
			c-2.385,1.231-8.387,3.206-9.077,6.067c7.024-0.245,13.979-5.391,20.247-8.222c2.255-1.018,7.72-3.966,10.279-3.905
			c0.742,8.863-18.696,11.781-24.044,16.364c5.897-1.957,12.205-4.276,17.627-7.155c3.228-1.717,8.514-3.67,12.196-3.089
			c0,7.916-25.918,6.024-29.106,13.936c7.924-0.005,14.813-5.714,22.61-5.29c-1.328,3.73-9.741,5.596-13.258,6.775
			c-3.77,1.258-8.326,1.834-11.437,4.254c6.775,0.865,13.192-4.905,20.012-3.844c0.35,3.298-5.875,4.377-8.313,4.635
			c-4.149,0.441-7.535,1.206-11.493,2.529c2.836-0.074,9.882-1.131,12.904,0.703c-3.232,0.581-10.999,0.267-12.074,3.893
			c1.647,0.314,3.368,0.952,4.95,1.586c-1.796,1.328-7.754,3.874-1.036,4.6"/>
	</g>
</g>
<g id="Guias">
</g>
</svg>
