<?xml version="1.0" encoding="utf-8"?>
<!-- Generator: Adobe Illustrator 16.0.0, SVG Export Plug-In . SVG Version: 6.00 Build 0)  -->
<!DOCTYPE svg PUBLIC "-//W3C//DTD SVG 1.1//EN" "http://www.w3.org/Graphics/SVG/1.1/DTD/svg11.dtd">
<svg version="1.1" id="Capa_1" xmlns="http://www.w3.org/2000/svg" xmlns:xlink="http://www.w3.org/1999/xlink" x="0px" y="0px"
	 width="26.512px" height="26.088px" viewBox="0 0 26.512 26.088" enable-background="new 0 0 26.512 26.088" xml:space="preserve">
<g id="Vectores">
</g>
<g id="Imagenes">
</g>
<g id="Cintillos">
</g>
<g id="BOtones">
</g>
<g id="Logos">
</g>
<g id="Igonos">
</g>
<g id="TXT_1_">
	<g>
		<path d="M13.757,25.361C7.201,25.39,1.425,19.992,1.568,12.789C1.706,5.805,7.396,0.655,13.941,0.727
			C20.4,0.799,26.271,6.1,26.032,13.564c-0.104,3.288-1.415,6.139-3.82,8.425C19.848,24.236,17.015,25.346,13.757,25.361z
			 M6.355,3.948C6.339,3.934,6.322,3.92,6.308,3.904C6.285,3.918,6.258,3.928,6.236,3.947c-0.13,0.108-0.262,0.216-0.384,0.331
			c-3.116,2.97-4.287,6.613-3.638,10.826c0.58,3.76,2.71,6.47,5.986,8.301c0.715,0.4,1.508,0.671,2.285,0.945
			c0.308,0.107,0.667,0.193,1.002-0.026c0.08-0.051,0.219-0.021,0.332-0.012c0.387,0.027,0.773,0.062,1.151,0.095
			c0.142-0.584,0.306-0.655,1.181-0.567c-0.113,0.132-0.225,0.258-0.334,0.387c0.023-0.004,0.051-0.008,0.079-0.008
			c0.063,0.173,0.131,0.348,0.206,0.559c0.074-0.008,0.213-0.02,0.352-0.036c1.001-0.137,1.966-0.491,2.99-0.511
			c0.099-0.002,0.2-0.042,0.3-0.066c0.789-0.204,1.531-0.525,2.203-0.98c1.477-1,2.92-2.025,3.681-3.756
			c0.4-0.913,0.805-1.812,0.998-2.797c0.079-0.403,0.241-0.787,0.324-1.193c0.077-0.37,0.143-0.755,0.123-1.128
			c-0.027-0.595-0.247-1.18-0.079-1.787c0.015-0.057-0.028-0.15-0.078-0.192c-0.137-0.125-0.288-0.232-0.465-0.37
			c0.024-0.016-0.016-0.004-0.034,0.023c-0.27,0.4-0.75,0.098-1.073,0.326c-0.016,0.012-0.078-0.012-0.104-0.035
			c-0.269-0.248-0.556-0.477-0.793-0.754c-0.197-0.229-0.316-0.521-0.492-0.771c-0.225-0.318-0.44-0.621-0.373-1.053
			c0.051-0.327,0.025-0.657-0.239-0.919c-0.045-0.044-0.061-0.143-0.051-0.212c0.043-0.344,0.049-0.703,0.162-1.023
			c0.118-0.325,0.25-0.616,0.091-0.965c-0.038-0.084,0.02-0.221,0.061-0.324c0.063-0.168-0.021-0.227-0.151-0.303
			c-0.162-0.094-0.328-0.201-0.448-0.341c-0.14-0.161-0.219-0.372-0.344-0.547c-0.247-0.335-0.24-0.401,0.118-0.645
			c-0.066-0.042-0.126-0.091-0.193-0.117c-0.347-0.146-0.352-0.164-0.245-0.538c0.021-0.066-0.003-0.17-0.045-0.23
			c-0.185-0.25-0.326-0.55-0.71-0.572c-0.081-0.004-0.162-0.085-0.235-0.143c-0.654-0.496-1.341-0.928-2.148-1.141
			c-0.182-0.051-0.33-0.053-0.492,0.105c0.2,0.039,0.373,0.074,0.541,0.107c-0.292,0.053-0.582,0.061-0.868,0.102
			c-0.287,0.04-0.541,0.146-0.627,0.467c-0.056,0.199-0.202,0.25-0.391,0.25c-0.64-0.008-0.992-0.435-1.309-0.9
			c-0.213-0.315-0.261-0.347-0.611-0.234c0.141,0.105,0.402,0.21,0.41,0.328c0.008,0.163-0.178,0.336-0.27,0.488
			c0.146,0.383,0.494,0.539,0.826,0.726c0.097,0.054,0.195,0.222,0.182,0.325c-0.016,0.119-0.129,0.283-0.24,0.329
			c-0.244,0.099-0.518,0.132-0.777,0.204c-0.065,0.018-0.116,0.088-0.154,0.121c0.205,0.127,0.383,0.24,0.592,0.376
			c-0.51,0.328-0.992,0.505-1.578,0.367c0.033,0.315-0.178,0.349-0.377,0.456c-0.255,0.137-0.526,0.352-0.648,0.605
			c-0.09,0.184-0.158,0.33-0.334,0.425c-0.141,0.075-0.281,0.157-0.416,0.235c-0.381,0.22-0.389,0.266-0.344,0.702
			c0.02,0.195,0.016,0.419-0.062,0.595C10.133,8.138,9.847,8.149,9.681,7.89C9.576,7.722,9.535,7.515,9.455,7.302
			c-0.24-0.176-0.502-0.189-0.784,0.023C8.592,7.39,8.431,7.438,8.346,7.401C8.04,7.269,7.792,7.253,7.653,7.498
			C7.466,7.833,7.326,8.202,7.215,8.572C7.183,8.681,7.297,8.93,7.387,8.954c0.164,0.047,0.384,0.059,0.5-0.178
			c0.134-0.273,0.367-0.42,0.68-0.418c0.351,0.003,0.479,0.194,0.34,0.517C8.818,9.076,8.713,9.267,8.598,9.489
			c0.124,0,0.207-0.004,0.292,0.002c0.422,0.012,0.623,0.324,0.49,0.724c-0.053,0.159-0.062,0.346-0.047,0.515
			c0.008,0.065,0.148,0.16,0.23,0.162c0.268,0.002,0.535-0.035,0.864-0.06c0.085-0.239,0.373-0.336,0.677-0.468
			c0.392-0.177,0.7-0.165,1.015,0.108c0.148,0.13,0.313,0.159,0.493,0.062c0.056-0.029,0.12-0.04,0.203-0.068
			c-0.012,0.082-0.023,0.138-0.031,0.19c0.185-0.021,0.396-0.115,0.514-0.047c0.376,0.234,0.715,0.526,1.071,0.792
			c0.085,0.063,0.192,0.159,0.279,0.146c0.374-0.059,0.729,0.05,0.976,0.274c0.244,0.226,0.368,0.583,0.554,0.878
			c0.046,0.074,0.104,0.164,0.179,0.195c0.206,0.084,0.468,0.086,0.627,0.22c0.278,0.231,0.583,0.271,0.912,0.31
			c0.158,0.019,0.329,0.082,0.458,0.173c0.172,0.122,0.278,0.326,0.535,0.299c0.052-0.007,0.126,0.079,0.167,0.137
			c0.191,0.275,0.202,0.745-0.002,1.014c-0.187,0.245-0.41,0.466-0.6,0.71c-0.079,0.098-0.149,0.232-0.159,0.354
			c-0.055,0.649-0.347,1.194-0.726,1.7c-0.057,0.075-0.164,0.129-0.261,0.156c-0.255,0.072-0.514,0.139-0.776,0.185
			c-0.205,0.034-0.315,0.135-0.336,0.347c-0.034,0.396-0.258,0.67-0.584,0.879c-0.073,0.047-0.139,0.12-0.178,0.199
			c-0.135,0.274-0.337,0.467-0.629,0.562c-0.062,0.022-0.146,0.068-0.163,0.121c-0.113,0.367-0.392,0.5-0.735,0.556
			c-0.07,0.013-0.157,0.033-0.196,0.083c-0.203,0.25-0.392,0.509-0.581,0.758c0.178,0.295,0.168,0.354-0.045,0.59
			c-0.09,0.1-0.264,0.24-0.064,0.333c0.301,0.145,0.383,0.337,0.303,0.587c-0.155,0-0.312,0-0.467,0
			c-0.352-0.001-0.69-0.103-0.844-0.415c-0.193-0.399-0.633-0.691-0.508-1.256c0.072-0.317-0.071-0.68-0.056-1.016
			c0.028-0.562,0.17-1.117,0.109-1.691c-0.036-0.349,0.01-0.715,0.079-1.062c0.123-0.619-0.118-0.96-0.701-1.168
			c-0.222-0.078-0.425-0.304-0.563-0.512c-0.331-0.494-0.626-1.014-0.92-1.531c-0.083-0.145-0.152-0.316-0.165-0.479
			c-0.018-0.223,0.043-0.449,0.041-0.676c-0.006-0.451,0.318-0.714,0.569-1.01c0.229-0.27,0.257-0.45,0.035-0.764
			c-0.309,0.193-0.325,0.192-0.614-0.021c-0.037-0.026-0.08-0.049-0.117-0.073c-0.23-0.135-0.463-0.27-0.685-0.415
			c-0.042-0.024-0.075-0.097-0.073-0.145c0.02-0.329-0.208-0.45-0.458-0.515c-0.315-0.082-0.579-0.212-0.685-0.457
			C7.058,9.938,6.85,9.967,6.688,9.896C6.384,9.755,6.095,9.573,5.822,9.377C5.562,9.19,5.396,8.944,5.604,8.604
			c0.024-0.04,0.009-0.105,0.013-0.185C5.505,8.489,5.411,8.548,5.311,8.608C4.943,8.187,4.926,7.691,4.987,7.173
			c0.034-0.283,0.06-0.568,0.076-0.852C5.072,6.169,5.016,6.007,5.05,5.865c0.13-0.589,0.474-1.054,0.892-1.476
			C6.083,4.249,6.217,4.095,6.355,3.948z M13.275,20.777c0.084-0.322,0.084-0.32,0.441-0.346c0.093-0.004,0.186-0.017,0.274-0.047
			c0.18-0.056,0.254-0.142,0.108-0.324c-0.062-0.073-0.094-0.23-0.057-0.306c0.031-0.062,0.201-0.092,0.293-0.07
			c0.448,0.11,0.556,0.058,0.773-0.349c0.074-0.141,0.195-0.281,0.332-0.36c0.231-0.135,0.348-0.296,0.393-0.57
			c0.031-0.185,0.173-0.418,0.333-0.503c0.304-0.166,0.657-0.24,0.988-0.358c0.053-0.017,0.123-0.029,0.146-0.066
			c0.267-0.427,0.51-0.862,0.586-1.378c0.058-0.386,0.177-0.767,0.269-1.148c0.024,0.006,0.05,0.012,0.077,0.018
			c0.004,0.114,0.01,0.229,0.02,0.433c0.204-0.267,0.374-0.452,0.503-0.665c0.13-0.214,0.042-0.378-0.191-0.462
			c-0.093-0.038-0.204-0.086-0.255-0.164c-0.241-0.364-0.621-0.344-0.977-0.351c-0.197-0.004-0.341-0.029-0.451-0.203
			c-0.102-0.158-0.254-0.248-0.427-0.115c-0.228,0.177-0.429,0.403-0.678,0.034c-0.01-0.016-0.055-0.004-0.081-0.012
			c-0.269-0.083-0.326-0.308-0.128-0.513c0.057-0.06,0.138-0.095,0.19-0.13c-0.084-0.17-0.141-0.277-0.193-0.387
			c-0.174-0.361-0.485-0.533-0.89-0.484c-0.395,0.045-0.479-0.01-0.695-0.368c-0.047-0.08-0.164-0.157-0.255-0.164
			c-0.157-0.011-0.242-0.054-0.327-0.2c-0.055-0.094-0.244-0.156-0.373-0.154c-0.411,0.006-0.807-0.008-1.166-0.278
			c-0.176,0.104-0.365,0.244-0.565,0.015c-0.021-0.024-0.118-0.02-0.151,0.008c-0.168,0.137-0.334,0.279-0.49,0.432
			c-0.186,0.182-0.24,0.385-0.184,0.661c0.037,0.187-0.045,0.43-0.145,0.606c-0.111,0.196-0.32,0.337-0.453,0.523
			c-0.066,0.096-0.12,0.312-0.07,0.358c0.189,0.18,0.15,0.333,0.004,0.484c-0.152,0.159-0.108,0.279,0.006,0.44
			c0.26,0.363,0.549,0.723,0.729,1.129c0.203,0.464,0.495,0.764,0.958,0.957c0.396,0.166,0.584,0.479,0.556,0.945
			c-0.049,0.725-0.034,1.458-0.057,2.187c-0.008,0.178-0.064,0.352-0.084,0.524c-0.027,0.265-0.045,0.528-0.065,0.791
			c0.026,0.003,0.052,0.006,0.08,0.007c0.048-0.048,0.092-0.097,0.175-0.186c0,0.522-0.005,0.987,0.004,1.453
			c0.002,0.186,0.07,0.331,0.28,0.329c0.116-0.15,0.221-0.287,0.339-0.436c-0.195-0.211-0.205-0.408,0.076-0.586
			c0.064-0.039,0.113-0.174,0.102-0.253C12.844,20.832,12.914,20.749,13.275,20.777z M10.327,1.632
			C9.812,1.839,9.293,2.075,8.753,2.257c-0.575,0.195-0.913,0.682-1.36,1.03C7.189,3.443,7.047,3.619,7,3.879
			C6.983,3.973,6.927,4.112,6.855,4.136C6.508,4.255,6.366,4.589,6.114,4.804C5.743,5.118,5.572,5.549,5.443,5.985
			C5.401,6.134,5.486,6.379,5.596,6.497C5.75,6.654,5.809,6.786,5.743,6.99C5.717,7.067,5.709,7.159,5.727,7.233
			c0.079,0.326,0.176,0.648,0.25,0.975C6.01,8.353,6.062,8.534,6.005,8.649C5.852,8.958,6.056,9.07,6.246,9.204
			c0.122,0.086,0.252,0.16,0.381,0.238c0.168,0.1,0.328,0.152,0.528,0.057C7.342,9.41,7.482,9.511,7.609,9.67
			c0.109,0.14,0.268,0.313,0.419,0.333c0.382,0.045,0.595,0.268,0.777,0.561c0.016,0.021,0.039,0.041,0.047,0.051
			c0.063-0.227,0.12-0.441,0.19-0.693c-0.341,0-0.669,0-0.995,0C8.013,9.676,8.32,9.483,8.127,9.28
			C7.908,9.323,7.717,9.347,7.538,9.4C7.299,9.472,7.131,9.38,7.002,9.2C6.816,8.942,6.746,8.646,6.83,8.345
			c0.092-0.331,0.215-0.658,0.354-0.971c0.053-0.117,0.185-0.235,0.304-0.277c0.387-0.133,0.777-0.285,1.18-0.326
			C9.068,6.728,9.482,6.81,9.9,6.837c0.062-0.336,0.343-0.529,0.664-0.689c0.189-0.096,0.379-0.18,0.412-0.449
			c0.031-0.225,0.137-0.442,0.23-0.725c0.108,0.12,0.148,0.161,0.148,0.161c0.18-0.089,0.336-0.163,0.49-0.245
			C11.904,4.86,12,4.814,12.002,4.771c0.013-0.219,0.162-0.251,0.329-0.298c0.181-0.049,0.357-0.116,0.528-0.193
			c0.049-0.023,0.07-0.108,0.106-0.163c-0.019-0.018-0.036-0.033-0.055-0.049c-0.104,0.058-0.2,0.14-0.313,0.166
			c-0.1,0.026-0.215-0.005-0.322-0.013c0.031-0.104,0.025-0.25,0.095-0.308c0.328-0.268,0.696-0.443,1.144-0.352
			c0.204,0.044,0.377-0.014,0.524-0.203c-0.297-0.113-0.604-0.186-0.649-0.576c-0.333,0.185-0.568,0.182-0.755-0.146
			c-0.046-0.08-0.245-0.138-0.343-0.106c-0.07,0.021-0.092,0.21-0.135,0.32c-0.045,0.104-0.062,0.263-0.142,0.301
			c-0.204,0.101-0.388,0.184-0.372,0.454c0,0.029-0.046,0.058-0.066,0.089c-0.096,0.13-0.191,0.262-0.276,0.38
			c-0.246-0.363-0.321-1.008-1.027-1.02c-0.155-0.508-0.125-0.584,0.336-0.826c0.153-0.08,0.312-0.154,0.493-0.244
			C10.791,1.997,10.489,2.031,10.327,1.632z M25.51,14.713c0.018-0.093,0.047-0.211,0.058-0.33c0.229-2.202-0.115-4.317-1.016-6.343
			c-0.271-0.609-0.613-1.158-1.229-1.492c-0.117-0.065-0.222-0.214-0.269-0.347c-0.069-0.202-0.181-0.284-0.37-0.214
			c-0.167,0.062-0.312,0.183-0.478,0.246c-0.244,0.096-0.353,0.265-0.23,0.482c0.146,0.264,0.107,0.482-0.043,0.732
			c-0.216,0.366-0.344,0.816-0.157,1.186c0.218,0.424,0.228,0.836,0.229,1.273c0.002,0.088,0.022,0.189,0.069,0.262
			c0.276,0.434,0.549,0.871,0.856,1.283c0.122,0.166,0.38,0.419,0.482,0.381c0.282-0.109,0.607,0.025,0.868-0.23
			c0.23-0.234,0.454-0.152,0.616,0.123c0.046,0.076,0.141,0.123,0.209,0.188c0.072,0.066,0.183,0.131,0.2,0.212
			c0.044,0.223,0.059,0.456,0.066,0.684c0.004,0.222-0.037,0.447-0.02,0.667C25.39,13.893,25.458,14.312,25.51,14.713z M15.39,2.283
			c-0.188-0.467,0.264-0.372,0.432-0.522c-0.201-0.432-1.155-0.751-1.701-0.551c0.125,0.078,0.234,0.127,0.316,0.206
			c0.115,0.112,0.266,0.231,0.3,0.373C14.82,2.142,14.941,2.269,15.39,2.283z M11.919,2.153C11.5,2.313,11.09,2.472,10.677,2.63
			c0.006,0.028,0.006,0.059,0.008,0.088c0.227,0.092,0.447,0.199,0.679,0.262c0.079,0.02,0.234-0.057,0.274-0.131
			C11.752,2.636,11.822,2.405,11.919,2.153z M20.806,3.417c-0.025,0.678,0.401,0.939,0.97,1.188c0-0.151,0.046-0.304-0.005-0.354
			C21.469,3.965,21.143,3.704,20.806,3.417z M21.844,5.636c-0.092-0.276-0.177-0.527-0.263-0.783
			c-0.181,0.029-0.334,0.055-0.52,0.084C21.267,5.227,21.349,5.616,21.844,5.636z M22.784,5.491
			c-0.238-0.169-0.456-0.324-0.674-0.481c-0.018,0.012-0.033,0.023-0.051,0.032c0.078,0.192,0.154,0.385,0.235,0.578
			C22.474,5.572,22.62,5.533,22.784,5.491z"/>
		<path fill="none" stroke="#000000" stroke-width="0.2883" stroke-linejoin="round" stroke-miterlimit="10" d="M21.851,6.886
			c0.276-0.122,0.8-0.822,1.107-0.725c0.079,0.33-0.272,0.699-0.464,0.934c-0.35,0.434-0.698,0.852-1.021,1.305
			c0.581-0.559,1.356-1.236,2.11-1.598c0.149,0.369-0.541,1.179-0.762,1.484c-0.299,0.418-0.677,0.791-0.968,1.194
			c0.175-0.724,1.451-1.668,2.112-2.028c0.178,0.311-0.46,1.264-0.614,1.556c-0.263,0.495-0.565,1.009-0.853,1.48
			c0.159-0.556,0.743-1.019,1.121-1.435c0.185-0.201,0.387-0.45,0.606-0.584c0.057,0.976-0.541,1.961-0.885,2.862
			c0.379-0.615,0.857-1.438,1.43-1.88c0.292,0.302-0.181,1.268-0.302,1.595c-0.126,0.347-0.306,0.729-0.354,1.094
			c0.053-0.421,0.707-1.618,1.225-1.642c0.053,0.466-0.267,0.885-0.336,1.328c0.128-0.133,0.232-0.299,0.414-0.328
			c0.016,0.302-0.052,0.582-0.066,0.873c0.046-0.002,0.098,0.01,0.145,0.012c0.017,0.217-0.084,0.413-0.146,0.605
			c0.046-0.018,0.138-0.015,0.185-0.029c0.036,0.263-0.178,0.444-0.223,0.684c0.561-0.007,0.121,0.654,0.15,0.692"/>
		<path fill="none" stroke="#000000" stroke-width="0.2883" stroke-linejoin="round" stroke-miterlimit="10" d="M13.206,3.579
			c0.079-0.428-0.409-0.912-0.8-0.949c-0.1,0.623,0.543,0.975,0.449,1.52c-0.445,0.118-0.696-0.875-1.043-1.097
			c-0.141,0.55,0.115,1.152,0.193,1.683c0.041,0.267,0.231,1.002-0.26,0.65c-0.383-0.277-0.39-1.205-0.543-1.615
			c-0.125-0.335-0.281-0.662-0.417-0.986c0.01,0.582,0.083,1.051,0.161,1.592c0.037,0.23,0.158,1.281-0.262,1.09
			c-0.218-0.097-0.361-1.066-0.398-1.282c-0.082-0.485-0.071-0.995-0.076-1.489c-0.006-0.666-0.176-0.915-0.916-0.645
			c0.003,0.303,0.164,0.617,0.27,0.902c0.227,0.6,0.387,1.123,0.414,1.764c0.022,0.479,0.01,0.959,0.193,1.408
			c0.146,0.359,0.37,0.668,0.382,1.062c-0.435,0.013-0.942-1.072-1.148-1.39c-0.38-0.575-0.642-1.249-0.761-1.923
			C8.584,3.55,8.457,2.151,7.748,2.839C7.296,3.28,8.152,4.604,8.359,5.033C8.513,5.351,8.676,5.642,8.8,5.962
			C8.903,6.239,8.894,6.529,8.978,6.81C8.375,7.075,7.995,5.322,7.88,4.964C7.705,4.431,7.379,3.684,6.992,3.29
			C6.933,3.989,7.387,4.815,7.607,5.481C7.716,5.808,7.786,6.126,7.871,6.46C7.945,6.753,8.17,7.067,8.133,7.376
			C7.73,7.388,7.131,6.024,6.955,5.7C6.741,5.307,6.515,4.9,6.328,4.509c-0.756-0.123,0.02,1.046,0.118,1.244
			C6.68,6.229,6.877,6.868,7.214,7.278C6.922,7.329,6.673,6.833,6.42,6.698C6.14,6.55,5.761,6.565,5.455,6.581
			c0.064,0.183,0.608,0.313,0.811,0.455C6.543,7.232,6.745,7.481,6.906,7.76C6.452,7.774,6.109,7.494,5.959,8.036
			C5.742,8.812,6.121,8.569,6.635,8.661c0.07,0.301-0.216,0.49-0.184,0.791c0.382,0.025,0.756-0.258,1.104-0.184
			c0.01,0.184,0.025,0.367-0.039,0.537c0.3-0.012,0.617-0.24,1.001-0.19c-0.125,0.278-0.186,0.568-0.188,0.804"/>
		<path fill="none" stroke="#000000" stroke-width="0.2883" stroke-linejoin="round" stroke-miterlimit="10" d="M10.257,11.784
			c0.547-0.666,0.983-0.478,1.591-0.874c-0.211,0.294-0.734,0.389-1.078,0.611c-0.418,0.27-0.863,0.655-1.186,1.007
			c1.385,0.206,2.146-1.314,3.378-1.41c0.118,0.982-3.002,2.008-3.757,2.539c0.92,0.217,2.222-0.861,3.032-1.251
			c0.51-0.243,0.866-0.372,1.405-0.464c-0.244,0.766-1.621,1.137-2.254,1.501c-0.564,0.326-1.354,0.733-1.733,1.271
			c1.179,0.004,2.728-1.393,3.751-1.971c0.486-0.273,1.093-0.671,1.589-0.799c0.148,1.09-2.266,1.825-2.992,2.294
			c-0.499,0.323-1.011,0.904-1.573,1.095c1.764,0.061,3.422-1.694,4.946-2.334c-0.311,0.98-2.054,1.584-2.911,2.029
			c-0.5,0.258-1.758,0.672-1.903,1.27c1.473-0.05,2.932-1.127,4.245-1.721c0.471-0.214,1.617-0.831,2.153-0.818
			c0.156,1.856-3.917,2.469-5.038,3.429c1.234-0.408,2.557-0.896,3.693-1.499c0.676-0.36,1.783-0.77,2.557-0.647
			c0,1.658-5.434,1.262-6.102,2.921c1.661-0.002,3.104-1.198,4.739-1.109c-0.277,0.781-2.041,1.173-2.778,1.419
			c-0.791,0.265-1.746,0.385-2.398,0.892c1.42,0.183,2.766-1.028,4.195-0.805c0.072,0.689-1.232,0.917-1.743,0.972
			c-0.87,0.092-1.579,0.251-2.408,0.529c0.593-0.016,2.069-0.237,2.703,0.146c-0.678,0.122-2.304,0.057-2.53,0.817
			c0.346,0.065,0.707,0.198,1.037,0.33c-0.376,0.28-1.624,0.814-0.217,0.966"/>
	</g>
</g>
</svg>
