<?xml version="1.0" encoding="utf-8"?>
<!-- Generator: Adobe Illustrator 16.0.0, SVG Export Plug-In . SVG Version: 6.00 Build 0)  -->
<!DOCTYPE svg PUBLIC "-//W3C//DTD SVG 1.1//EN" "http://www.w3.org/Graphics/SVG/1.1/DTD/svg11.dtd">
<svg version="1.1" xmlns="http://www.w3.org/2000/svg" xmlns:xlink="http://www.w3.org/1999/xlink" x="0px" y="0px"
	 width="279.827px" height="239.852px" viewBox="0 0 279.827 239.852" enable-background="new 0 0 279.827 239.852"
	 xml:space="preserve">
<g id="Vectores">
</g>
<g id="Imagenes">
</g>
<g id="Cintillos">
	<g>
		<path fill="none" stroke="#FFFFFF" stroke-miterlimit="10" d="M8.445,4.54c0.575-0.34,1.655-0.47,2.284-0.615
			C11.032,5.87,6.799,6.614,5.389,7.88c1.684,0.852,3.072-1.243,4.932-0.329c-1.735,0.78-4.288,1.403-5.184,3.247
			c2.06,0.185,3.606-1.825,5.505-0.925c-2.035,0.989-4.97,2.343-5.82,4.275c2.583,0.323,3.605-2.564,6.238-2.226
			c-0.342,2.87-6.203,1.952-5.89,5.592c1.294-1.297,2.688-2.237,4.56-2.256c0.115,0.486,0.1,1.07,0.008,1.557
			c-1.842,0.287-5.092,0.978-4.907,3.358c1.796-0.883,3.136-2.086,5.231-1.917c0.352,2.623-4.264,1.684-5.24,4.226
			c2.526,0.488,3.992-1.16,6.24-1.226c0.045,0.425,0.022,0.812,0.016,1.232c-2.844-0.228-6.053,0.863-6.599,3.999
			c1.995-0.3,3.978-1.689,5.908-2.238c0.154,0.532,0.144,1.369,0.008,1.906C8.304,25.95,4.802,27.07,4.83,29.491
			c1.955-0.158,3.643-1.648,5.896-1.235c0.028,2.579-5.852,0.326-5.564,4.233c0.835,0.19,6.283-2.814,4.972,0.391
			c-0.862,2.108-6.024-0.799-5.637,3.609c2.366,0.513,4.366-1.582,6.897-1.565c0.107,0.495,0.106,1.071,0.001,1.567
			c-2.315,0.79-4.834,0.295-5.925,2.998c1.677,0.304,2.978-0.604,4.591-0.565c0.865,2.931-4.513,2.158-5.49,5.382
			c2.176,0.945,3.962-1.074,6.155-1.049c0.139,1.738-4.19,2.825-5.558,3.674c-0.047,0.445-0.038,0.796,0.01,1.243
			c1.785-0.916,3.771-1.647,5.883-1.25c0.162,0.571,0.113,1.372-0.065,1.897c-2.58-0.125-5.796-1.57-6.174,2.334
			c2.295,0.155,4.828-3.334,6.579-0.367c-2.199,0.826-5.764,0.622-6.924,3.017c2.116-0.584,4.676-0.929,6.917-0.217
			c0.136,2.685-4.647,1.875-6.575,2.677c-0.103,0.489-0.096,1.068,0.01,1.559c2.057,0.104,4.186-0.012,6.239,0.108
			c-0.847,2.743-5.813-0.104-6.58,3.558c2.236,0.361,4.327-0.573,6.579-0.225c-1.042,2.207-5.346,0.437-5.912,3.56
			c2.136,0.426,3.824-1.022,5.912-0.56c-1.127,2.533-5.375,0.159-6.597,3.551c1.1,0.063,6.322-0.469,6.347,0.393
			c0.073,2.578-6.52-0.901-6.323,2.947c1.684-0.374,5.649-1.745,6.241,0.66c-2.063,0.142-6.396-0.947-6.581,2.008
			c1.836,0.092,3.735,0.008,5.571,0.1c0.098,0.2,0.131,0.411,0.1,0.635c-2.126,0.426-4.607,0.405-5.347,2.915
			c2.108,0.472,3.704-0.957,5.916-0.549c0.036,0.433,0.039,0.8,0,1.233c-1.843,0.583-5.856,0.16-5.232,2.999
			c2.116,0.309,3.896-0.531,5.899-0.565c0.413,3.36-6.82-0.121-6.564,4.232c2.04,0.306,4.797-2.149,5.662,0.075
			c-2.371,0.8-3.93,0.103-5.355,2.574c1.938,0.235,3.303-1.177,5.25-0.875c0.186,0.236,0.6,0.94,0.707,1.209
			c-1.813,0.175-6.173,0.097-5.931,2.683c2.023,0.313,3.339-0.992,5.225-0.89c0.287,0.545,0.37,0.957,0.354,1.558
			c-1.605-0.112-3.212-0.008-4.582,0.772c-0.266,0.472-0.635,1.719-0.673,2.218c1.693-0.237,3.244-1.135,4.9-1.215
			c0.323,0.504,0.641,1.355,0.681,1.881c-2.486-0.538-7.242-0.858-6.906,3.01c1.69,0.161,6.526-2.542,6.564,0.334
			c-2.398,0.063-5.028-0.137-5.997,2.398c1.649,0.766,3.614-0.447,5.325-0.623c0.223,0.327,0.611,1.173,0.697,1.54
			c-1.59-0.109-3.184,0.236-4.585,0.791c-0.517,0.594-1.141,1.533-1.329,2.235c2.797-0.644,4.293-1.354,6.248,0.966
			c-2.272-0.015-5.052,1.026-5.957,3.082c2.146,1.01,4.602-0.621,6.938-0.291c-1.052,2.603-6.25,0.46-6.571,3.9
			c1.783,0.146,5.349-1.057,5.906,0.66c-2.221,0.678-6.009-0.194-6.914,2.332c2.184,0.308,4.301-0.329,6.572-0.225
			c0.116,0.29,0.424,1.363,0.441,1.631c-2.08,0.134-7.323-0.904-7.007,2.602c2.099,0.196,6.206-1.186,7.279,0.669
			c-2.023,0.304-5.947-0.241-6.62,1.99c2.541,0.147,5.218-0.59,6.265,1.99c-1.95,0.141-5.871-0.614-5.908,2.019
			c2.063,0.108,4.161,0.004,6.217,0.092c0.106,0.517,0.115,1.069,0,1.591c-2.987,0.117-4.95,0.179-6.924,1.958
			c2.251,0.168,4.573,0.041,6.849,0.101c-0.179-0.066-0.259-0.478-0.261-0.637c-0.581,0.051-1.199-0.193-1.765-0.29
			c0.426-0.686,0.187-1.431,0.436-2.05c-0.296-0.167-0.6,0.073-0.893-0.104c-0.252-0.375-0.115-0.67-0.51-0.896
			c2.034,1.848,5.423,1.347,4.734,5.567c-3.612,0.191-7.872-0.267-11.006,1.383c1.182,0.472,2.871,1.251,4.39,1.333
			c1.765,0.095,2.954-1.094,4.606-0.275c-0.021,0.082-0.004,0.783,0.008,0.895c-2.388,0.136-5.279,0.818-6.914,2.649
			c2.284,0.15,6.125-0.761,7.689,1.066c-1.865,1.545-7.654-0.046-7.34,2.941c1.977,0.709,4.422-0.098,6.148,0.799
			c-1.053,1.754-4.031,1.753-6.148,2.309c-0.045,0.437-0.05,0.796-0.001,1.232c1.915-0.381,5.307-0.904,6.667,0.719
			c-1.622,1.375-5.091,0.999-7.106,2.332c1.626,0.663,7.882-0.849,7.273,1.95c-2.24,0.112-5.726-0.754-7.108,1.327
			c2.191,0.759,4.705,0.051,6.832,1.113c-0.02,0.138-0.011,0.75,0.008,0.895c-2.363,0.116-6.436-0.819-6.913,1.991
			c1.991,0.111,5.621-0.641,7.022,0.725c-2.451,1.658-5.172,0.454-7.373,2.925c2.542-0.24,6.725-2.908,7.715,1.082
			c-1.83,0.699-6.336-0.766-7.022,1.602c2.568,0.15,6.118-0.773,7.256,1.991c-1.835,0.157-6.282-1.746-6.923,0.343
			c2.073,0.119,4.874-0.696,5.683,1.731c-1.789,0.63-6.024-0.697-6.35,1.609c2.647,0.133,6.726-0.712,8.006,2.066
			c-1.962,0.681-8.012-0.904-8.329,1.602c2.706,0.047,6.476-1.397,8.604,1.057c-1.94,0.994-4.909-0.429-7.282,0.382
			c0.02,0.12,0.031,0.775,0.01,0.895c2.386,0.118,7.34-0.942,7.563,2.326c-1.494,0.522-7.837-1.24-8.304,0.372
			c-0.812,2.8,6.512,1.219,7.639,1.068c0.153,0.53,0.126,1.366-0.002,1.898c-1.858,0.079-8.598-1.386-8.555,0.994
			c3.41,1.37,8.021-0.479,9.932,3.671c-3.017,0.149-6.019-2.15-9.535-1.565c-0.156,0.353-0.339,0.855-0.424,1.2
			c2.542,1.892,6.035,0.085,8.351,2.751c-1.632,1.393-4.872-1.198-7.259-0.949c-0.168,0.333-0.438,1.497-0.425,1.882
			c2.165,0.91,7.055-0.516,6.917,3.017c-2.426,0.43-5.652-2.712-7.315,0.384c0.991,0.806,6.779,3.537,7.981,3.616
			c0.117-0.344-0.037-0.664,0.051-0.999c-0.44-0.222,1.32,1.021,1.049,0.716c-1.932,0.25-2.27-1.06-4.058-1.073
			c-1.89-0.015-3.426,1.292-5.224,1.814c2.02,2.28,6.086,0.821,8.874,0.984c-1.219,1.677-5.377,1.149-7.283,2.533
			c2.218,0.164,5.307-0.657,6.705,1.415c-2.681,0.973-5.795-0.214-7.704,2.603c2.176,0.126,7.075-1.35,6.924,1.674
			c-1.828-0.569-5.571-1.577-5.906,1.332c1.777-0.172,3.406-1.059,5.239-0.897c0.171,0.554,0.171,1.678,0,2.232
			c-1.907,0.018-6.868-1.531-6.565,1.666c2.273,0.115,4.623-0.023,6.891,0.108c0.426,0.596,0.714,1.54,0.674,2.227
			c-2.053-0.027-3.843-0.471-5.899,0.097c-0.269,0.393-0.635,1.465-0.68,1.903c1.81,0.298,6.179-1.449,6.237,0.992
			c-2.063,1.368-5.298,0.005-6.238,2.999c1.863,0.33,5.716-1.454,5.906,1.001c-2.072,0.797-5.053,0.774-5.907,3.341
			c1.791,0.242,3.101-0.895,4.915-0.566c0.636,3.059-3.865,1.245-4.941,3.549c1.891,0.414,3.07-0.749,4.948-0.551
			c-0.428,1.431-2.16,0.818-3.563,1.341c0.02,0.147,0.011,0.739-0.008,0.895c1.683,0.122,3.047-0.328,4.566-0.565
			c0.051,0.433,0.048,0.797,0.006,1.232c-1.715,0.288-4.914,0.333-5.59,2c2.063,0.102,4.188-0.004,6.248,0.098
			c0.011,2.613-4.78,1.262-6.557,2.341c0.023,0.155,0.008,0.726-0.007,0.895c2.843,0.131,4.86-0.072,7.222-1.575
			c-1.004,2.396-5.361,2.336-6.832,4.983c4.367,0.4,5.724-4.5,9.248-5.568c-0.424,1.717-2.142,2.436-3.301,3.267
			c-0.223,0.455-0.386,1.442-0.438,1.967c3.848,1.927,2.875-3.268,4.625-4.447c2.149-1.449-0.887,5.081-0.242,6.146
			c1.705-2.025,2.277-4.847,4.323-6.771c1.723,1.542-1.248,3.724-1.273,5.664c3.653-0.163,1.442-6.882,5.899-5.898
			c0.246,2.471-3.078,5.926-0.95,7.314c1.599-1.764,1.61-4.123,3.056-5.976c0.406-0.192,1.157-0.333,1.553-0.347
			c0.628,2.297-2.043,3.192-1.891,5.573c3.617,0.4,0.857-5.151,4.233-4.897c0.54,2.483-1.851,3.354-1.56,5.571
			c3.125-0.545,1.094-5.118,4.208-5.939c1.173,2.386-1.217,3.31-1.549,5.266c3.158-0.291,1.097-5.437,4.899-5.231
			c0.298,1.895-1.321,3.826-1.909,5.556c2.978-0.727,1.747-4.937,4.275-5.696c2.972-0.894-0.187,5.146-0.191,6.446
			c3.598,0.223,0.36-5.761,4.159-5.972c0.418,2.142-1.346,3.023-1.565,4.898c2.411,0.255,2.365-3.83,3.34-5.56
			c3.349-0.364-0.114,4.719,0.324,6.558c3.058-0.355,1.298-5.612,2.675-7.566c3.563-0.585,0.402,5.042,0.319,6.567
			c0.437,0.052,0.8,0.031,1.233,0c0.977-1.603-0.074-7.501,2.998-5.908c0.438,2.236-1.262,4.201-1.558,6.241
			c2.421-0.266,0.978-5.696,4.565-5.564c-0.072,2.071-2.252,3.03-2.239,5.231c6.079,1.449,1.459-7.521,6.239-6.565
			c0.379,2.266-1.179,3.932-0.898,6.232c3.785,0.398-0.017-6.361,3.265-5.031c-2.097,0.573-1.989,4.132-1.315,5.796
			c0.438-1.775,0.985-5.332,2.951-6.004c0.452,2.111-1.047,3.718-0.567,5.904c3.172,0.016-0.797-5.856,3.232-5.563
			c-0.022,2.014-1.291,3.695-0.899,5.896c3.802,0.617,0.224-6.72,4.234-7.229c0.287,2.436-1.7,4.226-1.227,6.891
			c0.27,0.185,0.672,0.434,0.959,0.607c-0.02-1.22-0.75-5.655,0.715-6.149c2.501-0.843,0.581,5.037,0.668,5.898
			c2.084-1.559,0.892-6.17,4.217-6.256c0.272,1.908-0.386,5.224-0.957,6.998c0.753-1.855,1.129-6.615,4.29-6.657
			c0.344,2.356-2.15,3.501-1.899,5.899c2.447,0.322,1.935-5.696,4.225-6.906c0.321,2.187-1.973,5.486-0.274,6.988
			c1.166-1.156,0.663-3.718,1.382-5.309c0.409-0.136,0.829-0.255,1.234-0.356c0.409,1.728-3.432,6.316-0.34,7.256
			c1.056-2.275,0.291-7.112,3.34-7.58c-0.391,1.648-1.043,3.541-1.573,5.239c1.446-0.274,1.938-4.785,2.956-6.33
			c0.576,1.385-0.598,3.49-0.283,5.33c2.304-0.034,0.67-3.5,2.568-4.238c0.322,2.089-2.011,3.019-1.56,5.598
			c1.437-1.514,1.846-5.442,4.631-5.517c0.03,2.67-3.351,3.91-2.972,6.157c2.318-0.291,3.237-4.052,4.005-6.224
			c0.216,0.021,0.492-0.139,0.635-0.268c-0.402,1.907-1.845,3.303-1.307,5.491c2.09,0.041,0.825-1.687,1.534-2.998
			c1.299-2.402,1.064-2.578,4.377-2.566c-0.35,2.488-4.043,2.405-4.009,5.233c-0.287,0.134-0.594-0.05-0.854,0.04
			c0.677,0.336,1.452,0.314,2.184,0.292c-0.204-1.358,1.082-6.162,2.726-5.972c1.844,0.213-0.967,5.172-0.625,6.988
			c3.406,0.194,1.038-5.604,4.634-6.682c2.32,2.229-0.713,4.698-0.292,7.339c3.42-1.029,0.491-5.811,3.691-7.256
			c1.785,1.764,0.286,3.852,0.301,5.915c4.001,0.561,0.182-4.227,1.333-5.64c2.449-3.007,2.198,3.264,1.657,4.356
			c3.187,2.441,1-4.07,3.234-4.622c0.086,1.941-0.199,4.356-1.158,5.979c4.721,1.157,1.368-4.939,5.158-5.98
			c0.07,1.152-0.035,2.158-0.332,3.233c-0.806,0.563-1.082,1.461-0.893,2.673c2.675,0.354,1.486-4.721,4.225-5.573
			c0.21,2.329-2.029,3.742-1.559,6.24c3.291,0.436,0.906-4.427,3.017-5.231c2.308-0.88,0.529,3.933,0.575,4.822
			c0.127-0.145,0.432-0.277,0.635-0.267c0.396-1.813,0.62-5.127,3.006-5.229c0.2,1.567-0.266,2.954-0.282,4.521
			c-0.04-0.984,0.271-1.85,0.392-2.841c0.532-0.422,1.886-1.396,1.94-1.44c-0.17,1.992-0.901,3.771-0.649,5.931
			c-0.74-1.319-2.043-1.861-3.143-2.79c1.059-1.424,2.699-5.474,4.726-4.432c2.181,1.122,0.509,5.213,0.326,6.98
			c-1.266-2.31,1.716-5.138,3.675-6.273c0.41,2.403-1.074,4.071-0.867,6.273c0.725-1.326,0.865-3.279,1.324-4.917
			c0.551-0.499,1.609-1.218,2.291-1.625c-0.32,2.235-1.712,4.063-1.282,6.532c1.813-1.49,0.45-5.204,2.519-6.322
			c2.372-1.282,0.555,4.013,0.816,5.325c2.595-0.927,1.141-5.727,4.549-5.25c0.342,2.165-1.789,5.496-0.35,6.915
			c0.14-2.714,0.869-5.32,3.008-6.606c0.12,1.69-0.346,3.396-0.566,4.915c3.117-0.111,0.014-4.971,3.241-4.889
			c0.419,1.846-0.742,3.106-0.558,4.914c2.288-1.293,0.501-6.129,4.226-6.256c0.213,1.171-2.793,6.499-0.95,6.653
			c1.623,0.136,1.722-5.165,3.273-5.652c0.138,2.314-2.723,5.35,0.001,6.929c0.157-2.266-0.384-5.865,2.333-6.264
			c0.302,2.007-0.971,3.376-1.225,5.238c2.623-0.223,0.829-4.911,3.559-5.571c0.479,2.164-1.284,3.086-0.868,5.189
			c0.238-1.903,0.505-4.493,2.544-5.198c0.067,1.495-0.461,2.875-0.893,4.19c1.194-1.548,0.617-3.628,1.94-4.939
			c1.086,1.85-0.691,5.334-2.566,5.714c1.061,0.256,2.11,0.226,3.184,0.283c0.074-1.388,0.024-2.841,0.107-4.226
			c1.894-4.114,2.226,2.013,2.335,3.9c2.617-0.81-0.309-3.854,1.342-4.889c2.167-1.356,0.726,4.65,0.65,5.213
			c0.174-0.014,0.732-0.03,0.893-0.008c1.152-1.631,0.773-4.079,1.698-5.896c2.473,0.479,1.007,4.108,0.35,5.664
			c-0.172-0.693-1.141-1.134-2.491-1.041c3.085,0.388,2.026-3.374,3.908-4.259c3.831-1.799,1.321,3.615,1.648,5.565
			c0.236-0.98,0.42-0.584-0.015-1.991c1.549-1.051,1.574-3.027,3.242-3.264c0.18,0.917-1.843,7.399,0.739,5.379
			c1.769-1.383-0.403-4.752,2.316-5.731c0.755,1.96,0.127,4.271,0.06,6.267c2.181-1.539,0.713-4.749,2.925-6.34
			c1.664,1.515-0.309,4.729,1.942,6.34c0.466-1.876-0.613-5.084,1-6.266c0.106,1.599,0.202,3.657-0.21,4.939
			c0.37-1.564,0.11-3.176,1.002-4.58c1.413-0.01,1.636,1.165,1.242,2.532c-0.455,0.184-0.882,0.593-1.285,0.75
			c0.386,0.521,1.307,1.36,1.926,1.633c0.108-1.519-0.331-6.075,2.399-5.916c2.384,0.14,0.745,4.925,1.05,6.581
			c1.436-1.444-0.618-5.47,2.561-5.588c0.066,1.57,0.125,3.245-0.242,4.629c0.143,0.243,0.354,0.362,0.634,0.359
			c1.425-1.463-0.575-5.381,2.273-5.33c0.101,2.148,0.072,4.358-0.565,6.239c2.309-0.617,1.956-3.545,2-5.565
			c0.494-0.107,1.071-0.107,1.565,0c0.177,2.095-0.399,3.885-0.233,5.897c0.131-0.022,0.766-0.019,0.901,0
			c0.294-1.448-0.241-6.027,1.365-6.639c3.649-1.389-0.015,5.533-0.275,6.313c2.25-1.101,1.03-5.449,3.487-6.646
			c0.844,1.548,0.23,3.852-0.135,5.649c2.353-0.23,1.555-3.009,1.657-4.906c2.376,0.105,1.568,3.426,1.665,5.229
			c0.115-0.017,0.798-0.022,0.902,0c0.096-1.944,0.001-3.954,0.1-5.897c0.937-0.243,2.077-0.088,2.893,0.339
			c0.695,1.901-0.052,3.521,0.105,5.492c2.48-1.373-0.435-4.288,1.959-5.946c0.711,1.825-0.088,3.734,0.051,5.705
			c1.266-1.257,1.548-3.876,2.672-5.274c1.557,1.371-0.483,3.566-1.03,5.249c2.6,0.203,2.702-2.975,2.684-4.898
			c3.367-0.676,0.554,4.11,0.318,5.549c0.999,0.448,2.155,0.568,3.246,0.351c0.257-2.026-1.535-5.703,1.276-6.273
			c-4.773-2.417-3.422,3.829-0.268,5.547c0.24-1.41-2.109-4.799-0.557-5.822c2.312-1.522,1.928,4.521,1.883,5.549
			c-0.617-0.119-1.14,0.021-1.59-0.208c0.214,0.115,1.294,0.461,1.572,0.566c0.085-1.258-0.476-4.062,0.394-4.982
			c2.169-2.296,1.459,1.19,1.674,2.09c0.103,0.43-0.572,4.553,1.6,2.518c0.591-0.554,0.073-4.349,0.118-5.215
			c3.176-0.264,1.577,4.279,2.282,5.996c0.473-1.149,0.304-2.876,0.392-4.323c0.611-0.456,1.471-0.731,2.225-0.673
			c0.074,1.391,0.027,2.84,0.1,4.23c0.132-0.021,0.769-0.02,0.902,0c-0.158-1.712-0.381-3.443-0.234-5.23
			c3.104,0.188,1.226,3.685,1.334,5.564c0.428,0.039,0.809,0.017,1.232,0c0.091-1.805-0.299-4.003,0.459-5.573
			c1.678,1.069,0.71,3.352-0.042,4.872c0.689,0.389,1.137,0.483,1.916,0.368c0.097-1.604-0.675-4.241,1.333-4.231
			c0.352,2.129-1.73,3.96,1.084,5.164c-0.006-1.006-1.063-4.551-0.057-5.165c2.196-1.344,1.908,3.396,1.757,4.249
			c1.308-1.512-0.516-5.506,2.883-5.248c0.507,2.229-1.316,3.445-1.233,5.563c1.914-0.356,2.131-3.31,2.001-5.224
			c0.663-0.336,1.507-0.485,2.232-0.341c0.029,2.151-2.786,5.455-0.608,7.249c0.775-2.315,0.27-4.744,2.6-6.281
			c0.208,1.355-0.459,2.83-0.896,3.932c0.433,0.034,0.798,0.041,1.23,0c0.393-1.642,0.177-4.081,2.01-4.231
			c0.215,1.868-1.27,2.852-1.617,4.514c0.194-1.687,0.611-3.321,2.159-4.25c-1.162-0.345-0.852-0.509-1.45-0.932
			c0.017,0.003,0.929-0.01,0.908,0.001c0.488,2.555-2.028,3.959-2.232,6.24c2.293-0.348,3.688-4.969,4.956-6.681
			c0.852,1.557-2.872,5.493,0.592,6.162c2.234,0.432,2.31-3.304,2.35-5.056c-3.029-0.745-5.069,6.669-1.001,5.565
			c-0.021-2.08,0.426-6.462,3.001-6.564c0.573,2.47-1.37,3.653-1.573,5.896c4.637,1.101,0.362-4.759,3.574-5.571
			c0.301,1.947-0.844,3.606-1.241,5.231c2.823,0.305,1.308-4.198,3.899-4.898c-0.086,2.337-3.154,5.82,1.674,5.922
			c-0.133-1.89,0.007-4.043,1.05-5.498c0.647,1.6-0.171,2.902-0.882,4.481c0.388,0.025,0.763,0.022,1.158,0.001
			c0.382-1.558,0.064-4.521,2.009-4.564c0.425,2.061-1.612,2.889-1.568,4.903c1.306-1.048,1.112-4.84,3.907-4.247
			c-0.234,1.343-1.242,2.576-1.58,3.908c0.431,0.035,0.813,0.019,1.241,0c0.508-1.763-0.161-3.94,1.981-4.583
			c0.047,1.192-0.244,2.202-0.883,3.231c-0.025-0.007,0.586,0.447,0.544,0.361c1.271-0.942,1.396-2.698,2.34-3.925
			c-0.073,0.927,0.216,2.014,0.133,2.939c0.463-0.855,0.771-1.766,0.675-2.947c0.092,0.885,0.506,2.244,1.259,2.974"/>
		<polyline fill="none" stroke="#FFFFFF" stroke-miterlimit="10" points="277.555,231.314 272.803,236.101 5.446,236.101 
			5.446,7.722 10.258,2.944 		"/>
		<rect x="10.253" y="3.034" fill="none" stroke="#FFFFFF" stroke-miterlimit="10" width="267.357" height="228.379"/>
	</g>
</g>
<g id="BOtones">
</g>
<g id="Logos">
</g>
<g id="Igonos">
</g>
<g id="TXT">
</g>
<g id="Guias">
</g>
</svg>
