<?xml version="1.0" encoding="utf-8"?>
<!-- Generator: Adobe Illustrator 16.0.0, SVG Export Plug-In . SVG Version: 6.00 Build 0)  -->
<!DOCTYPE svg PUBLIC "-//W3C//DTD SVG 1.1//EN" "http://www.w3.org/Graphics/SVG/1.1/DTD/svg11.dtd">
<svg version="1.1" xmlns="http://www.w3.org/2000/svg" xmlns:xlink="http://www.w3.org/1999/xlink" x="0px" y="0px"
	 width="453.332px" height="520.333px" viewBox="0 0 453.332 520.333" enable-background="new 0 0 453.332 520.333"
	 xml:space="preserve">
<g id="Capa_1">
	<rect x="22.332" y="4" fill="none" stroke="#F7931E" stroke-width="2" stroke-miterlimit="10" width="427" height="491"/>
	<polyline fill="none" stroke="#F7931E" stroke-width="2" stroke-miterlimit="10" points="22.332,4.469 5.332,23.469 5.332,514 
		432.33,514 449.33,495.234 	"/>
	<path fill="none" stroke="#F7931E" stroke-width="2" stroke-linejoin="round" stroke-miterlimit="10" d="M21.83,7.469
		c-1.213,5.378-5.805,9.178-8.904,12.597c-2.846,3.142-4.83,7.644-8.047,10.302c6.621-0.34,9.359-11.363,16.873-10.822
		c0.197,4.136-6.463,8.495-8.936,11.299c-3.006,3.408-5.111,7.227-7.801,11.56c5.398-4.067,9.279-12.034,16.727-13.37
		c0.852,3.655-5.18,11.337-7.75,13.949c-3.4,3.459-6.85,6.273-9.627,9.897c7.17,0.231,11.121-9.555,18.037-10.421
		c-2.262,2.328-5.004,7.119-7.959,10.121C11.145,55.931,8.639,60,5.492,63.506c5.77,0.21,10.129-8.622,15.873-9.851
		c0.064,5.381-4.035,8.192-7.021,11.317c-3.244,3.396-5.576,7.773-8.463,11.396c6.307,1.698,8.992-9.289,15.873-8.824
		c0.137,2.88-5.35,9.033-7.514,11.412c-3.408,3.751-6.279,5.248-8.873,9.447c5.365,0.095,11.557-6.465,16.361-8.386
		c1.547,5.445-5.369,7.953-8.412,11.216c-2.738,2.937-5.715,6.075-7.936,9.135c5.707,1.172,10.553-6.909,15.484-8.603
		c0.057,7.861-11.549,12.978-15.359,19.615c6.145,1.336,10.791-6.286,15.762-7.349c-3.055,9.446-11.047,14.599-17.676,20.471
		c7.258-0.271,11.475-7.875,18.199-7.948c-2.375,3.886-4.367,7.069-7.988,10.29c-3.008,2.674-7.377,4.707-7.908,9.036
		c6.236,1.058,8.502-11.153,15.859-9.337c0.223,4.084-5.346,9.066-8.301,11.522c-3.699,3.074-6.254,6.453-9.572,9.79
		c5.473,1.642,6.311,1.791,9.975-2.775c2.35-2.928,4.588-4.934,7.375-7.062c0.689,11.756-13.941,13.825-14.824,23.874
		c5.209,0.631,10.857-6.846,14.863-8.834c-1.859,5.27-5.289,7.524-8.314,11.533c-2.33,3.085-7.473,7.592-7.559,11.301
		c8.602,2.057,7.99-11.594,15.357-12.376c2.15,10.356-16.535,13.89-17.652,23.374c9.463,2.613,10.623-12.589,18.654-12.347
		c0.563,5.711-4.736,10.034-8.303,13.409c-2.389,2.258-8.766,6.922-8.547,10.438c5.154,0.574,12.627-14.188,17.471-9.422
		c-2.676,4.017-5.779,7.088-9.547,10.219c-2.695,2.24-7.432,5.152-8.436,8.192c7.039,1.427,11.945-7.739,17.846-9.349
		c0.066,9.629-17.369,11.867-17.334,20.361c6.658,1.593,10.984-8.156,16.861-7.863c-2.699,4.313-11.168,10.927-15.865,13.021
		c-0.529,0.809-0.957,2.402-0.996,3.342c6.721,1.265,10.441-7.701,16.748-7.45c-3.162,3.44-5.434,6.79-9.352,9.549
		c-2.904,2.044-7.314,3.854-7.396,7.901c6.854,2.697,10.855-5.871,16.85-6.349c1.104,5.213-10.227,11.958-14.34,14.009
		c-0.711,0.828-1.309,2.277-1.51,3.34c6.258,1.231,11.014-5.302,15.834-7.876c-1.363,3.638-3.576,7.626-6.998,10.313
		c-3.375,2.65-8.941,4.787-9.848,9.063c6.609,0.774,10.457-8.123,16.359-7.85c1.096,7.586-13.869,10.248-15.375,17.822
		c5.174,0.789,11.447-6.27,15.986-8.21c-2.533,8.033-14.83,10.344-15.986,19.21c4.885,0.957,11.689-6.345,15.887-8.849
		c-1.938,4.342-5.262,7.261-8.961,10.059c-2.666,2.019-7.682,4.902-7.398,8.815c5.199,1.159,12.355-7.67,16.822-9.874
		c0.297,3.356-6.605,7.62-8.914,9.823c-3.98,3.797-5.086,6.817-8.309,11.162c4.975,0.682,11.912-5.463,13.91-9.461
		c0.85-0.312,2.59-0.729,3.449-0.886c-0.172,6.892-13.521,13.801-16.236,19.737c5.826,0.689,10.75-6.755,16.512-7.363
		c-4.004,7.483-15.188,7.936-18.26,16.861c5.121,0.953,12.539-4.32,15.85-7.372c0.428,5.317-12.963,9.54-15.213,14.985
		c6.094,0.414,10.252-6.059,15.738-6.96c1.746,6.622-12.199,9.626-14.816,15.021c-4.537,9.349,14.826-1.271,17.701-3.671
		c-4.387,7.261-15.309,10.514-17.76,18.999c4.613,0.474,11.549-5.17,15.385-6.863c-3.826,6.948-13.777,10.357-15.371,17.851
		c5.709,0.8,11.344-6.373,16.398-8.069c-2.438,3.396-4.594,6.352-8.479,9.154c-3.051,2.201-6.863,4.607-7.434,8.4
		c5.865,0.921,11.674-2.188,15.996-5.251c-3.869,8.71-13.053,13.247-18.369,20.388c7.758,0.79,11.686-8.463,18.258-9.974
		c-1.434,8.899-14.49,10.584-18.412,18.362c7.846,0.39,10.57-5.652,17.363-6.859c4.031,6.365-15.045,11.145-15.484,17.376
		c-0.256,0.279-0.664,0.201-0.977,0.558c4.678,2.786,10.758-7.043,16.01-6.934c-1.881,7.967-14.482,6.994-15.871,16.373
		c5.34-2.029,10.338-9.164,16.359-8.861c1.014,4.372-4.699,7.393-7.828,9.438c-4.439,2.899-7.391,4.503-9.045,9.909
		c5.691,1.313,10.939-5.97,15.861-7.358c0.322,8.174-15.27,8.556-14.336,16.359c4.756,1.158,9.842-7.67,13.396-6.458
		c6.523,2.225-4.396,9.634-6.459,10.938c-2.213,1.4-11.754,8.888-4.016,9.105c4.594,0.129,7.377-7.035,11.926-6.96
		c1.961,6.947-13.994,9.696-14.848,16.852c6.625,2.671,11.262-2.244,15.334-6.349c-1.244,4.261-3.994,7.545-6.885,10.67
		c-2.201,2.379-11.57,6.926-11.924,9.766c-0.592,4.76,8.205,2.179,10.51,1.123c3.473-1.592,6.178-4.488,8.412-7.436
		c-0.051,4.569-4.178,8.111-7.148,10.838c-2.58,2.369-9.283,6.305-9.271,9.937c4.416-3.665,10.764-6.041,16.32-6.374
		c1.357,7.276-13.99,6.956-15.859,12.85c5.631,1.137,10.18-5.521,15.461-3.739c-4.242,5.044-16.846,8.048-18.461,14.727
		c6.055,0.932,16.516-6.284,20.633-9.323c-5.662,2.98-19.934,9.119-19.121,17.334c6.148,0.928,17.408-10.642,20.734-14.898
		c-2.963,3.367-5.418,6.934-8.297,10.35c-2.381,2.825-5.98,7.074,0,4.611c3.879-1.597,7.354-5.728,9.969-8.889
		c1.785-2.158,3.963-7.188,6.93-8.033c1.336,7.039-11.313,10.403-10.836,17.859c8.105,1.487,13.557-11.371,16.51-16.338
		c0.709-0.565,1.621-0.954,2.301-1.548c1.336,5.267-7.307,13.072-8.35,18.36c2.541,1.522,7.822-3.701,9.977-5.887
		c2.617-2.657,4.201-7.98,7.486-10.012c5.854-3.62,3.844,1.145,1.598,4.613c-2.146,3.317-5.221,6.994-6.033,10.8
		c8.277,2.157,11.982-13.597,17.459-16.737c1.346,7.292-8.602,11.013-8.447,17.248c7.736,0.51,10.742-14.3,16.311-17.411
		c1.621,6.802-7.236,11.19-5.811,17.422c7.23-2.171,8.855-14.227,16.461-18.246c0.775,6.565-6.59,11.024-7.473,17.247
		c9.031,2.068,6.105-18.286,14.859-16.859c1.264,5.908-6.445,10.964-6.848,16.848c8.441,2.417,7.186-17.541,15.35-17.872
		c0.652,4.653-3.273,8.264-4.424,12.448c-1.346,4.889,1.008,8.766,5.387,4.403c2.656-2.647,2.648-6.773,4.611-9.917
		c1.861-2.983,4.447-4.894,7.498-7.034c5.854,5.703-8.377,12.133-6.313,18.471c8.176,0.697,7.053-19.296,14.727-17.847
		c2.16,4.778-2.859,8.537-3.984,12.84c-1.725,0.638-2.586,2.122-2.352,4.008c6.99,0.568,5.762-2.797,7.535-8.313
		c1.283-3.991,2.773-7.653,7.301-8.547c0.92,5.75-12.316,20.156-0.488,18.359c0.27-5.298,1.695-19.222,8.488-19.858
		c1.689,4.57-0.533,8.261-2.523,12.349c-0.908,1.865-6.074,9.688,1.025,7.5c4.459-4.033,1.486-16.188,10.01-18.376
		c0.584,3.112-7.867,19.026-0.5,16.897c0.773-5.591-0.393-15.552,5.988-17.871c0.457,2.737-8.244,21.807-0.914,19.46
		c5.201-1.666-1.191-17.854,8.914-18.46c0.984,4.096-2.791,4.753-3.447,7.822c-0.328,1.527,1.313,5.205,2.146,7.002
		c3.387,7.295,6.076,2.921,6.389-3.387c0.158-3.221-0.82-18.002,4.986-11.025c3.439,4.132-0.643,13.078-0.41,17.947
		c2.076,0.221,3.662-1.676,4.836-3.01c0.25-3.887-0.273-14.335,5-14.35c0.971,6.259-3.045,10.964-3.363,16.897
		c6.182,0.159,9.074-13.575,13.488-16.773c0.857,5.511-4.773,10.79-5.473,16.234c5.578,0.641,6.486-11.749,9.074-15.284
		c5.977-8.164,2.441,4.845,0.859,8.35c-3.971,8.797,2.451,6.468,5.127,0.137c1.807-4.278,2.072-10.932,7.801-11.06
		c0.326,7.044-2.092,11.954-4.361,17.848c0.646,0.065,1.215,0.021,1.85,0.001c2.867-3.596,3.184-13.523,7.586-15.789
		c7.447-3.834-2.617,13.397-2.424,16.299c8.941,1.578,3.305-16.59,11.35-17.347c0.939,5.534-2.551,10.582-3.361,15.847
		c0.898,0.262,2.492,0.24,3.377,0.002c3.354-3.571,3.629-9.887,5.145-14.84c0.695-0.497,2.08-0.962,2.826-1.048
		c0.895,4.983-1.672,11.496-3.836,15.835c6.982,4.736,4.148-17.229,11.35-16.794c0.275,6.046-2.723,11.556-1.85,17.345
		c0.65,0.08,1.188,0.059,1.836,0c2.379-5.074,2.727-10.351,5.377-15.422c-0.025-0.142-0.518-0.69-0.615-0.905
		c1.004-0.647,2.67-1.034,3.752-1.02c0.338,6.756-3.98,12.883-2.85,19.347c6.572,1.889,8.648-16.916,13.934-19.374
		c2.73,7.013-4.498,11.991-3.434,18.874c8.523,2.324,2.623-19.959,11.348-18.348c0.951,5.741-2.484,10.766-2.338,16.337
		c3.865,3.2,4.348-4.058,4.914-6.913c0.889-4.482,0.643-6.863,4.109-9.938c4.42,4.632-2.977,12.679-3.033,17.862
		c5.76,1.602,4.484-6.768,5.412-9.936c1.24-4.233,4.502-6.915,8.424-8.423c0.648,3.566-9.129,20.731-2.488,19.358
		c0.268-5.199,5.871-19.647,12-19.348c0.098,3.36,1.041,6.576,0.211,9.924c-0.789,3.18-2.82,5.515-2.561,8.923
		c5.217,0.192,4.418-14.158,8.438-17.883c2.127,5.906-2.547,11.437-1.438,16.886c9.588,4.737,1.156-16.991,9.85-15.85
		c0.986,5.656-3.109,11.203-0.838,16.837c5.256,0.703,3.439-13.843,5.502-17.324c5.566-0.472,0.605,13.6,0.461,16.361
		c0.85,0.25,2.525,0.208,3.375-0.026c-0.229-4.541,0.439-10.366,2.162-14.34c2.811-4.312,5.105-2.261,4.277,2.418
		c-0.723,4.076-3.525,7.324-3.787,11.424c11.287,3.66,0.508-16.839,9.35-16.35c1.455,5.17-2.273,11.156-0.426,15.924
		c2.836,7.321,5.506-5.69,6.387-9c0.961-3.614,3.955-12.145,6.611-4.522c2.004,5.752-3.646,11.843-2.924,17.457
		c6.873-2.649,3.762-20.728,10.824-20.369c1.633,3.888,0.156,8.694-0.887,12.423c-0.777,2.781-2.338,9.97,2.914,5.426
		c1.145-4.786-0.387-10.647,1.16-15.33c0.971-0.794,2.598-1.457,3.826-1.52c0.367,6.219-2.797,11.951-1.826,17.852
		c5.613,6.177,5.914-2.525,5.914-6.416c0-3.734-1.234-9.484,3-11.062c2.855,2.223,1.365,7.615,0.777,10.562
		c-0.361,1.805-2.992,10.892,2.359,6.637c4.482-3.563-2.666-17.903,5.289-18.097c0.236,2.723-5.385,23.804,2.986,18.873
		c0.422-7.048-1.078-13.194,1.674-19.326c5.672-1.075-1.156,22.131,4.563,18.062c4.27-3.038-2.928-17.103,5.777-17.608
		c0.822,5.159-6.406,17.244,0.988,18.383c2.375-6.124-1.297-16.812,6.109-18.484c2.957,3.041-0.699,12.35-0.438,16.976
		c0.262,0.29,0.703,0.69,1,1c6.738,1.412,0.361-17.882,7.838-17.762c0.096,2.152-3.35,21.531,2.975,15.746
		c3.689-3.375-3.693-15.969,4-16.334c2.428,5.371-1.297,12.104-0.822,17.859c0.773,0.22,2.074,0.219,2.848,0
		c1.107-4.588,0.449-18.838,7.5-17.848c0.313,5.929-2.711,11.319-1.848,16.848c4.326,1.04,3.35-13.967,7.324-16.884
		c0.705,3.876-6.441,20.002,0.914,18.884c2.053-5.294-0.695-17.487,6.109-19.397c0.322,6.704-2.693,12.021-2.848,18.397
		c0.797,0.225,2.045,0.195,2.848,0c-0.012-4.027,0.35-14.043,4.061-16.483c3.836,3.017-3.355,11.075-2.408,15.483
		c5.332,1.109,6.797-13.938,9.799-16.847c2.961,4.618-4.936,14.965-6.689,19.479c6.08-4.574,5.309-12.038,9.338-17.88
		c0.186,2.603-0.703,4.848-0.92,7.271c2.762-1.743,2.291-5.351,4.42-7.772c-0.215,1.059,0.199,2.268,0.053,3.286
		c1.52-1.124,2.844-2.479,3.924-3.962"/>
</g>
<g id="Guias">
</g>
</svg>
