<?xml version="1.0" encoding="utf-8"?>
<!-- Generator: Adobe Illustrator 16.0.0, SVG Export Plug-In . SVG Version: 6.00 Build 0)  -->
<!DOCTYPE svg PUBLIC "-//W3C//DTD SVG 1.1//EN" "http://www.w3.org/Graphics/SVG/1.1/DTD/svg11.dtd">
<svg version="1.1" xmlns="http://www.w3.org/2000/svg" xmlns:xlink="http://www.w3.org/1999/xlink" x="0px" y="0px"
	 width="366.667px" height="573.333px" viewBox="0 0 366.667 573.333" enable-background="new 0 0 366.667 573.333"
	 xml:space="preserve">
<g id="IGM">
	<polyline fill="none" stroke="#000000" stroke-width="2" stroke-miterlimit="10" points="29.49,5.771 8.666,27.999 8.666,563.999 
		345.666,563.999 362.666,544.999 	"/>
	<path fill="none" stroke="#000000" stroke-width="4" stroke-linejoin="round" stroke-miterlimit="10" d="M28.365,18.967
		c3.086,7.175-18.005,3.431-19.966,9.271c4.358,1.365,13.577-1.51,17.282,0.746c7.833,4.771-7.742,5.899-10.714,6.016
		c-8.866,0.347-9.684,5.709-0.635,6.667c4.551,0.481,14.307-2.224,13.934,4.566c-6.348,0.304-13.722-1.21-18.712,2.765
		c2.709,1.107,20.293-0.29,17.847,5.869c-2.555,6.432-23.334-3.291-20.285,6.684c6.037,2.437,14.074-1.354,19.768,2.232
		c0.357,1.118,0.342,3.314,0,4.435c-5.45,3.165-16.675-1.816-19.948,4.113c4.712,6.208,22.976-1.47,23.961,9.237
		c-6.862,0.403-21.462-3.212-24.312,4.617c5.294,4.167,24.04-1.856,22.981,8.048c-3.931,0.488-16.031-1.234-19.083,0.917
		c-9.015,6.357,9.648,4.866,12.517,5.184c8.506,0.941,9.491,6.106,0,6.666c-5.83,0.344-13.973-0.898-15.232,6.551
		c4.814,1.932,18.084-2.423,21.063,0.921c6.202,6.961-18.854,4.598-21.261,7.179c2.592,5.18,15.5,2.522,20.663,2.784
		c1.55,9.601-17.587,3.037-21.182,11.799c8.88,2.094,15.581-1.712,23.83-3.15c-0.895,12.488-22.06,3.047-23.775,12.468
		c5.953,4.028,15.307,1.854,22.461,2.217c0.051,0.852,0.075,1.596,0,2.45c-6.516,3.972-16.426-0.192-21.332,6.817
		c3.559,3.368,14.959,1.137,19.998,1.399c1.324,9.174-19.049-0.007-19.28,8.528c-0.229,8.494,18.967-4.316,18.076,4.02
		c-0.431,4.031-25.588,1.417-18.891,9.547c4.369,5.305,18.839-7.129,21.465,2.486c-4.999,2.333-20.002,2.236-19.833,9.884
		c3.74,0.516,20.562-5.123,19.26,1.432c-0.845,4.257-10.618,2.654-13.916,3.334c-3.484,0.718-6.182,2-8.714,4.166
		c4.282,5.48,16.525,2.905,23.167,3.27c1.865,8.827-16.372,3.695-21.117,6.683c-0.84,6.865,15.881,2.829,20.435,4.667
		c3.257,11.974-21.054,1.212-21.243,9.884c-0.118,5.442,18.259-0.628,21.259,2.101c10.442,9.499-15.69,4.975-19.813,12.396
		c5.427,2.668,24.604,3.892,20.58,6.795c-4.008,2.893-17.616,0.709-21.832,3.474c-13.029,8.544,23.676,2.876,23.082,7.526
		c-0.75,5.875-19.563,6.823-23.363,9.725c4.832,2.003,13.98,0.129,18.664-1.945c2.646,8.49-15.378,9.011-19.131,15.112
		c6.347,3.332,13.533-1.568,19.811-0.418c0.07,6.778-14.213,6.298-18.843,9.27c6.68,1.97,14.502,1.049,21.525,1.397
		c-2.441,7.109-14.839,2.119-19.108,7.217c-5.222,6.234,13.05,3.26,17.096,3.452c1.465,5.828-13.953,6.931-18.466,8.682
		c-0.046,0.847-0.073,1.599-0.002,2.452c6.633,2.119,12.66-1.548,19.134-0.468c2.448,9.147-17.369,3.218-20.497,11.099
		c6.679,0.714,13.68-0.74,20.531-0.447c-0.583,7.887-13.813,8.285-19.83,10.678c0.609,8.717,24.164-3.319,20.447,9.123
		c-4.709,3.802-13.149,1.876-19.118,2.229c-2.985,5.07-7.63,8.225,2.567,9.737c4.263,0.632,18.343-2.277,18.597,2.862
		c-5.88,2.618-19.98-1.144-23.76,6.104c-5.094,9.767,16.371,6.387,21.725,6.58c0.116,0.923,0.095,1.607-0.014,2.523
		c-4.423,1.688-18.405-0.412-20.563,4.73c-3.513,8.374,17.093,2.17,20.579,2.782c-0.492,8.976-18.84,3.294-19.793,13.135
		c6.063,0.297,21.335,0.888,20.938,2.39c-1.775,1.063-28.406,2.305-23.089,8.274c2.541,2.852,20.482,0.649,24.627,0.868
		c-0.616,5.579-18.365,4.732-22.695,9.246c4.431,3.724,12.114,1.146,18.016,1.421c0.074,0.858,0.063,1.595,0,2.449
		c-5.779,2.505-11.567,2.479-17.652,3.549c-4.089,7.134,13.207,4.432,17.652,4.668c0.358,7.043-18.549,5.183-21.147,11.117
		c6.515,1.424,14.245,0.842,20.482-0.447c2.099,8.763-12.616,6.425-17.118,8.68c-0.544,5.846,14.922,2.317,19.116,4
		c-1.041,5.965-14.307,6.049-19.166,7.313c0.313,4.668,16.83,7.076,19.865,8.052c-4.719,4.442-16.628,1.072-20.041,5.74
		c-2.179,0.708-2.275,0.967-3.155,3.331c5.828,3.506,16.385,1.207,23.161,1.548c1.481,6.678-18.805,5.781-21.811,12.452
		c6.552,1.887,13.896,0.299,20.478,0.212c-0.191,8.077-14.089,6.675-17.828,11.734c5.949,2.546,12.453-0.716,18.495,0.268
		c-0.023,7.8-16.617,5.093-20.643,10.566c5.144,4.218,16.211-1.954,20.81,2.667c-4.279,5.152-16.202-1.721-19.911,4.15
		c-5.074,8.031,13.124,4.354,16.413,4.616c1.852,7.146-16.846,4.743-19.145,11.117c7.966,0.438,15.107-1.377,22.44-3.153
		c-0.139,6.26-16.2,7.351-18.626,14.635c5.146,2.745,13.16-4.067,18.676-4.58c-3.161,7.653-20.287,5.233-19.807,16.449
		c5.311,1.025,22.155-10.363,26.543-13.798c-6.69,2.111-21.816,11.655-22.548,19.129c11.531,0.9,20.813-9.319,28.852-17.052
		c-4.363,6.579-7.021,12.33-9.87,18.519c14.523,4.456,13.524-11.979,23.465-17.315c-0.742,5.547-7.124,8.229-5.779,14.516
		c9.032,2.103,8.711-14.945,16.45-17.147c0.637,7.063-10.916,8.549-9.783,17.147c1.51,0.386,4.285,0.383,5.785-0.014
		c3.633-6.074,8.789-12.159,14.811-16.998c-0.019,7.242-8.438,10.599-7.93,18.345c7.125,1.62,9.902-7.045,11.233-12.581
		c2.374-9.877,5.324-6.741,2.852,2.016c-1.697,6.008-3.959,18.079,4.462,8.632c4.616-5.178,3.852-12.937,11.252-15.712
		c1.631,6.365-5.782,10-4.447,16.992c5.379-2.379,6.329-14.03,11.034-15.427c9.775-2.9-2.303,16.609-2.438,18.729
		c5.95,0.503,7.026-4.997,8.732-9.215c2.726-6.74,3.636-9.353,9.77-12.597c1.037,7.024-4.65,13.129-7.351,19.273
		c7.965,3.163,11.046-13.884,16.8-18.125c3.873,4.928-2.292,14.035-5.282,17.998c7.512,2.013,6.415-3.624,8.098-8.417
		c1.617-4.607,5.11-9.253,8.383-12.746c0.72,10.152-6.035,15.908-5.098,25.846c8.132,1.017,6.151-19.293,14.45-21.812
		c0.965,4.98-4.166,12.078-5.114,17.143c6.383,0.01,2.858-19.543,12.465-19.794c1.553,5.47-5.675,13.135-6.97,18.562
		c5.471,6.585,12.954-14.287,17.118-18.448c0.795,7.266-7.479,12.802-5.949,19.683c0.832,0.023,1.613,0.062,2.452,0.002
		c3.112-5.881,6.724-15.484,11.463-20.016c2.846,7.318-3.157,14.605-5.282,21.313c5.847,0.836,9.929-15.869,14.598-19.31
		c2.083,3.259-3.822,15.049-4.399,17.507c7.104-3.096,6.301-15.409,12.97-16.624c1.43,7.133-4.883,12.522-5.801,18.476
		c5.844-1.547,7.324-11.343,11.917-15.23c9.724-8.229-1.461,12.899-2.149,13.313c10.518,4.728,10.07-9.313,15.84-16.456
		c1.184-1.465-3.329,10.98-1.609,19.022c5.958,0.052,11.718-18.718,16.436-22.495c0.585,8.322-5.947,14.835-5.767,22.497
		c6.267,1.514,9.501-16.775,13.746-20.515c1.05,4.572-2.462,14.623-3.761,19.166c11.912,3.469,5.084-18.999,13.83-18.926
		c-0.463,7.181-4.138,12.298-3.797,19.623c6.546-2.032,6.482-14.26,11.767-17.84c1.104,7.226-5.164,17.874,0.78,18.592
		c3.482,0.421,3.652-10.47,4.266-13.371c0.466-2.203,0.828-4.675,1.712-6.736c0.754-1.762,2.018-1.457,3.349-0.26
		c1.572,1.414,1.014,4.057,0.824,5.986c-0.246,2.502-0.762,4.941-0.949,7.453c-0.125,1.689-0.824,4.087-0.31,5.777
		c0.755,2.481,2.608,1.125,3.759-0.32c1.641-2.061,1.145-4.178,1.342-6.67c0.215-2.735,0.227-5.664,1.277-8.225
		c0.51-1.242,1.767-4.49,3.395-4.728c2.314-0.337,1.864,4.27,1.716,5.659c-0.439,4.107-3.718,10.439-0.869,14.219
		c1.206,1.601,2.793,1.076,3.917-0.712c1.413-2.247,1.223-6.487,1.314-9.021c0.042-1.139,0.373-12.59,3.582-8.939
		c1.423,1.618,0.759,5.215,0.515,7.076c-0.343,2.619-0.551,5.163-0.551,7.823c0,1.214-0.349,3.192,0.757,3.909
		c1.848,1.199,2.103-1.418,2.496-2.656c1.62-5.09-0.448-11.093,3.188-15.518c3.523-4.287,2.758,6.577,2.76,8.318
		c0.002,1.47-0.068,11.255,3.553,7.63c1.488-1.49,0.678-5.912,0.521-7.801c-0.25-3.021-0.905-5.615,0.727-8.308
		c1.715-2.829,2.371-1.658,2.918,1.191c0.793,4.135,0.77,8.265,0.564,12.481c-0.088,1.808-0.621,4.294,0.688,5.842
		c1.621,1.92,2.207-2.034,2.092-3.378c-0.203-2.361-1.252-4.597-1.339-7.031c-0.069-1.922-0.299-4.276,0.125-6.156
		c0.317-1.412,1.669-5.507,3.267-6.036c2.104-0.696,1.816,6.795,1.871,8.197c0.127,3.228,0.252,7.438,1.837,10.343
		c0.341,0.626,2.45,3.396,3.019,3.414c2.598,0.082,1.11-6.895,0.855-7.877c-0.802-3.082-1.472-7.362-0.335-10.438
		c0.63-1.705,2.941-6.73,3.767-2.612c0.953,4.754-0.174,9.602,0.443,14.344c0.269,2.067,1.516,5.582,3.035,7.073
		c1.951,1.915,3.047-0.655,3.42-2.626c0.792-4.194-1.061-8.097-1.061-12.231c0-1.433,0.367-6.517,2.49-6.836
		c1.938-0.292,2.476,8.265,2.637,9.83c0.469,4.568,1.979,8.215,4.996,11.484c0.935-1.801,0.313-4.611-0.158-6.459
		c-0.765-3-1.942-5.895-2.345-8.98c-0.155-1.185,0.031-9.07,2.105-5.462c1.22,2.124,0.878,5.075,1.606,7.392
		c0.691,2.2,1.665,4.485,2.626,6.588c0.41,0.897,2.663,6.021,3.897,6.127c0.836-4.876-1.496-9.508-1.988-14.314
		c-0.17-1.665-0.712-5.94,0.791-7.051c1.118,1.589,0.766,4.836,0.826,6.647c0.086,2.618,0.236,5.26,1.179,7.728
		c0.77,2.016,2.098,5.353,3.938,6.632c2.168-2.732-1.086-8.968-1.904-11.721c-1.063-3.576-1.381-6.199,1.021-9.328
		c1.743,1.661,0.793,6.049,1.308,8.342c0.552,2.458,1.42,5.01,3.131,6.898c1.083-0.893,1.511-3.824,1.189-5.21
		c-0.54-2.333-2.878-5.871-2.115-8.316c0.357-1.148,0.567-1.041,1.317-0.177c1.018,1.172,1.42,3.308,2.034,4.733
		c0.869,2.018,2.07,3.771,3.763,5.091c-0.074-2.202-0.657-3.994-1.197-6.103c-0.303-1.187-0.583-2.134-0.107-3.269
		c1.288,0.422,2.265,4.405,3.752,4.357c0.697-0.022,1.818-2.714,2.796-3.192"/>
	<path fill="none" stroke="#000000" stroke-width="4" stroke-linejoin="round" stroke-miterlimit="10" d="M26.334,18.165
		c-0.442,1.769-7.508,3.807-9.338,3.801c-3.37-0.011-1.339-2.864,0.467-3.718c2.763-1.306,5.899-1.829,8.54-3.425
		c2.046-1.236,1.998-2.846,1.997-5.158"/>
</g>
<g id="Guias">
</g>
</svg>
