<?xml version="1.0" encoding="utf-8"?>
<!-- Generator: Adobe Illustrator 16.0.0, SVG Export Plug-In . SVG Version: 6.00 Build 0)  -->
<!DOCTYPE svg PUBLIC "-//W3C//DTD SVG 1.1//EN" "http://www.w3.org/Graphics/SVG/1.1/DTD/svg11.dtd">
<svg version="1.1" xmlns="http://www.w3.org/2000/svg" xmlns:xlink="http://www.w3.org/1999/xlink" x="0px" y="0px"
	 width="27.625px" height="25px" viewBox="0 0 27.625 25" enable-background="new 0 0 27.625 25" xml:space="preserve">
<g id="Vectores">
</g>
<g id="Imagenes">
</g>
<g id="Cintillos">
</g>
<g id="BOtones">
</g>
<g id="Logos">
</g>
<g id="Igonos">
</g>
<g id="TXT">
	<ellipse fill="none" stroke="#303030" stroke-width="0.75" stroke-miterlimit="10" cx="13.756" cy="3.25" rx="12.438" ry="1.375"/>
	<ellipse fill="none" stroke="#303030" stroke-width="0.75" stroke-miterlimit="10" cx="13.756" cy="22.25" rx="5.813" ry="1.375"/>
	<path fill="none" stroke="#303030" stroke-width="0.75" stroke-miterlimit="10" d="M1.381,3.25c0,2.132,0.091,4.021,0.285,6.027
		c0.09,0.936-0.234,2.033,0.649,2.595c0.796,0.505,1.733-0.125,2.659,0.222c0.875,0.328,1.239,0.893,2.219,1.031
		c1.148,0.162,2.112-0.319,3.194-0.409c1.188-0.099,1.934,0.497,3.056,0.659c1.19,0.172,2.359-0.303,3.473-0.528
		c1.727-0.35,3.645,0.089,5.412-0.222c1.068-0.188,0.787-0.441,1.519-1.104c0.444-0.402,1.2-0.586,1.594-0.978
		c0.756-0.754,0.48-2.588,0.6-3.794c0.144-1.445,0.281-2.323,0.028-3.563"/>
	<path fill="none" stroke="#303030" stroke-width="0.75" stroke-linejoin="round" stroke-miterlimit="10" d="M11.234,20.959
		c1.702-0.188,1.48-6.688,0.833-7.833"/>
	<path fill="none" stroke="#303030" stroke-width="0.75" stroke-linejoin="round" stroke-miterlimit="10" d="M16.549,20.959
		c-1.702-0.188-1.48-6.688-0.833-7.833"/>
	
		<path fill="none" stroke="#303030" stroke-width="0.75" stroke-linecap="round" stroke-linejoin="round" stroke-miterlimit="10" d="
		M1.819,3.791C1.517,3.82,1.313,3.788,1.285,4.154c0.588,0.101,1.076-0.3,1.638-0.158C2.511,4.535,1.82,4.772,1.273,5.225
		C2.238,5.297,2.82,4.169,3.729,4.058C3.724,4.984,2.02,5.468,1.576,6.198c1.252,0.177,2.321-1.729,3.4-1.789
		c-0.327,1.46-2.666,1.775-3.398,3.033C2.385,7.405,2.862,6.477,3.62,6.28c0.44-0.743,1.974-1.791,2.853-1.812
		c0.102,0.994-1.746,1.936-2.464,2.344C3.154,7.298,2.412,7.979,1.584,8.389c-0.006,0.105-0.009,0.199,0,0.305
		C2.273,9.035,4.529,7.173,5.271,6.71C5.935,6.297,6.5,5.927,7.067,5.392c0.345-0.326,0.716-0.909,1.155-0.921
		C8.139,5.553,6.443,6.818,5.716,7.442C4.803,8.226,3.41,9.271,2.267,9.555c-0.124,0.308-0.446,0.497-0.688,0.721
		c1.665,0.167,2.95-1.379,4.179-2.276c0.875-0.64,1.573-1.313,2.141-2.188C8.248,5.27,8.495,4.438,9.307,4.555
		c0.198,0.769-0.641,1.076-1.088,1.481C7.239,6.922,6.4,7.903,5.38,8.711c-0.632,0.498-1.14,1.01-1.721,1.535
		c-0.413,0.372-1.521,0.927-1.577,1.449c1.813,0.438,3.546-1.863,4.654-3.135c0.907-1.041,1.84-3.714,3.57-3.76
		c0.241,0.89-2.314,2.919-2.886,3.572c-0.564,0.645-1.087,1.291-1.701,1.85c-0.437,0.396-1.32,1.066-1.221,1.723
		c1.206,0.1,1.614-0.56,2.219-1.471C7.311,9.579,8.07,8.717,8.572,7.794c0.817-1.505,1.709-2.603,3.389-3.004
		c-0.093,0.001-0.47,0.013-0.403,0.002c0.317,0.032,0.642-0.017,0.92-0.071c-0.221,0.853-1.732,1.508-2.394,2.112
		C9.385,7.472,8.869,8,8.47,8.792c-0.395,0.783-0.763,1.518-1.313,2.127c-0.442,0.491-1.21,1.122-1.241,1.86
		c1.154,0.206,2.025-0.901,2.468-1.74c0.557-1.057,1.241-2.072,1.963-3.062c0.495-0.68,1.075-1.368,1.7-1.956
		c0.565-0.534,1.368-0.852,1.859-1.45c-0.504,1.976-2.193,3.146-3.837,4.431C9,9.837,7.391,11.505,7.582,13.029
		c0.829,0.21,1.49-1.119,1.906-1.659c0.658-0.853,1.406-1.584,2.166-2.368c0.742-0.766,1.298-1.504,1.807-2.416
		c0.294-0.527,0.836-1.568,1.344-1.783c0.178,1.345-1.364,3.087-2.232,3.988c-1.246,1.293-2.496,2.119-3.161,3.738
		c0.946,0.079,1.295-0.208,1.864-0.881c0.64-0.757,1.404-1.312,2.066-2.023c1.287-1.382,1.62-3.345,2.511-4.833
		c-0.657-0.62-0.893,1.181-1.015,1.583c-0.331,1.083-0.659,1.948-1.275,2.907c-0.898,1.398-2.146,2.405-3.045,3.766
		c1.662-0.049,2.979-2.367,3.797-3.522c1.055-1.491,2.303-3.326,2.848-5.046c-0.348,0.876-0.906,1.599-1.322,2.483
		c-0.372,0.789-0.767,1.656-1.201,2.412c-0.568,0.985-2.402,2.646-2.307,3.82c0.81-0.104,1.419-1.155,1.918-1.751
		c0.594-0.708,1.275-1.438,1.759-2.216c0.874-1.404,2.017-2.926,1.899-4.664c-0.505,0.722-0.556,1.901-0.92,2.728
		c-0.58,1.312-1.327,2.559-2.049,3.818c-0.207,0.362-0.87,1.268-0.854,1.68c0.031,0.788,0.493,0.575,0.898,0.149
		c1.162-1.223,2.01-3.175,2.749-4.709c0.369-0.764,0.572-1.204,0.669-2.028c0.069-0.589,0.015-1.069,0.356-1.548
		c0.825,2.813-1.865,6.021-2.593,8.375c1.573-0.003,2.361-2.88,2.651-4.05c0.207-0.839,0.47-1.62,0.669-2.439
		c0.148-0.61,0.144-1.565,0.585-1.993c0.47,1.273-0.35,3.24-0.731,4.477c-0.287,0.929-1.32,3.082-0.854,3.946
		c1.004-1.271,1.541-2.644,2.083-4.261c0.401-1.198,1.003-2.981,0.819-4.244C21,4.828,21.236,6.379,21.156,6.958
		c-0.094,0.684-0.256,1.358-0.422,2.013c-0.186,0.729-0.112,1.488-0.267,2.219c-0.121,0.571-0.557,1.117-0.553,1.673
		c1.213,0.13,1.979-3.699,2.053-4.487c0.054-0.58-0.302-4.021,0.597-4.006c0.936,0.017-0.549,5.135-0.77,5.73
		c-0.19,0.512-0.813,1.794-0.561,2.362c0.522,1.178,0.684-0.42,0.748-0.852c0.222-1.499,0.954-2.851,1.172-4.32
		c0.108-0.733-0.17-2.85,0.65-3.156c0.162,2.874-0.604,5.499-0.851,8.23c1.199-0.212,1.03-3.72,1.115-4.577
		c0.137-1.379,0.184-2.916,0.9-4.072c0.15,2.421-0.698,4.864-0.638,7.23c1.598,0.208,0.504-6.368,1.167-7.306
		c0.485,0.052,0.069,2.527,0.069,3.171c0,1.216,0,3.814,0,3.814"/>
</g>
<g id="Guias">
</g>
</svg>
