<?xml version="1.0" encoding="utf-8"?>
<!-- Generator: Adobe Illustrator 16.0.0, SVG Export Plug-In . SVG Version: 6.00 Build 0)  -->
<!DOCTYPE svg PUBLIC "-//W3C//DTD SVG 1.1//EN" "http://www.w3.org/Graphics/SVG/1.1/DTD/svg11.dtd">
<svg version="1.1" xmlns="http://www.w3.org/2000/svg" xmlns:xlink="http://www.w3.org/1999/xlink" x="0px" y="0px"
	 width="412.254px" height="124.958px" viewBox="0 0 412.254 124.958" enable-background="new 0 0 412.254 124.958"
	 xml:space="preserve">
<g id="Vectores">
</g>
<g id="Imagenes">
</g>
<g id="Cintillos">
	<g>
		<rect x="2.754" y="6.125" fill="none" stroke="#F7931E" stroke-miterlimit="10" width="400" height="116"/>
		<path fill="none" stroke="#F7931E" stroke-linejoin="round" stroke-miterlimit="10" d="M10.254,3
			C9.163,3.048,7.822,4.097,6.75,4.473C5.782,4.812,4.308,4.741,3.632,5.475C5.891,5.619,8.64,5.83,10.835,5.36
			C10.457,7.275,5.26,6.686,3.783,6.771C5.826,8,8.308,8.075,10.743,8.396C10.328,8.823,8.018,9.182,7.254,9.25
			C6.026,9.359,4.731,9.068,3.536,9.375C5.881,9.996,8,10.247,10.522,10.25c-0.687,0.202-1.741,0.983-2.64,1.257
			c-1.374,0.416-2.639,0.334-4.068,0.118c2.256-0.092,4.614,0.6,6.833,0.875c-1.426,0.862-4.964,0.375-6.861,0.375
			c1.159-0.189,2.468,0.607,3.624,0.757c0.953,0.122,2.307,0.286,3.118,0.618c-1.262,0.217-2.208,0.875-3.646,0.875
			c-1.008-1-2.369,0-3.152,0c1.387-1,2.701,0.133,4.051,0.277c0.902,0.097,2.229-0.219,2.993,0.095
			c-1.646,0.929-5.056,1.452-6.893,0.469c1.246-0.146,2.522,0.632,3.747,0.815c1.043,0.156,2.14,0.067,3.206,0.131
			c-1.396,1.953-5.313-0.246-7.075,0.946c1.983,0.59,4.726,0.185,6.831,0.136c-0.799,0.711-2.356,0.75-3.303,0.987
			c-0.903,0.226-2.331,0.739-3.052,0.645c2.202,0,4.205-0.228,6.32-0.513c-1.749,1.566-4.774,2.296-7.105,2.255
			c2.074,0.818,5.354,0.39,7.39-0.499c-1.177,0.017-2.806,1.119-3.962,1.506c-1.063,0.355-2.273,0.738-3.24,1.222
			c2.064,0.33,5.153-0.722,6.852-1.703c-2.431,1.018-4.442,2.658-6.955,3.613c2.338-0.038,4.818-0.884,6.861-0.882
			c-2.105,0.013-5.562,0.501-7.076,1.981c2.438,0.351,4.942-1.386,7.424-0.585c-1.039,0.948-3.2,0.968-4.587,1.354
			c-0.737,0.204-2.044,0.241-2.581,0.757c2.485-0.044,5.236,0.199,7.555-0.231c-1.56-0.027-3.178,0.94-4.564,1.481
			c-0.909,0.354-1.865,0.397-2.555,0.972c2.122,0.012,4.438-0.891,6.579-0.953c-1.985,1.211-5.675,0.893-7.077,2.574
			c2.369,0.371,4.813-1.311,7.074-0.981c-2.233,0.784-4.556,2.321-6.78,2.757c1.104-0.02,6.528,0.903,6.808-0.729
			c-2.589-0.157-4.66,0.999-6.826,1.953C5.98,35.148,8.665,35,10.653,35c-2.851-0.09-4.809,0.967-7.239,2.01
			c2.279,0.168,4.857-1.542,7.073-1.113c-1.058,1.918-5.218,0.992-6.521,2.481c1.635,0.515,4.756,0.388,6.377-0.131
			c-1.621-0.197-4.657,1.384-6.123,2.1c1.75,0.267,4.438-0.239,6.177-0.596c-0.802,0.208-1.862,1.285-2.918,1.6
			c-1.18,0.351-2.192,0.592-3.319,1.156c1.293-0.081,2.516-0.826,3.822-1.038c0.946-0.152,1.958-0.188,2.915-0.344
			c-0.789,0.137-2.216,0.935-3.178,1.271c-1.222,0.427-2.501,0.688-3.685,1.203c2.111,0.161,4.684,0.247,6.688-0.352
			c-1.066,0.087-2.428,1.01-3.56,1.349c-0.954,0.286-2.198,0.306-3.055,0.784c1.866-0.046,4.354-0.387,6.436-0.384
			c-2.262,0.311-4.317,1.743-6.512,2.128c2.228,0.002,4.462,0.127,6.487-0.627c-1.684,1.382-4.513,1.878-6.57,2.884
			c2.248,0.021,4.764-0.616,6.923-1.034c-0.774-0.391-2.993,0.919-3.799,1.268c-1.082,0.47-2.17,0.939-3.187,1.357
			c1.341,0.104,2.644-0.212,3.992-0.223c0.808-0.007,1.945,0.139,2.621-0.104c-1.303,0.145-2.554,1.297-3.87,1.607
			c-0.745,0.175-1.585,0.103-2.245,0.471c1.932,0.129,4.393-0.125,6.201-0.73c-1.205,0.188-2.393,0.975-3.592,1.385
			c-0.942,0.322-2.064,0.561-2.892,0.996c2.074,0.823,4.065-0.849,6.095-0.756c-1.223,0.135-2.653,1.262-3.855,1.725
			c-0.728,0.28-1.576,0.521-2.203,0.878c1.719,0.153,4.728,0.007,6.324-0.608c-1.663,1.329-4.536,1.253-5.948,2.611
			c2.069,0.134,3.791-0.214,5.735-0.505c-0.929-0.031-2.463,1.359-3.434,1.814c-0.863,0.404-1.613,0.727-2.455,1.097
			c1.724-0.047,4.568,0.4,6.201-0.638c-2.356,0.036-4.859,0.36-6.827,1.625c0.988,1.08,5.552-0.236,6.88-0.609
			c-1.37,2.017-5.177,1.82-6.985,3.351c2.151-0.444,4.512-2.181,6.732-1.841c-0.463,1.65-5.165,2.249-6.505,2.984
			c1.113,0.446,2.976-0.226,4.25-0.253c0.938-0.021,2.195-0.078,2.891-0.606C8.772,65.071,5.754,66.099,3.967,67
			c2.314-0.204,4.419,0.198,6.621-0.756c-1.202,0.275-2.302,1.37-3.494,1.859C6.103,68.511,5,68.67,4.035,69.256
			c1.516-0.021,3.051,0.099,4.534-0.165c0.935-0.166,1.782-0.597,2.649-0.716c-1.364,0.07-3.085,1.612-4.34,2.223
			c-1.081,0.525-2.125,0.867-3.115,1.374c2.093,0.18,5.214-0.192,7.056-0.979c-1.469-0.026-2.662,0.483-4.04,0.851
			c-0.899,0.24-2.086,0.392-2.838,0.909c2.3-0.017,4.629,0.05,6.806-0.28c-0.963-0.3-2.974,1.146-4.021,1.552
			c-0.897,0.347-1.981,0.737-2.739,1.226c1.42,0.714,5.541-1.139,6.876-1.668c-1.239,0.737-2.276,1.67-3.696,2.14
			c-1.034,0.342-2.139,0.454-2.975,1.001c2.65,0.211,5.68,0.023,8.027-1.072c-1.47,0.074-3.397,1.693-4.843,2.218
			c-1.144,0.416-2.405,0.885-3.49,1.229c2.008,0.146,5.35-0.164,6.999-1.204c-2.016,0.307-4.568,1.782-6.355,2.609
			c1.742,0.07,4.566-0.677,5.961-1.578c-2.07,1.418-5.042,1.155-6.93,2.544c2.943,0.894,5.436-0.189,8.024-1.1
			c-2.509,1.154-5.271,2.819-8.05,3.104c2.713,0.196,4.761-0.986,7.219-1.348"/>
		<rect x="10.254" y="2.625" fill="#F7931E" width="400" height="116"/>
		<path fill="none" stroke="#F7931E" stroke-linecap="round" stroke-linejoin="round" stroke-miterlimit="10" d="M10.259,82.498
			c-2.43,1-4.682,1.736-7.145,2.988c2.62,0.025,4.539-0.614,6.786-1.657c-2.598,0.585-4.818,3.246-6.441,4.359
			c1.914-0.799,4.197-2.935,6.454-2.405c-2.243,1.272-4.839,3.068-6.859,4.846c2.286-0.777,4.39-2.026,6.636-2.683
			c-1.876,1.912-5.023,3.312-6.629,5.326c1.979-0.549,4.335-1.976,6.291-2.905c-1.506,2.882-3.993,3.75-6.373,5.542
			c2.13-1.343,4.6-3.265,7.213-3.427c-2.829,1.457-5.527,3.498-7.477,5.926c2.16-1.126,4.18-2.881,6.224-4.06
			c-0.615,2.479-4.13,4.156-5.464,6.439c1.552-1.798,3.933-3.336,6.081-4.256c-2.46,2.097-4.685,4.52-6.833,6.751
			c2.332-1.222,4.341-3.223,6.631-4.318c-1.696,1.704-6.278,4.971-6.9,6.746c2.86-0.666,4.543-4.169,7.439-4.786
			c-2.272,1.69-5.811,4.643-7.455,6.939c2.48-0.863,4.756-3.565,7.456-4.565c-2.358,2.248-5.554,4.655-7.374,7.278
			c2.289-0.772,4.867-2.913,7.096-4.049c-2.211,2.608-4.601,4.61-6.826,6.819c1.678-1.426,4.337-3.483,6.557-4.101
			c-1.512,2.571-3.989,4.749-6.293,6.521c2.506-0.425,4.042-3.443,6.86-3.547c-2.966,1.841-4.907,4.705-7.468,6.738
			c2.257-0.92,4.52-3.599,6.688-4.784c-1.102,2.388-4.214,4.638-6.359,6.406c2.395-0.76,4.329-3.668,6.931-4.249
			c-1.592,1.909-3.604,3.639-5.366,5.33c2.371-0.691,4.211-3.047,6.583-3.724c-0.867,1.163-2.098,1.868-3,2.972"/>
		<path fill="none" stroke="#F7931E" stroke-linecap="round" stroke-linejoin="round" stroke-miterlimit="10" d="M8.087,121.959
			c0.435-0.688,0.847-1.428,1.503-2.002c0.559-0.489,1.65-0.871,1.928-1.566c0.143-0.062,0.324-0.094,0.474-0.085
			c-0.136,0.826-0.599,1.488-1.295,2.033c-0.569,0.445-1.622,0.995-0.942,1.799c0.51-0.699,1.653-1.083,2.255-1.845
			c0.557-0.705,1.22-1.346,1.98-1.743c0.089,0.714-0.724,1.276-0.989,1.905c-0.15,0.356-0.399,1.131-0.398,1.499
			c1.109-0.945,1.629-2.335,2.973-3.069c0.224,1.065-0.683,2.177-1,3.131c0.771-0.803,1.65-1.578,2.44-2.394
			c0.376-0.389,0.553-0.849,0.976-1.07c0.131,1.437-0.695,2.687-1.457,3.734c0.645-0.483,1.187-1.287,1.816-1.825
			c0.662-0.564,1.627-0.933,2.181-1.584c0.462,1.074-1.628,2.127-1.431,3.246c1.418-1.397,2.918-2.465,4.491-3.637
			c0.08,1.348-1.056,2.559-1.45,3.72c0.963-1.66,3.158-2.304,4.52-3.446c-0.69,0.978-2.086,2.48-2.238,3.682
			c-0.32-1.472,3.466-3.239,4.423-3.954c-0.281,1.002-1.21,1.868-1.696,2.807c-0.275,0.53-0.543,1.035-0.819,1.562
			c0.577-1.361,1.879-2.165,3.11-2.917c0.453-0.276,1.027-0.435,1.465-0.748c0.312-0.224,0.315-0.563,0.755-0.633
			c0.119,0.853-1.174,3.601-2.139,3.981c-0.356-1.355,3.097-3.213,3.971-3.89c0.149,0.806-0.813,1.913-1.008,2.734
			c-0.077,0.328-0.142,0.745-0.296,0.983c-0.114-0.979,1.794-3.581,2.804-3.993c0.132,1.099-0.558,2.729-0.977,3.745
			c0.895-1.196,1.749-3.018,3.14-3.655c0.154,1.43-0.969,2.632-0.821,3.974c0.636-1.697,2.387-3.107,3.766-4.184
			c-0.628,1.288-1.265,2.445-1.667,3.774c0.695,0.052,1.58-1.835,2.095-2.321c0.505-0.477,1.167-0.758,1.711-1.159
			c0.279,1.684-1.263,2.947-1.567,4.47c0.3-1.092,1.642-2.548,2.48-3.283c0.74-0.648,2.18-1.139,2.623-2.021
			c0.669,1.69-1.098,3.189-1.676,4.489c1.337-0.9,2.722-2.563,3.66-3.806c0.05,0.836-0.418,1.952-0.709,2.718
			c-0.157,0.41-0.484,0.778-0.363,1.235c0.84-1.607,2.248-2.696,3.389-4.036c0.203,1.403-1.12,2.476-0.975,3.786
			c0.748-0.729,1.124-1.853,1.828-2.649c0.343-0.389,0.716-0.719,1-1.135c-0.006,1.492-0.874,2.719-0.841,4.203
			c0.007-1.992,2.637-2.441,3.088-4.024c-0.307,1.228-0.349,2.561-0.59,3.777c0.163-0.848,0.882-1.645,1.342-2.402
			c0.286-0.471,0.422-0.991,0.642-1.41c0.095,1.174,0.278,2.84-0.048,3.974c0.054-1.693,1.888-2.924,2.487-4.323
			c-0.037,1.298-0.455,2.979-0.339,4.325c0.306-1.379,1.456-3.594,2.841-4.182c0.541,1.449-0.821,2.939-0.839,4.351
			c-0.114-1.033,1.169-1.866,1.674-2.63c0.312-0.473,0.365-1.114,0.726-1.517c0.08,1.156,0.039,2.365-0.195,3.494
			c0.63-1.365,1.05-2.666,2.389-3.635c0.049,1.232-0.881,2.37-0.83,3.548c0.441-0.111,0.703-1.378,0.986-1.822
			c0.469-0.736,1.479-1.543,1.669-2.401c-0.01,1.452-0.305,3.396,0.058,4.729c0.573-1.373,1.508-3.014,2.508-4.081
			c0.126,0.884-0.964,2.909-0.233,3.577c0.31-0.574,0.485-1.183,0.833-1.76c0.337-0.559,0.877-0.907,1.173-1.456
			c-0.026,1.178-0.066,2.383-0.073,3.542c0.581-1.384,1.41-2.686,2.051-3.983c0.09,1.173-0.305,2.915,0.082,3.996
			c-0.037-1.277,1.438-2.373,1.351-3.731c-0.002,0.759-0.544,3.214-0.016,3.731c0.3-1.132,0.291-3.38,1.333-4.084
			c0.06,0.928-0.392,2.889,0.267,3.603c0.65-0.971,0.416-2.326,1.172-3.25c-0.022,1.092-0.223,2.437,0.177,3.474
			c1.009-0.626,1.468-2.501,2.404-3.26c0.134,1.395-0.901,3.089-1.319,4.351c0.255-1.612,1.995-2.751,2.149-4.318
			c0.001,1.302-0.063,2.585-0.087,3.882c0.523-1.283,1.597-2.3,2.151-3.536c0.139,0.936-0.328,1.899-0.318,2.854
			c0.201-1.177,1.216-2.09,1.735-3.042c0.188,1.23-0.823,2.301-0.715,3.492c0.386-0.867,1.067-1.641,1.566-2.476
			c0.293-0.491,0.488-1.09,0.841-1.504c-0.032,1.247,0.28,2.854-0.084,4.046c0.947-0.891,1.109-2.587,2.229-3.22
			c0.137,0.985-0.708,2.212-0.889,3.157c0.363-0.357,0.57-1.001,0.818-1.451c0.414-0.751,0.893-1.474,1.343-2.196
			c0.008,1.214-0.611,2.491-0.747,3.695c0.883-1.326,1.702-3.258,2.323-4.571c-0.005,1.68-0.132,3.345-0.546,4.939
			c0.485-1.356,1.533-2.529,1.962-3.813c0.071,0.936-0.488,1.971-0.168,2.832c0.576-1.026,1.543-2.24,1.837-3.336
			c0.065,0.772-1.216,3.01-0.482,3.444c0.497-0.971,1.319-2.813,2.319-3.35c-0.029,1.204,0.04,2.803-0.514,3.864
			c0.758-1.699,1.623-3.28,2.745-4.611c0.146,1.444-1.387,2.829-1.251,4.126c0.735-1.153,1.395-2.335,2.273-3.373
			c-0.626,0.782-1.343,2.492-1.579,3.462c0.714-0.629,1.115-1.958,1.654-2.79c0.246-0.379,0.496-0.665,0.67-1.015
			c0.009,1.302-0.878,2.457-0.756,3.707c0.038-0.888,1.369-2.933,2.24-3.309c-0.001,0.952-0.634,1.83-0.661,2.804
			c0.312-0.6,0.706-1.245,1.17-1.746c0.371-0.4,1.068-0.729,1.235-1.221c0.133,1.293-0.594,2.983-1.059,4.149
			c0.638-0.494,0.942-1.387,1.426-2.033c0.416-0.557,1.031-0.94,1.234-1.595c0.107,1.441-1.369,2.45-1.238,3.958
			c0.818-0.207,1.516-2.33,1.975-3.052c0.307-0.482,0.464-1.168,1.087-1.394c-0.251,1.06-0.854,2.169-0.909,3.269
			c0.209-1.323,1.402-2.585,1.84-3.868c0.025,1.411-0.824,2.682-0.909,4.053c1.029-0.646,1.321-2.428,1.908-3.456
			c-0.019,0.828-0.041,1.629-0.231,2.442c-0.1,0.427-0.39,0.982-0.297,1.346c0.387-0.724,0.693-1.465,0.942-2.248
			c0.178-0.561,0.209-1.531,0.733-1.824c0.058,1.038,0.189,2.309-0.061,3.323c0.941-0.132,1.068-2.387,1.179-3.165
			c0.102,0.965-0.381,2.372-0.509,3.418c0.901-0.816,0.988-2.51,1.221-3.644c0.095,1.356-0.257,2.843-0.553,4.138
			c0.564-0.919,0.84-2.405,0.987-3.576"/>
		<path fill="none" stroke="#F7931E" stroke-linecap="round" stroke-linejoin="round" stroke-miterlimit="10" d="M111.004,122.293
			c0.548-0.225,0.613-1.431,0.834-1.966c0.31-0.753,0.677-1.771,1.059-2.446c0.559,1.245-0.447,2.944-0.38,4.319
			c1.153-0.209,1.439-3.479,1.991-4.363c-0.016,0.932-0.051,1.882-0.008,2.813c0.023,0.52,0.234,1.099-0.051,1.559
			c0.746-1.234,1.063-2.819,1.643-4.059c0.061,1.131-0.345,2.468,0.01,3.547c0.857-0.196,1.825-2.619,2.304-3.459
			c-0.31,1.298-0.78,2.638-0.891,3.965c0.835-0.601,2.53-2.464,2.572-3.636c0.068,1.033-1.021,2.403-0.585,3.326
			c0.52-0.585,0.677-1.582,1.174-2.276c0.344-0.479,0.956-0.989,1.011-1.576c0.683,1.408-0.481,3.017-0.337,4.5
			c0.672-0.822,1.222-1.839,1.92-2.687c0.49-0.596,1.083-1.218,1.382-1.898c0.099,1.265-0.099,2.781-0.386,3.992
			c0.892-0.721,1.479-2.4,2.158-3.462c0.124,1.024-0.486,2.346-0.66,3.38c0.467-0.192,1.013-1.562,1.342-2.089
			c0.521-0.837,0.975-1.635,1.59-2.372c0.432,1.711-0.565,3.393-0.513,5.046c1.011-0.322,1.644-2.112,2.249-2.919
			c0.299-0.397,0.59-0.716,0.808-1.121c0.18,1.033-0.628,1.99-0.907,2.931c-0.17,0.569-0.318,1.492,0.336,0.801
			c0.867-0.917,1.326-3.138,2.001-3.936c0.196,1.363-1.41,2.802-0.941,4.088c0.848-1.516,1.533-3.123,2.532-4.55
			c-0.033,1.417-0.265,2.907-0.241,4.292c0.833-1.068,0.909-2.895,1.741-3.969c-0.027,1.229,0.102,2.525-0.074,3.725
			c0.785-0.991,0.695-2.622,1.574-3.646c-0.03,1.479-0.082,2.998,0.007,4.473c1.094-0.642,0.509-2.902,1.389-3.722
			c0.08,1.306,0.096,2.669,0.112,3.976c0.395-0.684,0.677-1.777,0.986-2.609c0.258-0.696,0.803-1.473,0.85-2.222
			c0.537,1.001-0.119,2.552,0.209,3.579c0.72-1.047,0.896-2.477,1.693-3.474c0.408,1.19,0.264,2.625,0.244,3.871
			c0.558-1.414,1.07-2.955,1.778-4.31c0.319,1.228-0.018,2.77,0.077,4.077c0.264-0.439,0.263-1.163,0.412-1.696
			c0.188-0.663,0.623-1.276,0.736-1.932c0.003,1.541,0.031,3.087-0.006,4.628c0.468-1.536,0.828-3.145,1.378-4.637
			c0.72,1.407-0.305,3.905,0.542,5.159c0.508-0.455,0.555-1.738,0.754-2.413c0.204-0.689,0.461-1.434,0.408-2.164
			c0.554,1.077-0.124,3.099,0.76,3.915c0.581-1.144,0.87-2.896,1.076-4.163c0.398,0.805,0.348,2.422,0.906,2.975
			c0.006-1.091,0.659-1.838,0.789-2.831c0.107,0.584-0.055,2.506,0.711,2.665c-0.067-1.137,0.915-2.077,1.116-3.163
			c0.514,1.1,0.354,2.63,0.981,3.602c0.273-0.935,0.576-1.98,0.851-2.92c0.284,0.87,0.58,1.656,0.712,2.575
			c0.061,0.421,0.041,0.962,0.34,1.147c0.065-1.146,0.074-2.315,0.2-3.447c0.167,1.198,0.249,2.362,0.228,3.603
			c0.238-0.804,0.374-1.718,0.593-2.56c0.185-0.709,0.384-1.563,0.323-2.304c0.271,1.313,0.637,2.812,0.169,4.116
			c0.007-1.038,0.001-2.076,0.002-3.114c-0.026,0.742-0.036,1.919,0.314,2.546c0.052-0.647,0.026-1.318,0.015-1.972
			c0.123,0.444,0.299,0.885,0.258,1.372c-0.184-0.554,0.005-1.231-0.149-1.733c-0.187,0.806,0.063,1.456-0.021,2.231
			c-0.019-0.264,0.044-0.476,0.083-0.729"/>
		<path fill="none" stroke="#F7931E" stroke-linecap="round" stroke-linejoin="round" stroke-miterlimit="10" d="M159.42,118.376
			c0.945,0.556,0.354,3.224,1.155,3.662c0.026-0.706,0.482-1.326,0.578-2.039c0.078-0.58-0.097-1.237,0.104-1.768
			c-0.012,0.704-0.259,3.195,0.579,3.557c0.542-1.2,0.655-2.421,1.085-3.639c0.336,1.181-0.132,2.48-0.089,3.687
			c0.12-0.665,0.509-1.285,0.776-1.9c0.233-0.535,0.266-1.655,0.715-1.974c0.176,1.052-0.426,3.001,0.325,3.831
			c0.304-1.557,1.646-2.721,2.022-4.228c0.038,1.171,0.056,2.312-0.021,3.483c-0.028,0.444-0.185,0.854,0.182,1.176
			c0.776-0.855,0.358-3.079,1.259-3.726c-0.027,1.22,0.221,2.181,0.664,3.254c-0.007-1.375,0.468-2.478,0.595-3.788
			c0.669,0.535,0.199,3.003,0.249,3.981c0.514-0.099,0.982-2.864,1.239-3.556c-0.007,1.047-0.286,2.665,0.081,3.58
			c0.339-0.938,0.403-2.345,0.984-3.239c0.289,1.065,0.099,2.336,0.1,3.439c-0.052-0.967,0.664-2.021,1.028-2.882
			c0.151-0.359,0.291-0.719,0.577-0.991c0.381,1.058-0.065,2.456,0.311,3.492c0.214-0.388,0.102-1.248,0.165-1.747
			c0.085-0.664,0.235-1.334,0.509-1.931c-0.028,0.745-0.242,2.991,0.393,3.675c-0.034-1.053,0.725-1.987,0.682-3.06
			c0.113,0.632,0.326,1.261,0.421,1.898c0.078,0.526-0.043,1.341,0.163,1.77c0.369-0.595,0.468-1.598,0.592-2.293
			c0.115-0.65,0.33-1.313,0.41-1.953c-0.23,1.418,1.141,2.582,1.1,3.968c0.529-0.621,0.921-2.503,1-3.403
			c0.619,0.987,0.092,2.5,0.566,3.432c0.404-0.919-0.045-2.839,0.746-3.587c0.701,0.963-0.281,2.682,0.418,3.5
			c0.697-0.849,0.468-2.766,1.008-3.809c-0.018,1.118-0.269,2.675,0.414,3.583c0.25-0.91-0.148-2.599,0.434-3.358
			c0.775,1.053,0.475,2.747,0.98,3.842c0.352-1.15,0.006-2.569,0.5-3.742c0.106,0.966,0.25,2.323,0.5,3.151
			c-0.137-1.505,0.994-2.86,1.015-4.313c0.521,1.326,0.806,2.771,1.215,4.042c0.177-0.638,0.408-1.271,0.563-1.911
			c0.135-0.56,0.03-1.258,0.185-1.751c0.371,1.049,0.024,3.1,0.923,3.833c0.068-0.991,0.127-1.881,0.362-2.816
			c0.714,1.055,0.304,2.382,1.055,3.296c0.264-1.347,0.292-2.652,0.261-4.027c0.367,1.385,0.859,2.831,1.256,4.115
			c0.001-1.22-0.255-2.748,0.203-3.884c0.701,1.197,0.359,2.758,0.944,3.959c-0.09-1.336,0.48-2.676,0.448-4.055
			c0.976,0.336,0.741,3.025,1.471,3.74c-0.027-1.266,0.618-2.413,0.619-3.659c0.337,1.286,0.266,2.74,0.564,4.064
			c0.229-1.364,0.086-2.701,0.685-3.961c0.239,0.692,0.445,1.439,0.485,2.188c0.024,0.446-0.129,0.965,0.146,1.293
			c0.02-1.025,0.032-2.356,0.364-3.3c0.612,0.509,0.797,2.374,0.735,3.191c0.117-1.185,0.295-2.432,0.898-3.456
			c0.26,1.005-0.043,2.14,0.289,3.124c0.286-1.152-0.059-2.712,0.395-3.777c0.374,0.994-0.034,3.706,1.07,4.124
			c0.295-1.236,0.217-2.715,0.871-3.827c0.517,1.1,0.244,2.629,0.329,3.837c0.265-0.874,0.323-2.276,0.331-3.216
			c0.414,1.111-0.096,2.463,0.32,3.525c-0.018-1.214-0.148-2.695,0.43-3.809c0.875,0.666,0.398,2.53,0.989,3.457
			c-0.075-1.118,0.236-3.234,0.928-4.107c0.567,0.964,0.478,3.253,1.219,3.811c-0.03-1.19,0.462-2.403,0.697-3.539
			c0.421,1.197-0.103,2.889,0.465,3.967c0.105-1.154,0.314-2.449,0.279-3.597c0.638,0.618,0.706,2.226,0.656,3.084
			c0-1.053-0.042-2.121,0.013-3.169c0.663,0.897-0.012,3.894,0.912,4.274c0.391-1.097,0.144-2.643,0.34-3.846
			c0.217,1.06,0.754,2.33,1.322,3.205c-0.017-1.443,0.418-2.734,0.641-4.038c0.561,1.137,0.821,2.447,1.443,3.562
			c-0.01-0.989,0.309-1.905,0.342-2.866c0.291,0.597,0.552,1.349,0.642,2.007c0.063,0.468-0.147,1.215,0.248,1.453
			c0.056-0.982-0.032-1.993,0.027-2.977c0.631,0.877-0.057,2.62,0.741,3.252c0.283-0.914,0.133-2.029,0.429-3.014
			c0.71,0.752,0.295,2.203,0.821,3.039c-0.023-1.516,0.081-3.013,0.178-4.502c0.687,1.212,0.755,2.603,1.238,3.851
			c-0.271-1.209-0.063-2.555-0.093-3.792c0.484,1.423,0.992,2.871,1.403,4.302c0.105-1.298,0.039-2.648,0.014-3.955
			c0.451,1.391,0.049,3.149,0.57,4.395c0.099-1.143,0.175-2.346,0.199-3.493c0.806,0.889,0.668,2.374,1.22,3.444
			c0.096-1.462-0.048-3.393,0.786-4.682c1.07,1.272,0.489,3.286,1,4.722c0.189-0.791,0.151-1.745,0.376-2.594
			c0.177-0.665,0.304-1.273,0.353-1.957c0.15,1.532,0.156,3.086,0.271,4.637c0.294-1.211-0.136-2.579,0.247-3.822
			c0.611,0.989,0.1,2.689,0.305,3.811c-0.102-0.053-0.201-0.081-0.307-0.172c-0.183-0.434-0.471-0.761-0.764-1.152"/>
		<path fill="none" stroke="#F7931E" stroke-linecap="round" stroke-linejoin="round" stroke-miterlimit="10" d="M225.087,118.293
			c0.646,1.014,0.352,2.713,0.432,3.909c0.661-0.379,0.909-1.289,1.068-1.991c0.152-0.671,0.478-1.557,0.429-2.244
			c1.166,0.848-0.33,3.559,0.551,4.369c0.563-1.295,0.767-2.71,1.289-4.021c0.409,0.848,0.502,3.276,0.163,4.224
			c0.277-0.825,0.358-1.673,0.69-2.497c0.271-0.674,0.654-1.272,0.88-1.976c0.254,1.159-0.46,3.368,0.248,4.361
			c0.202-0.702,0.589-1.374,0.754-2.111c0.146-0.649,0.006-1.574,0.246-2.122c0.286,0.8,0.127,1.877,0.167,2.786
			c0.02,0.436,0.261,1.18,0.18,1.475c0.209-0.796,0.492-1.482,0.637-2.315c0.126-0.724,0.241-1.41,0.709-1.993
			c0.203,1.163,0.661,3.044,0.455,4.228c-0.605-1.385,0.971-2.647,0.867-4.072c0.751,0.577,0.259,2.951,0.338,3.967
			c0.486-1.191,0.034-2.68,0.664-3.841c0.403,0.919,0.696,2.837,0.428,3.766c0.706-1.137,1.052-2.345,1.318-3.64
			c0.973,0.43,0.734,2.947,0.737,3.949c-0.095-1.55,0.498-3.099,1.017-4.525c0.726,1.171-0.351,3.273,0.472,4.42
			c0.009,0.07-0.067,0.059-0.062,0.131c0.35-0.236,0.452-1.364,0.595-1.899c0.206-0.776,0.619-1.535,0.747-2.321
			c0.53,1.102,0.231,2.722,0.231,3.961c-0.094-1.448,1.251-2.532,1.245-3.954c0.392,1.119-0.434,3.331,0.49,4.12
			c-0.329-1.29,0.775-2.7,0.943-3.965c0.56,0.133,0.454,3.479,0.398,4.223c0.439-1.207,0.74-3.022,1.445-4.039
			c0.229,1.187-0.203,3.067,0.415,4.14c0.349-1.425,0.708-2.934,0.996-4.382c0.346,0.992-0.282,3.63,0.404,4.221
			c0.368-1.425,0.499-2.921,0.995-4.322c0.393,1.264-0.252,3.017,0.504,4.121c0.106-1.011,0.711-2.059,0.663-3.094
			c0,0.091,0.007,0.184,0,0.273c-0.028-0.239,0.005-0.499,0.013-0.736c0.59,0.973,1.301,2.643,1.136,3.834
			c-0.261-0.855-0.147-3.777,0.537-4.514c0.788,0.719,0.427,2.797,0.495,3.839c0.313-0.192,0.372-1.055,0.52-1.491
			c0.296-0.875,0.591-1.829,1.027-2.645c0.607,1.068,0.017,2.258,0.354,3.322c0.131,0.415,0.416,0.514,0.419,0.971
			c-0.162-1.056,0.726-2.547,1.167-3.462c0.348,1.063-0.331,2.427-0.022,3.41c0.267-1.235,0.646-2.564,1.187-3.667
			c0.271,1.121,0.1,2.476,0.082,3.629c0.174-1.095-0.125-2.926,0.489-3.82c0.077,1.259-0.288,2.799,0.112,4.001
			c0.55,0.038,1.43-2.874,1.669-3.649c0.776,0.993-0.295,2.836,0.399,3.848c0.336-1.017,0.038-2.434,0.436-3.434
			c0.56,0.845-0.051,2.445,0.313,3.419c0.64-1.075,0.17-2.866,0.689-4.089c0.523,1.027,0.104,2.42,0.666,3.334
			c0.232-1.483,0.641-3.06,0.913-4.58c0.587,1.297-0.565,4.204,0.549,5.16c0.251-1.387,0.387-3.244,1.272-4.389
			c-0.02,1.207-0.416,3.475,0.223,4.477c0.285-1.202,0.597-2.615,1.027-3.729c-0.019,1.125-0.121,2.391,0.26,3.466
			c0.04-0.007,0.178,0.002,0.223,0.007c0.138-1.249,0.579-2.614,1.162-3.723c-0.019,0.563,0.307,1.264,0.43,1.832
			c0.151,0.695,0.202,2.03,0.76,2.486c0.397-1.124,0.332-2.528,0.764-3.562c0.613,0.652-0.07,2.846,0.8,3.133
			c-0.024-1.234,0.388-2.688,0.786-3.828c0.484,1.164,0.271,2.55,0.871,3.674c0.381-1.018,0.65-2.422,0.705-3.505
			c0.693,0.736-0.281,2.858,0.468,3.414c0.27-1.035,0.181-2.554,0.767-3.436c0.766,1.073,0.817,2.574,1.166,3.817
			c0.394-1.225,0.577-2.516,0.853-3.764c0.665,1.128,0.764,2.681,0.745,3.957c0.786-0.268,0.754-2.832,1.092-3.628
			c0.177,0.967-0.114,2.614,0.396,3.41c0.621-1.288,0.589-2.929,1.435-4.185c1.022,0.724-0.184,3.155,0.549,3.986
			c0.068-1.252,0.705-2.601,1.037-3.813c0.438,1.148,0.24,2.46,0.329,3.659c0.466-0.858,0.748-2.303,0.914-3.3
			c0.361,1.053,0.033,2.494,0.639,3.413c-0.017-1.23,0.555-2.387,0.679-3.595c0.188,1.211,0.159,2.487,0.524,3.652
			c0.176-1.126,0.372-2.364,0.998-3.39c0.332,0.72,0.154,2.342,0.633,2.791c-0.003-1.071,0.187-2.151,0.171-3.218
			c0.529,1.177,0.178,2.563,0.681,3.705c-0.071-1.299,0.253-2.676,0.677-3.885c0.59,1.216,0.105,2.881,0.735,4.007
			c0.223-0.511,0.141-1.514,0.25-2.146c0.111-0.646,0.196-1.289,0.265-1.937c0.81,1.103,0.937,2.54,1.637,3.682
			c0.039-0.738,0.447-2.69,0.994-3.113c0.207,1.008,0.656,2.047,0.623,3.074c0.476-1.013,0.862-2.711,0.978-3.901
			c0.397,1.174,0.619,2.573,0.67,3.804c0.051-0.703-0.154-1.381-0.07-2.093c0.076-0.637,0.32-1.24,0.406-1.876
			c-0.008,1.266-0.224,2.661-0.067,3.908c0.201-0.998,0.509-2.115,0.663-3.174c0.643,0.613,0.275,2.525,0.337,3.432
			c0.132-0.929,0.29-1.872,0.729-2.699c0.439,0.754,0.463,2.041,0.419,2.921c0.003-1.141,0.021-2.27,0.517-3.324
			c0.743,1.168,0.376,2.7,0.502,4.012c0.229-1.167,0.427-2.451,0.798-3.649c0.076,0.963-0.144,1.959-0.151,2.929
			c-0.008-1.315,0.502-2.68,0.502-4c0,1.261,0,2.521,0,3.782c0-1.457,1.111-2.836,1-4.207c0.002,1.455,0.485,3.304,0.102,4.687
			c-0.114-1.331,0.268-2.673,0.691-3.933c0.023,1.17,0.278,2.35,0.942,3.314c-0.039-1.214,0.312-2.945,0.337-4.34
			c-0.006,1.367-0.29,2.588-0.405,3.932c-0.047,0.549-0.12,1.443,0.079,1.911c0.395-0.531,0.167-1.679,0.349-2.37
			c0.222-0.841,0.71-1.635,0.907-2.459c-0.016,1.396-0.573,2.721-0.588,4.064c0.016-1.368,0.074-2.753,0.588-4.04
			c-0.032,1.216,0.292,2.399,0.248,3.598c-0.074-1.36,0.869-2.491,0.833-3.781c0.001,1.173-0.414,3.165,0.171,4.199
			c-0.046-1.114,0.156-2.083,0.6-3.101c0.651,0.717,0.215,2.359,0.455,3.201c0.232-0.979,0.732-1.863,0.945-2.857
			c0.093,1.245-0.627,2.405-0.588,3.693c0-1.021-0.229-2.324,0.421-3.182c0.183,0.509,0.079,1.304,0.079,1.906
			c-0.043-1.237,0.27-2.409,0.777-3.526c0.285,1.109-0.254,2.548,0.134,3.588c0.728-1.58,1.521-3.2,2.343-4.763
			c0.338,1.802,0.165,3.794,0.163,5.632c0.021-0.875-0.138-1.745-0.089-2.626c0.037-0.657,0.26-1.287,0.264-1.939
			c1.035,0.354,0.909,2.945,0.908,3.83c0.004-1.002-0.009-2.286,0.502-3.168c0.254,0.838,0.099,1.922,0.184,2.836
			c0.134-0.561,0.096-1.242,0.291-1.86c0.178-0.562,0.508-1.077,0.621-1.642c0.889,0.693,0.815,2.677,0.819,3.498
			c0.004-1.301,0.232-2.243,0.564-3.471c0.19,1.263,0.028,2.548,0.121,3.81c0.349-1.235,0.063-2.814,0.798-4.071
			c0.144,0.769,0.17,1.629,0.068,2.405c-0.081,0.629-0.463,1.42-0.239,2.003c0.187-1.436,0.843-2.579,1.356-3.885
			c-0.006,0.972-0.004,1.936,0.081,2.887c-0.026-1.098,0.172-2.416,0.73-3.505c0.429,1.315,0.046,3.028,0.115,4.407
			c0.06-0.003,0.165,0.004,0.226,0.013c0.073-1.464-0.105-3.378,0.916-4.549c0.09,1.359,0.013,2.745,0.013,4.108
			c0.002-0.992-0.028-2.119,0.272-3.065c0.157,0.631,0.145,1.365,0.143,2.05c-0.039-0.952,0.457-1.907,0.771-2.782
			c0.446,1.234,0.233,3.108-0.118,4.357c0.294-2.206,2.377-3.76,2.857-5.862c-0.308,1.168-0.584,2.605-0.592,3.823
			c-0.004,0.628,0.24,1.194,0.167,1.815c-0.107-1.487,0.688-3.011,1.258-4.343c-0.043,0.866,0.047,2.221-0.022,3.272
			c-0.399-0.417-0.237-2.126-0.068-2.637c0.307,0.976,0.13,2.385-0.086,3.373c0.018-1.254,0.105-2.97,0.902-3.984
			c0.107,1.162-0.289,2.203-0.502,3.252c-0.612-0.838,0.23-2.432,0.416-3.299c0.063,0.88,0.02,1.78,0.02,2.666
			c-0.085-1.06,0.438-2.205,0.816-3.127c0.195,1.594-1.447,3.671-0.9,5.108c0.563-1.504,0.571-3.548,1.608-4.931
			c0.585,1.727-0.634,3.594-0.608,5.331"/>
		<path fill="none" stroke="#F7931E" stroke-linecap="round" stroke-linejoin="round" stroke-miterlimit="10" d="M323.837,122.376
			c0.173-0.758,0.699-1.542,1-2.308c0.26-0.663,0.448-1.69,0.9-2.186c0.254,0.896,0.196,2.133-0.065,3.018
			c-0.17,0.577-0.746,1.205-0.803,1.806c0.637-0.438,0.933-1.23,1.356-1.925c0.604-0.988,1.693-2.17,1.946-3.298
			c0.013,1.163-0.56,2.274-0.754,3.403c-0.094,0.543-0.031,1.109-0.174,1.636c1.057-1.729,2.375-3.416,3.105-5.293
			c-0.666,1.574-0.979,3.3-1.589,4.89c0.718-0.135,1.2-1.469,1.589-2.045c0.631-0.935,1.309-1.847,1.893-2.812
			c0.075,2.02-1.662,3.779-1.566,5.835c1.045-1.693,1.913-3.754,3.145-5.277c0.183,2.051-0.587,4.088-0.553,6.129
			c1.036,0.202,2.008-3.117,2.316-3.826c0.381-0.871,1.224-1.561,1.086-2.566c-0.004,1.572-0.402,3.096-0.32,4.647
			c1.059-0.642,2.548-3.398,2.558-4.661c-0.611,0.566-0.722,2.336-0.93,3.146c-0.167,0.646-0.38,1.266-0.295,1.936
			c0.856-0.821,1.088-2.416,1.853-3.422c0.247,1.073,0.01,2.386,0.06,3.518c0.419-0.315,0.524-1.029,0.679-1.576
			c0.255-0.904,0.67-1.779,0.896-2.678c0.316,0.911-0.285,3.124,0.583,3.671c0.598-0.54,0.636-1.528,0.84-2.226
			c-0.014,0.786,0.007,1.574-0.011,2.36c0.645-1.448,0.89-3.516,1.912-4.729c-0.029,1.105,0.331,1.832,0.827,2.754
			c0.328,0.612,0.296,1.068,0.379,1.717c0.527-0.605,0.915-2.116,1.138-2.889c0.139-0.481,0.199-1.052,0.165-1.554
			c0.103,1.641,0.182,3.293,0.164,4.939c0.205-1.151,0.579-2.43,1.176-3.429c-0.016,0.915-0.47,3.568,0.16,4.123
			c0.917-1.508,1.447-3.82,1.922-5.544c0.215,1.519-0.18,3.709,0.326,5.053c0.523-0.988,1.541-3.007,1.104-4.093
			c-0.101,1.401,0.383,2.874,0.049,4.319c0.32-1.001,1.031-1.875,1.409-2.868c0.239-0.627,0.312-1.334,0.614-1.933
			c-0.035,0.744,0.173,1.246,0.376,1.957c0.198,0.693,0.135,1.532,0.372,2.169c-0.058-1.202-0.02-2.994,0.648-4.011
			c0.165,1.269,0.113,2.567,0.094,3.847c0.199-1.299,0.646-2.532,0.898-3.81c0.338,1.444-0.291,3.521,0.355,4.771
			c0.516-1.533,0.354-3.395,0.853-5.028c0.769,0.752,0.104,2.825,0.481,3.777c0.237-0.803,0.256-1.807,0.498-2.664
			c0.19,1.009,0.131,3.569,0.987,4.164c0.245-1.28,0.158-3.159,0.745-4.266c0.097,1.229-0.398,3.711,0.59,4.6
			c0.075-1.775,0.788-3.23,1.16-4.912c0.316,0.771,0.485,2.474,1.171,2.979c0.066-0.94-0.182-2.116,0.425-2.923
			c-0.024,0.76,0.074,2.882,0.586,3.442c0.479-0.617,0.842-2.304,0.933-3.1c0.749,0.367,0.479,2.225,0.975,2.96
			c-0.049-1.381,0.71-3.457,1.747-4.372c0.234,0.905-0.166,3.082,0.665,3.652c0.479-1.099,0.921-2.233,1.378-3.343
			c0.279,0.868-0.092,2.002,0.118,2.918c0.27-0.951,0.524-1.913,0.922-2.821c0.151,1.083-0.142,2.462,0.178,3.441
			c0.661-0.881,0.765-2.523,1.095-3.603c-0.027,1.128-0.396,3.257,0.312,4.163c0.134-0.841,0.4-1.933,0.764-2.623
			c0.343,0.72,0.228,1.612,0.603,2.341c0.202-1.01,0.499-2.121,0.818-3.103c0.122,1.179,0.917,2.198,1.086,3.405
			c-0.055-1.193,0.279-2.56,0.81-3.736c0.427,0.912,0.423,2.265,0.836,3.282c-0.014-1.118,0.449-2.512,0.833-3.567
			c0.076,1.304,0.038,2.643,0.012,3.953c0.357-1.222,0.814-2.4,1.277-3.585c0.381,0.988-0.061,2.44,0.633,3.275
			c0.032-1,0.239-1.938,0.364-2.922c0.224,0.913,0.024,2.213,0.652,2.95c0.426-1.063,0.581-2.334,1.079-3.425
			c0.194,0.92,0.701,2.417,1.32,3.081c0.086-1.162,0.366-2.146,0.602-3.284c-0.035,1.229-0.174,2.802-0.074,4.127
			c0.438-0.74,0.927-2.324,0.984-3.241c0.007,1.018,0.035,2.048,0.097,3.061c0.103,0.016,0.2,0.01,0.303,0.004
			c0.343-0.95,0.847-2.143,0.749-3.162c-0.335,1.218,0.09,2.865,0.119,4.184c0.56-1.518,0.633-3.596,1.739-4.91
			c-0.072,1.448,0.388,2.955,0.577,4.384c0.001-1.506-0.068-3.012,0.161-4.504c0.177,0.956,0.789,3.175,1.491,3.831
			c0-1.053,0.4-1.82,0.689-2.79c-0.032,1.044-0.08,2.474,0.242,3.406c0.201-0.432,0.166-1.253,0.268-1.779
			c0.178-0.926,0.556-1.784,0.736-2.688c0.195,1.004,0.385,2.261,0.852,3.284c0.208-1.012,0.245-1.886,0.789-2.853
			c0.287,1.045-0.333,3.38,0.508,4.095c-0.002-1.437,0.675-2.811,1.105-4.151c-0.053,0.939,0.41,1.875,0.404,2.824
			c-0.053-1.363,0.963-2.598,1.004-3.907c0.001,1.081-0.406,3.16,0.169,4.095c0.138-0.384,0.052-0.887,0.149-1.326
			c0.162-0.728,0.526-1.26,0.428-2.035c0.237,1.224,0.281,2.755,0.269,4.001c0.441-0.268,0.765-2.793,0.906-3.485
			c-0.073,0.678-0.061,2.475,0.332,3.013c0.369-1.13,0.633-2.333,0.579-3.585c-0.007,0.647,0.053,3.248,0.649,3.479
			c0.438-1.101-0.014-2.518,0.336-3.672c0.011,1.175-0.092,2.826,0.248,3.92c0.023-1.167,0.184-2.324,0.185-3.499
			c0,1.298-0.053,2.618,0.013,3.909c0.709-0.065,0.849-3.079,0.815-3.794c0.648,1.31,0.506,2.8,0.506,4.221"/>
	</g>
</g>
<g id="BOtones">
</g>
<g id="Logos">
</g>
<g id="Igonos">
</g>
<g id="TXT">
</g>
<g id="Guias">
</g>
</svg>
