<?xml version="1.0" encoding="utf-8"?>
<!-- Generator: Adobe Illustrator 16.0.0, SVG Export Plug-In . SVG Version: 6.00 Build 0)  -->
<!DOCTYPE svg PUBLIC "-//W3C//DTD SVG 1.1//EN" "http://www.w3.org/Graphics/SVG/1.1/DTD/svg11.dtd">
<svg version="1.1" xmlns="http://www.w3.org/2000/svg" xmlns:xlink="http://www.w3.org/1999/xlink" x="0px" y="0px"
	 width="94.254px" height="195.625px" viewBox="0 0 94.254 195.625" enable-background="new 0 0 94.254 195.625"
	 xml:space="preserve">
<g id="Vectores">
</g>
<g id="Imagenes">
</g>
<g id="Cintillos">
	<g>
		<polygon fill="none" stroke="#303030" stroke-miterlimit="10" points="15.754,190.125 91.254,190.125 49.588,99.271 
			91.254,10.125 15.754,10.125 		"/>
		<polygon fill="#303030" points="4.254,183.625 80.254,183.625 38.588,92.771 80.254,3.625 4.254,3.625 		"/>
		<path fill="none" stroke="#303030" stroke-linejoin="round" stroke-miterlimit="10" d="M80.253,3.291
			c3.407,2.457,7.183,3.875,10.286,6.057c0.259,0.436,0.45,1.103,0.681,1.542c-3.899-0.169-9.046-3.44-12.349-5.147
			c2.853,3.476,6.587,6.088,10.254,8.572c-4.097-1.344-7.911-4.078-12.03-4.308c2.63,1.753,8.729,4.611,9.716,7.241
			c-3.494-0.836-6.973-4.436-10.839-3.906c0.012,3.677,7.454,4.787,9.587,6.89c-3.744,0.208-6.814-3.989-10.945-3.53
			c2.936,2.282,8.41,3.996,10.281,7.207c-4.377,0.471-7.467-4.402-12.206-3.542c3.237,1.366,6.527,4.792,9.508,5.648
			c0.201,0.435,0.374,0.787,0.606,1.218c-4.072-0.063-7.023-5.118-11.446-4.207c3.301,1.736,7.728,4.227,9.887,6.883
			c-3.562,0.055-6.308-4.035-10.239-3.975c3.809,1.47,7.471,5.032,9.466,8.307c-4.193-0.779-7.196-5.396-11.857-5.557
			c3.063,2.695,7.222,5.048,9.706,8.631c-3.66-0.264-7.125-3.992-10.965-4.023c4.051,0.343,8.071,4.448,9.771,7.966
			c-4.107-1.62-7.091-5.911-11.522-6.231c3.915,2.848,7.95,4.798,9.274,9.564c-2.821-1.983-6.685-5.447-10.191-5.963
			c3.93,0.941,7.453,6.201,9.191,9.623c-3.839-1.133-6.847-5.258-10.866-5.965c4.351,1.471,7.107,5.352,8.543,9.297
			c-3.563-2.244-6.886-3.893-10.507-5.314c3.069,1.48,7.041,6.284,8.508,9.289c-3.255-0.135-6.797-4.386-10.118-5.288
			c1.839,1.269,4.386,2.722,5.759,4.429c1.272,1.584,1.666,3.307,3.383,4.459c-3.711-1.575-6.85-5.056-10.873-5.891
			c2.961,2.93,6.082,6.285,8.782,9.657c-3.649-1.562-7.179-4.688-10.839-6.599c0.611,2.442,4.424,3.905,5.881,5.708
			c1.192,1.474,2.258,3.681,3.274,5.233c-3.89-2.295-8.494-4.815-12.106-7.349c4.512,1.419,8.562,8.306,11.133,11.997
			c-2.687-0.174-5.138-4.091-7.242-5.697c-1.561-1.191-3.215-2.213-5.039-2.808c1.955,4.527,10.997,7.713,9.922,13.507
			c-2.707,0.117-4.892-3.793-5.891-5.609c-1.502-2.731-1.908-3.96-5.023-4.892c0.495,0.987-1.534,0.443,1.04,2.527
			c3.187,5.516,5.626,7.92,7.693,10.906c-3.667-3.468-7.828-5.971-11.367-8.491c4.817-1.387,8.972,6.621,9.62,10.149
			c-3.742-1.597-8.357-4.634-11.338-6.222c3.391,0.967,8.554,4.108,10.265,7.362c-4.144-0.88-7.378-3.67-11.727-4.37
			c3.397,0.748,6.257,5.132,9.788,6.063c0.511,0.529,1.084,1.273,1.713,1.883c-3.734,0.5-8.812-3.531-12.232-4.957
			c2.311,0.313,9.894,4.683,9.451,7.332c-3.773-1.604-7.363-4.78-11.189-5.922c2.922,1.373,10.2,4.521,11.28,7.881
			c-3.376,0.933-9.234-4.449-12.607-5.207c3.603,0.965,9.517,4.707,11.807,7.574c-3.977-1.356-7.448-3.83-11.424-5.174
			c3.976,2.601,7.487,4.069,10.147,7.49c-3.615-0.727-8.24-3.986-12.129-3.613c3.62,0.01,9.131,4.375,12.127,6.372
			c-3.83-2.024-9.069-2.632-12.436-5.008c3.163,3.149,7.66,5.183,11.229,7.517c-3.17-1.825-7.108-2.913-10.58-3.224
			c3.352,1.143,9.197,3.354,11.798,5.756c-2.277,1.333-7.273,0.585-9.281,0.585c3.22-0.342,7.436,1.217,9.688,3.267
			c-2.185,0.417-5.134-0.376-7.207-0.95c3.21,0.585,8.07,1.811,10.558,4.114c-3.879,0.938-7.672-1.014-11.557-0.765
			c3.139-0.488,10.303,1.296,12.547,3.268c-3.578,0.265-7.142-0.571-10.636-0.193c3.444,0.951,6.968,1.389,10.271,2.851
			c-2.771,0.117-5.398,0.397-8.195,0.409c3.226,0,7.976-0.815,10.553,0.926c-3.491,1.609-6.414,2.074-10.043,2.074
			c3.388,0,6.777,0.451,10.061,0.39c-1.43,1.864-5.893,1.495-8.24,1.669c2.856,1.638,6.643,2.703,9.74,1.258
			c-3.355,0.135-5.854,3.185-9.397,3.356c3.256-1.087,6.695-0.988,10.14-1.015c-2.521,0.457-5.145,1.96-7.213,3.434
			c3.366,0.848,5.795-1.621,9.229-1.091c-3.706,0.177-5.925,2.242-9.132,3.349c3.254,0.066,5.661-2.545,9.116-1.959
			c-2.431,1.709-4.726,3.833-7.224,5.477c3.357-0.533,5.541-2.978,9.148-2.893c-2.629,1.752-5.551,2.975-8.051,4.773
			c2.438,0.959,6.62-1.053,9.465-1.089c-2.795,0.693-5.143,2.433-7.578,3.755c2.651,1.063,6.342-1.748,9.555-0.756
			c-2.528,1.322-5.391,1.627-7.781,3.275c3.096,0.211,6.146-0.059,9.111-0.283c-2.91,1.571-5.789,2.375-7.859,4.964
			c3.002-0.457,5.669-2.246,8.694-0.948c-2.226,1.548-5.175,2.104-7.614,3.934c3.18,0.588,5.736-1.738,8.799-1.283
			c-2.654,0.762-5.994,3.193-7.208,5.622c2.779-0.57,5.563-2.593,8.532-3.278c-3.202,0.763-4.497,4.571-7.195,6.096
			c2.025,0.742,6.692-1.638,8.38-2.724c-2.411,0.579-5.472,4.395-7.281,5.976c3.095,1.216,5.577-4.202,9.529-2.756
			c-2.727,1.072-6.25,4.222-8.37,5.412c3.311-0.268,6.119-1.445,9.613-1.282c-2.187,2.185-5.723,3.702-8.463,4.968
			c3.776-0.06,7.166-1.346,10.723-1.349c-2.879,0.312-5.828,2.628-8.807,3.397c1.523,1.963,8.422,3.127,10.778,2.309
			c-3.339-0.004-9.291-0.985-11.769,0.902c4.853,0.747,7.429-4.598,12.195-3.543c-3.957,2.628-7.662,4.622-11.807,6.266
			c4.262,0.552,8.678-1.668,13.148-1.666c-3.245,0.537-6.422,2.35-9.833,2.667c3.479,0.433,6.892,0.56,10.174,1.333
			c-2.782-0.267-6.353,1.387-8.288,1c2.871,0,8.497-1.087,9.948,1.69c-2.71-0.063-5.427-0.023-8.14-0.023
			c3.957,0.188,8.657,0.459,11.146,3.358c-4.21-0.096-8.158-0.128-12.164-0.697c4.489,0.873,8.635,2.452,12.457,4.613
			c-3.59,0.635-7.832-1.501-11.059-1.94c2.468-0.275,12.098,2.285,11.833,5.616c-4.271,0.728-10.401-3.388-14.278-4.891
			c2.567,0.829,6.701,2.772,9.027,4.605c-4.577,2.367-10.62-4.998-15.297-5.347c3.149,0.965,5.517,3.688,8.322,5.013
			c-2.169,0.971-5.91-2.326-7.896-3.19c-2.081-0.906-4.5-1.47-6.684-2.43c3.057,1.296,6.26,3.79,8.715,5.979
			c-4.129-1.551-8.625-4.736-12.825-5.413c-0.308-0.303-0.376-0.478-0.78-0.801c3.43,1.2,2.241,2.522,5.282,4.305
			c0.398,0.233,4.46,1.89,4.822,2.218c-3.538,1.954-11.348-4.844-14.599-6.355c1.678,1.097,5.843,4.406,7.105,6.397
			c-3.187-0.624-9.777-4.589-12.104-6.673c2.331,2.827,6.314,4.017,8.531,6.916c-3.328,0.588-8.961-5.094-12.047-6.177
			c1.556,2.364,4.862,3.957,6.971,5.583c-3.251,0.268-8.819-4.571-11.026-6.313c2.443,2.356,5.167,4.716,7.952,6.645
			c-4.273-0.286-7.618-5.253-11.715-6.312c1.784,2.429,4.921,3.979,7.13,5.904c-4.096-0.374-7.957-4.873-11.545-6.471
			c2.136,1.535,6.75,5.838,7.245,8.082c-4.317-2.481-8.639-6.955-12.927-8.183c2.99,2.441,6.907,3.83,8.612,7.556
			c-2.069-0.253-4.31-2.649-6.283-3.831c-2.358-1.412-5.038-2.334-7.23-3.809c2.628,2.069,6.919,3.712,7.773,6.989
			c-3.407,0.083-8.796-3.859-11.426-5.922c0.806,2.672,4.152,3.893,6.092,5.59c-2.571-0.488-5.239-2.223-7.457-3.572
			c1.769,1.162,4.046,2.316,5.03,3.997c-2.131-0.95-4.295-1.937-6.365-2.665c1.008,0.894,2.092,1.717,3.067,2.665
			c-4.356-1.466-9.588-4.16-13.142-6.974c4.25-0.074,11.504,5.317,15.197,7.207c-4.902-1.271-9.197-6.064-13.879-7.681
			c4.361-1.566,10.751,3.613,14.663,5.479c2.687,1.281,5.524,2.08,8.518,2.301c-5.311-3.588-13.759-5.605-17.858-10.707"/>
	</g>
</g>
<g id="BOtones">
</g>
<g id="Logos">
</g>
<g id="Igonos">
</g>
<g id="TXT">
</g>
<g id="Guias">
</g>
</svg>
