<?xml version="1.0" encoding="utf-8"?>
<!-- Generator: Adobe Illustrator 16.0.0, SVG Export Plug-In . SVG Version: 6.00 Build 0)  -->
<!DOCTYPE svg PUBLIC "-//W3C//DTD SVG 1.1//EN" "http://www.w3.org/Graphics/SVG/1.1/DTD/svg11.dtd">
<svg version="1.1" xmlns="http://www.w3.org/2000/svg" xmlns:xlink="http://www.w3.org/1999/xlink" x="0px" y="0px"
	 width="161.681px" height="65.004px" viewBox="0 0 161.681 65.004" enable-background="new 0 0 161.681 65.004"
	 xml:space="preserve">
<g id="Vectores">
</g>
<g id="Imagenes">
</g>
<g id="Cintillos">
</g>
<g id="BOtones">
</g>
<g id="Logos">
</g>
<g id="Igonos">
</g>
<g id="TXT">
	<g>
		<g>
			<path fill="#FFFFFF" d="M17.325,15.922v-0.42c0.21-0.351,0.14-0.49,0.63-0.42c0.21,0,0.35-0.07,0.49-0.211l0.91-0.979l1.33-0.21
				l0.56-0.141c0.21,0,0.21-0.069,0.28-0.069c0.84,0,1.75-0.07,2.59-0.07c0.49,0,0.91,0,1.4,0.07c1.05,0.21,2.17,0.069,3.221,0.28
				c0.21,0,0.35,0.069,0.56,0.14c0.49,0.21,0.771,0.56,0.771,1.05c0,1.051,0.14,1.891,0.35,2.801c0.07,0.14,0.07,0.35,0.07,0.63
				l-1.05,1.12c-0.49,0.561-0.7,1.26-0.91,2.03c0,0.069-0.07,0.14-0.07,0.35c-0.07,0.21-0.21,0.28-0.351,0.351
				c-0.279,0.21-0.489,0.279-0.77,0.279c-0.84,0.211-1.681,0.42-2.521,0.211h-0.42c-0.21,0.279-0.14,0.56-0.21,0.91
				c0,0.489,0.07,0.979,0.14,1.47c0,0.489,0.07,0.84,0,1.33v1.61c-0.069,0.84-0.14,1.609-0.14,2.45v0.28
				c0.35,0.14,0.771,0.14,1.12,0.069c0.49-0.069,0.84,0,1.33-0.21c0.7-0.14,1.47-0.14,2.311-0.07c0.21,0,0.28-0.069,0.49-0.069
				c0.489,0,0.84,0,1.05,0.069c0.35,0,0.49,0.211,0.49,0.561c0.069,0.84,0.279,1.68,0.35,2.521c0,0.84,0,1.61,0.07,2.45
				c0,0.14-0.07,0.279-0.141,0.35l-0.699,1.4c-0.07,0.21-0.07,0.42,0,0.49c0.069,0.21,0.069,0.42,0,0.561
				c-0.351,0.069-0.631,0.209-0.771,0.42c-0.07,0.14-0.21,0.209-0.42,0.209l-1.33,0.141c-0.21,0-0.42,0.07-0.49,0.14
				c-0.35,0.28-0.771,0.28-1.26,0.07c-0.49-0.21-0.98-0.14-1.471-0.21c-0.069,0.07-0.069,0.21-0.069,0.35l0.14,1.891v0.21v1.89
				c0,0.49,0,0.771,0.07,1.261l0.14,0.979l0.14,1.4c0,0.49,0.07,0.771,0.07,1.26c0,0.211,0.07,0.281,0.07,0.49
				c0.14,0.07,0.35,0.07,0.56,0.07h1.12c0.771,0.21,1.4,0,2.171-0.07c0.84-0.14,1.75-0.14,2.66-0.069c0.069,0,0.14,0,0.21,0.069
				c0.069,0.49,0.14,0.98,0.14,1.541c0,0.49,0.07,0.91,0.07,1.4c0.069,0.56,0.069,1.049,0.069,1.609
				c-0.14,0.141-0.21,0.21-0.279,0.21c-0.21,0.07-0.49,0.21-0.7,0.56c-0.49,0.561-0.771,1.191-1.261,1.82
				c-0.21,0.211-0.35,0.281-0.42,0.281l-0.84,0.209l-1.68,0.211c-0.21,0.069-0.49,0.069-0.98,0.069c-1.33-0.069-2.45,0.07-3.78,0.14
				c-0.84,0-1.681,0.07-2.45,0.07c-0.21,0.07-0.28,0-0.351,0h-1.12c-0.56,0.07-1.12,0.07-1.68,0c-0.21-0.49-0.28-1.05-0.351-1.609
				c-0.069-1.33-0.069-2.381-0.279-3.711c0-0.84,0.069-1.68-0.141-2.521c-0.21-1.47-0.069-2.87-0.14-4.48c0-0.489,0-0.84-0.07-1.05
				l-0.21-3.01c0-0.561,0.07-1.121,0.07-1.681c0.07-0.841,0.07-1.61,0.07-2.45c0.069-0.84,0.069-1.75,0.069-2.59
				c0-0.91,0.07-1.751,0-2.661c-0.069-1.05,0-2.101,0-3.22c0-1.051,0.07-1.891,0-2.941v-0.209c0.21-0.84,0.07-1.61,0.07-2.381
				l0.14-2.52v-2.73c0-0.49,0.21-0.91,0.561-1.26L17.325,15.922z M17.115,47.005l-0.141-0.91c-0.07-0.771-0.14-1.54-0.35-2.31
				c-0.21-0.49-0.141-1.051-0.141-1.611c0-0.42,0.141-0.77,0.351-0.979c-0.21-1.12-0.141-2.171-0.42-3.29l-0.21,2.45
				c-0.07,0.771,0.069,1.33,0.14,2.101v0.979c0.21,0.84,0.35,1.61,0.14,2.45c0,0.35,0,0.63,0.07,1.12c0,0.07,0,0.07,0.07,0.14
				L17.115,47.005z M16.555,24.393c0,0.35-0.07,0.7-0.07,1.189c0.07,0.49-0.14,0.701,0.07,1.191c0.21-0.07,0.35-0.141,0.35-0.351
				v-0.14c-0.14-0.211-0.14-0.49,0-0.771v-0.28c0-0.49,0-0.98-0.069-1.47c0-0.21-0.07-0.351-0.141-0.7
				C16.484,23.553,16.625,23.902,16.555,24.393z M16.555,29.223c0,0.211,0.14,0.28,0.35,0.211c-0.21-0.28-0.14-0.561-0.35-0.771
				C16.484,28.803,16.484,29.014,16.555,29.223z M18.025,32.023c0-0.35-0.141-0.63-0.351-0.84c-0.56,0.279-0.56,0.279-0.63-0.351
				v-0.28c-0.07-0.209-0.21-0.35-0.49-0.42c0,0.631,0.561,1.961,1.33,3.15C18.095,32.934,18.095,32.514,18.025,32.023z
				 M16.555,33.424c0.49,0.21,0.49,0.14,0.84,0.63c0.07,0,0.141-0.07,0.21-0.07c-0.279-0.771-0.63-1.399-1.05-1.819V33.424z
				 M16.694,22.713v-0.07v-0.07v0.07V22.713z M17.395,17.322c-0.069-0.211,0-0.351-0.21-0.561c-0.28,0.21-0.42,0.49-0.42,0.84
				c0,0.211,0.07,0.141,0.07,0.351c0.21,0,0.42-0.07,0.63-0.07C17.395,17.672,17.465,17.531,17.395,17.322z M16.765,19.422
				c0.28-0.21,0.28-0.14,0-0.77V19.422z M17.255,37.064c0-0.561,0-1.19,0.07-1.751c0-0.35-0.141-0.7-0.421-0.979
				c-0.21,0.91,0,3.71,0.351,4.971V37.064z M18.235,54.846c-0.28-0.77-0.7-1.4-0.7-2.311c0-0.49-0.141-1.05-0.141-1.54
				c-0.069-0.56-0.069-1.05-0.279-1.61c0,0.631-0.141,1.19,0.069,1.82l0.28,2.101c0.07,0.63,0.14,1.19,0.35,1.75
				c0.07,0.351,0.141,0.63,0.421,0.98C18.445,55.266,18.445,55.336,18.235,54.846z M20.195,56.876c0.21,0,0.21-0.069,0.28-0.069
				c-0.07-0.211-0.21-0.281-0.351-0.211c-0.35,0.211-0.63,0.211-0.98-0.14l-0.279-0.21l-0.42,0.35c-0.28,0.28-0.49,0.211-0.7-0.14
				s-0.28-0.63-0.351-0.98c-0.069-0.28-0.069-0.489-0.279-0.771c-0.07,0.771,0.14,1.261,0.14,1.82c0,0.07,0.07,0.141,0.07,0.351
				H20.195z M17.604,44.274c-0.21,0-0.279,0.07-0.35,0.07c0.07,0.21,0.07,0.56,0.07,0.91c0.069,0.069,0.069,0.21,0.279,0.21V44.274z
				 M18.025,20.053l0.42,1.049c0.21,0.351,0.279,0.701,0.489,1.051l0.351,0.28c0.07-0.49,0.21-0.91-0.28-1.19
				c-0.07,0-0.07-0.07-0.07-0.141c-0.279-0.489-0.56-0.909-0.77-1.539c-0.07-0.211-0.07-0.351-0.561-0.561L18.025,20.053z
				 M17.604,25.933h0.21c0.07-0.28,0-0.489-0.21-0.63V25.933z M17.745,38.674v2.03c0,0.21,0,0.351,0.069,0.49
				c0.211-0.069,0.351-0.21,0.351-0.351c0-0.77-0.07-1.609-0.351-2.38C17.814,38.534,17.745,38.604,17.745,38.674z M17.885,26.982
				h-0.07v0.28h0.07V26.982z M17.814,42.944v-0.069V42.944z M19.285,24.183c-0.351-0.56-0.561-1.12-0.84-1.681
				c-0.21-0.209-0.28-0.49-0.561-0.56c-0.07,0.21-0.07,0.42,0.141,0.56c0.279,0.771,0.56,1.33,0.84,1.961
				c0.14,0.21,0.279,0.35,0.49,0.42C19.425,24.673,19.355,24.463,19.285,24.183z M18.025,34.964c-0.141,0.28-0.07,0.489,0.14,0.7
				L18.025,34.964z M19.215,19.632c0.07,0,0.07,0,0.07-0.069c0-0.49,0.07-0.91,0-1.4c0-0.49,0.21-0.98,0-1.471
				c-0.351,0.141-0.63,0-0.7-0.35c-0.07-0.28-0.21-0.42-0.42-0.49c-0.07,0.21-0.14,0.28-0.14,0.28c-0.07,0.351,0,0.56,0.21,0.7
				c0.35,0.21,0.56,0.63,0.77,1.12c0,0.069,0,0.14,0.07,0.21c0.21,0.49,0.21,0.42-0.28,0.77c0,0-0.07,0.07-0.14,0.141L19.215,19.632
				z M18.165,24.673c0.07,0.56,0,0.489,0.49,0.979C18.725,25.303,18.515,24.953,18.165,24.673z M18.445,53.516l0.14-0.21
				c0-0.56,0.07-1.19-0.14-1.75c0-0.14-0.07-0.21-0.141-0.14c-0.069,0.77-0.14,1.33,0.07,2.1H18.445z M18.305,28.104
				c0,0.279,0.141,0.489,0.42,0.629c0-0.489,0.141-0.91-0.42-1.189V28.104z M18.655,49.455c-0.21,0.49-0.21,0.49,0.14,0.77
				C18.725,50.016,18.865,49.735,18.655,49.455z M18.515,48.755h0.07c0-0.069,0-0.14-0.07-0.21V48.755z M18.655,30.764v-0.07V30.764
				z M19.565,41.055c0-0.631,0-1.33-0.07-1.961c0-0.209-0.07-0.279-0.07-0.35c-0.069-0.28-0.21-0.561-0.21-0.77
				c-0.21-0.841-0.14-1.681-0.21-2.451c0,0-0.07-0.07-0.14-0.14c-0.07,0.069-0.141,0.14-0.141,0.351c0,0.91,0,1.819,0.07,2.729
				c0,0.07,0,0.21,0.07,0.28c0.069,0.35,0.21,0.7,0.279,0.91c0,0.35,0.07,0.561,0.141,0.7c0.21,0.28,0.14,0.489,0.21,0.771
				C19.565,41.125,19.565,41.125,19.565,41.055z M19.215,14.871c-0.21,0.141-0.35,0.28-0.35,0.49c0.21,0,0.21,0.07,0.42,0.07
				C19.285,15.222,19.425,15.082,19.215,14.871z M19.075,55.336c0.21,0.279,0.21,0.561,0.56,0.77c0.07-0.069,0.07-0.14,0.07-0.209
				c0-0.211,0-0.281-0.07-0.351c-0.21-0.28-0.279-0.56-0.56-0.841C19.005,55.056,19.005,55.266,19.075,55.336z M19.635,47.564
				c0.07-0.56,0-1.119,0.07-1.75c0-0.42-0.07-0.84-0.21-1.26c-0.21-0.07-0.28-0.141-0.351-0.141c-0.14,1.751-0.14,2.171,0.351,3.921
				C19.775,48.125,19.635,47.846,19.635,47.564z M19.635,51.556c-0.14,0.069-0.35,0.069-0.56,0.069c0,0.28,0.069,0.49,0,0.701
				c0,0.35,0.21,0.629,0.63,0.979C19.705,52.676,19.635,52.115,19.635,51.556z M19.215,15.922v0.14h0.07v-0.14H19.215z
				 M29.086,31.113c-0.84-0.07-1.61-0.07-2.311,0.07c-1.05,0.21-1.819,0.21-2.87,0.42c-0.42,0.07-0.56-0.07-0.49-0.561
				c0-0.77,0.07-1.47,0.141-2.24c0.14-1.05,0.14-2.24,0.069-3.43v-1.33c-0.069-0.84-0.069-1.75-0.069-2.591
				c0-0.63-0.07-1.19-0.07-1.82c0-0.28,0.07-0.63,0.21-0.979c0.21,0,0.42-0.141,0.63-0.07c0.351,0.07,0.7-0.07,1.051-0.07
				c1.33-0.07,2.59-0.07,3.92-0.35c0.07,0,0.21-0.07,0.42-0.141c-0.21-1.05-0.279-2.029-0.35-3.08c-0.07-0.35-0.28-0.49-0.561-0.561
				l-1.12-0.209l-2.38-0.141c-0.56,0-1.12-0.07-1.681-0.07c-0.489,0-0.84,0.07-1.33,0.07c-0.489,0.07-0.84-0.07-1.33,0.141
				c-0.21,0.07-0.35,0.14-0.42,0.14l-0.56,0.21v0.35v3.291v3.221v2.17c0.069,0.49,0.069,0.77,0.069,1.26
				c0.07,1.19,0.07,2.381,0.07,3.57c0,0.28,0.07,0.631,0.141,1.12l0.14,0.49c-0.21,0.21-0.28,0.42-0.28,0.7
				c0,0.84-0.07,1.68-0.07,2.52c0,0.771-0.21,1.541,0,2.311c0.07,0.211,0,0.351,0,0.561v0.63c0,0.49,0,0.84,0.07,1.33
				c0,1.12,0.07,2.24,0.07,3.36v2.521v0.91c0,0.28,0.07,0.56,0.07,0.84v2.45v0.42v1.26c0,0.49,0.069,0.771,0,1.261
				c0,0.91,0.14,1.82,0.14,2.73c0,0.21,0.14,0.28,0.35,0.35c0-0.069,0.07-0.14,0.141-0.14c0.35-0.28,0.63-0.28,0.91-0.07
				c0.069,0.07,0.21,0.07,0.279,0.28h0.28c0.63-0.21,1.19-0.21,1.96-0.28l1.54-0.21c1.121-0.21,2.171-0.28,3.291-0.21h1.68
				c0.49,0,0.771-0.28,0.771-0.77v-0.42c-0.07-0.49-0.07-0.841-0.07-1.191c-0.069-0.489,0-0.77-0.21-1.26
				c-0.77-0.07-1.4-0.07-1.96,0.07c-0.771,0.07-1.261,0.35-2.03,0.141c-0.63-0.211-1.26-0.07-1.891,0.139
				c-0.35,0-0.63-0.069-0.84-0.209v-1.541l-0.28-2.869c0-0.561-0.14-1.051-0.069-1.541c0.069-0.77,0-1.4-0.07-2.17
				c-0.21-1.12-0.14-2.24-0.14-3.36c0-0.56,0.069-1.12,0-1.751c-0.07-0.35,0.069-0.56,0.489-0.629c0.771-0.211,1.4-0.351,2.171-0.28
				h0.56c0.561,0,1.051-0.07,1.61,0c0.561,0,1.12-0.07,1.681-0.21c0-1.051,0.069-1.82,0-2.871c0-0.49-0.141-0.979-0.351-1.609
				C29.716,30.973,29.437,31.113,29.086,31.113z M20.405,55.546c0.21,0.351,0.42,0.771,0.91,0.84c0,0,0.069,0,0.28,0
				c0-0.21,0-0.28,0-0.28l-0.421-0.84c-0.21-0.49-0.279-0.561-0.909-0.35C20.195,55.126,20.266,55.336,20.405,55.546z
				 M22.506,54.986v0.979c-0.07,0.28,0.069,0.49,0.42,0.7c0.21,0.141,0.35,0.07,0.35-0.21c0-0.21,0-0.351-0.07-0.42
				c-0.14-0.351-0.279-0.7-0.489-0.91c0-0.07-0.07-0.21-0.141-0.28C22.506,54.916,22.506,54.986,22.506,54.986z M23.625,54.705
				c0.07,0.351,0.211,0.631,0.28,0.841c0.07,0.21,0.21,0.49,0.49,0.771c0.14,0.209,0.351,0.209,0.561,0.14
				c0.14-0.07,0.21-0.21,0.21-0.56c-0.07-0.281-0.21-0.49-0.28-0.561c-0.21-0.35-0.351-0.631-0.561-0.77L23.625,54.705z
				 M24.746,19.492c-0.49,0.49-0.351,1.05-0.28,1.68c0.069,0.42,0.28,0.631,0.63,0.7c0.28,0.07,0.49-0.14,0.7-0.489
				c0.28-0.351,0.42-0.771,0.42-1.261c0.07-0.771,0-0.771,0.771-0.979c-0.421-0.07-0.771,0-0.98,0.069
				c-0.21,0.21-0.28,0.42-0.28,0.771c0,0.279,0,0.49-0.07,0.699c-0.069,0.351-0.279,0.42-0.489,0.351s-0.28-0.21-0.28-0.49
				l0.21-0.91c-0.07-0.069-0.07-0.069-0.07-0.14H24.746z M25.096,38.534c-0.07-0.351-0.14-0.63-0.07-0.841
				c0.21-0.279,0.07-0.629,0.141-0.91c-0.21-0.069-0.351,0.07-0.351,0.281c0,0.629,0,1.189-0.069,1.82
				c0.21,0.069,0.42,0.139,0.56,0.069L25.096,38.534z M26.496,55.756c0.35,0.07,0.49,0,0.49-0.35c0.069-0.211,0.069-0.351-0.07-0.49
				l-0.42-0.631c-0.49,0.07-0.771,0-1.12,0.211C25.516,55.126,25.865,55.546,26.496,55.756z M25.726,56.666
				c0.84,0.07,1.75,0,2.73-0.35c0-0.211-0.14-0.07-0.351-0.28c-0.21-0.07-0.21-0.21-0.42-0.28c-0.489,0.77-1.189,0.7-1.96,0.49
				V56.666z M29.786,37.834c0.35-0.49,0.56-0.98,0.63-1.4c-0.35,0-0.63,0-0.84,0.07h-0.771c-0.91-0.21-1.75,0.07-2.66,0.07
				c-0.069,0-0.069,0.07-0.28,0.07c0.07,0.069,0.07,0.139,0.07,0.209c0.351,0.211,0.49,0.631,0.42,1.121
				c-0.069,0.35-0.069,0.699,0,1.049c0.351,0.07,0.631,0.07,0.98,0c0-0.209,0.14-0.35,0.07-0.56c-0.07-0.35-0.07-0.771-0.351-1.12
				c-0.21-0.21-0.069-0.49,0.28-0.49c0.21,0,0.42-0.14,0.63,0.07c0.351,0.21,0.7,0.21,1.05,0.21
				C29.227,37.273,29.437,37.484,29.786,37.834z M27.476,21.803l0.28-0.28c0.07-0.21,0.07-0.351,0-0.49
				c-0.21,0.069-0.35,0.069-0.42,0.14c-0.21,0.211-0.42,0.28-0.7,0.28c-0.28,0.07-0.42,0.21-0.49,0.56
				C26.636,22.012,27.056,21.942,27.476,21.803z M27.406,54.216c0.35,0.7,0.84,1.19,1.609,1.47l-0.77-1.47H27.406z M27.966,19.072
				c-0.28,0.91-0.28,1.12,0,1.609c0.28-0.56,0.63-1.119,0.98-1.68C28.596,18.792,28.316,19.002,27.966,19.072z M28.176,37.975
				c0.07,0.629,0.07,0.629,0.42,0.91c0.07-0.141,0.141-0.351,0.141-0.701L28.176,37.975z M30.767,54.216
				c-0.561-0.07-0.49-0.14-0.98,0.069c0.21,0.281,0.28,0.49,0.35,0.771C30.486,54.705,30.696,54.426,30.767,54.216z"/>
			<path fill="#FFFFFF" d="M49.666,56.596c-0.56-1.609-0.84-3.29-1.33-4.971c-0.35-1.189-0.7-2.38-0.98-3.57
				c-0.21-0.84-0.279-1.68-0.489-2.52l-0.28-1.4l-0.561-2.381l-0.77-2.869l-0.21-1.191c-0.07-0.77-0.21-1.539-0.42-2.31
				c0-0.21,0-0.351-0.07-0.42c0-0.49-0.07-0.771-0.14-1.12c-0.211-0.84-0.28-1.68-0.631-2.521c-0.069-0.28-0.14-0.63-0.42-0.91
				c0,0.21,0.07,0.42,0.07,0.63c0.21,1.051,0.14,2.17,0.21,3.221c0,0.77,0.14,1.471,0.21,2.24v0.63c0.07,0.771,0.14,1.54,0.14,2.311
				l0.21,2.729l0.211,2.941c0.069,0.77,0.069,1.399,0.069,2.17c0,1.33,0.07,2.73,0.07,4.061c0,0.279,0.07,0.49,0.07,0.77v0.771
				c-0.07,0.35-0.28,0.63-0.631,0.7c-0.21,0.14-0.35,0.21-0.35,0.21c-0.28,0.489-0.7,0.7-0.91,1.19c-0.21,0.489-0.42,0.77-0.7,1.119
				c-0.14,0.28-0.35,0.42-0.63,0.42l-2.87,0.49c-0.49,0.141-0.91,0.211-1.33,0.141c-0.21,0-0.42,0-0.49,0.07
				c-0.21-0.07-0.35-0.351-0.35-0.701l-0.141-1.959l-0.21-2.102c0-0.489-0.07-0.77-0.07-1.26c-0.21-1.119-0.14-2.17-0.21-3.29
				c0-1.05-0.069-1.82-0.14-2.87v-0.21c-0.07-0.561-0.21-1.12-0.14-1.681c0-0.63-0.07-1.189-0.141-1.75c0-0.84-0.07-1.61-0.14-2.381
				c-0.21-1.049-0.07-1.819-0.07-2.869c0-0.91,0.07-1.82,0.21-2.73c0.21-1.681,0.28-3.361,0.21-5.041v-2.801
				c0.07-0.629,0.07-1.26,0.07-2.029c0-0.91,0.07-1.82,0.14-2.66c0.07-0.49,0-0.91,0-1.4l0.141-2.101l0.279-2.38
				c0-0.07,0.07-0.07,0.07-0.28c0.91-0.56,1.61-1.19,2.66-1.681c0.21,0.07,0.28,0.211,0.49,0.211c0.21,0.07,0.21-0.07,0.42-0.07
				c0.49-0.21,0.771-0.07,1.12,0l1.4,0.21c0.35,0.21,0.771,0.14,1.12,0.21l2.45,0.21c0.56,0.07,1.05,0.07,1.61,0.07
				c0.28,0,0.42,0.28,0.63,0.489c0.07,0.07,0.07,0.211,0.07,0.351l0.56,1.61c0.28,0.91,0.561,1.82,0.771,2.73
				c0.069,0.49,0.21,0.84,0.28,1.189c0.35,0.91,0.489,1.82,0.699,2.73c0.28,1.471,0.631,2.871,1.12,4.061
				c0.28,0.561,0.28,1.12,0.49,1.75l0.28,0.561c0.07-0.49,0.14-0.7,0.14-1.19c0-0.351,0-0.56-0.069-0.7
				c-0.21-0.63-0.141-1.33-0.141-1.96v-1.681v-2.73c0-0.56,0-1.119-0.069-1.68c-0.07-0.77,0-1.47,0-2.24c0-0.91,0-1.82,0.069-2.73
				c0.561-0.56,1.261-1.119,2.101-1.47c0-0.07,0-0.14,0.07-0.14c0.21-0.49,0.069-0.561,0.56-0.561h2.24
				c0.35,0.07,0.771,0,1.26-0.141c0.351-0.069,0.561-0.139,0.771-0.069c0.07,0.069,0.07,0.21,0.07,0.351
				c0.069,0.209,0.069,0.489,0.069,0.91c0,0.209-0.069,0.279,0,0.489c0.21,0.771,0.141,1.4,0.141,2.03c0,0.77,0.14,1.471,0.21,2.24
				v1.051c0.069,1.47,0.35,2.869,0.14,4.34c-0.07,1.12-0.07,2.17-0.07,3.291c0,0.279,0.07,0.56,0.07,0.84
				c0,0.91,0.07,1.82,0.07,2.73c0,0.77-0.07,1.33,0,2.1c0.07,1.051,0.07,2.1,0.07,3.221v1.05c0,0.069-0.07,0.14,0,0.351
				c0.069,0.84,0,1.75,0.069,2.66c0,0.63-0.069,1.189-0.069,1.82c0,0.629,0.069,1.26,0,1.89c-0.07,1.05-0.07,1.96-0.07,2.87
				c0,0.631,0,1.19,0.07,1.82c0.21,1.61,0.069,3.291-0.141,4.9c0,0.49-0.07,0.771-0.21,0.98l-0.14,0.279
				c-0.63,0.561-0.98,1.33-1.75,1.891c0,0-0.07,0.07-0.141,0.141c-0.21,0.49-0.56,0.49-1.05,0.49
				c-1.19,0.209-2.45,0.209-3.641,0.489c-0.979,0.21-2.03,0.28-3.08,0.21C49.876,57.296,49.736,56.945,49.666,56.596z
				 M36.225,38.395v-0.07c0.141-0.21,0.141-0.49,0-0.7c-0.14-0.351-0.14-0.771-0.07-1.261c0.07-0.279,0.141-0.489,0.07-0.56
				c-0.07-0.49-0.14-0.7-0.35-1.19c-0.07,0-0.07,0-0.141-0.07c0,0.211-0.069,0.211-0.069,0.281c0,1.05-0.07,2.17,0,3.29
				c0.21,1.05,0.21,2.17,0.279,3.22c0,0,0.07,0.07,0.141,0.28c0.21-0.351,0.21-0.63,0.42-0.979
				C36.015,39.864,35.875,39.164,36.225,38.395z M36.085,31.463c0.28,0,0.56,0.141,0.77,0.42c0.07,0.211,0.28,0.281,0.49,0.211
				v-0.351l-0.84-1.12c-0.07-0.21-0.28-0.07-0.351-0.14C35.944,30.833,36.015,31.113,36.085,31.463z M36.715,41.824
				c-0.21,0.21-0.21,0.28-0.28,0.49c-0.21,0.28-0.14,0.49-0.35,0.7c-0.07,0.28,0,0.489,0.21,0.63c0.21,0.21,0.35,0.28,0.49,0.35
				h0.069c0-0.77,0-1.33-0.069-2.1L36.715,41.824z M36.154,29.924c0.211,0.069,0.28,0.069,0.28-0.141s-0.069-0.35,0-0.561
				c0.21-0.35,0.21-0.699,0-1.119c-0.21-0.49-0.14-0.771-0.14-1.121l0.21-1.82c0.07-0.279,0.14-0.56,0.07-0.77
				c0-0.49-0.07-0.84-0.141-1.33c0-0.21-0.069-0.42-0.14-0.7c-0.07,0.63-0.21,1.261,0,1.89v0.351l-0.141,1.681v1.05V29.924z
				 M36.225,44.135c-0.07,0.561,0.07,0.7,0.63,1.189C37.064,44.695,36.575,44.484,36.225,44.135z M36.295,45.955v0.14
				c-0.07,0.771,0.07,1.33,0.07,1.96c0.35,0.351,0.77,0.631,0.979,0.98c0.351,0.561,0.63,1.12,0.84,1.75l0.21,0.49
				c0.07,0.21,0.211,0.28,0.421,0.141c0-0.07,0.069-0.07,0.069-0.281c-0.069-0.279-0.14-0.489-0.14-0.77
				c-0.07-0.35-0.21-0.7-0.49-0.98l-0.63-0.91c-0.42-0.629-0.771-1.33-1.12-2.24c-0.07-0.069-0.14-0.14-0.21-0.14V45.955z
				 M36.715,35.594c0,0,0.07,0.07,0.21,0.21c0.28,0.07,0.49,0.21,0.63,0.28v-0.84c-0.56-0.28-0.7-0.91-1.189-1.471
				C36.295,34.404,36.435,34.964,36.715,35.594z M36.925,50.785h0.21c-0.21-0.49-0.42-0.77-0.7-0.98
				c-0.069,0.07-0.069,0.141-0.069,0.141c0.069,0.35,0.14,0.63,0.14,0.84H36.925z M36.785,15.502c-0.07,0.21,0,0.42-0.07,0.63
				c-0.21,0.771-0.21,1.33-0.21,2.101c0,0.069-0.14,0.209,0.07,0.279c0-0.35,0.069-0.63,0.14-0.98c0.07-0.069,0-0.209,0.21-0.279
				c0.21-0.21,0.28-0.42,0.21-0.77c0-0.211-0.07-0.351-0.14-0.561c0-0.21,0.069-0.35,0.21-0.42c0.21-0.07,0.21-0.351,0.14-0.7
				C37.064,14.871,36.854,15.082,36.785,15.502z M36.785,39.864c0.21-0.351,0.42-0.56-0.07-1.05
				C36.435,39.374,36.435,39.374,36.785,39.864z M36.785,36.854l-0.07,0.07c0,0.21,0.07,0.28,0.14,0.21l0.07-0.069L36.785,36.854z
				 M37.135,56.456c0.28,0.069,0.49,0.069,0.7,0l-0.63-1.82c-0.07-0.14-0.07-0.351,0-0.56c0.069-0.211-0.07-0.49-0.351-0.771
				C36.645,54.355,36.854,55.826,37.135,56.456z M36.995,33.283l-0.141-0.14c0,0.069-0.069,0.069-0.069,0.14
				c0.069,0,0.069,0.07,0.14,0.07L36.995,33.283z M36.925,51.905c0.07,0.49,0.28,0.91,0.63,1.33c0.21-0.21,0.07-0.35,0.07-0.56
				c-0.21-0.49-0.42-0.91-0.771-1.19C36.854,51.695,36.854,51.836,36.925,51.905z M36.925,22.853c-0.07,0.21,0,0.42,0,0.7l0.14,0.14
				c0.21-0.771,0.28-1.75,0.07-2.521C37.064,21.732,36.925,22.293,36.925,22.853z M37.135,37.624l-0.14,0.21
				c-0.07,0.07,0,0.21,0.069,0.42c0,0.07,0.07,0.141,0.21,0.141c0.141-0.351,0.21-0.701,0.141-1.051L37.135,37.624z M37.064,49.385
				h-0.069v0.07c0,0.07,0.069,0.141,0.14,0.141C37.205,49.525,37.135,49.455,37.064,49.385z M37.205,27.402
				c-0.07,0.211-0.141,0.281-0.141,0.281c-0.069,0.35-0.069,0.699,0,1.119C37.345,28.243,37.415,28.173,37.205,27.402z
				 M37.765,46.375c-0.069-0.42-0.21-0.7-0.35-0.84c-0.141-0.141-0.28-0.141-0.351,0.07L37.765,46.375z M37.555,41.055
				c0-0.07-0.07-0.141-0.14-0.141c-0.07,0-0.28,0.07-0.21,0.28c0,0.069,0,0.069,0.069,0.069c0.07,0.07,0.07,0.07,0.141,0.07
				C37.484,41.125,37.555,41.055,37.555,41.055z M37.555,20.262c0.07-0.279,0-0.63-0.07-0.979
				C37.274,19.563,37.205,19.912,37.555,20.262z M37.415,26.563c0.21-0.21,0.14-0.21,0.14-0.98
				C37.345,25.933,37.274,26.213,37.415,26.563z M37.555,39.794h-0.07v0.14c0.07,0,0.141,0,0.211-0.069
				C37.625,39.794,37.625,39.794,37.555,39.794z M37.625,43.574c0,0.211-0.07,0.561-0.141,0.91c0,0.351,0.141,0.7,0.49,0.98
				C37.975,44.695,37.835,44.064,37.625,43.574z M38.045,48.055c0.07,0,0.07-0.07,0.07-0.14c-0.21-0.21-0.141-0.28-0.351-0.49
				c0-0.069-0.069-0.14-0.28-0.21c0.141,0.35,0.28,0.561,0.49,0.77c0.07-0.069,0.07-0.069,0.141-0.069
				C38.045,47.984,38.045,48.055,38.045,48.055z M37.765,38.744c0,0.07-0.069,0.141-0.069,0.21l0.069,0.069
				c0.07-0.069,0.07-0.139,0.07-0.279H37.765z M38.325,14.031c-0.21,0.211-0.351,0.141-0.561,0.35l0.351,0.281
				c0.069,0.209,0,0.35,0.21,0.279C38.535,14.451,38.535,14.521,38.325,14.031z M37.765,16.342c0,0.07,0.07,0.141,0.141,0.21
				c0.069-0.21,0.069-0.49-0.141-0.771V16.342z M37.765,17.813c0.351,1.189,0.42,2.449,0.351,3.64c-0.07,0.771-0.07,1.33-0.07,1.96
				c-0.07,0.141,0,0.351,0.07,0.631c0.21,0.42,0.279,0.979,0.14,1.609l-0.28,1.75c-0.069,0.49-0.14,0.771-0.069,1.261
				c0.069,0.84,0.14,1.681,0.069,2.45c0,0.21,0.07,0.42,0.07,0.63c0.21,0.351,0.14,0.7,0.35,1.19c0-0.631,0.07-1.051,0.07-1.54
				c0-1.61,0-3.081-0.07-4.551c0-1.399-0.069-2.73-0.069-4.061c-0.07-1.61-0.07-3.15-0.07-4.761c0-0.209-0.07-0.35-0.07-0.56
				c-0.21,0-0.21,0.069-0.42,0.069V17.813z M38.465,39.654c-0.07,0-0.14,0.14-0.21,0.35l-0.21,1.681
				c-0.07,0.489-0.07,0.979,0.07,1.33c0.21,0.56,0.14,1.12,0.35,1.681c0,0.209,0.07,0.56,0.141,0.91c0.069-0.351,0-0.631,0-0.98
				C38.395,43.015,38.465,41.334,38.465,39.654c0-0.07,0.07-0.07,0.07-0.141h-0.07V39.654z M38.465,34.894
				c-0.14,0.07-0.21,0.14-0.21,0.14c0,0.49,0,1.051,0.07,1.541c0,0.14,0,0.209,0.069,0.279h0.07V34.894z M38.745,53.025
				c0,0.28-0.07,0.561-0.07,0.84c0.07,0.07,0.141,0.141,0.21,0.141l0.141-0.07c0.069-0.35,0.069-1.26-0.141-1.75
				c-0.069,0-0.069,0.07-0.279,0.07L38.745,53.025z M58.837,12.771c-0.21,0-0.28-0.07-0.35-0.07c-0.771,0.21-1.61,0.141-2.381,0.141
				c-0.35-0.07-0.7-0.07-0.91,0.14c-0.14,0.49-0.21,0.979-0.21,1.47l0.21,3.08c0.07,0.49,0.07,0.771,0.07,1.261
				c0,0.351,0.07,0.771,0.07,1.12c0,0.91,0,1.82,0.069,2.73c0,0.63,0.07,1.26,0.07,1.891c0.07,0.14,0.07,0.35,0.07,0.629
				c0.07,0.49,0.14,0.841,0.14,1.19c0,1.331,0.07,2.521,0.07,3.851c0,0.77,0.07,1.33,0,1.961c0,0.629-0.07,1.189,0.14,1.75
				c0.07,0.56,0.21,1.189-0.14,1.68c-0.07,0.07-0.07,0.21-0.07,0.35v1.4c0.21,1.33,0.21,2.381,0.141,3.711
				c-0.07,1.189-0.07,2.311,0,3.43v0.561c0,0.14-0.07,0.21-0.21,0.21c-0.211,0.069-0.351,0.069-0.351-0.14
				c-0.21-0.211-0.14-0.49-0.21-0.771l-0.14-1.19c-0.21-0.77-0.28-1.47-0.49-2.24l-0.42-1.68l-0.91-2.66v-0.28v-0.42l-0.63-2.94
				l-0.21-0.77l-0.561-2.661c-0.21-0.63-0.28-1.33-0.56-1.96l-0.561-1.61c-0.35-1.33-0.63-2.38-0.91-3.71
				c-0.21-0.91-0.42-1.82-0.7-2.73c-0.28-1.051-0.35-1.891-0.7-2.801l-0.77-2.029c-0.351-0.211-0.7-0.211-0.98-0.281
				c-0.77,0-1.33-0.069-2.1-0.069c-1.12-0.21-2.171-0.14-3.291-0.49c-0.35-0.069-0.7-0.069-1.05,0c-0.28,0.21-0.63,0.14-0.91,0.21
				c-0.07,0.211-0.14,0.35-0.14,0.42c0.069,0.91-0.141,1.82-0.141,2.73v3.641c0,1.4,0.07,2.73,0.07,4.131
				c0.07,1.33,0,2.73,0.07,4.061v3.57c0,1.33-0.07,2.52,0,3.85c0.069,1.12,0.069,2.17,0.069,3.291c0,0.35-0.069,0.699-0.069,1.189
				s0.069,0.771,0.069,1.26c-0.069,1.33,0.21,2.591,0.21,3.921l0.141,1.54c0,0.561,0.069,1.12,0.069,1.61
				c0.07,1.05,0.07,2.101,0.07,3.15c0,0.49-0.07,0.771,0.14,1.261h0.351l2.311-0.421l0.77-0.21c0.07-0.07,0.141-0.14,0.351-0.21
				c0.21-0.069,0.21-0.14,0.42-0.351c0-0.489-0.07-0.909,0-1.399v-2.45c0-1.33-0.07-2.45-0.141-3.78l-0.21-2.94
				c0-0.77-0.069-1.33-0.14-1.961l-0.14-2.31c-0.21-1.12-0.07-2.171-0.28-3.29c0-0.49,0-1.051-0.07-1.61l-0.28-3.15
				c-0.069-1.33-0.069-2.45-0.069-3.641c0-0.771,0.069-1.399,0.069-2.03v-4.48v-0.14c0-0.21,0.07-0.421,0.21-0.49
				c0.211,0,0.351,0.069,0.421,0.28c0.21,0.279,0.35,0.63,0.42,0.91l1.05,3.15c0.28,1.05,0.63,1.82,0.98,2.87
				c0.21,0.489,0.21,0.979,0.42,1.54l0.63,2.24c0.35,1.189,0.7,2.311,0.98,3.5l1.47,5.461c0.21,0.77,0.42,1.26,0.49,2.03
				c0.21,1.33,0.63,2.45,0.979,3.64c0.49,1.611,0.91,2.941,1.19,4.551c0,0.07,0.07,0.141,0.07,0.211l0.56,2.38
				c0.21,0.489,0.141,0.979,0.351,1.47l0.21,0.561h0.35c0.49-0.211,0.771-0.141,1.261-0.141c0.35,0.07,0.63,0,1.12,0
				c0.63,0,1.26,0,1.89-0.279c0.49-0.141,0.91-0.211,1.4-0.141c0.07,0,0.07-0.07,0.14-0.07c0.07-0.49,0.141-0.84,0.141-1.33
				c0.069-0.77,0.14-1.539,0.069-2.38c0-1.12-0.069-2.17-0.069-3.29s0-2.17,0.069-3.221c0-0.77-0.14-1.54,0.141-2.311v-0.279
				c-0.07-1.051,0.069-2.03-0.141-3.08c-0.069-0.07-0.069-0.141-0.069-0.351c0.069-0.84,0.069-1.681,0.069-2.521
				c0-0.279,0.07-0.56,0-0.91c-0.069-1.05-0.069-1.96-0.069-3.01c0-0.631,0.069-1.33,0-1.961c-0.07-1.05-0.07-2.029-0.07-3.08
				c0-0.56,0.07-1.12,0.07-1.609c0-0.771,0.069-1.4,0-2.171l-0.141-2.45l-0.14-2.311c0-0.49-0.07-0.91-0.07-1.4L58.837,12.771z
				 M39.725,54.775c-0.21-0.209-0.489-0.209-0.699,0c-0.07,0.28-0.07,0.49,0.14,0.7c0.28,0.21,0.49,0.28,0.7,0.21
				C40.075,55.266,40.005,54.986,39.725,54.775z M40.635,54.775c0.211,0.351,0.351,0.42,0.49,0.28c0.141-0.069,0.141-0.28,0.07-0.56
				c-0.21-0.07-0.42-0.07-0.63,0C40.565,54.636,40.565,54.705,40.635,54.775z M43.855,22.502c-0.21-0.91-0.35-1.189-0.63-1.4
				c-0.07,0.49,0,1.051,0,1.681L43.855,22.502z M43.646,24.393h0.07c0-0.07,0.069-0.141,0.069-0.21c0-0.21-0.069-0.351-0.069-0.63
				c-0.07,0.14-0.07,0.21-0.07,0.279V24.393z M44.346,29.503c0.21-0.21,0.14-0.35-0.141-0.42c-0.21-0.069-0.35-0.14-0.42-0.14
				c-0.069,0.279,0.07,0.49,0.141,0.84C44.136,29.573,44.136,29.573,44.346,29.503z M44.416,25.582c-0.211,0.281-0.211,0.631,0,0.98
				C44.485,26.213,44.485,25.933,44.416,25.582z M44.416,24.393v0.07l0.069-0.07H44.416z M44.626,31.883
				c0.069,0.07,0.14,0.141,0.21,0.07v-0.14c0-0.07-0.07-0.14-0.21-0.28V31.883z M45.256,31.043l-0.21-0.42
				c-0.07-0.21-0.21-0.279-0.351-0.35c0.141,0.49,0.351,0.91,0.631,1.26C45.536,31.323,45.326,31.254,45.256,31.043z M45.396,29.643
				c0-0.489,0-0.979-0.49-1.47C44.976,28.943,45.186,29.434,45.396,29.643z M45.046,26.492c-0.07,0.841,0,0.98,0.63,1.751
				C45.466,26.913,45.326,26.703,45.046,26.492z M45.186,34.054c0,0.14,0.07,0.14,0.28,0c0-0.21-0.14-0.42-0.42-0.56L45.186,34.054z
				 M45.886,35.664c-0.07-0.211-0.21-0.351-0.42-0.561C45.396,35.453,45.396,35.453,45.886,35.664z M46.656,38.254
				c-0.421-0.77-0.771-1.189-1.051-1.26c0,0.21,0.07,0.42,0.07,0.63L46.656,38.254z M45.815,29.153c0.21,0.21,0.141,0.21,0.21,0.28
				c0,0.35,0.07,0.699,0.07,0.979c0.07,0.21,0.14,0.14,0.21,0.351c-0.07-0.49-0.07-0.98-0.35-1.33
				C45.956,29.293,45.886,29.223,45.815,29.153z M46.166,39.864c0.21-0.07,0.35-0.14,0.42-0.14c-0.07-0.211-0.28-0.42-0.561-0.631
				C46.096,39.444,46.166,39.654,46.166,39.864z M46.656,32.443c0-0.35-0.141-0.63-0.49-0.98
				C46.235,31.813,46.166,32.164,46.656,32.443z M48.616,38.534c-0.561,0.069-0.561,0.069-0.771-0.28l-0.84-0.91
				c0-0.07-0.07-0.07-0.28-0.14c0.49,0.489,0.7,0.84,0.98,1.33c0.21,0.351,0.49,0.489,0.84,0.489c0,0.211,0.07,0.49,0.14,0.771
				c0,0.07,0.07,0.21,0.211,0.351v-0.211L48.616,38.534z M46.866,33.634c0.21,0.21,0.21,0.35,0.489,0.35l-0.14-0.489h-0.21
				L46.866,33.634z M47.146,43.645c0.07-0.07,0.07-0.141,0.07-0.21c-0.21-0.49-0.14-0.42-0.35-0.7l0.14,0.631
				c0,0.069,0.07,0.069,0.21,0.069C47.216,43.504,47.146,43.574,47.146,43.645z M47.496,34.894c-0.21,0.07-0.28,0.07-0.351,0.14
				c0.07,0.351,0.28,0.631,0.631,0.841C47.776,35.523,47.706,35.244,47.496,34.894z M47.216,39.234c-0.07,0-0.07,0-0.07,0.07
				c0,0.069,0.07,0.14,0.141,0.209c0,0.07,0.069,0.07,0.069,0l0.07-0.069L47.216,39.234z M47.636,45.605
				c-0.14,0.279-0.069,0.56,0.141,0.77C47.846,46.095,47.636,45.885,47.636,45.605z M47.776,41.334
				c-0.141,0.141-0.21,0.211-0.21,0.211v0.56c0,0.21,0.069,0.21,0.069,0.42C47.846,42.174,47.916,41.754,47.776,41.334z
				 M48.056,36.994c0,0-0.069,0-0.279,0c0.21,0.35,0.21,0.56,0.56,0.84C48.266,37.344,48.196,37.064,48.056,36.994z M47.846,40.284
				v0.07c0.07,0,0.141-0.07,0.141-0.14c-0.07-0.07-0.07-0.07-0.07-0.141C47.846,40.145,47.846,40.215,47.846,40.284z M48.056,44.064
				c0.07,0,0.07,0,0.141-0.07h-0.07h-0.14L48.056,44.064z M47.986,47.846c0.21,0.489,0.42,0.979,0.77,1.33
				c-0.21-0.561-0.28-1.191-0.77-1.751C47.986,47.705,47.986,47.846,47.986,47.846z M48.756,46.445c-0.21-0.28-0.07-0.49-0.28-0.771
				c0-0.14-0.069-0.21-0.21-0.21c0,0.561,0.351,1.471,0.631,1.96c0.069-0.069,0.14-0.14,0.14-0.21L48.756,46.445z M48.966,51.625
				c0.141-0.14,0.21-0.209,0.21-0.279c-0.069-0.28-0.069-0.49-0.42-0.7L48.966,51.625z M48.966,40.494v0.141v0.069
				c0.07-0.069,0.07-0.069,0.07-0.14L48.966,40.494z M49.176,43.015c0.21,0,0.21-0.07,0.42-0.07l-0.21-0.91
				c-0.069-0.28-0.069-0.56-0.279-0.84c-0.07,0.49,0,0.91,0.21,1.4C49.246,42.805,48.966,42.805,49.176,43.015z M49.246,44.135
				c0,0.561,0.07,1.05,0.35,1.82c0.211-0.771,0.141-1.33,0.07-1.961c0-0.209-0.14-0.209-0.21-0.42
				C49.386,43.785,49.246,43.925,49.246,44.135z M50.646,55.966l-0.63-0.91c0,0-0.07-0.069-0.28-0.14l0.35,0.98
				c0.07,0.35,0.21,0.629,0.28,0.91c0.35,0.069,0.771,0.069,1.12,0L50.646,55.966z M50.646,49.735l-0.351-0.14
				c0,0-0.14-0.07-0.42-0.28c0.28,0.63,0.42,1.12,0.771,1.47C50.716,50.575,50.716,50.225,50.646,49.735z M50.296,46.795
				c0.351,0.561,0.49,1.189,0.7,1.75c0,0.07,0.07,0.141,0.141,0.21c0-0.7-0.561-2.87-0.91-3.36
				C50.227,45.955,50.086,46.305,50.296,46.795z M51.347,54.566c0.069,0.35,0.14,0.629,0.14,0.699c0,0.21-0.07,0.42-0.07,0.631
				c0.141,0.209,0.28,0.279,0.42,0.209c0.211-0.069,0.28-0.209,0.28-0.42c0-0.14,0-0.21-0.069-0.279c-0.28-0.49-0.49-0.98-0.7-1.471
				c-0.07,0-0.141,0-0.21-0.07L51.347,54.566z M51.696,52.746c0.21,0.209,0.07,0.56,0.561,0.629c-0.07-0.56-0.21-1.049-0.28-1.399
				s-0.28-0.56-0.63-0.63C51.137,51.905,51.486,52.256,51.696,52.746z M52.887,56.525l-0.351-0.279l-0.35,0.49
				c0.21-0.07,0.42-0.07,0.63-0.07C52.887,56.596,52.887,56.525,52.887,56.525z M52.606,54.496c0,0.209,0.07,0.209,0.07,0.42
				c0.069,0.49,0.35,0.91,0.84,1.189c0.21-0.069,0.21-0.209,0.14-0.42l-0.63-1.119c0-0.07-0.14-0.141-0.35-0.211
				C52.606,54.426,52.606,54.426,52.606,54.496z M52.887,18.021c0,0.28,0.14,0.42,0.42,0.49c-0.07-0.49-0.141-0.84-0.42-1.189
				V18.021z M53.097,21.172c0.069-0.35,0.14-0.699,0.14-0.91c0.07-0.14,0-0.279-0.21-0.42c-0.21,0.49,0,0.84-0.07,1.33H53.097z
				 M53.236,26.143c0-0.49,0.07-0.84-0.14-1.189C53.097,25.303,52.746,25.652,53.236,26.143z M53.026,23.133h0.07l-0.07-0.07V23.133
				z M53.377,27.753c0-0.21-0.07-0.21-0.07-0.28c-0.07-0.07-0.07-0.07-0.141-0.07c-0.069,0.49-0.21,1.611,0,1.961
				c0,0,0.07,0.07,0.28,0.21C53.377,28.803,53.377,28.313,53.377,27.753z M53.446,14.802c0.42-0.07,0.63,0.069,0.7,0.42
				c0.07,0.49,0.141,0.7,0.141,1.19c0,0.35,0.069,0.699,0.21,1.05c0.069-0.42,0.069-0.841,0-1.19c-0.07-0.49,0.069-0.77-0.141-1.26
				c-0.069-0.49,0.141-0.77-0.069-1.26c-0.49,0.209-0.49,0.14-1.051,0.699c-0.14,0.141-0.21,0.28-0.14,0.49
				C53.307,14.871,53.377,14.871,53.446,14.802z M53.446,31.674c0.49,0.49,0.91,1.189,1.12,2.029c0.07,0.28,0.141,0.49,0.21,0.561
				c0.07,0.141,0.21,0.21,0.28,0.141c0.21-1.611,0-1.82-0.56-2.591c-0.07,0.069-0.141,0.069-0.28,0.069
				c-0.21-0.629-0.49-0.91-0.98-1.399C53.097,31.043,53.166,31.463,53.446,31.674z M53.307,33.634c0.07,0.14,0.21,0.14,0.35,0
				c-0.069-0.07-0.21-0.21-0.279-0.421C53.166,33.283,53.097,33.424,53.307,33.634z M53.797,17.531c0-0.279,0.14-0.489-0.21-0.77
				C53.517,17.111,53.587,17.322,53.797,17.531z M53.866,21.662c0,0-0.069-0.07-0.14-0.14c-0.21,0.771-0.07,1.19,0.561,1.681
				C54.287,22.572,54.146,22.082,53.866,21.662z M53.656,19.352c0.351,0.771,0.42,0.91,0.7,1.121c0.07-0.49-0.069-0.771-0.14-1.261
				L53.656,19.352z M54.287,25.162c-0.211-0.35-0.07-0.699-0.421-0.979C53.797,24.673,53.797,24.673,54.287,25.162z M54.217,27.543
				c0,0.07,0,0.07,0.07,0.07c0.069,0.07,0.069,0.07,0.14,0.07c0-0.701-0.21-1.261-0.561-1.611
				C53.937,26.633,54.007,27.053,54.217,27.543z M54.217,37.064c-0.21-0.211,0-0.49-0.21-0.701
				C54.007,36.854,54.007,36.854,54.217,37.064z M54.076,54.426v0.07l0.211,0.699c0.069,0.07,0.14,0.141,0.21,0.351h0.14
				c0.07,0,0.14-0.07,0.14-0.14c0-0.28-0.14-0.561-0.35-0.771c-0.21-0.069-0.28-0.14-0.351-0.069V54.426z M54.287,29.993
				c0,0.771,0,0.91,0.77,1.4c0.07-0.771-0.07-1.681-0.42-2.24c-0.14-0.14-0.28-0.21-0.35-0.14
				C54.287,29.363,54.217,29.713,54.287,29.993z M54.637,21.732h-0.07v0.279h0.07V21.732z M54.776,38.395c0,0.49,0,0.84,0.07,1.05
				c0,0.489,0.14,0.7,0.21,1.19c0,0.14,0.07,0.209,0.14,0.209c0.07-0.629,0.21-1.33,0-1.959c-0.14-0.91-0.14-1.961-0.069-3.15
				c0-0.07-0.07-0.141-0.21-0.211c0.069,0.211,0.069,0.42,0.069,0.7c0.07,0.28-0.21,0.49-0.279,0.7
				C54.707,37.414,54.776,37.904,54.776,38.395z M54.776,26.283c-0.069,0.279,0,0.56,0.28,0.84c0-0.35,0.07-0.7,0-0.98
				C54.847,26.072,54.776,26.143,54.776,26.283z M55.057,54.285c0.21,0.351,0.49,0.561,0.771,0.631c0.069,0.07,0.21,0.07,0.35,0.07
				c0.07-0.281,0.07-0.561-0.14-0.771C55.406,54.146,55.406,54.076,55.057,54.285z M56.737,56.105c-0.49-0.49-0.7-0.49-1.331-0.49
				c0,0.211-0.069,0.351-0.14,0.631C55.827,56.316,56.247,56.176,56.737,56.105z M56.947,55.126l-0.07,0.069
				c0,0.07,0.07,0.141,0.21,0.141c0-0.07,0-0.07,0.07-0.141C57.087,55.195,57.017,55.126,56.947,55.126z M58.137,54.986l0.7-0.841
				c0.07-0.21,0.07-0.35,0-0.42c-0.56-0.069-1.05,0.21-1.54,0.28l-0.28,0.21c0.07,0.069,0.21,0.14,0.42,0.14
				c0.21-0.07,0.21,0,0.421,0L58.137,54.986z"/>
			<path fill="#FFFFFF" d="M65.204,12.911c0.21-0.35,0.49-0.42,0.91-0.35c0.14,0.069,0.28,0.069,0.42,0l1.12-0.21
				c0.63-0.211,1.26-0.28,1.891-0.35c0.279-0.07,0.42,0,0.42,0.35c0.069,0.63,0.21,1.26,0.42,1.891l0.56,2.24
				c0.21,0.489,0.141,0.84,0.351,1.33c0.21,0.77,0.14,1.609,0.35,2.449c0.21,0.771,0.21,1.541,0.42,2.311
				c0.28,0.84,0.351,1.68,0.561,2.521l0.14,0.42c0.21,0.771,0.28,1.4,0.49,2.171c0.21,0.84,0.14,1.609,0.351,2.449
				c0.21,0.91,0.279,1.75,0.489,2.66l0.561,3.501c0,0.489,0.069,0.84,0.28,1.399c0.069-0.069,0.14-0.209,0.14-0.279
				c0.35-0.77,0.49-1.471,0.49-2.101c0.069-0.35,0.14-0.7,0.14-0.909c0.07-0.91,0.351-1.751,0.561-2.661l0.77-3.64
				c0.21-0.841,0.351-1.751,0.63-2.521c0.07-0.35,0.21-0.77,0.141-1.119c-0.07-0.07,0-0.141,0.069-0.351
				c0.07-0.35,0.211-0.7,0.28-1.19c0.07-0.91,0.21-1.75,0.42-2.59c0.07-0.561,0.07-1.12,0.28-1.68l0.21-0.98
				c0.21-0.49,0.21-0.84,0.28-1.33s0.07-0.98,0.28-1.471l0.279-0.209l2.171-1.051c0.42-0.21,0.7-0.42,0.91-0.63
				c0.069-0.07,0.279-0.21,0.489-0.28c1.4-0.21,2.73-0.279,4.131-0.35c0,0,0,0,0.07,0c0.069,0.07,0.069,0.14,0.069,0.35
				c0.07,0.771,0,1.541-0.14,2.381c-0.21,1.33-0.28,2.66-0.49,3.99c-0.069,0.77-0.14,1.54-0.35,2.311
				c-0.07,0.629-0.28,1.26-0.49,1.89c0,0.069,0,0.21-0.07,0.28l-0.56,2.52c-0.07,0.49-0.141,0.771-0.351,1.261
				c-0.21,0.56-0.279,1.19-0.489,1.75l-0.561,2.24l-0.63,2.66c-0.21,0.49-0.28,0.98-0.49,1.47c-0.07,0.351-0.07,0.631-0.28,1.121
				c0,0.14,0,0.279-0.069,0.35c-0.28,0.98-0.49,1.961-0.631,3.01c-0.069,0.281-0.069,0.631-0.279,0.91
				c-0.351,0.701-0.49,1.4-0.561,2.031c-0.07,0.49-0.07,0.77-0.28,1.26c-0.21,0.77-0.35,1.54-0.42,2.38l-0.42,2.311
				c-0.21,1.399-0.63,2.73-0.84,4.061l-0.21,0.91c-0.07,0.489-0.07,0.771-0.561,0.979c-0.069,0-0.14,0.07-0.14,0.211l-1.26,2.1
				c-0.07,0.21-0.141,0.141-0.211,0.35c-0.14,0.211-0.35,0.351-0.63,0.351c-0.279,0-0.56,0.069-0.77,0c-1.4-0.07-2.801,0-4.131-0.07
				c-0.56,0-1.05-0.069-1.61-0.069c-0.21-0.49-0.35-0.98-0.42-1.4c-0.21-1.19-0.56-2.311-0.84-3.5
				c-0.49-1.471-0.84-2.941-1.05-4.551c-0.21-0.631-0.21-1.33-0.42-1.961c-0.21-1.119-0.351-2.24-0.421-3.29
				c-0.21-0.771-0.14-1.47-0.35-2.24c0-0.14-0.07-0.35-0.14-0.63c-0.21-0.84-0.351-1.75-0.421-2.66
				c-0.069-1.051-0.14-2.17-0.35-3.221c-0.21-1.05-0.21-1.96-0.42-3.01l-0.28-2.591l-0.56-3.99c-0.07-0.63-0.141-1.33-0.141-1.96
				c-0.069-0.771-0.14-1.541-0.35-2.311c-0.21-1.05-0.49-1.96-0.561-3.01c-0.069-0.351-0.14-0.701-0.14-0.91
				c-0.07-0.211,0-0.42,0.14-0.631l1.541-1.82c0.069-0.14,0.279-0.35,0.63-0.699C65.204,13.191,65.204,13.051,65.204,12.911z
				 M63.874,16.691c-0.14-0.209-0.14-0.42,0.07-0.56c0.069-0.07,0.14-0.14,0.14-0.14c-0.07-0.07-0.07-0.141-0.07-0.141h-0.14
				c-0.21,0.28-0.28,0.49-0.28,0.7c0.07,0.069,0.07,0.28,0.07,0.49c0,0.28,0.21,0.489,0.56,0.63L63.874,16.691z M64.364,19.422
				c0.35,0.631,0.91,1.19,1.399,1.68c0.49,0.351,0.841,0.841,1.121,1.471l0.21,0.42c0-0.35,0-0.56-0.07-0.77
				c-0.07-0.351-0.07-0.631-0.42-0.84c0,0-0.07-0.07-0.21-0.211c-0.28-0.49-0.631-0.979-0.91-1.54c-0.28-0.771-0.91-1.12-1.54-1.61
				C64.014,18.652,64.154,19.072,64.364,19.422z M64.714,22.012c0.21,0.211,0.28,0.141,0.351,0.351c0.069,0.07,0.14,0.07,0.21,0
				c-0.21-0.28-0.42-0.63-0.7-0.91C64.504,21.662,64.504,21.872,64.714,22.012z M65.554,16.972c-0.069-0.069-0.069-0.14-0.069-0.28
				c-0.28-0.209-0.28-0.49-0.49-0.77c-0.07-0.21-0.21-0.35-0.28-0.49c-0.069,0.07-0.14,0.07-0.14,0.07c0,0.35,0.14,0.699,0.42,1.05
				c0.07,0.21,0.28,0.21,0.49,0.14C65.274,16.762,65.344,16.902,65.554,16.972z M65.064,24.953l0.489,0.49c0.07,0,0.07,0.209,0.28,0
				c-0.28-0.49-0.63-0.841-0.91-1.331c0-0.069-0.069-0.14-0.21-0.21C64.645,24.393,64.784,24.742,65.064,24.953z M67.864,27.543
				l-0.21-1.471c0-0.069-0.07-0.14-0.07-0.209c-0.35-0.49-0.699-0.98-0.91-1.4c-0.489-0.771-1.05-1.26-1.819-1.82
				c-0.07,0.07-0.07,0.07-0.07,0.14v0.21c1.05,1.471,1.89,2.94,2.94,4.551H67.864z M65.204,25.933c0.56,0.91,1.12,1.681,1.75,2.38
				l0.91,1.4c0,0,0.07,0.141,0.28,0.42c0.07-0.42,0-0.77-0.21-1.05s-0.28-0.49-0.49-0.84c-0.63-1.12-1.4-2.03-2.38-2.661
				C65.134,25.793,65.134,25.863,65.204,25.933z M65.484,14.031c-0.21-0.14-0.28-0.07-0.21,0.28c0,0,0.14,0.069,0.42,0.14
				C65.484,14.172,65.414,14.031,65.484,14.031z M65.694,29.503l-0.07-0.069c-0.07,0.069-0.07,0.069-0.07,0.069
				c0,0.14,0.07,0.28,0.21,0.421C65.764,29.713,65.764,29.573,65.694,29.503z M65.694,27.753c-0.07,0.351,0.069,0.49,0.14,0.7
				c0.07,0.14,0.21,0.14,0.28,0.07c0-0.211,0-0.28,0-0.28L65.694,27.753z M65.694,32.023v0.141c0-0.07,0-0.07,0.069-0.07
				L65.694,32.023z M65.834,32.724c-0.21,0.489,0.07,0.7,0.141,1.19C66.185,33.424,65.834,33.073,65.834,32.724z M66.114,18.232
				c0.07-0.42,0-0.701-0.351-0.841C65.975,17.742,65.904,17.952,66.114,18.232z M66.185,34.824c0.14-0.141,0.14-0.351-0.07-0.701
				C66.044,34.613,65.975,34.543,66.185,34.824z M66.324,19.143c-0.21,0.069-0.28,0.14-0.21,0.279c0.07,0.21,0.21,0.141,0.28,0.35
				C66.534,19.563,66.534,19.352,66.324,19.143z M83.126,15.852c-0.07,0.35-0.14,0.7-0.14,0.91c-0.21,1.33-0.351,2.66-0.7,3.99
				c0,0.07-0.07,0.141-0.07,0.35c-0.07,1.121-0.42,2.102-0.7,3.15l-0.21,0.91c-0.21,1.051-0.49,2.171-0.77,3.221
				c-0.21,1.12-0.561,2.17-0.561,3.291v0.14c-0.21,0.28-0.21,0.63-0.28,0.979l-0.279,1.891c-0.211,0.77-0.211,1.61-0.421,2.381
				l-0.14,0.84l-0.84,2.939l-0.63,2.521c-0.07,0.279-0.21,0.489-0.28,0.699c-0.21,0.631-0.42,1.26-0.49,1.891
				c0,0.21,0,0.35-0.07,0.42c-0.069,0.21-0.21,0.35-0.279,0.42c-0.141,0.141-0.28,0.07-0.351-0.141
				c-0.069-0.069-0.069-0.14-0.069-0.35c-0.211-0.84-0.421-1.68-0.49-2.52c-0.28-1.681-0.561-3.361-0.91-5.111l-0.28-1.609
				c-0.21-1.051-0.35-1.82-0.42-2.871c-0.07-0.77-0.14-1.4-0.351-2.17c-0.21-0.84-0.279-1.75-0.489-2.59
				c-0.07-0.771-0.141-1.33-0.351-2.101l-0.84-3.851c-0.28-1.189-0.49-2.381-0.63-3.43c-0.21-0.771-0.21-1.471-0.42-2.24
				c-0.21-0.49-0.28-0.98-0.351-1.471c-0.21-1.051-0.42-1.891-0.7-2.801c-0.069-0.35-0.21-0.63-0.279-0.84
				c-0.771-0.07-1.331,0.07-1.961,0.28c-0.42,0.14-0.77,0.21-1.12,0.21c-0.069,0-0.069,0-0.14,0.07c0,0.21,0.07,0.49,0.14,0.84
				l0.21,1.12c0.21,1.05,0.141,1.96,0.351,3.011c0.21,0.35,0.07,0.77,0.28,1.119c0.069,0.07,0.069,0.141,0.069,0.28l0.141,1.05
				c0.21,1.121,0.56,2.24,0.63,3.431c0.21,1.19,0.28,2.311,0.49,3.431c0.21,1.189,0.279,2.381,0.489,3.57l0.421,2.521l0.21,1.68
				c0.279,1.4,0.489,2.73,0.699,4.061c0.211,0.49,0.211,0.98,0.28,1.47c0.21,0.771,0.351,1.4,0.42,2.171
				c0.07,0.84,0.28,1.681,0.49,2.45l0.141,0.49l0.56,2.66c0.21,0.63,0.21,1.26,0.42,1.82l0.7,2.52l0.21,1.051
				c0.561,0.07,1.05,0.21,1.54,0.14c0.07-0.069,0.21-0.069,0.42-0.069c0.771,0.069,1.261,0.069,2.03,0.069c0.21,0.07,0.42,0,0.631,0
				c0.279-0.21,0.42-0.42,0.489-0.7c0.21-0.63,0.141-1.26,0.351-1.89l0.14-0.421l0.63-2.939c0.07-0.07,0.07-0.28,0.07-0.49
				s0.07-0.28,0.07-0.49c0.069-0.49,0.069-1.05,0.279-1.609c0.07-0.561,0.07-1.121,0.351-1.681v-0.21l0.49-2.03
				c0.21-1.05,0.63-1.751,0.7-2.8c0.069-0.631,0.21-1.261,0.42-1.891l0.21-0.98l0.63-1.96l0.21-1.05
				c0.07-0.211,0.21-0.561,0.28-1.051c0.35-1.4,0.63-2.87,1.12-4.27l0.979-3.641c0.07-0.351,0.07-0.701,0.28-1.19
				c0.49-1.4,0.49-2.8,0.7-4.2l0.21-1.681l0.42-3.15c0-0.21,0.07-0.28,0.07-0.489c0-0.281-0.14-0.421-0.351-0.421l-2.24,0.21
				c-0.35,0-0.63,0.07-0.979,0.28C83.406,14.242,83.336,15.012,83.126,15.852z M66.954,32.863c0.07-0.07,0.07-0.07,0.07-0.14
				c-0.21-0.56-0.14-1.12-0.351-1.681c0-0.279-0.14-0.56-0.42-0.77C66.185,31.674,66.185,31.813,66.954,32.863z M68.004,39.654
				c0-0.21,0-0.28-0.069-0.28c-0.21-0.351-0.28-0.63-0.49-0.91c-0.35-0.771-0.7-1.33-0.63-2.17c0-0.351-0.141-0.7-0.351-0.91
				c-0.279,0.28-0.21,0.56-0.21,0.84c0,0.771,0.28,1.54,0.561,2.311c0,0.14,0.07,0.28,0.28,0.351L68.004,39.654z M67.444,34.543
				c-0.21-0.209-0.28-0.139-0.35-0.35c-0.21-0.21-0.141-0.35-0.351-0.279c-0.07,0.42,0.07,0.84,0.42,1.26
				C67.374,34.964,67.444,34.754,67.444,34.543z M67.725,41.125l-0.771-1.051c0-0.07-0.069-0.141-0.21-0.28
				c0.07,0.49,0.21,0.91,0.21,1.261c0.21,0.63,0.141,1.33,0.21,1.96c0,0,0.07,0.14,0.141,0.42c0.069-0.21,0.21-0.28,0.21-0.351
				c0-0.209-0.07-0.209-0.07-0.42c-0.07-0.49-0.07-0.49,0.42-0.699C67.935,41.614,67.864,41.334,67.725,41.125z M67.024,29.854
				c0.07,0.35,0.28,0.63,0.7,0.91c-0.21-0.351-0.28-0.771-0.63-1.121C67.024,29.713,67.024,29.783,67.024,29.854z M67.305,24.112
				v-0.14c-0.07,0.07-0.141,0.14-0.141,0.14s0.07,0.07,0.141,0.14V24.112z M67.374,36.154h0.07v-0.07h-0.07V36.154z M67.725,35.804
				c0.069-0.14,0-0.21-0.141-0.28C67.654,35.734,67.725,35.804,67.725,35.804z M67.794,44.625c0.21,1.4,0.351,2.73,0.91,4.061
				C68.494,47.215,68.145,45.814,67.794,44.625z M68.425,40.774c0,0,0.069,0,0.279,0c-0.21-0.351-0.56-0.42-0.84-0.63
				C67.935,40.494,68.215,40.564,68.425,40.774z M68.145,37.764l0.14,0.351c0,0.069,0.07,0.069,0.07,0.28
				c0.07-0.211,0-0.28-0.07-0.28C68.284,37.904,68.215,37.834,68.145,37.764v-0.07c-0.07-0.069-0.07-0.069-0.07-0.069v0.069
				L68.145,37.764z M68.494,32.233c-0.069,0.49-0.069,0.84-0.279,1.33c-0.07,0.07-0.07,0.14-0.07,0.351c0,0,0.07,0.069,0.14,0.14
				c0.21,0.28,0.351,0.63,0.7,0.979C68.774,33.983,68.774,33.073,68.494,32.233z M68.774,36.783c0.07-0.069,0.07-0.069,0-0.069
				v-0.069c0-0.49-0.14-0.98-0.42-1.471c0,0.63,0.14,1.12,0.42,1.4V36.783z M68.494,50.086h-0.069c0,0.209,0.069,0.139,0.069,0.35
				c0.21,0.49,0.28,0.84,0.351,1.33c0.21,0.84,0.49,1.609,0.77,2.45c0.07,0.069,0.07,0.069,0.07,0.069c0.21,0,0.42,0,0.63-0.069
				c0-0.351,0-0.63-0.07-0.841c0-0.069,0-0.14-0.069-0.209c-0.561-0.49-0.771-1.121-1.05-1.75L68.494,50.086z M68.635,42.664
				c-0.07,0.561,0.279,0.771,0.63,1.261C69.194,43.295,68.984,43.015,68.635,42.664z M68.635,41.475l0.91,1.54
				c0,0.069,0.069,0.14,0.069,0.21c0.07,0.07,0.141,0.141,0.21,0.141c0.28,0.139,0.42,0.35,0.42,0.629
				c0,0.771,0.211,1.261,0.211,2.031c0,0.35,0.14,0.77,0.21,1.119c0.35,1.121,0.489,2.24,0.84,3.361
				c0.07,0.069,0.07,0.279,0.07,0.629c0.279,0.211,0.35,0.49,0.84,0.771c-0.141-0.35-0.21-0.7-0.28-1.05
				c-0.49-1.61-0.77-3.08-1.12-4.69l-0.7-3.011c0-0.21-0.07-0.35-0.14-0.42c-0.351-0.279-0.49-0.63-0.7-0.91
				c-0.07-0.14-0.14-0.35-0.35-0.63L68.635,41.475z M70.175,48.125c-0.21-0.279-0.141-0.49-0.21-0.77l-0.84-1.961
				c-0.07-0.21-0.141-0.14-0.211-0.35c0.07,1.33,0.351,2.66,0.841,3.92C70.104,48.686,70.244,48.405,70.175,48.125z M69.755,39.654
				c-0.07-0.561-0.07-1.19-0.351-1.75c-0.21,0.07-0.279,0.14-0.35,0.21c0.07,0.28,0.14,0.42,0.14,0.489
				c0.21,0.631,0.28,1.19,0.351,1.961c0.069,0.35,0.279,0.63,0.489,0.84C69.965,40.844,69.965,40.215,69.755,39.654z M69.614,45.395
				c-0.069,0.211,0,0.35,0.21,0.49C69.824,45.675,69.895,45.465,69.614,45.395z M71.854,57.016c-0.35-0.49-0.7-0.84-1.189-1.05
				l-0.631,0.42c0.07,0.21,0.141,0.351,0.141,0.56C70.805,57.156,71.365,57.156,71.854,57.016z M71.295,52.115
				c0,0.141,0,0.211,0.07,0.28C71.365,52.326,71.295,52.326,71.295,52.115c-0.07-0.21,0-0.279-0.21-0.49
				c-0.07,0.211,0,0.42,0.14,0.561L71.295,52.115z M71.435,52.886l0.07-0.07h-0.07V52.886z M71.995,52.676
				c0.069,0.21,0,0.42,0.21,0.63c0.069,0.351,0,0.7,0.21,1.05c0.069-0.56,0.069-0.56-0.21-1.05
				C72.274,53.025,72.205,52.815,71.995,52.676z M74.375,55.406c-0.14-0.211-0.35-0.42-0.56-0.49c-0.07,0.14,0,0.279,0.14,0.42
				L74.375,55.406z M74.375,56.316c0,0.35,0.07,0.42,0.21,0.35l0.351-0.141c0.14-0.069,0.14-0.209,0-0.35L74.375,56.316z
				 M75.285,55.126c0-0.21,0-0.28-0.07-0.28c-0.069-0.07-0.14-0.07-0.279-0.07l-0.07,0.07c0.07,0.07,0.14,0.141,0.21,0.141
				L75.285,55.126z M75.285,39.444c0.21,0.56,0.21,1.05,0.28,1.61c0,0.279,0.14,0.56,0.14,0.84c0.07,0.63,0.351,1.189,0.63,1.75
				c0.07,0.07,0.07,0.07,0.141,0.07c0.14-0.07,0.21-0.211,0.21-0.49c0-0.63-0.07-1.26-0.141-1.891c-0.42-0.35-0.699-0.84-0.84-1.47
				c0-0.28-0.14-0.49-0.21-0.771C75.355,39.164,75.285,39.234,75.285,39.444z M75.285,57.156c0.42,0.07,0.771,0.07,1.12,0
				c0.49-0.771,1.05-1.4,1.26-2.311c-0.77-0.07-0.63-0.07-1.12,0c0,0.07,0.07,0.21,0.07,0.28c0.21,0.42,0.07,0.7-0.28,0.91
				c-0.279,0.069-0.489,0.14-0.56,0.14L75.285,57.156z M76.825,39.094c0.07,0.49,0.21,0.771,0.28,1.261c0,0,0.07,0.069,0.14,0.14
				c0.21-0.21,0.141-0.49,0.141-0.7c0-0.14-0.07-0.28-0.141-0.489v-0.07c-0.21-0.141-0.28-0.35-0.28-0.7
				c0-0.28-0.069-0.56-0.069-0.841c0-0.56-0.28-0.979-0.771-1.47c-0.21,0.28-0.069,0.49-0.279,0.771
				C76.476,37.554,76.615,38.324,76.825,39.094z M75.985,38.184v-0.069h-0.07v0.069H75.985z M76.335,44.414
				c-0.069-0.069-0.069-0.069-0.14-0.069s-0.07,0-0.07,0.069c-0.069,0.07-0.069,0.211,0.141,0.351
				C76.266,44.555,76.335,44.625,76.335,44.414z M78.506,33.283c-0.21,0.07-0.42,0.211-0.49,0.49c-0.351,0.49-0.84,0.77-1.4,0.84
				c-0.07,0.07-0.14,0.07-0.35,0.141c0.14,0.35,0.35,0.56,0.63,0.699c0.63-0.56,0.63-0.56,1.26-0.56
				c0.21-0.351,0.28-0.84,0.351-1.19V33.283z M77.245,30.553c-0.35,0.771-0.63,2.101-0.63,2.73c0.35-0.35,0.771-0.49,1.12-0.98
				c-0.14-0.139-0.28-0.42-0.35-0.77L77.245,30.553z M77.176,41.614h0.069v-0.351h-0.069V41.614z M77.945,36.014
				c0.07-0.21,0-0.21,0-0.42c0-0.07-0.07-0.141-0.21-0.141c-0.07,0-0.14,0-0.21,0.07c-0.21,0.28-0.21,0.631-0.14,1.051
				c0.069,0.209,0.14,0.14,0.35,0.35C77.875,36.504,77.945,36.224,77.945,36.014z M78.155,30.973l-0.21-0.979l-0.21-0.28
				c-0.07,0.771,0,1.471,0.351,2.101C78.155,31.533,78.365,31.254,78.155,30.973z M78.365,27.123c-0.21-0.21-0.14-0.49-0.35-0.7
				c-0.21,0.771-0.351,1.399-0.28,1.89C77.945,27.822,77.875,27.333,78.365,27.123z M78.155,37.834v0.07v0.14
				c0.07-0.069,0.07-0.069,0.07-0.069C78.226,37.904,78.226,37.904,78.155,37.834z M78.995,27.123c0.21-0.49,0.21-0.771,0-1.82
				c-0.069-0.28-0.14-0.63-0.42-0.84c-0.21,0.42-0.279,0.77-0.14,1.119l0.28,0.98L78.995,27.123z M78.575,23.692l0.49,0.49
				l0.28,0.56c0.07,0.211,0.07,0.351,0.28,0.701c0.069-0.421,0.069-0.701,0-0.91c-0.28-0.561-0.351-1.121-0.561-1.681v-0.49
				c0-0.21,0.14-0.351,0.351-0.351c0.069-0.069,0.21,0,0.35,0.141l0.28,0.63l0.21,1.47c0,0.141,0.07,0.211,0.14,0.211
				c0.21-0.771,0.28-1.541,0.141-2.311c-0.49-0.21-0.771-0.42-0.841-0.77c-0.069-0.211-0.14-0.49-0.35-0.841
				c0-0.069,0-0.14-0.07-0.21c-0.07,0.07-0.14,0.141-0.14,0.141L78.575,23.692z M80.396,18.232c0-0.211-0.069-0.49-0.069-0.701
				c0-0.35,0-0.279,0.21-0.77c-0.21-0.35-0.141-0.63-0.421-1.12l-0.21,0.841c-0.069,0.56-0.14,1.119-0.35,1.68l-0.07,0.42
				c0.351,0.21,0.63,0.21,0.98,0.42C80.466,18.652,80.466,18.372,80.396,18.232z M80.466,20.192c-0.21-0.49-0.351-0.841-0.561-0.98
				c-0.14,0.07-0.21,0.14-0.21,0.28c0.07,0.63,0.28,1.26,0.7,1.891C80.676,20.893,80.536,20.542,80.466,20.192z M79.976,28.104
				c0-0.07,0-0.07-0.07-0.07c-0.069,0-0.069,0-0.069,0.07c-0.141,0.14-0.141,0.35,0,0.56C79.905,28.453,79.976,28.313,79.976,28.104
				z M80.536,25.443c0.069-0.07,0-0.07-0.07-0.07h-0.14c-0.07,0.07-0.07,0.209-0.07,0.35c-0.07,0.28,0,0.42,0,0.91
				C80.536,26.143,80.536,25.793,80.536,25.443z M80.956,16.062c0.21-0.35,0.21-0.7,0-0.979
				C80.746,15.432,80.886,15.712,80.956,16.062z M81.096,19.563h0.14c0-0.211-0.069-0.211-0.069-0.42h-0.07V19.563z M81.235,22.643
				c0.28-0.35,0.421-0.91,0.421-1.82c-0.211,0-0.211-0.07-0.421-0.141C81.166,21.383,81.166,22.012,81.235,22.643z M81.235,19.982
				v0.07v0.069c0-0.069,0-0.069,0.07-0.069L81.235,19.982z M82.006,19.422c0.07-0.77,0.21-1.33,0.28-1.891
				c0-0.629,0.21-1.189,0.21-1.75c0.07-0.56,0.35-1.05,0.28-1.82c-0.561,0.07-0.841,0.351-1.331,0.631
				c0.28,0.49,0.28,0.49,0.771,0.699c0.14,0.07,0.21,0.211,0.14,0.421c-0.069,0.35,0,0.7-0.21,0.979
				c-0.279,0.631-0.279,1.261-0.35,1.891c-0.07,0.21,0,0.42,0,0.63L82.006,19.422z"/>
			<path fill="#FFFFFF" d="M90.894,48.545c0-0.84-0.07-1.68-0.07-2.45l-0.21-1.82c0-0.21,0-0.35-0.07-0.42
				c-0.069-1.33-0.14-2.591-0.069-3.921c0-1.049-0.07-2.1-0.21-3.15c-0.07-0.279-0.07-0.699-0.07-0.979c-0.07-1.05,0-1.96,0-3.011
				l-0.141-1.119c-0.069-0.771-0.069-1.541,0-2.311l0.141-2.17c0.21-1.75,0.07-3.431,0.14-5.182v-0.699v-1.19l0.141-2.45
				c0-0.77,0.069-1.33,0.069-2.1c0-0.211,0.07-0.351,0.28-0.49c0.49-0.28,0.84-0.631,1.33-0.91c0.28-0.211,0.63-0.42,0.84-0.771
				c0.351-0.49,0.841-0.7,1.471-0.49c0.7,0.07,1.399,0.07,2.1,0c0.49-0.069,0.771-0.069,1.261-0.069c0.279,0,0.42,0.209,0.49,0.56
				c0,0.56-0.07,1.12,0.14,1.75c0.21,0.91,0.07,1.891,0,2.801c0,0.489-0.07,0.84,0.14,1.33c0.21,0.489,0.28,1.05,0.351,1.61
				c0.069,0.49,0.14,1.05,0.14,1.54l0.141,1.19c0,0.56,0,1.119,0.069,1.68c0,0.77,0.07,1.4,0,2.17c0,0.49,0.07,0.91,0.141,1.4
				c0,0.91,0,1.75-0.07,2.59c-0.07,1.051,0,1.891,0.07,2.941c0.21,1.399,0.069,2.729,0.279,4.13c0.21,1.61,0,3.15,0.07,4.761
				c0.07,1.119,0.14,2.311,0.14,3.5c0,0.63,0.141,1.26,0.21,1.891c0.07,0.14,0.07,0.279,0.07,0.49c0,0.77,0.14,1.26,0.14,2.029
				c-0.069,0.84,0,1.75-0.21,2.66c-0.14,0.49-0.489,0.98-0.979,1.471l-0.42,0.42c-0.21,0.35-0.561,0.49-1.051,0.49
				c-0.35,0-0.699,0-1.189-0.07c-0.561-0.07-1.19,0-1.75,0.07c-0.49,0-0.771,0.07-1.121,0.14c-0.77,0.21-1.33,0-1.96-0.069
				c-0.21,0-0.28-0.141-0.35-0.351v-0.28l-0.28-3.57l-0.21-3.57H90.894z M90.894,32.023c0.21-0.63-0.07-1.33,0.42-1.891
				c-0.21-0.35-0.28-0.63-0.351-0.91C90.684,30.833,90.684,31.533,90.894,32.023z M91.033,27.333h0.07v-0.28h-0.07V27.333z
				 M91.383,22.713l-0.21-0.28c-0.21,0.28,0,0.489,0.07,0.7c0.07,0,0.21,0.07,0.28,0.14L91.383,22.713z M93.273,24.463h0.14
				l-0.14-0.351l-0.28-0.56l-1.47-3.291l-0.351-0.42c-0.069,0.07-0.069,0.07-0.069,0.141c0,0.77,0.279,1.33,0.56,1.96
				c0.21,0.49,0.351,1.05,0.841,1.33c0,0.069,0,0.069,0.069,0.14L93.273,24.463z M91.243,38.395c0-0.07-0.07-0.07-0.07-0.141
				l-0.069,0.07c0.069,0.07,0.069,0.07,0.069,0.07H91.243z M91.173,40.844h0.07c0.21-0.209,0.21-0.35-0.14-0.629
				C91.104,40.494,91.173,40.635,91.173,40.844z M91.313,15.992c0.069-0.07,0.21-0.07,0.35-0.07c0.21,0,0.21,0.07,0.42,0.14
				c-0.21-0.35-0.069-0.63-0.279-0.84C91.173,15.502,91.104,15.502,91.313,15.992z M92.153,33.914c0.07-0.07,0.07-0.07,0.07-0.07
				c0-0.771-0.141-1.541-0.351-2.311c0-0.07-0.14-0.21-0.35-0.35c0.21,0.91,0,1.75,0.21,2.59c0,0,0.07,0.07,0.28,0.141H92.153z
				 M92.014,27.684l0.14-0.141c-0.07-0.35-0.21-0.7-0.28-1.19c-0.069-0.069-0.069-0.21-0.279-0.21
				C91.523,26.703,91.733,27.193,92.014,27.684z M91.804,54.426c0.069,0.49,0,0.77,0.21,1.26c0.35,0.07,0.63,0.28,0.979,0.07
				c-0.279-0.91-0.84-1.61-1.189-2.45C91.594,53.796,91.804,54.076,91.804,54.426z M92.293,40.844c-0.21-0.35-0.21-0.699-0.56-0.979
				C91.943,40.635,91.943,40.564,92.293,40.844z M91.943,18.372l0.21,0.28c0.21-0.49,0.28-0.91,0.21-1.33
				c-0.07-0.28-0.28-0.42-0.49-0.42C91.663,17.462,91.873,17.882,91.943,18.372z M92.224,51.766l-0.28-0.84
				c-0.21,0.49,0.07,0.699,0.07,1.189C92.153,51.905,92.224,51.836,92.224,51.766z M92.014,29.783c0.21-0.07,0.21-0.21,0-0.28
				C91.943,29.573,91.943,29.643,92.014,29.783z M92.014,35.104c0,0.21,0.069,0.42,0.14,0.631
				C92.224,35.453,92.224,35.244,92.014,35.104z M92.083,38.254c0,0.21,0.07,0.28,0.141,0.28c0.069-0.28,0.069-0.49-0.141-0.63
				V38.254z M92.083,47.145l0.21,1.541c0,0.35,0.07,0.63,0.211,0.91c0.35,0.629,0.56,1.399,0.699,2.31
				c0.07,0.21,0.07,0.351,0.351,0.56c-0.21-1.33-0.141-2.59-0.351-3.92c-0.21-0.07-0.35-0.21-0.42-0.561
				c-0.069-0.489-0.21-0.84-0.42-1.33c0-0.069-0.07-0.14-0.14-0.209C92.153,46.585,92.083,46.795,92.083,47.145z M92.293,42.385
				c0,0.56,0.351,0.91,0.561,1.26C92.783,43.295,92.644,42.875,92.293,42.385z M92.573,19.143c0.21,0.35,0.351,0.629,0.7,0.84
				c0.07-0.211,0.07-0.351,0.07-0.561L92.573,19.143z M92.714,45.185l0.14,0.49c0.14-0.21,0.14-0.351,0-0.49H92.714z M92.854,39.654
				c-0.21,0.35-0.14,0.63,0.07,0.84l0.42,0.49c0.069,0.21,0.14,0.35,0.35,0.561c0.07-0.211,0.07-0.42,0-0.561
				c-0.28-0.35-0.49-0.77-0.63-1.12L92.854,39.654z M92.854,36.924c-0.07,0.77-0.14,0.77,0.35,1.051c0-0.211-0.069-0.561-0.14-0.91
				L92.854,36.924z M92.993,28.943c-0.069,0.49-0.279,0.84,0,1.189C93.134,29.993,93.134,29.573,92.993,28.943z M93.063,15.712
				c0,0-0.07-0.07-0.21-0.21c0,0.56,0,0.56,0.28,0.84C93.063,16.201,93.063,15.992,93.063,15.712z M93.273,21.522
				c0-0.421-0.14-0.771-0.42-0.98C92.924,20.893,92.924,21.242,93.273,21.522z M93.344,31.394c0-0.21-0.141-0.21-0.42-0.14
				c0,0.91,0.069,1.68,0.279,2.38C93.483,32.863,93.413,32.164,93.344,31.394z M92.993,14.381c0,0,0.07,0.07,0.141,0.141
				c0.069,0,0.069-0.07,0.069-0.141c0-0.069,0-0.139-0.069-0.209C93.063,14.242,92.993,14.312,92.993,14.381z M93.203,26.982
				c0.07,0.07,0.07,0.28,0.07,0.49h0.07c0-0.35,0-0.56-0.07-1.05C92.993,26.703,93.203,26.773,93.203,26.982z M93.554,34.894v-0.21
				c-0.07-0.07-0.141-0.141-0.141-0.141c-0.069,0-0.14,0.07-0.21,0.141c0,0.49,0.21,0.84,0.28,1.33
				C93.554,35.664,93.554,35.244,93.554,34.894z M93.764,54.636c0.07,0,0.28-0.069,0.56-0.14c-0.279-0.28-0.279-0.631-0.63-0.98
				C93.623,54.006,93.693,54.355,93.764,54.636z M93.974,45.185c-0.07,0-0.21,0-0.28,0.07c0,0.14,0.07,0.28,0.141,0.351
				c0,0.069,0.069,0.209,0.14,0.279C94.113,45.675,94.113,45.395,93.974,45.185z M94.184,47.495c-0.21,0.069-0.35,0.14-0.35,0.21
				c0.21,0.35,0.14,0.77,0.35,1.12c0,0.069,0,0.069,0.07,0.069C94.323,48.405,94.184,47.984,94.184,47.495z M93.974,17.252
				c0,0.561,0.07,1.12,0.07,1.75c0,1.12-0.07,2.24,0,3.291c0,0.489,0,0.84,0.069,1.189v0.98c0,1.119,0,2.17-0.069,3.221v2.869
				c0,0.91,0,1.891,0.069,2.801c0.07,0.91,0.07,1.75,0.07,2.66v1.54c0.07,0.63,0.14,1.261,0.14,1.82l0.141,1.751v2.31l0.28,2.521
				l0.14,2.45c0,0.771,0.07,1.33,0.14,2.101c0.07,0.84,0.21,1.68,0.21,2.52c0,0.28,0.07,0.49,0.21,0.631
				c0.28,0.069,0.49,0.14,0.7,0.14l3.15-0.14c0.141-0.211,0.21-0.49,0.21-0.841c0-0.28,0.07-0.63,0.07-0.91
				c-0.07-1.05,0.07-1.89-0.14-2.94c-0.07-0.91-0.141-1.75-0.141-2.8c-0.069-0.91-0.069-1.82-0.069-2.87
				c-0.07-0.49-0.07-0.98-0.07-1.471v-2.87c-0.07-1.681-0.28-3.29-0.351-4.9c-0.069-0.841-0.069-1.681,0-2.591v-2.029
				c0-0.49-0.069-0.841-0.069-1.33c-0.07-0.701-0.07-1.4,0-2.101c0-1.19-0.07-2.38-0.28-3.501c-0.07-1.189-0.351-2.24-0.561-3.359
				c-0.069-0.49-0.14-0.91-0.069-1.121c0.21-1.189,0.069-2.38,0-3.5l-0.141-0.49c-0.069-0.49-0.14-0.56-0.699-0.56
				c-0.49,0.069-0.841,0.14-1.121,0.14c-0.21,0-0.35,0-0.35,0c-0.49-0.07-0.98,0-1.61,0.07
				C93.974,15.012,93.903,16.062,93.974,17.252z M93.974,50.365c-0.07,0.77,0,1.26,0.07,1.891c0,0.279,0.14,0.42,0.42,0.49
				C94.674,51.976,94.464,50.926,93.974,50.365z M94.604,55.336c-0.07-0.07-0.14-0.141-0.21-0.141s-0.07,0-0.07,0
				c0,0.07,0.07,0.07,0.07,0.28L94.604,55.336z M95.374,54.496v-0.07c-0.07,0.07-0.07,0.07-0.07,0.07H95.374z M98.104,55.476
				c-0.489-0.489-0.699,0-1.189,0C97.404,55.476,97.614,55.686,98.104,55.476z M98.104,54.355c0.49,0.631,0.49,0.631,0.98,0.07
				C98.734,54.426,98.384,54.355,98.104,54.355z"/>
			<path fill="#FFFFFF" d="M118.055,56.036c-0.21-0.771-0.21-1.47-0.279-2.24l-0.141-0.841c-0.21-1.05-0.28-1.96-0.35-3.01
				c0-0.21-0.07-0.35-0.07-0.561l-0.7-6.301l-0.14-1.609l-0.42-2.73c0-0.07,0-0.141-0.07-0.21c-0.561,0-1.12,0.21-1.75,0.28
				c-0.561,0.07-1.19,0.07-1.75,0.07l-0.141,0.139c-0.07,0.841-0.28,1.681-0.28,2.591c0.07,0.56,0,1.19-0.069,1.82
				c-0.21,1.05-0.141,2.101-0.351,3.15c-0.21,1.89-0.069,3.851-0.14,5.741c-0.07,0.56,0.07,1.189-0.14,1.819
				c-0.49,0.21-0.841,0.49-0.98,0.841c-0.351,0.209-0.63,0.489-0.91,0.77l-0.42,0.35c-0.21,0.28-0.49,0.42-0.98,0.351
				c-0.21-0.21-0.56,0-0.84,0h-0.91c-0.21,0-0.21-0.07-0.42-0.07c-0.84,0.07-1.681-0.14-2.521-0.35c-0.07,0-0.21,0-0.28-0.07
				c-0.21-0.069-0.279-0.21-0.21-0.351c0.21-1.609,0.141-3.08,0.351-4.689v-1.121c0.069-0.77,0-1.399,0.21-2.17
				c0.21-1.609,0.28-3.15,0.49-4.76c0.21-1.051,0.14-1.891,0.14-2.941l0.28-3.289l0.28-3.711c0.069-0.21,0.069-0.561,0.069-0.98
				c0.07-0.49,0.07-0.91,0.07-1.4s-0.07-0.77,0.14-1.26v-0.21c0.21-1.33,0.21-2.38,0.42-3.71v-1.19l0.141-2.101
				c0-0.49,0.14-0.699-0.07-1.189c-0.07-0.07,0-0.211,0.07-0.42c0-0.211,0.14-0.351,0.14-0.561c0-0.49,0.07-1.051,0.141-1.54
				c0.069-0.771,0.069-1.47,0.279-2.24c0.21-0.63,0.28-1.19,0.351-1.82c0.069-0.351,0.21-0.56,0.42-0.7
				c0.35-0.21,0.7-0.561,0.979-0.84c0.141-0.21,0.421-0.35,0.91-0.561c0.211-0.07,0.211,0,0.421-0.209
				c0.489-0.421,0.979-0.631,1.609-0.631l1.751-0.279h0.84c0.07-0.07,0.21-0.07,0.42-0.07l2.311,0.21h0.979
				c1.12,0.21,2.24,0.14,3.36,0.42c0.28,0.069,0.42,0.28,0.42,0.489c0.21,1.681,0.631,3.291,0.98,4.901l0.98,4.13
				c0.21,0.84,0.279,1.681,0.489,2.521c0.21,0.771,0.21,1.4,0.421,2.171c0.069,0.279,0.14,0.42,0.14,0.489
				c0,0.91,0.21,1.751,0.28,2.591c0.21,1.4,0.14,2.8,0.21,4.13l0.28,3.221c0.069,0.28,0.069,0.63,0.069,0.91l0.21,1.399
				c0.21,1.471,0.28,3.011,0.28,4.48c0,0.771,0.14,1.4,0.21,2.171v1.47c0,0.561,0,1.121,0.07,1.681c0,0.56,0.069,1.05,0.14,1.61
				c0.21,0.979,0.28,2.029,0.21,3.08c0,0.561-0.21,1.05-0.63,1.54l-1.61,1.75l-0.63,0.56c-0.07,0.07-0.21,0.141-0.35,0.141
				c-0.771,0-1.261,0.141-2.03,0.07l-1.33-0.141c-0.28,0-0.561-0.07-0.91-0.14C118.125,56.525,118.055,56.316,118.055,56.036z
				 M105.384,55.756c-0.351-0.49-0.7-0.63-0.98-1.12c-0.35-0.351-0.56-0.7-0.77-1.19c-0.21,0.49-0.21,0.84-0.141,1.961
				C104.123,55.615,104.613,55.756,105.384,55.756z M103.913,48.615c0.21-0.21,0.07-0.42,0-0.631
				C103.913,48.195,103.703,48.405,103.913,48.615z M106.084,52.186c-0.561,0-0.631,0-0.841-0.35c0-0.07-0.069-0.211-0.069-0.28
				c-0.351-0.561-0.561-1.261-0.771-1.891l-0.21-0.42c-0.14,0.28-0.21,0.49-0.21,0.56c0.07,0.631-0.07,1.33,0.28,1.961
				c0.56-0.141,0.979,0.14,1.189,0.91c0,0.21,0,0.279,0.07,0.35c0.141,0.35,0.351,0.49,0.561,0.49V52.186z M104.474,52.815h0.28
				l0.069-0.14c-0.069-0.28-0.279-0.42-0.489-0.42L104.474,52.815z M104.544,43.015c0,0.069,0,0.069,0.069,0
				c0.07-0.07,0.07-0.21,0-0.42C104.544,42.805,104.334,42.805,104.544,43.015z M105.174,46.025v-0.07v-0.42l-0.21-1.261
				l-0.141-0.14c-0.14,0.561-0.21,0.98-0.14,1.189l0.14,0.49c0.07,0.07,0.141,0.141,0.351,0.141V46.025z M105.664,34.613
				c-0.07-0.49-0.211-0.77-0.28-1.119l-0.28-0.281c0.07,0.631,0,1.191,0.49,1.541C105.664,34.684,105.664,34.613,105.664,34.613z
				 M105.243,36.224c-0.14,0.49-0.069,0.91,0.141,1.33c0.14,0.14,0.21,0.21,0.28,0.14L105.243,36.224z M105.174,54.146
				c0.35,0.49,0.35,0.421,0.63,0.49c0.07-0.21-0.07-0.49-0.351-0.7L105.174,54.146z M106.084,50.295l0.279-4.76l-0.56,0.14
				c0,0.771,0,0.7-0.561,0.979c0.07,0.07,0,0.141,0.07,0.211c0.21,0.63,0.21,1.189,0.28,1.82c0,0.209,0,0.279,0,0.279
				L106.084,50.295z M105.453,30.273c-0.279,0.63-0.21,1.189,0,1.75c0.07,0.35,0.49,0.35,0.771,0.63
				C106.014,31.674,105.733,30.903,105.453,30.273z M106.294,37.484v-0.141c-0.07-0.77-0.28-1.4-0.63-1.75
				c0.21,0.63,0.279,1.189,0.489,1.68c0,0.07,0.07,0.07,0.141,0.07V37.484z M105.943,44.345c0.21-0.56,0.07-1.75-0.21-2.8
				C105.733,42.455,105.594,43.295,105.943,44.345z M106.224,33.703c0-0.209-0.14-0.42-0.49-0.63c0.28,0.841,0.28,1.47,0.771,2.24
				C106.714,34.684,106.434,34.193,106.224,33.703z M105.804,38.114h-0.07v0.069L105.804,38.114z M105.943,27.402
				c-0.279,0.841-0.21,1.471,0,2.24c0,0.141,0.07,0.281,0.28,0.49c0.351,0.351,0.561,0.7,0.771,1.19c0.279,0.63,0.42,1.33,0.63,1.96
				c0-0.49,0.069-0.98,0.14-1.54c-0.35-0.21-0.35-0.42-0.56-0.771c-0.07-0.209-0.07-0.279-0.28-0.489
				c-0.07-0.14-0.21-0.351-0.28-0.63c-0.21-0.561-0.14-1.121-0.49-1.61c-0.069-0.07-0.069-0.14-0.069-0.28L105.943,27.402z
				 M106.854,34.123c0.07,0.771,0.21,1.33,0.21,1.961c0.07,0.35,0.141,0.699-0.14,0.98c-0.07,0.069-0.07,0.14-0.07,0.35v0.561
				c0.07,0.279,0.07,0.56,0,0.84c-0.069,0.209-0.21,0.279-0.49,0.209c-0.069,0-0.14-0.069-0.35-0.139
				c0.21,1.049,0.561,1.959,0.35,3.01c-0.069,0.49,0,0.91,0,1.4c0.07,0.07,0,0.209,0.211,0.209c0.35-3.289,0.489-6.439,0.979-9.59
				L106.854,34.123z M106.084,21.172c-0.07,0.28,0,0.49,0.21,0.631C106.574,21.313,106.574,21.383,106.084,21.172z M106.363,18.441
				c-0.069,0.07-0.069,0.07-0.069,0.07v0.141c0.069-0.07,0.069-0.07,0.069-0.07V18.441z M106.294,19.422
				c0.069,0.561,0.7,1.61,1.05,2.101c0.35,0.489,0.771,0.771,0.98,1.26c0,0,0.069,0,0.14,0c0-0.21,0.07-0.35,0.07-0.56l-0.63-0.84
				c-0.211-0.281-0.351-0.561-0.421-0.841c-0.21-0.56-0.63-0.91-1.12-1.26L106.294,19.422z M106.294,31.184
				c0.069,0,0.069,0,0.069-0.07c0,0.07,0,0.07-0.069,0.141l0.42,1.049c0.07-0.35,0-0.699-0.21-0.979c0-0.069-0.07-0.069-0.141-0.069
				L106.294,31.184z M106.644,54.355c-0.069-0.07-0.14-0.07-0.28-0.07v0.49c0,0.351,0.141,0.49,0.49,0.561
				c0.21,0.07,0.49,0.07,0.7-0.07L106.644,54.355z M124.706,53.516c0.21,0,0.279-0.07,0.279-0.28v-0.21
				c0-0.84,0.141-1.609-0.069-2.38c-0.21-1.4-0.28-2.8-0.21-4.271c0-0.49-0.07-0.77-0.07-1.26l-0.21-2.73c0-0.28,0-0.49-0.07-0.7
				l-0.21-2.521l-0.14-2.311c-0.21-1.05-0.21-1.89-0.28-2.939c0-1.33-0.07-2.451-0.14-3.781c0-0.209,0-0.42-0.07-0.56l-0.63-4.341
				l-0.42-2.311c-0.21-1.05-0.49-1.89-0.7-2.939l-0.841-3.57l-0.56-2.801c-0.07-0.35-0.14-0.7-0.14-0.91
				c-0.07-0.35-0.28-0.561-0.561-0.63l-2.24-0.28c-0.771,0-1.54,0-2.38-0.07c-1.61-0.14-3.15-0.069-4.551,0.281l-0.42,0.139
				c0,0.211,0,0.421-0.07,0.561c-0.14,0.98-0.21,1.961-0.21,2.871c-0.07,0.209-0.07,0.489-0.07,0.84
				c-0.21,1.33-0.279,2.59-0.35,3.92c-0.21,1.33-0.14,2.45-0.35,3.78v0.21l-0.21,1.82c-0.211,1.33-0.211,2.45-0.28,3.641
				c-0.21,1.33-0.141,2.66-0.351,3.99c0,0.49-0.069,0.84-0.14,1.33l-0.21,1.961l-0.21,2.24c-0.07,1.05-0.351,1.82-0.28,2.869v0.281
				c-0.07,0.489-0.14,0.699-0.14,1.189l-0.141,1.051c-0.069,1.049-0.279,2.029-0.279,3.08c0.069,0.49,0,0.77,0,1.26
				c-0.07,0.49-0.07,0.7-0.07,1.189c-0.07,0.49,0,0.771,0,1.261c-0.07,0.771-0.07,1.4,0.07,2.03c0.279,0.07,0.63,0.21,1.12,0.28
				c0.35,0.069,0.77,0.069,1.12,0.069l1.26-0.14c0.21-0.069,0.35-0.21,0.42-0.49v-0.84l0.14-4.48l0.211-2.87
				c0.21-1.4,0.35-2.73,0.35-4.131c0-0.279,0.07-0.56,0.07-0.84c0-0.21,0.069-0.42,0.069-0.7c0.07-1.12,0.141-2.24,0.141-3.36v-0.14
				c0.069-0.28,0.21-0.421,0.489-0.49c0.211,0,0.421-0.07,0.631-0.07c0.84-0.35,1.68-0.489,2.45-0.56l0.979-0.141
				c0.771-0.209,1.261-0.209,2.03-0.42c0.42-0.07,0.63,0.07,0.7,0.42c0.28,1.33,0.561,2.381,0.771,3.711c0,0.21,0,0.42,0.069,0.561
				l0.28,3.289c0.21,1.051,0.351,1.961,0.351,3.011c-0.07,0.56,0,1.05,0.069,1.54c0.07,1.051,0.07,2.17,0.28,3.221
				c0.21,0.84,0.21,1.75,0.28,2.59c0.069,0.351,0.14,0.631,0.14,0.84C122.535,53.586,123.586,53.445,124.706,53.516z
				 M106.854,25.582c0.07-0.209,0.07-0.42,0.07-0.77v-0.14c0-0.14-0.07-0.21-0.21-0.21c-0.07,0.35-0.07,0.699,0.07,1.189
				C106.854,25.582,106.854,25.582,106.854,25.582z M106.854,22.152v0.141l0.07-0.07L106.854,22.152z M106.854,32.724v0.069V32.724z
				 M108.044,17.531l-0.21-0.489c-0.141-0.351-0.351-0.63-0.63-0.91c-0.07,0-0.07-0.07-0.28-0.07c0.35,1.12,1.19,2.521,1.96,3.011
				c0-0.28,0.07-0.49,0.07-0.7C108.394,18.092,108.254,18.021,108.044,17.531z M107.063,18.092c0.141,0.84,0.49,1.4,0.98,1.75
				C107.834,19.212,107.624,18.582,107.063,18.092z M107.204,27.893c-0.07,0.211,0,0.351,0.14,0.42L107.204,27.893z M107.414,13.961
				v-0.069c0-0.07,0-0.07-0.07-0.07c0,0.07,0,0.07-0.07,0.07C107.344,13.892,107.344,13.961,107.414,13.961z M107.344,26.773
				c-0.07-0.07-0.07-0.07-0.07-0.07c0,0.07,0,0.07,0.07,0.14V26.773z M108.954,16.552c-0.49-0.28-0.42-0.28-0.7-0.84
				c-0.21-0.28-0.35-0.49-0.561-0.561v0.351c0.49,0.63,0.7,1.26,1.331,2.029C109.024,17.042,109.024,16.762,108.954,16.552z
				 M107.834,29.223c0.07,0,0.14,0,0.14-0.069c0.21-1.331,0.141-2.661,0.351-3.991c0.069-0.35,0-0.629,0-1.119
				c-0.07,0-0.141-0.07-0.351-0.07c0.07,0.35,0.141,0.63,0.141,0.84c0.069,0.35,0.069,0.561-0.141,0.7
				c-0.14,0.14-0.21,0.351-0.21,0.63v1.68c0,0.141,0,0.281,0.07,0.351c0.07,0.21,0.07,0.42,0,0.63V29.223z M108.184,55.686h-0.069
				c0,0.07,0,0.07,0.069,0.07V55.686z M108.464,14.592v-0.07c-0.07,0.07-0.07,0.07-0.07,0.07v0.14c0.07,0.21,0.21,0.351,0.28,0.49
				c0.07,0.21,0.21,0.28,0.351,0.28c0.14-0.211,0.14-0.42,0.069-0.7c-0.21,0-0.49-0.07-0.7-0.07
				C108.394,14.662,108.464,14.662,108.464,14.592z M108.954,13.611h-0.07c-0.069,0-0.069,0.07-0.069,0.141
				c0.069,0.069,0.069,0,0.279,0.209C109.024,13.752,108.954,13.682,108.954,13.611z M108.884,54.426
				c0.07,0.279,0.141,0.49,0.21,0.561c0.28-0.141,0.49-0.281,0.561-0.49c-0.21,0-0.141-0.07-0.21-0.07H108.884z M109.374,12.562
				h-0.14v0.14c0,0.07,0,0.07,0.069,0.07C109.304,12.701,109.374,12.631,109.374,12.562z M116.935,17.182
				c0.141,0.42,0.21,0.771,0.21,1.12c0.21,1.33,0.28,2.45,0.561,3.641l0.14,0.56c0.07,1.121,0.21,2.171,0.42,3.291l0.28,2.8
				c0.07,0.49,0.21,0.7,0.28,1.19c0.069,0.35-0.07,0.63-0.42,0.7c-0.351,0.069-0.7,0.069-0.98,0.069c-0.63,0.07-1.26,0.07-1.82,0.07
				l-2.66,0.141c-0.35,0-0.56-0.07-0.771-0.141c-0.21-0.279-0.069-0.561-0.069-0.84c0.21-0.91,0.21-1.75,0.14-2.59
				c0-0.49,0.07-0.841,0.07-1.33c0-0.631,0-1.261,0.07-1.891l0.279-4.061c0.07-0.84,0.141-1.68,0.351-2.521
				c0-0.28,0.069-0.56,0.069-0.771c0-0.209,0.141-0.35,0.351-0.42C114.555,16.691,115.814,16.691,116.935,17.182z M112.454,37.414
				c0,0-0.069-0.07-0.14-0.141v0.841c0.21,0.069,0.42,0.069,0.63,0C112.734,37.904,112.664,37.624,112.454,37.414z M112.664,36.014
				c-0.21,0-0.279,0.07-0.279,0.141c0,0.209,0.14,0.14,0.35,0.209c0.07,0,0.14-0.069,0.21-0.069
				C112.874,36.084,112.805,35.943,112.664,36.014z M112.734,30.063c1.05,0.07,1.96-0.069,2.87-0.069c0.21,0,0.28-0.14,0.28-0.351
				v-0.279c-0.07-0.771-0.21-1.471-0.21-2.24c-0.21-1.61-0.14-3.08-0.351-4.551c0-0.49-0.14-0.98-0.35-1.33
				c-0.561,0.07-1.19-0.07-1.82-0.07c-0.07,1.051-0.14,1.891-0.14,2.94c-0.07,1.4-0.141,2.73-0.141,4.131L112.734,30.063z
				 M114.135,19.632l-0.07,0.07l-0.28,0.28c-0.21,0.21-0.35,0.14-0.56,0.21c0.07,0.21,0.14,0.28,0.14,0.28
				c0.21,0.14,0.49,0.14,0.7,0.069c0.07-0.35,0.14-0.63,0.14-0.771C114.204,19.702,114.204,19.702,114.135,19.632z M113.364,37.344
				v-0.14c-0.069,0.069-0.069,0.069-0.069,0.14v0.07L113.364,37.344z M113.715,17.042c-0.07,0.28-0.28,0.56-0.07,0.84
				c0.42-0.14,0.84-0.14,1.19,0.07c0.21,0.21,0.279,0.069,0.489-0.14C114.975,17.182,114.484,16.972,113.715,17.042z
				 M114.484,37.273c0.21-0.629-0.21-1.119-0.42-1.68c-0.21,0.07-0.28,0.07-0.35,0.141
				C113.994,36.924,113.994,37.064,114.484,37.273z M114.274,18.792c0.07,0,0.07,0,0.07-0.069c0.069-0.211,0.069-0.281-0.141-0.281
				c-0.069,0-0.069,0.07-0.14,0.07h-0.07c-0.069,0.07,0,0.141,0.141,0.28H114.274z M116.795,35.244c-0.63-0.07-1.26,0-1.82,0.209
				c-0.07,0.771-0.07,0.841,0.42,1.121c0.07-0.28,0.28-0.49,0.49-0.631c0.28-0.14,0.49-0.069,0.63,0.211
				c0,0.069,0.07,0.209,0.07,0.279c0.21,0.211,0.42,0.42,0.7,0.561C117.354,36.224,117.005,35.804,116.795,35.244z M114.975,37.834
				c0,0.07,0,0.141,0.07,0.141c0.069,0.069,0.21-0.07,0.21-0.141c0,0-0.07-0.07-0.141-0.141
				C115.045,37.764,114.975,37.834,114.975,37.834z M115.395,18.582h-0.14c0,0.07,0,0.141,0.069,0.141c0,0,0.07,0,0.141,0
				C115.395,18.652,115.395,18.582,115.395,18.582z M115.535,19.422l-0.141,0.141l0.07,0.069c0.07,0,0.14,0,0.14-0.069
				C115.604,19.492,115.535,19.492,115.535,19.422z M116.024,37.414c0-0.28-0.14-0.42-0.489-0.49
				C115.675,37.204,115.814,37.344,116.024,37.414z M116.234,20.262c-0.21,0.351-0.14,0.701-0.35,1.19v0.28l0.21,2.1
				c0.28-1.05,0.28-1.96,0.35-2.8c0-0.21-0.069-0.49-0.14-0.84C116.234,20.192,116.234,20.192,116.234,20.262z M116.444,24.883
				c0,0.21-0.069,0.35-0.14,0.42c-0.21,0.279-0.14,0.561-0.14,0.91s0.069,0.279,0.279,0.77c0.28-0.979,0.421-1.96,0.421-3.01
				C116.654,24.322,116.654,24.603,116.444,24.883z M116.234,17.602l-0.069,0.07c0,0.21,0.069,0.35,0.069,0.561v0.629
				c0.07,0.211,0,0.211,0.07,0.281l0.28,0.209c0.21-0.56-0.07-0.979-0.141-1.47L116.234,17.602z M116.444,28.453
				c0,0.35,0,0.77,0.07,1.12c0,0.069,0.07,0.21,0.14,0.28c0.07-0.631,0.141-1.19,0.351-1.82
				C116.515,28.033,116.444,27.963,116.444,28.453z M116.725,38.534v0.21c0,0.07,0.07,0.07,0.07,0.141
				c0.07-0.07,0.07-0.141,0.07-0.211L116.725,38.534z M117.005,22.643c0,0.21,0.07,0.21,0.21,0.14c0-0.28-0.07-0.56-0.07-0.91
				C116.935,22.293,116.935,22.572,117.005,22.643z M117.075,27.263h0.069c-0.069,0-0.069,0-0.069-0.069V27.263z M117.775,42.104
				c-0.07-0.351-0.28-0.49-0.561-0.56c0,0.56,0.21,0.91,0.42,1.399c0.07,0.21,0.07,0.351,0.351,0.421
				C118.055,42.875,117.985,42.595,117.775,42.104z M118.545,46.936c0-1.33-0.49-2.171-1.26-3.221
				C117.075,44.625,117.775,46.165,118.545,46.936z M117.285,39.794c0,0.28,0.14,0.561,0.42,0.91
				C117.705,39.934,117.775,40.004,117.285,39.794z M117.635,47.005c0.07-0.069,0.07-0.069,0.07-0.069s-0.07-0.07-0.141-0.141
				c0,0.07,0,0.07-0.069,0.141C117.564,47.005,117.635,47.005,117.635,47.005z M117.775,35.734c0.069,0.14,0.21,0.279,0.279,0.489
				C118.055,36.014,117.985,35.804,117.775,35.734z M118.055,29.573c-0.069,0.069-0.14,0.14-0.14,0.14c-0.07,0,0,0.07,0.07,0.141
				c0,0,0.069-0.07,0.14-0.141C118.055,29.643,118.055,29.643,118.055,29.573z M117.915,37.904c0,0.14,0.07,0.21,0.14,0.21h0.07
				c0-0.14,0-0.21-0.07-0.28c0,0-0.069-0.07-0.14-0.141V37.904z M118.335,49.035c0,0.141,0.07,0.28,0.21,0.42
				c0.771,0.49,1.12,1.26,1.33,2.101c0.21,0.489,0.49,0.979,0.28,1.61c0,0.209,0.14,0.279,0.42,0.209
				c-0.21-0.91-0.07-1.89-0.35-2.729c-0.49-0.21-0.49-0.07-0.771-0.56c-0.07-0.07-0.14-0.211-0.14-0.281
				c-0.28-0.56-0.561-1.119-0.91-1.609c-0.07-0.211-0.07-0.35-0.28-0.35C118.125,48.335,118.195,48.686,118.335,49.035z
				 M118.195,52.535v0.211c0.069,0.35,0.21,0.699,0.21,1.05l0.21,2.101c0,0.069,0,0.14,0.069,0.209
				c0.07,0.141,0.141,0.211,0.28,0.28c0.21,0.07,0.63,0,1.12-0.069c-0.28-0.49-0.49-1.051-0.63-1.541c0-0.209-0.14-0.279-0.21-0.49
				c-0.21-0.489-0.49-0.979-0.771-1.47c-0.069-0.069-0.14-0.14-0.21-0.351C118.195,52.535,118.195,52.535,118.195,52.535z
				 M118.405,41.754c0.21-0.35,0-0.629-0.07-0.84C118.265,41.125,118.265,41.404,118.405,41.754z M118.335,35.104l0.07-0.07h-0.07
				V35.104z M118.615,43.645l-0.07,0.07c0,0.21,0.07,0.35,0.21,0.35v-0.07c0.14-0.069,0.14-0.14-0.07-0.35H118.615z M118.685,51.976
				v-0.07V51.976z M118.965,37.904v-0.28c0,0-0.07-0.07-0.14-0.14c0,0.069-0.07,0.14-0.07,0.209L118.965,37.904z M119.175,51.275
				h0.07c-0.07-0.07-0.07-0.07-0.14-0.07c0-0.21,0-0.35-0.07-0.42c0-0.14-0.07-0.14-0.21-0.07c0.069,0.141,0.21,0.28,0.28,0.49
				C119.175,51.275,119.175,51.275,119.175,51.275z M118.895,45.115l0.07,0.069L118.895,45.115z M119.525,42.385h-0.07
				c0,0.07,0,0.07,0.07,0.07V42.385z M119.525,53.445v-0.07c-0.07,0-0.07,0-0.07,0.07H119.525z M119.595,43.574v0.07h0.07
				L119.595,43.574z M119.735,44.904v0.28V44.904z M119.875,47.915c0-0.069,0-0.069,0.07-0.14l-0.07,0.07V47.915z M119.945,48.475
				c0-0.069,0-0.069-0.07-0.14v0.07v0.069H119.945z M120.715,55.126c-0.069,0.21-0.14,0.14-0.35,0.35
				c0.07,0.14,0.28,0.351,0.49,0.561C120.995,55.686,120.925,55.336,120.715,55.126z M121.275,54.426l0.28,0.561
				c0,0.209,0.069,0.209,0.069,0.42l0.21,0.209c0.07,0.07,0.141,0.07,0.21,0.07c0-0.07,0.07-0.14,0.07-0.21
				c-0.21-0.489-0.14-0.909-0.35-1.399c-0.21,0-0.351-0.07-0.561-0.07h-0.21c-0.07,0.07-0.14,0.14-0.14,0.279L121.275,54.426z
				 M121.485,56.386c0.07,0.07,0.07,0.07,0.07,0.07C121.485,56.386,121.485,56.386,121.485,56.386z M124.216,54.146
				c-0.49-0.069-0.98-0.069-1.4,0c-0.21,0.56,0.14,0.91,0.63,1.261C123.796,55.056,124.006,54.705,124.216,54.146z"/>
			<path fill="#FFFFFF" d="M146.545,33.703c0.42,0.42,0.7,0.701,0.84,0.91c0.49,0.561,0.771,1.261,1.05,1.891l0.421,1.05
				c0.35,0.771,0.56,1.61,0.63,2.521c0.069,0.63,0,1.26,0.069,2.03c0,1.05,0.07,1.89,0.07,2.94c0,0.91,0,1.82,0.07,2.66
				c0,0.77-0.07,1.33,0,1.96c0.069,0.63,0.069,1.33,0,1.96c-0.07,0.49,0.069,0.91,0,1.4c-0.07,0.35-0.141,0.7-0.141,0.98
				c-0.069,0.35-0.21,0.699-0.42,0.98c-0.49,0.489-0.7,1.05-0.979,1.609c-0.07,0.07-0.07,0.141-0.141,0.35
				c-0.21,0.211-0.28,0.351-0.56,0.281c-0.21,0-0.561,0.069-1.051,0.14c-0.35,0.069-0.77,0.069-1.12,0.069
				c-0.77,0-1.54,0-2.31-0.069l-0.91-0.21c-0.21-0.561-0.141-1.051-0.141-1.541c0.07-0.699,0.07-1.399-0.069-2.029
				c0-0.49,0-0.771-0.07-1.26c0-0.91-0.14-1.751-0.21-2.591v-0.351l-0.14-2.939l-0.141-1.4c-0.28-1.33-0.21-2.66-0.7-3.99
				c-0.069-0.351-0.14-0.631-0.35-0.98c-0.49-1.051-1.26-1.54-2.311-1.26c-0.21,0.209-0.14,0.279-0.14,0.49v4.199l0.14,3.291
				c0,0.63,0.07,1.26,0.141,2.03c0.21,1.33,0.069,2.66,0.14,3.99v0.771c0,0.279-0.07,0.56-0.28,0.77
				c-0.21,0.28-0.279,0.561-0.63,0.771c-0.07,0.21-0.14,0.28-0.21,0.35c-0.21,0.28-0.28,0.561-0.49,0.841
				c-0.21,0.35-0.56,0.629-1.05,0.699l-0.98,0.211c-0.49,0.14-1.05,0.209-1.54,0.209s-0.98,0-1.47,0.07c-0.28,0-0.63-0.07-1.12-0.14
				c-0.07-0.07-0.07-0.07-0.07-0.14c-0.21-0.561-0.21-1.19-0.28-1.751c-0.069-1.12-0.14-2.17-0.14-3.22v-2.311
				c-0.07-1.051,0.07-2.1-0.141-3.15c-0.069-0.63,0-1.189-0.069-1.82c0-0.49-0.07-0.91-0.07-1.4l-0.14-1.68l-0.21-3.431
				c-0.07-0.21-0.07-0.56-0.07-1.05l-0.28-5.74c-0.069-1.051,0-1.891-0.21-2.941c-0.28-2.729-0.21-5.391-0.21-8.12
				c0-0.91,0.141-1.82,0.07-2.73c-0.07-0.49,0.14-0.979,0.49-1.47c0.489-0.771,0.979-1.33,1.54-2.101l0.42-0.771
				c0.21-0.279,0.35-0.42,0.56-0.42c0.28,0,0.631-0.07,1.12-0.279c0.21-0.211,0.49-0.28,0.841-0.28c1.189,0.069,2.38-0.14,3.57-0.21
				c0.279,0,0.49,0.07,0.77,0.07h1.54c1.471-0.211,2.94,0.069,4.341,0.629l1.47,0.561c1.19,0.49,2.03,1.19,2.521,2.17
				c0.07,0.211,0.21,0.351,0.28,0.42c0.28,0.351,0.28,0.771,0.49,1.121l0.21,0.979c0.28,0.91,0.42,1.891,0.42,2.8v1.611
				c0,0.49-0.07,0.77-0.14,1.26c-0.07,0.561-0.141,1.05-0.141,1.609c-0.069,1.191-0.21,2.381-0.42,3.501
				c-0.07,0.351-0.21,0.7-0.42,0.979l-0.21,0.841c0,0.771-0.28,1.399-0.771,2.03L146.545,33.703z M129.953,25.582
				c-0.28-0.489-0.561-0.77-0.771-0.909c-0.14,0.42-0.14,0.84,0,1.33c0.561-0.07,0.63,0.56,1.12,0.771
				C130.303,26.353,130.163,25.933,129.953,25.582z M129.113,24.043l0.699,0.14c-0.21-0.63-0.35-1.261-0.56-1.82
				C129.113,23.063,129.043,23.623,129.113,24.043z M129.673,18.861c0-0.84,0.07-1.609,0.14-2.379c-0.35,0.35-0.56,0.77-0.56,1.119
				c-0.07,0.91,0.07,1.82-0.14,2.73v0.49c0.21,0.21,0.35,0.21,0.56,0.42C129.673,20.332,129.603,19.632,129.673,18.861z
				 M130.443,28.803l-1.051-1.82c0-0.069-0.069-0.14-0.21-0.069l0.141,1.61c0.069,0.49,0.14,0.56,0.7,0.49
				c0.069,0,0.21,0.069,0.279,0.209c0,0.07,0.07,0.211,0.07,0.28c0.21,0.21,0.07,0.351,0.35,0.56
				C130.723,29.573,130.723,29.293,130.443,28.803z M129.463,30.063c0,0.211,0,0.421,0.07,0.561c0,0.21-0.141,0.49,0.069,0.7
				c0.07-0.28,0.141-0.979,0.07-1.19c-0.07-0.07-0.07-0.14-0.07-0.14C129.533,29.993,129.463,29.993,129.463,30.063z
				 M130.303,36.714l-0.14-1.54c-0.07-0.77-0.07-1.4-0.28-2.17c0-0.141-0.07-0.211-0.28-0.211c0,1.051,0.141,1.891,0.141,2.941
				c0,0.77,0.14,1.539,0.14,2.31C130.163,37.624,130.303,37.204,130.303,36.714z M130.373,41.404c0.14-0.141,0.14-0.279,0.07-0.42
				c0-0.21-0.141-0.21-0.141-0.42c-0.069-0.21,0-0.141,0-0.35c0-0.211,0-0.351,0.07-0.49c-0.21,0.069-0.35,0.209-0.35,0.35
				c0.069,0.77,0.14,1.61,0.14,2.381c0.07,0.279-0.07,0.629,0.14,0.979c0.21-0.069,0.28-0.14,0.28-0.14
				c0.21-0.561,0.561-1.051,0.49-1.681c0.21-0.069,0.07-0.28,0.28-0.489c-0.351,0.209-0.28,0.279-0.28,0.489
				C130.863,41.614,130.583,41.895,130.373,41.404z M130.233,30.973c-0.07,0.771,0,0.841,0.489,1.121
				C130.793,31.254,130.723,31.184,130.233,30.973z M130.373,22.572c0,0.21-0.07,0.35,0.14,0.561
				C130.583,22.782,130.513,22.572,130.373,22.572z M130.583,49.525c0.49,0.49,0.91,0.84,1.12,1.4c0.07,0.279,0.14,0.56,0.35,0.77
				c0.07,0.21,0.141,0.35,0.421,0.42c0-0.49-0.141-1.05-0.351-1.68c0-0.07-0.07-0.07-0.07-0.141c-0.489-0.49-0.77-0.979-1.119-1.54
				c-0.07-0.21-0.211-0.14-0.28-0.35C130.443,48.755,130.373,48.755,130.583,49.525z M130.653,35.104h-0.07
				c-0.07,0.07-0.07,0.141-0.07,0.21c0.07,0.07,0.07,0.07,0.07,0.14c0-0.069,0.07-0.069,0.07-0.14V35.104z M131.423,52.045
				c-0.279-0.35-0.489-0.77-0.7-1.119c-0.069-0.07-0.14-0.141-0.21-0.141v1.4h0.21c0.351-0.141,0.631-0.07,0.771,0.279
				c0.21,0.211,0.14,0.561,0.35,0.841C131.913,52.815,131.773,52.396,131.423,52.045z M130.723,52.746c-0.21,0.629-0.21,1.47,0,2.1
				l0.841-0.141c0.069-0.209,0-0.35-0.141-0.56c-0.21-0.35-0.279-0.7-0.489-0.979L130.723,52.746z M130.863,25.022
				c-0.07,0-0.141,0-0.141,0c-0.069,0-0.069,0-0.069,0.07c-0.07,0.28,0.069,0.489,0.42,0.7L130.863,25.022z M130.934,15.992
				c-0.211,0.35-0.28,0.84-0.28,1.399c0,0,0.069,0.07,0.21,0.21c0.07-0.56,0.21-1.05,0.21-1.609H130.934z M130.793,56.036
				c-0.07,0.28,0,0.56,0.21,0.84h0.49c0.21,0,0.42-0.069,0.63-0.069c0-0.211-0.07-0.281-0.07-0.351c-0.069,0-0.14,0.069-0.21,0.069
				c-0.489,0.211-0.42,0.141-0.699-0.14L130.793,56.036z M131.003,27.473c0-0.07,0-0.14-0.069-0.21c0,0.07-0.07,0-0.141-0.21
				C130.793,27.263,130.723,27.402,131.003,27.473z M131.423,14.451c0,0-0.069-0.07-0.14-0.14c-0.21,0.21-0.28,0.28-0.21,0.56
				c0,0,0.14,0.07,0.42,0.28C131.493,14.802,131.423,14.662,131.423,14.451z M131.423,28.873c-0.14-0.141-0.279-0.141-0.35-0.07
				c0.21,0.28,0.28,0.49,0.35,0.631c0.21,0.209,0.21,0.49,0.49,0.699c0-0.35-0.07-0.63-0.07-0.979
				C131.633,29.083,131.493,28.943,131.423,28.873z M131.493,45.885c-0.21-0.279-0.21-0.49-0.42-0.77
				C131.283,45.744,131.213,45.675,131.493,45.885z M131.563,24.393v-1.471c0,0-0.07-0.069-0.141-0.14
				c-0.21,0.07-0.279,0.21-0.279,0.49c0,0.56-0.21,1.19,0.35,1.75C131.563,24.673,131.633,24.463,131.563,24.393z M131.563,17.742
				c-0.351,1.05-0.561,2.1-0.28,3.15c0.21-0.84,0.21-1.75,0.28-2.66V17.742z M131.493,37.204c-0.07,0.771-0.21,1.26-0.28,2.03
				c0,0,0.07,0.07,0.141,0.279l0.489-0.49c-0.069-0.77-0.14-1.33-0.14-1.959C131.563,37.064,131.493,37.134,131.493,37.204z
				 M131.843,42.595c-0.21,0-0.35,0.14-0.42,0.35l-0.21,1.261c0.21,0.279,0.28,0.56,0.63,0.77
				C131.913,43.925,131.913,43.154,131.843,42.595z M131.283,55.406c0,0.209,0.07,0.35,0.28,0.49
				C131.563,55.406,131.563,55.476,131.283,55.406z M132.474,42.034c0-0.28,0.14-0.56-0.07-0.771c-0.21-0.139-0.21-0.279-0.07-0.489
				v-0.28c-0.069-0.14-0.21-0.21-0.28-0.21c-0.069,0.49-0.14,0.979-0.35,1.54C132.053,41.824,132.193,42.104,132.474,42.034z
				 M132.053,14.381c0.211,0.771,0.141,1.4,0.141,2.171c0,0.84-0.07,1.75-0.07,2.66c0,1.89,0.07,3.641,0.07,5.391
				c-0.07,1.12-0.07,2.171,0.14,3.22c0.21,1.471,0.141,2.941,0.141,4.411c0,0.28,0.069,0.49,0.069,0.771l0.21,2.87l0.21,3.64
				c0.07,1.051,0.07,1.891,0.07,2.941v3.779c0,0.771,0.07,1.33,0.141,1.961c0.069,0.91,0.14,1.891,0.14,2.8
				c-0.07,1.05,0,2.101,0.07,3.15v0.351c0.21,0,0.35,0,0.42-0.07c0.279,0,0.56-0.07,0.91-0.141c0.35,0,0.63-0.14,0.84-0.35
				c0.35,0.141,0.7,0.141,1.05,0c0.21,0,0.42,0,0.49-0.07c0.35,0,0.49-0.14,0.49-0.49c0-0.489-0.07-0.84-0.07-1.189v-2.17
				c0-0.771-0.07-1.61-0.14-2.381c0-0.63-0.07-1.189-0.07-1.82c-0.21-2.17-0.14-4.2-0.14-6.37v-1.261
				c-0.07-0.77-0.07-1.33-0.28-1.96c0-0.14,0.07-0.35,0.14-0.63c0.07-0.141,0.28-0.21,0.49-0.141c0.21,0,0.42,0.07,0.63,0.07h1.051
				c1.12-0.07,1.96,0.28,3.01,0.84c0.21,0.141,0.49,0.351,0.7,0.631c0.63,0.91,0.91,1.891,0.98,2.939
				c0.21,1.191,0.279,2.381,0.279,3.57c0,1.331,0.07,2.381,0.141,3.711c0.07,0.77-0.07,1.471,0.14,2.24
				c0.21,1.33,0.28,2.45,0.21,3.78c0,0.21,0.07,0.49,0.141,0.771c0.279,0.21,0.63,0.21,0.91,0.21h1.12
				c0.489-0.07,1.05-0.07,1.54-0.07c0.069,0,0.21-0.069,0.42-0.14c0.35-1.33,0.28-2.521,0.28-3.851c0-0.49-0.07-0.979-0.07-1.47
				l-0.14-8.401c0-0.49-0.141-0.91-0.211-1.399c-0.21-1.051-0.63-1.961-1.12-2.871c-0.279-0.63-0.63-1.12-1.05-1.54
				c-0.77-0.56-1.33-1.12-2.24-1.33l-0.56-0.14c-0.141,0-0.21-0.07-0.21-0.211c0-0.069,0.069-0.14,0.14-0.209
				c0.35-0.211,0.63-0.211,0.98-0.42c0.35-0.07,0.63-0.281,0.77-0.561c0.7-0.07,1.19-0.35,1.54-0.84c0.7-0.84,1.12-1.891,1.19-3.08
				c0.21-0.91,0.14-1.891,0.35-2.801c0.141-1.33,0.21-2.66,0.21-3.99c-0.069-0.771-0.069-1.4-0.279-2.17
				c-0.21-0.421-0.28-0.771-0.351-1.121c-0.069-0.42-0.21-0.84-0.56-1.189c-0.07-0.211-0.21-0.42-0.42-0.7
				c-0.42-0.63-0.98-1.12-1.61-1.47c-0.63-0.351-1.33-0.561-1.96-0.771c-1.12-0.49-2.24-0.7-3.431-0.63
				c-0.63,0.069-1.261,0.069-1.891,0.069c-0.56,0-1.189,0.07-1.75,0.07c-0.91,0-1.75,0.21-2.66,0.21c-0.07-0.07-0.28,0-0.49,0.07
				c-0.35,0.21-0.7,0.35-1.19,0.56V14.381z M132.193,36.363v0.07c0.07-0.07,0.07-0.07,0.07-0.07H132.193z M132.264,36.994
				c-0.07,0.07-0.07,0.14-0.07,0.279l0.07,0.07v-0.07V36.994z M132.403,46.445v-0.141c0,0.07-0.07,0.141-0.07,0.21L132.403,46.445z
				 M133.733,56.807v-0.141l-0.56-1.051c-0.141-0.209-0.351-0.35-0.7-0.42c-0.141,0.42,0,0.98,0.489,1.611h0.7H133.733z
				 M132.684,53.235c0-0.069-0.07-0.069-0.141-0.069c-0.069,0.069-0.069,0.14-0.069,0.209v0.211c0,0.07,0.069,0.21,0.069,0.279
				c0,0.07,0,0.211,0.07,0.28v0.21c0,0.141,0,0.211,0.07,0.211C132.894,54.076,132.753,53.726,132.684,53.235z M134.014,55.686
				c0.069,0.28,0.14,0.49,0.35,0.771c0.141,0.14,0.28,0.14,0.42,0C134.504,55.896,134.504,55.756,134.014,55.686z M135.764,56.386
				c0.21-0.069,0.21-0.21,0.14-0.28c-0.21-0.35-0.35-0.63-0.489-0.77c-0.141-0.141-0.28-0.21-0.421-0.141
				c0,0.49,0.28,0.701,0.49,1.19H135.764z M136.394,16.412c1.33-0.351,2.45-0.561,3.78-0.771c0.141-0.069,0.28-0.069,0.42,0
				c1.051,0.21,2.101,0.7,3.081,1.54c0.489,0.49,0.84,1.19,0.979,2.03l0.28,2.171v1.47c0,0.56,0,1.19-0.07,1.82
				c0,0.489-0.069,1.05-0.279,1.54v0.07c-0.21,0.77-0.561,1.4-1.051,1.96c-0.28,0.28-0.56,0.489-0.91,0.7l-1.05,0.56
				c-0.771,0.49-1.61,0.63-2.521,0.7c-0.77,0.07-1.54,0.07-2.31,0.28c-0.211,0.069-0.351,0-0.561-0.07l-0.21-1.12v-1.471v-0.279
				c-0.21-0.84-0.21-1.68-0.21-2.521c0-1.33-0.07-2.66-0.07-3.99c0-0.56,0.07-1.12-0.14-1.681c-0.07-0.49-0.07-0.979-0.07-1.539
				v-0.07c0.28-0.28,0.07-0.631,0.07-0.98C135.764,16.552,136.113,16.482,136.394,16.412z M136.254,20.682
				c0,1.4,0,2.871,0.069,4.271c0.07,0.84,0,1.68,0.21,2.59v0.42l0.141,1.61c0,0.21,0.07,0.14,0.07,0.351
				c1.05-0.211,2.029-0.141,2.939-0.351c1.051-0.14,1.891-0.56,2.661-1.33v-1.19c0-0.63,0-1.26-0.07-1.891
				c-0.07-1.05-0.07-2.029-0.42-3.08c-0.07-0.35-0.141-0.63-0.351-0.98c-0.21-0.489-0.49-0.909-0.84-1.26
				c-0.56-0.49-1.26-0.77-2.17-0.77c-0.771,0.07-1.471,0.21-2.311,0.42C136.254,19.982,136.254,20.332,136.254,20.682z
				 M136.323,17.882c0.07-0.069,0.141-0.069,0.141-0.069v-0.141c-0.07,0.07-0.141,0.07-0.141,0.07V17.882z M136.394,17.462
				c0.07-0.28,0.14-0.42,0.14-0.351v-0.14c-0.069,0.07-0.14,0.07-0.14,0.07V17.462z M136.744,54.636l-0.07,0.069h0.07
				c0.069,0,0.069,0,0.069-0.069H136.744z M137.443,16.832c-0.14-0.07-0.21-0.07-0.279,0.14c0.069,0.07,0.14,0,0.35,0.21
				C137.443,16.972,137.514,16.902,137.443,16.832z M137.654,36.783c0.069,0.281,0,0.701,0.489,0.91
				c0.07-0.489,0.07-0.77-0.14-1.539C137.794,36.294,137.654,36.504,137.654,36.783z M137.864,18.512
				c0.069-0.07,0.069-0.07,0.14-0.07c-0.07-0.069-0.07-0.069-0.07-0.069c-0.069,0.069-0.069,0.069-0.069,0.069V18.512z
				 M139.054,17.111c0.07-0.209,0.351-0.42,0.07-0.629c-0.21-0.211-0.42,0.069-0.63,0.139h-0.07l-0.21,0.631
				c0.07,0.279,0.14,0.561,0.49,0.77C138.914,17.672,139.054,17.392,139.054,17.111z M139.054,36.154l-0.14,0.84v0.07
				c0,0.35,0.14,0.489,0.35,0.56v-0.07v-0.28c-0.21-0.77-0.14-0.77,0.631-0.979c0.069-0.07,0.14-0.07,0.21-0.07
				c0.21,0.49,0.35,0.91,0.069,1.4c0,0.069,0.07,0.14,0.07,0.351c0.07,0.209,0.21,0.489,0.56,0.699c0.07,0.07,0.141,0.07,0.21,0.07
				c0-0.77-0.279-1.471,0.211-2.1c-0.49-0.281-0.7-0.351-1.19-0.421C139.754,36.014,139.404,36.154,139.054,36.154z M139.544,18.162
				c-0.07,0.21-0.07,0.35,0.14,0.42L139.544,18.162z M140.244,17.952c0.21-0.351,0.21-0.63,0.28-0.841
				c0.069-0.35,0.279-0.42,0.489-0.629c-0.35-0.281-0.699-0.211-1.05-0.211C139.895,16.832,139.754,17.392,140.244,17.952z
				 M141.504,41.824l0.49-0.14c-0.21-0.351-0.21-0.56-0.42-0.841c-0.07-0.209-0.07-0.35,0.07-0.42l0.279-0.209
				c-0.21-0.211-0.35-0.211-0.42-0.421c-0.14-0.21-0.35-0.35-0.7-0.35C141.014,40.284,141.294,41.055,141.504,41.824z
				 M141.084,18.162c-0.07,0.21-0.21,0.49,0.141,0.699L141.084,18.162z M141.645,37.624v-0.14c-0.07,0.069-0.07,0.069-0.07,0.069
				c0,0.07,0,0.07,0.07,0.14V37.624z M141.714,43.504l0.421,0.211c0.069,0.07,0.14,0,0.35,0.07c-0.49-0.49-0.42-0.91-0.91-1.19
				C141.645,42.944,141.714,43.225,141.714,43.504z M141.784,18.092c0.14-0.14,0.14-0.42,0.07-0.77
				C141.645,17.813,141.714,17.813,141.784,18.092z M141.924,45.675l0.141,0.7c0.07-0.07,0.14-0.07,0.28-0.07
				C142.345,46.095,142.204,45.885,141.924,45.675z M142.064,39.164c-0.07,0.07-0.07,0.07-0.07,0.07l0.07,0.07v-0.07V39.164z
				 M142.064,19.143c-0.07,0.209-0.07,0.489,0.07,0.699l0.279,0.28c0.28,0,0.351-0.14,0.28-0.351c0-0.56-0.14-1.119-0.21-1.75
				C142.274,18.512,142.274,18.792,142.064,19.143z M142.904,20.682c-0.07,0.07-0.21,0.07-0.42,0.07s-0.21-0.14-0.42,0.07
				c0.21,0.21,0.14,0.49,0.35,0.7c0.21,0.28,0.07,0.56,0.28,0.771c0.35-0.07,0.49-0.281,0.42-0.49L142.904,20.682z M143.254,48.335
				c0,0.21,0.07,0.21,0.07,0.42c-0.07,0.21,0,0.421,0.21,0.7c0,0,0.07,0.07,0.28,0.141c-0.07-1.611-0.14-3.081-0.14-4.551
				c-0.49,0-0.49,0-0.841-0.28c-0.279-0.21-0.489-0.28-0.699-0.351c0,0.211,0,0.281,0,0.281c0.069,0.209,0.21,0.35,0.35,0.489
				c0.49,0.771,0.84,1.47,1.05,2.24C143.254,47.915,143.254,47.846,143.254,48.335z M142.204,48.895l-0.069,0.07l0.14,1.61
				c0.07,0.56,0,1.19,0.21,1.751c0.21-0.49,0-0.841,0.07-1.331c0-0.56,0.069-1.12-0.141-1.68L142.204,48.895z M142.484,38.324
				c0.07,0.279,0.21,0.49,0.28,0.699C142.765,38.534,142.765,38.534,142.484,38.324z M142.484,40.424h0.07v-0.069L142.484,40.424z
				 M142.555,56.176v0.28c0,0.21,0.14,0.21,0.35,0.069c-0.07-0.209-0.07-0.489-0.35-0.77V56.176z M142.975,17.462
				c-0.21-0.07-0.28-0.14-0.351-0.14c-0.069,0.069-0.069,0.209,0,0.42L142.975,17.462z M142.624,41.264c0,0.07,0,0.141,0.07,0.211
				c0.14,0.35,0.35,0.63,0.56,0.91c0.07,0.07,0.141,0.14,0.211,0.14c0-0.351-0.07-0.63-0.07-1.12
				C143.114,41.264,142.834,41.194,142.624,41.264z M143.954,26.143c0.141-0.21,0.141-0.35,0-0.42
				c-0.21-0.21-0.279-0.141-0.279-0.35c-0.21-0.49-0.07-1.121-0.421-1.75c-0.069,0.629,0,1.119,0.211,1.609
				c0,0.211,0.069,0.211,0.21,0.141C143.744,25.652,143.675,25.933,143.954,26.143z M143.604,44.414
				c0.07-0.489,0.14-0.42-0.351-0.629C143.324,44.064,143.324,44.345,143.604,44.414z M143.465,53.096
				c0.14,0.98,0.14,1.891-0.07,2.66c-0.07,0.35,0.07,0.561,0.42,0.77c0.28-0.489,0.42-0.629,0.21-1.189
				c-0.07-0.35-0.07-0.631,0-0.91c0.07-0.49,0.07-0.98,0-1.471c-0.07-0.069-0.14-0.069-0.14-0.069
				c-0.07,0.069-0.21,0.069-0.351,0.069L143.465,53.096z M143.395,51.275c0.07-0.28,0.07-0.49,0-0.63V51.275z M143.675,18.512
				c-0.21,0.28-0.141,0.631-0.21,0.91c-0.141,0.42,0.069,0.771,0.56,1.051C144.095,19.842,143.954,19.212,143.675,18.512z
				 M144.305,22.782c-0.07-0.14-0.21-0.21-0.42-0.14c-0.21,0.561,0.279,0.98,0.35,1.47
				C144.375,23.763,144.375,23.272,144.305,22.782z M145.145,54.775c-0.07,0.07-0.21,0.07-0.28,0.07
				c-0.069,0.141-0.069,0.35-0.069,0.63c0,0.421,0.21,0.771,0.56,1.05c0.07,0.07,0.21,0.07,0.351-0.069
				C145.494,55.966,145.074,55.546,145.145,54.775z M145.284,32.863c0,0,0.07,0,0.141,0c0-0.07,0-0.07-0.07-0.14
				c-0.07-0.07-0.21-0.07-0.28,0C145.145,32.793,145.215,32.863,145.284,32.863z M145.705,33.073c0.35,0.28,0.279,0.28,0.489,0.07
				c0,0,0-0.07,0-0.21L145.705,33.073z M146.265,55.896c0.07-0.07,0.07-0.07,0.14-0.07l-0.14-0.7c0-0.07,0-0.14-0.07-0.21
				c-0.069-0.07-0.14-0.07-0.21-0.07c-0.069,0.07-0.14,0.141-0.069,0.21c0.069,0.21,0.14,0.14,0.21,0.351L146.265,55.896z
				 M146.265,32.164c0,0.209,0.14,0.279,0.42,0.279C146.475,31.953,146.545,31.953,146.265,32.164z M147.035,31.743
				c0.069,0,0.14,0,0.14-0.069c0-0.07,0-0.07-0.07-0.07c-0.069,0-0.069,0-0.069,0.07V31.743z M147.175,54.846
				c-0.07,0-0.07,0-0.14,0.07l0.77,0.84c0.07-0.07,0.141-0.141,0.141-0.21c0.21-0.28,0.35-0.56,0.42-0.771
				C147.805,54.775,147.385,54.775,147.175,54.846z M147.035,56.596h0.35c0.07-0.21,0.21-0.35,0.28-0.63
				C147.104,56.176,147.104,56.105,147.035,56.596z"/>
		</g>
	</g>
</g>
<g id="Guias">
</g>
</svg>
