<?xml version="1.0" encoding="utf-8"?>
<!-- Generator: Adobe Illustrator 16.0.0, SVG Export Plug-In . SVG Version: 6.00 Build 0)  -->
<!DOCTYPE svg PUBLIC "-//W3C//DTD SVG 1.1//EN" "http://www.w3.org/Graphics/SVG/1.1/DTD/svg11.dtd">
<svg version="1.1" xmlns="http://www.w3.org/2000/svg" xmlns:xlink="http://www.w3.org/1999/xlink" x="0px" y="0px"
	 width="58.354px" height="31.523px" viewBox="0 0 58.354 31.523" enable-background="new 0 0 58.354 31.523" xml:space="preserve">
<g id="Vectores">
</g>
<g id="Imagenes">
</g>
<g id="Cintillos">
</g>
<g id="BOtones">
</g>
<g id="Logos">
</g>
<g id="Igonos">
	<g>
		<ellipse fill="none" stroke="#FFFFFF" stroke-width="0.75" stroke-miterlimit="10" cx="29.484" cy="15.57" rx="28" ry="13.448"/>
		
			<ellipse fill="none" stroke="#FFFFFF" stroke-width="0.75" stroke-miterlimit="10" cx="29.511" cy="14.779" rx="27.505" ry="12.604"/>
		
			<ellipse fill="none" stroke="#FFFFFF" stroke-width="0.75" stroke-miterlimit="10" cx="29.499" cy="16.28" rx="17.652" ry="7.551"/>
		<path fill="none" stroke="#FFFFFF" stroke-width="0.5" stroke-linejoin="round" stroke-miterlimit="10" d="M2.249,15.819
			c-0.345,0.427-0.704,1.009-0.775,1.566c0.659,0.155,1.042-0.442,1.546-0.649c0.111,0.231,0.148,0.616,0.113,0.87
			c-0.423,0.311-1.682,0.688-0.887,1.388c0.225-0.155,0.816-0.832,1.137-0.696c0.721,0.306-0.263,0.838-0.344,1.134
			c-0.494,1.805,0.833,0.05,1.677,0.243c0.19,0.802-0.938,1.001-0.979,1.883c0.864,0.457,1.365-1.019,2.333-0.867
			c0.14,0.861-0.988,0.887-0.756,1.886c0.811,0.002,0.955-1.09,1.772-1.094c0.191,0.852-0.697,1.251-0.618,1.999
			c0.842-0.092,0.955-1.402,1.973-1.323c0.215,0.852-0.627,1.246-0.418,2.111c0.849-0.006,0.749-1.169,1.541-1.326
			c0.393,0.818-0.428,1.659-0.41,2.568c1.145,0.151,1.215-2.31,2.127-2.139c0.554,0.104-0.844,2.255-0.584,2.705
			c-0.114-0.648,0.76-1.832,1.471-1.89c0.026,0.682-0.613,0.988-0.536,1.662c1.273,0.265,1.058-1.237,2.004-1.32
			c0,0.588-0.298,1.145-0.393,1.659c1.175,0.298,0.839-1.214,1.747-1.207c0.188,0.773-0.336,1.56-0.535,2.221
			c1.503,0.347,0.654-1.947,1.664-1.995c0.037,0.719-0.024,1.426-0.072,2.116c0.746-0.427,0.187-1.529,1.314-1.552
			c0.071,0.84-0.26,1.543-0.189,2.338c0.993-0.423,0.134-2.155,1.654-2.341c0.082,0.524-1.156,2.691,0.221,2.331
			c0.814-0.215,0.719-1.779,1.813-1.765c0.381,0.775-0.371,1.347-0.164,2.111c1.256,0.16,1.217-1.668,2.424-1.885
			c0.037,0.689-0.298,1.86,0.469,2.015c0.994,0.199,0.796-1.032,0.807-1.674c0.177-0.115,0.563-0.233,0.758-0.231
			c0.035,0.262-0.753,3.376,0.332,2.767c0.611-0.344,0.006-2.094,1.02-2.54c0.109,0.751-0.555,1.249-0.528,2
			c0.212,0.015,0.335-0.022,0.528-0.114c0.101-0.707,0.446-1.581,0.459-2.087c0.418,0.76,0.316,1.484,0.374,2.32
			c0.44-0.327,0.448-1.359,0.786-1.889c0.187-0.042,0.355-0.028,0.529,0.021c0.026,0.541,0.004,1.098,0.033,1.637
			c1.467,0.31,0.123-1.848,1.315-1.893c0.252,0.682,0.124,1.364-0.106,2.03c1.536,0.708,0.557-2.546,1.919-2.249
			c0.065,0.783-0.254,1.682-0.008,2.346c0.103-0.655,0.6-2.303,1.362-2.345c0.203,0.942-0.832,2.483,0.789,2.677
			c-0.05-0.718,0.084-2.595,0.902-2.677c0.266,0.752,0.01,1.435,0.014,2.2c0.777-0.556,0.66-1.34,1.075-2.122
			c0.492,0.591,0.373,1.289,0.415,2.013c0.837-0.459,0.332-2.755,1.544-2.428c0.218,0.538,0.12,1.179,0.149,1.771
			c0.308,0.063,0.715,0.012,0.982-0.113c-0.034-0.714,0.061-1.438,0.788-1.668c0.03,0.524-0.048,1.171,0.132,1.588
			c0.563-0.5,0.168-2.066,1.112-1.921c0.026,0.51,0.006,1.039,0.034,1.55c1.299,0.265,0.653-1.381,0.905-1.996
			c0.144-0.013,0.271-0.009,0.413-0.003c0.222,0.619,0.043,1.267,0.265,1.885c1.072-0.036,0.104-1.973,0.993-2.479
			c0.475,0.424,0.059,1.201,0.021,1.803c0.6,0.069,1.222,0.325,1.773,0.572c-0.173-0.656-1.993-3.118,0.111-2.687
			c0.181,0.768-0.391,1.282-0.306,2.002c0.173,0.035,0.359,0.029,0.531,0c0.093-0.723,0.244-1.392,0.262-2.114
			c0.138-0.07,0.278-0.1,0.413-0.121c0.028,0.438,0.01,0.894,0.036,1.331c0.925,0.033,0.8-1.018,1.019-1.656
			c0.05,0.006,0.253,0.003,0.303-0.005c-0.052,0.297,0.092,0.709,0.06,0.983c0.143,0.006,0.254,0.009,0.393-0.003
			c0.147-0.527,0.234-1.266,0.79-1.438c-0.017,0.203,0.054,0.45,0.033,0.651c0.418-0.07,0.662-0.434,0.779-0.863
			c0.444-0.022,0.934-0.091,1.249-0.328c-0.149,0.313-0.158,0.626-0.243,0.943c0.211-0.466,0.317-0.971,0.563-1.405
			c-0.308-0.023-1.043-0.018-1.113-0.014c0.974-0.761,2.353,0.021,3.249-0.59c0.176-0.506,0.115-1.023,0.035-1.545
			c0.087-0.084,0.142-0.139,0.226-0.226c0.754,0.056,1.773-0.299,1.578-1.245c0.134-0.004,0.284-0.032,0.418-0.033
			c-0.099-0.534,0.194-0.961,0.581-1.226"/>
	</g>
</g>
<g id="TXT">
</g>
<g id="Guias">
</g>
</svg>
