<?xml version="1.0" encoding="utf-8"?>
<!-- Generator: Adobe Illustrator 15.0.0, SVG Export Plug-In . SVG Version: 6.00 Build 0)  -->
<!DOCTYPE svg PUBLIC "-//W3C//DTD SVG 1.1//EN" "http://www.w3.org/Graphics/SVG/1.1/DTD/svg11.dtd">
<svg version="1.1" id="Capa_1" xmlns="http://www.w3.org/2000/svg" xmlns:xlink="http://www.w3.org/1999/xlink" x="0px" y="0px"
	 width="303.129px" height="83.32px" viewBox="0 0 303.129 83.32" enable-background="new 0 0 303.129 83.32" xml:space="preserve">
<g>
	<g>
		<g>
			<g>
				<path fill="#FFFFFF" d="M115.712,12.478c-16.598,0-30.104,13.507-30.104,30.104c0,16.598,13.506,30.104,30.104,30.104
					c16.6,0,30.104-13.506,30.104-30.104C145.815,25.984,132.313,12.478,115.712,12.478z M129.142,35.691
					c0.012,0.298,0.02,0.599,0.02,0.899c0,9.156-6.969,19.711-19.715,19.711c-3.912,0-7.555-1.145-10.621-3.11
					c0.543,0.063,1.094,0.097,1.654,0.097c3.246,0,6.232-1.108,8.605-2.967c-3.031-0.055-5.592-2.058-6.473-4.813
					c0.422,0.081,0.857,0.126,1.303,0.126c0.629,0,1.244-0.083,1.826-0.241c-3.172-0.637-5.559-3.436-5.559-6.795
					c0-0.028,0-0.059,0.002-0.086c0.934,0.518,2.002,0.83,3.137,0.865c-1.857-1.241-3.082-3.363-3.082-5.766
					c0-1.271,0.342-2.462,0.938-3.484c3.416,4.192,8.523,6.949,14.281,7.24c-0.119-0.508-0.178-1.036-0.178-1.58
					c0-3.826,3.1-6.928,6.928-6.928c1.992,0,3.791,0.841,5.057,2.188c1.578-0.311,3.059-0.887,4.402-1.682
					c-0.521,1.618-1.617,2.975-3.053,3.832c1.404-0.166,2.742-0.537,3.98-1.089C131.671,33.496,130.497,34.717,129.142,35.691z"/>
			</g>
		</g>
	</g>
	<g>
		<g>
			<g>
				<polygon fill="#FFFFFF" points="174.048,44.802 176.435,44.802 176.435,57.72 178.69,57.72 178.69,44.802 181.124,44.802 
					181.124,42.688 174.048,42.688 				"/>
				<path fill="#FFFFFF" d="M193.14,46.382c-0.746,0-1.441,0.407-2.098,1.215v-4.91h-2.029V57.72h2.029v-1.084
					c0.68,0.838,1.375,1.239,2.098,1.239c0.809,0,1.35-0.427,1.623-1.26c0.135-0.474,0.203-1.22,0.203-2.256V49.9
					c0-1.063-0.068-1.804-0.203-2.254C194.493,46.808,193.948,46.382,193.14,46.382z M192.937,54.517
					c0,1.013-0.297,1.513-0.883,1.513c-0.334,0-0.674-0.16-1.012-0.5v-6.827c0.338-0.336,0.678-0.494,1.012-0.494
					c0.586,0,0.883,0.519,0.883,1.529V54.517z"/>
				<path fill="#FFFFFF" d="M185.226,55.078c-0.451,0.638-0.877,0.951-1.283,0.951c-0.271,0-0.428-0.16-0.475-0.476
					c-0.02-0.066-0.02-0.313-0.02-0.788v-8.247h-2.029v8.855c0,0.791,0.066,1.326,0.178,1.666c0.203,0.567,0.656,0.835,1.307,0.835
					c0.75,0,1.514-0.451,2.322-1.376v1.223h2.031V46.519h-2.031V55.078z"/>
				<path fill="#FFFFFF" d="M186.968,36.17c0.662,0,0.979-0.523,0.979-1.571v-4.762c0-1.048-0.316-1.568-0.979-1.568
					s-0.98,0.521-0.98,1.568v4.762C185.987,35.646,186.306,36.17,186.968,36.17z"/>
				<path fill="#FFFFFF" d="M188.337,12.478c-16.625,0-30.104,13.479-30.104,30.104s13.479,30.104,30.104,30.104
					s30.104-13.479,30.104-30.104S204.962,12.478,188.337,12.478z M191.683,26.558h2.047v8.336c0,0.48,0,0.729,0.023,0.798
					c0.045,0.316,0.209,0.479,0.484,0.479c0.408,0,0.84-0.317,1.295-0.959v-8.653h2.051v11.32h-2.051v-1.234
					c-0.816,0.936-1.596,1.391-2.346,1.391c-0.66,0-1.115-0.268-1.32-0.841c-0.113-0.344-0.184-0.885-0.184-1.685V26.558
					L191.683,26.558z M183.937,30.249c0-1.21,0.207-2.095,0.643-2.666c0.568-0.775,1.365-1.161,2.389-1.161
					c1.027,0,1.826,0.386,2.393,1.161c0.432,0.57,0.637,1.456,0.637,2.666v3.965c0,1.203-0.205,2.095-0.637,2.662
					c-0.566,0.771-1.365,1.158-2.393,1.158c-1.023,0-1.82-0.387-2.389-1.158c-0.436-0.567-0.643-1.459-0.643-2.662V30.249z
					 M178.452,22.688l1.615,5.966l1.551-5.966h2.299l-2.734,9.038v6.152h-2.273v-6.152c-0.207-1.09-0.664-2.687-1.393-4.807
					c-0.479-1.408-0.979-2.822-1.457-4.231H178.452z M204.54,58.709c-0.412,1.786-1.869,3.104-3.629,3.302
					c-4.164,0.464-8.379,0.466-12.576,0.464c-4.197,0.002-8.412,0-12.576-0.464c-1.76-0.198-3.221-1.516-3.631-3.302
					c-0.586-2.544-0.586-5.319-0.586-7.938c0-2.618,0.008-5.395,0.594-7.938c0.41-1.787,1.871-3.104,3.629-3.302
					c4.166-0.464,8.381-0.467,12.578-0.464c4.195-0.003,8.412,0,12.574,0.464c1.76,0.197,3.221,1.515,3.633,3.302
					c0.584,2.544,0.58,5.32,0.58,7.938C205.13,53.39,205.128,56.165,204.54,58.709z"/>
				<path fill="#FFFFFF" d="M199.604,46.382c-1.039,0-1.844,0.381-2.432,1.148c-0.432,0.566-0.627,1.442-0.627,2.639v3.924
					c0,1.191,0.221,2.072,0.654,2.634c0.584,0.765,1.391,1.147,2.455,1.147c1.059,0,1.893-0.4,2.453-1.215
					c0.246-0.359,0.408-0.766,0.475-1.216c0.018-0.204,0.045-0.653,0.045-1.308V53.84h-2.072c0,0.813-0.027,1.265-0.043,1.374
					c-0.117,0.543-0.41,0.814-0.908,0.814c-0.697,0-1.039-0.517-1.039-1.555v-1.986h4.063v-2.318c0-1.198-0.205-2.074-0.631-2.641
					C201.431,46.763,200.624,46.382,199.604,46.382z M200.599,50.799h-2.031v-1.036c0-1.036,0.34-1.555,1.02-1.555
					c0.67,0,1.012,0.519,1.012,1.555V50.799z"/>
			</g>
		</g>
	</g>
	<g>
		<g>
			<g>
				<path fill="#FFFFFF" d="M43.089,12.478c-16.598,0-30.104,13.507-30.104,30.104c0,16.598,13.506,30.104,30.104,30.104
					S73.19,59.179,73.19,42.581C73.19,25.984,59.69,12.478,43.089,12.478z M50.573,43.641h-4.896c0,7.825,0,17.456,0,17.456h-7.256
					c0,0,0-9.537,0-17.456H34.97v-6.169h3.451V33.48c0-2.858,1.359-7.323,7.324-7.323l5.377,0.02v5.99c0,0-3.27,0-3.904,0
					s-1.539,0.317-1.539,1.68v3.626h5.529L50.573,43.641z"/>
			</g>
		</g>
	</g>
	<g>
		<g>
			<g>
				<g>
					<path fill="#FFFFFF" d="M260.958,48.714c3.322,0,6.029-2.703,6.029-6.026c0-1.312-0.428-2.523-1.139-3.513
						c-1.096-1.518-2.875-2.514-4.887-2.514s-3.791,0.994-4.887,2.513c-0.713,0.989-1.139,2.2-1.139,3.513
						C254.931,46.011,257.636,48.714,260.958,48.714z"/>
					<polygon fill="#FFFFFF" points="274.118,35.316 274.118,30.263 274.118,29.511 273.362,29.514 268.313,29.53 268.333,35.335 
											"/>
					<path fill="#FFFFFF" d="M260.96,12.584c-16.6,0-30.104,13.505-30.104,30.104S244.36,72.79,260.96,72.79
						c16.598,0,30.104-13.504,30.104-30.103S277.56,12.584,260.96,12.584z M278.081,39.175v14.019c0,3.649-2.971,6.616-6.617,6.616
						h-21.006c-3.65,0-6.617-2.967-6.617-6.616V39.175v-6.99c0-3.648,2.967-6.616,6.617-6.616h21.004
						c3.648,0,6.619,2.968,6.619,6.616V39.175z"/>
					<path fill="#FFFFFF" d="M270.325,42.688c0,5.161-4.201,9.364-9.365,9.364s-9.363-4.203-9.363-9.364
						c0-1.241,0.248-2.429,0.689-3.513h-5.111v14.019c0,1.811,1.471,3.277,3.279,3.277h21.008c1.807,0,3.279-1.467,3.279-3.277
						V39.175h-5.113C270.073,40.259,270.325,41.446,270.325,42.688z"/>
				</g>
			</g>
		</g>
	</g>
</g>
</svg>
