<?xml version="1.0" encoding="utf-8"?>
<!-- Generator: Adobe Illustrator 16.0.0, SVG Export Plug-In . SVG Version: 6.00 Build 0)  -->
<!DOCTYPE svg PUBLIC "-//W3C//DTD SVG 1.1//EN" "http://www.w3.org/Graphics/SVG/1.1/DTD/svg11.dtd">
<svg version="1.1" xmlns="http://www.w3.org/2000/svg" xmlns:xlink="http://www.w3.org/1999/xlink" x="0px" y="0px"
	 width="211.219px" height="35.086px" viewBox="0 0 211.219 35.086" enable-background="new 0 0 211.219 35.086"
	 xml:space="preserve">
<g id="Vectores">
</g>
<g id="Imagenes">
</g>
<g id="Cintillos">
</g>
<g id="BOtones">
</g>
<g id="Logos">
</g>
<g id="Igonos">
	<g>
		<g>
			<path fill="#FFFFFF" d="M141.133,32.528h-11.249c-4.495,0-7.751-4.069-7.751-8.565V11.444c0-4.496,3.256-7.916,7.751-7.916
				h11.749c4.496,0,8.5,3.42,8.5,7.916v12.519c0,4.496-4.004,8.565-8.5,8.565 M141.633,29.528c1.597,0,3.348-0.402,4.489-1.545
				c1.14-1.141,2.011-2.423,2.011-4.021V11.444c0-1.598-0.871-3.055-2.011-4.197c-1.142-1.139-2.893-1.719-4.489-1.719h-11.749
				c-1.599,0-2.976,0.58-4.116,1.719c-1.139,1.143-1.635,2.6-1.635,4.197v12.519c0,1.598,0.496,2.88,1.635,4.021
				c1.141,1.143,2.518,1.545,4.116,1.545H141.633z"/>
			<path fill="#FFFFFF" d="M143.538,17.592c0,4.272-3.464,7.737-7.736,7.737c-4.274,0-7.737-3.465-7.737-7.737
				c0-4.271,3.463-7.737,7.737-7.737C140.074,9.855,143.538,13.321,143.538,17.592 M135.766,12.531c-2.8,0-5.068,2.269-5.068,5.067
				c0,2.798,2.269,5.067,5.068,5.067c2.797,0,5.065-2.27,5.065-5.067C140.831,14.799,138.563,12.531,135.766,12.531"/>
			<path fill="#FFFFFF" d="M145.494,9.735c0,1.011-0.82,1.833-1.832,1.833s-1.831-0.822-1.831-1.833
				c0-1.012,0.819-1.832,1.831-1.832S145.494,8.723,145.494,9.735"/>
		</g>
	</g>
	<path fill="#FFFFFF" d="M25.735,2.528H7.057c-2.948,0-4.924,2.888-4.924,5.836v18.679c0,2.949,1.976,5.485,4.924,5.485h8.076v-12
		h-2v-4h2v-2.986c0-3.417,1.912-5.014,5.939-5.014h3.061v4h-1.802c-1.569,0-1.674,0.699-1.674,1.789l-0.007,2.211h3.799l-0.443,4
		h-2.873v12h4.603c2.948,0,5.397-2.536,5.397-5.485V8.364C31.133,5.416,28.684,2.528,25.735,2.528z"/>
	<path fill="#FFFFFF" d="M86.162,2.528h-18.68c-2.947,0-5.35,2.888-5.35,5.836v18.679c0,2.949,2.402,5.485,5.35,5.485h18.68
		c2.948,0,4.971-2.536,4.971-5.485V8.364C91.133,5.416,89.11,2.528,86.162,2.528z M84.667,13.679
		c0.007,0.174,0.011,0.351,0.011,0.526c0,5.347-4.068,11.515-11.514,11.515c-2.286,0-4.414-0.672-6.204-1.819
		c0.317,0.036,0.64,0.056,0.966,0.056c1.896,0,3.642-0.646,5.027-1.73c-1.773-0.032-3.268-1.203-3.781-2.811
		c0.247,0.045,0.5,0.071,0.762,0.071c0.369,0,0.917-0.049,1.256-0.142c-1.851-0.371-3.057-2.006-3.057-3.969
		c0-0.017,0-0.035,0-0.051c0,0.305,0.979,0.485,1.643,0.507c-1.086-0.728-1.895-1.965-1.895-3.369c0-0.74,0.152-1.434,0.5-2.033
		c1.994,2.446,4.954,4.06,8.317,4.228c-0.069-0.294-0.116-0.605-0.116-0.923c0-2.233,1.806-4.048,4.041-4.048
		c1.164,0,2.214,0.493,2.951,1.279c0.922-0.182,1.787-0.518,2.57-0.982c-0.305,0.947-0.946,1.739-1.783,2.238
		c0.82-0.096,1.598-0.314,2.324-0.635C86.143,12.398,85.456,13.112,84.667,13.679z"/>
	<path fill="#FFFFFF" d="M203.759,2.528H185.08c-2.948,0-4.947,2.89-4.947,5.836v18.681c0,2.949,1.999,5.483,4.947,5.483h18.679
		c2.949,0,5.374-2.534,5.374-5.483V8.364C209.133,5.417,206.708,2.528,203.759,2.528z M191.133,25.037V10.371l11.035,7.334
		L191.133,25.037z"/>
</g>
<g id="TXT">
</g>
<g id="Guias">
</g>
</svg>
