<?xml version="1.0" encoding="utf-8"?>
<!-- Generator: Adobe Illustrator 16.0.0, SVG Export Plug-In . SVG Version: 6.00 Build 0)  -->
<!DOCTYPE svg PUBLIC "-//W3C//DTD SVG 1.1//EN" "http://www.w3.org/Graphics/SVG/1.1/DTD/svg11.dtd">
<svg version="1.1" xmlns="http://www.w3.org/2000/svg" xmlns:xlink="http://www.w3.org/1999/xlink" x="0px" y="0px"
	 width="57.602px" height="62.838px" viewBox="0 0 57.602 62.838" enable-background="new 0 0 57.602 62.838" xml:space="preserve">
<g id="Soporte">
</g>
<g id="Vectores">
</g>
<g id="Publicidad">
</g>
<g id="Cintillos">
	<g>
		<g>
			<g>
				<path fill="#303030" d="M13.972,14.937c-1.356,0-2.5-0.781-2.5-1.748V2.696c0-0.965,1.144-1.748,2.5-1.748s2.5,0.783,2.5,1.748
					v10.492C16.472,14.155,15.329,14.937,13.972,14.937z"/>
			</g>
			<g>
				<path fill="#303030" d="M43.972,14.937c-1.356,0-2.5-0.781-2.5-1.748V2.696c0-0.965,1.143-1.748,2.5-1.748
					c1.357,0,2.5,0.783,2.5,1.748v10.492C46.472,14.155,45.329,14.937,43.972,14.937z"/>
			</g>
			<rect x="19.472" y="23.882" fill="#303030" width="9" height="9"/>
			<rect x="30.019" y="23.882" fill="#303030" width="9" height="9"/>
			<rect x="40.472" y="23.882" fill="#303030" width="9" height="9"/>
			<rect x="8.472" y="34.882" fill="#303030" width="9" height="9"/>
			<rect x="19.472" y="34.882" fill="#303030" width="9" height="9"/>
			<rect x="30.019" y="34.882" fill="#303030" width="9" height="9"/>
			<rect x="40.472" y="34.882" fill="#303030" width="9" height="9"/>
			<rect x="8.472" y="45.882" fill="#303030" width="9" height="9"/>
			<rect x="19.472" y="45.882" fill="#303030" width="9" height="9"/>
			<rect x="30.019" y="45.882" fill="#303030" width="9" height="9"/>
			<rect x="40.472" y="45.882" fill="#303030" width="9" height="9"/>
			<g>
				<polygon fill="#303030" points="13.405,34.517 7.546,30.333 9.172,28.056 12.323,30.306 16.235,22.155 18.756,23.366 				"/>
			</g>
			<path fill="#303030" d="M51.101,6.882H7.382c-3.019,0-5.91,1.887-5.91,4.953v44.439c0,3.068,2.892,5.607,5.91,5.607h43.719
				c3.019,0,5.371-2.539,5.371-5.607V11.835C56.472,8.769,54.12,6.882,51.101,6.882z M43.613,7.407c2.203,0,3.988,1.787,3.988,3.988
				c0,2.203-1.785,3.988-3.988,3.988s-3.988-1.785-3.988-3.988C39.625,9.194,41.41,7.407,43.613,7.407z M14.237,7.407
				c2.203,0,3.988,1.787,3.988,3.988c0,2.203-1.785,3.988-3.988,3.988c-2.202,0-3.988-1.785-3.988-3.988
				C10.249,9.194,12.035,7.407,14.237,7.407z M53.472,57.882h-48v-39h48V57.882z"/>
		</g>
	</g>
</g>
<g id="Imagenes">
</g>
<g id="Botonces">
</g>
<g id="Logos">
</g>
<g id="TXT">
</g>
<g id="Guias">
</g>
</svg>
