<?xml version="1.0" encoding="utf-8"?>
<!-- Generator: Adobe Illustrator 16.0.0, SVG Export Plug-In . SVG Version: 6.00 Build 0)  -->
<!DOCTYPE svg PUBLIC "-//W3C//DTD SVG 1.1//EN" "http://www.w3.org/Graphics/SVG/1.1/DTD/svg11.dtd">
<svg version="1.1" xmlns="http://www.w3.org/2000/svg" xmlns:xlink="http://www.w3.org/1999/xlink" x="0px" y="0px"
	 width="31.219px" height="30.246px" viewBox="0 0 31.219 30.246" enable-background="new 0 0 31.219 30.246" xml:space="preserve">
<g id="Soporte">
	<path fill="#303030" d="M24.847,0.456H6.169c-2.949,0-5.349,2.4-5.349,5.35v18.678c0,2.949,2.4,5.35,5.349,5.35h8.568v-12.15h-2.51
		v-4.188h2.51v-2.512c0-3.418,1.42-5.449,5.447-5.449h3.354v4.188h-2.096c-1.569,0-1.674,0.586-1.674,1.676l-0.007,2.098h3.799
		l-0.443,4.188h-3.355v12.15h5.085c2.948,0,5.351-2.4,5.351-5.35V5.806C30.198,2.856,27.795,0.456,24.847,0.456z"/>
</g>
<g id="Vectores">
</g>
<g id="Publicidad">
</g>
<g id="Imagenes">
</g>
<g id="Cintillos">
</g>
<g id="Botones">
</g>
<g id="Logo">
</g>
<g id="TXT">
</g>
<g id="Guias">
</g>
</svg>
