<?xml version="1.0" encoding="utf-8"?>
<!-- Generator: Adobe Illustrator 16.0.0, SVG Export Plug-In . SVG Version: 6.00 Build 0)  -->
<!DOCTYPE svg PUBLIC "-//W3C//DTD SVG 1.1//EN" "http://www.w3.org/Graphics/SVG/1.1/DTD/svg11.dtd">
<svg version="1.1" xmlns="http://www.w3.org/2000/svg" xmlns:xlink="http://www.w3.org/1999/xlink" x="0px" y="0px" width="31.25px"
	 height="31.25px" viewBox="0 0 31.25 31.25" enable-background="new 0 0 31.25 31.25" xml:space="preserve">
<g id="Soporte">
</g>
<g id="Publicidad">
</g>
<g id="Iconos">
</g>
<g id="Imagenes">
</g>
<g id="Cintillos">
</g>
<g id="Botones">
</g>
<g id="TXT">
</g>
<g id="Logo">
	<path fill="#FFFFFF" d="M24.978,0.987H6.299c-2.949,0-5.349,2.4-5.349,5.348v18.68c0,2.949,2.4,5.349,5.349,5.349h8.568V18.214
		h-2.511v-4.188h2.511v-2.513c0-3.417,1.419-5.448,5.447-5.448h3.354v4.188h-2.096c-1.569,0-1.674,0.586-1.674,1.676l-0.006,2.098
		h3.798l-0.443,4.188h-3.355v12.149h5.084c2.949,0,5.35-2.399,5.35-5.349V6.335C30.328,3.388,27.926,0.987,24.978,0.987z"/>
</g>
<g id="Guia">
</g>
</svg>
