<?xml version="1.0" encoding="utf-8"?>
<!-- Generator: Adobe Illustrator 16.0.0, SVG Export Plug-In . SVG Version: 6.00 Build 0)  -->
<!DOCTYPE svg PUBLIC "-//W3C//DTD SVG 1.1//EN" "http://www.w3.org/Graphics/SVG/1.1/DTD/svg11.dtd">
<svg version="1.1" xmlns="http://www.w3.org/2000/svg" xmlns:xlink="http://www.w3.org/1999/xlink" x="0px" y="0px" width="28.5px"
	 height="29px" viewBox="0 0 28.5 29" enable-background="new 0 0 28.5 29" xml:space="preserve">
<g id="Soporte">
</g>
<g id="Publicidad">
</g>
<g id="Iconos">
	<g>
		<path fill="#303030" d="M27.373,25.816L16.402,14.846c1.077-1.439,1.723-3.221,1.723-5.156c0-4.764-3.861-8.625-8.625-8.625
			S0.875,4.926,0.875,9.689s3.861,8.625,8.625,8.625c1.743,0,3.362-0.521,4.719-1.41l11.033,11.033
			c0.293,0.293,0.677,0.439,1.061,0.439s0.768-0.146,1.061-0.439C27.959,27.352,27.959,26.402,27.373,25.816z"/>
		<g>
			<path fill="#474747" d="M2.313,10.689c-0.414,0-0.75-0.336-0.75-0.75c0-4.549,3.701-8.25,8.25-8.25c0.414,0,0.75,0.336,0.75,0.75
				s-0.336,0.75-0.75,0.75c-3.722,0-6.75,3.028-6.75,6.75C3.063,10.354,2.727,10.689,2.313,10.689z"/>
		</g>
		<g>
			<path fill="#474747" d="M16.226,7.76c0.413-0.035,0.776,0.271,0.812,0.683c0.39,4.532-2.98,8.537-7.513,8.927
				c-0.413,0.035-0.776-0.271-0.812-0.683c-0.035-0.413,0.271-0.776,0.683-0.812c3.708-0.319,6.466-3.596,6.147-7.304
				C15.507,8.158,15.813,7.795,16.226,7.76z"/>
		</g>
	</g>
</g>
<g id="Imagenes">
</g>
<g id="Cintillos">
</g>
<g id="Botones">
</g>
<g id="TXT">
</g>
<g id="Logo">
</g>
<g id="Guia">
</g>
</svg>
