<?xml version="1.0" encoding="utf-8"?>
<!-- Generator: Adobe Illustrator 16.0.0, SVG Export Plug-In . SVG Version: 6.00 Build 0)  -->
<!DOCTYPE svg PUBLIC "-//W3C//DTD SVG 1.1//EN" "http://www.w3.org/Graphics/SVG/1.1/DTD/svg11.dtd">
<svg version="1.1" xmlns="http://www.w3.org/2000/svg" xmlns:xlink="http://www.w3.org/1999/xlink" x="0px" y="0px" width="31.25px"
	 height="31.313px" viewBox="0 0 31.25 31.313" enable-background="new 0 0 31.25 31.313" xml:space="preserve">
<g id="Soporte_1_">
</g>
<g id="Vectores">
</g>
<g id="Publicidad">
</g>
<g id="Imagenes">
</g>
<g id="Cintillos">
</g>
<g id="Logos">
</g>
<g id="Botones">
	<g>
		<g>
			<path fill="#FFFFFF" d="M21.378,30.053H9.63c-4.496,0-8.175-3.678-8.175-8.174V9.359c0-4.496,3.679-8.172,8.175-8.172h11.748
				c4.496,0,8.174,3.676,8.174,8.172v12.52C29.552,26.375,25.874,30.053,21.378,30.053 M21.378,27.895
				c1.598,0,3.105-0.629,4.246-1.77s1.768-2.648,1.768-4.246V9.359c0-1.598-0.627-3.104-1.768-4.246
				c-1.141-1.139-2.648-1.768-4.246-1.768H9.63c-1.6,0-3.107,0.629-4.248,1.768C4.243,6.256,3.616,7.762,3.616,9.359v12.52
				c0,1.598,0.627,3.105,1.766,4.246c1.141,1.141,2.648,1.77,4.248,1.77H21.378z"/>
			<path fill="#FFFFFF" d="M23.284,15.508c0,4.273-3.464,7.738-7.736,7.738c-4.274,0-7.737-3.465-7.737-7.738
				c0-4.271,3.463-7.736,7.737-7.736C19.82,7.771,23.284,11.236,23.284,15.508 M15.511,10.447c-2.799,0-5.067,2.268-5.067,5.066
				s2.269,5.068,5.067,5.068c2.798,0,5.066-2.27,5.066-5.068S18.309,10.447,15.511,10.447"/>
			<path fill="#FFFFFF" d="M25.24,7.65c0,1.012-0.821,1.834-1.833,1.834c-1.011,0-1.83-0.822-1.83-1.834s0.819-1.832,1.83-1.832
				C24.419,5.818,25.24,6.639,25.24,7.65"/>
		</g>
	</g>
</g>
<g id="TXT">
</g>
<g id="Guias">
</g>
</svg>
