<?xml version="1.0" encoding="utf-8"?>
<!-- Generator: Adobe Illustrator 16.0.0, SVG Export Plug-In . SVG Version: 6.00 Build 0)  -->
<!DOCTYPE svg PUBLIC "-//W3C//DTD SVG 1.1//EN" "http://www.w3.org/Graphics/SVG/1.1/DTD/svg11.dtd">
<svg version="1.1" xmlns="http://www.w3.org/2000/svg" xmlns:xlink="http://www.w3.org/1999/xlink" x="0px" y="0px" width="31.25px"
	 height="31.25px" viewBox="0 0 31.25 31.25" enable-background="new 0 0 31.25 31.25" xml:space="preserve">
<g id="Soporte">
</g>
<g id="Publicidad">
</g>
<g id="Iconos">
</g>
<g id="Imagenes">
</g>
<g id="Cintillos">
</g>
<g id="Botones">
</g>
<g id="TXT">
</g>
<g id="Logo">
	<g>
		<g>
			<path fill="#FFFFFF" d="M21.708,30.108H9.959c-4.495,0-8.174-3.678-8.174-8.174V9.415c0-4.495,3.679-8.172,8.174-8.172h11.749
				c4.497,0,8.174,3.677,8.174,8.172v12.52C29.882,26.431,26.204,30.108,21.708,30.108 M21.708,27.95
				c1.597,0,3.105-0.628,4.247-1.77c1.14-1.141,1.768-2.648,1.768-4.246V9.415c0-1.597-0.628-3.104-1.768-4.246
				c-1.142-1.139-2.649-1.768-4.247-1.768H9.959c-1.599,0-3.106,0.629-4.247,1.768C4.573,6.312,3.945,7.818,3.945,9.415v12.52
				c0,1.598,0.628,3.105,1.767,4.246c1.141,1.142,2.648,1.77,4.247,1.77H21.708z"/>
			<path fill="#FFFFFF" d="M23.613,15.564c0,4.272-3.463,7.737-7.736,7.737c-4.274,0-7.737-3.465-7.737-7.737
				s3.463-7.737,7.737-7.737C20.15,7.827,23.613,11.292,23.613,15.564 M15.84,10.503c-2.799,0-5.067,2.269-5.067,5.067
				c0,2.798,2.268,5.067,5.067,5.067c2.798,0,5.066-2.27,5.066-5.067C20.906,12.771,18.638,10.503,15.84,10.503"/>
			<path fill="#FFFFFF" d="M25.57,7.707c0,1.011-0.821,1.833-1.833,1.833c-1.011,0-1.831-0.822-1.831-1.833
				c0-1.012,0.82-1.833,1.831-1.833C24.749,5.874,25.57,6.695,25.57,7.707"/>
		</g>
	</g>
</g>
<g id="Guia">
</g>
</svg>
