<?xml version="1.0" encoding="utf-8"?>
<!-- Generator: Adobe Illustrator 16.0.0, SVG Export Plug-In . SVG Version: 6.00 Build 0)  -->
<!DOCTYPE svg PUBLIC "-//W3C//DTD SVG 1.1//EN" "http://www.w3.org/Graphics/SVG/1.1/DTD/svg11.dtd">
<svg version="1.1" xmlns="http://www.w3.org/2000/svg" xmlns:xlink="http://www.w3.org/1999/xlink" x="0px" y="0px"
	 width="50.262px" height="28.75px" viewBox="0 0 50.262 28.75" enable-background="new 0 0 50.262 28.75" xml:space="preserve">
<g id="Soporte_1_">
</g>
<g id="Vectores">
</g>
<g id="Publicidad">
</g>
<g id="Imagenes">
</g>
<g id="Cintillos">
</g>
<g id="Logos">
</g>
<g id="Botones">
	<g>
		<path fill-rule="evenodd" clip-rule="evenodd" fill="#FFFFFF" d="M25.536,23.922c-5.369,0-10.736,0.004-16.104,0
			c-1.711-0.002-2.114-0.406-2.114-2.123c-0.003-6.291-0.003-12.578,0-18.869c0-1.652,0.417-2.08,2.03-2.084
			c10.816-0.002,21.633-0.002,32.449,0c1.633,0,2.056,0.426,2.057,2.061c0.004,6.291,0.004,12.578,0,18.869
			c0,1.764-0.397,2.146-2.214,2.146C36.272,23.924,30.905,23.922,25.536,23.922z M41.848,21.947c0-6.436,0-12.775,0-19.084
			c-10.913,0-21.738,0-32.543,0c0,6.406,0,12.721,0,19.084C20.166,21.947,30.963,21.947,41.848,21.947z"/>
		<path fill-rule="evenodd" clip-rule="evenodd" fill="#FFFFFF" d="M49.531,25.365c0.191,1.922-0.209,2.402-1.935,2.402
			c-14.658,0.002-29.315,0.002-43.973,0c-1.757,0-2.126-0.418-2.024-2.334c0.301-0.021,0.61-0.064,0.921-0.066
			c6.208-0.002,12.415-0.002,18.623,0.004c0.467,0,1.053-0.215,1.176,0.6c0.023,0.154,0.507,0.334,0.783,0.34
			c1.641,0.031,3.283,0.02,4.926,0.01c0.231-0.002,0.631-0.021,0.667-0.129c0.44-1.342,1.546-0.801,2.374-0.807
			c5.726-0.037,11.454-0.02,17.181-0.02C48.68,25.365,49.111,25.365,49.531,25.365z"/>
	</g>
</g>
<g id="TXT">
</g>
<g id="Guias">
</g>
</svg>
