<?xml version="1.0" encoding="utf-8"?>
<!-- Generator: Adobe Illustrator 16.0.0, SVG Export Plug-In . SVG Version: 6.00 Build 0)  -->
<!DOCTYPE svg PUBLIC "-//W3C//DTD SVG 1.1//EN" "http://www.w3.org/Graphics/SVG/1.1/DTD/svg11.dtd">
<svg version="1.1" xmlns="http://www.w3.org/2000/svg" xmlns:xlink="http://www.w3.org/1999/xlink" x="0px" y="0px"
	 width="235.333px" height="99px" viewBox="0 0 235.333 99" enable-background="new 0 0 235.333 99" xml:space="preserve">
<g id="Soporte">
</g>
<g id="Publicidad">
</g>
<g id="Iconos">
</g>
<g id="Imagenes">
</g>
<g id="Cintillos">
</g>
<g id="Botones">
</g>
<g id="TXT">
</g>
<g id="Logo">
	<g>
		<g>
			<path fill="#FFFFFF" d="M115.442,67.947c0.457,0.31-0.759,2.578-1.817,3.939c-2.882,3.345-4.694,4.703-8.341,6.836
				c-3.332,1.815-12.124,6.366-13.949,0c-1.815-6.836,8.037-21.382,14.554-24.423c2.28-1.218,5.31-1.218,6.377,1.673
				c3.633,10.158-9.406,15.312-16.075,18.498c-0.611,0.143-1.071,0.302-1.667,0.466c-0.613,1.653-0.759,3.17-0.457,4.388
				c0.908,1.973,7.426-0.602,10.313-2.432c4.095-2.569,4.999-3.487,7.728-6.211C113.022,69.314,114.839,67.652,115.442,67.947z
				 M95.581,72.501c6.971-2.885,16.686-7.889,14.857-15.161c-0.455-0.913-2.118,0-3.634,1.209
				C102.408,61.586,98.155,67.189,95.581,72.501z"/>
			<path fill="#FFFFFF" d="M113.167,78.722c0,1.053,0.613,1.206,1.21,1.206c2.733,0,10.917-6.523,10.917-6.824
				c0.16-0.153,1.068-0.3,1.068,0.153c0.147,0.911-1.068,1.819-1.068,1.819c-8.335,7.273-10.917,6.82-11.214,6.82
				c-3.643,0.155-3.336-3.336-3.336-3.336c0-11.671,26.382-43.22,27.295-43.22c0.598-0.596,1.062-0.751,1.359-0.751
				c1.065,0,1.367,1.524,1.367,2.122c0,1.365-0.76,2.583-0.76,2.583l-10.769,13.194C113.473,73.564,113.167,77.503,113.167,78.722z"
				/>
			<path fill="#FFFFFF" d="M148.042,67.947c0.458,0.31-0.754,2.578-1.816,3.939c-2.875,3.345-4.7,4.703-8.335,6.836
				c-3.338,1.815-12.141,6.366-13.958,0c-1.818-6.836,8.033-21.382,14.563-24.423c2.269-1.218,5.306-1.218,6.357,1.673
				c3.647,10.158-9.392,15.312-16.067,18.498c-0.602,0.143-1.061,0.302-1.669,0.466c-0.606,1.653-0.753,3.17-0.449,4.388
				c0.904,1.973,7.422-0.602,10.307-2.432c4.095-2.569,5.005-3.487,7.735-6.211C145.625,69.314,147.44,67.652,148.042,67.947z
				 M128.183,72.501c6.971-2.885,16.669-7.889,14.857-15.161c-0.457-0.913-2.131,0-3.643,1.209
				C135.01,61.586,130.755,67.189,128.183,72.501z M137.278,49.903c-0.753,0-1.218-0.157-1.218-0.157c0-0.143,0-0.143,0.152-0.143
				c4.396-1.212,4.396-6.366,8.944-6.366c0.921,0,1.367,0.446,1.367,1.208C146.523,48.084,139.098,49.903,137.278,49.903z"/>
			<path fill="#FFFFFF" d="M158.655,53.689c0.759,0,1.066,0.315,1.066,0.917c0,0.605-0.459,1.366-0.611,1.514
				c-12.129,16.685-13.197,21.531-13.197,21.531c-0.139,0.455-0.139,0.761-0.139,1.071c0,1.053,0.75,1.206,1.207,1.206
				c2.268,0.3,10.917-6.523,10.917-6.824c0.304-0.153,0.611-0.153,0.757-0.153c0.154,0,0.307,0.153,0.307,0.307
				c0,0.598-1.064,1.819-1.064,1.819c-7.888,6.976-10.917,6.82-11.224,6.82c-3.481-0.144-3.323-3.336-3.323-3.336
				c0-5.457,4.239-13.493,10.454-22.441C154.715,55.059,156.982,53.689,158.655,53.689z M158.809,48.686
				c0-2.111,2.424-5.449,4.089-5.449c0.611,0,1.067,0.446,1.067,1.37c0,2.421-2.428,5.451-3.942,5.451c-0.303,0-0.455,0-0.609-0.155
				C158.961,49.746,158.809,49.3,158.809,48.686z"/>
			<path fill="#FFFFFF" d="M185.794,36.711c0,1.365-0.763,2.583-0.763,2.583l-9.388,11.529h1.053c0.761,0,2.125,0,2.125,0.902
				c0,1.063-1.364,1.063-2.125,1.063h-2.566c-15.475,20.776-15.928,24.563-15.928,25.935c0,1.053,0.752,1.206,1.207,1.206
				c2.876,0.3,10.929-6.523,10.929-6.824c0.297-0.153,0.6-0.153,0.747-0.153c0.154,0,0.307,0.153,0.307,0.307
				c0,0.911-1.053,1.819-1.053,1.819c-8.957,7.887-10.929,6.82-11.228,6.82c-3.642,0-3.335-3.336-3.335-3.336
				c0-6.06,5.764-16.07,13.038-25.773h-6.527c-0.904,0-1.964,0-1.964-1.063c0-0.902,1.061-0.902,1.964-0.902h8.053
				c11.061-14.563,13.183-16.379,13.788-16.379C185.189,34.443,185.794,35.492,185.794,36.711z"/>
			<path fill="#FFFFFF" d="M193.079,67.947c0.447,0.31-0.765,2.578-1.829,3.939c-2.879,3.345-4.7,4.703-8.335,6.836
				c-3.332,1.815-12.128,6.366-13.947,0c-1.83-6.836,8.034-21.382,14.552-24.423c2.274-1.218,5.308-1.218,6.37,1.673
				c3.637,10.158-9.409,15.312-16.081,18.498c-0.596,0.143-1.052,0.302-1.652,0.466c-0.617,1.653-0.769,3.17-0.46,4.388
				c0.9,1.973,7.424-0.602,10.303-2.432c4.1-2.569,5.008-3.487,7.738-6.211C190.645,69.314,192.466,67.652,193.079,67.947z
				 M173.213,72.501c6.972-2.885,16.676-7.889,14.854-15.161c-0.453-0.913-2.129,0-3.637,1.209
				C180.032,61.586,175.786,67.189,173.213,72.501z"/>
			<path fill="#FFFFFF" d="M184.125,73.719c0-2.738,2.274-5.463,5.458-5.463c0.605,0,1.515,0.154,2.272,0.447
				c1.972-2.573,4.253-4.698,9.704-13.645c0.151-0.147-0.906-2.271,2.276-1.664c3.646,0.754,5.155,16.532,1.062,22.74
				c2.269,0.151,5.913-1.665,6.371-1.665c0.153,0,0.153,0,0.153,0.143c0,0.618-3.039,3.349-6.684,3.349
				c-0.293,0-0.755,0-1.053-0.157c-3.789,4.093-6.369,3.789-9.406,3.949c-3.633,0.144-7.277-1.525-9.247-4.861
				C184.43,75.837,184.125,74.936,184.125,73.719z M189.728,70.076c-1.662,0-3.629,2.118-3.629,4.247c0,0.29,0,0.449,0.154,0.754
				c1.049-1.357,2.72-3.19,4.236-4.851C190.188,70.226,190.042,70.076,189.728,70.076z M186.55,75.99
				c1.212,2.116,4.852,3.785,7.886,3.785c2.879,0,4.851-1.363,6.064-3.186c-2.883-1.513-5.915-3.785-8.339-5.455
				C190.188,73.104,188.066,74.936,186.55,75.99z M193.526,69.617c2.724,1.82,5.608,4.103,8.184,5.319
				c2.734-4.71,1.975-16.84,0.764-16.991c-2.578,3.791-5.311,7.876-8.196,10.911C193.981,69.167,193.827,69.464,193.526,69.617z"/>
			<path fill="#FFFFFF" d="M232.951,67.947c0.453,0.31-0.757,2.578-1.824,3.939c-2.876,3.345-4.699,4.703-8.349,6.836
				c-3.33,1.815-12.12,6.366-13.936,0c-1.819-6.836,8.031-21.382,14.551-24.423c2.272-1.218,5.306-1.218,6.375,1.673
				c3.637,10.158-9.405,15.312-16.071,18.498c-0.611,0.143-1.067,0.302-1.675,0.466c-0.61,1.653-0.754,3.17-0.457,4.388
				c0.91,1.973,7.437-0.602,10.318-2.432c4.09-2.569,4.992-3.487,7.723-6.211C230.519,69.314,232.34,67.652,232.951,67.947z
				 M213.085,72.501c6.979-2.885,16.682-7.889,14.857-15.161c-0.451-0.913-2.118,0-3.637,1.209
				C219.906,61.586,215.664,67.189,213.085,72.501z"/>
		</g>
		<g>
			<path fill="#F7931E" d="M79.099,84.593c-1.605,1.251-3.23,2.351-4.801,3.309c-6.033,3.669-13.23,6.426-20.64,8.021h178.795
				V84.593H79.099z"/>
		</g>
		<g>
			<g>
				<g>
					<path fill="#FFFFFF" d="M111.106,25.098c0.152-1.198,0.173-2.402,0.062-3.6c-0.054-0.596-0.15-1.201-0.281-1.784
						c-0.143-0.592-0.308-1.173-0.531-1.741c-0.226-0.568-0.48-1.125-0.781-1.656c-0.15-0.273-0.314-0.528-0.49-0.794
						c-0.074-0.106-0.173-0.243-0.262-0.358c-0.096-0.134-0.186-0.254-0.278-0.364c-0.767-0.948-1.669-1.793-2.692-2.465
						c-0.507-0.325-1.038-0.625-1.599-0.865c-0.272-0.117-0.551-0.213-0.834-0.3c-1.799-0.566-3.176-0.759-5.012-0.39
						c-2.565,0.504-1.489,1.295-2.824-1.292c-0.573-1.108-1.232-2.185-2.039-3.131c-1.629-1.913-3.85-3.222-6.235-3.949
						c-1.05-0.324-2.149-0.549-3.249-0.62c-3.525-0.252-7.093,0.882-9.98,2.917c-2.967,2.091-1.029,1.994-3.88-0.215
						c-0.683-0.522-1.388-0.989-2.175-1.372c-1.224-0.592-2.708-0.969-4.063-1.049c-4.345-0.303-8.624,1.664-11.601,4.706
						c-1.929,1.964-3.245,4.634-3.72,7.288c-0.24,1.339-0.269,2.706-0.082,4.081c0.176,1.359,0.557,2.682,1.092,3.941
						c0.278,0.635,0.594,1.246,0.948,1.83c0.313,0.515,0.672,1.021,1.055,1.491c1.444,1.773,3.312,3.069,5.465,3.835
						c3.028,1.082,6.802,0.813,9.702-0.578c1.793-0.865,2.597-1.529,2.957-1.745c0.407-0.252,0.622-0.034,0.884,0.298
						c0.527,0.671,1.062,1.222,1.707,1.762c1.038,0.919,2.237,1.65,3.505,2.19c1.26,0.548,2.593,0.955,3.959,1.208
						c1.359,0.251,2.547,0.305,3.96,0.217c0.706-0.033,1.63-0.153,2.312-0.308c0.356-0.095,0.543-0.145,0.931-0.256
						c0.264-0.085,0.431-0.091,0.643,0.111c0.136,0.123,0.795,0.979,0.943,1.142c0.145,0.154,0.292,0.302,0.444,0.458
						c0.536,0.533,1.082,1.019,1.648,1.5c0.707,0.619,0.078,0.178,0.842,5.601c0.082,0.576,0.42,2.277,0.451,2.521
						c0.048,0.25-0.007,0.405-0.272,0.223c-0.132-0.086-0.86-0.69-1.079-0.863c-0.453-0.342-0.911-0.7-1.37-1.04
						c-0.457-0.34-0.928-0.672-1.402-0.999c-2.01-1.392-4.146-2.646-6.373-3.691c-1.114-0.521-2.255-0.998-3.423-1.411
						c-1.168-0.419-2.33-0.789-3.513-1.121c-1.185-0.325-2.395-0.592-3.63-0.771c-1.234-0.169-2.497-0.236-3.758-0.093
						c-0.635,0.082-1.274,0.202-1.881,0.403c-0.154,0.061-0.299,0.106-0.462,0.172c-0.137,0.054-0.307,0.121-0.45,0.201
						c-0.3,0.149-0.586,0.325-0.859,0.54c-0.531,0.438,2.813-1.175,7.238-0.105c1.489,0.366,2.998,0.641,4.452,1.082
						c1.277,0.39,2.563,0.819,3.82,1.308c4.399,1.692,8.61,4.011,12.095,7.205c1.576,1.448,2.384,2.508,2.801,2.128
						c0.164-0.144,0.093-0.395,0.022-0.581c-0.089-0.235-0.18-0.46-0.262-0.7c-0.247-0.709-0.507-1.407-0.733-2.13
						c-0.245-0.799-0.475-1.613-0.689-2.424c-0.189-0.813-0.364-1.64-0.477-2.484c-0.03-0.204-0.046-0.424-0.068-0.637
						c-0.024-0.338-0.195-1.976,0.568-1.526c0.143,0.097,0.301,0.171,0.455,0.249c1.055,0.518,2.2,0.867,3.368,1.021
						c1.169,0.154,2.369,0.126,3.527-0.071c2.344-0.417,4.541-1.463,6.39-2.963c0.924-0.741,1.756-1.604,2.471-2.562
						c0.707-0.956,1.294-2.02,1.719-3.158C110.661,27.457,110.954,26.282,111.106,25.098z M109.149,28.179
						c-0.707,2.072-2.027,3.945-3.713,5.391c-1.681,1.448-3.72,2.521-5.91,2.971c-1.09,0.237-2.217,0.302-3.34,0.204
						c-1.102-0.107-2.131-0.449-3.162-0.919c-0.516-0.23-1.018-0.498-1.485-0.808c-0.479-0.299-0.954-0.637-1.392-0.985
						c-0.451-0.348-0.847-0.702-1.235-1.108c-0.282-0.313-1.104-1.156-0.612-1.431c0.29-0.162,0.535-0.219,0.822-0.366
						c0.301-0.154,0.598-0.288,0.887-0.464c0.589-0.341,1.151-0.711,1.679-1.134c0.169-0.132,0.319-0.273,0.464-0.397
						c0.401-0.379,0.745-0.788,1.067-1.225c0.326-0.45,0.594-0.919,0.779-1.538c0.081-0.274-0.046-0.295-0.156-0.058
						c-0.061,0.128-0.144,0.29-0.221,0.429c-0.182,0.331-0.379,0.633-0.605,0.926c-0.875,1.161-2.064,1.937-3.386,2.523
						c-0.595,0.264-1.217,0.492-1.824,0.676c-0.828,0.234-1.66,0.399-2.495,0.532c-1.459,0.225-2.963,0.251-4.431,0.114
						c-1.483-0.149-2.98-0.498-4.389-1.036c-1.221-0.447-2.641-1.318-3.67-2.101c-0.516-0.409-1.002-0.832-1.449-1.315
						c-0.444-0.488-0.871-0.995-1.268-1.525c-0.401-0.531-0.709-1.07-1.045-1.645c-0.084-0.138-0.156-0.277-0.229-0.418
						c-0.16-0.295-0.299-0.611-0.423-0.932c-0.036-0.098-0.097-0.36-0.182-0.419c-0.112-0.075-0.186,0.042-0.178,0.156
						c0.009,0.152,0.066,0.297,0.12,0.447c0.069,0.186,0.11,0.31,0.186,0.483c0.275,0.652,0.647,1.275,0.948,1.919
						c0.186,0.366,0.275,0.802,0.034,1.161c-0.252,0.36-0.568,0.584-0.934,0.813c-0.718,0.444-1.498,0.782-2.294,1.043
						c-0.499,0.162-1.015,0.273-1.53,0.371c-1.795,0.331-3.692,0.281-5.485-0.098c-1.205-0.247-2.345-0.717-3.38-1.383
						c-2.063-1.311-3.695-3.29-4.762-5.534c-0.531-1.125-0.919-2.321-1.128-3.552c-0.88-5.114,1.752-9.692,5.736-12.711
						C59.854,1.983,66.26,1.85,70.469,5.513c0.636,0.56,0.902,0.843,1.275,1.246c0.483,0.497,0.718,0.072,1.576-0.648
						c2.801-2.342,6.643-3.596,10.255-3.482c4.798,0.158,9.109,2.439,11.517,7.179c1.283,2.528,0.631,2.159,2.632,1.809
						c2.094-0.372,4.17-0.046,6.03,0.909c0.482,0.247,0.943,0.535,1.374,0.868c0.863,0.641,1.622,1.423,2.272,2.294
						c1.306,1.727,2.05,3.806,2.358,5.979C110.052,23.828,109.864,26.097,109.149,28.179z"/>
				</g>
				<g>
					<path fill="#FFFFFF" d="M111.106,25.098c0.321-2.59,0.054-5.3-1.014-7.693c-1.062-2.393-2.935-4.426-5.265-5.601
						c-0.577-0.308-1.186-0.535-1.817-0.711c-0.633-0.178-1.277-0.327-1.918-0.388c-1.292-0.135-2.614,0.034-3.842,0.464
						l-0.472,0.165c-0.078,0.019-0.162,0.058-0.278,0.019c-0.111-0.044-0.163-0.136-0.206-0.201
						c-0.161-0.306-0.265-0.599-0.416-0.893c-0.269-0.592-0.583-1.179-0.917-1.736c-0.655-1.12-1.439-2.181-2.398-3.069
						c-1.914-1.758-4.398-2.842-6.942-3.321c-2.554-0.475-5.216-0.157-7.637,0.752c-1.207,0.451-2.361,1.051-3.436,1.786
						c-0.531,0.364-1.042,0.757-1.526,1.179l-0.362,0.33c-0.065,0.054-0.125,0.115-0.214,0.175
						c-0.039,0.035-0.087,0.059-0.169,0.091c-0.072,0.031-0.197,0.041-0.293,0c-0.167-0.067-0.224-0.149-0.297-0.208L71.52,6.054
						c-0.113-0.125-0.221-0.228-0.331-0.341c-0.457-0.453-0.956-0.859-1.478-1.238c-0.523-0.372-1.066-0.717-1.638-1.004
						c-1.142-0.559-2.391-0.889-3.647-1.034c-2.545-0.273-5.144,0.313-7.419,1.456c-1.141,0.566-2.22,1.27-3.192,2.107
						c-0.971,0.832-1.848,1.764-2.543,2.816c-1.398,2.112-2.25,4.623-2.319,7.131c-0.063,2.513,0.646,5.052,1.879,7.242
						c1.227,2.191,3.104,4.001,5.378,5.045c2.256,1.086,4.858,1.303,7.313,0.843c1.244-0.225,2.414-0.627,3.538-1.233
						c0.565-0.288,1.108-0.61,1.628-0.958l0.396-0.26c0.139-0.096,0.256-0.198,0.472-0.313c0.156-0.091,0.312-0.132,0.532-0.143
						c0.218,0,0.437,0.08,0.574,0.168c0.284,0.191,0.388,0.364,0.501,0.491c0.397,0.499,0.804,0.936,1.271,1.36l0.343,0.307
						l0.386,0.321c0.234,0.174,0.474,0.367,0.739,0.533c1.034,0.706,2.175,1.244,3.37,1.665c1.202,0.411,2.407,0.717,3.668,0.884
						c1.238,0.142,2.516,0.134,3.774-0.022c0.308-0.035,0.612-0.091,0.917-0.145c0.298-0.052,0.586-0.128,0.917-0.219
						c0.15-0.049,0.282-0.089,0.512-0.132c0.133-0.031,0.307-0.058,0.516,0c0.205,0.044,0.377,0.158,0.472,0.252
						c0.225,0.208,0.288,0.308,0.401,0.443l0.315,0.384c0.385,0.529,0.8,0.904,1.287,1.363l0.711,0.646l0.376,0.323
						c0.058,0.054,0.128,0.115,0.21,0.213c0.096,0.093,0.206,0.252,0.267,0.416c0.108,0.329,0.091,0.483,0.1,0.671l0.017,0.494
						c0.02,0.315,0.039,0.64,0.063,0.951c0.046,0.644,0.11,1.299,0.195,1.938c0.136,1.311,0.374,2.5,0.611,3.876
						c0.017,0.086,0.019,0.152,0.013,0.266c-0.013,0.058-0.03,0.128-0.063,0.229c-0.044,0.083-0.13,0.225-0.274,0.313
						c-0.137,0.087-0.309,0.106-0.394,0.097c-0.109-0.01-0.167-0.025-0.229-0.045c-0.101-0.036-0.162-0.089-0.225-0.112
						c-0.115-0.075-0.184-0.142-0.247-0.184l-0.196-0.162l-0.75-0.612c-0.518-0.415-1.043-0.798-1.561-1.182
						c-1.049-0.769-2.116-1.502-3.217-2.178c-2.193-1.361-4.513-2.541-6.922-3.475c-1.199-0.466-2.439-0.884-3.68-1.253
						c-1.245-0.371-2.489-0.67-3.765-0.876c-1.27-0.193-2.543-0.284-3.806-0.158c-0.624,0.065-1.244,0.188-1.842,0.37
						c-0.586,0.189-1.147,0.441-1.618,0.812l-0.036,0.029c-0.022,0.002-0.013,0.028,0.036-0.052
						c0.211-0.457-0.544-0.713-0.323-0.574c-0.013,0,0.007,0,0.015,0l0.216-0.045l0.486-0.114c0.334-0.067,0.651-0.135,0.982-0.19
						c0.668-0.107,1.34-0.159,2.014-0.171c1.34-0.039,2.695,0.143,3.977,0.486c1.269,0.316,2.558,0.574,3.826,0.953
						c1.264,0.383,2.512,0.804,3.741,1.281c2.463,0.955,4.849,2.076,7.104,3.451c2.245,1.361,4.365,2.984,6.221,4.841
						c0.468,0.449,0.906,0.963,1.428,1.301c0.124,0.08,0.252,0.122,0.319,0.063c0.091-0.057,0.098-0.16,0.057-0.302l-0.31-0.918
						c-0.437-1.243-0.85-2.486-1.191-3.759c-0.318-1.266-0.623-2.555-0.732-3.875c-0.026-0.317-0.054-0.659-0.026-0.993
						c0.017-0.162,0.036-0.342,0.125-0.498c0.037-0.084,0.116-0.177,0.221-0.209c0.115-0.022,0.217,0.005,0.299,0.041
						c0.575,0.337,1.155,0.596,1.78,0.809c2.458,0.871,5.202,0.774,7.669-0.089c2.469-0.865,4.697-2.417,6.36-4.442
						C109.778,30.225,110.763,27.693,111.106,25.098z M111.106,25.098c-0.321,2.595-1.299,5.143-2.987,7.162
						c-1.658,2.037-3.882,3.605-6.366,4.487c-2.465,0.882-5.242,1.015-7.754,0.139c-0.62-0.205-1.232-0.476-1.789-0.794
						c-0.294-0.177-0.403,0.233-0.418,0.531c-0.019,0.321,0,0.64,0.028,0.973c0.116,1.297,0.419,2.569,0.763,3.832
						c0.34,1.268,0.759,2.504,1.216,3.726c0.105,0.311,0.222,0.605,0.332,0.935c0.026,0.089,0.045,0.188,0.026,0.302
						c-0.021,0.117-0.085,0.216-0.178,0.278c-0.098,0.075-0.232,0.09-0.342,0.063c-0.104-0.015-0.182-0.063-0.258-0.105
						c-0.588-0.379-1.016-0.867-1.502-1.316c-1.868-1.818-3.985-3.383-6.23-4.692c-2.249-1.329-4.628-2.416-7.073-3.313
						c-1.228-0.445-2.466-0.849-3.717-1.201c-1.245-0.344-2.524-0.583-3.818-0.884c-1.261-0.317-2.523-0.457-3.804-0.414
						c-0.641,0.024-1.273,0.093-1.903,0.201c-0.314,0.046-0.625,0.13-0.938,0.193l-0.473,0.115
						c-0.085,0.021-0.163,0.041-0.261,0.067c-0.03,0.002-0.058,0.002-0.115,0.002c0.189,0.156-0.641-0.105-0.39-0.62
						c0.084-0.104,0.111-0.119,0.123-0.128l0.065-0.044c0.54-0.468,1.195-0.765,1.847-0.971c0.661-0.221,1.333-0.364,2.005-0.438
						c1.355-0.165,2.713-0.102,4.034,0.097c1.316,0.18,2.624,0.487,3.897,0.845c1.284,0.356,2.539,0.755,3.785,1.212
						c2.497,0.934,4.891,2.096,7.146,3.491c1.133,0.689,2.235,1.428,3.305,2.205c0.538,0.39,1.067,0.785,1.586,1.188l0.778,0.619
						l0.191,0.151l0.139,0.105c0.015,0.014,0.03,0.017-0.007,0c-0.022,0-0.132-0.082-0.382,0.063
						c-0.11,0.061-0.171,0.17-0.204,0.209c-0.015,0.07-0.015,0.085-0.024,0.107c0,0.042,0,0.026,0,0.026
						c-0.224-1.204-0.505-2.588-0.646-3.883c-0.078-0.653-0.152-1.307-0.206-1.98c-0.026-0.332-0.052-0.661-0.067-0.999l-0.026-0.49
						c0-0.15-0.022-0.317-0.031-0.306c0,0.021,0.031,0.041,0,0.011c-0.034-0.028-0.08-0.079-0.13-0.133l-0.382-0.32l-0.754-0.661
						c-0.458-0.44-1.004-0.958-1.409-1.487l-0.308-0.377c-0.091-0.121-0.217-0.279-0.247-0.288c-0.022-0.024,0,0.009,0.042,0.009
						c0.057,0.016,0.067,0,0.026,0.016c-0.078,0.017-0.264,0.072-0.409,0.116c-0.319,0.086-0.661,0.188-1.008,0.249
						c-0.341,0.075-0.67,0.123-1.021,0.171c-1.352,0.165-2.708,0.184-4.065,0.039c-1.354-0.17-2.69-0.49-3.96-0.928
						c-1.277-0.459-2.529-1.06-3.665-1.838c-0.278-0.188-0.562-0.405-0.835-0.618l-0.379-0.317l-0.386-0.353
						c-0.494-0.45-0.998-0.973-1.407-1.508c-0.089-0.132-0.19-0.221-0.178-0.208c0,0,0.059,0.034,0.107,0.026
						c0.058-0.007,0.053-0.007,0.067-0.019c-0.083,0.036-0.217,0.14-0.356,0.232l-0.413,0.284c-0.568,0.379-1.165,0.711-1.763,1.018
						c-1.203,0.635-2.536,1.079-3.876,1.322c-2.679,0.49-5.562,0.231-8.046-0.986c-1.233-0.584-2.376-1.368-3.368-2.315
						c-0.254-0.238-0.494-0.475-0.72-0.748c-0.129-0.133-0.225-0.249-0.338-0.378c-0.111-0.136-0.21-0.264-0.315-0.405
						c-0.216-0.268-0.398-0.548-0.602-0.845c-0.168-0.269-0.353-0.583-0.52-0.872c-0.671-1.192-1.165-2.447-1.485-3.779
						c-0.325-1.32-0.484-2.668-0.432-4.042c0.125-2.734,1.067-5.376,2.606-7.596c0.759-1.125,1.702-2.105,2.742-2.965
						c1.047-0.846,2.17-1.58,3.391-2.161c2.415-1.161,5.154-1.716,7.832-1.4c1.339,0.165,2.638,0.542,3.849,1.158
						c0.601,0.311,1.162,0.686,1.7,1.076c0.529,0.391,1.047,0.833,1.515,1.311c0.125,0.119,0.237,0.25,0.349,0.375l0.156,0.171
						c0.05,0.048,0.107,0.089,0.085,0.089c-0.011-0.013-0.041-0.013-0.041,0c0,0,0.026-0.019,0.041-0.036
						c0.043-0.035,0.112-0.089,0.169-0.133l0.377-0.319c0.51-0.438,1.04-0.841,1.589-1.201c1.108-0.726,2.308-1.332,3.546-1.779
						c2.499-0.91,5.251-1.171,7.843-0.648c2.588,0.516,5.071,1.676,7.01,3.473c0.975,0.904,1.762,1.979,2.425,3.119
						c0.332,0.57,0.629,1.147,0.912,1.744c0.133,0.303,0.257,0.609,0.399,0.895c0.08,0.147,0.161,0.171,0.317,0.11l0.466-0.156
						c1.258-0.431,2.585-0.596,3.908-0.452c0.657,0.082,1.297,0.231,1.921,0.411c0.634,0.178,1.253,0.416,1.84,0.717
						c2.345,1.212,4.212,3.269,5.265,5.672C111.191,19.79,111.437,22.508,111.106,25.098z"/>
					<path fill="#FFFFFF" d="M109.149,28.179c-1.244,3.661-4.314,6.583-7.925,7.903c-1.81,0.646-3.778,0.93-5.69,0.62
						c-1.917-0.362-3.688-1.263-5.229-2.426c-0.774-0.58-1.498-1.235-2.088-2.026c-0.065-0.102-0.141-0.219-0.167-0.363
						c-0.038-0.123-0.028-0.339,0.115-0.446c0.242-0.167,0.466-0.234,0.683-0.334c0.414-0.21,0.862-0.425,1.257-0.665
						c0.8-0.507,1.604-1.064,2.237-1.755c0.622-0.69,1.204-1.47,1.448-2.352c0.019-0.041,0.024-0.106,0.024-0.121
						c0,0-0.002,0,0.003,0.021c0,0,0.039,0.1,0.135,0.111c0.103,0.015,0.115-0.017,0.119-0.017c0.008-0.007,0.008-0.007,0.008-0.007
						c-0.024,0.039-0.097,0.18-0.138,0.279c-0.117,0.225-0.227,0.432-0.364,0.647c-0.271,0.433-0.561,0.822-0.902,1.19
						c-0.683,0.718-1.515,1.296-2.391,1.74c-1.737,0.914-3.688,1.377-5.62,1.628c-1.953,0.232-3.911,0.171-5.86-0.243
						c-0.973-0.193-1.903-0.475-2.83-0.845c-0.939-0.377-1.793-0.866-2.617-1.411c-0.399-0.264-0.823-0.572-1.195-0.869
						c-0.396-0.334-0.765-0.664-1.112-1.023c-0.667-0.731-1.32-1.459-1.866-2.318c-0.274-0.431-0.512-0.835-0.759-1.27
						c-0.23-0.399-0.498-0.976-0.62-1.37c0,0-0.009-0.016,0,0.013c0.015-0.013,0.056,0.086,0.179,0.137
						c0-0.015-0.069-0.015,0.089,0.03c0.115,0.009,0.193,0,0.274-0.044c0.151-0.071,0.21-0.169,0.225-0.215
						c0.042-0.096,0.011-0.221,0.027-0.102c0.015,0.071,0.021,0.046,0.028,0.093c0.019,0.046,0.032,0.082,0.045,0.139l0.07,0.171
						l0.117,0.305c0.193,0.421,0.407,0.809,0.629,1.249l0.34,0.667c0.126,0.262,0.247,0.577,0.232,0.965
						c-0.01,0.189-0.065,0.396-0.153,0.572c-0.017,0.052-0.045,0.093-0.07,0.132l-0.048,0.079l-0.034,0.037
						c-0.033,0.033-0.067,0.091-0.126,0.159c-0.212,0.256-0.437,0.435-0.665,0.581c-0.115,0.081-0.223,0.149-0.335,0.221
						c-0.097,0.06-0.188,0.121-0.305,0.184c-0.241,0.133-0.464,0.249-0.696,0.353c-0.464,0.222-0.925,0.395-1.411,0.556
						c-1.935,0.602-3.984,0.752-5.973,0.512c-0.997-0.124-2.002-0.322-2.961-0.702c-0.951-0.367-1.856-0.893-2.664-1.478
						c-1.637-1.225-2.946-2.827-3.909-4.587c-0.945-1.76-1.57-3.733-1.689-5.757c-0.125-2.043,0.297-4.101,1.146-5.933
						c0.835-1.843,2.095-3.446,3.551-4.808c0.754-0.667,1.505-1.287,2.371-1.829c0.86-0.527,1.793-0.951,2.745-1.27
						c3.808-1.274,8.256-0.651,11.429,1.87c0.397,0.31,0.757,0.635,1.11,0.989c0.18,0.179,0.351,0.358,0.516,0.537
						c0.084,0.083,0.169,0.188,0.227,0.234c0.046,0.042,0.057,0.033,0.02,0.033s0.026-0.009,0.1-0.063
						c0.07-0.052,0.162-0.121,0.246-0.202c0.178-0.15,0.356-0.319,0.555-0.483c0.384-0.297,0.783-0.6,1.203-0.874
						c1.65-1.088,3.507-1.836,5.429-2.25c1.924-0.414,3.908-0.464,5.849-0.136c1.938,0.315,3.813,1.029,5.415,2.157
						c1.621,1.103,2.942,2.62,3.895,4.313c0.236,0.421,0.455,0.863,0.655,1.286c0.213,0.438,0.379,0.904,0.625,1.291
						c0.07,0.085,0.125,0.133,0.206,0.16c0.095,0.009,0.199,0,0.323-0.026l0.704-0.133c0.466-0.102,0.959-0.167,1.44-0.197
						c1.94-0.123,3.912,0.379,5.556,1.396c1.654,1.018,2.981,2.502,3.928,4.183c0.934,1.695,1.432,3.597,1.593,5.514
						C110.005,24.399,109.778,26.362,109.149,28.179z M109.149,28.179c0.62-1.817,0.846-3.78,0.683-5.695
						c-0.176-1.915-0.675-3.815-1.615-5.501c-0.943-1.663-2.289-3.117-3.936-4.108c-1.637-0.975-3.583-1.438-5.495-1.303
						c-0.461,0.035-0.938,0.109-1.411,0.211l-0.708,0.16c-0.105,0.022-0.245,0.048-0.391,0.022
						c-0.162-0.019-0.287-0.133-0.359-0.243c-0.285-0.438-0.451-0.876-0.669-1.303c-0.212-0.433-0.438-0.853-0.684-1.268
						C93.607,7.515,92.28,6.087,90.7,5.045c-1.578-1.051-3.4-1.694-5.267-1.969c-1.864-0.28-3.796-0.189-5.626,0.255
						c-1.831,0.426-3.592,1.193-5.139,2.252c-0.388,0.268-0.742,0.542-1.101,0.852c-0.177,0.158-0.355,0.304-0.531,0.475
						c-0.093,0.074-0.188,0.174-0.308,0.256c-0.119,0.089-0.266,0.206-0.547,0.223c-0.292,0.018-0.513-0.127-0.633-0.227
						c-0.132-0.115-0.191-0.204-0.288-0.288c-0.162-0.165-0.331-0.342-0.496-0.496c-0.339-0.323-0.689-0.633-1.06-0.902
						c-1.467-1.11-3.241-1.815-5.061-2.05c-1.833-0.254-3.711-0.05-5.439,0.544c-0.88,0.292-1.712,0.687-2.479,1.179
						c-0.765,0.483-1.498,1.096-2.172,1.725c-1.35,1.275-2.463,2.792-3.227,4.455c-0.76,1.662-1.128,3.491-1.008,5.31
						c0.015,0.229,0.036,0.453,0.056,0.67c0.035,0.211,0.071,0.49,0.121,0.676c0.072,0.455,0.189,0.898,0.321,1.34
						c0.26,0.871,0.628,1.723,1.062,2.536c0.871,1.615,2.057,3.074,3.515,4.166c1.458,1.114,3.156,1.755,4.995,1.953
						c1.838,0.229,3.709,0.125,5.471-0.397c0.86-0.267,1.698-0.641,2.449-1.125c0.172-0.111,0.321-0.243,0.434-0.361
						c0.162-0.195,0.145-0.173,0.162-0.292c0.006-0.11-0.018-0.247-0.106-0.427l-0.317-0.615c-0.215-0.431-0.455-0.877-0.644-1.342
						c-0.05-0.121-0.095-0.241-0.141-0.366l-0.052-0.175c-0.021-0.065-0.042-0.135-0.074-0.202
						c-0.019-0.071-0.041-0.221-0.048-0.254c0-0.009-0.063-0.249,0.037-0.47c0.043-0.093,0.126-0.251,0.331-0.347
						c0.111-0.05,0.226-0.068,0.371-0.05c0.189,0.05,0.149,0.05,0.169,0.05c0.184,0.089,0.26,0.209,0.301,0.271
						c0.048,0.076,0.063,0.111,0.091,0.167c0.156,0.522,0.293,0.833,0.536,1.285c0.221,0.394,0.459,0.826,0.694,1.218
						c0.238,0.397,0.503,0.755,0.802,1.133c0.278,0.373,0.592,0.719,0.902,1.08c0.31,0.338,0.651,0.655,0.989,0.943
						c0.379,0.312,0.728,0.588,1.121,0.863c0.765,0.533,1.593,1.012,2.433,1.375c0.852,0.36,1.754,0.65,2.679,0.863
						c1.808,0.432,3.75,0.537,5.616,0.349c1.884-0.203,3.753-0.615,5.458-1.45c0.833-0.413,1.626-0.931,2.281-1.601
						c0.324-0.33,0.621-0.702,0.864-1.094c0.132-0.183,0.245-0.4,0.35-0.593c0.071-0.117,0.091-0.203,0.201-0.364
						c0.019-0.02,0.043-0.045,0.078-0.07c0.032-0.021,0.065-0.056,0.197-0.052c0.136,0.026,0.193,0.152,0.193,0.174
						c0.015,0.054,0.015,0.082,0.015,0.11c0,0.107-0.026,0.171-0.038,0.235c-0.668,1.953-2.276,3.279-3.938,4.231
						c-0.429,0.26-0.854,0.463-1.299,0.667c-0.221,0.094-0.46,0.176-0.629,0.274c-0.115,0.077-0.046,0.318,0.08,0.509
						c0.538,0.748,1.25,1.433,2.006,2.001c1.523,1.171,3.251,2.085,5.143,2.465c1.881,0.325,3.852,0.078,5.656-0.566
						C104.815,34.73,107.891,31.84,109.149,28.179z"/>
				</g>
			</g>
		</g>
		<g>
			<g>
				<path fill="#FFFFFF" d="M95.467,94.177c-0.375,0.137-1.132,0.358-2.038,0.358c-0.995,0-1.817-0.257-2.469-0.872
					c-0.568-0.542-0.928-1.446-0.928-2.467c0.019-1.97,1.372-3.425,3.59-3.425c0.779,0,1.365,0.171,1.652,0.313l-0.206,0.696
					c-0.353-0.16-0.796-0.282-1.461-0.282c-1.615,0-2.664,1.005-2.664,2.653c0,1.686,1.01,2.681,2.553,2.681
					c0.559,0,0.939-0.08,1.142-0.179v-1.982h-1.35v-0.676h2.179V94.177z"/>
				<path fill="#FFFFFF" d="M105.319,92.383l-0.683,2.082h-0.889l2.251-6.618h1.033l2.261,6.618h-0.914l-0.711-2.082H105.319z
					 M107.493,91.712l-0.647-1.901c-0.152-0.425-0.252-0.822-0.345-1.206h-0.017c-0.1,0.395-0.208,0.788-0.33,1.191l-0.652,1.916
					H107.493z"/>
				<path fill="#FFFFFF" d="M117.624,93.425c0.38,0.238,0.941,0.436,1.529,0.436c0.876,0,1.389-0.459,1.389-1.135
					c0-0.613-0.357-0.97-1.251-1.314c-1.084-0.387-1.747-0.933-1.747-1.881c0-1.03,0.856-1.793,2.139-1.793
					c0.681,0,1.169,0.16,1.466,0.313l-0.24,0.709c-0.215-0.124-0.661-0.312-1.257-0.312c-0.9,0-1.236,0.54-1.236,0.99
					c0,0.62,0.394,0.928,1.313,1.278c1.11,0.435,1.679,0.971,1.679,1.945c0,1.028-0.757,1.908-2.316,1.908
					c-0.645,0-1.332-0.188-1.693-0.423L117.624,93.425z"/>
				<path fill="#FFFFFF" d="M131.311,88.576h-2.021v-0.729h4.914v0.729h-2.027v5.89h-0.865V88.576z"/>
				<path fill="#FFFFFF" d="M142.415,87.933c0.433-0.086,1.049-0.14,1.639-0.14c0.908,0,1.504,0.171,1.915,0.544
					c0.33,0.297,0.518,0.752,0.518,1.261c0,0.881-0.546,1.445-1.244,1.688v0.028c0.514,0.18,0.818,0.646,0.971,1.338
					c0.217,0.921,0.378,1.566,0.512,1.813h-0.884c-0.105-0.187-0.26-0.754-0.447-1.576c-0.189-0.917-0.546-1.261-1.322-1.283h-0.809
					v2.859h-0.849V87.933z M143.263,90.945h0.88c0.91,0,1.5-0.497,1.5-1.249c0-0.853-0.625-1.227-1.53-1.239
					c-0.419,0-0.707,0.042-0.85,0.078V90.945z"/>
				<path fill="#FFFFFF" d="M160.833,91.09c0,2.281-1.391,3.492-3.076,3.492c-1.754,0-2.979-1.353-2.979-3.374
					c0-2.096,1.307-3.471,3.081-3.471C159.659,87.738,160.833,89.121,160.833,91.09z M155.697,91.197
					c0,1.412,0.761,2.684,2.107,2.684c1.357,0,2.125-1.247,2.125-2.753c0-1.316-0.693-2.691-2.111-2.691
					C156.396,88.436,155.697,89.745,155.697,91.197z"/>
				<path fill="#FFFFFF" d="M169.417,94.465v-6.618h0.932l2.129,3.35c0.492,0.775,0.865,1.466,1.183,2.154l0.026-0.011
					c-0.085-0.886-0.101-1.686-0.101-2.722v-2.771h0.8v6.618h-0.865l-2.1-3.36c-0.466-0.734-0.908-1.486-1.232-2.209l-0.026,0.01
					c0.035,0.839,0.056,1.631,0.056,2.74v2.819H169.417z"/>
				<path fill="#FFFFFF" d="M189.013,91.09c0,2.281-1.385,3.492-3.076,3.492c-1.751,0-2.978-1.353-2.978-3.374
					c0-2.096,1.307-3.471,3.079-3.471C187.843,87.738,189.013,89.121,189.013,91.09z M183.875,91.197
					c0,1.412,0.763,2.684,2.116,2.684c1.357,0,2.124-1.247,2.124-2.753c0-1.316-0.69-2.691-2.116-2.691
					C184.588,88.436,183.875,89.745,183.875,91.197z"/>
				<path fill="#FFFFFF" d="M203.179,91.562c-0.04-0.926-0.115-2.04-0.086-2.866h-0.038c-0.229,0.787-0.508,1.605-0.842,2.513
					l-1.165,3.22H200.4l-1.073-3.151c-0.319-0.93-0.577-1.791-0.771-2.581h-0.013c-0.022,0.826-0.071,1.94-0.134,2.933l-0.178,2.837
					h-0.809l0.468-6.618h1.088l1.125,3.196c0.271,0.825,0.498,1.547,0.675,2.243h0.022c0.167-0.678,0.407-1.404,0.702-2.243
					l1.179-3.196h1.091l0.408,6.618h-0.833L203.179,91.562z"/>
				<path fill="#FFFFFF" d="M214.836,86.337l-1.251,1.157h-0.707l0.913-1.157H214.836z M213.83,87.847v6.618h-0.858v-6.618H213.83z"
					/>
				<path fill="#FFFFFF" d="M223.86,92.383l-0.681,2.082h-0.888l2.253-6.618h1.029l2.257,6.618h-0.92l-0.69-2.082H223.86z
					 M226.034,91.712l-0.645-1.901c-0.154-0.425-0.247-0.822-0.341-1.206h-0.03c-0.087,0.395-0.198,0.788-0.334,1.191l-0.642,1.916
					H226.034z"/>
			</g>
		</g>
		<g>
			<path fill="#FFFFFF" d="M1.651,79.667c0-0.632,0.315-0.944,0.945-1.111c4.426-1.104,4.745,7.275,5.375,7.587
				c6.49,5.377,20.243,7.906,30.676,7.906c20.872,0,48.694-11.854,48.694-35.57c0-10.429-5.857-18.492-16.766-19.446
				c-5.058,0-9.009,0.162-13.276,3.955c-2.05,1.748-2.523,6.648-3.163,10.593c4.427-6.954,8.065-12.168,8.065-12.168
				c0.474-0.956,0.943-1.114,1.418-1.114c1.114,0,1.741,1.903,1.741,2.688c0,1.268-0.627,2.374-0.627,2.374l-9.958,14.709
				C40.395,80.619,39.91,88.206,39.91,89.147c0,1.273-0.789,1.582-1.264,1.582c-1.27,0-1.426-0.626-1.426-1.267
				c0-6.801,7.436-21.175,15.015-32.88c0-3.154,0.312-12.021,4.117-15.171c4.585-3.965,9.648-4.595,14.856-4.281
				c11.077,0.64,20.711,8.07,20.711,21.347c0,25.294-30.667,37.94-52.484,37.94c-6.481,0-12.962-0.959-18.971-2.677
				C14.928,92.787,1.651,87.252,1.651,79.667z"/>
		</g>
	</g>
</g>
<g id="Guia">
</g>
</svg>
