<?xml version="1.0" encoding="utf-8"?>
<!-- Generator: Adobe Illustrator 16.0.0, SVG Export Plug-In . SVG Version: 6.00 Build 0)  -->
<!DOCTYPE svg PUBLIC "-//W3C//DTD SVG 1.1//EN" "http://www.w3.org/Graphics/SVG/1.1/DTD/svg11.dtd">
<svg version="1.1" xmlns="http://www.w3.org/2000/svg" xmlns:xlink="http://www.w3.org/1999/xlink" x="0px" y="0px" width="237px"
	 height="102px" viewBox="0 0 237 102" enable-background="new 0 0 237 102" xml:space="preserve">
<g id="Soporte">
</g>
<g id="Publicidad">
</g>
<g id="Iconos">
</g>
<g id="Imagenes">
</g>
<g id="Cintillos">
</g>
<g id="Botones">
</g>
<g id="TXT">
</g>
<g id="Logo">
	<g>
		<g>
			<path fill="#303030" d="M116.626,69.461c0.457,0.31-0.759,2.578-1.817,3.939c-2.882,3.345-4.694,4.703-8.341,6.836
				c-3.332,1.815-12.124,6.366-13.949,0c-1.815-6.836,8.037-21.382,14.554-24.423c2.28-1.218,5.31-1.218,6.377,1.673
				c3.633,10.158-9.406,15.312-16.075,18.498c-0.611,0.143-1.071,0.302-1.667,0.466c-0.613,1.653-0.759,3.17-0.457,4.388
				c0.908,1.973,7.426-0.602,10.313-2.432c4.095-2.569,4.999-3.487,7.728-6.211C114.206,70.828,116.023,69.166,116.626,69.461z
				 M96.764,74.016c6.971-2.885,16.686-7.889,14.857-15.161c-0.455-0.913-2.118,0-3.634,1.209
				C103.592,63.101,99.339,68.703,96.764,74.016z"/>
			<path fill="#303030" d="M114.35,80.236c0,1.053,0.613,1.206,1.21,1.206c2.733,0,10.917-6.523,10.917-6.824
				c0.16-0.153,1.068-0.3,1.068,0.153c0.147,0.911-1.068,1.819-1.068,1.819c-8.335,7.273-10.917,6.82-11.214,6.82
				c-3.643,0.155-3.336-3.336-3.336-3.336c0-11.671,26.382-43.219,27.295-43.219c0.598-0.596,1.062-0.752,1.359-0.752
				c1.065,0,1.367,1.523,1.367,2.121c0,1.365-0.76,2.583-0.76,2.583l-10.769,13.193C114.657,75.078,114.35,79.018,114.35,80.236z"/>
			<path fill="#303030" d="M149.225,69.461c0.458,0.31-0.754,2.578-1.816,3.939c-2.875,3.345-4.7,4.703-8.335,6.836
				c-3.338,1.815-12.141,6.366-13.958,0c-1.818-6.836,8.033-21.382,14.563-24.423c2.269-1.218,5.306-1.218,6.357,1.673
				c3.647,10.158-9.392,15.312-16.067,18.498c-0.602,0.143-1.061,0.302-1.669,0.466c-0.606,1.653-0.753,3.17-0.449,4.388
				c0.904,1.973,7.422-0.602,10.307-2.432c4.095-2.569,5.005-3.487,7.735-6.211C146.808,70.828,148.624,69.166,149.225,69.461z
				 M129.367,74.016c6.971-2.885,16.669-7.889,14.857-15.161c-0.457-0.913-2.131,0-3.643,1.209
				C136.193,63.101,131.938,68.703,129.367,74.016z M138.461,51.418c-0.753,0-1.218-0.158-1.218-0.158c0-0.143,0-0.143,0.152-0.143
				c4.396-1.212,4.396-6.365,8.944-6.365c0.921,0,1.367,0.445,1.367,1.208C147.707,49.599,140.281,51.418,138.461,51.418z"/>
			<path fill="#303030" d="M159.838,55.203c0.759,0,1.066,0.315,1.066,0.917c0,0.605-0.459,1.366-0.611,1.514
				c-12.129,16.685-13.197,21.532-13.197,21.532c-0.139,0.454-0.139,0.76-0.139,1.07c0,1.053,0.75,1.206,1.207,1.206
				c2.268,0.3,10.917-6.523,10.917-6.824c0.304-0.153,0.611-0.153,0.757-0.153c0.154,0,0.307,0.153,0.307,0.307
				c0,0.598-1.064,1.819-1.064,1.819c-7.888,6.976-10.917,6.82-11.224,6.82c-3.481-0.144-3.323-3.336-3.323-3.336
				c0-5.457,4.239-13.493,10.454-22.441C155.899,56.573,158.166,55.203,159.838,55.203z M159.993,50.2
				c0-2.111,2.424-5.448,4.089-5.448c0.611,0,1.067,0.445,1.067,1.369c0,2.422-2.428,5.451-3.942,5.451
				c-0.303,0-0.455,0-0.609-0.154C160.145,51.26,159.993,50.814,159.993,50.2z"/>
			<path fill="#303030" d="M186.978,38.226c0,1.365-0.763,2.583-0.763,2.583l-9.388,11.528h1.053c0.761,0,2.125,0,2.125,0.902
				c0,1.063-1.364,1.063-2.125,1.063h-2.566c-15.475,20.776-15.928,24.563-15.928,25.935c0,1.053,0.752,1.206,1.207,1.206
				c2.876,0.3,10.929-6.523,10.929-6.824c0.297-0.153,0.6-0.153,0.747-0.153c0.154,0,0.307,0.153,0.307,0.307
				c0,0.911-1.053,1.819-1.053,1.819c-8.957,7.887-10.929,6.82-11.228,6.82c-3.642,0-3.335-3.336-3.335-3.336
				c0-6.06,5.764-16.07,13.038-25.773h-6.527c-0.904,0-1.964,0-1.964-1.063c0-0.902,1.061-0.902,1.964-0.902h8.053
				c11.061-14.563,13.183-16.378,13.788-16.378C186.373,35.959,186.978,37.007,186.978,38.226z"/>
			<path fill="#303030" d="M194.262,69.461c0.447,0.31-0.764,2.578-1.828,3.939c-2.879,3.345-4.7,4.703-8.335,6.836
				c-3.332,1.815-12.128,6.366-13.947,0c-1.83-6.836,8.034-21.382,14.552-24.423c2.274-1.218,5.308-1.218,6.369,1.673
				c3.637,10.158-9.408,15.312-16.08,18.498c-0.596,0.143-1.052,0.302-1.652,0.466c-0.617,1.653-0.769,3.17-0.46,4.388
				c0.9,1.973,7.424-0.602,10.303-2.432c4.1-2.569,5.008-3.487,7.738-6.211C191.828,70.828,193.65,69.166,194.262,69.461z
				 M174.396,74.016c6.972-2.885,16.676-7.889,14.854-15.161c-0.453-0.913-2.129,0-3.637,1.209
				C181.215,63.101,176.97,68.703,174.396,74.016z"/>
			<path fill="#303030" d="M185.309,75.233c0-2.738,2.273-5.463,5.458-5.463c0.604,0,1.515,0.154,2.272,0.447
				c1.972-2.573,4.253-4.698,9.703-13.645c0.15-0.147-0.906-2.271,2.276-1.664c3.646,0.754,5.155,16.532,1.062,22.74
				c2.269,0.151,5.912-1.665,6.371-1.665c0.152,0,0.152,0,0.152,0.143c0,0.618-3.039,3.349-6.684,3.349
				c-0.293,0-0.755,0-1.053-0.157c-3.788,4.093-6.369,3.789-9.406,3.949c-3.633,0.144-7.277-1.525-9.246-4.861
				C185.613,77.352,185.309,76.45,185.309,75.233z M190.912,71.59c-1.662,0-3.63,2.119-3.63,4.247c0,0.29,0,0.449,0.153,0.754
				c1.049-1.357,2.721-3.19,4.236-4.851C191.371,71.74,191.225,71.59,190.912,71.59z M187.733,77.504
				c1.212,2.116,4.853,3.785,7.886,3.785c2.879,0,4.852-1.363,6.064-3.186c-2.883-1.513-5.914-3.785-8.339-5.455
				C191.371,74.618,189.25,76.45,187.733,77.504z M194.709,71.131c2.725,1.82,5.609,4.103,8.184,5.319
				c2.734-4.71,1.975-16.84,0.765-16.991c-2.578,3.791-5.312,7.877-8.196,10.911C195.164,70.682,195.011,70.979,194.709,71.131z"/>
			<path fill="#303030" d="M234.135,69.461c0.453,0.31-0.758,2.578-1.824,3.939c-2.877,3.345-4.699,4.703-8.35,6.836
				c-3.33,1.815-12.12,6.366-13.936,0c-1.819-6.836,8.031-21.382,14.551-24.423c2.271-1.218,5.306-1.218,6.375,1.673
				c3.637,10.158-9.405,15.312-16.071,18.498c-0.611,0.143-1.067,0.302-1.675,0.466c-0.61,1.653-0.754,3.17-0.457,4.388
				c0.91,1.973,7.438-0.602,10.318-2.432c4.09-2.569,4.992-3.487,7.723-6.211C231.703,70.828,233.523,69.166,234.135,69.461z
				 M214.269,74.016c6.979-2.885,16.683-7.889,14.857-15.161c-0.451-0.913-2.118,0-3.637,1.209
				C221.09,63.101,216.848,68.703,214.269,74.016z"/>
		</g>
		<g>
			<path fill="#FFFEFD" d="M80.283,86.107c-1.605,1.251-3.23,2.352-4.801,3.309c-6.033,3.67-13.23,6.426-20.64,8.021h178.795V86.107
				H80.283z"/>
		</g>
		<g>
			<g>
				<g>
					<path fill="#303030" d="M112.29,26.612c0.152-1.196,0.173-2.402,0.062-3.6c-0.054-0.595-0.15-1.201-0.281-1.784
						c-0.143-0.592-0.308-1.173-0.531-1.741c-0.226-0.568-0.48-1.125-0.781-1.656c-0.15-0.272-0.314-0.527-0.49-0.794
						c-0.074-0.106-0.173-0.243-0.262-0.358c-0.096-0.134-0.186-0.254-0.278-0.364c-0.767-0.948-1.669-1.793-2.692-2.466
						c-0.507-0.324-1.038-0.625-1.599-0.865c-0.272-0.116-0.551-0.213-0.834-0.3c-1.799-0.566-3.176-0.759-5.012-0.39
						c-2.565,0.504-1.489,1.295-2.824-1.292c-0.573-1.108-1.232-2.186-2.039-3.132c-1.629-1.911-3.85-3.222-6.235-3.949
						c-1.05-0.324-2.149-0.549-3.249-0.619c-3.525-0.253-7.093,0.881-9.98,2.917c-2.967,2.091-1.029,1.994-3.88-0.215
						c-0.683-0.522-1.388-0.989-2.175-1.372c-1.224-0.592-2.708-0.969-4.063-1.048c-4.345-0.304-8.624,1.663-11.601,4.705
						c-1.929,1.964-3.245,4.634-3.72,7.288c-0.24,1.339-0.269,2.705-0.082,4.081c0.176,1.358,0.557,2.683,1.092,3.94
						c0.278,0.635,0.594,1.246,0.948,1.83c0.313,0.516,0.672,1.021,1.055,1.492c1.444,1.772,3.312,3.068,5.465,3.835
						c3.028,1.082,6.802,0.813,9.702-0.577c1.793-0.865,2.597-1.529,2.957-1.745c0.407-0.253,0.622-0.034,0.884,0.298
						c0.527,0.672,1.062,1.223,1.707,1.763c1.038,0.919,2.237,1.649,3.505,2.19c1.26,0.548,2.593,0.955,3.959,1.209
						c1.359,0.25,2.547,0.305,3.96,0.217c0.706-0.033,1.63-0.154,2.312-0.309c0.356-0.095,0.543-0.145,0.931-0.256
						c0.264-0.086,0.431-0.091,0.643,0.111c0.136,0.123,0.795,0.979,0.943,1.143c0.145,0.153,0.292,0.302,0.444,0.458
						c0.536,0.532,1.082,1.019,1.648,1.499c0.707,0.62,0.078,0.179,0.842,5.602c0.082,0.576,0.42,2.277,0.451,2.521
						c0.048,0.25-0.007,0.404-0.272,0.223c-0.132-0.086-0.86-0.69-1.079-0.863c-0.453-0.342-0.911-0.7-1.37-1.039
						c-0.457-0.341-0.928-0.673-1.402-1c-2.01-1.392-4.146-2.645-6.373-3.69c-1.114-0.521-2.255-0.998-3.423-1.411
						c-1.168-0.419-2.33-0.788-3.513-1.121c-1.185-0.324-2.395-0.592-3.63-0.769c-1.234-0.171-2.497-0.237-3.758-0.095
						c-0.635,0.082-1.274,0.203-1.881,0.403c-0.154,0.062-0.299,0.107-0.462,0.173c-0.137,0.054-0.307,0.121-0.45,0.2
						c-0.3,0.149-0.586,0.325-0.859,0.54c-0.531,0.438,2.813-1.175,7.238-0.105c1.489,0.365,2.998,0.641,4.452,1.082
						c1.277,0.39,2.563,0.818,3.82,1.308c4.399,1.692,8.61,4.011,12.095,7.204c1.576,1.448,2.384,2.508,2.801,2.128
						c0.164-0.144,0.093-0.395,0.022-0.581c-0.089-0.235-0.18-0.46-0.262-0.7c-0.247-0.709-0.507-1.407-0.733-2.13
						c-0.245-0.799-0.475-1.613-0.689-2.424c-0.189-0.813-0.364-1.64-0.477-2.484c-0.03-0.203-0.046-0.424-0.068-0.637
						c-0.024-0.338-0.195-1.975,0.568-1.525c0.143,0.096,0.301,0.171,0.455,0.248c1.055,0.518,2.2,0.867,3.368,1.022
						c1.169,0.153,2.369,0.126,3.527-0.071c2.344-0.418,4.541-1.463,6.39-2.963c0.924-0.741,1.756-1.604,2.471-2.563
						c0.707-0.955,1.294-2.02,1.719-3.157C111.844,28.972,112.137,27.797,112.29,26.612z M110.333,29.694
						c-0.707,2.071-2.027,3.945-3.713,5.392c-1.681,1.446-3.72,2.521-5.91,2.97c-1.09,0.237-2.217,0.303-3.34,0.203
						c-1.102-0.107-2.131-0.448-3.162-0.918c-0.516-0.23-1.018-0.498-1.485-0.809c-0.479-0.299-0.954-0.637-1.392-0.984
						c-0.451-0.348-0.847-0.702-1.235-1.109c-0.282-0.312-1.104-1.156-0.612-1.431c0.29-0.162,0.535-0.22,0.822-0.366
						c0.301-0.154,0.598-0.287,0.887-0.464c0.589-0.341,1.151-0.712,1.679-1.134c0.169-0.133,0.319-0.273,0.464-0.397
						c0.401-0.379,0.745-0.788,1.067-1.226c0.326-0.449,0.594-0.919,0.779-1.537c0.081-0.274-0.046-0.295-0.156-0.058
						c-0.061,0.128-0.144,0.29-0.221,0.429c-0.182,0.331-0.379,0.633-0.605,0.926c-0.875,1.161-2.064,1.938-3.386,2.523
						c-0.595,0.264-1.217,0.492-1.824,0.676c-0.828,0.234-1.66,0.399-2.495,0.533c-1.459,0.225-2.963,0.25-4.431,0.113
						c-1.483-0.148-2.98-0.498-4.389-1.036c-1.221-0.447-2.641-1.318-3.67-2.101c-0.516-0.409-1.002-0.832-1.449-1.315
						c-0.444-0.487-0.871-0.995-1.268-1.525c-0.401-0.531-0.709-1.069-1.045-1.645c-0.084-0.138-0.156-0.277-0.229-0.419
						c-0.16-0.295-0.299-0.61-0.423-0.932c-0.036-0.098-0.097-0.359-0.182-0.419c-0.112-0.075-0.186,0.042-0.178,0.155
						c0.009,0.152,0.066,0.297,0.12,0.447c0.069,0.187,0.11,0.311,0.186,0.483c0.275,0.651,0.647,1.274,0.948,1.919
						c0.186,0.367,0.275,0.803,0.034,1.161c-0.252,0.36-0.568,0.585-0.934,0.813c-0.718,0.444-1.498,0.782-2.294,1.044
						c-0.499,0.161-1.015,0.272-1.53,0.371c-1.795,0.33-3.692,0.28-5.485-0.099c-1.205-0.247-2.345-0.717-3.38-1.383
						c-2.063-1.311-3.695-3.29-4.762-5.534c-0.531-1.125-0.919-2.32-1.128-3.552c-0.88-5.114,1.752-9.692,5.736-12.711
						c4.296-3.253,10.703-3.386,14.911,0.277c0.636,0.56,0.902,0.843,1.275,1.245c0.483,0.498,0.718,0.072,1.576-0.647
						c2.801-2.343,6.643-3.597,10.255-3.483c4.798,0.158,9.109,2.439,11.517,7.18c1.283,2.527,0.631,2.158,2.632,1.809
						c2.094-0.372,4.17-0.046,6.03,0.908c0.482,0.247,0.943,0.535,1.374,0.867c0.863,0.641,1.622,1.424,2.272,2.295
						c1.306,1.727,2.05,3.806,2.358,5.979C111.235,25.343,111.047,27.611,110.333,29.694z"/>
				</g>
				<g>
					<path fill="#303030" d="M112.29,26.612c0.321-2.59,0.054-5.301-1.014-7.693c-1.062-2.393-2.935-4.426-5.265-5.601
						c-0.577-0.308-1.186-0.534-1.817-0.711c-0.633-0.179-1.277-0.327-1.918-0.388c-1.292-0.136-2.614,0.033-3.842,0.464
						l-0.472,0.165c-0.078,0.019-0.162,0.058-0.278,0.019c-0.111-0.044-0.163-0.136-0.206-0.199
						c-0.161-0.308-0.265-0.601-0.416-0.894c-0.269-0.593-0.583-1.18-0.917-1.736c-0.655-1.119-1.439-2.182-2.398-3.068
						c-1.914-1.759-4.398-2.843-6.942-3.322c-2.554-0.475-5.216-0.156-7.637,0.752c-1.207,0.451-2.361,1.052-3.436,1.787
						C75.2,6.55,74.689,6.943,74.205,7.365l-0.362,0.33c-0.065,0.055-0.125,0.115-0.214,0.175c-0.039,0.035-0.087,0.059-0.169,0.091
						c-0.072,0.031-0.197,0.041-0.293,0C73,7.894,72.944,7.812,72.87,7.753l-0.167-0.184c-0.113-0.125-0.221-0.229-0.331-0.342
						c-0.457-0.453-0.956-0.859-1.478-1.238c-0.523-0.371-1.066-0.717-1.638-1.004c-1.142-0.559-2.391-0.89-3.647-1.035
						c-2.545-0.272-5.144,0.314-7.419,1.456c-1.141,0.566-2.22,1.27-3.192,2.106c-0.971,0.832-1.848,1.764-2.543,2.816
						c-1.398,2.113-2.25,4.623-2.319,7.131c-0.063,2.514,0.646,5.053,1.879,7.242c1.227,2.191,3.104,4.001,5.378,5.045
						c2.256,1.087,4.858,1.304,7.313,0.844c1.244-0.225,2.414-0.627,3.538-1.233c0.565-0.288,1.108-0.61,1.628-0.958l0.396-0.26
						c0.139-0.096,0.256-0.198,0.472-0.313c0.156-0.091,0.312-0.132,0.532-0.143c0.218,0,0.437,0.079,0.574,0.169
						c0.284,0.191,0.388,0.363,0.501,0.49c0.397,0.498,0.804,0.936,1.271,1.36l0.343,0.307l0.386,0.321
						c0.234,0.174,0.474,0.367,0.739,0.533c1.034,0.705,2.175,1.243,3.37,1.664c1.202,0.41,2.407,0.717,3.668,0.884
						c1.238,0.142,2.516,0.134,3.774-0.022c0.308-0.035,0.612-0.091,0.917-0.145c0.298-0.052,0.586-0.128,0.917-0.219
						c0.15-0.049,0.282-0.09,0.512-0.132c0.133-0.031,0.307-0.058,0.516,0c0.205,0.044,0.377,0.157,0.472,0.253
						c0.225,0.207,0.288,0.308,0.401,0.443l0.315,0.384c0.385,0.529,0.8,0.904,1.287,1.362l0.711,0.646l0.376,0.323
						c0.058,0.054,0.128,0.115,0.21,0.214c0.096,0.093,0.206,0.252,0.267,0.415c0.108,0.329,0.091,0.483,0.1,0.671l0.017,0.494
						c0.02,0.315,0.039,0.639,0.063,0.95c0.046,0.644,0.11,1.3,0.195,1.938c0.136,1.311,0.374,2.501,0.611,3.876
						c0.017,0.086,0.019,0.152,0.013,0.266c-0.013,0.058-0.03,0.128-0.063,0.229c-0.044,0.083-0.13,0.226-0.274,0.313
						c-0.137,0.087-0.309,0.106-0.394,0.097c-0.109-0.01-0.167-0.025-0.229-0.045c-0.101-0.036-0.162-0.089-0.225-0.112
						c-0.115-0.075-0.184-0.142-0.247-0.184l-0.196-0.162l-0.75-0.611c-0.518-0.415-1.043-0.798-1.561-1.183
						c-1.049-0.768-2.116-1.502-3.217-2.178c-2.193-1.36-4.513-2.541-6.922-3.475c-1.199-0.466-2.439-0.884-3.68-1.253
						c-1.245-0.371-2.489-0.671-3.765-0.876c-1.27-0.193-2.543-0.284-3.806-0.158c-0.624,0.064-1.244,0.188-1.842,0.369
						c-0.586,0.189-1.147,0.441-1.618,0.813l-0.036,0.029c-0.022,0.002-0.013,0.027,0.036-0.053
						c0.211-0.457-0.544-0.713-0.323-0.573c-0.013,0,0.007,0,0.015,0l0.216-0.045l0.486-0.113c0.334-0.068,0.651-0.136,0.982-0.19
						c0.668-0.107,1.34-0.16,2.014-0.172c1.34-0.039,2.695,0.144,3.977,0.487c1.269,0.315,2.558,0.573,3.826,0.952
						c1.264,0.383,2.512,0.804,3.741,1.281c2.463,0.954,4.849,2.075,7.104,3.451c2.245,1.36,4.365,2.983,6.221,4.84
						c0.468,0.449,0.906,0.963,1.428,1.301c0.124,0.08,0.252,0.122,0.319,0.063c0.091-0.056,0.098-0.16,0.057-0.302l-0.31-0.918
						c-0.437-1.243-0.85-2.485-1.191-3.759c-0.318-1.266-0.623-2.555-0.732-3.874c-0.026-0.317-0.054-0.659-0.026-0.992
						c0.017-0.163,0.036-0.343,0.125-0.499c0.037-0.084,0.116-0.176,0.221-0.209c0.115-0.022,0.217,0.006,0.299,0.041
						c0.575,0.337,1.155,0.596,1.78,0.809c2.458,0.871,5.202,0.774,7.669-0.089c2.469-0.865,4.697-2.417,6.36-4.442
						C110.962,31.739,111.946,29.209,112.29,26.612z M112.29,26.612c-0.321,2.597-1.299,5.143-2.987,7.162
						c-1.658,2.037-3.882,3.605-6.366,4.487c-2.465,0.882-5.242,1.015-7.754,0.139c-0.62-0.204-1.232-0.476-1.789-0.794
						c-0.294-0.178-0.403,0.233-0.418,0.531c-0.019,0.321,0,0.64,0.028,0.973c0.116,1.297,0.419,2.568,0.763,3.831
						c0.34,1.268,0.759,2.504,1.216,3.727c0.105,0.31,0.222,0.604,0.332,0.934c0.026,0.089,0.045,0.188,0.026,0.302
						c-0.021,0.117-0.085,0.216-0.178,0.278c-0.098,0.075-0.232,0.09-0.342,0.063c-0.104-0.015-0.182-0.063-0.258-0.105
						c-0.588-0.379-1.016-0.867-1.502-1.316c-1.868-1.817-3.985-3.383-6.23-4.691c-2.249-1.329-4.628-2.416-7.073-3.313
						c-1.228-0.445-2.466-0.849-3.717-1.201c-1.245-0.344-2.524-0.583-3.818-0.884c-1.261-0.317-2.523-0.457-3.804-0.414
						c-0.641,0.023-1.273,0.093-1.903,0.201c-0.314,0.046-0.625,0.129-0.938,0.193l-0.473,0.114
						c-0.085,0.021-0.163,0.041-0.261,0.067c-0.03,0.002-0.058,0.002-0.115,0.002c0.189,0.155-0.641-0.104-0.39-0.621
						c0.084-0.104,0.111-0.118,0.123-0.127l0.065-0.045c0.54-0.468,1.195-0.766,1.847-0.971c0.661-0.221,1.333-0.365,2.005-0.439
						c1.355-0.164,2.713-0.102,4.034,0.099c1.316,0.179,2.624,0.485,3.897,0.844c1.284,0.356,2.539,0.755,3.785,1.212
						c2.497,0.934,4.891,2.096,7.146,3.491c1.133,0.689,2.235,1.429,3.305,2.204c0.538,0.391,1.067,0.785,1.586,1.188l0.778,0.619
						l0.191,0.151l0.139,0.105c0.015,0.014,0.03,0.017-0.007,0c-0.022,0-0.132-0.082-0.382,0.063
						c-0.11,0.061-0.171,0.17-0.204,0.209c-0.015,0.07-0.015,0.085-0.024,0.107c0,0.042,0,0.026,0,0.026
						c-0.224-1.204-0.505-2.589-0.646-3.883c-0.078-0.653-0.152-1.307-0.206-1.98c-0.026-0.332-0.052-0.661-0.067-0.999l-0.026-0.49
						c0-0.149-0.022-0.316-0.031-0.306c0,0.021,0.031,0.041,0,0.011c-0.034-0.027-0.08-0.079-0.13-0.133l-0.382-0.32l-0.754-0.66
						c-0.458-0.44-1.004-0.958-1.409-1.487l-0.308-0.377c-0.091-0.12-0.217-0.278-0.247-0.288c-0.022-0.023,0,0.01,0.042,0.01
						c0.057,0.017,0.067,0,0.026,0.017c-0.078,0.015-0.264,0.071-0.409,0.114c-0.319,0.086-0.661,0.188-1.008,0.25
						c-0.341,0.074-0.67,0.122-1.021,0.171c-1.352,0.165-2.708,0.184-4.065,0.038c-1.354-0.17-2.69-0.49-3.96-0.928
						c-1.277-0.459-2.529-1.061-3.665-1.838c-0.278-0.188-0.562-0.404-0.835-0.618L73.141,31l-0.386-0.354
						c-0.494-0.45-0.998-0.973-1.407-1.508c-0.089-0.132-0.19-0.221-0.178-0.208c0,0,0.059,0.033,0.107,0.025
						c0.058-0.006,0.053-0.006,0.067-0.018c-0.083,0.035-0.217,0.139-0.356,0.232l-0.413,0.283c-0.568,0.38-1.165,0.712-1.763,1.018
						c-1.203,0.635-2.536,1.079-3.876,1.322c-2.679,0.49-5.562,0.231-8.046-0.986c-1.233-0.584-2.376-1.367-3.368-2.314
						c-0.254-0.238-0.494-0.476-0.72-0.748c-0.129-0.134-0.225-0.25-0.338-0.379c-0.111-0.136-0.21-0.264-0.315-0.404
						c-0.216-0.269-0.398-0.549-0.602-0.846c-0.168-0.27-0.353-0.582-0.52-0.872c-0.671-1.192-1.165-2.447-1.485-3.779
						c-0.325-1.32-0.484-2.668-0.432-4.042c0.125-2.734,1.067-5.376,2.606-7.596c0.759-1.125,1.702-2.105,2.742-2.965
						c1.047-0.847,2.17-1.58,3.391-2.161c2.415-1.161,5.154-1.716,7.832-1.399c1.339,0.164,2.638,0.541,3.849,1.157
						c0.601,0.311,1.162,0.686,1.7,1.075c0.529,0.392,1.047,0.834,1.515,1.311c0.125,0.119,0.237,0.251,0.349,0.375l0.156,0.172
						c0.05,0.048,0.107,0.088,0.085,0.088c-0.011-0.013-0.041-0.013-0.041,0c0,0,0.026-0.019,0.041-0.035
						c0.043-0.035,0.112-0.089,0.169-0.133l0.377-0.32c0.51-0.438,1.04-0.841,1.589-1.2c1.108-0.726,2.308-1.332,3.546-1.778
						c2.499-0.91,5.251-1.172,7.843-0.648c2.588,0.516,5.071,1.676,7.01,3.473c0.975,0.904,1.762,1.979,2.425,3.119
						c0.332,0.57,0.629,1.147,0.912,1.744c0.133,0.303,0.257,0.608,0.399,0.895c0.08,0.146,0.161,0.17,0.317,0.109l0.466-0.156
						c1.258-0.431,2.585-0.596,3.908-0.451c0.657,0.082,1.297,0.23,1.921,0.41c0.634,0.178,1.253,0.416,1.84,0.717
						c2.345,1.213,4.212,3.27,5.265,5.672C112.375,21.305,112.62,24.022,112.29,26.612z"/>
					<path fill="#303030" d="M110.333,29.694c-1.244,3.66-4.314,6.582-7.925,7.902c-1.81,0.646-3.778,0.93-5.69,0.62
						c-1.917-0.362-3.688-1.263-5.229-2.427c-0.774-0.579-1.498-1.234-2.088-2.025c-0.065-0.102-0.141-0.219-0.167-0.363
						c-0.038-0.123-0.028-0.34,0.115-0.445c0.242-0.168,0.466-0.234,0.683-0.334c0.414-0.211,0.862-0.426,1.257-0.665
						c0.8-0.507,1.604-1.063,2.237-1.755c0.622-0.69,1.204-1.471,1.448-2.352c0.019-0.041,0.024-0.105,0.024-0.121
						c0,0-0.002,0,0.003,0.022c0,0,0.039,0.099,0.135,0.11c0.103,0.015,0.115-0.018,0.119-0.018
						c0.008-0.008,0.008-0.008,0.008-0.008c-0.024,0.04-0.097,0.181-0.138,0.279c-0.117,0.225-0.227,0.432-0.364,0.647
						c-0.271,0.433-0.561,0.822-0.902,1.19c-0.683,0.718-1.515,1.296-2.391,1.739c-1.737,0.913-3.688,1.378-5.62,1.628
						c-1.953,0.232-3.911,0.172-5.86-0.243c-0.973-0.193-1.903-0.476-2.83-0.845c-0.939-0.377-1.793-0.866-2.617-1.41
						c-0.399-0.265-0.823-0.571-1.195-0.869c-0.396-0.334-0.765-0.664-1.112-1.023c-0.667-0.73-1.32-1.459-1.866-2.318
						c-0.274-0.431-0.512-0.836-0.759-1.27c-0.23-0.399-0.498-0.977-0.62-1.371c0,0-0.009-0.016,0,0.014
						c0.015-0.014,0.056,0.086,0.179,0.137c0-0.014-0.069-0.014,0.089,0.03c0.115,0.009,0.193,0,0.274-0.044
						c0.151-0.071,0.21-0.17,0.225-0.216c0.042-0.097,0.011-0.221,0.027-0.103c0.015,0.071,0.021,0.047,0.028,0.094
						c0.019,0.046,0.032,0.082,0.045,0.139l0.07,0.171l0.117,0.305c0.193,0.421,0.407,0.81,0.629,1.249l0.34,0.666
						c0.126,0.262,0.247,0.578,0.232,0.966c-0.01,0.189-0.065,0.396-0.153,0.571c-0.017,0.053-0.045,0.094-0.07,0.134l-0.048,0.077
						l-0.034,0.037c-0.033,0.033-0.067,0.091-0.126,0.158c-0.212,0.257-0.437,0.437-0.665,0.582
						c-0.115,0.08-0.223,0.148-0.335,0.221c-0.097,0.06-0.188,0.121-0.305,0.184c-0.241,0.134-0.464,0.249-0.696,0.354
						c-0.464,0.223-0.925,0.395-1.411,0.557c-1.935,0.602-3.984,0.752-5.973,0.512c-0.997-0.124-2.002-0.322-2.961-0.701
						c-0.951-0.367-1.856-0.893-2.664-1.478c-1.637-1.226-2.946-2.827-3.909-4.586c-0.945-1.762-1.57-3.735-1.689-5.759
						c-0.125-2.043,0.297-4.101,1.146-5.933c0.835-1.843,2.095-3.446,3.551-4.807c0.754-0.668,1.505-1.288,2.371-1.83
						c0.86-0.527,1.793-0.95,2.745-1.271c3.808-1.273,8.256-0.649,11.429,1.87c0.397,0.31,0.757,0.635,1.11,0.989
						c0.18,0.179,0.351,0.358,0.516,0.537c0.084,0.083,0.169,0.188,0.227,0.233c0.046,0.042,0.057,0.033,0.02,0.033
						s0.026-0.009,0.1-0.063c0.07-0.052,0.162-0.121,0.246-0.202c0.178-0.15,0.356-0.32,0.555-0.483
						c0.384-0.297,0.783-0.6,1.203-0.874c1.65-1.088,3.507-1.836,5.429-2.25c1.924-0.414,3.908-0.464,5.849-0.136
						c1.938,0.315,3.813,1.029,5.415,2.157c1.621,1.103,2.942,2.62,3.895,4.313c0.236,0.422,0.455,0.863,0.655,1.286
						c0.213,0.439,0.379,0.904,0.625,1.29c0.07,0.086,0.125,0.134,0.206,0.16c0.095,0.009,0.199,0,0.323-0.026l0.704-0.134
						c0.466-0.101,0.959-0.166,1.44-0.196c1.94-0.122,3.912,0.379,5.556,1.396c1.654,1.018,2.981,2.503,3.928,4.184
						c0.934,1.694,1.432,3.597,1.593,5.515C111.189,25.914,110.962,27.877,110.333,29.694z M110.333,29.694
						c0.62-1.817,0.846-3.78,0.683-5.694c-0.176-1.916-0.675-3.816-1.615-5.503c-0.943-1.661-2.289-3.116-3.936-4.107
						c-1.637-0.974-3.583-1.438-5.495-1.303c-0.461,0.035-0.938,0.109-1.411,0.211l-0.708,0.161
						c-0.105,0.021-0.245,0.047-0.391,0.021c-0.162-0.019-0.287-0.133-0.359-0.243c-0.285-0.438-0.451-0.876-0.669-1.303
						c-0.212-0.432-0.438-0.853-0.684-1.268c-0.958-1.636-2.285-3.063-3.865-4.106c-1.578-1.051-3.4-1.693-5.267-1.969
						c-1.864-0.279-3.796-0.189-5.626,0.255c-1.831,0.427-3.592,1.193-5.139,2.252c-0.388,0.268-0.742,0.542-1.101,0.853
						c-0.177,0.157-0.355,0.304-0.531,0.475c-0.093,0.075-0.188,0.174-0.308,0.256c-0.119,0.09-0.266,0.206-0.547,0.224
						c-0.292,0.019-0.513-0.127-0.633-0.228c-0.132-0.114-0.191-0.203-0.288-0.287c-0.162-0.165-0.331-0.342-0.496-0.496
						c-0.339-0.322-0.689-0.633-1.06-0.902c-1.467-1.109-3.241-1.814-5.061-2.049c-1.833-0.255-3.711-0.051-5.439,0.543
						c-0.88,0.292-1.712,0.688-2.479,1.181c-0.765,0.481-1.498,1.095-2.172,1.724c-1.35,1.276-2.463,2.792-3.227,4.455
						c-0.76,1.662-1.128,3.491-1.008,5.31c0.015,0.229,0.036,0.453,0.056,0.671c0.035,0.211,0.071,0.489,0.121,0.677
						c0.072,0.453,0.189,0.897,0.321,1.339c0.26,0.871,0.628,1.723,1.062,2.536c0.871,1.614,2.057,3.073,3.515,4.166
						c1.458,1.113,3.156,1.754,4.995,1.952c1.838,0.229,3.709,0.125,5.471-0.397c0.86-0.267,1.698-0.641,2.449-1.125
						c0.172-0.11,0.321-0.243,0.434-0.361c0.162-0.195,0.145-0.173,0.162-0.292c0.006-0.109-0.018-0.246-0.106-0.426l-0.317-0.615
						c-0.215-0.432-0.455-0.878-0.644-1.342c-0.05-0.121-0.095-0.242-0.141-0.366l-0.052-0.175
						c-0.021-0.064-0.042-0.135-0.074-0.202c-0.019-0.071-0.041-0.222-0.048-0.255c0-0.009-0.063-0.248,0.037-0.469
						c0.043-0.093,0.126-0.252,0.331-0.348c0.111-0.051,0.226-0.068,0.371-0.051c0.189,0.051,0.149,0.051,0.169,0.051
						c0.184,0.089,0.26,0.209,0.301,0.271c0.048,0.076,0.063,0.111,0.091,0.166c0.156,0.522,0.293,0.834,0.536,1.285
						c0.221,0.395,0.459,0.826,0.694,1.218c0.238,0.397,0.503,0.755,0.802,1.133c0.278,0.373,0.592,0.719,0.902,1.08
						c0.31,0.338,0.651,0.655,0.989,0.943c0.379,0.312,0.728,0.589,1.121,0.863c0.765,0.532,1.593,1.012,2.433,1.377
						c0.852,0.358,1.754,0.648,2.679,0.862c1.808,0.432,3.75,0.536,5.616,0.349c1.884-0.202,3.753-0.614,5.458-1.45
						c0.833-0.412,1.626-0.93,2.281-1.6c0.324-0.33,0.621-0.702,0.864-1.094c0.132-0.184,0.245-0.399,0.35-0.594
						c0.071-0.117,0.091-0.203,0.201-0.364c0.019-0.021,0.043-0.045,0.078-0.07c0.032-0.021,0.065-0.056,0.197-0.052
						c0.136,0.025,0.193,0.151,0.193,0.174c0.015,0.054,0.015,0.082,0.015,0.109c0,0.107-0.026,0.172-0.038,0.236
						c-0.668,1.953-2.276,3.278-3.938,4.23c-0.429,0.26-0.854,0.463-1.299,0.667c-0.221,0.096-0.46,0.176-0.629,0.274
						c-0.115,0.076-0.046,0.317,0.08,0.509c0.538,0.748,1.25,1.433,2.006,2.001c1.523,1.172,3.251,2.085,5.143,2.465
						c1.881,0.326,3.852,0.078,5.656-0.565C105.999,36.245,109.074,33.354,110.333,29.694z"/>
				</g>
			</g>
		</g>
		<g>
			<path fill="#F7931E" d="M96.651,95.691c-0.375,0.137-1.132,0.358-2.038,0.358c-0.995,0-1.817-0.257-2.469-0.872
				c-0.568-0.542-0.928-1.446-0.928-2.467c0.019-1.97,1.372-3.425,3.59-3.425c0.779,0,1.365,0.171,1.652,0.313l-0.206,0.696
				c-0.353-0.16-0.796-0.282-1.461-0.282c-1.615,0-2.664,1.005-2.664,2.653c0,1.686,1.01,2.681,2.553,2.681
				c0.559,0,0.939-0.08,1.142-0.179v-1.982h-1.35V92.51h2.179V95.691z"/>
			<path fill="#F7931E" d="M106.503,93.897l-0.683,2.082h-0.889l2.251-6.618h1.033l2.261,6.618h-0.914l-0.711-2.082H106.503z
				 M108.677,93.227l-0.647-1.901c-0.152-0.425-0.252-0.822-0.345-1.206h-0.017c-0.1,0.395-0.208,0.788-0.33,1.191l-0.652,1.916
				H108.677z"/>
			<path fill="#F7931E" d="M118.808,94.939c0.38,0.238,0.941,0.436,1.529,0.436c0.876,0,1.389-0.459,1.389-1.135
				c0-0.613-0.357-0.97-1.251-1.314c-1.084-0.387-1.747-0.933-1.747-1.881c0-1.03,0.856-1.793,2.139-1.793
				c0.681,0,1.169,0.16,1.466,0.313l-0.24,0.709c-0.215-0.124-0.661-0.312-1.257-0.312c-0.9,0-1.236,0.54-1.236,0.99
				c0,0.62,0.394,0.928,1.313,1.278c1.11,0.435,1.679,0.971,1.679,1.945c0,1.028-0.757,1.909-2.316,1.909
				c-0.645,0-1.332-0.189-1.693-0.424L118.808,94.939z"/>
			<path fill="#F7931E" d="M132.495,90.09h-2.021v-0.729h4.914v0.729h-2.027v5.89h-0.865V90.09z"/>
			<path fill="#F7931E" d="M143.598,89.447c0.433-0.086,1.049-0.14,1.639-0.14c0.908,0,1.504,0.171,1.915,0.544
				c0.33,0.297,0.518,0.752,0.518,1.261c0,0.881-0.546,1.445-1.244,1.688v0.028c0.514,0.18,0.818,0.646,0.971,1.339
				c0.217,0.92,0.378,1.565,0.512,1.812h-0.884c-0.105-0.187-0.26-0.754-0.447-1.576c-0.189-0.917-0.546-1.261-1.322-1.283h-0.809
				v2.859h-0.849V89.447z M144.447,92.459h0.88c0.91,0,1.5-0.497,1.5-1.249c0-0.853-0.625-1.227-1.53-1.239
				c-0.419,0-0.707,0.042-0.85,0.078V92.459z"/>
			<path fill="#F7931E" d="M162.016,92.604c0,2.281-1.391,3.492-3.076,3.492c-1.754,0-2.979-1.353-2.979-3.374
				c0-2.096,1.307-3.471,3.081-3.471C160.843,89.252,162.016,90.635,162.016,92.604z M156.881,92.711
				c0,1.412,0.761,2.684,2.107,2.684c1.357,0,2.125-1.247,2.125-2.753c0-1.316-0.693-2.691-2.111-2.691
				C157.579,89.95,156.881,91.259,156.881,92.711z"/>
			<path fill="#F7931E" d="M170.6,95.979v-6.618h0.932l2.129,3.35c0.492,0.775,0.865,1.466,1.183,2.154l0.026-0.011
				c-0.085-0.886-0.101-1.686-0.101-2.722v-2.771h0.8v6.618h-0.865l-2.1-3.36c-0.466-0.734-0.908-1.486-1.232-2.209l-0.026,0.01
				c0.035,0.839,0.056,1.631,0.056,2.74v2.819H170.6z"/>
			<path fill="#F7931E" d="M190.197,92.604c0,2.281-1.386,3.492-3.076,3.492c-1.751,0-2.978-1.353-2.978-3.374
				c0-2.096,1.307-3.471,3.08-3.471C189.027,89.252,190.197,90.635,190.197,92.604z M185.058,92.711
				c0,1.412,0.763,2.684,2.116,2.684c1.357,0,2.124-1.247,2.124-2.753c0-1.316-0.69-2.691-2.116-2.691
				C185.771,89.95,185.058,91.259,185.058,92.711z"/>
			<path fill="#F7931E" d="M204.363,93.076c-0.041-0.926-0.115-2.04-0.087-2.866h-0.038c-0.229,0.787-0.508,1.605-0.842,2.513
				l-1.165,3.22h-0.647l-1.073-3.151c-0.319-0.93-0.577-1.791-0.771-2.581h-0.013c-0.022,0.826-0.071,1.94-0.134,2.933l-0.178,2.837
				h-0.81l0.468-6.618h1.088l1.125,3.196c0.271,0.825,0.498,1.547,0.676,2.243h0.021c0.168-0.678,0.407-1.404,0.702-2.243
				l1.179-3.196h1.092l0.408,6.618h-0.834L204.363,93.076z"/>
			<path fill="#F7931E" d="M216.02,87.852l-1.252,1.157h-0.707l0.914-1.157H216.02z M215.014,89.361v6.618h-0.858v-6.618H215.014z"
				/>
			<path fill="#F7931E" d="M225.044,93.897l-0.681,2.082h-0.889l2.254-6.618h1.029l2.256,6.618h-0.92l-0.69-2.082H225.044z
				 M227.218,93.227l-0.645-1.901c-0.153-0.425-0.247-0.822-0.341-1.206h-0.031c-0.086,0.395-0.197,0.788-0.334,1.191l-0.642,1.916
				H227.218z"/>
		</g>
		<g>
			<path fill="#303030" d="M2.834,81.181c0-0.632,0.315-0.944,0.945-1.111c4.426-1.104,4.745,7.275,5.375,7.587
				c6.49,5.377,20.243,7.906,30.676,7.906c20.872,0,48.694-11.854,48.694-35.57c0-10.429-5.857-18.49-16.766-19.446
				c-5.058,0-9.009,0.163-13.276,3.956c-2.05,1.746-2.523,6.646-3.163,10.592c4.427-6.954,8.065-12.167,8.065-12.167
				c0.474-0.957,0.943-1.114,1.418-1.114c1.114,0,1.741,1.903,1.741,2.689c0,1.267-0.627,2.373-0.627,2.373l-9.958,14.709
				C41.578,82.133,41.094,89.72,41.094,90.661c0,1.273-0.789,1.582-1.264,1.582c-1.27,0-1.426-0.626-1.426-1.267
				c0-6.801,7.436-21.175,15.015-32.88c0-3.154,0.312-12.021,4.117-15.17c4.585-3.965,9.648-4.596,14.856-4.281
				c11.077,0.641,20.711,8.069,20.711,21.347c0,25.294-30.667,37.94-52.484,37.94c-6.481,0-12.962-0.959-18.971-2.677
				C16.111,94.301,2.834,88.767,2.834,81.181z"/>
		</g>
	</g>
</g>
<g id="Guia">
</g>
</svg>
