<?xml version="1.0" encoding="utf-8"?>
<!-- Generator: Adobe Illustrator 16.0.0, SVG Export Plug-In . SVG Version: 6.00 Build 0)  -->
<!DOCTYPE svg PUBLIC "-//W3C//DTD SVG 1.1//EN" "http://www.w3.org/Graphics/SVG/1.1/DTD/svg11.dtd">
<svg version="1.1" xmlns="http://www.w3.org/2000/svg" xmlns:xlink="http://www.w3.org/1999/xlink" x="0px" y="0px" width="25.25px"
	 height="39.334px" viewBox="0 0 25.25 39.334" enable-background="new 0 0 25.25 39.334" xml:space="preserve">
<g id="Soporte">
</g>
<g id="Vectores">
</g>
<g id="Publicidad">
</g>
<g id="Imagenes">
</g>
<g id="Cintillos">
</g>
<g id="Botones">
</g>
<g id="Logo">
	<path fill="#303030" d="M24.595,10.864C23.349,4.519,17.55,0.423,11.498,1.09C7.692,1.509,4.685,3.304,2.624,6.507
		c-2.207,3.433-2.708,7.09-0.834,10.857c0.773,1.556,1.658,3.052,2.543,4.547c1.441,2.438,2.926,5.177,4.388,7.603
		c0.077,0.125,0.989,2.449,1.132,2.795c0.767,1.878,1.268,4.021,1.354,6.021c1.024,0,1.989,0,2.971,0c0.087,0,0.1-1.934,0.278-2.639
		c0.328-1.289,0.742-2.478,1.155-3.743c0.048-0.146,0.993-2.349,1.071-2.487c0.855-1.496,1.699-3.151,2.571-4.632
		c1.407-2.404,2.88-4.844,4.239-7.275C24.642,15.505,25.059,13.223,24.595,10.864z M12.665,18.048
		c-2.713-0.063-4.935-2.253-4.927-4.979c0.007-2.752,2.223-4.953,4.987-4.953c2.76,0.002,4.963,2.213,4.972,4.965
		C17.706,15.929,15.239,18.11,12.665,18.048z"/>
</g>
<g id="TXT">
</g>
<g id="Guias">
</g>
</svg>
