<?xml version="1.0" encoding="utf-8"?>
<!-- Generator: Adobe Illustrator 16.0.0, SVG Export Plug-In . SVG Version: 6.00 Build 0)  -->
<!DOCTYPE svg PUBLIC "-//W3C//DTD SVG 1.1//EN" "http://www.w3.org/Graphics/SVG/1.1/DTD/svg11.dtd">
<svg version="1.1" xmlns="http://www.w3.org/2000/svg" xmlns:xlink="http://www.w3.org/1999/xlink" x="0px" y="0px"
	 width="51.949px" height="73.303px" viewBox="0 0 51.949 73.303" enable-background="new 0 0 51.949 73.303" xml:space="preserve">
<g id="Soporte">
</g>
<g id="Vectores">
</g>
<g id="Publicidad">
</g>
<g id="Imagenes">
</g>
<g id="Cintillos">
	<path fill="#F7931E" d="M50.924,26.935c0-13.713-11.115-25.131-24.83-25.131S1.263,12.967,1.263,26.681
		c0,1.05,0.073,1.621,0.199,3.193l0.024-0.026c0.885,6.668,4.411,12.388,9.497,16.295l15.11,26.048l15.11-26.131
		c5.085-3.908,8.612-9.15,9.497-15.818l0.109,0.398h-0.086C50.852,28.64,50.924,27.985,50.924,26.935z M26.094,32.49
		c-3.701,0-6.701-3-6.701-6.701s3-6.701,6.701-6.701s6.701,3,6.701,6.701S29.795,32.49,26.094,32.49z"/>
</g>
<g id="Botones">
</g>
<g id="Logos">
</g>
<g id="TXT">
</g>
<g id="Guias">
</g>
</svg>
