<?xml version="1.0" encoding="utf-8"?>
<!-- Generator: Adobe Illustrator 16.0.0, SVG Export Plug-In . SVG Version: 6.00 Build 0)  -->
<!DOCTYPE svg PUBLIC "-//W3C//DTD SVG 1.1//EN" "http://www.w3.org/Graphics/SVG/1.1/DTD/svg11.dtd">
<svg version="1.1" xmlns="http://www.w3.org/2000/svg" xmlns:xlink="http://www.w3.org/1999/xlink" x="0px" y="0px"
	 width="688.167px" height="62px" viewBox="0 0 688.167 62" enable-background="new 0 0 688.167 62" xml:space="preserve">
<g id="Soporte">
</g>
<g id="Vectores">
</g>
<g id="Publicidad">
</g>
<g id="Imagenes">
</g>
<g id="Cintillos">
</g>
<g id="Botones">
</g>
<g id="Logos">
	<g>
		<path fill="#FFFFFF" d="M459.866,59.561h-23.195c-8.873,0-16.139-7.261-16.139-16.137V18.707c0-8.874,7.266-16.133,16.139-16.133
			h23.195c8.877,0,16.137,7.259,16.137,16.133v24.717C476.003,52.3,468.743,59.561,459.866,59.561 M459.866,55.3
			c3.152,0,6.129-1.24,8.383-3.494c2.25-2.251,3.49-5.229,3.49-8.382V18.707c0-3.152-1.24-6.127-3.49-8.383
			c-2.254-2.248-5.23-3.489-8.383-3.489h-23.195c-3.156,0-6.133,1.241-8.385,3.489c-2.248,2.256-3.486,5.23-3.486,8.383v24.717
			c0,3.153,1.238,6.131,3.486,8.382c2.252,2.254,5.229,3.494,8.385,3.494H459.866z"/>
		<path fill="#FFFFFF" d="M463.628,30.848c0,8.435-6.838,15.275-15.273,15.275c-8.438,0-15.275-6.841-15.275-15.275
			c0-8.433,6.838-15.275,15.275-15.275C456.79,15.572,463.628,22.415,463.628,30.848 M448.284,20.855
			c-5.527,0-10.006,4.479-10.006,10.004c0,5.523,4.479,10.004,10.006,10.004c5.521,0,10-4.48,10-10.004
			C458.284,25.334,453.806,20.855,448.284,20.855"/>
		<path fill="#FFFFFF" d="M467.489,15.335c0,1.996-1.619,3.619-3.617,3.619c-1.996,0-3.613-1.623-3.613-3.619
			c0-1.997,1.617-3.618,3.613-3.618C465.87,11.717,467.489,13.338,467.489,15.335"/>
	</g>
	<path fill="#FFFFFF" d="M49.597,2.069H12.722c-5.821,0-10.558,4.738-10.558,10.56v36.875c0,5.822,4.737,10.56,10.558,10.56h16.916
		V36.078h-4.955v-8.268h4.955v-4.96c0-6.746,2.803-10.756,10.754-10.756h6.623v8.267h-4.137c-3.098,0-3.305,1.157-3.305,3.309
		l-0.013,4.141h7.5l-0.875,8.268h-6.624v23.985h10.039c5.82,0,10.563-4.737,10.563-10.56V12.629
		C60.16,6.808,55.417,2.069,49.597,2.069z"/>
	<path fill="#FFFFFF" d="M256.331,2.069h-36.878c-5.818,0-10.558,4.738-10.558,10.56v36.875c0,5.822,4.739,10.56,10.558,10.56
		h36.878c5.82,0,10.562-4.737,10.562-10.56V12.629C266.893,6.808,262.151,2.069,256.331,2.069z M253.379,23.122
		c0.014,0.343,0.021,0.692,0.021,1.039c0,10.556-8.031,22.732-22.73,22.732c-4.513,0-8.714-1.326-12.248-3.592
		c0.627,0.071,1.263,0.11,1.906,0.11c3.744,0,7.189-1.276,9.926-3.417c-3.501-0.065-6.451-2.375-7.465-5.548
		c0.487,0.088,0.986,0.139,1.503,0.139c0.729,0,1.435-0.095,2.104-0.277c-3.653-0.733-6.41-3.961-6.41-7.836
		c0-0.032,0-0.069,0.002-0.1c1.078,0.602,2.308,0.958,3.619,1c-2.146-1.436-3.554-3.879-3.554-6.651c0-1.461,0.396-2.83,1.082-4.014
		c3.937,4.829,9.826,8.015,16.466,8.346c-0.137-0.58-0.206-1.195-0.206-1.821c0-4.409,3.576-7.992,7.989-7.992
		c2.299,0,4.377,0.975,5.832,2.526c1.82-0.358,3.53-1.022,5.076-1.939c-0.6,1.87-1.866,3.434-3.519,4.419
		c1.62-0.189,3.156-0.621,4.591-1.254C256.292,20.593,254.938,22.002,253.379,23.122z"/>
	<path fill="#FFFFFF" d="M675.436,2.071h-36.875c-5.82,0-10.557,4.74-10.557,10.558v36.879c0,5.822,4.736,10.558,10.557,10.558
		h36.875c5.822,0,10.564-4.735,10.564-10.558V12.629C686,6.812,681.258,2.071,675.436,2.071z M649.762,45.544V16.59l21.785,14.479
		L649.762,45.544z"/>
</g>
<g id="TXT">
</g>
<g id="Guias">
</g>
</svg>
