<?xml version="1.0" encoding="utf-8"?>
<!-- Generator: Adobe Illustrator 16.0.0, SVG Export Plug-In . SVG Version: 6.00 Build 0)  -->
<!DOCTYPE svg PUBLIC "-//W3C//DTD SVG 1.1//EN" "http://www.w3.org/Graphics/SVG/1.1/DTD/svg11.dtd">
<svg version="1.1" xmlns="http://www.w3.org/2000/svg" xmlns:xlink="http://www.w3.org/1999/xlink" x="0px" y="0px" width="21.25px"
	 height="34.334px" viewBox="0 0 21.25 34.334" enable-background="new 0 0 21.25 34.334" xml:space="preserve">
<g id="Soporte_1_">
</g>
<g id="Vectores">
</g>
<g id="Publicidad">
</g>
<g id="Imagenes">
</g>
<g id="Cintillos">
</g>
<g id="Logos">
</g>
<g id="Botones">
	<g>
		<path fill="#303030" d="M4.833,0.657v31.305c0,0,0.123,1.521-0.789,1.521c-0.914,0-1.004-1.869-1.004-1.869l0.303-14.695
			c0,0-2.939-0.23-2.559-4.088C1.261,7.962,1.833,2.962,4.833,0.657z"/>
		<path fill="#303030" d="M13.732,12.571c0-2.787-2.217-5.609-3.348-5.609c-1.217,0-3.341,2.869-3.217,5.652
			c0.076,1.717,1.185,3.199,2.607,3.535L9.428,32.114c0,0,0.044,1.379,0.913,1.379s1.086-1.504,1.086-1.504l-0.391-15.85
			C12.485,15.771,13.732,14.237,13.732,12.571z"/>
		<path fill="#303030" d="M20.471,7.917h-0.638v4.871c0,0.119,0.119,0.217,0,0.217s0-0.098,0-0.217V7.917h-1v4.871
			c0,0.119,0.12,0.217,0,0.217c-0.119,0,0-0.098,0-0.217V7.917h-2v4.871c0,0.119,0.12,0.217,0,0.217s0-0.098,0-0.217V7.917h-0.449
			c0,0,0.021,4.402,0.065,6.664c0.011,0.559,0.285,1.358,1.325,1.687l-0.347,15.993c0,0,0.043,1.306,0.912,1.306
			c0.87,0,1.088-1.541,1.088-1.541l-0.391-16.012c1.09-0.277,1.412-0.715,1.434-1.326C20.537,12.861,20.471,7.917,20.471,7.917z"/>
	</g>
</g>
<g id="TXT">
</g>
<g id="Guias">
</g>
</svg>
