<?xml version="1.0" encoding="utf-8"?>
<!-- Generator: Adobe Illustrator 16.0.0, SVG Export Plug-In . SVG Version: 6.00 Build 0)  -->
<!DOCTYPE svg PUBLIC "-//W3C//DTD SVG 1.1//EN" "http://www.w3.org/Graphics/SVG/1.1/DTD/svg11.dtd">
<svg version="1.1" xmlns="http://www.w3.org/2000/svg" xmlns:xlink="http://www.w3.org/1999/xlink" x="0px" y="0px" width="59.75px"
	 height="57.625px" viewBox="0 0 59.75 57.625" enable-background="new 0 0 59.75 57.625" xml:space="preserve">
<g id="Soporte">
</g>
<g id="Vectores">
	<g>
		<path fill="#FFFFFF" d="M58.273,17.768c0-5.705-4.71-10.332-10.417-10.332c-2.215,0-4.308,0.699-5.99,1.887
			c-1.792-4.561-6.253-7.789-11.45-7.789c-5.688,0-10.479,3.867-11.874,9.117c-1.697-1.059-3.706-1.672-5.853-1.672
			c-6.114,0-10.887,4.957-10.887,11.07c0,5.844,4.447,10.625,10.447,11.039V55.25h37V28.037
			C54.25,27.469,58.273,23.088,58.273,17.768z"/>
		<path d="M19.46,21.256c0,0,1.879,9.26,13.149,9.93C32.609,31.186,19.326,34.406,19.46,21.256z"/>
		<path d="M43.479,27.967c0,0-5.367,0-7.648-5.367C35.83,22.6,35.83,29.174,43.479,27.967z"/>
	</g>
</g>
<g id="Publicidad">
</g>
<g id="Imagenes">
</g>
<g id="Cintillos">
</g>
<g id="Logos">
</g>
<g id="Botones">
</g>
<g id="TXT">
</g>
<g id="Guias">
</g>
</svg>
