<?xml version="1.0" encoding="utf-8"?>
<!-- Generator: Adobe Illustrator 16.0.0, SVG Export Plug-In . SVG Version: 6.00 Build 0)  -->
<!DOCTYPE svg PUBLIC "-//W3C//DTD SVG 1.1//EN" "http://www.w3.org/Graphics/SVG/1.1/DTD/svg11.dtd">
<svg version="1.1" xmlns="http://www.w3.org/2000/svg" xmlns:xlink="http://www.w3.org/1999/xlink" x="0px" y="0px" width="27.5px"
	 height="43.745px" viewBox="0 0 27.5 43.745" enable-background="new 0 0 27.5 43.745" xml:space="preserve">
<g id="Soporte">
</g>
<g id="Vectores">
</g>
<g id="Publicidad">
</g>
<g id="Imagenes">
</g>
<g id="Cintillos">
</g>
<g id="Botones">
</g>
<g id="Logo">
	<g>
		<path fill-rule="evenodd" clip-rule="evenodd" fill="#303030" d="M3.997,0.69l8.343,2.886c0,0,1.185,0.548,0.718,1.897
			c-0.467,1.349-1.246,4.993-0.996,6.454c0,0,0.276,0.989-1.415,1.709c-1.691,0.721-9.329,4.535-9.329,4.535
			s-2.079-6.9,1.024-16.269C2.342,1.903,2.667,0.368,3.997,0.69z"/>
		<path fill-rule="evenodd" clip-rule="evenodd" fill="#303030" d="M23.79,42.609l3.08-8.272c0,0,0.332-1.263-1.008-1.761
			c-1.338-0.497-4.646-2.215-5.615-3.336c0,0-0.586-0.843-2.217,0.004c-1.633,0.848-9.434,4.316-9.434,4.316
			s4.004,5.992,13.205,9.557C21.802,43.117,23.193,43.842,23.79,42.609z"/>
		<path fill-rule="evenodd" clip-rule="evenodd" fill="#303030" d="M1.433,18.83c0,0,1.285,7.403,6.778,14.157l5.228-2.404
			c0,0-4.816-4.871-6.848-14.091L1.433,18.83z"/>
	</g>
</g>
<g id="TXT">
</g>
<g id="Guias">
</g>
</svg>
