<?xml version="1.0" encoding="utf-8"?>
<!-- Generator: Adobe Illustrator 16.0.0, SVG Export Plug-In . SVG Version: 6.00 Build 0)  -->
<!DOCTYPE svg PUBLIC "-//W3C//DTD SVG 1.1//EN" "http://www.w3.org/Graphics/SVG/1.1/DTD/svg11.dtd">
<svg version="1.1" xmlns="http://www.w3.org/2000/svg" xmlns:xlink="http://www.w3.org/1999/xlink" x="0px" y="0px"
	 width="27.887px" height="44.5px" viewBox="0 0 27.887 44.5" enable-background="new 0 0 27.887 44.5" xml:space="preserve">
<g id="Soporte_1_">
</g>
<g id="Vectores">
</g>
<g id="Publicidad">
</g>
<g id="Imagenes">
</g>
<g id="Cintillos">
</g>
<g id="Logos">
</g>
<g id="Botones">
	<g>
		<path fill-rule="evenodd" clip-rule="evenodd" fill="#FFFFFF" d="M4.233,1.135l8.342,2.886c0,0,1.185,0.548,0.718,1.897
			c-0.467,1.349-1.246,4.993-0.996,6.454c0,0,0.276,0.989-1.415,1.709c-1.691,0.721-9.329,4.535-9.329,4.535
			s-2.079-6.9,1.024-16.269C2.577,2.348,2.903,0.813,4.233,1.135z"/>
		<path fill-rule="evenodd" clip-rule="evenodd" fill="#FFFFFF" d="M24.026,43.054l3.079-8.272c0,0,0.332-1.263-1.007-1.761
			c-1.338-0.497-4.647-2.215-5.615-3.336c0,0-0.586-0.843-2.218,0.004c-1.632,0.848-9.433,4.316-9.433,4.316
			s4.003,5.992,13.205,9.557C22.037,43.562,23.429,44.286,24.026,43.054z"/>
		<path fill-rule="evenodd" clip-rule="evenodd" fill="#FFFFFF" d="M1.667,19.274c0,0,1.286,7.403,6.779,14.157l5.228-2.404
			c0,0-4.817-4.871-6.848-14.091L1.667,19.274z"/>
	</g>
</g>
<g id="TXT">
</g>
<g id="Guias">
</g>
</svg>
