<?xml version="1.0" encoding="utf-8"?>
<!-- Generator: Adobe Illustrator 16.0.0, SVG Export Plug-In . SVG Version: 6.00 Build 0)  -->
<!DOCTYPE svg PUBLIC "-//W3C//DTD SVG 1.1//EN" "http://www.w3.org/Graphics/SVG/1.1/DTD/svg11.dtd">
<svg version="1.1" xmlns="http://www.w3.org/2000/svg" xmlns:xlink="http://www.w3.org/1999/xlink" x="0px" y="0px"
	 width="31.219px" height="30.246px" viewBox="0 0 31.219 30.246" enable-background="new 0 0 31.219 30.246" xml:space="preserve">
<g id="Soporte">
	<path fill="#303030" d="M25.274,0.456H6.594c-2.947,0-5.348,2.4-5.348,5.35v18.678c0,2.949,2.4,5.35,5.348,5.35h18.68
		c2.948,0,5.35-2.4,5.35-5.35V5.806C30.624,2.856,28.222,0.456,25.274,0.456z M23.779,11.12c0.007,0.174,0.011,0.352,0.011,0.527
		c0,5.346-4.068,11.514-11.514,11.514c-2.286,0-4.414-0.672-6.204-1.818c0.317,0.035,0.64,0.055,0.966,0.055
		c1.896,0,3.642-0.646,5.027-1.73c-1.773-0.033-3.268-1.203-3.781-2.811c0.247,0.045,0.5,0.07,0.762,0.07
		c0.369,0,0.727-0.047,1.065-0.141c-1.851-0.371-3.247-2.006-3.247-3.969c0-0.016,0-0.035,0.001-0.051
		c0.546,0.305,1.169,0.486,1.833,0.508c-1.087-0.729-1.8-1.965-1.8-3.369c0-0.74,0.2-1.434,0.548-2.033
		c1.994,2.445,4.978,4.059,8.341,4.227c-0.069-0.293-0.104-0.605-0.104-0.922c0-2.234,1.812-4.049,4.047-4.049
		c1.164,0,2.217,0.494,2.954,1.279c0.922-0.182,1.788-0.518,2.571-0.982c-0.304,0.947-0.945,1.74-1.782,2.238
		c0.82-0.096,1.599-0.314,2.325-0.635C25.254,9.839,24.568,10.554,23.779,11.12z"/>
</g>
<g id="Vectores">
</g>
<g id="Publicidad">
</g>
<g id="Imagenes">
</g>
<g id="Cintillos">
</g>
<g id="Botones">
</g>
<g id="Logo">
</g>
<g id="TXT">
</g>
<g id="Guias">
</g>
</svg>
