<?xml version="1.0" encoding="utf-8"?>
<!-- Generator: Adobe Illustrator 16.0.0, SVG Export Plug-In . SVG Version: 6.00 Build 0)  -->
<!DOCTYPE svg PUBLIC "-//W3C//DTD SVG 1.1//EN" "http://www.w3.org/Graphics/SVG/1.1/DTD/svg11.dtd">
<svg version="1.1" xmlns="http://www.w3.org/2000/svg" xmlns:xlink="http://www.w3.org/1999/xlink" x="0px" y="0px" width="31.25px"
	 height="31.25px" viewBox="0 0 31.25 31.25" enable-background="new 0 0 31.25 31.25" xml:space="preserve">
<g id="Soporte">
</g>
<g id="Publicidad">
</g>
<g id="Iconos">
</g>
<g id="Imagenes">
</g>
<g id="Cintillos">
</g>
<g id="Botones">
</g>
<g id="TXT">
</g>
<g id="Logo">
	<path fill="#FFFFFF" d="M24.904,0.987H6.225c-2.948,0-5.349,2.4-5.349,5.348v18.68c0,2.949,2.4,5.349,5.349,5.349h18.679
		c2.949,0,5.35-2.399,5.35-5.349V6.335C30.254,3.388,27.853,0.987,24.904,0.987z M23.409,11.651c0.007,0.174,0.011,0.35,0.011,0.526
		c0,5.347-4.068,11.515-11.514,11.515c-2.286,0-4.414-0.672-6.204-1.819c0.317,0.036,0.639,0.056,0.966,0.056
		c1.896,0,3.642-0.646,5.027-1.73c-1.772-0.033-3.267-1.203-3.78-2.811c0.247,0.045,0.5,0.07,0.761,0.07
		c0.369,0,0.726-0.048,1.065-0.141c-1.85-0.371-3.247-2.006-3.247-3.969c0-0.017,0-0.035,0.001-0.051
		c0.545,0.305,1.168,0.485,1.833,0.507c-1.086-0.728-1.799-1.965-1.799-3.369c0-0.74,0.2-1.435,0.548-2.033
		c1.994,2.446,4.978,4.06,8.341,4.228c-0.069-0.295-0.104-0.605-0.104-0.923c0-2.233,1.812-4.048,4.046-4.048
		c1.165,0,2.217,0.493,2.955,1.279c0.922-0.182,1.788-0.518,2.571-0.982c-0.304,0.947-0.945,1.739-1.782,2.238
		c0.82-0.096,1.599-0.314,2.326-0.635C24.885,10.37,24.198,11.084,23.409,11.651z"/>
</g>
<g id="Guia">
</g>
</svg>
